<svg xmlns="http://www.w3.org/2000/svg" fill="none" viewBox="0 0 21 21">
  <g clip-path="url(#a)">
    <path fill="#fff" d="m20.226 7.09-.001-.717a26.42 26.42 0 0 0-.01-.604 8.818 8.818 0 0 0-.115-1.313 4.42 4.42 0 0 0-.412-1.25 4.206 4.206 0 0 0-1.836-1.836 4.403 4.403 0 0 0-1.249-.41A8.815 8.815 0 0 0 15.29.843c-.2-.006-.402-.008-.603-.01H5.765c-.2.001-.402.004-.603.01a8.92 8.92 0 0 0-1.314.115c-.44.079-.85.209-1.248.411A4.207 4.207 0 0 0 .764 3.207c-.204.4-.333.809-.412 1.249a8.69 8.69 0 0 0-.115 1.313c-.006.201-.009.403-.01.604l-.001.717v7.487l.001.717c.001.2.004.402.01.603.012.438.038.88.115 1.314.08.44.209.85.412 1.25a4.202 4.202 0 0 0 1.837 1.835c.399.204.808.333 1.248.411.433.078.876.104 1.314.116.2.006.402.008.603.01h8.921c.2-.002.402-.004.603-.01a8.776 8.776 0 0 0 1.314-.116 4.43 4.43 0 0 0 1.248-.41 4.204 4.204 0 0 0 1.837-1.837c.203-.4.332-.809.412-1.249.077-.433.103-.875.115-1.314.006-.2.008-.402.01-.603V7.09Z"/>
    <path fill="#000" d="M7.69 17.195V7.891H7.3L4.93 9.46v.396l2.343-1.534H7.3v8.873h.39Zm2.316-9.305v.357h5.111v.028l-4.105 8.921h.44l4.07-8.928V7.89h-5.516Z"/>
    <path fill="red" d="M3.86 6.066V4.054h.007l.795 1.806h.264l.793-1.806h.01v2.012h.263V3.4h-.28L4.8 5.536h-.007l-.916-2.134h-.28v2.664h.264Zm3.566-2.079c-.556 0-.865.405-.865.953v.2c0 .552.306.958.865.958.559 0 .863-.406.863-.957V4.94c.001-.548-.308-.953-.863-.953Zm0 .252c.363 0 .576.271.576.715v.172c0 .445-.213.717-.576.717-.365 0-.577-.274-.577-.717v-.172c0-.443.212-.715.577-.715Zm1.402 1.827h.287V4.813c0-.293.16-.563.535-.563.32 0 .526.194.526.543v1.27h.287V4.75c0-.496-.315-.764-.736-.764-.336 0-.528.176-.604.313h-.008v-.28h-.287v2.048Zm2.956-2.081c-.509 0-.819.397-.819.951v.21c0 .564.287.95.819.95a.67.67 0 0 0 .613-.35h.007v.319h.271V3.258h-.287v1.055h-.007a.672.672 0 0 0-.597-.328Zm.026.257c.363 0 .586.285.586.707v.19c0 .44-.217.703-.583.703-.324 0-.56-.236-.56-.705v-.185c0-.478.24-.71.557-.71ZM14.453 5.8h.007v.266h.28V4.644c0-.42-.309-.657-.735-.657-.474 0-.718.248-.742.604h.271c.023-.217.178-.356.46-.356.29 0 .459.155.459.442v.22h-.557c-.467.002-.713.229-.713.583 0 .375.271.62.669.62.312-.002.502-.136.6-.3Zm-.534.051c-.23 0-.44-.123-.44-.377 0-.199.127-.342.426-.342h.548v.252c0 .275-.23.467-.534.467Zm2.935-1.831h-.306l-.584 1.712h-.01l-.585-1.712h-.32l.765 2.078-.04.125c-.06.211-.163.334-.404.334a.96.96 0 0 1-.15-.012v.245c.051.007.127.016.195.016.399 0 .536-.274.643-.569l.058-.153.738-2.064Z"/>
  </g>
  <defs>
    <clipPath id="a">
      <path fill="#fff" d="M.226.833h20v20h-20z"/>
    </clipPath>
  </defs>
</svg>
