<svg xmlns="http://www.w3.org/2000/svg" viewBox="0 0 1622 357">
  <g fill="none" fill-rule="evenodd">
    <path d="M0 0h1622v357H0z"/>
    <path fill="#5DEB5A" fill-rule="nonzero" d="M182 27.27c15.168 0 28.801 8.403 35.583 21.928l111.874 223.121c6.21 12.385 5.558 26.81-1.735 38.594-7.303 11.785-19.953 18.817-33.837 18.817H70.125c-13.883 0-26.533-7.032-33.837-18.817-7.303-11.784-7.955-26.21-1.745-38.594L146.417 49.198C153.2 35.673 166.832 27.27 182 27.27M182 0c-25.43 0-48.664 14.325-60.04 37.003L10.085 260.125a66.776 66.776 0 0 0 2.94 65.123C25.254 344.985 46.86 357 70.125 357h223.75c23.265 0 44.871-12.015 57.1-31.752a66.778 66.778 0 0 0 2.94-65.123L242.04 37.003C230.674 14.325 207.43 0 182 0Z"/>
    <path fill="#101820" fill-rule="nonzero" d="M804.11 91.982a2.415 2.415 0 0 1 2.426 2.414v102.259c0 48.486-30.475 72.345-70.692 72.345-40.216 0-70.691-23.869-70.691-72.345V94.396a2.415 2.415 0 0 1 2.425-2.414h23.871a2.415 2.415 0 0 1 2.426 2.414V194.91c0 33.814 17.738 47.24 41.97 47.24 24.231 0 41.97-13.426 41.97-47.24V94.396a2.415 2.415 0 0 1 2.425-2.414h23.87ZM1222.649 179c-.25 51.22-39.464 90-90.674 90-51.21 0-90.675-38.78-90.675-90s39.465-90 90.675-90c51.21 0 90.424 38.78 90.674 90Zm-152.877 0c0 36.297 26.727 63.149 62.203 63.149s61.953-26.852 61.953-63.149-26.728-63.149-61.953-63.149c-35.226 0-62.203 26.852-62.203 63.149Zm407.463 87.018h-24.723c-1.703 0-2.876-1.706-2.265-3.282l65.43-168.2a3.64 3.64 0 0 1 3.398-2.314h30.936a3.65 3.65 0 0 1 3.398 2.314l65.43 168.2a2.404 2.404 0 0 1-.264 2.235 2.43 2.43 0 0 1-2.001 1.047h-24.723a2.409 2.409 0 0 1-2.265-1.556l-52.763-138.486c-.792-2.075-3.748-2.075-4.54 0l-52.773 138.486a2.429 2.429 0 0 1-2.265 1.556h-.01Zm-999.082 0H453.43c-1.704 0-2.876-1.706-2.265-3.282l65.43-168.2a3.64 3.64 0 0 1 3.398-2.314h30.936a3.65 3.65 0 0 1 3.397 2.314l65.43 168.2a2.404 2.404 0 0 1-.263 2.235 2.43 2.43 0 0 1-2.001 1.047h-24.723a2.409 2.409 0 0 1-2.265-1.556L537.74 125.976c-.792-2.075-3.748-2.075-4.54 0l-52.773 138.486a2.429 2.429 0 0 1-2.265 1.556h-.01Zm929.583-3.9-49.075-62.391c27.69-5.217 43.904-23.839 43.904-52.386 0-32.776-21.456-55.12-59.367-55.12h-68.457c-2.004 0-3.638 1.627-3.638 3.622 0 12.807 10.433 23.19 23.3 23.19h45.798c22.95 0 33.923 11.67 33.923 28.557s-10.733 28.807-33.923 28.807h-65.46c-2.004 0-3.638 1.625-3.638 3.62v83.597a2.415 2.415 0 0 0 2.425 2.414h23.34a2.415 2.415 0 0 0 2.426-2.414v-62.39h26.937l42.612 55.348a24.282 24.282 0 0 0 19.251 9.456h17.728c2.024 0 3.157-2.314 1.914-3.9v-.01Zm-405.77 0-49.075-62.391c27.69-5.217 43.904-23.839 43.904-52.386 0-32.776-21.456-55.12-59.367-55.12H868.97c-2.004 0-3.638 1.627-3.638 3.622 0 12.807 10.433 23.19 23.3 23.19h45.798c22.95 0 33.923 11.67 33.923 28.557s-10.733 28.807-33.923 28.807h-65.46c-2.004 0-3.638 1.625-3.638 3.62v83.597a2.415 2.415 0 0 0 2.425 2.414h23.34a2.415 2.415 0 0 0 2.426-2.414v-62.39h26.937l42.612 55.348a24.282 24.282 0 0 0 19.251 9.456h17.728c2.024 0 3.157-2.314 1.914-3.9v-.01Z"/>
  </g>
</svg>
