<svg viewBox="0 0 20 20" fill="none" xmlns="http://www.w3.org/2000/svg">
  <circle cx="10" cy="10" r="10" fill="#627EEA"/>
  <path d="M10.018 8.102V2.725c-.008 0-.013.004-.02.009-.008.006-.018.014-.043.014-.166.331-.343.65-.523.974-.07.129-.142.258-.214.388-.337.6-.674 1.223-1.01 1.846-.181.338-.367.675-.553 1.013-.182.332-.365.663-.542.995a81.08 81.08 0 0 1-.516.934 79.7 79.7 0 0 0-.516.935c-.031.057-.063.108-.094.16a3.988 3.988 0 0 0-.096.163h.021c.013.014.018.01.025.006a7.611 7.611 0 0 0 .249-.122c.079-.04.158-.08.232-.115.2-.11.382-.198.562-.287l.027-.013.695-.346.569-.277.695-.346c.147-.09.307-.166.46-.238a15.98 15.98 0 0 0 .346-.169c.066-.033.133-.067.204-.1.021 0 .042-.024.042-.047ZM10 17.332l.018.001V13.71c0-.023 0-.046-.02-.046a3.323 3.323 0 0 0-.17-.104c-.057-.035-.115-.07-.168-.104-.323-.217-.652-.428-.98-.64-.335-.216-.67-.431-.999-.652-.284-.185-.574-.37-.863-.554-.29-.185-.58-.37-.864-.554-.01 0-.015-.005-.02-.011-.006-.006-.011-.012-.022-.012 0 .012.006.018.01.023.006.006.011.012.011.023l.316.485c.255.411.518.813.779 1.212.149.227.297.454.443.68l1.263 1.939c.204.312.402.62.601.927l.641.988c.012.014.018.02.024.022Z" fill="#fff"/>
  <path d="M10.015 2.667v7.538h4.123l-4.123-7.538Zm-4.124 7.45L10.015 8.1v4.733L5.89 10.117Zm4.124 3.593v3.594l4.043-6.135-4.043 2.541Z" fill="#C0CBF6"/>
  <path d="M10.015 12.834V8.101l4.123 2.103-4.123 2.63Z" fill="#8197EE"/>
</svg>
