<svg viewBox="0 0 125 40" fill="none" xmlns="http://www.w3.org/2000/svg">
  <path d="M41.164 17.936v-2.297a.33.33 0 0 1 .306-.306h2.603a.11.11 0 0 0 .102-.102v-1.174c0-2.857 1.225-3.929 4.184-3.929h3.827a.33.33 0 0 1 .306.306v2.399a.33.33 0 0 1-.306.306h-3.368c-.663 0-1.173.51-1.173 1.174v.97a.11.11 0 0 0 .102.101h4.286a.33.33 0 0 1 .306.306v2.246a.33.33 0 0 1-.306.306h-4.286a.11.11 0 0 0-.102.102v10.971a.33.33 0 0 1-.306.306H44.48a.33.33 0 0 1-.306-.306V18.344a.11.11 0 0 0-.102-.102H41.47c-.153-.051-.306-.153-.306-.306ZM57.445 29.621h-2.858a.33.33 0 0 1-.306-.306v-18.88a.33.33 0 0 1 .306-.307h2.858a.33.33 0 0 1 .306.306v18.881a.33.33 0 0 1-.306.306ZM76.17 15.384v14.238h-3.215l-.204-2.093h-.255c-1.072 1.48-2.96 2.5-5.206 2.5-4.082 0-6.735-2.347-6.735-6.94v-7.705a.33.33 0 0 1 .306-.306h2.909a.33.33 0 0 1 .306.306v7.247c0 2.96 1.122 4.388 4.031 4.388 2.756 0 4.644-1.786 4.644-4.695v-6.94a.33.33 0 0 1 .306-.306h2.857c.102 0 .256.102.256.306ZM86.833 14.67c5.154 0 8.471 3.215 8.267 8.165 0 .153-.102.255-.255.255H82.19c-.102 0-.153.05-.153.153.357 2.347 2.143 3.827 4.796 3.827 2.246.051 3.828-.97 4.542-2.552a.28.28 0 0 1 .255-.153h3.113c.153 0 .306.154.255.358-.97 3.215-4.031 5.358-8.114 5.307-4.95 0-8.368-3.113-8.368-7.655 0-4.643 3.367-7.705 8.317-7.705Zm4.389 6.021c.102 0 .153-.102.153-.153-.408-1.837-2.092-2.96-4.49-2.96-2.348 0-4.236 1.072-4.695 2.96 0 .102.05.153.153.153h8.879ZM97.398 29.315V15.078h3.215l.204 2.092h.256c1.071-1.48 2.959-2.5 5.358-2.5 4.235 0 6.837 2.347 6.837 6.94v7.705a.33.33 0 0 1-.306.306h-2.908c-.153 0-.307-.153-.307-.306v-7.297c0-2.96-1.122-4.388-4.133-4.388-2.858 0-4.746 1.786-4.746 4.694v6.991a.33.33 0 0 1-.306.306h-2.857a.33.33 0 0 1-.307-.306ZM114.492 17.866V15.57a.33.33 0 0 1 .306-.307h2.399a.11.11 0 0 0 .102-.102v-2.653c0-.153.102-.255.204-.255l2.909-.613c.153-.05.357.102.357.255v3.317a.11.11 0 0 0 .102.103h3.623a.33.33 0 0 1 .306.306v2.245a.33.33 0 0 1-.306.306h-3.623a.11.11 0 0 0-.102.102v7.144c0 .664.51 1.174 1.173 1.174h2.756a.33.33 0 0 1 .306.306v2.398a.33.33 0 0 1-.306.307h-3.164c-3.011 0-4.184-1.072-4.184-3.93v-7.399a.11.11 0 0 0-.102-.102h-2.399c-.204-.05-.357-.153-.357-.306Z" fill="#F5FCFF"/>
  <path fill-rule="evenodd" clip-rule="evenodd" d="M13.912 17.342c.794-.782 2.137-.22 2.137.894V30.33c0 .688-.266 1.35-.742 1.847l-6.34 6.615c-.721.753-1.991.242-1.991-.8V25.549c0-.876.351-1.716.976-2.332l5.96-5.874Zm.03 2.93L9.43 24.716c-.223.22-.348.519-.348.831v7.92c0 .782.952 1.164 1.493.6l3.21-3.35a.562.562 0 0 0 .156-.388V20.271Z" fill="#89F8FF"/>
  <path fill-rule="evenodd" clip-rule="evenodd" d="M29.201 18.264c.72-.73.203-1.968-.823-1.968h-12.07c-.86 0-1.686.339-2.298.943l-6.068 5.98c-.8.79-.241 2.15.881 2.15h12.259c.715 0 1.4-.286 1.901-.795l6.218-6.31Zm-5.167.14c.77 0 1.158.927.617 1.475l-3.169 3.216a.562.562 0 0 1-.4.167H10.9l4.589-4.523c.218-.215.513-.336.82-.336h7.725ZM6.936 1.267c.794-.782 2.137-.22 2.137.894v12.094c0 .688-.266 1.35-.742 1.847l-6.34 6.616c-.721.752-1.991.241-1.991-.8V9.473c0-.876.352-1.716.976-2.332l5.96-5.874Zm.03 2.93L2.455 8.641c-.223.22-.348.519-.348.831v7.92c0 .782.952 1.164 1.493.6l3.21-3.35a.562.562 0 0 0 .156-.388V4.196Z" fill="#89F8FF"/>
  <path fill-rule="evenodd" clip-rule="evenodd" d="M22.22 2.19c.72-.731.202-1.968-.824-1.968H9.326c-.86 0-1.686.338-2.298.942L.96 7.145c-.8.788-.242 2.15.881 2.15H14.1c.715 0 1.4-.287 1.9-.796l6.22-6.31Zm-5.168.139c.77 0 1.157.927.617 1.475L14.5 7.02a.562.562 0 0 1-.4.168H3.918l4.589-4.523c.218-.216.513-.336.82-.336h7.725Z" fill="#89F8FF"/>
</svg>
