<svg viewBox="0 0 15 20" fill="none" xmlns="http://www.w3.org/2000/svg">
  <path d="M14.4 12.07c-.164-.152-.302-.312-.456-.454-.703-.668-.168-1.364-.168-1.364s-.844.132-2.113-.128a4.273 4.273 0 0 0-4.44 1.175 2.618 2.618 0 0 0-2.084 2.334 4.722 4.722 0 0 0-.002.5 4.64 4.64 0 0 0 .024.209s.023.132.038.196l.025.095v.003l.028.094.014.04a2.6 2.6 0 0 1 .286-.97.38.38 0 0 1 .346-.196 7 7 0 0 1 1.352.218 4.28 4.28 0 0 1 2.343 2.9h.001a4.683 4.683 0 0 1-.152 2.937A7.22 7.22 0 0 0 14.4 12.07Zm-4.82-.62a.644.644 0 0 1-1.074-.138c.118-.184.239-.278.36-.328.473-.212.807-.22.807-.22.1.221.073.489-.094.686Z" fill="url(#a)"/>
  <path d="M9.594 16.721a4.743 4.743 0 0 1 .107.5l1.551 1.474.088.021a7.247 7.247 0 0 0 2.415-2.86c-3.78-3.424-7.12-2.33-7.856-2.252.464.029.916.103 1.352.218a4.28 4.28 0 0 1 2.343 2.9Z" fill="url(#b)"/>
  <path d="M7.605.209A.46.46 0 0 0 7.22 0a.459.459 0 0 0-.387.209L1.381 8.544A7.185 7.185 0 0 0 0 12.782c-.004 3.86 3.064 7.044 6.889 7.218.562-.986.571-2.159.565-2.426a4.866 4.866 0 0 1-.236.006h-.033a4.757 4.757 0 0 1-3.361-1.422 4.755 4.755 0 0 1-1.396-3.374 4.751 4.751 0 0 1 .915-2.81l3.875-5.92L9.53 7.69a6.433 6.433 0 0 1 3.095.254L7.605.209Z" fill="url(#c)"/>
  <path d="M12.256 17.96c-.686-1.602-1.57-2.637-2.252-3.249-1.07-.958-1.997-1.25-2.875-1.24-.877.01-1.361.15-1.361.15a.408.408 0 0 1 .13-.017c.465.029.917.102 1.352.217a4.28 4.28 0 0 1 2.344 2.9 4.683 4.683 0 0 1-.152 2.937 7.22 7.22 0 0 0 2.814-1.7v.001Z" fill="url(#d)"/>
  <defs>
    <linearGradient id="a" x1="7.369" y1="12.845" x2="12.113" y2="14.707" gradientUnits="userSpaceOnUse">
      <stop stop-color="#FDF0C2"/>
      <stop offset="1" stop-color="#F6C789"/>
    </linearGradient>
    <linearGradient id="b" x1="9.827" y1="13.377" x2="9.837" y2="18.83" gradientUnits="userSpaceOnUse">
      <stop stop-color="#FDF1C3"/>
      <stop offset=".625" stop-color="#F5C57D"/>
    </linearGradient>
    <linearGradient id="c" x1="2.388" y1="15.63" x2="11.492" y2="4.616" gradientUnits="userSpaceOnUse">
      <stop stop-color="#F5C060"/>
      <stop offset="1" stop-color="#F0994D"/>
    </linearGradient>
    <linearGradient id="d" x1="9.012" y1="13.47" x2="9.009" y2="15.153" gradientUnits="userSpaceOnUse">
      <stop stop-color="#F5C780"/>
      <stop offset="1" stop-color="#FADFA1"/>
    </linearGradient>
  </defs>
</svg>
