<svg xmlns="http://www.w3.org/2000/svg" fill="none" viewBox="0 0 21 21">
  <g clip-path="url(#a)">
    <path fill="#fff" d="m15.489 5.57-4.737-.526-5.79.526-.526 5.263.526 5.263 5.264.658 5.263-.658.526-5.394-.526-5.132Z"/>
    <path fill="#1A73E8" d="M7.122 13.736c-.394-.266-.666-.654-.815-1.167l.913-.376c.083.315.228.56.435.734.205.173.455.259.747.259.299 0 .555-.09.77-.272a.87.87 0 0 0 .322-.694.86.86 0 0 0-.34-.703c-.226-.18-.51-.272-.85-.272h-.527v-.904h.474c.292 0 .538-.079.738-.237a.78.78 0 0 0 .3-.648c0-.245-.09-.44-.269-.586-.179-.146-.405-.22-.68-.22-.268 0-.482.072-.64.215a1.26 1.26 0 0 0-.344.528l-.904-.377c.12-.34.34-.64.662-.898.322-.26.734-.39 1.234-.39.37 0 .703.071.997.215.295.143.527.342.694.594.167.254.25.539.25.854 0 .323-.078.595-.233.819a1.606 1.606 0 0 1-.573.514v.054c.3.125.542.316.735.572a1.5 1.5 0 0 1 .286.922c0 .357-.09.677-.272.957a1.89 1.89 0 0 1-.751.662 2.37 2.37 0 0 1-1.078.242 2.23 2.23 0 0 1-1.281-.397Zm5.604-4.532-.998.725-.5-.76 1.798-1.297h.69v6.12h-.99V9.203Z"/>
    <path fill="#EA4335" d="m15.489 20.833 4.736-4.736-2.368-1.053-2.368 1.052-1.053 2.369 1.053 2.368Z"/>
    <path fill="#34A853" d="m3.91 18.465 1.052 2.368H15.49v-4.736H4.962L3.91 18.465Z"/>
    <path fill="#4285F4" d="M1.804.833C.932.833.226 1.54.226 2.413v13.683l2.368 1.053 2.368-1.053V5.57H15.49l1.052-2.368L15.49.833H1.804Z"/>
    <path fill="#188038" d="M.226 16.097v3.157c0 .873.706 1.58 1.578 1.58h3.158v-4.737H.226Z"/>
    <path fill="#FBBC04" d="M15.489 5.57v10.526h4.737V5.57l-2.369-1.052L15.49 5.57Z"/>
    <path fill="#1967D2" d="M20.226 5.57V2.412a1.58 1.58 0 0 0-1.58-1.579H15.49V5.57h4.737Z"/>
  </g>
  <defs>
    <clipPath id="a">
      <path fill="#fff" d="M.226.833h20v20h-20z"/>
    </clipPath>
  </defs>
</svg>
