<svg viewBox="0 0 84 27" fill="none" xmlns="http://www.w3.org/2000/svg">
  <path d="M24.136 26.939h-5.351L4.74 7.346v19.593H0V0h5.352l14.043 19.61V.002h4.741V26.94ZM26.442 26.939V0h17.08v4.166H31.183l-.008 7.09v4.149l.008 7.366H43.7v4.167H26.442Z" fill="#07130C"/>
  <path d="m45.933 0 11.268 11.267H35.727v4.167h21.516L45.738 26.939h6.095L62.251 16.52a4.453 4.453 0 0 0 0-6.298L52.03 0h-6.096ZM77.452 0 67.229 10.223a4.454 4.454 0 0 0 0 6.298l10.418 10.418h6.095L70.277 13.473a.144.144 0 0 1 0-.203L83.547 0h-6.095Z" fill="#07130C"/>
</svg>
