<svg viewBox="0 0 94 38" fill="none" xmlns="http://www.w3.org/2000/svg">
  <g clip-path="url(#a)">
    <path d="M22 5.813c7.761 0 15.076-1.92 21.5-5.313v3.631c0 .883-.507 1.69-1.313 2.042a50.267 50.267 0 0 1-5.146 1.915h4.196v1.137a2.269 2.269 0 0 1-2.263 2.275H5.026a2.269 2.269 0 0 1-2.263-2.275V8.088H6.96a50.272 50.272 0 0 1-5.146-1.915A2.215 2.215 0 0 1 .5 4.13V.5A45.894 45.894 0 0 0 22 5.813Z" fill="url(#b)"/>
    <path d="M34.692 13.5A2.297 2.297 0 0 1 37 15.786v19.428a2.297 2.297 0 0 1-2.308 2.286h-3.461V20.357c0-.631-.517-1.143-1.154-1.143H13.923c-.637 0-1.154.512-1.154 1.143V37.5H9.308A2.297 2.297 0 0 1 7 35.214V15.786A2.297 2.297 0 0 1 9.308 13.5h25.384Z" fill="url(#c)"/>
    <path d="M78.496 9h2.25v17.314a.56.56 0 0 1-.562.558h-1.688V9ZM76.19 9v1.675a.56.56 0 0 1-.563.56H63.81V9h12.378ZM75.627 24.639c.31 0 .562.25.562.558v1.676H63.811v-2.234h11.816ZM76.189 18.997v-2.234H63.81v2.234H76.19ZM92 9h-2.25v13.685l-7.878-13.09v4.085l7.877 13.192h1.688a.56.56 0 0 0 .563-.558V9ZM86.747 36.9l.872-5.393h.883l-.157.921c.202-.325.466-.577.794-.755a2.448 2.448 0 0 1 1.163-.266c.603 0 1.058.181 1.364.544.313.362.406.925.28 1.687L91.43 36.9h-.906l.515-3.262c.163-1-.172-1.498-1.007-1.498-.544 0-.976.166-1.296.499-.32.333-.526.777-.615 1.331l-.47 2.93h-.905ZM80.437 30.165l.157-1.01h1.118l-.168 1.01h-1.107Zm-.984 6.736.861-5.393h.906l-.861 5.393h-.906ZM70.079 37c-.313 0-.608-.07-.884-.21a1.737 1.737 0 0 1-.648-.578 1.457 1.457 0 0 1-.246-.832c0-.57.242-.98.727-1.232.492-.251 1.274-.377 2.347-.377h.772l.056-.333c.074-.422.018-.744-.168-.966-.186-.229-.514-.344-.984-.344-.663 0-1.278.19-1.844.566l-.258-.654c.269-.193.6-.344.995-.455a4.263 4.263 0 0 1 1.208-.178c.76 0 1.293.207 1.598.622.306.414.403.965.291 1.653l-.514 3.218h-.86l.133-.843a1.77 1.77 0 0 1-.749.71 2.164 2.164 0 0 1-.972.233Zm.223-.677c.403 0 .764-.133 1.084-.4.321-.273.522-.65.604-1.131l.067-.433h-.559c-.574 0-1.028.03-1.364.089-.327.059-.562.159-.704.3-.141.14-.212.332-.212.576 0 .326.108.574.324.744.216.17.47.255.76.255ZM57.78 36.9l1.253-7.823h.905l-.525 3.307c.2-.311.466-.551.794-.722.327-.17.704-.255 1.129-.255.603 0 1.058.181 1.364.544.313.362.406.925.279 1.687l-.514 3.262h-.906l.514-3.262c.164-.999-.171-1.498-1.006-1.498-.544 0-.976.166-1.297.499-.32.333-.525.777-.614 1.332l-.47 2.93h-.905ZM50.381 37c-.805 0-1.405-.222-1.8-.666-.387-.444-.581-1.02-.581-1.73 0-.4.056-.789.168-1.166.111-.377.287-.718.525-1.021.239-.31.54-.555.906-.733.365-.184.8-.277 1.308-.277.357 0 .7.06 1.028.178.328.118.589.277.783.477l-.325.644c-.38-.378-.864-.567-1.453-.567-.484 0-.876.123-1.174.367a2.04 2.04 0 0 0-.637.92 3.453 3.453 0 0 0-.201 1.166c0 .503.12.91.358 1.22.246.304.648.456 1.207.456.224 0 .462-.045.715-.134.254-.096.489-.24.705-.432l.268.665c-.216.2-.492.355-.827.467-.328.11-.652.166-.973.166ZM48 9h13.504v2.234H48.563a.56.56 0 0 1-.563-.559V9ZM50.872 24.638h10.632v1.676a.56.56 0 0 1-.563.558H48v-2.234h.005l9.764-12.287h2.866l-9.763 12.287Z" fill="#fff"/>
  </g>
  <defs>
    <linearGradient id="b" x1=".5" y1="6" x2="43.5" y2="6" gradientUnits="userSpaceOnUse">
      <stop stop-color="#F9F128"/>
      <stop offset=".5" stop-color="#C2F147"/>
      <stop offset="1" stop-color="#2CEAA3"/>
    </linearGradient>
    <linearGradient id="c" x1="7" y1="25.5" x2="37" y2="25.5" gradientUnits="userSpaceOnUse">
      <stop stop-color="#F9F128"/>
      <stop offset=".5" stop-color="#C2F147"/>
      <stop offset="1" stop-color="#2CEAA3"/>
    </linearGradient>
    <clipPath id="a">
      <path fill="#fff" transform="translate(0 .5)" d="M0 0h93.06v37H0z"/>
    </clipPath>
  </defs>
</svg>
