<svg viewBox="0 0 30 30" fill="none" xmlns="http://www.w3.org/2000/svg">
  <path d="m19.094 2.756.03.007a.955.955 0 0 1 .108.014l.129.035.003.001.021.007.063.023a.996.996 0 0 1 .28.185l5.522 5.297.152.146-.016.021a.986.986 0 0 1 .172.556v11.68a2.778 2.778 0 0 1-2.49 2.76l-.282.014h-1.397v.975a2.778 2.778 0 0 1-2.49 2.758l-.283.015H5.442a1 1 0 0 1-.995-.898l-.006-.102V7.499c0-.552.45-1 1-1h3.17V3.75l.006-.103a1 1 0 0 1 .995-.897h9.423a.32.32 0 0 1 .06.006ZM6.001 25.69h13.056l.058-.005c.137-.029.302-.157.453-.398.165-.264.262-.585.262-.81v-.975H9.612a1 1 0 0 1-1-1.001V8.059h-2.61V25.69Zm4.17-3.749h13.056l.08-.003a.774.774 0 0 0 .692-.77V9.607h-3.192c-.733 0-1.329-.182-1.74-.591-.41-.41-.592-1.006-.592-1.74V4.31H10.17v17.63Zm7.207-9.186a.66.66 0 0 1 .465.287l1.332 1.999 1.605-1.282.084-.058a.658.658 0 0 1 .666.009l.083.06a.657.657 0 0 1 .22.628l-.866 4.325a.658.658 0 0 1-.527.517l-.115.01H14.27a.656.656 0 0 1-.643-.527l-.865-4.325a.656.656 0 0 1 .302-.688l.09-.046a.658.658 0 0 1 .66.095l1.604 1.282 1.333-1.999a.658.658 0 0 1 .545-.292l.081.005Zm-1.265 3.608a.658.658 0 0 1-.444.285.658.658 0 0 1-.395-.063l-.115-.073-.76-.607.41 2.034h4.979l.406-2.034-.757.607a.658.658 0 0 1-.374.142l-.136-.006a.66.66 0 0 1-.358-.18l-.087-.105-1.185-1.777-1.184 1.777Zm3.922-9.088.004.08c.04.388.37.692.768.692h1.706l-2.478-2.39v1.618Z" fill="currentColor"/>
</svg>
