<svg xmlns="http://www.w3.org/2000/svg" viewBox="0 0 30 30" fill="none">
  <path d="M13.229 9.946c.401 0 .727.329.727.735v.636a.731.731 0 0 1-.727.735h-.353a.731.731 0 0 0-.727.735v6.532a.731.731 0 0 1-.727.735h-.695A.731.731 0 0 1 10 19.32v-6.532c0-.406.326-.735.727-.735h.352c.402 0 .728-.33.728-.736v-.635a.73.73 0 0 1 .727-.735h.694Zm4.311 0c.402 0 .728.329.728.735v.636c0 .405.326.735.727.735h.278c.401 0 .727.329.727.735v6.532a.731.731 0 0 1-.727.735h-.695a.731.731 0 0 1-.727-.735v-6.532a.731.731 0 0 0-.727-.735h-.278a.731.731 0 0 1-.727-.736v-.635c0-.406.326-.735.727-.735h.695Zm-2.178 4.031c.402 0 .727.33.727.735v2.622a.731.731 0 0 1-.727.735h-.694a.731.731 0 0 1-.728-.735v-2.622c0-.406.326-.735.728-.735h.694Z" fill="currentColor"/>
  <path fill-rule="evenodd" clip-rule="evenodd" d="M15.894 4.213a1.98 1.98 0 0 0-1.788 0l-8 4.044A2.024 2.024 0 0 0 5 10.065v9.87c0 .766.428 1.466 1.106 1.808l8 4.044a1.981 1.981 0 0 0 1.788 0l8-4.044A2.024 2.024 0 0 0 25 19.935v-9.87c0-.766-.428-1.466-1.106-1.808l-8-4.044ZM7 10.065l8-4.043 8 4.043v9.87l-8 4.043-8-4.043v-9.87Z" fill="currentColor"/>
</svg>
