<svg xmlns="http://www.w3.org/2000/svg" fill="none" viewBox="0 0 30 30">
  <path fill="currentColor" d="M6.485 23.997a4.23 4.23 0 0 0 1.234.183 4.31 4.31 0 0 0 2.29-.7c.545-.353 1.022-.824 1.403-1.386s.66-1.202.817-1.884l.197-.825h5.144l.155.844c.157.682.435 1.323.816 1.885s.859 1.032 1.404 1.385a4.334 4.334 0 0 0 1.733.658 4.18 4.18 0 0 0 1.825-.14c1.214-.384 2.244-1.285 2.868-2.51a5.933 5.933 0 0 0 .467-4.04l-1.997-8.496c-.16-.682-.437-1.322-.818-1.883s-.858-1.033-1.403-1.387a4.333 4.333 0 0 0-1.733-.657 4.18 4.18 0 0 0-1.825.14c-.632.194-1.221.534-1.73.998s-.923 1.042-1.22 1.696h-2.228c-.298-.653-.714-1.23-1.222-1.694s-1.096-.804-1.728-1a4.18 4.18 0 0 0-1.825-.14c-.61.088-1.2.312-1.733.657A4.969 4.969 0 0 0 5.97 7.095a5.602 5.602 0 0 0-.813 1.895l-1.998 8.477a5.932 5.932 0 0 0 .472 4.025c.621 1.22 1.646 2.12 2.855 2.505zM8.234 7.36a2.752 2.752 0 0 1 1.474-.441c.26 0 .52.04.772.115.467.148.895.418 1.25.788.355.37.626.83.79 1.34l.206.634h4.544l.206-.633c.163-.51.432-.97.786-1.34s.78-.64 1.246-.789c.377-.114.77-.144 1.156-.088.387.056.76.197 1.099.414.348.228.653.53.896.891.243.36.419.772.518 1.21l1.998 8.476c.214.872.112 1.804-.285 2.592s-1.055 1.37-1.833 1.618c-.376.114-.77.144-1.156.088a2.761 2.761 0 0 1-1.098-.414c-.35-.228-.655-.531-.9-.892s-.422-.77-.524-1.208l-.523-2.254H11.14l-.532 2.254c-.1.438-.277.85-.522 1.21-.244.361-.55.663-.9.89a2.738 2.738 0 0 1-1.095.414 2.64 2.64 0 0 1-1.152-.088c-.777-.25-1.435-.832-1.832-1.62a3.815 3.815 0 0 1-.294-2.59L6.81 9.46c.208-.883.72-1.638 1.424-2.1zm12.765 3.985a.857.857 0 1 1-1.714 0 .857.857 0 0 1 1.714 0zm-12.098 3.14a1.715 1.715 0 1 0 1.906-2.85 1.715 1.715 0 0 0-1.906 2.85zm11.241 1.147a.857.857 0 1 0 0-1.714.857.857 0 0 0 0 1.714zm-.857-2.572a.857.857 0 1 1-1.714 0 .857.857 0 0 1 1.714 0zm2.572.857a.857.857 0 1 0 0-1.714.857.857 0 0 0 0 1.714z" fill-rule="evenodd" clip-rule="evenodd"/>
</svg>
