<svg viewBox="0 0 30 31" fill="none" xmlns="http://www.w3.org/2000/svg">
  <path d="M6.232 23.08h6.577v2.23H5.115A1.115 1.115 0 0 1 4 24.194V4.115A1.115 1.115 0 0 1 5.115 3h17.617a1.117 1.117 0 0 1 1.116 1.115V13h-2.23V5.231H6.231V23.08Z" fill="currentColor"/>
  <path d="M14.188 13.584a6.26 6.26 0 0 1 2.966.877c-.72.33-1.373.78-1.931 1.327a4.22 4.22 0 0 0-1.268-.195c-1.48 0-2.78.725-3.589 1.879a.418.418 0 0 1-.34.178H8.643a.417.417 0 0 1-.368-.609c1.088-2.07 3.208-3.461 5.68-3.462l.233.005ZM14.086 6.6a3.184 3.184 0 0 1 3.022 3.179 3.184 3.184 0 0 1-3.022 3.178l-.164.005a3.185 3.185 0 0 1-3.186-3.183 3.186 3.186 0 0 1 3.186-3.184l.164.005Zm-.164 2.009a1.17 1.17 0 0 0-1.17 1.17l.006.119a1.17 1.17 0 0 0 2.335-.12l-.006-.119a1.171 1.171 0 0 0-1.165-1.05Z" fill="currentColor"/>
  <path clip-rule="evenodd" d="M22.998 24.393a4.805 4.805 0 1 1 .728-.728l2.457 2.456a.515.515 0 1 1-.728.728l-2.457-2.456Zm.761-3.743a3.776 3.776 0 1 1-7.55 0 3.776 3.776 0 0 1 7.55 0Z" stroke="currentColor" stroke-width="1.2" stroke-linejoin="round"/>
</svg>
