<svg viewBox="0 0 30 30" fill="none" xmlns="http://www.w3.org/2000/svg">
  <path d="M13.61 25a2.262 2.262 0 0 1-1.615-.665l-6.318-6.318a2.265 2.265 0 0 1 0-3.23l8.456-8.457c.76-.76 2.138-1.33 3.183-1.33h5.416c1.235 0 2.28 1.045 2.28 2.28v5.416c0 1.045-.57 2.423-1.33 3.183l-8.456 8.456A2.262 2.262 0 0 1 13.61 25Zm3.706-18.575c-.665 0-1.71.428-2.185.903l-8.456 8.456a.832.832 0 0 0 0 1.187l6.318 6.319c.332.332.902.332 1.188 0l8.456-8.456c.475-.475.902-1.473.902-2.185V7.232a.852.852 0 0 0-.855-.855h-5.368v.047Z" fill="currentColor" stroke="currentColor" stroke-width=".5"/>
  <path d="M19.311 13.504a2.808 2.808 0 0 1-2.803-2.803 2.808 2.808 0 0 1 2.803-2.803 2.808 2.808 0 0 1 2.803 2.803 2.808 2.808 0 0 1-2.803 2.803Zm0-4.276a1.48 1.48 0 0 0-1.473 1.473 1.48 1.48 0 0 0 1.473 1.473 1.48 1.48 0 0 0 1.473-1.473 1.48 1.48 0 0 0-1.473-1.473Z" fill="currentColor" stroke="currentColor" stroke-width=".5"/>
</svg>
