<svg viewBox="0 0 30 30" fill="none" xmlns="http://www.w3.org/2000/svg">
  <path d="M6.063 14.904a.99.99 0 0 1 1.118.844 7.742 7.742 0 0 0 13.949 3.457.11.11 0 0 0-.089-.175h-1.907a.99.99 0 0 1 0-1.98h4.311a.99.99 0 0 1 .99.99v4.311a.99.99 0 0 1-1.98 0V21.04a.11.11 0 0 0-.193-.07 9.719 9.719 0 0 1-8.659 3.353A9.72 9.72 0 0 1 5.22 16.02a.99.99 0 0 1 .843-1.116Zm8.76-2.165a2.068 2.068 0 1 1 0 4.137 2.068 2.068 0 0 1 0-4.137Zm-.004 2.046a.03.03 0 0 0-.006.002.024.024 0 0 0-.006.004.028.028 0 0 0-.004.007.04.04 0 0 0-.002.006v.002H14.8l.045.002v-.002l-.001-.002-.001-.006a.022.022 0 0 0-.005-.007.024.024 0 0 0-.007-.004l-.002-.001-.003-.001h-.007ZM9.936 6.514a9.72 9.72 0 0 1 14.49 7.079.99.99 0 1 1-1.961.272 7.741 7.741 0 0 0-13.95-3.456.11.11 0 0 0 .09.174h1.907a.99.99 0 0 1 0 1.98H6.2a.99.99 0 0 1-.99-.99V7.262a.99.99 0 0 1 1.98 0v1.311a.11.11 0 0 0 .072.104.11.11 0 0 0 .122-.033 9.722 9.722 0 0 1 2.552-2.13Z" fill="currentColor"/>
</svg>
