<svg viewBox="0 0 125 39" fill="none" xmlns="http://www.w3.org/2000/svg">
  <path d="M41.159 17.714v-2.296a.33.33 0 0 1 .306-.306h2.602a.11.11 0 0 0 .102-.102v-1.174c0-2.858 1.225-3.93 4.185-3.93h3.827a.33.33 0 0 1 .306.307v2.398a.33.33 0 0 1-.306.306h-3.368c-.663 0-1.174.51-1.174 1.174v.97a.11.11 0 0 0 .102.102h4.287a.33.33 0 0 1 .306.306v2.245a.33.33 0 0 1-.306.306H47.74a.11.11 0 0 0-.102.102v10.972a.33.33 0 0 1-.306.306h-2.857a.33.33 0 0 1-.307-.306V18.122a.11.11 0 0 0-.102-.102h-2.602c-.153-.05-.306-.153-.306-.306ZM57.436 29.4h-2.858a.33.33 0 0 1-.306-.306V10.213a.33.33 0 0 1 .306-.306h2.858a.33.33 0 0 1 .306.306v18.88a.33.33 0 0 1-.306.307Zm18.729-14.237V29.4H72.95l-.204-2.092h-.255c-1.072 1.48-2.96 2.5-5.205 2.5-4.083 0-6.736-2.347-6.736-6.94v-7.705a.33.33 0 0 1 .306-.306h2.909a.33.33 0 0 1 .306.306v7.246c0 2.96 1.122 4.389 4.031 4.389 2.756 0 4.644-1.786 4.644-4.695v-6.94a.33.33 0 0 1 .306-.306h2.857c.103 0 .256.102.256.306Zm10.663-.715c5.154 0 8.47 3.215 8.267 8.165 0 .153-.102.255-.255.255H82.183c-.102 0-.153.051-.153.153.357 2.348 2.143 3.827 4.797 3.827 2.245.051 3.827-.97 4.542-2.551a.28.28 0 0 1 .255-.153h3.112c.154 0 .307.153.256.357-.97 3.215-4.032 5.358-8.114 5.307-4.95 0-8.369-3.113-8.369-7.654 0-4.644 3.368-7.706 8.318-7.706Zm4.388 6.022c.103 0 .154-.102.154-.153-.409-1.837-2.093-2.96-4.491-2.96-2.347 0-4.235 1.072-4.695 2.96 0 .102.051.153.153.153h8.88Zm6.178 8.624V14.856h3.214l.204 2.093h.256c1.071-1.48 2.959-2.5 5.358-2.5 4.235 0 6.838 2.347 6.838 6.94v7.705a.33.33 0 0 1-.307.306h-2.908a.33.33 0 0 1-.306-.306v-7.298c0-2.96-1.123-4.388-4.134-4.388-2.857 0-4.745 1.786-4.745 4.695v6.99a.33.33 0 0 1-.307.307H97.7a.33.33 0 0 1-.306-.306Zm17.093-11.45v-2.296a.33.33 0 0 1 .306-.306h2.399a.11.11 0 0 0 .102-.102v-2.654c0-.153.102-.255.204-.255l2.909-.612c.153-.051.357.102.357.255v3.317a.11.11 0 0 0 .102.102h3.623a.33.33 0 0 1 .306.306v2.245a.33.33 0 0 1-.306.306h-3.623a.11.11 0 0 0-.102.102v7.145c0 .663.51 1.173 1.174 1.173h2.755a.33.33 0 0 1 .306.306v2.399a.33.33 0 0 1-.306.306h-3.164c-3.01 0-4.184-1.072-4.184-3.93v-7.399a.11.11 0 0 0-.102-.102h-2.399c-.204-.05-.357-.153-.357-.306Z" fill="#212121"/>
  <path fill-rule="evenodd" clip-rule="evenodd" d="M13.911 17.12c.794-.782 2.137-.22 2.137.895v12.093a2.67 2.67 0 0 1-.742 1.847l-6.34 6.616c-.721.752-1.991.242-1.991-.8V25.327c0-.877.351-1.717.976-2.333l5.96-5.873Zm.03 2.93L9.43 24.494a1.17 1.17 0 0 0-.348.832v7.92c0 .78.952 1.164 1.493.6l3.21-3.35a.562.562 0 0 0 .156-.389V20.05Z" fill="#5418FF"/>
  <path fill-rule="evenodd" clip-rule="evenodd" d="M29.2 18.042c.72-.73.203-1.967-.823-1.967h-12.07c-.86 0-1.685.338-2.298.942L7.94 22.998c-.8.788-.241 2.15.881 2.15H21.08c.715 0 1.4-.287 1.901-.796l6.218-6.31Zm-5.167.14c.77 0 1.158.927.617 1.475l-3.169 3.216a.562.562 0 0 1-.4.168H10.899l4.589-4.523c.218-.216.513-.336.82-.336h7.725ZM6.935 1.046c.794-.782 2.137-.22 2.137.894v12.094c0 .688-.266 1.35-.742 1.846l-6.34 6.616c-.721.752-1.991.242-1.991-.8V9.252c0-.877.352-1.717.976-2.333l5.96-5.873Zm.03 2.929L2.454 8.42a1.17 1.17 0 0 0-.348.832v7.92c0 .781.952 1.164 1.493.6l3.21-3.35a.562.562 0 0 0 .156-.389V3.976Z" fill="#5418FF"/>
  <path fill-rule="evenodd" clip-rule="evenodd" d="M22.218 1.968c.72-.731.203-1.968-.823-1.968H9.325c-.86 0-1.686.339-2.298.942L.959 6.923c-.8.789-.242 2.15.881 2.15H14.1c.714 0 1.4-.287 1.9-.796l6.22-6.31Zm-5.167.139c.77 0 1.158.928.617 1.476L14.5 6.798a.562.562 0 0 1-.4.168H3.917l4.589-4.523c.218-.215.513-.336.82-.336h7.725Z" fill="#5418FF"/>
</svg>
