<svg viewBox="0 0 129 24" fill="none" xmlns="http://www.w3.org/2000/svg">
  <g clip-path="url(#a)" fill="#fff">
    <path d="M35.953 10.128V6.955H47.33v3.173H35.953Zm2.813 13.651V5.874c0-1.778.527-3.201 1.583-4.27C41.404.536 42.909 0 44.87 0c.704 0 1.368.074 1.997.223.629.149 1.156.382 1.582.7l-1.085 2.984a3.118 3.118 0 0 0-1.024-.523 4.056 4.056 0 0 0-1.183-.176c-.83 0-1.46.228-1.887.682-.427.456-.639 1.138-.639 2.048v1.904l.128 1.778v14.16h-3.996.002ZM50.664 23.779V.223h3.996v23.556h-3.996ZM65.679 23.999c-1.45 0-2.728-.27-3.837-.811-1.108-.54-1.971-1.366-2.588-2.477-.619-1.11-.926-2.514-.926-4.207v-9.68h3.996v9.144c0 1.525.347 2.663 1.038 3.412.692.75 1.678 1.128 2.956 1.128.938 0 1.752-.191 2.446-.57.691-.382 1.235-.953 1.63-1.716.394-.761.591-1.704.591-2.827v-8.57h3.996v16.953h-3.804v-4.572l.672 1.396a5.852 5.852 0 0 1-2.526 2.524c-1.108.582-2.324.873-3.644.873ZM87.06 23.998c-1.897 0-3.554-.377-4.97-1.128-1.417-.751-2.513-1.783-3.292-3.094-.778-1.312-1.165-2.804-1.165-4.475 0-1.671.377-3.191 1.136-4.493A8.115 8.115 0 0 1 81.9 7.744c1.33-.742 2.85-1.111 4.555-1.111 1.705 0 3.142.36 4.443 1.078a7.837 7.837 0 0 1 3.067 3.047c.747 1.312 1.119 2.857 1.119 4.637a12.164 12.164 0 0 1-.063 1.172H80.8v-2.635h12.113l-1.565.826c.02-.975-.182-1.83-.606-2.571a4.656 4.656 0 0 0-1.743-1.746c-.736-.424-1.582-.635-2.54-.635-.959 0-1.838.211-2.574.635a4.502 4.502 0 0 0-1.725 1.763c-.414.751-.623 1.634-.623 2.65v.635c0 1.017.234 1.916.703 2.697a4.673 4.673 0 0 0 1.982 1.81c.851.424 1.832.635 2.94.635.959 0 1.822-.149 2.589-.444a5.498 5.498 0 0 0 2.044-1.396l2.141 2.445c-.766.888-1.732 1.572-2.892 2.048-1.161.476-2.489.714-3.979.714h-.005ZM107.523 6.633c1.363 0 2.583.265 3.659.793 1.076.528 1.922 1.339 2.541 2.427.619 1.091.926 2.492.926 4.208v9.714h-3.996v-9.206c0-1.502-.357-2.623-1.071-3.364-.714-.742-1.71-1.111-2.988-1.111-.938 0-1.769.19-2.493.57a3.933 3.933 0 0 0-1.677 1.699c-.395.75-.592 1.698-.592 2.84v8.572h-3.996V6.824h3.804v4.572L100.968 10c.597-1.079 1.466-1.91 2.606-2.492 1.141-.583 2.456-.873 3.946-.873l.003-.002ZM116.297 10.127V6.953h11.376v3.174h-11.376Zm8.691 13.872c-1.875 0-3.325-.481-4.346-1.446-1.02-.964-1.535-2.385-1.535-4.27V3.079h3.996V18.19c0 .805.208 1.428.624 1.872.417.443.996.666 1.743.666.893 0 1.639-.233 2.236-.699l1.118 2.827c-.469.382-1.043.667-1.725.858a7.78 7.78 0 0 1-2.109.285h-.002ZM25.973 3.54V0H.027v3.54h11.547a24.248 24.248 0 0 0-5.776 4.92H0V12h3.28A23.715 23.715 0 0 0 .027 24h3.565c0-4.48 1.462-8.628 3.93-12.002h6.735c-3.46 2.838-5.668 7.133-5.668 11.928h3.564c0-6.578 5.386-11.928 12.008-11.928h1.782V8.457H10.815a20.585 20.585 0 0 1 13.373-4.919h1.783l.002.003Z"/>
  </g>
  <defs>
    <clipPath id="a">
      <path fill="#fff" d="M0 0h128.816v24H0z"/>
    </clipPath>
  </defs>
</svg>
