<svg fill="none" xmlns="http://www.w3.org/2000/svg" viewBox="0 0 30 30">
  <path d="m4 15.793 7.071-6.472M4 15.793l7.857 4.921M4 15.793 8.15 5.415M4 15.793l6.226 8.716m.845-15.188L19.358 5m-8.287 4.321-2.92-3.906M19.358 5l2.076 8.643M19.358 5 26 13.302M19.358 5l-11.207.415m13.283 8.228v10.036m0-10.036L26 13.302m-4.566 10.377-9.577-2.965m9.577 2.965-11.208.83m11.208-.83L26 13.302m-14.143 7.412-1.63 3.795m7.471-13.283h-5.396l3.32 3.321-3.32 3.736h5.396" stroke="#129C6B" stroke-width="1.4" stroke-linejoin="round"/>
</svg>
