<svg fill="none" xmlns="http://www.w3.org/2000/svg" viewBox="0 0 30 30">
  <rect x="4" y="4" width="22" height="22" rx="11" fill="#627EEA"/>
  <path d="M15.224 12.912V6.998c-.01 0-.015.004-.022.009a.07.07 0 0 1-.049.016c-.186.364-.384.715-.585 1.072l-.24.426c-.378.66-.755 1.345-1.133 2.03-.202.372-.41.743-.619 1.115-.204.364-.409.73-.608 1.094a87.06 87.06 0 0 1-.578 1.028c-.194.343-.389.686-.578 1.028-.034.063-.07.119-.104.175a4.41 4.41 0 0 0-.108.18h.024c.014.016.02.013.027.007.005-.003.01-.006.02-.006a8.69 8.69 0 0 0 .26-.127c.088-.045.176-.09.259-.127.225-.121.428-.219.63-.316l.03-.014.779-.381.637-.305.778-.38c.166-.1.345-.183.517-.263l.144-.067c.085-.04.164-.079.243-.118.075-.037.149-.074.229-.111.024 0 .047-.025.047-.05Zm-.021 10.153c.005.002.011.002.021.002V19.08c0-.025 0-.051-.024-.051a5.308 5.308 0 0 0-.188-.114c-.065-.038-.13-.076-.189-.114a68.01 68.01 0 0 0-1.099-.705c-.375-.237-.75-.474-1.119-.717a140.9 140.9 0 0 0-.967-.61c-.324-.202-.649-.405-.967-.608-.012 0-.018-.007-.024-.013-.006-.006-.011-.012-.023-.012 0 .012.006.018.011.025.006.006.012.012.012.025l.354.533c.285.453.58.895.873 1.333.166.25.332.5.495.749l1.416 2.132.674 1.02c.237.36.474.72.718 1.087.014.015.02.021.026.024Z" fill="#fff"/>
  <path d="M15.22 6.933v8.292h4.62l-4.62-8.292Zm-4.62 8.195 4.62-2.217v5.206l-4.62-2.989Zm4.62 3.953v3.953l4.53-6.749-4.53 2.796Z" fill="#C0CBF6"/>
  <path d="M15.22 18.117v-5.206l4.62 2.314-4.62 2.892Z" fill="#8197EE"/>
</svg>
