<svg fill="none" xmlns="http://www.w3.org/2000/svg" viewBox="0 0 30 30">
  <path fill-rule="evenodd" clip-rule="evenodd" d="M5.809 9.496c.034.03.062.054.088.079.276.268.55.538.83.803.064.06.064.1.019.168-.587.888-.8 1.861-.605 2.892.263 1.383 1.068 2.391 2.383 2.998.776.36 1.6.451 2.447.326a4.14 4.14 0 0 0 1.588-.578c.08-.05.125-.044.19.02.715.703 1.435 1.401 2.149 2.104.078.078.12.087.204.004.816-.797 1.639-1.589 2.455-2.386.09-.088.146-.103.264-.034.713.415 1.491.582 2.322.544 1.65-.074 3.158-1.191 3.67-2.724.387-1.161.243-2.263-.388-3.311-.041-.069-.045-.11.018-.17.23-.214.454-.435.68-.653.021-.02.045-.038.067-.058a10.323 10.323 0 0 1-1.13 13.055c-4.03 4.223-10.68 4.551-15.12.927-4.51-3.68-5.046-9.723-2.131-14.006Z" fill="#276749"/>
  <path fill-rule="evenodd" clip-rule="evenodd" d="M22.566 8.13C18.24 3.846 11.203 4.21 7.45 7.96c.022.023.043.049.066.071 2.48 2.407 4.961 4.814 7.44 7.222.07.068.11.06.173-.003.32-.314.643-.626.967-.937 2.091-2.012 4.183-4.025 6.276-6.036.056-.054.126-.095.195-.147Zm-7.53 8.643L5.968 7.961c.022-.028.04-.055.061-.078C7.12 6.71 8.387 5.763 9.865 5.089a11.91 11.91 0 0 1 2.518-.828 12.308 12.308 0 0 1 3.046-.25A12.06 12.06 0 0 1 19.725 5c1.645.711 3.034 1.75 4.212 3.063.069.076.03.11-.023.16l-4.397 4.237-4.386 4.228c-.027.026-.055.05-.095.086Zm-3.899-2.061c-.614.545-1.979.67-2.883-.204-.906-.877-.782-2.174-.187-2.849l3.07 3.053Zm7.943-.21c1.027-.999 2.05-1.993 3.074-2.986.433.469.634 1.666-.115 2.548-.833.981-2.208.976-2.96.438Z" fill="#276749"/>
</svg>
