<svg viewBox="0 0 30 30" fill="none" xmlns="http://www.w3.org/2000/svg">
  <path fill-rule="evenodd" clip-rule="evenodd" d="M11.36 11.19 9.655 7.695c-.158-.337 0-.695.377-.774l12.067-2.9c.377-.099.674.16.674.537v4.488a.572.572 0 0 1-.416.536l-9.61 2.303c-.516.12-.952.656-.952 1.192l-.02 3.852c0 .398-.316.815-.713.894l-2.933.675C7.515 18.638 7 18.24 7 17.605V13.85c0-.397.317-.794.713-.893l3.151-.735c.495-.1.713-.576.495-1.033Zm-3.925 9.234 6.52-1.509c.575-.139.832-.675.575-1.211l-1.506-3.118c-.238-.497 0-1.013.535-1.132l8.58-2.045c.376-.1.674.158.674.536v4.15c0 .437-.357.874-.773.973l-5.945 1.43c-.575.12-.832.675-.575 1.211l1.645 3.396c.159.338 0 .695-.377.775l-9.095 2.105c-.376.08-.674-.16-.674-.537V20.96c0-.238.179-.476.416-.536Z" fill="#000"/>
</svg>
