<svg viewBox="0 0 30 30" fill="none" xmlns="http://www.w3.org/2000/svg">
  <path d="M15 30c8.284 0 15-6.716 15-15 0-8.284-6.716-15-15-15C6.716 0 0 6.716 0 15c0 8.284 6.716 15 15 15Z" fill="#FF0420"/>
  <path fill-rule="evenodd" clip-rule="evenodd" d="M8.433 18.356c.57.42 1.302.63 2.195.63 1.08 0 1.944-.25 2.59-.753.645-.51 1.099-1.28 1.361-2.309.158-.63.293-1.28.406-1.947.037-.24.056-.44.056-.597 0-.525-.131-.976-.394-1.35a2.362 2.362 0 0 0-1.08-.856 3.928 3.928 0 0 0-1.554-.293c-2.124 0-3.442 1.032-3.952 3.096-.18.758-.319 1.407-.417 1.947-.037.24-.056.443-.056.608 0 .789.282 1.396.845 1.824Zm3.422-1.362c-.293.248-.65.372-1.07.372-.72 0-1.08-.346-1.08-1.036 0-.165.015-.323.045-.473.135-.728.27-1.343.405-1.846.128-.51.338-.89.63-1.137.3-.248.661-.372 1.081-.372.713 0 1.07.341 1.07 1.024 0 .166-.015.327-.045.485-.09.525-.222 1.14-.394 1.846-.128.51-.342.89-.642 1.137Zm3.512 1.801a.238.238 0 0 0 .191.08h1.531a.343.343 0 0 0 .214-.08.322.322 0 0 0 .124-.202l.518-2.466h1.52c.983 0 1.756-.206 2.319-.62.57-.412.95-1.05 1.137-1.913a2.7 2.7 0 0 0 .068-.585c0-.653-.256-1.152-.766-1.498-.503-.345-1.17-.518-2.004-.518h-2.995a.343.343 0 0 0-.213.08.322.322 0 0 0-.124.202l-1.554 7.318a.269.269 0 0 0 .034.202Zm4.998-4.48a1.341 1.341 0 0 1-.821.258h-1.295l.428-2.015h1.35c.308 0 .526.06.654.18.127.113.191.278.191.496 0 .097-.011.21-.034.338-.075.322-.232.57-.473.743Z" fill="#fff"/>
</svg>
