<svg fill="none" xmlns="http://www.w3.org/2000/svg" viewBox="0 0 30 30">
  <path fill-rule="evenodd" clip-rule="evenodd" d="M15.214 7.4c.749 0 1.288-.574 1.288-1.2S15.962 5 15.214 5s-1.288.574-1.288 1.2.54 1.2 1.288 1.2Zm.534.94a2.282 2.282 0 0 0 1.483-1.1l3.964 2.2a2.131 2.131 0 0 0-.25 1.785l-3.741 2.078c-.33-.64-.847-1.115-1.456-1.299V8.34Zm-1.144 3.667V8.321a2.28 2.28 0 0 1-1.402-1.073L9.239 9.449c.334.525.43 1.171.244 1.776l3.691 2.05c.328-.623.835-1.084 1.43-1.268Zm-1.78 2.343-3.93-2.182a2.319 2.319 0 0 1-1.154.589v4.486c.454.088.88.308 1.209.643l3.913-2.173a3.727 3.727 0 0 1-.039-1.363Zm.45 2.404-3.77 2.093a2.133 2.133 0 0 1-.271 1.714l3.964 2.2a2.28 2.28 0 0 1 1.407-1.082v-3.833c-.537-.166-1.003-.558-1.33-1.092Zm2.475 4.906c.645.149 1.184.56 1.488 1.11l3.963-2.2a2.133 2.133 0 0 1-.276-1.721l-3.82-2.12c-.329.55-.806.954-1.356 1.121v3.811Zm1.759-5.98 3.972 2.206c.33-.335.754-.554 1.208-.643v-4.486a2.32 2.32 0 0 1-1.153-.589l-3.99 2.215a3.765 3.765 0 0 1-.037 1.297Zm-.006-9.48v.004l4.49 2.493.004-.002c1.094-.608 2.494-.247 3.125.805.632 1.052.257 2.398-.837 3.005-.17.095-.348.166-.528.214v4.562c.18.048.358.12.528.214 1.095.607 1.47 1.953.838 3.005-.63 1.05-2.026 1.411-3.119.809l-4.5 2.5c-.007 1.21-1.029 2.191-2.29 2.191-1.263 0-2.288-.985-2.288-2.2v-.003l-4.49-2.494-.004.002c-1.094.608-2.493.247-3.125-.805-.632-1.052-.257-2.398.837-3.005.17-.095.348-.166.528-.214v-4.562a2.345 2.345 0 0 1-.527-.214c-1.095-.607-1.47-1.953-.838-3.005.632-1.052 2.031-1.413 3.125-.805l.016.008 4.478-2.488V6.2c0-1.215 1.025-2.2 2.288-2.2 1.264 0 2.288.985 2.288 2.2ZM15.214 25c.749 0 1.288-.574 1.288-1.2s-.54-1.2-1.288-1.2-1.288.574-1.288 1.2.54 1.2 1.288 1.2ZM8.396 11.215c.338-.563.15-1.314-.478-1.663-.628-.348-1.399-.13-1.737.433-.338.563-.15 1.315.478 1.663.628.348 1.399.13 1.737-.433Zm15.851 8.8c.338-.563.15-1.314-.477-1.663-.628-.348-1.399-.13-1.737.433-.338.563-.15 1.314.478 1.663.628.348 1.399.13 1.736-.433ZM6.66 18.352c.628-.348 1.398-.13 1.736.433.339.563.15 1.314-.477 1.663-.628.348-1.399.13-1.737-.433-.338-.563-.15-1.314.478-1.663Zm15.852-8.8c.628-.348 1.398-.13 1.736.433.338.563.15 1.314-.478 1.663-.627.348-1.398.13-1.736-.433-.338-.563-.15-1.315.478-1.663ZM14.605 15v1.738c-.433-.288-.826-.895-.826-1.811 0-1.33.826-2.007 1.402-2.007.577 0 1.403.677 1.403 2.007 0 .923-.399 1.532-.835 1.818V15h-1.144Z" fill="#27AA8B"/>
</svg>
