<svg viewBox="0 0 30 30" fill="none" xmlns="http://www.w3.org/2000/svg">
  <path d="M21.172 7.63c-2.156.615-5.337 1.9-8.251 4.533-2.929 2.756-.94 5.214-.92 5.238 0 0-1.073-1.98 1.523-4.418.032-.029 3.346-2.89 8.165-4.263.614-.175 1.235-.32 1.846-.433l.042-.008.776-1.257-.19.013c-.012.002-1.223.092-2.991.596Z" fill="#5928B1"/>
  <path d="M24.488 4.107c-.496-.418-.992-.749-.997-.752l-.03-.02-.035.005c-.013.002-1.35.166-3.193.691-3.296.939-7.73 2.864-10.13 6.703-1.14 1.744-.222 3.83-.222 3.83l-.028-.53c-.003-.057-.16-5.682 11.37-8.967a46.49 46.49 0 0 1 3.223-.789l.198-.04-.155-.131Z" fill="#764BC4"/>
  <path d="M25.186 4.841c-.015.002-1.532.163-3.646.765-2.236.638-5.493 1.873-8.305 4.14-1.659 1.288-2.708 2.843-2.88 4.264-.084.694.729 2.167.729 2.167l-.171-.523c-.008-.024-.735-2.407 2.948-5.172 2.063-1.55 4.214-2.61 6.767-3.337 1.316-.375 2.577-.621 3.971-.882l.05-.009.02-.045c.106-.226.608-1.215.613-1.225l.082-.16-.178.017Z" fill="#764BC4"/>
  <path d="M9.069 12.076c.139-2.232 1.83-4.295 5.03-6.133A21.884 21.884 0 0 1 19.7 3.484c1.722-.49 3.178-.637 3.178-.637L21.71 2c-.011.001-1.09.134-2.633.573C9.186 5.391 7.96 10.245 8.07 12.196c.191 3.403 4.198 5.822 4.198 5.822s-3.406-2.615-3.199-5.942Z" fill="#BBA5E1"/>
  <path d="M9.192 22.37c2.155-.615 5.337-1.9 8.25-4.533 2.929-2.756.941-5.214.92-5.238 0 0 1.074 1.98-1.522 4.418-.033.029-3.346 2.89-8.165 4.263a19.93 19.93 0 0 1-1.846.433l-.043.008-.776 1.257.19-.014c.013 0 1.224-.09 2.992-.595Z" fill="#5928B1"/>
  <path d="M5.875 25.893c.496.418.992.748.997.752l.03.019.035-.004c.014-.002 1.351-.166 3.194-.691 3.296-.94 7.729-2.865 10.13-6.704 1.14-1.743.222-3.83.222-3.83l.028.531c.003.057.16 5.682-11.37 8.967-1.01.288-2.094.553-3.223.788l-.198.041.155.13Z" fill="#764BC4"/>
  <path d="M5.178 25.158c.015-.001 1.532-.163 3.645-.765 2.237-.637 5.494-1.873 8.306-4.14 1.658-1.288 2.708-2.842 2.88-4.264.084-.694-.73-2.167-.73-2.167l.172.524c.007.023.734 2.406-2.948 5.171-2.064 1.55-4.214 2.61-6.767 3.338-1.316.375-2.577.62-3.971.881l-.05.01-.02.045a86.018 86.018 0 0 1-.614 1.225l-.081.16.178-.018Z" fill="#764BC4"/>
  <path d="M21.295 17.924c-.14 2.232-1.83 4.295-5.03 6.133a21.891 21.891 0 0 1-5.602 2.459c-1.723.49-3.179.637-3.179.637L8.655 28c.011-.001 1.09-.134 2.633-.573 9.89-2.818 11.115-7.672 11.006-9.623-.192-3.403-4.198-5.822-4.198-5.822s3.405 2.615 3.199 5.942Z" fill="#BBA5E1"/>
</svg>
