<svg viewBox="0 0 30 30" fill="none" xmlns="http://www.w3.org/2000/svg">
  <path d="M24.23 3H5.77A2.77 2.77 0 0 0 3 5.77v18.46A2.77 2.77 0 0 0 5.77 27h18.46A2.77 2.77 0 0 0 27 24.23V5.77A2.77 2.77 0 0 0 24.23 3Z" fill="#FBF1D7"/>
  <path d="M15.997 12.623c-.886-.734-1.887-.855-2.923-.372-1.66.775-2.106 3.069-1.108 4.21.14.162.246.348.392.509.13.146.174.302.164.498-.014.272-.039.548 0 .845l.852.04.014-.628.33.01v.583c0 .015-.005.03-.005.05h.082c.058 0 .111.006.17.006.067.005.14.005.212.01.063.005.131.005.194.01.039 0 .077.005.12.005h.016c.01 0 .014 0 .024-.005 0-.015.005-.036.005-.05v-.006c0-.005 0-.015.004-.02 0-.015.005-.03.005-.04v-.488l.33.01-.015.624c.053 0 .895.04.895.04v-.805c0-.025 0-.05-.005-.07 0-.06 0-.121.01-.176a.393.393 0 0 1 .068-.177c.01-.01.02-.025.029-.035l.039-.04c.024-.025.048-.055.072-.08.049-.056.097-.106.145-.161l.14-.161c.05-.056.093-.106.136-.161.044-.056.092-.106.136-.161.043-.056.087-.106.13-.161.025-.026.044-.056.068-.08.165-.212.281-.449.32-.72.174-1.162-.17-2.128-1.046-2.853Zm-2.744 4.935h-.048v.076c0 .05-.005.106-.005.156-.005.106-.01.216-.01.322l-.43-.02c0-.045.004-.09.004-.136.005-.1.01-.201.01-.307a6.88 6.88 0 0 0 .01-.322c0-.04.004-.08.004-.12 0-.02-.005-.04-.005-.056 0-.02-.004-.04-.004-.06 0-.01-.005-.015-.005-.026-.005-.005-.005-.015-.01-.02a77.579 77.579 0 0 1-.063-.136c-.014-.03-.034-.055-.053-.085a.353.353 0 0 0-.039-.05 24.191 24.191 0 0 1-.59-.79c-.276-.393-.325-.85-.271-1.313.12-1.042.643-1.796 1.578-2.184.924-.382 1.8-.221 2.536.468.75.7 1.026 1.59.784 2.631-.058.267-.223.458-.387.65-.204.236-.412.467-.62.699-.01.01-.02.015-.024.025 0 .005 0 .005-.005.01s-.005.01-.01.015c-.005.01-.014.02-.019.03-.005.005-.005.01-.01.015-.005.005-.005.005-.005.01l-.029.06a.705.705 0 0 0-.038.147c-.005.025-.005.05-.005.075v.885c-.005.006-.01 0-.01 0h-.02c-.023 0-.052 0-.077-.005l-.32-.015c.006-.095.006-.19.01-.281 0-.03.005-.066.005-.096v-.156l-.062-.01c-.025-.005-.049-.01-.073-.01l-.155-.015c-.053-.005-.106-.005-.16-.005h-.295l-.02.578-.43-.02.02-.568-.078-.015a1.578 1.578 0 0 0-.155-.02c-.053-.005-.106-.005-.16-.01-.053 0-.106 0-.16-.006h-.077" fill="#361563"/>
  <path d="M14.327 15.878c-.005-.005-.005-.015-.01-.02-.01-.015-.014-.035-.024-.05l-.014-.03-.015-.026c-.02-.03-.034-.065-.053-.095-.01-.015-.015-.03-.024-.05 0-.006-.005-.01-.005-.01 0-.006-.005-.01-.005-.01-.005 0-.005 0-.005.004 0 .005-.005.005-.005.01s-.005.01-.005.015a.942.942 0 0 0-.121.216c-.024.04-.043.081-.067.127-.01.014-.015.03-.024.04a.203.203 0 0 0-.025.045.46.46 0 0 0-.029.05c-.01.015-.02.035-.029.05-.01.02-.02.036-.029.056-.01.02-.02.035-.029.055l-.029.056-.029.055c-.01.02-.02.035-.029.055-.01.02-.02.036-.029.056l-.03.055c-.009.015-.018.035-.028.05a.208.208 0 0 0-.024.046c-.01.015-.015.03-.025.045-.004.015-.014.025-.019.04-.005.01-.014.02-.02.035l-.014.03a.039.039 0 0 0-.01.02c-.004.006-.004.01-.01.016l-.004.005h.005c.029 0 .053 0 .082.005h.984l.174.005h.005c-.01-.03-.024-.056-.034-.086-.03-.07-.392-.855-.397-.865 0 .005 0 .005 0 0Zm-.498.76.343-.61c.082.232.15.413.232.635-.198-.01-.363-.02-.575-.025Zm-2.745-3.879c0 .025.005.045.005.065l-.005-.065Zm0 0c0 .025.005.045.005.065l-.005-.065Z" fill="#361563"/>
  <path d="M11.084 12.759c0 .025.005.045.005.065Zm0 0c0 .025.005.045.005.065l-.005-.065Z" stroke="#361563" stroke-width="2" stroke-miterlimit="10"/>
  <path d="M21.33 22.368c-.246-.206-.43-.473-.662-.704.014-.257.043-.488.043-.72-.005-.633.034-1.267-.014-1.901-.03-.388.072-.76.174-1.132.199-.71.087-1.439-.014-2.138a6.841 6.841 0 0 1-.049-1.474c.034-.433.039-.866.073-1.298.043-.614.097-1.218-.053-1.837-.131-.523-.16-1.071-.364-1.574-.16-.393-.16-.393-.653-1.072-.44-.483-.508-.488-.886-.724-.29-.181-.576-.353-.929-.388-.45-.045-.866-.251-1.312-.327-.774-.13-1.539-.06-2.304.06-1.026.167-2.037.373-2.826 1.188-.373.387-.755.755-.915 1.293-.043.15-.14.282-.213.417-.334.589-.256.856-.305 1.62.03.056-.068.388-.101.478-.044.514-.049.186-.044.408.014.669.02 1.338.024 2.002.005.604.03 1.207-.077 1.801-.116.629-.107 1.263-.112 1.897 0 .14.005.287-.029.423-.101.472-.077.945-.053 1.418.034.644.005 1.283.078 1.942-.359.292-.712.584-1.07.865-.126.096-.199.202-.199.373.01.71.01 1.419.015 2.128 0 .19.087.297.276.312.876.055 1.747.11 2.618.17 1.133.076 2.26.147 3.393.222 1.283.086 2.566.176 3.848.262.174.01.334-.03.484-.126.673-.423 1.35-.845 2.028-1.258.165-.1.228-.231.228-.427.005-.62.019-1.238.034-1.852 0-.126-.025-.241-.131-.327Zm-11.136-3.18c.058-.422.111-.84.101-1.267-.014-.554.049-1.097.126-1.64.107-.755.068-1.514.054-2.274-.005-.277-.01-.554-.005-.825 0-.07.005-.141.01-.212.004-.04.009-.08.009-.125 0-.02.014-.036.03-.05.018-.026.043-.051.062-.076a.067.067 0 0 1 .02-.015c.004 0 .014 0 .019.005.087.04.237.186.242.196 0 .005.174.141.174.146.005.005-.106.257-.106.267.208 0 .154-.07.324-.388.01-.02-.17-.146-.17-.17-.029-.031-.038-.071-.053-.107a.47.47 0 0 0-.063-.12c-.014-.02-.029-.035-.043-.056l-.044-.045a.046.046 0 0 1-.014-.035c-.005-.02-.015-.035-.02-.055a5.307 5.307 0 0 1-.145-.443c-.03-.1-.058-.201-.092-.302l-.058-.161c.034-.473.12-.926.421-1.308.068-.09.111-.206.145-.312.136-.463.436-.795.78-1.092.212-.186.406-.407.653-.533.005-.005.024.01.029.01l.029.015c.02.015.034.03.043.05.02.026.025.06.04.086l.028.08c.02.056.039.106.053.162.005.01.005.015.01.02 0 .005.005.01.005.01s.01.005.015.005c.019.005.038.015.058.02.005 0-.02.136-.02.146v.025c0 .02-.005.045-.005.065-.004.046-.004.09-.01.136 0 .015-.004.035 0 .05l.015.04c.04.081.058.383.058.383s.063-.171.059-.181c-.005-.015-.005-.025-.01-.04l-.015-.08a7.468 7.468 0 0 1-.014-.111c0-.016-.005-.026-.005-.04 0-.01-.005-.016 0-.026a.103.103 0 0 1 .02-.04c.004-.015.014-.03.019-.045 0 0 .029.005.034.01.01.005.019.01.029.01a.21.21 0 0 1 .077.03.1.1 0 0 1 .029.02l.015.03c.024.066.048.136.077.201.005.01.01.026.02.036.009.01.019.015.028.02l.194.12c-.029-.05-.073-.09-.111-.14a.572.572 0 0 1-.112-.262c-.005-.02-.005-.04-.005-.06-.048-.035-.096-.066-.145-.1-.02-.016-.043-.026-.058-.041a.039.039 0 0 1-.01-.025c-.004-.015-.01-.025-.014-.04-.02-.056-.034-.111-.053-.162-.005-.015-.01-.035-.024-.04-.005-.005-.015-.005-.025-.01-.014-.01-.019-.03-.024-.045l-.014-.066a.189.189 0 0 1-.01-.055v-.02c-.005-.035-.015-.07-.015-.106a.456.456 0 0 1 .063-.261c1.477-.227 2.967-.413 4.264.77v.704c0 .02 0 .045-.01.065-.004.005-.004.01-.009.02a.102.102 0 0 1-.02.04c-.014.026-.028.05-.048.081a.36.36 0 0 0-.048.096c.005-.005.01-.005.015-.01l.014-.015a.15.15 0 0 1 .034-.026.335.335 0 0 0 .063-.055c.01-.01.014-.02.024-.035.01-.015.02-.04.03-.056a.134.134 0 0 0 .028-.065c.005-.01.01-.015.01-.025.005-.01.005-.02.01-.035l.014-.07c.02-.101.024-.202.039-.303.005-.04.014-.075.024-.115.402.327.818.613.876 1.187.048.483.13.956.261 1.424.04.136.073.276.073.417 0 .941.044 1.877-.102 2.813-.077.498-.072 1.016-.077 1.524 0 .543-.03 1.087-.078 1.625-.048.528-.048 1.051.078 1.565.068.271.024.543-.005.82-.058.538-.082 1.081-.116 1.625-.01.13-.005.266-.058.407-2.633-.15-5.261-.302-7.904-.458l-.01-.09-.014-.106a2.996 2.996 0 0 1-.02-.206c-.005-.07 0-.136.005-.201v-.026a.34.34 0 0 1 .01-.075l.014-.08c.015-.06.03-.121.054-.182.004-.01.004-.015.01-.025a.104.104 0 0 1 .024-.015l.372-.15c.015-.006.02-.026.03-.041a.258.258 0 0 1 .033-.045l.034-.03a.2.2 0 0 0 .039-.071c.02-.04.038-.085.053-.126.01-.02.02-.04.024-.055 0-.005 0-.01.005-.015.014-.025.048-.046.068-.06a.521.521 0 0 0 .111-.121c-.039.02-.068.045-.106.07a.174.174 0 0 1-.054.025c-.004 0-.01 0-.019.005-.005 0-.005.005-.005.005-.01.01-.02.026-.029.04l-.058.091c-.024.035-.048.07-.073.11-.024.041-.038.081-.077.101a.311.311 0 0 1-.039.015c-.12.04-.247.086-.368.126-.024.01-.048.015-.072.036v-.05c.005-.026 0-.051.005-.071v-.1c0-.071-.005-.137-.005-.207-.005-.136-.015-.272-.02-.403a2.761 2.761 0 0 1-.01-.774Zm-.107 3.266c.068-.056.155-.04.233-.035 1.553.09 3.107.176 4.66.266 1.017.06 2.034.12 3.055.176.048.005.096.015.15.02.097.202.174.408.232.66-2.967-.202-5.91-.398-8.906-.6.204-.21.397-.341.576-.487Zm8.485 3.365c-.218.036-.43.005-.63-.02-.009 0-.019-.01-.023-.015-.01-.005-.015-.01-.025-.02a.313.313 0 0 1-.043-.04c-.03-.03-.049-.07-.078-.1-.01-.01-.024-.021-.029-.031-.01-.02-.014-.04-.019-.06 0-.005 0-.01-.005-.02-.005-.006-.01-.01-.01-.02a.385.385 0 0 1-.058-.096c-.004-.01-.004-.025-.004-.035.004-.03-.01-.06-.02-.086l-.014-.07a.039.039 0 0 0-.01-.02.13.13 0 0 0-.039-.036c-.034-.04-.068-.075-.101-.11-.015-.015-.03-.025-.044-.036.01.005.015.02.024.03.005.01.015.02.024.03a.24.24 0 0 1 .04.071c0 .01.009.025.014.035a.513.513 0 0 1 .044.206c.004.036.004.076.009.111 0 0 .024.01.029.01.005.005.005.015.005.026.01.025.024.05.039.075l.014.03v.086c0 .01 0 .025-.005.035-.01.015-.029.025-.024.045-.02 0-.048.005-.068 0-.005 0-.01 0-.014-.005-.034-.005-.063-.005-.097-.005-.063-.005-.126-.01-.189-.01-.547-.035-1.094-.075-1.64-.11-.548-.036-1.095-.076-1.641-.111-.547-.035-1.094-.076-1.641-.11-.547-.036-1.094-.076-1.641-.112-.276-.02-.547-.035-.823-.055-.135-.01-.276-.02-.411-.025l-.204-.015a2.17 2.17 0 0 1-.198-.015v-.483l.005-.005.01-.01c.004-.01.01-.015.014-.025l.039-.056c.014-.02.034-.04.048-.06l.015-.025c.01-.01.024-.02.034-.025.014-.01.029-.016.043-.026.03-.015.058-.03.092-.04a.122.122 0 0 1 .073-.01c.02.005.038.015.053.03.053.04.111.08.174.096.015.005.02-.01.03-.015a.413.413 0 0 1 .096-.07c.015-.01.03-.016.044-.026a.567.567 0 0 1 .184-.035.63.63 0 0 0-.146-.03c-.029 0-.058 0-.082.015a.8.8 0 0 0-.01.01c-.004.005-.014.01-.019.015l-.044.03c-.004 0-.004.005-.01.005-.009.005-.019.01-.023.02-.005.005-.02.015-.03.015a.078.078 0 0 1-.024-.01c-.005-.005-.014-.005-.02-.01a.407.407 0 0 0-.038-.025c-.038-.03-.077-.07-.116-.105-.005-.006-.01-.006-.014-.01h-.02c-.014.004-.029.004-.043.01-.01 0-.015.005-.025.005h-.014c-.015 0-.03.005-.044.005l-.063.015c-.063.015-.12.03-.183.05V23.43c3.175.211 6.34.427 9.52.639v1.75Zm-.905-17.23-.14-.207h-.063c-.01 0-.015-.01-.025-.01l-.145-.12a4.315 4.315 0 0 0-.3-.227 4.442 4.442 0 0 0-.644-.392c-.101-.01-.184-.06-.3-.136l.3.05c.3-.005.581.096.867.186.222.07.445.146.677.166.354.025.63.222.905.418.218.156.29.412.359.654.048.186-.121.267-.228.372v.02c0 .01.005.02.005.03.005.02.015.036.02.056.019.04.038.075.053.116a.287.287 0 0 1 .024.125c0 .01-.015.02-.02.025-.029.04-.062.08-.091.116l.203-.07c.014-.015.024-.03.039-.04.014-.01.029-.026.043-.036-.014-.01-.014-.015-.014-.03l-.015-.065-.014-.06c0-.01-.005-.02-.005-.03 0-.006-.01-.026-.005-.031.053-.11.17-.13.227-.201.358.025.557.221.659.558.13.428.164.88.285 1.308.208.765.078 1.52.024 2.28-.029.437.015.885-.067 1.317-.034.166-.073.322-.199.418-.044.186-.005.357-.014.528a.36.36 0 0 1-.102.126c-.034.035-.073.065-.111.095l-.005.005c-.034.026-.073.05-.102.08l-.044.046c-.014.015-.033.026-.053.04-.034.02-.067.046-.101.07-.01.011-.024.016-.03.031l-.019.02a1.85 1.85 0 0 1-.02.02c-.004.005-.009.01-.009.015 0 .005.005.005.005.01.024.03.034.076.053.111.005.01.015.02.02.035.005.006.005.01.005.02.01.02.014.04.014.06v.031c-.005.02.005.04-.01.055-.019.02-.043.04-.063.06-.01.01-.019.021-.029.026-.019.02-.043.035-.063.055-.004.005-.01.005-.01.01-.004.005-.004.015 0 .026l.044.337c0 .015.005.035.005.055-.005.015-.005.03-.005.05 0 .046.005.09.01.131l.092-.468c.068-.13.237-.156.28-.287 0-.115-.1-.146-.135-.246.18-.136.363-.277.567-.433.004-.1.014-.221.019-.347.068.015.077.07.082.116.034.679.194 1.358.053 2.042-.048.247-.13.483-.16.73-.077.694.025 1.383.01 2.073-.01.347.034.699-.077 1.061-.484.262-.973.498-1.5.76.024-.307.033-.579.062-.85.044-.438.025-.886.117-1.319a1.35 1.35 0 0 0-.02-.573c-.15-.604-.145-1.207-.072-1.816.077-.664.058-1.333.067-2.002.01-.67.107-1.329.14-1.998.035-.7.093-1.403-.023-2.093-.092-.548-.242-1.086-.305-1.645a1.563 1.563 0 0 0-.557-1.021c-.116-.1-.223-.206-.339-.312a1.203 1.203 0 0 1-.082-.08c-.005-.005-.01-.005-.01-.01-.01-.01-.01-.02-.014-.036l.024.046Zm2.546 13.749s.005.005.01.005c.004 0 .004 0 .01.005.009 0 .014.005.018.01.01.01.015.02.02.03 0 .015.005.03.005.05 0 .036.005.076 0 .111 0 .02 0 .035-.005.056v.02c0 .01.01.01.02.015.014.005.023.02.028.03.005.01.01.02.005.03a.04.04 0 0 1-.01.025.088.088 0 0 1-.043.04c-.044.02-.087.046-.126.071-.387.211-.774.428-1.18.649a3.804 3.804 0 0 1-.253-.649c.538-.262 1.07-.523 1.607-.79.18.116.29.292.421.443-.072.085-.164.11-.256.156l-.03-.015-.033-.02c-.01-.005-.02-.015-.034-.015a.123.123 0 0 1-.044-.026c-.004-.005-.004-.01-.004-.02-.005-.02-.01-.035-.01-.055a.387.387 0 0 0-.02-.07c-.004-.02-.014-.046-.019-.066l-.077-.02Zm.329 1.363v-.075c0-.015 0-.035.01-.05.005-.01.005-.015.01-.02 0-.006.004-.006.004-.01a.811.811 0 0 1 .049-.076.49.49 0 0 0 .12-.357c.054-.04.107-.086.199-.08.034.492.01 1.005-.005 1.529-.61.377-1.22.754-1.854 1.142v-1.706c.494-.271.983-.538 1.477-.805.014.02.024.046.029.07.004.016 0 .036 0 .051 0 .01-.005.015-.01.025 0 .005-.005.01-.01.02a3.615 3.615 0 0 1-.02.02c-.009.005-.014.015-.023.025a.155.155 0 0 0-.024.036c-.005.005-.01.01-.01.02a.04.04 0 0 0-.01.025c-.014.025-.029.055-.048.08-.01.01-.02.026-.02.04 0 .006 0 .01.005.016v.196c0 .035.005.066.005.1a.148.148 0 0 1-.02.081l-.014.015s-.005.005-.005.01-.005.005-.01.01c-.033.04-.077.07-.12.101a.224.224 0 0 0 .082-.025c.02-.01.039-.025.063-.035.005 0 .01-.01.02-.01h.004c.01-.015.014-.03.024-.05.005-.006.005-.016.01-.026l.01-.025c0-.005.004-.01.004-.015.005-.02.01-.04.02-.06.005-.01.005-.02.01-.03 0-.006.004-.01.004-.02s0-.02.005-.026c0-.01.005-.02.015-.025h.01l.014-.086Z" fill="#361563"/>
  <path d="M13.122 15.788a.683.683 0 0 1-.668-.694c0-.383.3-.695.668-.695.368 0 .668.312.668.695 0 .382-.3.694-.668.694Zm0-1.188a.485.485 0 0 0-.474.494c0 .271.213.492.474.492a.485.485 0 0 0 .474-.492.485.485 0 0 0-.474-.494Zm2.149 1.238a.683.683 0 0 1-.668-.694c0-.383.3-.695.668-.695.368 0 .668.312.668.695 0 .382-.3.694-.668.694Zm0-1.187a.485.485 0 0 0-.474.493c0 .271.213.493.474.493a.485.485 0 0 0 .474-.493.485.485 0 0 0-.474-.493Z" fill="#361563"/>
  <path d="M12.812 15.541c-.067-.105-.232-.226-.232-.347 0-.357.165-.644.508-.644h.262c.038.04.077.076.106.116a.534.534 0 0 0-.126-.015.534.534 0 0 0-.523.543c0 .146.054.277.146.377l-.14-.03Zm2.304.091c-.048-.005-.31-.11-.358-.121-.068-.106 0-.498 0-.629 0-.342.397-.307.721-.327l.097.15a.578.578 0 0 0-.097-.01.534.534 0 0 0-.523.544.584.584 0 0 0 .16.393Z" fill="#361563"/>
</svg>
