<svg xmlns="http://www.w3.org/2000/svg" viewBox="0 0 191 75" fill="none">
  <path d="M0 63.477V47.92L29.674 1.248H43.79V21.99h-8.067L19.734 47.343v.576h43.79v15.558H0ZM35.867 75V58.723l.433-6.77V1.249h18.726V75H35.867ZM69.896 75V60.596l27.513-22.76c1.824-1.512 3.385-2.929 4.681-4.25 1.321-1.343 2.329-2.724 3.025-4.14.72-1.417 1.08-2.99 1.08-4.718 0-1.897-.408-3.517-1.224-4.862-.792-1.344-1.897-2.376-3.313-3.096-1.416-.745-3.049-1.117-4.898-1.117-1.848 0-3.48.372-4.897 1.117-1.393.744-2.473 1.836-3.241 3.277-.768 1.44-1.153 3.193-1.153 5.257H68.456c0-5.185 1.165-9.65 3.493-13.396 2.33-3.745 5.618-6.626 9.868-8.643C86.065 1.25 91.046.24 96.76.24c5.906 0 11.02.949 15.341 2.845 4.346 1.873 7.695 4.514 10.048 7.923 2.376 3.409 3.565 7.406 3.565 11.992 0 2.832-.588 5.653-1.765 8.462-1.176 2.785-3.289 5.87-6.338 9.255-3.049 3.385-7.382 7.419-13 12.1l-6.914 5.762v.432h28.809v15.99h-56.61ZM133.427 75V60.596l27.512-22.76c1.825-1.512 3.386-2.929 4.682-4.25 1.32-1.343 2.329-2.724 3.025-4.14.72-1.417 1.08-2.99 1.08-4.718 0-1.897-.408-3.517-1.224-4.862-.792-1.344-1.897-2.376-3.313-3.096-1.417-.745-3.049-1.117-4.898-1.117-1.848 0-3.481.372-4.897 1.117-1.393.744-2.473 1.836-3.241 3.277-.769 1.44-1.153 3.193-1.153 5.257h-19.014c0-5.185 1.165-9.65 3.493-13.396 2.329-3.745 5.618-6.626 9.867-8.643C149.596 1.25 154.577.24 160.291.24c5.906 0 11.02.949 15.341 2.845 4.346 1.873 7.695 4.514 10.047 7.923 2.377 3.409 3.566 7.406 3.566 11.992 0 2.832-.589 5.653-1.765 8.462-1.176 2.785-3.289 5.87-6.338 9.255-3.049 3.385-7.382 7.419-13 12.1l-6.914 5.762v.432h28.809v15.99h-56.61Z" fill="currentColor"/>
</svg>
