<svg viewBox="0 0 201 100" fill="none" xmlns="http://www.w3.org/2000/svg">
  <path fill-rule="evenodd" clip-rule="evenodd" d="M100.027 8.408c-2.187 0-4.238.41-6.152 1.23a15.973 15.973 0 0 0-4.922 3.35c-1.413 1.413-2.53 3.076-3.35 4.99-.82 1.869-1.23 3.897-1.23 6.084a3.372 3.372 0 0 1-3.913 3.328l-2.409-.392a2.974 2.974 0 0 1-2.496-2.936c0-3.326.615-6.448 1.845-9.365 1.276-2.916 3.008-5.468 5.196-7.656 2.187-2.187 4.74-3.896 7.656-5.127C93.169.638 96.29 0 99.617 0h4.17c3.327 0 6.449.592 9.365 1.777 2.963 1.185 5.537 2.894 7.725 5.127 2.187 2.233 3.896 4.922 5.127 8.067 1.276 3.099 1.914 6.608 1.914 10.527 0 3.874-.592 7.77-1.777 11.69a67.002 67.002 0 0 1-4.58 11.552 87.122 87.122 0 0 1-6.495 11.006 147.24 147.24 0 0 1-7.451 10.049c-5.97 7.337-12.737 14.401-20.302 21.191h32.88a8.409 8.409 0 0 1 8.409 8.408H73.436v-2.253c0-2.988 1.345-5.81 3.612-7.756 7.075-6.073 13.482-12.33 19.22-18.77a162.094 162.094 0 0 0 8.408-10.322 100.413 100.413 0 0 0 7.314-11.211c2.142-3.874 3.851-7.793 5.127-11.758 1.322-4.01 1.983-7.952 1.983-11.826 0-2.871-.433-5.378-1.299-7.52-.866-2.141-2.028-3.919-3.487-5.332a13.909 13.909 0 0 0-5.058-3.144 16.03 16.03 0 0 0-5.879-1.094h-3.35ZM48.193 82.441v16.953a8.818 8.818 0 0 1-8.818-8.818v-8.135H3.3a3.3 3.3 0 0 1-2.872-4.926L42.701 2.857a2.937 2.937 0 0 1 5.492 1.447v69.73h8.409a8.408 8.408 0 0 1-8.409 8.407Zm-8.818-56.943L12.373 74.033h27.002V25.498Zm126.5-15.86c1.914-.82 3.965-1.23 6.152-1.23h3.35c2.051 0 4.01.365 5.879 1.094a13.91 13.91 0 0 1 5.058 3.144c1.459 1.413 2.621 3.19 3.487 5.332.866 2.142 1.299 4.649 1.299 7.52 0 3.874-.661 7.816-1.983 11.826-1.276 3.965-2.985 7.884-5.127 11.758a100.413 100.413 0 0 1-7.314 11.211 162.124 162.124 0 0 1-8.408 10.322c-5.738 6.44-12.145 12.697-19.22 18.77-2.267 1.946-3.612 4.768-3.612 7.756v2.253h55.166a8.409 8.409 0 0 0-8.409-8.408h-32.881c7.566-6.79 14.333-13.854 20.303-21.191a147.24 147.24 0 0 0 7.451-10.049 87.122 87.122 0 0 0 6.495-11.006 67.002 67.002 0 0 0 4.58-11.553c1.185-3.919 1.777-7.815 1.777-11.689 0-3.92-.638-7.428-1.914-10.527-1.231-3.145-2.94-5.834-5.127-8.067-2.188-2.233-4.762-3.942-7.725-5.127C182.236.592 179.114 0 175.787 0h-4.17c-3.327 0-6.448.638-9.365 1.914-2.917 1.23-5.469 2.94-7.656 5.127-2.188 2.188-3.92 4.74-5.196 7.656-1.23 2.917-1.845 6.039-1.845 9.366a2.974 2.974 0 0 0 2.496 2.935l2.409.392a3.371 3.371 0 0 0 3.913-3.328c0-2.187.41-4.215 1.231-6.084.82-1.914 1.936-3.577 3.349-4.99a15.982 15.982 0 0 1 4.922-3.35Z" fill="currentColor"/>
</svg>
