<svg viewBox="0 0 201 101" fill="none" xmlns="http://www.w3.org/2000/svg">
  <path d="M200.703 76.7c0 3.326-.638 6.448-1.914 9.364-1.23 2.917-2.939 5.47-5.127 7.657-2.187 2.187-4.739 3.919-7.656 5.195-2.917 1.23-6.039 1.846-9.365 1.846h-4.239c-3.326 0-6.448-.616-9.365-1.846-2.917-1.276-5.469-3.008-7.656-5.195-2.188-2.188-3.919-4.74-5.195-7.657-1.231-2.916-1.846-6.038-1.846-9.365a2.952 2.952 0 0 1 2.499-2.917l2.469-.382a3.339 3.339 0 0 1 3.85 3.3c0 2.187.41 4.237 1.231 6.152a16.853 16.853 0 0 0 3.349 4.99 15.981 15.981 0 0 0 4.922 3.35c1.914.82 3.965 1.23 6.152 1.23h3.35c2.188 0 4.216-.41 6.084-1.23 1.914-.82 3.578-1.937 4.99-3.35a16.21 16.21 0 0 0 3.418-4.99c.821-1.915 1.231-3.965 1.231-6.153V52.363c-2.279 2.461-4.968 4.444-8.067 5.947-3.099 1.459-6.425 2.188-9.98 2.188h-1.436c-3.326 0-6.448-.615-9.365-1.846-2.917-1.276-5.469-3.008-7.656-5.195-2.188-2.188-3.919-4.74-5.195-7.656-1.231-2.962-1.846-6.107-1.846-9.434V24.063c0-3.327.615-6.45 1.846-9.366 1.276-2.916 3.007-5.468 5.195-7.656 2.187-2.187 4.739-3.896 7.656-5.127C165.954.638 169.076 0 172.402 0h4.239c3.326 0 6.448.638 9.365 1.914 2.917 1.23 5.469 2.94 7.656 5.127 2.188 2.188 3.897 4.74 5.127 7.656 1.276 2.917 1.914 6.039 1.914 9.366v52.636Zm-8.818-52.638c0-2.187-.41-4.215-1.231-6.084a15.198 15.198 0 0 0-3.418-4.99c-1.412-1.412-3.076-2.529-4.99-3.35-1.868-.82-3.896-1.23-6.084-1.23h-3.35c-2.187 0-4.238.41-6.152 1.23a15.982 15.982 0 0 0-4.922 3.35c-1.412 1.413-2.529 3.076-3.349 4.99-.821 1.869-1.231 3.897-1.231 6.084v12.305c0 2.188.41 4.239 1.231 6.153a16.855 16.855 0 0 0 3.349 4.99 15.983 15.983 0 0 0 4.922 3.35c1.914.82 3.965 1.23 6.152 1.23h3.35c2.188 0 4.216-.41 6.084-1.23 1.914-.82 3.578-1.938 4.99-3.35a16.211 16.211 0 0 0 3.418-4.99c.821-1.915 1.231-3.965 1.231-6.153V24.063ZM47.829 81.818v16.825a8.752 8.752 0 0 1-8.752-8.752v-8.073H3.275a3.275 3.275 0 0 1-2.85-4.89L42.38 2.836a2.914 2.914 0 0 1 5.45 1.436v69.203h8.345a8.345 8.345 0 0 1-8.345 8.344Zm-8.752-56.513L12.28 73.474h26.797V25.305ZM99.766 8.408c-2.188 0-4.239.41-6.153 1.23a15.973 15.973 0 0 0-4.922 3.35c-1.412 1.413-2.529 3.076-3.35 4.99-.82 1.869-1.23 3.897-1.23 6.084a3.372 3.372 0 0 1-3.913 3.328l-2.409-.392a2.974 2.974 0 0 1-2.496-2.936c0-3.326.615-6.448 1.846-9.365 1.276-2.916 3.008-5.468 5.195-7.656 2.188-2.187 4.74-3.896 7.656-5.127C92.907.638 96.03 0 99.356 0h4.169c3.327 0 6.449.592 9.366 1.777 2.962 1.185 5.537 2.894 7.724 5.127 2.188 2.233 3.897 4.922 5.127 8.067 1.276 3.099 1.914 6.608 1.914 10.527 0 3.874-.592 7.77-1.777 11.69a66.921 66.921 0 0 1-4.58 11.552 87.114 87.114 0 0 1-6.494 11.006 147.574 147.574 0 0 1-7.451 10.049c-5.971 7.337-12.738 14.401-20.303 21.191h32.881a8.409 8.409 0 0 1 8.408 8.408H73.174v-2.253c0-2.988 1.345-5.81 3.612-7.756 7.076-6.073 13.482-12.33 19.22-18.77a161.747 161.747 0 0 0 8.408-10.322 100.423 100.423 0 0 0 7.315-11.211c2.141-3.874 3.85-7.793 5.126-11.758 1.322-4.01 1.983-7.952 1.983-11.826 0-2.871-.433-5.378-1.299-7.52-.866-2.141-2.028-3.919-3.486-5.332a13.92 13.92 0 0 0-5.059-3.144 16.026 16.026 0 0 0-5.879-1.094h-3.35Z" fill="currentColor"/>
</svg>
