<svg xmlns="http://www.w3.org/2000/svg" viewBox="0 0 195 76" fill="none">
  <path d="M0 63.477V47.92L29.674 1.248H43.79V21.99h-8.067L19.734 47.343v.576h43.79v15.558H0ZM35.867 75V58.723l.433-6.77V1.249h18.726V75H35.867ZM69.896 75V60.596l27.513-22.76c1.824-1.512 3.385-2.929 4.681-4.25 1.321-1.343 2.329-2.724 3.025-4.14.72-1.417 1.08-2.99 1.08-4.718 0-1.897-.408-3.517-1.224-4.862-.792-1.344-1.897-2.376-3.313-3.096-1.416-.745-3.049-1.117-4.898-1.117-1.848 0-3.48.372-4.897 1.117-1.393.744-2.473 1.836-3.241 3.277-.768 1.44-1.153 3.193-1.153 5.257H68.456c0-5.185 1.165-9.65 3.493-13.396 2.33-3.745 5.618-6.626 9.868-8.643C86.065 1.25 91.046.24 96.76.24c5.906 0 11.02.949 15.341 2.845 4.346 1.873 7.695 4.514 10.048 7.923 2.376 3.409 3.565 7.406 3.565 11.992 0 2.832-.588 5.653-1.765 8.462-1.176 2.785-3.289 5.87-6.338 9.255-3.049 3.385-7.382 7.419-13 12.1l-6.914 5.762v.432h28.809v15.99h-56.61ZM162.236.24c4.297 0 8.367.684 12.208 2.053 3.841 1.344 7.238 3.469 10.191 6.374 2.977 2.905 5.306 6.698 6.986 11.38 1.705 4.657 2.569 10.299 2.593 16.925.024 6.05-.732 11.488-2.269 16.313-1.512 4.802-3.685 8.895-6.518 12.28-2.809 3.385-6.194 5.978-10.155 7.779-3.937 1.776-8.331 2.665-13.18 2.665-5.45 0-10.239-1.045-14.369-3.133-4.129-2.09-7.418-4.898-9.867-8.427-2.449-3.53-3.877-7.455-4.285-11.776h19.734c.48 2.233 1.537 3.853 3.169 4.862 1.633.984 3.505 1.476 5.618 1.476 4.225 0 7.31-1.825 9.255-5.474 1.968-3.673 2.965-8.57 2.989-14.692h-.432c-.937 2.256-2.353 4.189-4.25 5.797-1.896 1.609-4.105 2.845-6.626 3.71-2.521.864-5.186 1.296-7.994 1.296-4.442 0-8.331-.996-11.668-2.989-3.337-2.017-5.942-4.765-7.815-8.246-1.872-3.506-2.821-7.49-2.845-11.956-.024-5.234 1.213-9.82 3.71-13.757 2.496-3.937 5.966-6.998 10.407-9.183C151.264 1.333 156.402.24 162.236.24Zm.144 15.125c-1.993 0-3.769.456-5.33 1.368a9.987 9.987 0 0 0-3.637 3.71c-.864 1.56-1.284 3.325-1.26 5.293.024 1.969.468 3.734 1.332 5.294a10.075 10.075 0 0 0 3.601 3.71c1.537.912 3.301 1.368 5.294 1.368 1.464 0 2.821-.252 4.069-.756a9.796 9.796 0 0 0 3.241-2.197 10.126 10.126 0 0 0 2.161-3.313c.528-1.273.78-2.641.756-4.106-.024-1.968-.48-3.733-1.368-5.293a9.994 9.994 0 0 0-3.637-3.71c-1.537-.912-3.277-1.368-5.222-1.368Z" fill="currentColor"/>
</svg>
