<svg xmlns="http://www.w3.org/2000/svg" viewBox="0 0 203 78" fill="none">
  <path d="M29.241 76.008c-5.665 0-10.695-.996-15.088-2.989-4.37-2.016-7.815-4.789-10.336-8.318C1.32 61.17.048 57.114 0 52.529h19.446c.072 2.545 1.057 4.573 2.953 6.086 1.92 1.512 4.201 2.269 6.842 2.269 2.041 0 3.842-.432 5.402-1.297 1.56-.888 2.785-2.137 3.673-3.745.889-1.608 1.32-3.481 1.297-5.618.024-2.16-.408-4.033-1.297-5.618-.888-1.608-2.112-2.845-3.673-3.709-1.56-.888-3.361-1.332-5.402-1.332-2.112 0-4.069.516-5.87 1.548-1.776 1.009-3.084 2.413-3.925 4.214L1.873 41.87l2.88-40.621h49.552v15.989h-33.13l-1.44 16.277h.431c1.153-2.233 3.145-4.081 5.978-5.546 2.833-1.488 6.122-2.233 9.867-2.233 4.394 0 8.307 1.02 11.74 3.061 3.457 2.041 6.182 4.862 8.175 8.463 2.017 3.577 3.013 7.707 2.989 12.388.024 5.138-1.2 9.7-3.673 13.684-2.45 3.962-5.894 7.07-10.336 9.327-4.441 2.233-9.663 3.35-15.665 3.35ZM97.643 77.017c-6.698-.024-12.484-1.573-17.358-4.646-4.873-3.073-8.63-7.502-11.271-13.288-2.641-5.786-3.95-12.724-3.926-20.815.024-8.114 1.345-15.004 3.962-20.67 2.64-5.666 6.386-9.975 11.235-12.928C85.16 1.717 90.945.24 97.643.24S110.127 1.73 115 4.706c4.874 2.953 8.631 7.262 11.272 12.928 2.641 5.666 3.949 12.544 3.925 20.634 0 8.139-1.32 15.101-3.961 20.887s-6.398 10.215-11.272 13.288c-4.849 3.05-10.623 4.574-17.321 4.574Zm0-16.277c3.457 0 6.29-1.801 8.498-5.402 2.233-3.625 3.338-9.315 3.314-17.07 0-5.065-.505-9.207-1.513-12.424-1.008-3.217-2.401-5.593-4.177-7.13-1.777-1.56-3.817-2.34-6.122-2.34-3.457 0-6.278 1.752-8.463 5.257-2.185 3.505-3.301 9.051-3.35 16.637-.023 5.162.47 9.411 1.477 12.748 1.009 3.314 2.401 5.762 4.178 7.347 1.8 1.584 3.853 2.377 6.158 2.377ZM169.69 77.017c-6.698-.024-12.484-1.573-17.357-4.646-4.874-3.073-8.631-7.502-11.272-13.288-2.641-5.786-3.949-12.724-3.925-20.815.024-8.114 1.344-15.004 3.961-20.67 2.641-5.666 6.386-9.975 11.236-12.928C157.206 1.717 162.992.24 169.69.24c6.698 0 12.484 1.489 17.358 4.466 4.873 2.953 8.631 7.262 11.271 12.928 2.641 5.666 3.95 12.544 3.926 20.634 0 8.139-1.321 15.101-3.962 20.887-2.64 5.786-6.398 10.215-11.271 13.288-4.85 3.05-10.624 4.574-17.322 4.574Zm0-16.277c3.457 0 6.29-1.801 8.499-5.402 2.233-3.625 3.337-9.315 3.313-17.07 0-5.065-.504-9.207-1.512-12.424-1.009-3.217-2.401-5.593-4.178-7.13-1.776-1.56-3.817-2.34-6.122-2.34-3.457 0-6.278 1.752-8.462 5.257-2.185 3.505-3.301 9.051-3.35 16.637-.024 5.162.469 9.411 1.477 12.748 1.008 3.314 2.401 5.762 4.177 7.347 1.801 1.584 3.854 2.377 6.158 2.377Z" fill="currentColor"/>
</svg>
