<svg viewBox="0 0 42 14" fill="none" xmlns="http://www.w3.org/2000/svg">
  <rect x=".2" y=".2" width="41.6" height="13.6" rx="3.8" stroke="#D69E2E" stroke-width=".4"/>
  <path d="M37.398 3.718v6.545h-.991V4.708h-.038l-1.566 1.023v-.946l1.633-1.067h.962Zm-9.096 6.545V3.718h4.104v.85H29.29v1.994h2.902v.847H29.29v2.004h3.154v.85h-4.142Zm-2.406-4.478a1.995 1.995 0 0 0-.249-.52 1.593 1.593 0 0 0-.857-.65 1.966 1.966 0 0 0-.597-.086 1.81 1.81 0 0 0-.997.285c-.297.19-.53.468-.704.834-.17.364-.255.81-.255 1.34s.086.978.259 1.345c.172.366.409.644.71.834.3.19.642.284 1.025.284.356 0 .666-.072.93-.217a1.52 1.52 0 0 0 .617-.614c.147-.266.22-.58.22-.94l.256.049h-1.873v-.815h2.573v.744c0 .55-.117 1.027-.351 1.432a2.394 2.394 0 0 1-.966.933c-.409.22-.878.33-1.406.33-.592 0-1.112-.137-1.56-.41a2.772 2.772 0 0 1-1.041-1.16c-.25-.502-.374-1.1-.374-1.79 0-.521.072-.99.217-1.406.145-.415.348-.768.61-1.058a2.7 2.7 0 0 1 .93-.668 2.912 2.912 0 0 1 1.173-.233c.354 0 .683.052.988.157.307.104.58.252.818.444a2.515 2.515 0 0 1 .917 1.556h-1.013Zm-9.781 4.478h-1.048l2.355-6.545h1.141l2.356 6.545H19.87l-1.85-5.356h-.051l-1.854 5.356Zm.176-2.563h3.4v.83h-3.4V7.7Zm-6.088-3.132v-.85h5.065v.85h-2.042v5.695h-.984V4.568h-2.04Zm-1.772.869a.934.934 0 0 0-.421-.703c-.248-.168-.559-.252-.934-.252-.268 0-.5.042-.696.127a1.073 1.073 0 0 0-.457.346.815.815 0 0 0-.16.495c0 .155.036.29.108.403a.975.975 0 0 0 .291.284c.122.075.252.137.39.189.139.049.272.09.4.121l.639.166c.209.051.423.12.642.208.22.087.423.202.61.345.188.143.34.32.454.53.118.212.176.464.176.758 0 .37-.096.7-.287.988-.19.287-.466.514-.828.68-.36.167-.796.25-1.307.25-.49 0-.914-.078-1.272-.233a1.959 1.959 0 0 1-.84-.662 1.918 1.918 0 0 1-.336-1.023h.99c.02.237.096.434.23.591.137.156.31.272.521.349.213.074.447.112.7.112.28 0 .528-.044.745-.131.22-.09.392-.213.518-.371a.878.878 0 0 0 .188-.56.686.686 0 0 0-.166-.476 1.228 1.228 0 0 0-.444-.306 4.342 4.342 0 0 0-.63-.215l-.773-.21c-.524-.143-.94-.353-1.247-.63-.304-.277-.457-.644-.457-1.1 0-.377.103-.706.307-.987.205-.281.482-.5.831-.655.35-.158.744-.237 1.183-.237.443 0 .834.078 1.173.233.34.156.609.37.805.643.196.27.298.582.307.933H8.43Z" fill="#D69E2E"/>
</svg>
