<svg viewBox="0 0 42 14" fill="none" xmlns="http://www.w3.org/2000/svg">
  <rect x=".2" y=".2" width="41.6" height="13.6" rx="3.8" stroke="#48BB78" stroke-width=".4"/>
  <path d="M33.949 10.263v-.716l2.215-2.295c.236-.249.431-.467.585-.655.155-.19.271-.37.348-.54a1.3 1.3 0 0 0 .115-.543 1.01 1.01 0 0 0-.153-.563 1.002 1.002 0 0 0-.419-.367 1.332 1.332 0 0 0-.598-.131c-.234 0-.439.048-.613.144a.985.985 0 0 0-.403.405 1.28 1.28 0 0 0-.14.614h-.943c0-.398.091-.747.275-1.045.183-.298.434-.53.754-.694.32-.166.683-.249 1.09-.249.41 0 .773.082 1.086.246.316.162.562.384.738.665.177.28.266.595.266.946 0 .243-.046.48-.138.713-.09.232-.246.49-.47.776-.223.284-.534.628-.933 1.033l-1.3 1.361v.048h2.946v.847H33.95Zm-6.506 0V3.718h4.103v.85H28.43v1.994h2.902v.847H28.43v2.004h3.155v.85h-4.142Zm-2.407-4.478a1.998 1.998 0 0 0-.249-.52 1.593 1.593 0 0 0-.856-.65 1.967 1.967 0 0 0-.598-.086 1.81 1.81 0 0 0-.997.285c-.296.19-.53.468-.703.834-.17.364-.256.81-.256 1.34s.086.978.259 1.345c.172.366.409.644.71.834.3.19.642.284 1.025.284.356 0 .666-.072.93-.217.267-.145.472-.35.617-.614.147-.266.22-.58.22-.94l.256.049h-1.872v-.815h2.572v.744c0 .55-.117 1.027-.351 1.432a2.393 2.393 0 0 1-.965.933c-.41.22-.878.33-1.407.33-.592 0-1.112-.137-1.56-.41a2.773 2.773 0 0 1-1.041-1.16c-.25-.502-.374-1.1-.374-1.79 0-.521.072-.99.217-1.406.145-.415.348-.768.61-1.058a2.7 2.7 0 0 1 .93-.668 2.911 2.911 0 0 1 1.174-.233c.353 0 .682.052.987.157.307.104.58.252.818.444a2.516 2.516 0 0 1 .917 1.556h-1.013Zm-9.781 4.478h-1.048l2.355-6.545h1.141l2.356 6.545H19.01l-1.85-5.356h-.052l-1.854 5.356Zm.176-2.563h3.4v.83h-3.4V7.7ZM9.38 4.568v-.85h5.067v.85h-2.043v5.695h-.984V4.568H9.38Zm-1.808.869a.934.934 0 0 0-.422-.703c-.248-.168-.559-.252-.934-.252-.268 0-.5.042-.696.127a1.073 1.073 0 0 0-.457.346.815.815 0 0 0-.16.495c0 .155.036.29.109.403a.975.975 0 0 0 .29.284c.122.075.252.137.39.189a4.4 4.4 0 0 0 .4.121l.639.166c.209.051.423.12.642.208.22.087.423.202.61.345a1.537 1.537 0 0 1 .63 1.288c0 .37-.095.7-.287.988-.19.287-.466.514-.828.68-.36.167-.796.25-1.307.25-.49 0-.914-.078-1.272-.233a1.959 1.959 0 0 1-.84-.662 1.918 1.918 0 0 1-.336-1.023h.99c.02.237.096.434.23.591.137.156.31.272.522.349.213.074.446.112.7.112.279 0 .527-.044.744-.131.22-.09.392-.213.518-.371a.878.878 0 0 0 .188-.56.686.686 0 0 0-.166-.476 1.228 1.228 0 0 0-.444-.306 4.342 4.342 0 0 0-.63-.215l-.773-.21c-.524-.143-.94-.353-1.247-.63-.304-.277-.457-.644-.457-1.1 0-.377.103-.706.307-.987.205-.281.482-.5.831-.655.35-.158.744-.237 1.183-.237.443 0 .834.078 1.173.233.34.156.61.37.805.643.196.27.298.582.307.933h-.952Z" fill="#48BB78"/>
</svg>
