<svg viewBox="0 0 24 24" fill="none" xmlns="http://www.w3.org/2000/svg">
  <path d="m8.074 22 .128-3.79a13.266 13.266 0 0 1-5.491 1.181v.805a1.803 1.803 0 0 0 1.803 1.805h3.56Z" fill="currentColor"/>
  <path fill-rule="evenodd" clip-rule="evenodd" d="M7.631 2h2.797a9.95 9.95 0 0 1 4.552 1.094 13.202 13.202 0 0 0-1.871 2.688.873.873 0 0 0-.633.03.942.942 0 0 0-1.806 0 .922.922 0 0 0-1.09.287.913.913 0 0 0-.126.207c-.24-.328-.586-.533-.96-.754-.309-.183-.637-.377-.937-.661a.266.266 0 0 0-.406.02.534.534 0 0 0-.058.54c.323.762.72 1.305 1.075 1.787.114.156.224.305.325.454a.667.667 0 0 0 .488.316 3.043 3.043 0 0 0-.417 1.13c-.458.124-.805.676-.805 1.341 0 .59.276 1.096.66 1.286l-.217 6.446a13.266 13.266 0 0 1-5.491 1.18V6.922A4.924 4.924 0 0 0 7.63 2Zm-.514 6.574a.457.457 0 0 0-.11-.345.446.446 0 0 0-.149-.11L5.591 7.55a.304.304 0 0 0-.304.524l1.127.814a.444.444 0 0 0 .522-.003.456.456 0 0 0 .125-.136.456.456 0 0 0 .056-.175Zm-.11 7.395a.446.446 0 0 0 .092-.16h-.002a.456.456 0 0 0-.038-.359.445.445 0 0 0-.646-.138l-1.128.812a.304.304 0 0 0 .305.525l1.267-.57a.446.446 0 0 0 .15-.11ZM4.33 12.372l.484.166a.544.544 0 1 0 0-1.032l-.484.166a.37.37 0 0 0 0 .7Z" fill="currentColor"/>
  <path fill-rule="evenodd" clip-rule="evenodd" d="M14.98 3.094A9.993 9.993 0 0 1 20.422 12a9.997 9.997 0 0 1-5.394 8.877l-.304-9.017v-.096a.403.403 0 0 0 .065-.038c.352-.211.595-.692.595-1.247 0-.066-.003-.132-.01-.198-.061-.575-.382-1.032-.795-1.144a2.988 2.988 0 0 0-.409-1.13.666.666 0 0 0 .496-.316c.101-.15.211-.3.326-.458.35-.481.745-1.022 1.066-1.768l.018-.042a.365.365 0 0 0-.044-.38.373.373 0 0 0-.566-.035c-.294.28-.607.457-.9.623-.34.194-.652.37-.874.674a.97.97 0 0 0-.583-.523c.51-.97 1.138-1.873 1.871-2.688Zm3.348 9.442.486-.166a.37.37 0 0 0 0-.7l-.486-.166a.545.545 0 1 0 0 1.032Zm-.708 4.122a.304.304 0 0 0 .084-.536l-1.127-.813a.443.443 0 0 0-.645.139.443.443 0 0 0 .202.628l1.268.57a.294.294 0 0 0 .218.012ZM15.985 8.23a.448.448 0 0 0-.11.345.444.444 0 0 0 .182.313.447.447 0 0 0 .521.002l1.128-.814a.304.304 0 0 0-.304-.524l-1.268.57a.445.445 0 0 0-.15.108Z" fill="currentColor"/>
  <path d="M6.19 5.48A4.924 4.924 0 0 0 7.63 2H4.514A1.803 1.803 0 0 0 2.71 3.803v3.119a4.92 4.92 0 0 0 3.479-1.443Zm6.286 5.224-.507.466a.314.314 0 0 0-.09.152c-.033.134-.099.397-.152.647a.152.152 0 0 1-.152.115.152.152 0 0 1-.152-.115l-.162-.647a.304.304 0 0 0-.09-.152l-.506-.466a.151.151 0 0 1-.033-.175.153.153 0 0 1 .156-.086l.76.103h.042l.06-.007.7-.096a.153.153 0 0 1 .153.085.152.152 0 0 1-.035.176m.76-.17a1.82 1.82 0 0 1 .271-.927.608.608 0 0 0 .05-.503l-.036.032a.888.888 0 0 1-1.086.009c0 .313-.286.572-.66.618a.988.988 0 0 1-.118 0c-.427 0-.776-.28-.776-.626a.888.888 0 0 1-1.086-.009.65.65 0 0 1-.114-.12.596.596 0 0 0-.034.628c.147.277.224.585.223.898 0 .327-.087.648-.253.93a.609.609 0 0 0 .056.689c.437.525 1.135.961 1.803 1.02h.165c.773 0 1.38-.482 1.813-1.114a.599.599 0 0 0 .026-.626 1.892 1.892 0 0 1-.228-.897" fill="currentColor"/>
</svg>
