<svg xmlns="http://www.w3.org/2000/svg" viewBox="0 0 36 24" fill="none">
  <rect x=".25" y=".25" width="35.5" height="23.5" rx="3.75" fill="#fff"/>
  <rect x=".25" y=".25" width="35.5" height="23.5" rx="3.75" stroke="#707CFF" stroke-width=".5"/>
  <path d="M26.347 4.512A19.95 19.95 0 0 0 21.387 3c-.22.372-.462.876-.631 1.272a19.163 19.163 0 0 0-5.496 0c-.17-.396-.425-.9-.63-1.272a19.669 19.669 0 0 0-4.962 1.512c-3.142 4.584-3.99 9.06-3.566 13.476 2.086 1.5 4.1 2.412 6.077 3.012.486-.648.922-1.344 1.298-2.076a12.777 12.777 0 0 1-2.05-.972c.17-.12.34-.252.498-.384 3.954 1.788 8.236 1.788 12.142 0 .17.132.327.264.497.384-.655.384-1.334.708-2.05.972.376.732.813 1.428 1.298 2.076a20.193 20.193 0 0 0 6.078-3.012c.52-5.112-.826-9.552-3.543-13.476ZM14.023 15.264c-1.189 0-2.159-1.068-2.159-2.376 0-1.308.946-2.376 2.159-2.376 1.2 0 2.183 1.068 2.159 2.376 0 1.308-.958 2.376-2.159 2.376Zm7.97 0c-1.189 0-2.16-1.068-2.16-2.376 0-1.308.947-2.376 2.16-2.376 1.2 0 2.183 1.068 2.159 2.376 0 1.308-.947 2.376-2.16 2.376Z" fill="#707CFF"/>
</svg>
