<svg xmlns="http://www.w3.org/2000/svg" fill="none" viewBox="0 0 20 15">
  <mask id="discord_svg__a" width="20" height="15" x="0" y="0" fill="#000" maskUnits="userSpaceOnUse">
    <path fill="#fff" d="M0 0h20v15H0z"/>
    <path fill-rule="evenodd" d="M18.133 6.988a22.044 22.044 0 0 0-1.62-4.36.295.295 0 0 0-.1-.108 12.246 12.246 0 0 0-2.142-1.008C12.891 1.01 12.238 1 12.211 1a.281.281 0 0 0-.281.242l-.084.586a18.723 18.723 0 0 0-3.696 0l-.084-.586A.281.281 0 0 0 7.785 1c-.027 0-.68 0-2.06.508-.743.267-1.459.607-2.136 1.012a.295.295 0 0 0-.1.108 22.038 22.038 0 0 0-1.62 4.36C1.142 9.924 1 11.393 1 11.454a.281.281 0 0 0 .069.21 7.763 7.763 0 0 0 2.56 1.792c.888.378 1.824.635 2.782.762a.281.281 0 0 0 .27-.14l.76-1.301a14.77 14.77 0 0 0 2.559.21 14.83 14.83 0 0 0 2.559-.213l.76 1.304a.28.28 0 0 0 .241.14h.028a10.73 10.73 0 0 0 2.782-.756 7.76 7.76 0 0 0 2.559-1.792.28.28 0 0 0 .069-.21c.001-.067-.132-1.536-.866-4.472Zm-1.977 5.95c-.785.325-1.606.557-2.446.69l-.574-.983c.659-.175 2.028-.627 3.07-1.575a.283.283 0 0 0-.378-.422c-1.245 1.138-3.097 1.512-3.176 1.528h-.01c-.87.169-1.755.252-2.641.248a13.58 13.58 0 0 1-2.641-.24h-.01c-.02 0-1.905-.37-3.178-1.528a.283.283 0 1 0-.378.422c1.042.948 2.412 1.406 3.07 1.575l-.574.984a10.7 10.7 0 0 1-2.445-.692 7.345 7.345 0 0 1-2.271-1.567c.046-.41.236-1.838.844-4.253a22.03 22.03 0 0 1 1.535-4.168 12.397 12.397 0 0 1 1.969-.916 8.627 8.627 0 0 1 1.628-.449l.05.336c-.563.14-1.948.543-3.045 1.34a.281.281 0 0 0 .332.454c1.23-.894 2.925-1.268 3.07-1.3h.004A16.65 16.65 0 0 1 10 2.304c.682-.003 1.363.036 2.04.118.128.026 1.828.398 3.074 1.3a.281.281 0 1 0 .332-.454c-1.097-.797-2.476-1.198-3.044-1.34l.049-.336a8.68 8.68 0 0 1 1.627.449 12.4 12.4 0 0 1 1.968.916 21.974 21.974 0 0 1 1.547 4.168c.603 2.415.793 3.843.844 4.253a7.345 7.345 0 0 1-2.282 1.56ZM7.36 6.652c-.866 0-1.57.787-1.57 1.755 0 .967.703 1.753 1.57 1.753.868 0 1.57-.786 1.57-1.753 0-.968-.705-1.755-1.57-1.755Zm0 2.953c-.562 0-1.008-.534-1.008-1.191s.451-1.193 1.008-1.193c.557 0 1.007.535 1.007 1.193S7.916 9.598 7.36 9.598v.007Zm3.71-1.198c0-.968.704-1.755 1.57-1.755.865 0 1.57.787 1.57 1.755 0 .967-.705 1.753-1.57 1.753-.867 0-1.57-.786-1.57-1.753Zm.562.007c0 .657.445 1.19 1.007 1.19V9.6c.557 0 1.008-.526 1.008-1.184 0-.658-.452-1.193-1.008-1.193-.555 0-1.007.536-1.007 1.193Z" clip-rule="evenodd"/>
  </mask>
  <path fill="currentColor" fill-rule="evenodd" d="M18.133 6.988a22.044 22.044 0 0 0-1.62-4.36.295.295 0 0 0-.1-.108 12.246 12.246 0 0 0-2.142-1.008C12.891 1.01 12.238 1 12.211 1a.281.281 0 0 0-.281.242l-.084.586a18.723 18.723 0 0 0-3.696 0l-.084-.586A.281.281 0 0 0 7.785 1c-.027 0-.68 0-2.06.508-.743.267-1.459.607-2.136 1.012a.295.295 0 0 0-.1.108 22.038 22.038 0 0 0-1.62 4.36C1.142 9.924 1 11.393 1 11.454a.281.281 0 0 0 .069.21 7.763 7.763 0 0 0 2.56 1.792c.888.378 1.824.635 2.782.762a.281.281 0 0 0 .27-.14l.76-1.301a14.77 14.77 0 0 0 2.559.21 14.83 14.83 0 0 0 2.559-.213l.76 1.304a.28.28 0 0 0 .241.14h.028a10.73 10.73 0 0 0 2.782-.756 7.76 7.76 0 0 0 2.559-1.792.28.28 0 0 0 .069-.21c.001-.067-.132-1.536-.866-4.472Zm-1.977 5.95c-.785.325-1.606.557-2.446.69l-.574-.983c.659-.175 2.028-.627 3.07-1.575a.283.283 0 0 0-.378-.422c-1.245 1.138-3.097 1.512-3.176 1.528h-.01c-.87.169-1.755.252-2.641.248a13.58 13.58 0 0 1-2.641-.24h-.01c-.02 0-1.905-.37-3.178-1.528a.283.283 0 1 0-.378.422c1.042.948 2.412 1.406 3.07 1.575l-.574.984a10.7 10.7 0 0 1-2.445-.692 7.345 7.345 0 0 1-2.271-1.567c.046-.41.236-1.838.844-4.253a22.03 22.03 0 0 1 1.535-4.168 12.397 12.397 0 0 1 1.969-.916 8.627 8.627 0 0 1 1.628-.449l.05.336c-.563.14-1.948.543-3.045 1.34a.281.281 0 0 0 .332.454c1.23-.894 2.925-1.268 3.07-1.3h.004A16.65 16.65 0 0 1 10 2.304c.682-.003 1.363.036 2.04.118.128.026 1.828.398 3.074 1.3a.281.281 0 1 0 .332-.454c-1.097-.797-2.476-1.198-3.044-1.34l.049-.336a8.68 8.68 0 0 1 1.627.449 12.4 12.4 0 0 1 1.968.916 21.974 21.974 0 0 1 1.547 4.168c.603 2.415.793 3.843.844 4.253a7.345 7.345 0 0 1-2.282 1.56ZM7.36 6.652c-.866 0-1.57.787-1.57 1.755 0 .967.703 1.753 1.57 1.753.868 0 1.57-.786 1.57-1.753 0-.968-.705-1.755-1.57-1.755Zm0 2.953c-.562 0-1.008-.534-1.008-1.191s.451-1.193 1.008-1.193c.557 0 1.007.535 1.007 1.193S7.916 9.598 7.36 9.598v.007Zm3.71-1.198c0-.968.704-1.755 1.57-1.755.865 0 1.57.787 1.57 1.755 0 .967-.705 1.753-1.57 1.753-.867 0-1.57-.786-1.57-1.753Zm.562.007c0 .657.445 1.19 1.007 1.19V9.6c.557 0 1.008-.526 1.008-1.184 0-.658-.452-1.193-1.008-1.193-.555 0-1.007.536-1.007 1.193Z" clip-rule="evenodd"/>
  <path fill="currentColor" d="m16.513 2.628.358-.178-.006-.01-.352.188Zm1.62 4.36.388-.097v-.002l-.388.099Zm-1.72-4.468.217-.336-.006-.004-.006-.004-.205.344ZM14.27 1.512l-.136.376h.002l.134-.376ZM12.211 1l-.004.4h.004V1Zm-.186.068-.26-.303.26.303Zm-.095.174.396.057v-.001l-.396-.056Zm-.084.586-.04.398.381.038.055-.379-.396-.057Zm-3.696 0-.396.057.055.38.38-.039-.039-.398Zm-.084-.586-.396.056.396-.056Zm-.095-.174.26-.303-.26.303ZM7.785 1v.4h.003L7.785 1Zm-2.06.508.135.376h.003l-.139-.376ZM3.588 2.52l-.206-.343-.012.007.218.336Zm-.1.108-.353-.189-.005.011.358.178Zm-1.62 4.36-.388-.1v.003l.388.097ZM1 11.454l.399.035.001-.018v-.017H1Zm.013.112.38-.124-.38.124Zm.056.098-.3.265.004.005.005.005.291-.274Zm2.56 1.792-.16.367.003.001.156-.368Zm2.782.762-.053.397h.008l.008.002.037-.399Zm.27-.14-.345-.202-.002.003.347.199Zm.76-1.301.067-.394-.273-.047-.14.24.345.2Zm2.559.21.001-.4H10l.002.4Zm2.559-.213.346-.201-.14-.24-.274.047.068.394Zm.76 1.304.346-.2-.001-.002-.346.202Zm.101.102.202-.346-.201.346Zm.14.038-.002.4h.002v-.4Zm.028 0v.4h.027l.026-.003-.053-.397Zm2.782-.756.156.368.002-.001-.158-.367Zm2.559-1.792.29.275.006-.005.004-.006-.3-.264Zm.056-.098-.38-.124.38.124Zm.013-.113-.4-.008v.022l.002.022.398-.036Zm-5.289 2.17-.345.201.137.237.271-.043-.063-.395Zm2.446-.692.153.37.006-.003-.16-.367Zm-3.02-.292-.102-.387-.508.134.265.454.345-.201Zm3.07-1.575-.267-.298-.002.002.27.296Zm.067-.089-.361-.173.36.173Zm.027-.107-.4-.022.4.022Zm-.016-.11-.377.134.377-.133Zm-.056-.094.298-.267-.298.267Zm-.088-.067.172-.36-.172.36Zm-.108-.027-.021.4.021-.4Zm-.109.015.133.378-.133-.377Zm-.095.057-.267-.298-.003.003.27.295Zm-3.176 1.528-.079-.392.08.392Zm-.002 0v.4h.04l.04-.008-.08-.392Zm-.008 0v-.4h-.039l-.037.008.075.392ZM10 12.424l.001-.4h-.004l.003.4Zm-2.641-.24.075-.392-.037-.007H7.36v.4Zm-3.187-1.528.27-.296-.002-.002-.268.298Zm-.204-.072-.022-.4.022.4Zm-.196.094-.297-.267.297.267Zm.022.4.27-.296-.003-.002-.267.298Zm3.07 1.575.345.201.267-.457-.513-.131-.1.387Zm-.574.984-.062.396.27.042.138-.236-.346-.202Zm-2.445-.692-.162.367.008.003.154-.37Zm-2.271-1.567-.398-.045-.021.19.134.135.285-.28Zm.844-4.253-.388-.1v.003l.388.097Zm1.535-4.168-.2-.346-.106.061-.053.11.36.175Zm1.969-.916.136.376.007-.003-.143-.373Zm1.628-.449.396-.058-.06-.406-.404.07.068.394Zm.05.336.096.388.352-.088-.053-.358-.396.058Zm-3.045 1.34-.235-.323.236.323Zm-.074.081-.342-.208.342.208Zm-.038.103-.395-.061.395.061Zm.235.321.061-.395-.061.395Zm.11-.004-.095-.39.094.39Zm.099-.047L4.653 3.4h-.001l.236.323Zm3.07-1.3.087.391-.087-.39Zm.004 0-.048-.397-.02.002-.018.004.086.39ZM10 2.304l-.002.4h.003l-.001-.4Zm2.04.118.082-.392-.017-.003-.017-.002-.048.397Zm3.074 1.3.236-.323h-.001l-.235.323Zm.21.051-.062-.395.061.395Zm.234-.321.395-.061-.395.061Zm-.112-.184.236-.323h-.001l-.235.323Zm-3.044-1.34-.396-.058-.053.358.351.088.098-.388Zm.049-.336.068-.394-.405-.07-.06.406.397.058Zm1.627.449-.144.373.007.003.137-.376Zm1.968.916.36-.176-.054-.11-.106-.06-.2.346Zm1.547 4.168.388-.097v-.003l-.388.1Zm.844 4.253.284.281.137-.137-.024-.194-.397.05ZM7.36 9.606v.4h.4v-.4h-.4Zm0-.007v-.4h-.4v.4h.4Zm5.28.007v.4h.4v-.4h-.4Zm0-.007v-.4h-.4v.4h.4Zm3.514-6.793a21.645 21.645 0 0 1 1.59 4.28l.775-.197a22.449 22.449 0 0 0-1.65-4.439l-.715.356Zm.04.05a.105.105 0 0 1-.035-.038l.705-.379a.695.695 0 0 0-.235-.255l-.434.672Zm-2.058-.967c.72.257 1.414.584 2.071.975l.41-.688a12.647 12.647 0 0 0-2.212-1.04l-.27.753ZM12.21 1.4c-.028 0 .578-.001 1.924.488l.273-.752C12.992.62 12.293.6 12.21.6v.8Zm.075-.029a.119.119 0 0 1-.079.029l.008-.8a.681.681 0 0 0-.45.165l.52.606Zm.04-.073a.119.119 0 0 1-.04.073l-.522-.606a.681.681 0 0 0-.23.42l.792.113Zm-.085.587.085-.586-.792-.114-.084.586.792.114Zm-4.051.341a18.358 18.358 0 0 1 3.616 0l.08-.796a19.12 19.12 0 0 0-3.775 0l.079.796ZM7.67 1.3l.084.586.792-.114-.084-.586-.792.114Zm.04.072a.119.119 0 0 1-.04-.073l.792-.112a.681.681 0 0 0-.23-.421l-.522.606Zm.079.029a.119.119 0 0 1-.08-.029l.523-.606A.681.681 0 0 0 7.78.6l.008.8Zm-1.926.483a9.294 9.294 0 0 1 1.473-.426A3.785 3.785 0 0 1 7.78 1.4h.005V.6c-.079 0-.778.01-2.199.532l.277.751Zm-2.07.98c.656-.392 1.348-.72 2.067-.979l-.271-.753c-.767.277-1.506.627-2.206 1.046l.41.686Zm.048-.045a.105.105 0 0 1-.035.038l-.435-.672a.695.695 0 0 0-.235.255l.705.379ZM2.256 7.087a21.65 21.65 0 0 1 1.59-4.28l-.715-.357A22.438 22.438 0 0 0 1.48 6.89l.775.198Zm-.855 4.367c0 .016.005-.059.03-.26.024-.187.064-.462.126-.828.124-.732.339-1.823.7-3.282L1.48 6.89a46.404 46.404 0 0 0-.712 3.34c-.064.377-.105.664-.13.861a4.254 4.254 0 0 0-.037.362h.8Zm-.007-.012a.119.119 0 0 1 .006.047l-.797-.071a.681.681 0 0 0 .03.272l.761-.248ZM1.37 11.4c.011.012.02.027.024.042l-.76.248a.68.68 0 0 0 .136.239l.6-.529Zm2.418 1.689a7.362 7.362 0 0 1-2.427-1.7l-.582.55a8.16 8.16 0 0 0 2.692 1.884l.317-.734Zm2.677.733a10.328 10.328 0 0 1-2.68-.734l-.312.736c.922.392 1.893.658 2.886.79l.106-.792Zm-.082.01a.119.119 0 0 1 .066-.012l-.074.796a.682.682 0 0 0 .378-.074l-.37-.71Zm-.048.047a.12.12 0 0 1 .048-.046l.37.71a.681.681 0 0 0 .276-.267l-.694-.397Zm.761-1.304-.76 1.3.692.404.759-1.3-.691-.404Zm2.903.011a14.377 14.377 0 0 1-2.49-.204l-.135.79c.869.147 1.748.219 2.629.214l-.004-.8Zm2.493-.206a14.38 14.38 0 0 1-2.49.206l-.003.8c.88.004 1.76-.069 2.628-.218l-.135-.788Zm1.173 1.496-.76-1.303-.69.402.759 1.304.69-.403Zm-.042-.042c.018.01.032.026.043.043l-.693.4a.68.68 0 0 0 .247.249l.402-.692Zm-.06-.016a.12.12 0 0 1 .06.016l-.403.692a.68.68 0 0 0 .339.092l.005-.8Zm.026 0h-.028v.8h.028v-.8Zm2.626-.725c-.856.362-1.757.607-2.678.729l.104.793c.993-.13 1.963-.395 2.886-.785l-.312-.737Zm2.424-1.698a7.364 7.364 0 0 1-2.427 1.7l.317.734a8.163 8.163 0 0 0 2.692-1.884l-.582-.55Zm-.033.053a.118.118 0 0 1 .024-.042l.6.528a.681.681 0 0 0 .136-.238l-.76-.248Zm-.006.047a.118.118 0 0 1 .006-.047l.76.248a.682.682 0 0 0 .031-.273l-.796.072Zm-.855-4.41c.364 1.458.579 2.55.702 3.281a19.276 19.276 0 0 1 .147 1.04c.006.061.005.065.005.045l.8.017a1.4 1.4 0 0 0-.009-.137 20.03 20.03 0 0 0-.154-1.098 44.227 44.227 0 0 0-.715-3.342l-.776.194Zm-3.972 6.939c.87-.138 1.722-.38 2.536-.717l-.307-.74c-.756.315-1.546.538-2.355.667l.126.79Zm-.982-1.178.574.984.69-.402-.573-.985-.691.403Zm3.146-2.072c-.97.882-2.264 1.315-2.903 1.484l.205.773c.678-.18 2.122-.652 3.236-1.665l-.538-.592Zm-.025.034a.118.118 0 0 1 .027-.036l.534.595a.684.684 0 0 0 .16-.213l-.721-.346Zm-.012.044a.116.116 0 0 1 .012-.044l.721.346a.682.682 0 0 0 .066-.258l-.799-.044Zm.007.046a.117.117 0 0 1-.007-.046l.8.044a.682.682 0 0 0-.038-.264l-.755.266Zm.023.039a.116.116 0 0 1-.023-.04l.755-.265a.682.682 0 0 0-.136-.23l-.596.535Zm.037.027a.116.116 0 0 1-.037-.027l.596-.534a.684.684 0 0 0-.213-.16l-.346.721Zm.044.011a.116.116 0 0 1-.044-.011l.345-.721a.682.682 0 0 0-.258-.066l-.043.798Zm.045-.006a.117.117 0 0 1-.045.006l.043-.798a.682.682 0 0 0-.264.037l.266.755Zm.039-.023a.116.116 0 0 1-.04.023l-.265-.755a.684.684 0 0 0-.23.136l.535.596Zm-3.363 1.622c.08-.016 2.032-.405 3.366-1.625l-.54-.59c-1.156 1.057-2.907 1.415-2.985 1.43l.159.785Zm-.002 0h.002l-.16-.784h-.002l.16.784Zm-.088.008h.008v-.8h-.008v.8Zm-2.643.248a13.98 13.98 0 0 0 2.718-.255l-.152-.785a13.19 13.19 0 0 1-2.563.24l-.003.8Zm-2.714-.246c.896.17 1.807.253 2.719.246l-.006-.8a13.19 13.19 0 0 1-2.563-.232l-.15.786Zm.066.007h.009v-.8h-.01v.8Zm-3.447-1.633c.69.627 1.531 1.03 2.188 1.277a8.823 8.823 0 0 0 1.083.328 3.754 3.754 0 0 0 .114.023l.014.002a.32.32 0 0 0 .048.003v-.8a.381.381 0 0 1 .047.003l.011.001h.005a.634.634 0 0 1-.066-.013 8.056 8.056 0 0 1-.975-.296c-.61-.229-1.347-.589-1.93-1.12l-.539.592Zm.087.032a.117.117 0 0 1-.085-.03l.535-.596a.683.683 0 0 0-.494-.173l.044.799Zm.08-.039a.117.117 0 0 1-.08.039l-.044-.8a.684.684 0 0 0-.471.227l.595.534Zm.03-.084a.117.117 0 0 1-.03.084l-.595-.534a.683.683 0 0 0-.174.493l.799-.043Zm-.039-.08c.023.02.037.049.039.08l-.799.043c.01.181.091.351.226.472l.534-.596Zm2.902 1.485c-.634-.163-1.929-.6-2.9-1.484l-.538.592c1.113 1.013 2.557 1.492 3.24 1.666l.198-.774Zm-.327 1.573.574-.985-.692-.402-.573.984.69.403Zm-2.945-.524c.814.339 1.666.58 2.537.718l.125-.79A10.3 10.3 0 0 1 4 12.575l-.308.739ZM1.29 11.658a7.745 7.745 0 0 0 2.394 1.654l.323-.732a6.944 6.944 0 0 1-2.147-1.483l-.57.561Zm.74-4.63c-.611 2.431-.804 3.878-.853 4.305l.795.09c.045-.392.231-1.803.834-4.2l-.775-.195Zm1.565-4.246A22.372 22.372 0 0 0 2.03 7.026l.775.199a21.572 21.572 0 0 1 1.508-4.092l-.72-.351Zm2.191-1.117a12.84 12.84 0 0 0-2.032.946l.4.693a12 12 0 0 1 1.905-.887l-.273-.752Zm1.697-.467a8.93 8.93 0 0 0-1.704.47l.287.746a8.227 8.227 0 0 1 1.553-.428l-.136-.788Zm.513.672-.05-.336-.79.116.049.336.791-.116ZM4.791 3.592c1.033-.75 2.356-1.138 2.906-1.276l-.194-.776c-.574.144-2.021.56-3.182 1.405l.47.647Zm.032-.035a.119.119 0 0 1-.031.034l-.472-.646a.681.681 0 0 0-.18.196l.683.416Zm.016-.043a.119.119 0 0 1-.016.043l-.683-.416a.681.681 0 0 0-.091.25l.79.123Zm-.021-.089a.119.119 0 0 1 .021.089l-.79-.123a.681.681 0 0 0 .123.506l.646-.472Zm-.078-.047a.119.119 0 0 1 .078.047l-.646.472a.681.681 0 0 0 .445.271l.123-.79Zm-.046.002a.119.119 0 0 1 .046-.002l-.123.79a.7.7 0 0 0 .266-.01l-.19-.778Zm-.042.02a.119.119 0 0 1 .042-.02l.189.777a.681.681 0 0 0 .24-.112l-.47-.645Zm3.22-1.368c-.145.032-1.915.419-3.22 1.367l.471.647c1.156-.84 2.775-1.2 2.922-1.233l-.173-.781Zm.004 0h-.004l.173.781h.003l-.172-.782Zm2.126-.128a17.049 17.049 0 0 0-2.088.12l.095.795A16.25 16.25 0 0 1 10 2.704l.003-.8Zm2.087.12a16.943 16.943 0 0 0-2.09-.12l.003.8a16.14 16.14 0 0 1 1.991.115l.096-.794Zm3.26 1.374c-1.32-.956-3.093-1.34-3.226-1.368l-.164.783c.123.026 1.75.384 2.921 1.233l.47-.648Zm-.086-.02a.119.119 0 0 1 .088.021l-.472.646a.679.679 0 0 0 .507.123l-.123-.79Zm-.078.047a.119.119 0 0 1 .078-.047l.123.79a.681.681 0 0 0 .445-.27l-.646-.473Zm-.021.089a.119.119 0 0 1 .021-.089l.646.472a.681.681 0 0 0 .123-.506l-.79.123Zm.047.077a.118.118 0 0 1-.047-.077l.79-.123a.681.681 0 0 0-.271-.446l-.472.646Zm-2.906-1.275c.557.14 1.874.525 2.907 1.276l.47-.647c-1.161-.844-2.602-1.26-3.183-1.405l-.194.776Zm-.25-.782-.048.336.791.116.05-.336-.792-.116Zm2.167.133a9.083 9.083 0 0 0-1.702-.47l-.137.79c.53.091 1.05.234 1.552.427l.287-.747Zm2.025.944a12.796 12.796 0 0 0-2.032-.946l-.273.752c.66.24 1.297.536 1.905.887l.4-.693Zm1.734 4.414a22.376 22.376 0 0 0-1.575-4.244l-.718.353a21.572 21.572 0 0 1 1.519 4.092l.774-.201Zm.854 4.303c-.053-.423-.245-1.867-.853-4.3l-.776.194c.599 2.397.786 3.81.835 4.205l.794-.098Zm-2.52 1.976a7.745 7.745 0 0 0 2.407-1.645l-.568-.563a6.946 6.946 0 0 1-2.158 1.474l.32.734ZM6.191 8.408c0-.79.566-1.355 1.17-1.355v-.8c-1.127 0-1.97 1.01-1.97 2.155h.8ZM7.36 9.76c-.606 0-1.17-.564-1.17-1.353h-.8c0 1.146.841 2.153 1.97 2.153v-.8Zm1.17-1.353c0 .79-.564 1.353-1.17 1.353v.8c1.13 0 1.97-1.008 1.97-2.153h-.8ZM7.36 7.053c.603 0 1.17.565 1.17 1.355h.8c0-1.145-.843-2.155-1.97-2.155v.8ZM5.953 8.415c0 .81.563 1.59 1.408 1.59v-.8c-.28 0-.608-.287-.608-.79h-.8Zm1.408-1.593c-.838 0-1.408.781-1.408 1.593h.8c0-.502.333-.793.608-.793v-.8Zm1.407 1.593c0-.813-.568-1.593-1.407-1.593v.8c.275 0 .607.29.607.793h.8ZM7.361 9.999c.834 0 1.407-.767 1.407-1.584h-.8c0 .5-.33.784-.607.784v.8Zm.4-.393v-.007h-.8v.007h.8Zm4.88-3.353c-1.127 0-1.97 1.01-1.97 2.155h.8c0-.79.566-1.355 1.17-1.355v-.8Zm1.97 2.155c0-1.146-.843-2.155-1.97-2.155v.8c.604 0 1.17.565 1.17 1.355h.8Zm-1.97 2.153c1.126 0 1.97-1.007 1.97-2.153h-.8c0 .789-.566 1.353-1.17 1.353v.8Zm-1.97-2.153c0 1.145.841 2.153 1.97 2.153v-.8c-.605 0-1.17-.564-1.17-1.353h-.8Zm1.97.798c-.28 0-.608-.288-.608-.791h-.8c0 .81.562 1.59 1.407 1.59v-.8Zm-.4.393v.007h.8v-.007h-.8Zm1.007-1.184c0 .499-.329.784-.608.784v.8c.835 0 1.408-.767 1.408-1.584h-.8Zm-.608-.793c.275 0 .608.29.608.793h.8c0-.814-.572-1.593-1.408-1.593v.8Zm-.607.793c0-.502.334-.793.607-.793v-.8c-.837 0-1.407.782-1.407 1.593h.8Z" mask="url(#discord_svg__a)"/>
</svg>
