<svg xmlns="http://www.w3.org/2000/svg" viewBox="0 0 26 24" fill="none">
  <path d="M20.97 5.443a19.065 19.065 0 0 0-4.681-1.442.071.071 0 0 0-.075.036c-.202.357-.426.822-.583 1.189a17.631 17.631 0 0 0-5.258 0 12.01 12.01 0 0 0-.592-1.19.074.074 0 0 0-.076-.035 19.011 19.011 0 0 0-4.681 1.442.067.067 0 0 0-.031.026c-2.982 4.424-3.799 8.739-3.398 13 .002.02.014.04.03.053a19.124 19.124 0 0 0 5.743 2.883c.03.01.062-.002.08-.026.443-.6.838-1.233 1.176-1.898a.072.072 0 0 0-.04-.1 12.59 12.59 0 0 1-1.794-.85.073.073 0 0 1-.008-.121c.121-.09.242-.183.357-.277.02-.017.05-.021.074-.01 3.764 1.706 7.84 1.706 11.559 0a.071.071 0 0 1 .075.009c.115.094.236.188.357.278a.073.073 0 0 1-.006.122c-.573.332-1.169.613-1.795.848a.073.073 0 0 0-.039.101c.345.665.74 1.297 1.174 1.897.018.026.05.036.08.027a19.06 19.06 0 0 0 5.753-2.883.073.073 0 0 0 .03-.052c.48-4.927-.803-9.206-3.4-13a.058.058 0 0 0-.03-.027ZM9.187 15.874c-1.133 0-2.067-1.033-2.067-2.302 0-1.268.915-2.302 2.067-2.302 1.16 0 2.085 1.043 2.067 2.302 0 1.27-.916 2.302-2.067 2.302Zm7.642 0c-1.133 0-2.067-1.033-2.067-2.302 0-1.268.916-2.302 2.067-2.302 1.16 0 2.085 1.043 2.067 2.302 0 1.27-.906 2.302-2.067 2.302Z" stroke="currentColor" stroke-width="2"/>
</svg>
