<svg fill="currentColor" xmlns="http://www.w3.org/2000/svg" viewBox="0 0 20 20">
  <path fill-rule="evenodd" clip-rule="evenodd" d="M11.568 13.835c1.948-.23 4.02-.939 4.02-4.304 0-.957-.336-1.737-.885-2.34.089-.23.372-1.097-.106-2.302 0 0-.709-.23-2.374.886a8.582 8.582 0 0 0-2.214-.32 8.37 8.37 0 0 0-2.215.32c-1.683-1.116-2.391-.886-2.391-.886-.478 1.205-.195 2.073-.106 2.303-.55.602-.886 1.382-.886 2.339 0 3.365 2.072 4.074 4.021 4.304-.248.213-.478.62-.567 1.187-.496.212-1.789.62-2.568-.726 0 0-.461-.833-1.329-.886 0 0-.868-.018-.07.531 0 0 .584.266.974 1.276 0 0 .53 1.683 2.975 1.151v1.506c0 .23-.177.496-.62.425a8.751 8.751 0 0 1-5.97-8.308 8.747 8.747 0 0 1 8.752-8.75c4.818 0 8.75 3.914 8.733 8.75a8.768 8.768 0 0 1-5.97 8.308c-.443.089-.62-.177-.62-.425v-2.427c0-.815-.266-1.346-.584-1.612ZM20 10.009C20 4.482 15.518 0 10.009 0 4.482 0 0 4.482 0 10.009 0 15.519 4.482 20 10.009 20 15.519 20 20 15.518 20 10.009Z"/>
</svg>
