<svg xmlns="http://www.w3.org/2000/svg" viewBox="0 0 24 24" fill="none">
  <path d="M18 11.86c0 3.508-2.24 4.247-4.345 4.486.344.278.631.831.631 1.68V21H9.633v-2.013c-2.643.555-3.216-1.2-3.216-1.2-.421-1.053-1.052-1.33-1.052-1.33-.863-.572.075-.554.075-.554.939.056 1.437.924 1.437.924.842 1.403 2.24.978 2.775.757.097-.591.345-1.016.613-1.238-2.106-.24-4.346-.979-4.346-4.486 0-.998.363-1.811.958-2.439-.096-.24-.402-1.144.114-2.4 0 0 .766-.24 2.585.923a9.357 9.357 0 0 1 2.394-.334c.81.01 1.614.123 2.393.334 1.8-1.163 2.566-.924 2.566-.924.517 1.257.21 2.16.114 2.4.594.629.957 1.442.957 2.44Z" fill="currentColor"/>
  <path d="M22 12c0 5.523-4.477 10-10 10S2 17.523 2 12 6.477 2 12 2s10 4.477 10 10Z" stroke="currentColor" stroke-width="2"/>
</svg>
