<svg width="512" height="512" viewBox="0 0 512 512" fill="none" xmlns="http://www.w3.org/2000/svg">
    <path
        d="M256 308.5C284.995 308.5 308.5 284.995 308.5 256C308.5 227.005 284.995 203.5 256 203.5C227.005 203.5 203.5 227.005 203.5 256C203.5 284.995 227.005 308.5 256 308.5Z"
        fill="currentColor" />
    <path
        d="M256 6C117.929 6 6 117.929 6 256C6 394.071 117.929 506 256 506C394.071 506 506 394.071 506 256C506 117.929 394.071 6 256 6ZM410.458 319.54C409.258 343.308 402.579 366.746 385.258 383.883C367.769 401.183 344.22 407.629 320.223 408.817H191.778C167.778 407.629 144.232 401.187 126.743 383.883C109.421 366.746 102.743 343.308 101.543 319.54V192.46C102.743 168.692 109.422 145.254 126.743 128.116C144.232 110.816 167.781 104.37 191.778 103.183H320.222C344.222 104.37 367.768 110.813 385.257 128.116C402.579 145.254 409.257 168.692 410.457 192.46L410.458 319.54Z"
        fill="currentColor" />
    <path
        d="M318.6 132.138C287.314 131.28 224.694 131.28 193.408 132.138C177.127 132.585 158.67 136.638 147.07 149.028C135.016 161.907 130.461 177.467 129.999 194.874C129.187 225.426 129.999 317.126 129.999 317.126C130.528 334.531 135.016 350.093 147.07 362.972C158.67 375.366 177.127 379.415 193.408 379.862C224.694 380.72 287.314 380.72 318.6 379.862C334.881 379.415 353.338 375.362 364.938 362.972C376.992 350.093 381.547 334.533 382.009 317.126V194.874C381.547 177.467 376.992 161.907 364.938 149.028C353.334 136.634 334.877 132.585 318.6 132.138ZM256 337.375C239.906 337.375 224.173 332.602 210.791 323.66C197.408 314.719 186.978 302.01 180.819 287.141C174.66 272.271 173.049 255.909 176.189 240.124C179.329 224.339 187.079 209.839 198.459 198.459C209.84 187.078 224.339 179.328 240.125 176.188C255.91 173.048 272.272 174.66 287.141 180.819C302.01 186.978 314.719 197.408 323.661 210.79C332.603 224.172 337.375 239.905 337.375 256C337.375 277.582 328.802 298.28 313.541 313.54C298.28 328.801 277.582 337.375 256 337.375ZM337.721 191.422C334.502 191.421 331.356 190.466 328.68 188.677C326.004 186.888 323.919 184.346 322.688 181.372C321.457 178.398 321.135 175.126 321.763 171.969C322.392 168.812 323.942 165.913 326.218 163.637C328.495 161.361 331.395 159.812 334.551 159.184C337.708 158.556 340.981 158.879 343.954 160.111C346.928 161.343 349.469 163.429 351.258 166.105C353.046 168.781 354 171.928 354 175.147C354 177.284 353.579 179.401 352.761 181.376C351.943 183.351 350.744 185.145 349.232 186.656C347.72 188.168 345.926 189.366 343.95 190.184C341.975 191.002 339.859 191.422 337.721 191.422Z"
        fill="currentColor" />
</svg>