<svg viewBox="0 0 24 24" fill="none" xmlns="http://www.w3.org/2000/svg">
  <mask id="opensea_filled_svg__a" style="mask-type:luminance" maskUnits="userSpaceOnUse" x="2" y="2" width="20" height="20">
    <path d="M22 2H2v20h20V2Z" fill="#fff"/>
  </mask>
  <g mask="url(#opensea_filled_svg__a)">
    <path fill-rule="evenodd" clip-rule="evenodd" d="M12.037 2.035c5.52 0 10 4.48 10 10s-4.48 10-10 10-10-4.48-10-10 4.48-10 10-10Zm2.732 7.245.053.068.075.098c.02.04.06.081.08.142.036.053.068.106.099.16l.026.045c.031.053.063.107.099.16.02.06.06.121.08.182.082.162.143.325.163.507.02.04.02.081.02.101.02.04.02.102.02.162.02.183 0 .345-.02.527-.007.03-.015.058-.023.085l-.015.054a2.655 2.655 0 0 0-.023.084c-.02.061-.04.142-.08.223-.062.142-.143.284-.224.426-.02.04-.06.101-.101.162-.04.061-.081.102-.101.162-.041.061-.102.122-.142.183-.04.06-.081.121-.142.182-.061.081-.142.162-.203.243-.04.041-.081.102-.142.142-.04.04-.08.102-.142.142-.06.061-.121.122-.182.162l-.122.102c-.02.02-.04.02-.06.02h-.893v1.135h1.115c.244 0 .487-.08.67-.243.06-.06.344-.304.688-.669.02-.02.02-.02.041-.02l3.081-.892c.122-.06.162-.02.162.04v.65c0 .04-.02.06-.06.08-.203.081-.913.405-1.197.81-.75 1.035-1.317 2.514-2.574 2.514h-5.29a3.396 3.396 0 0 1-3.385-3.405v-.06c0-.041.04-.082.08-.082h2.98c.061 0 .102.061.102.101-.02.183.02.386.101.568.182.365.547.568.933.568h1.459v-1.135h-1.44a.091.091 0 0 1-.08-.142.28.28 0 0 0 .06-.082c.142-.202.325-.486.527-.83.142-.224.264-.487.365-.73.02-.04.04-.081.061-.142.02-.081.061-.162.081-.223l.061-.183c.04-.202.06-.425.06-.668 0-.082 0-.183-.02-.284 0-.045-.003-.089-.008-.133l-.003-.038a1.319 1.319 0 0 1-.009-.133c0-.081-.02-.183-.04-.264a2.866 2.866 0 0 0-.081-.405l-.02-.04c-.02-.082-.041-.183-.082-.264a7.58 7.58 0 0 0-.283-.811l-.122-.304a7.912 7.912 0 0 0-.182-.406c-.02-.06-.061-.1-.082-.162-.02-.06-.06-.121-.08-.182l-.061-.122-.183-.324c-.02-.04.02-.101.06-.081l1.116.304.142.04.162.041.06.02v-.669c0-.324.264-.588.568-.588.162 0 .304.061.406.163a.566.566 0 0 1 .162.405V7.5l.121.04s.02 0 .02.02c.021.021.061.062.122.102.04.04.081.081.142.122.102.08.243.203.385.324.04.04.081.06.102.101.182.163.385.365.588.588.06.061.1.122.162.183.06.06.101.142.162.202l.075.098Zm-7.88 3.105.041-.06 2.635-4.116c.041-.06.122-.06.163.02.446.994.81 2.21.648 2.98-.08.325-.284.75-.527 1.136a.442.442 0 0 1-.101.162c-.02.02-.04.04-.081.04H6.95c-.061-.02-.102-.101-.061-.162Z" fill="currentColor"/>
  </g>
</svg>
