<svg viewBox="0 0 24 24" fill="none" xmlns="http://www.w3.org/2000/svg">
  <path fill-rule="evenodd" clip-rule="evenodd" d="M12 2c5.52 0 10 4.48 10 10s-4.48 10-10 10S2 17.52 2 12 6.48 2 12 2Zm6.667 10c0-.807-.655-1.462-1.462-1.462a1.4 1.4 0 0 0-1.006.41c-.994-.714-2.374-1.182-3.895-1.24l.667-3.123 2.163.456a1.042 1.042 0 0 0 2.082-.047c0-.573-.467-1.04-1.04-1.04-.41 0-.76.233-.925.584l-2.42-.515a.291.291 0 0 0-.2.035.285.285 0 0 0-.116.164l-.737 3.486c-1.556.046-2.948.502-3.953 1.24a1.476 1.476 0 0 0-1.006-.41 1.463 1.463 0 0 0-.597 2.795c-.023.14-.035.293-.035.445 0 2.245 2.608 4.058 5.836 4.058s5.837-1.813 5.837-4.058c0-.152-.012-.293-.035-.433.48-.234.842-.748.842-1.345Zm-4.188 3.79c-.713.713-2.07.76-2.467.76-.398 0-1.766-.059-2.468-.76a.275.275 0 0 1 0-.386.275.275 0 0 1 .386 0c.444.444 1.403.608 2.093.608s1.638-.164 2.094-.609a.275.275 0 0 1 .386 0 .3.3 0 0 1-.024.386Zm-5.812-2.75c0-.572.467-1.04 1.04-1.04.574 0 1.042.468 1.042 1.04 0 .574-.468 1.042-1.041 1.042a1.043 1.043 0 0 1-1.041-1.041Zm5.625 1.042a1.043 1.043 0 0 1-1.04-1.041c0-.573.467-1.041 1.04-1.041.574 0 1.041.468 1.041 1.04 0 .574-.467 1.042-1.04 1.042Z" fill="currentColor"/>
</svg>
