<svg viewBox="0 0 24 24" fill="none" xmlns="http://www.w3.org/2000/svg">
  <path fill-rule="evenodd" clip-rule="evenodd" d="M12 2c5.52 0 10 4.48 10 10s-4.48 10-10 10S2 17.52 2 12 6.48 2 12 2Zm1.598 13.51c.7 0 1.272.572 1.272 1.273 0 .7-.572 1.272-1.272 1.272-.7 0-1.273-.572-1.273-1.272V15.51h1.273ZM9.13 13.599c0-.7.572-1.273 1.272-1.273.7 0 1.273.572 1.273 1.273v3.185c0 .7-.572 1.272-1.273 1.272-.7 0-1.272-.572-1.272-1.272v-3.186Zm-.64 0c0 .7-.572 1.272-1.273 1.272-.7 0-1.272-.572-1.272-1.272 0-.7.572-1.273 1.272-1.273H8.49v1.273Zm8.293 1.272c.7 0 1.272-.572 1.272-1.272 0-.7-.572-1.273-1.272-1.273h-3.186c-.7 0-1.272.572-1.272 1.273 0 .7.572 1.272 1.273 1.272h3.185Zm0-3.195c.7 0 1.272-.572 1.272-1.273 0-.7-.572-1.272-1.272-1.272-.7 0-1.273.572-1.273 1.272v1.273h1.273Zm-1.913-1.273c0 .7-.572 1.273-1.272 1.273-.7 0-1.273-.572-1.273-1.273V7.217c0-.7.572-1.272 1.273-1.272.7 0 1.272.572 1.272 1.272v3.186Zm-4.467 1.273c.7 0 1.272-.572 1.272-1.273 0-.7-.572-1.272-1.273-1.272H7.217c-.7 0-1.272.572-1.272 1.272 0 .7.572 1.273 1.272 1.273h3.186Zm1.272-3.186V7.217c0-.7-.572-1.272-1.273-1.272-.7 0-1.272.572-1.272 1.272 0 .7.572 1.272 1.272 1.272h1.273Z" fill="currentColor"/>
</svg>
