<svg fill="none" xmlns="http://www.w3.org/2000/svg" viewBox="0 0 20 20">
  <path fill-rule="evenodd" clip-rule="evenodd" d="M7.193 15.193h.702a.526.526 0 0 0 .526-.527V5.193a.526.526 0 0 0-.526-.526h-.702a.526.526 0 0 0-.526.526v9.473a.526.526 0 0 0 .526.527Zm5.614 0h-.702a.526.526 0 0 1-.526-.527V6.947a.526.526 0 0 1 .526-.526h.702a.526.526 0 0 1 .527.526v7.72a.526.526 0 0 1-.527.526Zm-2.456 0H9.65a.526.526 0 0 1-.526-.527V9.403a.526.526 0 0 1 .526-.526h.702a.526.526 0 0 1 .526.526v5.263a.526.526 0 0 1-.526.527Z" fill="currentColor"/>
  <circle cx="10" cy="10" r="9" stroke="currentColor" stroke-width="2"/>
</svg>
