<svg viewBox="0 0 22 22" fill="none" xmlns="http://www.w3.org/2000/svg">
  <path fill-rule="evenodd" clip-rule="evenodd" d="M18.067 3.928A9.984 9.984 0 0 0 10.997 1 9.983 9.983 0 0 0 3.93 3.928 9.973 9.973 0 0 0 1 11.003a9.969 9.969 0 0 0 2.929 7.069A9.983 9.983 0 0 0 10.998 21a9.984 9.984 0 0 0 7.069-2.928 9.97 9.97 0 0 0 2.928-7.07 9.974 9.974 0 0 0-2.928-7.074Zm-.554 13.59a9.187 9.187 0 0 1-6.516 2.702 9.187 9.187 0 0 1-6.515-2.702 9.175 9.175 0 0 1-2.701-6.515 9.178 9.178 0 0 1 2.7-6.521 9.182 9.182 0 0 1 6.517-2.696 9.181 9.181 0 0 1 6.515 2.696 9.177 9.177 0 0 1 2.701 6.52c0 2.542-1.03 4.85-2.701 6.516Z" fill="currentColor" stroke="currentColor"/>
  <path fill-rule="evenodd" clip-rule="evenodd" d="M15.825 7.067c-.404.238-.858.41-1.334.504a2.088 2.088 0 0 0-1.534-.654c-1.151 0-2.093.925-2.093 2.06 0 .166.028.32.061.47a5.945 5.945 0 0 1-4.318-2.153c-.177.31-.287.659-.287 1.035 0 .72.411 1.35.965 1.716-.343-.005-.703-.1-.911-.255v.028c0 .266.014.51.108.742a2.062 2.062 0 0 0 1.522 1.273 2.12 2.12 0 0 1-.563.078 1.91 1.91 0 0 1-.397-.045 2.109 2.109 0 0 0 1.952 1.44c-.72.553-1.618.88-2.598.88-.171 0-.332-.011-.504-.028.93.581 2.031.925 3.21.925 3.272 0 5.283-2.265 5.808-4.617.095-.42.129-.836.129-1.246v-.265a4.167 4.167 0 0 0 1.05-1.069 4.43 4.43 0 0 1-1.196.327c.437-.26.774-.659.93-1.146Z" fill="currentColor"/>
</svg>
