<svg viewBox="0 0 24 24" fill="none" xmlns="http://www.w3.org/2000/svg">
  <path fill-rule="evenodd" clip-rule="evenodd" d="M12.005 22c5.523 0 10-4.477 10-10s-4.477-10-10-10-10 4.477-10 10 4.477 10 10 10Zm5.011-12.322c.483-.35.894-.774 1.234-1.27a4.938 4.938 0 0 1-1.416.38 2.39 2.39 0 0 0 1.081-1.355 4.823 4.823 0 0 1-1.56.593 2.371 2.371 0 0 0-1.798-.776c-.68 0-1.26.24-1.74.72a2.37 2.37 0 0 0-.72 1.739c0 .182.021.37.062.563a6.855 6.855 0 0 1-2.83-.757 6.971 6.971 0 0 1-2.241-1.816 2.4 2.4 0 0 0-.335 1.24 2.456 2.456 0 0 0 1.096 2.048 2.44 2.44 0 0 1-1.112-.312v.031c0 .594.187 1.115.56 1.564.373.45.844.732 1.412.849a2.542 2.542 0 0 1-.647.084c-.142 0-.297-.013-.464-.038.157.492.446.897.868 1.214a2.4 2.4 0 0 0 1.431.49 4.816 4.816 0 0 1-3.053 1.051c-.218 0-.416-.01-.594-.03a6.83 6.83 0 0 0 3.777 1.104 7.19 7.19 0 0 0 2.459-.415c.766-.277 1.421-.647 1.964-1.112a7.434 7.434 0 0 0 1.405-1.602 7.138 7.138 0 0 0 .88-1.892 6.983 6.983 0 0 0 .282-2.295Z" fill="currentColor"/>
</svg>
