<svg xmlns="http://www.w3.org/2000/svg" viewBox="0 0 33 32" fill="none">
  <path fill-rule="evenodd" clip-rule="evenodd" d="M16.5 26c5.523 0 10-4.477 10-10s-4.477-10-10-10-10 4.477-10 10 4.477 10 10 10Zm-6-11.754a2.492 2.492 0 0 1 2.492-2.492h7.016a2.492 2.492 0 0 1 2.492 2.492v3.507a2.492 2.492 0 0 1-2.492 2.493h-7.016a2.492 2.492 0 0 1-2.492-2.492v-3.508Zm4.54 3.49 3.282-1.565a.132.132 0 0 0 .003-.237l-3.281-1.663a.132.132 0 0 0-.192.118v3.228c0 .097.101.16.189.119Z" fill="currentColor"/>
</svg>
