<svg width="504" height="350" viewBox="0 0 504 350" fill="none" xmlns="http://www.w3.org/2000/svg">
    <path
        d="M483.11 60.2772C477.578 39.7137 461.365 23.5039 440.804 17.9667C403.243 7.68945 252.994 7.68945 252.994 7.68945C252.994 7.68945 102.751 7.68945 65.1895 17.5774C45.0242 23.1087 28.4162 39.7174 22.885 60.2772C13 97.8357 13 175.728 13 175.728C13 175.728 13 254.013 22.885 291.178C28.4215 311.739 44.629 327.949 65.1925 333.486C103.146 343.766 253 343.766 253 343.766C253 343.766 403.243 343.766 440.804 333.878C461.368 328.344 477.578 312.134 483.115 291.573C492.997 254.012 492.997 176.123 492.997 176.123C492.997 176.123 493.392 97.8349 483.11 60.2772ZM205.157 247.687V103.767L330.097 175.727L205.157 247.687Z"
        fill="currentColor" />
</svg>