<svg fill="currentColor" viewBox="0 0 38 34" xmlns="http://www.w3.org/2000/svg">
  <path fill-rule="evenodd" clip-rule="evenodd" d="m9.5 10.579-.883-.047-.004.892v.186l-.002.816-.001 5.113v.352l1.047 1.056c-.415.262-.831.522-1.25.78l-.404.248L8 25.855l4.828 4.872.317.021c5.923.39 12.015-.043 17.723-2.029l.569-.197v-7.067l-1.235-1.245c.21-.21.42-.42.628-.634l.244-.248v-.35l.001-2.707.002-2.698-4.973-5.015-.494.167c-5.14 1.736-10.651 2.143-16.11 1.854Zm16.377-1.047 4.357 4.393-.003 5.054a72.844 72.844 0 0 1-1.229 1.224l1.591 1.604v6.109c-5.57 1.938-11.543 2.37-17.393 1.984l-4.357-4.397.003-5.05a100.236 100.236 0 0 0 2.15-1.358l-1.543-1.556c0-2.91.001-4.453.002-5.26l.001-.851c.28.015.562.028.843.039 5.252.208 10.575-.245 15.578-1.935Z"/>
  <path fill-rule="evenodd" clip-rule="evenodd" d="M28.544 16.147v2.449a86.482 86.482 0 0 1-8.15 6.924c2.839-.19 5.675-.646 8.516-1.473v2.71c-3.918 1.144-7.833 1.578-11.748 1.578-.759 0-1.517-.017-2.276-.048v-2.45a89.888 89.888 0 0 0 8.15-5.87c-1.953.253-3.907.36-5.86.36-.562 0-1.121-.008-1.683-.025v-2.71c.556.018 1.11.026 1.666.026 3.794 0 7.589-.405 11.383-1.474l.002.003Z"/>
</svg>
