<svg width="57" height="20" viewBox="0 0 57 20" fill="none" xmlns="http://www.w3.org/2000/svg">
<path fill-rule="evenodd" clip-rule="evenodd" d="M12.0175 9.92894C12.0198 9.95263 12.0205 9.97598 12.0205 10C12.0205 10.024 12.0198 10.0474 12.0175 10.0711C12.0158 10.0907 12.0125 10.1101 12.0092 10.1298C12.0084 10.1334 12.0079 10.1371 12.0075 10.1408C12.0068 10.1428 12.0068 10.1451 12.0065 10.1475L12.0025 10.1635C11.9909 10.2459 11.9639 10.3253 11.9228 10.3977C11.9131 10.4137 11.9004 10.4267 11.8901 10.4417L6.69586 19.518C6.64298 19.6818 6.53203 19.8206 6.38392 19.9083C6.2805 19.9687 6.16807 19.9957 6.0553 19.9994C6.04029 20.0007 6.02528 19.9994 6.01027 19.9997C5.99525 19.9994 5.97991 20.0007 5.96489 19.9994C5.84955 19.9971 5.73666 19.9657 5.63661 19.9083C5.48839 19.8207 5.37742 19.6819 5.32467 19.518L0.130801 10.4417C0.120125 10.4267 0.107447 10.4137 0.0977724 10.3977C0.056083 10.3253 0.0288865 10.2456 0.0177025 10.1628L0.0140326 10.1471C0.013699 10.1451 0.013699 10.1428 0.0130318 10.1408C0.012639 10.1371 0.0120824 10.1334 0.0113636 10.1298C0.0080274 10.1101 0.00469115 10.0907 0.00302302 10.0711C0.000843257 10.0474 -0.000158858 10.0237 2.04022e-05 10C2.04022e-05 9.97598 0.000687652 9.95229 0.00302302 9.92894C0.00469115 9.90926 0.0080274 9.8899 0.0113636 9.87022C0.0120824 9.86658 0.012639 9.8629 0.0130318 9.85921L0.0140326 9.85287L0.0177025 9.83753C0.029713 9.75645 0.0544012 9.67672 0.0977724 9.60232C0.107447 9.58597 0.120125 9.57296 0.130801 9.55795L5.32467 0.482026C5.37871 0.32222 5.4828 0.181097 5.63661 0.0916858C5.73666 0.0342547 5.84955 0.00293248 5.96489 0.000606325C5.97991 -0.000728173 5.99525 0.000606325 6.01027 0.0002727C6.02528 0.000606325 6.04029 -0.000728173 6.05564 0.000606325C6.16807 0.00427619 6.2805 0.0312998 6.38392 0.0916858C6.53773 0.181097 6.64182 0.32222 6.69586 0.482026L11.8897 9.55795C11.9004 9.57296 11.9131 9.58597 11.9228 9.60232C11.9644 9.67441 11.9915 9.75398 12.0025 9.83652L12.0065 9.85254L12.0075 9.85921C12.0079 9.8629 12.0084 9.86658 12.0092 9.87022C12.0125 9.8899 12.0158 9.90926 12.0175 9.92894ZM6.01027 17.7948L9.42224 11.8329L6.3906 13.5594C6.37458 13.5684 6.3579 13.5738 6.34155 13.5815C6.16107 13.6714 5.95248 13.6869 5.76071 13.6245C5.68434 13.5999 5.61279 13.5623 5.5492 13.5134L2.59829 11.8329L6.01027 17.7948ZM6.01027 2.2052L2.59829 8.16707L5.62993 6.44056C5.64595 6.43155 5.66263 6.42621 5.67898 6.41854C5.707 6.4052 5.73102 6.38518 5.76071 6.3755L5.76872 6.37283C5.78907 6.3665 5.81142 6.36716 5.83211 6.36249C5.87782 6.35115 5.92319 6.34348 5.9689 6.34014L5.98825 6.33914C6.16181 6.3291 6.33325 6.3814 6.47167 6.4866L6.91606 6.73982L9.42224 8.16707L6.01027 2.2052ZM6.01027 7.83678L4.15164 8.89537L2.21195 10L6.01027 12.1632L6.76592 11.7328L9.80825 10L6.01027 7.83678Z" fill="#4AD7A7"/>
<path fill-rule="evenodd" clip-rule="evenodd" d="M56.4493 13.8967C56.3933 13.8967 56.3372 13.8826 56.2812 13.8546C56.2074 13.8163 56.1357 13.7742 56.0663 13.7285C55.9291 13.6386 55.7837 13.562 55.6319 13.4996C55.4978 13.4466 55.3377 13.4202 55.1508 13.4202C54.7271 13.4202 54.3989 13.5634 54.1653 13.8499C53.9318 14.1365 53.815 14.5352 53.815 15.046C53.815 15.5571 53.9301 15.9511 54.1606 16.2284C54.3908 16.5056 54.7178 16.644 55.1415 16.644C55.3283 16.644 55.4931 16.616 55.6366 16.56C55.7896 16.499 55.9365 16.4239 56.0757 16.3358C56.144 16.2921 56.2124 16.2547 56.2812 16.2237C56.3496 16.1923 56.4119 16.177 56.468 16.177C56.5551 16.177 56.6268 16.2127 56.6828 16.2844C56.7389 16.3558 56.7669 16.4449 56.7669 16.5506C56.7669 16.638 56.7436 16.7174 56.6969 16.7888C56.6502 16.8606 56.5708 16.9336 56.4587 17.0087C56.2575 17.1394 56.0367 17.2372 55.8047 17.2983C55.5583 17.3664 55.3038 17.4009 55.0481 17.401C54.6057 17.401 54.218 17.3046 53.8851 17.1115C53.5518 16.9183 53.2932 16.644 53.1097 16.2891C52.9259 15.9338 52.8342 15.5227 52.8342 15.0553C52.8342 14.5822 52.9289 14.1645 53.1191 13.8032C53.2992 13.4522 53.5765 13.1602 53.9178 12.9622C54.2601 12.763 54.6524 12.6632 55.0948 12.6632C55.3313 12.6632 55.5695 12.6976 55.8094 12.766C56.035 12.8285 56.2504 12.9229 56.4493 13.0462C56.6485 13.1834 56.7482 13.3422 56.7482 13.523C56.7482 13.6287 56.7202 13.7175 56.6642 13.7892C56.6396 13.823 56.6072 13.8504 56.5698 13.8691C56.5324 13.8878 56.4911 13.8972 56.4493 13.8967ZM56.1133 8.04087C55.9762 8.04087 55.8641 8.00184 55.7771 7.9241C55.6896 7.84604 55.6459 7.73561 55.6459 7.59215V5.17204C55.6459 4.79204 55.5775 4.51646 55.4404 4.34498C55.3036 4.1735 55.0888 4.08809 54.7962 4.08809C54.4536 4.08809 54.1827 4.20486 53.9835 4.4384C53.784 4.67193 53.6846 4.99121 53.6846 5.39623V7.59215C53.6846 7.73561 53.6409 7.84604 53.5538 7.9241C53.4664 8.00184 53.3513 8.04087 53.2078 8.04087C53.071 8.04087 52.9589 8.00184 52.8715 7.9241C52.7844 7.84604 52.7407 7.73561 52.7407 7.59215V5.17204C52.7407 4.79204 52.6723 4.51646 52.5352 4.34498C52.3984 4.1735 52.1836 4.08809 51.891 4.08809C51.5484 4.08809 51.2758 4.20486 51.0733 4.4384C50.8711 4.67193 50.77 4.99121 50.77 5.39623V7.59215C50.77 7.73561 50.7263 7.84604 50.6392 7.9241C50.5518 8.00184 50.4397 8.04087 50.3029 8.04087C50.1658 8.04087 50.0521 8.00184 49.962 7.9241C49.8716 7.84604 49.8265 7.73561 49.8265 7.59215V3.78883C49.8265 3.65204 49.8732 3.54295 49.9667 3.46188C50.0601 3.38081 50.1722 3.34044 50.3029 3.34044C50.4337 3.34044 50.5412 3.37947 50.6249 3.45721C50.7093 3.53527 50.7513 3.6427 50.7513 3.77949V4.12546C50.8881 3.86356 51.078 3.66439 51.3212 3.52727C51.5637 3.39048 51.844 3.32175 52.1616 3.32175C52.5105 3.32175 52.7985 3.39348 53.0257 3.53661C53.2532 3.68007 53.423 3.90093 53.5351 4.20019C53.6715 3.93268 53.8824 3.71034 54.1423 3.55996C54.4099 3.40116 54.7151 3.32175 55.0578 3.32175C56.079 3.32175 56.5898 3.93529 56.5898 5.16269V7.59215C56.5898 7.73561 56.5461 7.84604 56.459 7.9241C56.3716 8.00184 56.2565 8.04087 56.1133 8.04087ZM49.6861 11.6167C49.5803 11.7164 49.4372 11.7661 49.2564 11.7661C49.0759 11.7661 48.9328 11.7164 48.8267 11.6167C48.7209 11.5169 48.6679 11.3861 48.6679 11.224C48.6679 11.0622 48.7209 10.9331 48.8267 10.8363C48.9328 10.7396 49.0759 10.6915 49.2564 10.6915C49.4309 10.6915 49.5726 10.7396 49.6814 10.8363C49.7905 10.9331 49.8449 11.0622 49.8449 11.224C49.8449 11.3861 49.7918 11.5169 49.6861 11.6167ZM48.033 8.04087C47.9022 8.04087 47.7961 8.00184 47.7154 7.9241C47.6343 7.84604 47.5939 7.74161 47.5939 7.61083V7.25585C47.459 7.50899 47.2527 7.71698 47.0007 7.85404C46.7485 7.99116 46.4666 8.05956 46.1553 8.05956C45.0467 8.05956 44.4925 7.44902 44.4925 6.22796V3.79817C44.4925 3.65505 44.5346 3.54295 44.6187 3.46188C44.7027 3.38081 44.8195 3.34044 44.969 3.34044C45.1121 3.34044 45.2259 3.38081 45.3099 3.46188C45.394 3.54295 45.436 3.65505 45.436 3.79817V6.21862C45.436 6.58627 45.5108 6.85717 45.6602 7.03166C45.8097 7.20614 46.0399 7.29322 46.3515 7.29322C46.7188 7.29322 47.0131 7.17512 47.2343 6.93824C47.4551 6.70137 47.5659 6.38676 47.5659 5.99442V3.79817C47.5659 3.66138 47.6093 3.55062 47.6967 3.46655C47.7837 3.38247 47.8988 3.34044 48.0423 3.34044C48.1854 3.34044 48.2992 3.38081 48.3833 3.46188C48.4673 3.54295 48.5094 3.65505 48.5094 3.79817V7.60149C48.5094 7.7326 48.4657 7.83836 48.3786 7.91943C48.2912 8.00017 48.1761 8.04087 48.033 8.04087ZM45.2585 13.0462C45.4641 13.1834 45.5668 13.3422 45.5668 13.523C45.5668 13.6227 45.5371 13.7068 45.4777 13.7752C45.4187 13.8439 45.3486 13.878 45.2679 13.878C45.2118 13.878 45.1558 13.8656 45.0997 13.8406C45.0227 13.8045 44.9478 13.764 44.8755 13.7192C44.7251 13.6282 44.5673 13.5501 44.4038 13.4856C44.2573 13.4292 44.0752 13.4012 43.8573 13.4012C43.5954 13.4012 43.3852 13.4576 43.2268 13.5697C43.0676 13.6818 42.9882 13.8346 42.9882 14.0274C42.9882 14.2019 43.0616 14.3374 43.2081 14.4341C43.3542 14.5305 43.6298 14.6226 44.0348 14.7097C44.4518 14.7971 44.7788 14.8965 45.0153 15.0086C45.2522 15.1207 45.4217 15.2595 45.5248 15.4246C45.6272 15.5898 45.6789 15.8 45.6789 16.0552C45.6789 16.4602 45.5091 16.7858 45.1698 17.0317C44.8302 17.2779 44.3771 17.401 43.8106 17.401C43.1754 17.401 42.6553 17.2703 42.2506 17.0087C42.1385 16.94 42.0588 16.8682 42.0124 16.7935C41.9652 16.7179 41.9407 16.6304 41.942 16.5413C41.942 16.4415 41.9703 16.3575 42.0264 16.2891C42.0516 16.2563 42.0842 16.2299 42.1214 16.212C42.1587 16.1941 42.1996 16.1852 42.2409 16.186C42.322 16.186 42.4498 16.236 42.6242 16.3358C42.8111 16.4355 42.9929 16.5163 43.1707 16.5787C43.3479 16.641 43.5707 16.6721 43.8383 16.6721C44.1372 16.6721 44.3711 16.6194 44.5392 16.5133C44.7074 16.4075 44.7911 16.2577 44.7911 16.0645C44.7911 15.9401 44.7588 15.8403 44.6931 15.7656C44.6277 15.6909 44.5142 15.6242 44.3524 15.5648C44.1903 15.5057 43.9504 15.4417 43.6328 15.3733C43.085 15.2548 42.691 15.0944 42.4511 14.8919C42.2116 14.6897 42.0914 14.4138 42.0914 14.0648C42.0914 13.7972 42.1695 13.5557 42.3253 13.3405C42.4808 13.1256 42.6956 12.9592 42.9695 12.8407C43.2438 12.7223 43.5551 12.6632 43.904 12.6632C44.1502 12.6629 44.3953 12.6959 44.6327 12.7613C44.8558 12.8206 45.0673 12.9169 45.2585 13.0462ZM43.138 5.87265H40.2515C40.3139 6.83849 40.7776 7.32124 41.6434 7.32124C41.8736 7.32124 42.0731 7.29022 42.2412 7.22783C42.424 7.15892 42.6019 7.07778 42.7737 6.98495C42.8237 6.95589 42.8752 6.92938 42.9278 6.90555C43.0119 6.86485 43.082 6.84483 43.138 6.84483C43.2251 6.84483 43.2968 6.87886 43.3529 6.94759C43.4089 7.01598 43.437 7.10339 43.437 7.20915C43.437 7.38997 43.3249 7.54244 43.1007 7.66688C42.8762 7.79441 42.6359 7.89188 42.386 7.9568C42.144 8.023 41.8943 8.05754 41.6434 8.05956C40.9211 8.05956 40.3513 7.84937 39.9339 7.42867C39.5165 7.0083 39.308 6.43347 39.308 5.7045C39.308 5.23743 39.3998 4.82306 39.5836 4.46175C39.7674 4.10043 40.0256 3.82019 40.3589 3.62068C40.6922 3.42151 41.0706 3.32175 41.4939 3.32175C42.1041 3.32175 42.5869 3.51793 42.9419 3.91027C43.2968 4.30294 43.4743 4.83241 43.4743 5.49899C43.4743 5.7482 43.3622 5.87265 43.138 5.87265ZM42.3393 4.35432C42.1432 4.12679 41.8676 4.01336 41.5126 4.01336C41.1513 4.01336 40.8617 4.12846 40.6438 4.35899C40.426 4.58953 40.2952 4.91348 40.2515 5.33084H42.6616C42.6429 4.90714 42.5355 4.58185 42.3393 4.35432ZM37.2529 17.401C36.6177 17.401 36.0975 17.2703 35.6929 17.0087C35.5808 16.94 35.5014 16.8682 35.4547 16.7935C35.4077 16.7179 35.3834 16.6303 35.3846 16.5413C35.3846 16.4415 35.4126 16.3575 35.4687 16.2891C35.4939 16.2563 35.5265 16.2299 35.5638 16.212C35.6012 16.1941 35.6421 16.1852 35.6835 16.186C35.7643 16.186 35.892 16.236 36.0665 16.3358C36.2534 16.4355 36.4355 16.5163 36.613 16.5787C36.7905 16.641 37.013 16.6721 37.2809 16.6721C37.5798 16.6721 37.8134 16.6194 37.9815 16.5133C38.1497 16.4075 38.2337 16.2577 38.2337 16.0645C38.2337 15.9401 38.2011 15.8403 38.1357 15.7656C38.0703 15.6909 37.9565 15.6242 37.7947 15.5648C37.6326 15.5057 37.393 15.4417 37.0754 15.3733C36.5273 15.2548 36.1332 15.0944 35.8937 14.8919C35.6538 14.6897 35.5341 14.4138 35.5341 14.0648C35.5341 13.7972 35.6118 13.5557 35.7676 13.3405C35.9231 13.1256 36.1379 12.9592 36.4122 12.8407C36.6861 12.7223 36.9973 12.6632 37.3463 12.6632C37.5925 12.6629 37.8376 12.6959 38.0749 12.7613C38.298 12.8206 38.5096 12.9169 38.7008 13.0462C38.9063 13.1834 39.0091 13.3422 39.0091 13.523C39.0091 13.6227 38.9794 13.7068 38.9203 13.7752C38.861 13.8439 38.7909 13.878 38.7102 13.878C38.6541 13.878 38.5981 13.8656 38.542 13.8406C38.465 13.8045 38.3901 13.764 38.3178 13.7192C38.1674 13.6282 38.0096 13.5501 37.8461 13.4856C37.6996 13.4292 37.5175 13.4012 37.2996 13.4012C37.038 13.4012 36.8279 13.4576 36.6691 13.5697C36.5102 13.6818 36.4308 13.8346 36.4308 14.0274C36.4308 14.2019 36.5039 14.3374 36.6504 14.4341C36.7965 14.5305 37.0721 14.6226 37.4771 14.7097C37.8941 14.7971 38.2211 14.8965 38.4579 15.0086C38.6945 15.1207 38.8643 15.2595 38.9671 15.4246C39.0698 15.5898 39.1212 15.8 39.1212 16.0552C39.1212 16.4602 38.9514 16.7858 38.6121 17.0317C38.2724 17.2779 37.8194 17.401 37.2529 17.401ZM38.6261 4.15348L38.3458 4.1815C37.9535 4.21887 37.6622 4.35599 37.4724 4.59253C37.2823 4.8294 37.1875 5.11599 37.1875 5.45228V7.59215C37.1875 7.74161 37.1438 7.85404 37.0567 7.92877C36.9693 8.00351 36.8572 8.04087 36.7204 8.04087C36.5833 8.04087 36.4695 8.00351 36.3795 7.92877C36.2891 7.85404 36.244 7.74161 36.244 7.59215V3.78883C36.244 3.6457 36.2891 3.53527 36.3795 3.45721C36.4695 3.37947 36.5833 3.34044 36.7204 3.34044C36.8449 3.34044 36.9493 3.37947 37.0334 3.45721C37.1174 3.53527 37.1595 3.6427 37.1595 3.77949V4.22821C37.2839 3.95397 37.4644 3.74546 37.7013 3.602C37.9378 3.45887 38.2057 3.3748 38.5047 3.34978L38.6354 3.34044C38.9344 3.32175 39.0838 3.44953 39.0838 3.72344C39.0838 3.86056 39.0495 3.96331 38.9811 4.03171C38.9123 4.10043 38.7942 4.1408 38.6261 4.15348ZM34.8708 5.87265H31.9843C32.0467 6.83849 32.5108 7.32124 33.3762 7.32124C33.6067 7.32124 33.8059 7.29022 33.974 7.22783C34.1568 7.15892 34.3347 7.07778 34.5065 6.98495C34.5565 6.95589 34.6079 6.92938 34.6606 6.90555C34.7447 6.86485 34.8148 6.84483 34.8708 6.84483C34.9579 6.84483 35.0296 6.87886 35.0857 6.94759C35.1417 7.01598 35.1697 7.10339 35.1697 7.20915C35.1697 7.38997 35.0576 7.54244 34.8334 7.66688C34.609 7.79441 34.3687 7.89188 34.1188 7.9568C33.8768 8.02302 33.6271 8.05756 33.3762 8.05956C32.6539 8.05956 32.084 7.84937 31.6667 7.42867C31.2497 7.0083 31.0408 6.43347 31.0408 5.7045C31.0408 5.23743 31.1329 4.82306 31.3164 4.46175C31.5002 4.10043 31.7584 3.82019 32.0917 3.62068C32.425 3.42151 32.8033 3.32175 33.2267 3.32175C33.8369 3.32175 34.3197 3.51793 34.6746 3.91027C35.0296 4.30294 35.2071 4.83241 35.2071 5.49899C35.2071 5.7482 35.095 5.87265 34.8708 5.87265ZM34.0721 4.35432C33.8759 4.12679 33.6004 4.01336 33.2454 4.01336C32.8841 4.01336 32.5948 4.12846 32.3766 4.35899C32.1588 4.58953 32.028 4.91348 31.9843 5.33084H34.3944C34.3757 4.90714 34.2683 4.58185 34.0721 4.35432ZM31.8769 13.121C32.1725 13.4262 32.3206 13.8906 32.3206 14.5135V16.9336C32.3206 17.0771 32.2799 17.1875 32.1991 17.2656C32.1181 17.3433 32.006 17.3824 31.8629 17.3824C31.7257 17.3824 31.6166 17.3417 31.5359 17.2609C31.4548 17.1798 31.4145 17.0708 31.4145 16.9336V16.588C31.296 16.8496 31.1202 17.0504 30.8867 17.1909C30.6531 17.331 30.3806 17.401 30.0693 17.401C29.7704 17.401 29.4961 17.3403 29.2472 17.2189C28.998 17.0974 28.8035 16.9276 28.6634 16.7094C28.5235 16.4923 28.4504 16.2388 28.4532 15.9805C28.4532 15.6505 28.5386 15.3903 28.7101 15.2005C28.8813 15.0103 29.1645 14.8748 29.5602 14.7938C29.9555 14.713 30.499 14.6723 31.1903 14.6723H31.4051V14.4014C31.4051 14.0525 31.3334 13.8002 31.1903 13.6444C31.0468 13.4886 30.8166 13.4109 30.499 13.4109C30.2808 13.4109 30.0753 13.4389 29.8825 13.495C29.6893 13.551 29.4774 13.6321 29.2472 13.7378C29.0791 13.8313 28.9607 13.878 28.8923 13.878C28.8488 13.8792 28.8057 13.8707 28.766 13.8529C28.7264 13.8351 28.6913 13.8085 28.6634 13.7752C28.604 13.7068 28.5747 13.6194 28.5747 13.5136C28.5747 13.4202 28.601 13.3375 28.6541 13.2658C28.7068 13.1944 28.7925 13.1243 28.9109 13.0556C29.1288 12.9375 29.384 12.8424 29.6769 12.7707C29.955 12.701 30.2404 12.6649 30.527 12.6632C31.1309 12.6632 31.5809 12.816 31.8769 13.121ZM31.237 15.2048C30.7512 15.2048 30.3776 15.2268 30.116 15.2705C29.8544 15.3139 29.6676 15.3873 29.5555 15.49C29.4434 15.5928 29.3874 15.7409 29.3874 15.9338C29.3874 16.158 29.4681 16.3418 29.6302 16.4852C29.792 16.6287 29.9946 16.7001 30.2374 16.7001C30.5797 16.7001 30.86 16.5833 31.0782 16.3498C31.296 16.1159 31.4051 15.8157 31.4051 15.448V15.2048H31.237ZM29.5372 8.04087C29.3937 8.04087 29.2803 8.00017 29.1962 7.91943C29.1121 7.83836 29.0701 7.72927 29.0701 7.59215V5.17204C29.0701 4.79804 28.9937 4.52414 28.8412 4.34965C28.6884 4.17517 28.4502 4.08809 28.1266 4.08809C27.7466 4.08809 27.4413 4.20619 27.2111 4.44307C26.9806 4.67994 26.8655 4.99755 26.8655 5.39623V7.59215C26.8655 7.72927 26.8235 7.83836 26.7394 7.91943C26.6553 8.00017 26.5415 8.04087 26.3984 8.04087C26.255 8.04087 26.1399 8.00017 26.0528 7.91943C25.9654 7.83836 25.922 7.72927 25.922 7.59215V1.80777C25.922 1.67098 25.967 1.56189 26.0575 1.48081C26.1475 1.39974 26.2643 1.35938 26.4078 1.35938C26.5445 1.35938 26.6553 1.39841 26.7394 1.47614C26.8235 1.55421 26.8655 1.6583 26.8655 1.78908V4.12546C27.0134 3.87096 27.2304 3.66356 27.4914 3.52727C27.7529 3.39048 28.0519 3.32175 28.3882 3.32175C29.4718 3.32175 30.0136 3.93529 30.0136 5.16269V7.59215C30.0136 7.72927 29.9699 7.83836 29.8828 7.91943C29.7954 8.00017 29.6803 8.04087 29.5372 8.04087ZM24.0397 7.06902C24.1611 7.20614 24.3463 7.28388 24.5955 7.30256L24.8571 7.32124C24.9939 7.33392 25.0919 7.36962 25.1513 7.42867C25.2104 7.48806 25.2401 7.57046 25.2401 7.67622C25.2401 7.801 25.1917 7.89608 25.0953 7.96147C24.9985 8.02686 24.8571 8.05322 24.6702 8.04087L24.418 8.02219C23.9136 7.98482 23.5366 7.83069 23.2877 7.55945C23.0385 7.28855 22.914 6.8882 22.914 6.35874V4.16282H22.3536C22.0793 4.16282 21.9425 4.04138 21.9425 3.79817C21.9425 3.68607 21.9782 3.59733 22.05 3.53194C22.1214 3.46655 22.2228 3.43385 22.3536 3.43385H22.914V2.47135C22.914 2.32822 22.9561 2.21579 23.0402 2.13472C23.1242 2.05398 23.2377 2.01328 23.3811 2.01328C23.5242 2.01328 23.6393 2.05398 23.7268 2.13472C23.8138 2.21579 23.8575 2.32822 23.8575 2.47135V3.43385H24.7823C24.9131 3.43385 25.0142 3.46655 25.0859 3.53194C25.1573 3.59733 25.1934 3.68607 25.1934 3.79817C25.1934 3.91661 25.1573 4.00702 25.0859 4.06941C25.0142 4.13146 24.9131 4.16282 24.7823 4.16282H23.8575V6.42413C23.8575 6.71705 23.9183 6.9319 24.0397 7.06902ZM21.298 5.87265H18.4114C18.4735 6.83849 18.9376 7.32124 19.8033 7.32124C20.0335 7.32124 20.233 7.29022 20.4012 7.22783C20.5839 7.15892 20.7618 7.07778 20.9336 6.98495C20.9836 6.95589 21.0351 6.92938 21.0878 6.90555C21.1719 6.86485 21.2419 6.84483 21.298 6.84483C21.385 6.84483 21.4568 6.87886 21.5128 6.94759C21.5689 7.01598 21.5969 7.10339 21.5969 7.20915C21.5969 7.38997 21.4848 7.54244 21.2606 7.66688C21.0361 7.79429 20.7958 7.89176 20.546 7.9568C20.3039 8.023 20.0543 8.05754 19.8033 8.05956C19.0807 8.05956 18.5109 7.84937 18.0938 7.42867C17.6765 7.0083 17.468 6.43347 17.468 5.7045C17.468 5.23743 17.5597 4.82306 17.7435 4.46175C17.927 4.10043 18.1856 3.82019 18.5189 3.62068C18.8518 3.42151 19.2302 3.32175 19.6539 3.32175C20.2641 3.32175 20.7468 3.51793 21.1018 3.91027C21.4568 4.30294 21.6343 4.83241 21.6343 5.49899C21.6343 5.7482 21.5222 5.87265 21.298 5.87265ZM20.4993 4.35432C20.3031 4.12679 20.0275 4.01336 19.6725 4.01336C19.3112 4.01336 19.0216 4.12846 18.8038 4.35899C18.5856 4.58953 18.4548 4.91348 18.4114 5.33084H20.8216C20.8029 4.90714 20.6954 4.58185 20.4993 4.35432ZM18.5516 12.9622C18.8939 12.763 19.2862 12.6632 19.7286 12.6632C19.9651 12.6632 20.2033 12.6976 20.4432 12.766C20.6688 12.8285 20.8842 12.9229 21.0831 13.0462C21.2823 13.1834 21.382 13.3422 21.382 13.523C21.382 13.6287 21.354 13.7175 21.298 13.7892C21.2734 13.823 21.241 13.8504 21.2036 13.8691C21.1662 13.8878 21.1249 13.8972 21.0831 13.8967C21.0271 13.8967 20.971 13.8826 20.915 13.8546C20.8412 13.8163 20.7695 13.7742 20.7001 13.7285C20.5629 13.6386 20.4175 13.562 20.2657 13.4996C20.1316 13.4466 19.9715 13.4202 19.7846 13.4202C19.3609 13.4202 19.0327 13.5634 18.7991 13.8499C18.5656 14.1365 18.4488 14.5352 18.4488 15.046C18.4488 15.5571 18.5639 15.9511 18.7944 16.2284C19.0246 16.5056 19.3516 16.644 19.7753 16.644C19.9621 16.644 20.1269 16.616 20.2704 16.56C20.4234 16.499 20.5703 16.4239 20.7095 16.3358C20.7778 16.2921 20.8462 16.2547 20.915 16.2237C20.9834 16.1923 21.0457 16.177 21.1018 16.177C21.1889 16.177 21.2606 16.2127 21.3166 16.2844C21.3727 16.3558 21.4007 16.4449 21.4007 16.5506C21.4007 16.638 21.3774 16.7174 21.3307 16.7888C21.284 16.8606 21.2046 16.9336 21.0925 17.0087C20.8913 17.1394 20.6705 17.2372 20.4386 17.2983C20.1921 17.3664 19.9376 17.4009 19.6819 17.401C19.2395 17.401 18.8518 17.3046 18.5189 17.1115C18.1856 16.9183 17.927 16.644 17.7435 16.2891C17.5597 15.9338 17.468 15.5227 17.468 15.0553C17.468 14.5822 17.5627 14.1645 17.7529 13.8032C17.933 13.4522 18.2103 13.1602 18.5516 12.9622ZM24.7727 10.7009C24.9098 10.7009 25.0219 10.7396 25.109 10.8176C25.1964 10.8954 25.2397 11.0091 25.2397 11.1586V16.9336C25.2397 17.0834 25.1964 17.1955 25.109 17.2703C25.0219 17.345 24.9098 17.3824 24.7727 17.3824C24.6359 17.3824 24.5221 17.345 24.4317 17.2703C24.3413 17.1955 24.2962 17.0834 24.2962 16.9336V11.1586C24.2962 11.0091 24.3413 10.8954 24.4317 10.8176C24.5221 10.7396 24.6359 10.7009 24.7727 10.7009ZM49.2564 12.6819C49.3935 12.6819 49.5056 12.721 49.5927 12.7987C49.6801 12.8768 49.7234 12.9902 49.7234 13.1397V16.9336C49.7234 17.0834 49.6801 17.1955 49.5927 17.2703C49.5056 17.345 49.3935 17.3824 49.2564 17.3824C49.1196 17.3824 49.0058 17.345 48.9154 17.2703C48.8253 17.1955 48.78 17.0834 48.78 16.9336V13.1397C48.78 12.9902 48.8253 12.8768 48.9154 12.7987C49.0058 12.721 49.1196 12.6819 49.2564 12.6819Z" fill="#333333"/>
</svg>
