<svg viewBox="0 0 256 256" fill="none" xmlns="http://www.w3.org/2000/svg">
  <g clip-path="url(#a)">
    <rect width="256" height="256" rx="128" fill="#fff"/>
    <path fill="url(#b)" d="M0 0h256v256H0z"/>
    <path d="M119.553 12.592a14.133 14.133 0 0 1 17.198 0l6.958 5.334a14.131 14.131 0 0 0 12.251 2.437l8.47-2.266a14.134 14.134 0 0 1 15.889 6.58l4.388 7.593a14.135 14.135 0 0 0 10.385 6.94l8.694 1.148a14.134 14.134 0 0 1 12.16 12.161l1.148 8.692a14.131 14.131 0 0 0 6.94 10.387l7.591 4.386a14.133 14.133 0 0 1 6.581 15.889l-2.265 8.47a14.134 14.134 0 0 0 2.437 12.25l5.335 6.959a14.134 14.134 0 0 1 0 17.198l-5.335 6.959a14.134 14.134 0 0 0-2.437 12.25l2.265 8.471a14.133 14.133 0 0 1-6.58 15.888l-7.593 4.388a14.134 14.134 0 0 0-6.939 10.387l-1.148 8.691a14.134 14.134 0 0 1-12.161 12.162l-8.692 1.147a14.135 14.135 0 0 0-10.386 6.939l-4.389 7.593a14.133 14.133 0 0 1-15.887 6.581l-8.471-2.265a14.133 14.133 0 0 0-12.251 2.437l-6.958 5.334a14.131 14.131 0 0 1-17.198 0l-6.959-5.334a14.132 14.132 0 0 0-12.25-2.437l-8.47 2.265a14.133 14.133 0 0 1-15.89-6.582l-4.386-7.591a14.134 14.134 0 0 0-10.387-6.94l-8.691-1.147a14.134 14.134 0 0 1-12.162-12.161l-1.148-8.693a14.133 14.133 0 0 0-6.94-10.385l-7.592-4.389a14.132 14.132 0 0 1-6.58-15.888l2.265-8.47a14.135 14.135 0 0 0-2.436-12.252l-5.335-6.958a14.133 14.133 0 0 1 0-17.198l5.335-6.958a14.133 14.133 0 0 0 2.436-12.251l-2.265-8.47a14.133 14.133 0 0 1 6.581-15.889l7.591-4.387a14.133 14.133 0 0 0 6.94-10.385l1.148-8.694a14.134 14.134 0 0 1 12.16-12.16l8.694-1.149a14.133 14.133 0 0 0 10.386-6.94l4.386-7.59a14.133 14.133 0 0 1 15.89-6.582l8.469 2.266a14.131 14.131 0 0 0 12.251-2.437l6.959-5.334Z" fill="#000"/>
    <path d="M174.869 147.243c0 15.44-12.072 26.529-32.144 30.178v11.791h-10.668v-10.668c-1.544.14-3.228.14-4.912.14h-2.387v10.528H113.95v-11.51c-13.054-1.965-25.687-6.597-35.512-13.194l5.755-13.476c8.141 5.755 17.967 10.809 29.757 13.054v-32.284c-21.195-3.93-33.126-10.667-33.126-26.388 0-15.44 11.931-25.266 33.126-27.793V66.954h10.808V77.06h.562c2.246 0 4.492.14 6.737.28V66.955h10.668v11.65c10.247 1.825 19.792 4.913 26.389 8.843l-4.351 13.896c-5.615-3.509-13.195-6.878-22.038-8.843v28.775c20.915 3.65 32.144 9.826 32.144 25.968ZM125.32 90.535h-.562v28.213c.843 0 1.685.141 2.667.281 1.544.141 3.088.421 4.632.562V90.816c-2.245-.14-4.491-.28-6.737-.28Zm-29.056 14.317c0 5.896 4.773 9.405 17.686 12.072V91.237c-12.913 1.825-17.686 7.159-17.686 13.615Zm30.74 60.357c1.685 0 3.369 0 5.053-.14v-30.74l-3.649-.421c-1.263-.14-2.386-.281-3.65-.421v31.722h2.246Zm15.721-1.544c10.668-2.386 16.704-7.72 16.704-15.58 0-6.738-4.773-9.826-16.704-12.072v27.652Z" fill="#fff"/>
  </g>
  <defs>
    <radialGradient id="b" cx="0" cy="0" r="1" gradientTransform="matrix(189.867 356.741 -140.693 236.659 46.933 -123.615)" gradientUnits="userSpaceOnUse">
      <stop offset=".381" stop-color="#3700FF"/>
      <stop offset="1" stop-color="#FF7FFE"/>
    </radialGradient>
    <clipPath id="a">
      <rect width="256" height="256" rx="128" fill="#fff"/>
    </clipPath>
  </defs>
</svg>
