<svg width="1510" height="369" viewBox="0 0 1510 369" fill="none" xmlns="http://www.w3.org/2000/svg">
<g clip-path="url(#clip0_130_6115)">
<mask id="mask0_130_6115" style="mask-type:luminance" maskUnits="userSpaceOnUse" x="0" y="0" width="1510" height="369">
<path d="M1510 0H0V369H1510V0Z" fill="white"/>
</mask>
<g mask="url(#mask0_130_6115)">
<mask id="mask1_130_6115" style="mask-type:luminance" maskUnits="userSpaceOnUse" x="-63" y="-31" width="1573" height="421">
<path d="M1510 -31H-63V390H1510V-31Z" fill="white"/>
</mask>
<g mask="url(#mask1_130_6115)">
<path d="M464.824 253.583C451 253.583 438.883 250.852 428.472 245.391C418.232 239.759 410.296 231.908 404.664 221.839C399.032 211.77 396.216 200.079 396.216 186.767C396.216 173.796 398.947 162.362 404.408 152.463C409.869 142.564 417.549 134.884 427.448 129.423C437.347 123.791 448.781 120.975 461.752 120.975C482.232 120.975 498.275 126.863 509.88 138.639C521.485 150.415 527.288 166.714 527.288 187.535C527.288 189.754 527.117 193.082 526.776 197.519H425.656C426.851 206.735 431.032 214.074 438.2 219.535C445.368 224.996 454.499 227.727 465.592 227.727C472.76 227.727 479.672 226.532 486.328 224.143C492.984 221.754 498.189 218.596 501.944 214.671L519.352 231.567C513.037 238.394 505.016 243.77 495.288 247.695C485.731 251.62 475.576 253.583 464.824 253.583ZM499.384 175.247C498.36 166.202 494.52 159.034 487.864 153.743C481.379 148.452 472.931 145.807 462.52 145.807C452.621 145.807 444.515 148.367 438.2 153.487C431.885 158.607 427.789 165.86 425.912 175.247H499.384ZM600.78 253.071C579.447 253.071 560.417 246.842 543.692 234.383L557.004 213.647C562.636 218.084 569.377 221.583 577.228 224.143C585.079 226.532 593.185 227.727 601.548 227.727C609.569 227.727 615.799 226.532 620.236 224.143C624.673 221.583 626.892 217.999 626.892 213.391C626.892 208.954 624.673 205.54 620.236 203.151C615.969 200.762 608.972 199.055 599.244 198.031C582.689 196.495 569.889 192.399 560.844 185.743C551.969 178.916 547.532 170.042 547.532 159.119C547.532 151.439 549.836 144.698 554.444 138.895C559.052 133.092 565.452 128.57 573.644 125.327C582.007 122.084 591.564 120.463 602.316 120.463C621.772 120.463 638.497 125.327 652.492 135.055L639.948 155.535C628.684 148.367 616.567 144.783 603.596 144.783C594.551 144.783 587.639 146.063 582.86 148.623C578.081 151.012 575.692 154.511 575.692 159.119C575.692 163.215 577.655 166.458 581.58 168.847C585.676 171.066 592.332 172.687 601.548 173.711C620.321 175.759 633.975 179.94 642.508 186.255C651.041 192.57 655.308 201.7 655.308 213.647C655.308 221.498 653.004 228.41 648.396 234.383C643.959 240.186 637.559 244.794 629.196 248.207C621.004 251.45 611.532 253.071 600.78 253.071ZM680.908 123.535H706.508L706.764 140.431C711.713 134.287 718.199 129.508 726.22 126.095C734.241 122.511 743.116 120.719 752.844 120.719C765.132 120.719 775.969 123.535 785.356 129.167C794.913 134.628 802.337 142.394 807.628 152.463C812.919 162.532 815.564 173.967 815.564 186.767C815.564 199.567 812.919 211.002 807.628 221.071C802.337 231.14 794.913 238.991 785.356 244.623C775.969 250.084 765.132 252.815 752.844 252.815C744.14 252.815 735.948 251.364 728.268 248.463C720.759 245.562 714.529 241.466 709.58 236.175V308.367H680.908V123.535ZM709.58 186.767C709.58 198.543 713.164 208.186 720.332 215.695C727.671 223.034 736.972 226.703 748.236 226.703C759.671 226.703 768.972 223.034 776.14 215.695C783.308 208.186 786.892 198.543 786.892 186.767C786.892 174.991 783.308 165.434 776.14 158.095C768.972 150.586 759.671 146.831 748.236 146.831C736.972 146.831 727.671 150.586 720.332 158.095C713.164 165.434 709.58 174.991 709.58 186.767ZM902.574 253.583C888.75 253.583 876.633 250.852 866.222 245.391C855.982 239.759 848.046 231.908 842.414 221.839C836.782 211.77 833.966 200.079 833.966 186.767C833.966 173.796 836.697 162.362 842.158 152.463C847.619 142.564 855.299 134.884 865.198 129.423C875.097 123.791 886.531 120.975 899.502 120.975C919.982 120.975 936.025 126.863 947.63 138.639C959.24 150.415 965.04 166.714 965.04 187.535C965.04 189.754 964.87 193.082 964.53 197.519H863.406C864.601 206.735 868.782 214.074 875.95 219.535C883.118 224.996 892.249 227.727 903.342 227.727C910.51 227.727 917.422 226.532 924.078 224.143C930.734 221.754 935.939 218.596 939.69 214.671L957.1 231.567C950.79 238.394 942.77 243.77 933.038 247.695C923.481 251.62 913.326 253.583 902.574 253.583ZM937.13 175.247C936.11 166.202 932.27 159.034 925.614 153.743C919.129 148.452 910.681 145.807 900.27 145.807C890.371 145.807 882.265 148.367 875.95 153.487C869.635 158.607 865.539 165.86 863.662 175.247H937.13ZM990.66 123.535H1016.26L1016.51 140.175C1027.27 127.375 1041.86 120.975 1060.29 120.975C1071.04 120.975 1080.51 123.45 1088.71 128.399C1096.9 133.178 1103.21 140.004 1107.65 148.879C1112.09 157.754 1114.31 168.164 1114.31 180.111V249.999H1085.63V181.903C1085.63 170.81 1082.9 162.191 1077.44 156.047C1071.98 149.903 1064.47 146.831 1054.91 146.831C1044.5 146.831 1035.97 150.33 1029.31 157.327C1022.66 164.154 1019.33 172.858 1019.33 183.439V249.999H990.66V123.535ZM1200.45 251.791C1187.14 251.791 1176.9 247.951 1169.73 240.271C1162.57 232.591 1158.98 221.327 1158.98 206.479V147.855H1135.17V123.535H1158.98V90.5115L1187.4 87.4395V123.535H1223.75V147.855H1187.4V206.479C1187.4 212.964 1188.85 217.914 1191.75 221.327C1194.82 224.74 1199.26 226.447 1205.06 226.447C1210.18 226.447 1215.47 225.167 1220.93 222.607L1228.87 245.647C1223.92 247.866 1219.23 249.402 1214.79 250.255C1210.52 251.279 1205.74 251.791 1200.45 251.791ZM1309.55 252.815C1296.07 252.815 1284.21 249.999 1273.97 244.367C1263.73 238.564 1255.79 230.714 1250.16 220.815C1244.7 210.746 1241.97 199.396 1241.97 186.767C1241.97 174.138 1244.7 162.874 1250.16 152.975C1255.79 142.906 1263.73 135.055 1273.97 129.423C1284.21 123.62 1296.07 120.719 1309.55 120.719C1322.86 120.719 1334.64 123.62 1344.88 129.423C1355.12 135.055 1362.97 142.906 1368.43 152.975C1374.06 162.874 1376.88 174.138 1376.88 186.767C1376.88 199.396 1374.06 210.746 1368.43 220.815C1362.97 230.714 1355.12 238.564 1344.88 244.367C1334.64 249.999 1322.86 252.815 1309.55 252.815ZM1270.64 186.767C1270.64 194.106 1272.26 200.847 1275.5 206.991C1278.74 212.964 1283.27 217.743 1289.07 221.327C1295.04 224.911 1301.87 226.703 1309.55 226.703C1317.23 226.703 1323.97 224.911 1329.77 221.327C1335.75 217.743 1340.27 212.964 1343.34 206.991C1346.58 200.847 1348.21 194.106 1348.21 186.767C1348.21 179.428 1346.58 172.772 1343.34 166.799C1340.27 160.655 1335.75 155.791 1329.77 152.207C1323.97 148.623 1317.23 146.831 1309.55 146.831C1301.87 146.831 1295.04 148.623 1289.07 152.207C1283.27 155.791 1278.74 160.655 1275.5 166.799C1272.26 172.772 1270.64 179.428 1270.64 186.767Z" fill="#282828"/>
<path d="M169.5 352C262.008 352 337 277.008 337 184.5C337 91.9923 262.008 17 169.5 17C76.9923 17 2 91.9923 2 184.5C2 277.008 76.9923 352 169.5 352Z" fill="url(#paint0_linear_130_6115)"/>
<g filter="url(#filter0_d_130_6115)">
<path d="M213.273 74.7056L111.961 119.214C103.706 122.84 99.954 132.471 103.582 140.724C107.209 148.978 116.842 152.729 125.098 149.102L226.409 104.594C234.664 100.968 238.416 91.3366 234.788 83.0826C231.161 74.8296 221.528 71.0786 213.273 74.7056Z" fill="white"/>
</g>
<g filter="url(#filter1_d_130_6115)">
<path d="M203.067 147.944L161.459 166.222C153.204 169.849 149.452 179.48 153.08 187.733C156.707 195.987 166.34 199.737 174.596 196.111L216.203 177.832C224.458 174.205 228.21 164.575 224.582 156.321C220.955 148.068 211.322 144.317 203.067 147.944Z" fill="white"/>
</g>
<g filter="url(#filter2_d_130_6115)">
<path d="M133.538 196.222C129.911 187.969 120.278 184.218 112.023 187.844C103.767 191.471 100.016 201.102 103.643 209.355C107.271 217.609 116.904 221.359 125.159 217.733C133.414 214.106 137.166 204.475 133.538 196.222Z" fill="white"/>
</g>
<g filter="url(#filter3_d_130_6115)">
<path d="M213.394 217.551L112.082 262.058C103.827 265.685 100.075 275.316 103.703 283.569C107.33 291.823 116.963 295.573 125.219 291.947L226.53 247.439C234.785 243.812 238.537 234.182 234.909 225.928C231.282 217.675 221.649 213.924 213.394 217.551Z" fill="white"/>
</g>
</g>
</g>
</g>
<defs>
<filter id="filter0_d_130_6115" x="98.1982" y="73.3223" width="141.974" height="85.1621" filterUnits="userSpaceOnUse" color-interpolation-filters="sRGB">
<feFlood flood-opacity="0" result="BackgroundImageFix"/>
<feColorMatrix in="SourceAlpha" type="matrix" values="0 0 0 0 0 0 0 0 0 0 0 0 0 0 0 0 0 0 127 0" result="hardAlpha"/>
<feOffset dy="4"/>
<feGaussianBlur stdDeviation="2"/>
<feComposite in2="hardAlpha" operator="out"/>
<feColorMatrix type="matrix" values="0 0 0 0 0 0 0 0 0 0 0 0 0 0 0 0 0 0 0.25 0"/>
<feBlend mode="normal" in2="BackgroundImageFix" result="effect1_dropShadow_130_6115"/>
<feBlend mode="normal" in="SourceGraphic" in2="effect1_dropShadow_130_6115" result="shape"/>
</filter>
<filter id="filter1_d_130_6115" x="147.696" y="146.561" width="82.2695" height="58.9336" filterUnits="userSpaceOnUse" color-interpolation-filters="sRGB">
<feFlood flood-opacity="0" result="BackgroundImageFix"/>
<feColorMatrix in="SourceAlpha" type="matrix" values="0 0 0 0 0 0 0 0 0 0 0 0 0 0 0 0 0 0 127 0" result="hardAlpha"/>
<feOffset dy="4"/>
<feGaussianBlur stdDeviation="2"/>
<feComposite in2="hardAlpha" operator="out"/>
<feColorMatrix type="matrix" values="0 0 0 0 0 0 0 0 0 0 0 0 0 0 0 0 0 0 0.25 0"/>
<feBlend mode="normal" in2="BackgroundImageFix" result="effect1_dropShadow_130_6115"/>
<feBlend mode="normal" in="SourceGraphic" in2="effect1_dropShadow_130_6115" result="shape"/>
</filter>
<filter id="filter2_d_130_6115" x="98.2598" y="186.461" width="40.6621" height="40.6543" filterUnits="userSpaceOnUse" color-interpolation-filters="sRGB">
<feFlood flood-opacity="0" result="BackgroundImageFix"/>
<feColorMatrix in="SourceAlpha" type="matrix" values="0 0 0 0 0 0 0 0 0 0 0 0 0 0 0 0 0 0 127 0" result="hardAlpha"/>
<feOffset dy="4"/>
<feGaussianBlur stdDeviation="2"/>
<feComposite in2="hardAlpha" operator="out"/>
<feColorMatrix type="matrix" values="0 0 0 0 0 0 0 0 0 0 0 0 0 0 0 0 0 0 0.25 0"/>
<feBlend mode="normal" in2="BackgroundImageFix" result="effect1_dropShadow_130_6115"/>
<feBlend mode="normal" in="SourceGraphic" in2="effect1_dropShadow_130_6115" result="shape"/>
</filter>
<filter id="filter3_d_130_6115" x="98.3193" y="216.168" width="141.974" height="85.1621" filterUnits="userSpaceOnUse" color-interpolation-filters="sRGB">
<feFlood flood-opacity="0" result="BackgroundImageFix"/>
<feColorMatrix in="SourceAlpha" type="matrix" values="0 0 0 0 0 0 0 0 0 0 0 0 0 0 0 0 0 0 127 0" result="hardAlpha"/>
<feOffset dy="4"/>
<feGaussianBlur stdDeviation="2"/>
<feComposite in2="hardAlpha" operator="out"/>
<feColorMatrix type="matrix" values="0 0 0 0 0 0 0 0 0 0 0 0 0 0 0 0 0 0 0.25 0"/>
<feBlend mode="normal" in2="BackgroundImageFix" result="effect1_dropShadow_130_6115"/>
<feBlend mode="normal" in="SourceGraphic" in2="effect1_dropShadow_130_6115" result="shape"/>
</filter>
<linearGradient id="paint0_linear_130_6115" x1="35" y1="273" x2="304" y2="101.5" gradientUnits="userSpaceOnUse">
<stop stop-color="#2E5AD0"/>
<stop offset="1" stop-color="#4076F4"/>
</linearGradient>
<clipPath id="clip0_130_6115">
<rect width="1510" height="369" fill="white"/>
</clipPath>
</defs>
</svg>
