<svg width="1510" height="369" viewBox="0 0 1510 369" fill="none" xmlns="http://www.w3.org/2000/svg">
<g clip-path="url(#clip0_96_2)">
<mask id="mask0_96_2" style="mask-type:luminance" maskUnits="userSpaceOnUse" x="-63" y="-31" width="1573" height="421">
<path d="M1510 -31H-63V390H1510V-31Z" fill="white"/>
</mask>
<g mask="url(#mask0_96_2)">
<path d="M464.824 253.584C451 253.584 438.883 250.853 428.472 245.392C418.232 239.76 410.296 231.909 404.664 221.84C399.032 211.771 396.216 200.08 396.216 186.768C396.216 173.797 398.947 162.363 404.408 152.464C409.869 142.565 417.549 134.885 427.448 129.424C437.347 123.792 448.781 120.976 461.752 120.976C482.232 120.976 498.275 126.864 509.88 138.64C521.485 150.416 527.288 166.715 527.288 187.536C527.288 189.755 527.117 193.083 526.776 197.52H425.656C426.851 206.736 431.032 214.075 438.2 219.536C445.368 224.997 454.499 227.728 465.592 227.728C472.76 227.728 479.672 226.533 486.328 224.144C492.984 221.755 498.189 218.597 501.944 214.672L519.352 231.568C513.037 238.395 505.016 243.771 495.288 247.696C485.731 251.621 475.576 253.584 464.824 253.584ZM499.384 175.248C498.36 166.203 494.52 159.035 487.864 153.744C481.379 148.453 472.931 145.808 462.52 145.808C452.621 145.808 444.515 148.368 438.2 153.488C431.885 158.608 427.789 165.861 425.912 175.248H499.384ZM600.78 253.072C579.447 253.072 560.417 246.843 543.692 234.384L557.004 213.648C562.636 218.085 569.377 221.584 577.228 224.144C585.079 226.533 593.185 227.728 601.548 227.728C609.569 227.728 615.799 226.533 620.236 224.144C624.673 221.584 626.892 218 626.892 213.392C626.892 208.955 624.673 205.541 620.236 203.152C615.969 200.763 608.972 199.056 599.244 198.032C582.689 196.496 569.889 192.4 560.844 185.744C551.969 178.917 547.532 170.043 547.532 159.12C547.532 151.44 549.836 144.699 554.444 138.896C559.052 133.093 565.452 128.571 573.644 125.328C582.007 122.085 591.564 120.464 602.316 120.464C621.772 120.464 638.497 125.328 652.492 135.056L639.948 155.536C628.684 148.368 616.567 144.784 603.596 144.784C594.551 144.784 587.639 146.064 582.86 148.624C578.081 151.013 575.692 154.512 575.692 159.12C575.692 163.216 577.655 166.459 581.58 168.848C585.676 171.067 592.332 172.688 601.548 173.712C620.321 175.76 633.975 179.941 642.508 186.256C651.041 192.571 655.308 201.701 655.308 213.648C655.308 221.499 653.004 228.411 648.396 234.384C643.959 240.187 637.559 244.795 629.196 248.208C621.004 251.451 611.532 253.072 600.78 253.072ZM680.908 123.536H706.508L706.764 140.432C711.713 134.288 718.199 129.509 726.22 126.096C734.241 122.512 743.116 120.72 752.844 120.72C765.132 120.72 775.969 123.536 785.356 129.168C794.913 134.629 802.337 142.395 807.628 152.464C812.919 162.533 815.564 173.968 815.564 186.768C815.564 199.568 812.919 211.003 807.628 221.072C802.337 231.141 794.913 238.992 785.356 244.624C775.969 250.085 765.132 252.816 752.844 252.816C744.14 252.816 735.948 251.365 728.268 248.464C720.759 245.563 714.529 241.467 709.58 236.176V308.368H680.908V123.536ZM709.58 186.768C709.58 198.544 713.164 208.187 720.332 215.696C727.671 223.035 736.972 226.704 748.236 226.704C759.671 226.704 768.972 223.035 776.14 215.696C783.308 208.187 786.892 198.544 786.892 186.768C786.892 174.992 783.308 165.435 776.14 158.096C768.972 150.587 759.671 146.832 748.236 146.832C736.972 146.832 727.671 150.587 720.332 158.096C713.164 165.435 709.58 174.992 709.58 186.768ZM902.574 253.584C888.75 253.584 876.633 250.853 866.222 245.392C855.982 239.76 848.046 231.909 842.414 221.84C836.782 211.771 833.966 200.08 833.966 186.768C833.966 173.797 836.697 162.363 842.158 152.464C847.619 142.565 855.299 134.885 865.198 129.424C875.097 123.792 886.531 120.976 899.502 120.976C919.982 120.976 936.025 126.864 947.63 138.64C959.24 150.416 965.04 166.715 965.04 187.536C965.04 189.755 964.87 193.083 964.53 197.52H863.406C864.601 206.736 868.782 214.075 875.95 219.536C883.118 224.997 892.249 227.728 903.342 227.728C910.51 227.728 917.422 226.533 924.078 224.144C930.734 221.755 935.939 218.597 939.69 214.672L957.1 231.568C950.79 238.395 942.77 243.771 933.038 247.696C923.481 251.621 913.326 253.584 902.574 253.584ZM937.13 175.248C936.11 166.203 932.27 159.035 925.614 153.744C919.129 148.453 910.681 145.808 900.27 145.808C890.371 145.808 882.265 148.368 875.95 153.488C869.635 158.608 865.539 165.861 863.662 175.248H937.13ZM990.66 123.536H1016.26L1016.51 140.176C1027.27 127.376 1041.86 120.976 1060.29 120.976C1071.04 120.976 1080.51 123.451 1088.71 128.4C1096.9 133.179 1103.21 140.005 1107.65 148.88C1112.09 157.755 1114.31 168.165 1114.31 180.112V250H1085.63V181.904C1085.63 170.811 1082.9 162.192 1077.44 156.048C1071.98 149.904 1064.47 146.832 1054.91 146.832C1044.5 146.832 1035.97 150.331 1029.31 157.328C1022.66 164.155 1019.33 172.859 1019.33 183.44V250H990.66V123.536ZM1200.45 251.792C1187.14 251.792 1176.9 247.952 1169.73 240.272C1162.57 232.592 1158.98 221.328 1158.98 206.48V147.856H1135.17V123.536H1158.98V90.512L1187.4 87.44V123.536H1223.75V147.856H1187.4V206.48C1187.4 212.965 1188.85 217.915 1191.75 221.328C1194.82 224.741 1199.26 226.448 1205.06 226.448C1210.18 226.448 1215.47 225.168 1220.93 222.608L1228.87 245.648C1223.92 247.867 1219.23 249.403 1214.79 250.256C1210.52 251.28 1205.74 251.792 1200.45 251.792ZM1309.55 252.816C1296.07 252.816 1284.21 250 1273.97 244.368C1263.73 238.565 1255.79 230.715 1250.16 220.816C1244.7 210.747 1241.97 199.397 1241.97 186.768C1241.97 174.139 1244.7 162.875 1250.16 152.976C1255.79 142.907 1263.73 135.056 1273.97 129.424C1284.21 123.621 1296.07 120.72 1309.55 120.72C1322.86 120.72 1334.64 123.621 1344.88 129.424C1355.12 135.056 1362.97 142.907 1368.43 152.976C1374.06 162.875 1376.88 174.139 1376.88 186.768C1376.88 199.397 1374.06 210.747 1368.43 220.816C1362.97 230.715 1355.12 238.565 1344.88 244.368C1334.64 250 1322.86 252.816 1309.55 252.816ZM1270.64 186.768C1270.64 194.107 1272.26 200.848 1275.5 206.992C1278.74 212.965 1283.27 217.744 1289.07 221.328C1295.04 224.912 1301.87 226.704 1309.55 226.704C1317.23 226.704 1323.97 224.912 1329.77 221.328C1335.75 217.744 1340.27 212.965 1343.34 206.992C1346.58 200.848 1348.21 194.107 1348.21 186.768C1348.21 179.429 1346.58 172.773 1343.34 166.8C1340.27 160.656 1335.75 155.792 1329.77 152.208C1323.97 148.624 1317.23 146.832 1309.55 146.832C1301.87 146.832 1295.04 148.624 1289.07 152.208C1283.27 155.792 1278.74 160.656 1275.5 166.8C1272.26 172.773 1270.64 179.429 1270.64 186.768Z" fill="white"/>
<path d="M169.5 352C262.008 352 337 277.008 337 184.5C337 91.9923 262.008 17 169.5 17C76.9923 17 2 91.9923 2 184.5C2 277.008 76.9923 352 169.5 352Z" fill="url(#paint0_linear_96_2)"/>
<g filter="url(#filter0_d_96_2)">
<path d="M213.273 74.705L111.961 119.213C103.706 122.839 99.954 132.47 103.582 140.723C107.209 148.977 116.842 152.728 125.098 149.101L226.409 104.593C234.664 100.967 238.416 91.336 234.788 83.082C231.161 74.829 221.528 71.078 213.273 74.705Z" fill="white"/>
</g>
<g filter="url(#filter1_d_96_2)">
<path d="M203.067 147.943L161.459 166.221C153.204 169.848 149.452 179.479 153.08 187.732C156.707 195.986 166.34 199.736 174.596 196.11L216.203 177.831C224.458 174.204 228.21 164.574 224.582 156.32C220.955 148.067 211.322 144.316 203.067 147.943Z" fill="white"/>
</g>
<g filter="url(#filter2_d_96_2)">
<path d="M133.538 196.221C129.911 187.968 120.278 184.217 112.023 187.843C103.767 191.47 100.016 201.101 103.643 209.354C107.271 217.608 116.904 221.358 125.159 217.732C133.414 214.105 137.166 204.474 133.538 196.221Z" fill="white"/>
</g>
<g filter="url(#filter3_d_96_2)">
<path d="M213.394 217.552L112.082 262.059C103.827 265.686 100.075 275.317 103.703 283.57C107.33 291.824 116.963 295.574 125.219 291.948L226.53 247.44C234.785 243.813 238.537 234.183 234.909 225.929C231.282 217.676 221.649 213.925 213.394 217.552Z" fill="white"/>
</g>
</g>
</g>
<defs>
<filter id="filter0_d_96_2" x="98.1982" y="73.3216" width="141.974" height="85.1627" filterUnits="userSpaceOnUse" color-interpolation-filters="sRGB">
<feFlood flood-opacity="0" result="BackgroundImageFix"/>
<feColorMatrix in="SourceAlpha" type="matrix" values="0 0 0 0 0 0 0 0 0 0 0 0 0 0 0 0 0 0 127 0" result="hardAlpha"/>
<feOffset dy="4"/>
<feGaussianBlur stdDeviation="2"/>
<feComposite in2="hardAlpha" operator="out"/>
<feColorMatrix type="matrix" values="0 0 0 0 0 0 0 0 0 0 0 0 0 0 0 0 0 0 0.25 0"/>
<feBlend mode="normal" in2="BackgroundImageFix" result="effect1_dropShadow_96_2"/>
<feBlend mode="normal" in="SourceGraphic" in2="effect1_dropShadow_96_2" result="shape"/>
</filter>
<filter id="filter1_d_96_2" x="147.696" y="146.56" width="82.2695" height="58.9333" filterUnits="userSpaceOnUse" color-interpolation-filters="sRGB">
<feFlood flood-opacity="0" result="BackgroundImageFix"/>
<feColorMatrix in="SourceAlpha" type="matrix" values="0 0 0 0 0 0 0 0 0 0 0 0 0 0 0 0 0 0 127 0" result="hardAlpha"/>
<feOffset dy="4"/>
<feGaussianBlur stdDeviation="2"/>
<feComposite in2="hardAlpha" operator="out"/>
<feColorMatrix type="matrix" values="0 0 0 0 0 0 0 0 0 0 0 0 0 0 0 0 0 0 0.25 0"/>
<feBlend mode="normal" in2="BackgroundImageFix" result="effect1_dropShadow_96_2"/>
<feBlend mode="normal" in="SourceGraphic" in2="effect1_dropShadow_96_2" result="shape"/>
</filter>
<filter id="filter2_d_96_2" x="98.2598" y="186.46" width="40.6621" height="40.6547" filterUnits="userSpaceOnUse" color-interpolation-filters="sRGB">
<feFlood flood-opacity="0" result="BackgroundImageFix"/>
<feColorMatrix in="SourceAlpha" type="matrix" values="0 0 0 0 0 0 0 0 0 0 0 0 0 0 0 0 0 0 127 0" result="hardAlpha"/>
<feOffset dy="4"/>
<feGaussianBlur stdDeviation="2"/>
<feComposite in2="hardAlpha" operator="out"/>
<feColorMatrix type="matrix" values="0 0 0 0 0 0 0 0 0 0 0 0 0 0 0 0 0 0 0.25 0"/>
<feBlend mode="normal" in2="BackgroundImageFix" result="effect1_dropShadow_96_2"/>
<feBlend mode="normal" in="SourceGraphic" in2="effect1_dropShadow_96_2" result="shape"/>
</filter>
<filter id="filter3_d_96_2" x="98.3193" y="216.169" width="141.974" height="85.1623" filterUnits="userSpaceOnUse" color-interpolation-filters="sRGB">
<feFlood flood-opacity="0" result="BackgroundImageFix"/>
<feColorMatrix in="SourceAlpha" type="matrix" values="0 0 0 0 0 0 0 0 0 0 0 0 0 0 0 0 0 0 127 0" result="hardAlpha"/>
<feOffset dy="4"/>
<feGaussianBlur stdDeviation="2"/>
<feComposite in2="hardAlpha" operator="out"/>
<feColorMatrix type="matrix" values="0 0 0 0 0 0 0 0 0 0 0 0 0 0 0 0 0 0 0.25 0"/>
<feBlend mode="normal" in2="BackgroundImageFix" result="effect1_dropShadow_96_2"/>
<feBlend mode="normal" in="SourceGraphic" in2="effect1_dropShadow_96_2" result="shape"/>
</filter>
<linearGradient id="paint0_linear_96_2" x1="35" y1="273" x2="304" y2="101.5" gradientUnits="userSpaceOnUse">
<stop stop-color="#2E5AD0"/>
<stop offset="1" stop-color="#4076F4"/>
</linearGradient>
<clipPath id="clip0_96_2">
<rect width="1510" height="369" fill="white"/>
</clipPath>
</defs>
</svg>
