<?xml version="1.0" encoding="utf-8"?>
<svg version="1.1" id="Layer_1" xmlns="http://www.w3.org/2000/svg" x="0px" y="0px"
  viewBox="0 0 594.1 594.1" style="enable-background:new 0 0 594.1 594.1;" xml:space="preserve">
<style type="text/css">
  .st0{fill:#FFFFFF;stroke:#FFFFFF;stroke-width:3.71;stroke-miterlimit:10;}
  .st1{fill:#FFFFFF;}
  .st2{fill:#E8FA92;}
</style>
<circle cx="297" cy="297.1" r="297.1"/>
<path class="st0" d="M296.4,138.4c-3.5,0-6.9,0.1-10.3,0.4c5,8.4,8.6,17.6,10.7,27.1h0.2c79.5,0,143.7,66.5,139.9,146.8
  c-3.4,71.7-61.5,129.9-133.2,133.2C223.4,449.7,157,385.5,157,306c0-9.8,1-19.6,3.1-29.3c1.2-5.4-1-11-5.6-14.1l-0.6-0.4
  c-6.2-4.1-14.5-2.5-18.6,3.6c-1,1.5-1.7,3.1-2,4.8c-3.2,15-4.4,30.4-3.4,45.7c5.1,84.6,74,152.7,158.7,157
  c102.1,5.1,185.8-81.7,175.3-184.8C455.1,203.4,382.1,138.1,296.4,138.4z"/>
<path class="st1" d="M207.8,266.7c-45.3,0-82-36.7-82-82s36.7-82,82-82s82,36.7,82,82l0,0C289.8,229.9,253.1,266.6,207.8,266.7z
   M207.8,127c-31.9,0-57.7,25.8-57.7,57.7s25.8,57.7,57.7,57.7s57.7-25.8,57.7-57.7l0,0C265.5,152.8,239.7,127,207.8,127z"/>
<circle class="st1" cx="208.2" cy="183.3" r="16.8"/>
<circle class="st2" cx="297" cy="306" r="48.5"/>
</svg>
