<svg id="Layer_1" data-name="Layer 1" xmlns="http://www.w3.org/2000/svg" viewBox="0 0 773 120">
  <defs>
    <style>
      .cls-1{fill:#5672b7}.cls-1,.cls-2,.cls-3{stroke-width:0}.cls-2{fill:#181826}.cls-3{fill:#576eb2}
    </style>
  </defs>
  <path class="cls-1" d="m76.21 0 43.24 75.67c1.49-5.29 2.3-10.88 2.3-16.66 0-28.37-19.35-52.21-45.54-59.02Z"/>
  <path class="cls-3" d="m76.21 0 43.24 75.67c1.49-5.29 2.3-10.88 2.3-16.66 0-28.37-19.35-52.21-45.54-59.02Z"/>
  <path class="cls-1" d="M60.87 120c17.15 0 32.64-7.11 43.71-18.54H17.17C28.23 112.89 43.73 120 60.88 120Z"/>
  <path class="cls-3" d="M60.87 120c17.15 0 32.64-7.11 43.71-18.54H17.17C28.23 112.89 43.73 120 60.88 120Z"/>
  <path class="cls-1" d="M0 59.03c0 5.78.8 11.36 2.3 16.66L45.54 0C19.34 6.82 0 30.66 0 59.03Z"/>
  <path class="cls-3" d="M0 59.03c0 5.78.8 11.36 2.3 16.66L45.54 0C19.34 6.82 0 30.66 0 59.03Z"/>
  <path class="cls-1" d="M89.8 75.57 60.87 24.94 31.94 75.57H89.8Z"/>
  <path class="cls-3" d="M89.8 75.57 60.87 24.94 31.94 75.57H89.8Z"/>
  <path class="cls-2" d="M190.9 8.76h17.27l32.48 85.31h-18.59l-6.11-17.3h-33.8l-6.11 17.3h-17.49L190.9 8.76ZM187.05 63h23.98l-11.98-33.66L187.07 63h-.02ZM284.12 86.76c-3.66 6.54-10.63 10-18.53 10-15.22 0-21.38-9.4-21.38-25.1V31.21h16.3v36.88c0 8.56 1.3 15.47 10.39 15.47 10.85 0 13.23-8.92 13.23-19.03V31.21h16.3v64h-16.3v-8.45h-.02ZM314.75 13.25H331V30.5h13.17v11.22H331v32.86c0 6.49 2.24 7.8 8.01 7.8h4.95v11.7h-11.9c-14.6 0-17.31-4.48-17.31-17.14V41.72h-8.95V30.5h8.95V13.25ZM345.96 63.59c0-22.32 15.94-33.28 32.13-33.28s32.13 10.98 32.13 33.28-15.94 33.17-32.13 33.17-32.13-10.98-32.13-33.17Zm16.67 0c0 13.57 6.43 20.42 15.48 20.42s15.47-6.84 15.47-20.42-6.43-20.53-15.47-20.53-15.48 6.97-15.48 20.53ZM434.67 39.93c3.69-6.37 10.58-9.62 18.56-9.62 15.58 0 22.14 8.82 22.14 24.46v39.3h-16.42V58.24c0-7.99-1.78-15.08-11.07-15.08-10.82 0-13.2 8.58-13.2 18.44v32.47h-16.42V31.7h16.42v8.23ZM482.5 63.59c0-22.32 15.94-33.28 32.13-33.28s32.13 10.98 32.13 33.28-15.94 33.17-32.13 33.17-32.13-10.98-32.13-33.17Zm16.66 0c0 13.57 6.43 20.42 15.47 20.42s15.47-6.84 15.47-20.42-6.43-20.53-15.47-20.53-15.47 6.97-15.47 20.53ZM633.09 57.75c0-6.84-.6-14.6-10.16-14.6-11 0-12.66 8.93-12.66 18.44v32.47h-16.33V57.77c0-6.84-.6-14.6-10.16-14.6-11 0-12.66 8.93-12.66 18.44v32.47h-16.33V31.7h16.33v8.23c3.67-6.15 10.05-9.62 17.74-9.62 10.87 0 15.6 5.57 18.09 10.2 5.08-6.95 11.35-10.2 20.92-10.2 15.97 0 21.52 9.75 21.52 24.46v39.3h-16.33V57.78l.02-.04ZM658.82 115.62v-12.54h6.03c5.34 0 7.66 0 10.46-6.63l.69-1.77-23.93-63.46h17.53l14.17 45.94 14.52-45.94h16.25l-22.87 61.8c-7.44 19.78-10.57 22.61-26.13 22.61h-6.73ZM756.09 51.01c-1.3-5.3-6-9.05-13.52-9.05-6 0-10.24 2.24-10.24 6.11 0 3.41 2.46 6 8.46 7.29l8.46 1.89c12.59 2.81 23.3 6 23.3 19.05s-13.06 20.46-27.41 20.46c-15.52 0-27.3-8-28.82-22.46h15.65c.94 6.11 5.19 10.7 13.65 10.7 7.06 0 11.41-2.59 11.41-7.18s-4.82-6.46-10.35-7.76l-9.41-2c-11.89-2.46-19.76-7.41-19.76-18.94s12.24-18.81 25.87-18.81 25.65 6.11 27.87 20.7h-15.17Z"/>
</svg>
