<svg id="Layer_1" data-name="Layer 1" xmlns="http://www.w3.org/2000/svg" viewBox="0 0 139 137">
  <defs>
    <style>
      .cls-1{fill:#fff;stroke-width:0}
    </style>
  </defs>
  <path class="cls-1" d="m87.01 0 49.37 86.39A69.707 69.707 0 0 0 139 67.38C139 35 116.92 7.78 87.01 0Z"/>
  <path class="cls-1" d="m87.01 0 49.37 86.39A69.707 69.707 0 0 0 139 67.38C139 35 116.92 7.78 87.01 0ZM69.5 137c19.58 0 37.26-8.12 49.9-21.16H19.6C32.23 128.89 49.92 137 69.5 137Z"/>
  <path class="cls-1" d="M69.5 137c19.58 0 37.26-8.12 49.9-21.16H19.6C32.23 128.89 49.92 137 69.5 137ZM0 67.39c0 6.59.92 12.97 2.62 19.01L51.99 0C22.09 7.78 0 35 0 67.39Z"/>
  <path class="cls-1" d="M0 67.39c0 6.59.92 12.97 2.62 19.01L51.99 0C22.09 7.78 0 35 0 67.39ZM102.53 86.28 69.5 28.48l-33.02 57.8h66.05Z"/>
  <path class="cls-1" d="M102.53 86.28 69.5 28.48l-33.02 57.8h66.05Z"/>
</svg>
