<svg xmlns="http://www.w3.org/2000/svg" viewBox="0 0 20 20" fill="none">
  <path d="m4.138 15.861 2.777-2.776m6.478-6.479L16.17 3.83M8.149 8.149c-.432.432-2.499 2.499-2.597 2.731a1.01 1.01 0 0 0-.067.607c.048.216.22.389.566.734L7.78 13.95c.345.345.518.518.734.566.19.042.403.019.607-.067.232-.098.448-.314.88-.746l1.851-1.851M8.149 8.149l3.702 3.702M8.149 8.149 10 6.298c.432-.432.648-.648.88-.746a1.01 1.01 0 0 1 .607-.067c.216.048.389.22.734.566L13.95 7.78c.345.345.518.518.566.734.042.19.019.403-.067.607-.098.232-.314.448-.746.88l-1.851 1.851M8.149 8.149l-.617-.617m4.319 4.319.617.617m-4.16-9.276L7.99 2m8.819 9.691 1.192.32M2 7.989l1.192.32M12.011 18l-.32-1.192" stroke="currentColor" stroke-width="2" stroke-linecap="round" stroke-linejoin="round"/>
</svg>
