<svg viewBox="-1 -1 20 20" fill="none" xmlns="http://www.w3.org/2000/svg">
  <path fill-rule="evenodd" clip-rule="evenodd" d="M7.24.661a.964.964 0 1 0-1.831.607l.426 1.285a.964.964 0 0 0 1.83-.606L7.24.661Zm10.478.985A.964.964 0 0 0 16.354.283l-3.495 3.495-.204-.204a2.893 2.893 0 0 0-4.091 0L6.75 5.388A.964.964 0 0 0 5.388 6.75L3.575 8.562a2.893 2.893 0 0 0 0 4.091l.204.204-3.496 3.497a.964.964 0 1 0 1.364 1.363l3.496-3.496.205.205a2.893 2.893 0 0 0 4.091 0l1.813-1.813a.964.964 0 0 0 1.361-1.361l1.815-1.814a2.893 2.893 0 0 0 0-4.091l-.206-.206 3.496-3.495ZM11.25 9.887l1.813-1.813a.964.964 0 0 0 0-1.364l-.839-.839a.996.996 0 0 1-.096-.096l-.838-.838a.964.964 0 0 0-1.363 0L8.114 6.751l3.137 3.136Zm-4.5-1.773L4.939 9.926a.964.964 0 0 0 0 1.364l.864.864a1.193 1.193 0 0 1 .044.043l.865.866a.964.964 0 0 0 1.363 0l1.812-1.812-3.136-3.137Zm4.196 6.72a.964.964 0 0 1 1.218.613l.426 1.285a.964.964 0 1 1-1.83.607l-.426-1.286a.964.964 0 0 1 .612-1.219Zm3.888-3.887a.964.964 0 0 1 1.218-.612l1.286.425a.964.964 0 1 1-.607 1.831l-1.285-.426a.964.964 0 0 1-.612-1.218ZM1.268 5.409a.964.964 0 1 0-.607 1.83l1.286.426a.964.964 0 1 0 .606-1.83l-1.285-.426Z" fill="currentColor"/>
</svg>
