<svg viewBox="0 -1 19 20" fill="none" xmlns="http://www.w3.org/2000/svg">
  <path fill-rule="evenodd" clip-rule="evenodd" d="M18.394.273a.931.931 0 0 1 0 1.316l-1.825 1.825.194.194h.001a2.795 2.795 0 0 1 0 3.956l-1.747 1.747a.931.931 0 0 1-1.354 1.278l-.609-.61-.011-.01-.012-.012L8.71 5.635l-.011-.011-.011-.012-.61-.609A.931.931 0 0 1 9.355 3.65l1.747-1.747a2.794 2.794 0 0 1 3.956 0l.195.194L17.077.273a.931.931 0 0 1 1.317 0Zm-2.945 5.973L13.7 7.994l-3.028-3.029 1.748-1.747a.93.93 0 0 1 1.319 0l1.708 1.708a.93.93 0 0 1 0 1.32ZM6.563 8.304l-.893-.893a.931.931 0 0 0-1.354 1.278L2.57 10.435l-.001.001a2.793 2.793 0 0 0 0 3.956l.195.194-1.825 1.825a.931.931 0 0 0 1.317 1.316l1.824-1.824.194.194a2.793 2.793 0 0 0 3.956 0h.001l1.747-1.747a.931.931 0 0 0 1.278-1.353l-.894-.893.894-.894a.931.931 0 0 0-1.317-1.317l-.893.894L7.88 9.62l.893-.894A.931.931 0 1 0 7.456 7.41l-.893.893Zm-.655 1.978-.003-.003-.004-.003-.27-.27-1.747 1.748a.931.931 0 0 0 0 1.32l.845.844.01.01.01.01.843.843.001.002a.93.93 0 0 0 1.319 0l1.748-1.748-2.752-2.753Z" fill="currentColor"/>
</svg>
