<svg xmlns="http://www.w3.org/2000/svg" viewBox="0 0 20 20" fill="none">
  <path d="m2 18 2.845-2.845m1.933-4.51 1.289-1.29m1.288 3.867 1.29-1.29m4.51-7.087L18 2M6.133 10c-.45.451-2.61 2.61-2.712 2.852-.09.214-.114.436-.07.634.05.226.23.406.591.767l1.805 1.804c.36.361.541.542.767.592.198.044.42.02.633-.07.243-.103.468-.328.92-.78L10 13.867M6.133 10 10 13.866M6.133 10l-.644-.644m4.51 4.51.645.645M13.866 10 15.8 8.067c.451-.451.677-.677.78-.92.089-.213.114-.435.07-.633-.05-.226-.23-.406-.592-.767l-1.804-1.805c-.361-.36-.542-.54-.767-.591a1.055 1.055 0 0 0-.634.07c-.242.103-.468.328-.919.78L10 6.132M13.866 10 10 6.133M13.866 10l.645.644M10 6.134l-.645-.645" stroke="currentColor" stroke-width="2" stroke-linecap="round" stroke-linejoin="round"/>
</svg>
