<svg xmlns="http://www.w3.org/2000/svg" viewBox="0 0 481 155" width="481" height="155">
	<style>
		tspan { white-space:pre }
		.shp0 { fill: #171717 } 
		.shp1 { fill: #005397 } 
	</style>
	<g id="Layer">
		<g id="_x31__4_">
			<g id="_x31__5_">
				<g id="Layer">
					<path id="Layer" fill-rule="evenodd" class="shp0" d="M461.06 39.75C467.17 43.38 472.03 48.25 475.64 54.5C479.26 60.75 481 67.63 481 75.38L481 108.37C481 110.5 480.25 112.37 478.88 113.75C477.39 115.25 475.64 115.87 473.52 115.87C471.4 115.87 469.54 115.13 468.17 113.75C466.67 112.25 466.05 110.5 466.05 108.37L466.05 102.87C462.56 107.12 458.45 110.37 453.46 112.75C448.48 115.13 443.24 116.25 437.51 116.25C430.53 116.25 424.05 114.5 418.32 111C412.59 107.5 408.1 102.62 404.86 96.25C401.62 90 399.88 83.12 399.88 75.37C399.88 67.75 401.62 60.75 405.11 54.5C408.6 48.25 413.46 43.37 419.82 39.75C426.05 36.12 432.9 34.37 440.5 34.37C448.1 34.38 454.83 36.13 461.06 39.75ZM453.83 99.25C457.82 96.88 460.94 93.63 463.18 89.38C465.42 85.13 466.55 80.5 466.55 75.25C466.55 70 465.42 65.25 463.18 61.13C460.94 56.88 457.82 53.5 453.83 51.13C449.85 48.75 445.49 47.5 440.5 47.5C435.52 47.5 431.16 48.75 427.17 51.13C423.18 53.5 420.07 56.88 417.82 61.13C415.58 65.38 414.33 70.13 414.33 75.25C414.33 80.38 415.45 85.13 417.82 89.38C420.19 93.62 423.3 96.88 427.17 99.25C431.16 101.63 435.52 102.88 440.5 102.88C445.36 103 449.85 101.75 453.83 99.25Z" />
				</g>
				<g id="Layer">
					<path id="Layer" fill-rule="evenodd" class="shp0" d="M72.03 81.13C70.78 82.38 69.16 82.88 67.29 82.88L13.21 82.88C14.33 89.5 17.2 94.88 22.18 99C27.17 103 33.27 105.13 40.5 105.13C43.36 105.13 46.36 104.63 49.35 103.5C52.46 102.38 54.95 101.25 56.95 99.63C58.19 98.5 59.81 98.13 61.68 98.13C63.55 98.13 64.92 98.63 65.92 99.63C67.54 101.13 68.54 102.75 68.54 104.5C68.54 106.13 67.79 107.63 66.29 108.75C63.05 111.38 59.07 113.38 54.21 115C49.35 116.63 44.86 117.5 40.5 117.5C32.65 117.5 25.79 115.88 19.56 112.5C13.33 109.13 8.6 104.5 5.23 98.38C1.74 92.38 0 85.63 0 77.88C0 70.38 1.62 63.5 4.86 57.5C8.1 51.5 12.71 46.75 18.57 43.38C24.42 40 31.03 38.38 38.38 38.38C45.73 38.38 51.96 40 57.32 43.25C62.68 46.5 66.67 51 69.53 56.75C72.4 62.5 73.77 69.25 73.77 76.75C73.89 78.5 73.27 80 72.03 81.13ZM21.56 56.25C17.2 60.13 14.58 65.13 13.33 71.5L60.81 71.5C59.94 65.13 57.57 60 53.71 56.25C49.84 52.38 44.74 50.5 38.5 50.5C31.53 50.63 25.79 52.5 21.56 56.25Z" />
					<path id="Layer" fill-rule="evenodd" class="shp0" d="M161.99 7.38C163.24 8.63 163.99 10.5 163.99 12.63L163.99 77.75C163.99 85.13 162.24 91.88 158.75 98C155.27 104 150.53 108.75 144.67 112.25C138.69 115.75 132.09 117.5 124.86 117.5C117.51 117.5 110.9 115.75 104.8 112.25C98.82 108.75 94.08 104 90.72 98C87.23 92 85.61 85.25 85.61 77.75C85.61 70.25 87.23 63.63 90.34 57.5C93.58 51.5 97.94 46.75 103.43 43.38C109.03 39.88 115.14 38.25 121.99 38.25C127.48 38.25 132.59 39.38 137.32 41.75C142.06 44 146.04 47.25 149.41 51.38L149.41 12.75C149.41 10.5 150.16 8.75 151.53 7.5C152.9 6.25 154.64 5.5 156.76 5.5C158.88 5.5 160.62 6 161.99 7.38ZM137.7 101.13C141.56 98.88 144.55 95.63 146.67 91.5C148.91 87.5 149.91 82.88 149.91 77.75C149.91 72.63 148.79 68.13 146.67 64.13C144.42 60.13 141.43 56.88 137.7 54.5C133.83 52.25 129.47 51 124.74 51C120 51 115.76 52.13 111.78 54.5C107.91 56.75 104.92 60 102.68 64.13C100.44 68.13 99.32 72.75 99.32 77.75C99.32 82.75 100.44 87.38 102.68 91.5C104.92 95.5 107.91 98.75 111.78 101.13C115.64 103.38 120 104.63 124.74 104.63C129.6 104.63 133.96 103.5 137.7 101.13Z" />
					<path id="Layer" fill-rule="evenodd" class="shp0" d="M257.7 81.13C256.45 82.38 254.83 82.88 252.96 82.88L199 82.88C200.13 89.5 202.99 94.88 207.98 99C212.96 103 219.07 105.13 226.29 105.13C229.16 105.13 232.15 104.63 235.27 103.5C238.38 102.38 240.87 101.25 242.87 99.63C244.11 98.5 245.73 98.13 247.6 98.13C249.47 98.13 250.84 98.63 251.84 99.63C253.46 101.13 254.46 102.75 254.46 104.5C254.46 106.13 253.71 107.63 252.21 108.75C248.97 111.38 244.99 113.38 240.13 115C235.27 116.63 230.78 117.5 226.42 117.5C218.57 117.5 211.71 115.88 205.48 112.5C199.25 109.13 194.52 104.5 191.03 98.38C187.54 92.38 185.8 85.63 185.8 77.88C185.8 70.25 187.42 63.38 190.66 57.38C193.9 51.38 198.51 46.63 204.36 43.25C210.22 39.88 216.82 38.25 224.18 38.25C231.53 38.25 237.76 39.88 243.12 43.13C248.48 46.38 252.46 50.88 255.33 56.63C258.19 62.38 259.57 69.13 259.57 76.63C259.57 78.5 258.82 80 257.7 81.13ZM207.23 56.25C202.87 60.13 200.25 65.13 199 71.5L246.48 71.5C245.61 65.13 243.24 60 239.38 56.25C235.52 52.38 230.41 50.5 224.18 50.5C217.2 50.63 211.47 52.5 207.23 56.25Z" />
				</g>
				<g id="Layer">
					<path id="Layer" class="shp1" d="M390.16 0L359.13 0L359.01 0L317.88 57.5L358.88 114.88L358.88 114.88L389.91 114.88L349.04 57.5L390.16 0Z" />
					<path id="Layer" class="shp1" d="M320 17L307.79 0L307.79 0L276.76 0L304.67 39L320 17Z" />
					<path id="Layer" class="shp1" d="M277.01 114.88L308.04 114.88L308.04 114.88L321.75 95.63L305.8 74.38L277.01 114.88Z" />
				</g>
			</g>
		</g>
		<g id="Layer">
			<path id="Layer" class="shp0" d="M108.54 152.88C108.66 153 108.79 153.38 108.79 153.63C108.79 153.87 108.66 154.13 108.54 154.37C108.41 154.62 108.16 154.63 107.79 154.63L107.17 154.63C106.04 154.63 105.05 154.37 104.05 153.75C103.18 153.25 102.43 152.5 101.93 151.5C101.43 150.5 101.18 149.37 101.18 148.25L101.18 138.75L98.82 138.75C98.57 138.75 98.32 138.63 98.19 138.5C98.07 138.38 97.94 138.13 97.94 137.75C97.94 137.38 98.07 137.25 98.19 137C98.32 136.75 98.57 136.75 98.82 136.75L101.18 136.75L101.18 131.25C101.18 131 101.31 130.75 101.43 130.5C101.56 130.38 101.81 130.25 102.18 130.25C102.43 130.25 102.68 130.38 102.93 130.5C103.05 130.63 103.18 131 103.18 131.25L103.18 136.75L107.17 136.75C107.42 136.75 107.66 136.88 107.79 137C107.91 137.13 108.04 137.38 108.04 137.75C108.04 138.13 107.91 138.25 107.79 138.5C107.66 138.63 107.42 138.75 107.17 138.75L103.18 138.75L103.18 148.13C103.18 149.38 103.55 150.5 104.3 151.25C105.05 152.13 105.92 152.5 107.17 152.5L107.91 152.5C108.04 152.5 108.29 152.75 108.54 152.88Z" />
			<path id="Layer" class="shp0" d="M124.36 137C125.48 137.75 126.48 138.63 127.1 139.88C127.85 141.13 128.1 142.75 128.1 144.5L128.1 153.5C128.1 153.75 127.98 154 127.85 154.25C127.73 154.37 127.48 154.5 127.1 154.5C126.85 154.5 126.61 154.38 126.36 154.25C126.23 154.13 126.11 153.75 126.11 153.5L126.11 144.5C126.11 142.38 125.61 140.75 124.49 139.63C123.37 138.5 121.99 138 120.25 138C119.13 138 118.13 138.25 117.26 138.75C116.39 139.25 115.64 139.88 115.14 140.62C114.64 141.37 114.39 142.25 114.39 143.25L114.39 153.5C114.39 153.75 114.27 154 114.14 154.25C114.02 154.37 113.77 154.5 113.4 154.5C113.15 154.5 112.9 154.37 112.65 154.25C112.52 154.12 112.4 153.75 112.4 153.5L112.4 129.25C112.4 129 112.52 128.75 112.65 128.5C112.77 128.38 113.02 128.25 113.4 128.25C113.77 128.25 113.89 128.37 114.14 128.5C114.27 128.62 114.39 129 114.39 129.25L114.39 139C115.14 138.12 115.89 137.37 116.89 136.75C117.88 136.12 119 136 120.13 136C121.87 136 123.12 136.38 124.36 137Z" />
			<path id="Layer" fill-rule="evenodd" class="shp0" d="M144.42 137.25C145.55 138 146.54 139.13 147.17 140.5C147.91 141.87 148.16 143.38 148.16 145.13C148.16 145.38 148.04 145.63 147.91 145.88C147.79 146.12 147.54 146.13 147.29 146.13L134.33 146.13C134.46 147.38 134.7 148.63 135.2 149.63C135.83 150.75 136.57 151.5 137.45 152.13C138.44 152.75 139.56 153 140.69 153C141.43 153 142.31 152.88 143.18 152.5C144.05 152.25 144.67 151.75 145.05 151.25C145.3 151.13 145.55 151 145.67 151C145.92 151 146.04 151.12 146.17 151.25C146.42 151.5 146.42 151.75 146.42 152C146.42 152.25 146.29 152.5 146.17 152.62C145.42 153.25 144.67 153.87 143.55 154.25C142.43 154.75 141.43 154.87 140.44 154.87C138.82 154.87 137.32 154.5 136.08 153.62C134.83 152.75 133.83 151.75 133.08 150.37C132.34 148.87 131.96 147.25 131.96 145.5C131.96 143.62 132.21 142 132.96 140.62C133.71 139.12 134.58 138.12 135.83 137.37C137.07 136.62 138.44 136.12 139.94 136.12C141.81 136.13 143.18 136.5 144.42 137.25ZM136.32 139.63C135.2 140.75 134.58 142.25 134.33 144.25L146.29 144.25C146.17 142.38 145.55 140.75 144.42 139.63C143.3 138.5 141.93 137.88 140.31 137.88C138.69 137.88 137.45 138.5 136.32 139.63Z" />
			<path id="Layer" fill-rule="evenodd" class="shp0" d="M174.21 137.25C175.45 138.13 176.57 139.13 177.32 140.63C178.07 142.13 178.44 143.63 178.44 145.38C178.44 147.13 178.07 148.75 177.32 150.25C176.57 151.75 175.58 152.75 174.21 153.63C172.96 154.5 171.47 154.88 169.72 154.88C168.1 154.88 166.61 154.5 165.36 153.63C164.11 152.75 162.99 151.75 162.24 150.38C161.5 149 161.12 147.38 161.12 145.75L161.12 129.5C161.12 129.25 161.25 129 161.37 128.75C161.5 128.63 161.75 128.5 162.12 128.5C162.37 128.5 162.62 128.63 162.87 128.75C162.99 128.88 163.12 129.25 163.12 129.5L163.12 140C163.86 138.88 164.74 137.88 165.86 137.13C166.98 136.38 168.35 136.13 169.85 136.13C171.34 136 172.84 136.5 174.21 137.25ZM173.21 152C174.21 151.25 175.08 150.5 175.7 149.38C176.33 148.25 176.57 146.88 176.57 145.5C176.57 144.13 176.33 142.88 175.7 141.63C175.08 140.5 174.33 139.5 173.21 139C172.21 138.38 171.09 138 169.72 138C168.35 138 167.23 138.25 166.23 139C165.23 139.63 164.36 140.5 163.74 141.63C163.12 142.75 162.87 144.13 162.87 145.5C162.87 146.88 163.12 148.13 163.74 149.38C164.36 150.5 165.11 151.5 166.23 152C167.23 152.75 168.35 153 169.72 153C171.09 153 172.21 152.63 173.21 152Z" />
			<path id="Layer" class="shp0" d="M197.88 136.5C198.01 136.63 198.13 137 198.13 137.25L198.13 153.75C198.13 154 198.01 154.25 197.88 154.5C197.76 154.63 197.51 154.75 197.14 154.75C196.89 154.75 196.64 154.63 196.39 154.5C196.26 154.38 196.14 154 196.14 153.75L196.14 152C195.39 152.88 194.64 153.63 193.65 154.25C192.65 154.75 191.53 155 190.41 155C188.91 155 187.54 154.75 186.42 154C185.3 153.25 184.3 152.38 183.68 151.13C182.93 149.88 182.68 148.25 182.68 146.5L182.68 137.5C182.68 137.25 182.8 137 182.93 136.75C183.05 136.63 183.3 136.5 183.68 136.5C183.93 136.5 184.18 136.62 184.42 136.75C184.55 136.87 184.67 137.25 184.67 137.5L184.67 146.5C184.67 148.63 185.17 150.25 186.29 151.38C187.42 152.5 188.79 153 190.53 153C191.65 153 192.65 152.75 193.52 152.25C194.39 151.75 195.14 151.13 195.64 150.38C196.14 149.63 196.39 148.75 196.39 147.75L196.39 137.5C196.39 137.25 196.51 137 196.64 136.75C196.76 136.63 197.01 136.5 197.38 136.5C197.51 136.25 197.76 136.38 197.88 136.5Z" />
			<path id="Layer" class="shp0" d="M205.98 154.13C204.86 153.63 203.86 153 203.12 152C202.99 151.88 202.87 151.63 202.87 151.38C202.87 151.13 202.99 150.88 203.24 150.63C203.37 150.5 203.49 150.5 203.74 150.5C203.99 150.5 204.24 150.63 204.49 150.88C205.48 152.25 207.1 153 209.47 153C211.09 153 212.34 152.75 213.09 152.13C213.83 151.5 214.21 150.63 214.21 149.63C214.21 147.88 212.59 146.75 209.47 146.25C207.48 146 205.98 145.38 204.99 144.5C203.99 143.63 203.49 142.63 203.49 141.38C203.49 139.75 203.99 138.5 205.11 137.5C206.23 136.63 207.6 136.13 209.35 136.13C211.96 136.13 213.96 137.13 215.2 139.13C215.33 139.25 215.33 139.5 215.33 139.63C215.33 139.88 215.2 140.13 214.83 140.38C214.58 140.5 214.46 140.5 214.33 140.5C214.08 140.5 213.83 140.38 213.58 140C212.46 138.5 211.09 137.75 209.1 137.75C207.85 137.75 206.85 138 206.11 138.63C205.36 139.25 204.99 139.88 204.99 140.88C204.99 141.75 205.36 142.5 206.11 143C206.85 143.5 207.98 143.88 209.72 144.25C211.84 144.5 213.46 145.25 214.33 146.13C215.2 147 215.83 148.25 215.83 149.5C215.83 150.5 215.58 151.38 214.95 152.25C214.33 153 213.58 153.63 212.46 154.13C211.47 154.63 210.34 154.75 209.22 154.75C208.23 154.88 207.1 154.63 205.98 154.13Z" />
			<path id="Layer" class="shp0" d="M220.69 132C220.44 131.75 220.31 131.25 220.31 130.88C220.31 130.5 220.44 130 220.81 129.75C221.19 129.5 221.43 129.37 221.81 129.37C222.18 129.37 222.56 129.5 222.81 129.75C223.05 130 223.18 130.37 223.18 130.88C223.18 131.38 223.05 131.75 222.81 132C222.56 132.25 222.18 132.5 221.68 132.5C221.31 132.38 220.94 132.25 220.69 132ZM221.06 154.38C220.94 154.25 220.81 153.88 220.81 153.63L220.81 137.25C220.81 137 220.94 136.75 221.06 136.5C221.19 136.38 221.43 136.25 221.81 136.25C222.18 136.25 222.31 136.38 222.56 136.5C222.68 136.63 222.81 137 222.81 137.25L222.81 153.63C222.81 153.88 222.68 154.13 222.56 154.38C222.43 154.5 222.18 154.63 221.81 154.63C221.43 154.63 221.31 154.5 221.06 154.38Z" />
			<path id="Layer" class="shp0" d="M240.5 137C241.62 137.75 242.62 138.63 243.24 139.88C243.99 141.13 244.24 142.75 244.24 144.5L244.24 153.5C244.24 153.75 244.11 154 243.99 154.25C243.86 154.37 243.62 154.5 243.24 154.5C242.99 154.5 242.74 154.38 242.49 154.25C242.37 154.13 242.24 153.75 242.24 153.5L242.24 144.5C242.24 142.38 241.75 140.75 240.62 139.63C239.5 138.5 238.13 138 236.39 138C235.27 138 234.27 138.25 233.4 138.75C232.52 139.25 231.78 139.88 231.28 140.62C230.78 141.5 230.53 142.25 230.53 143.25L230.53 153.5C230.53 153.75 230.41 154 230.28 154.25C230.16 154.37 229.91 154.5 229.53 154.5C229.28 154.5 229.04 154.37 228.79 154.25C228.66 154.12 228.54 153.75 228.54 153.5L228.54 137.13C228.54 136.87 228.66 136.62 228.79 136.38C228.91 136.25 229.16 136.13 229.53 136.13C229.78 136.13 230.03 136.25 230.28 136.38C230.41 136.5 230.53 136.88 230.53 137.13L230.53 138.88C231.28 138 232.03 137.25 233.02 136.63C234.02 136.13 235.14 135.88 236.26 135.88C238.01 136 239.38 136.38 240.5 137Z" />
			<path id="Layer" fill-rule="evenodd" class="shp0" d="M260.56 137.25C261.68 138 262.68 139.13 263.3 140.5C264.05 141.87 264.3 143.38 264.3 145.13C264.3 145.38 264.18 145.63 264.05 145.88C263.93 146 263.68 146.13 263.43 146.13L250.47 146.13C250.59 147.38 250.84 148.63 251.34 149.63C251.96 150.75 252.71 151.5 253.58 152.13C254.58 152.75 255.7 153 256.82 153C257.57 153 258.44 152.88 259.32 152.5C260.19 152.25 260.81 151.75 261.19 151.25C261.43 151.13 261.68 151 261.81 151C262.06 151 262.18 151.12 262.31 151.25C262.56 151.5 262.56 151.75 262.56 152C262.56 152.25 262.43 152.5 262.31 152.62C261.56 153.25 260.81 153.87 259.69 154.25C258.57 154.75 257.57 154.87 256.57 154.87C254.95 154.87 253.46 154.5 252.21 153.62C250.97 152.75 249.97 151.75 249.22 150.37C248.48 148.87 248.1 147.25 248.1 145.5C248.1 143.62 248.35 142 249.1 140.62C249.85 139.12 250.72 138.12 251.96 137.37C253.21 136.62 254.58 136.12 256.08 136.12C258.07 136.13 259.44 136.5 260.56 137.25ZM252.59 139.63C251.47 140.75 250.84 142.25 250.59 144.25L262.56 144.25C262.43 142.38 261.81 140.75 260.69 139.63C259.57 138.5 258.19 137.88 256.57 137.88C254.95 137.88 253.58 138.5 252.59 139.63Z" />
			<path id="Layer" class="shp0" d="M270.53 154.13C269.41 153.63 268.41 153 267.67 152C267.54 151.88 267.42 151.63 267.42 151.38C267.42 151.13 267.54 150.88 267.79 150.63C267.91 150.5 268.04 150.5 268.29 150.5C268.54 150.5 268.79 150.63 269.04 150.88C270.03 152.25 271.65 153 274.02 153C275.64 153 276.89 152.75 277.63 152.13C278.38 151.5 278.76 150.63 278.76 149.63C278.76 147.88 277.14 146.75 274.02 146.25C272.03 146 270.53 145.38 269.53 144.5C268.54 143.63 268.04 142.63 268.04 141.38C268.04 139.75 268.54 138.5 269.66 137.5C270.78 136.63 272.15 136.13 273.9 136.13C276.51 136.13 278.51 137.13 279.75 139.13C279.88 139.25 279.88 139.5 279.88 139.63C279.88 139.88 279.75 140.13 279.38 140.38C279.13 140.5 279 140.5 278.88 140.5C278.63 140.5 278.38 140.38 278.13 140C277.01 138.5 275.64 137.75 273.65 137.75C272.4 137.75 271.4 138 270.66 138.63C269.91 139.25 269.53 139.88 269.53 140.88C269.53 141.75 269.91 142.5 270.66 143C271.4 143.5 272.53 143.88 274.27 144.25C276.39 144.5 278.01 145.25 278.88 146.13C279.75 147 280.38 148.25 280.38 149.5C280.38 150.5 280.13 151.38 279.5 152.25C278.88 153 278.13 153.63 277.01 154.13C276.01 154.63 274.89 154.75 273.77 154.75C272.9 154.88 271.65 154.63 270.53 154.13Z" />
			<path id="Layer" class="shp0" d="M287.1 154.13C285.98 153.63 284.99 153 284.24 152C284.11 151.88 283.99 151.63 283.99 151.38C283.99 151.13 284.11 150.88 284.36 150.63C284.49 150.5 284.61 150.5 284.86 150.5C285.11 150.5 285.36 150.63 285.61 150.88C286.61 152.25 288.23 153 290.59 153C292.21 153 293.46 152.75 294.21 152.13C294.96 151.5 295.33 150.63 295.33 149.63C295.33 147.88 293.71 146.75 290.59 146.25C288.6 146 287.1 145.38 286.11 144.5C285.11 143.63 284.61 142.63 284.61 141.38C284.61 139.75 285.11 138.5 286.23 137.5C287.35 136.63 288.72 136.13 290.47 136.13C293.09 136.13 295.08 137.13 296.33 139.13C296.45 139.25 296.45 139.5 296.45 139.63C296.45 139.88 296.33 140.13 295.95 140.38C295.7 140.5 295.58 140.5 295.45 140.5C295.2 140.5 294.96 140.38 294.71 140C293.58 138.5 292.21 137.75 290.22 137.75C288.97 137.75 287.98 138 287.23 138.63C286.48 139.25 286.11 139.88 286.11 140.88C286.11 141.75 286.48 142.5 287.23 143C287.98 143.5 289.1 143.88 290.84 144.25C292.96 144.5 294.58 145.25 295.45 146.13C296.33 147 296.95 148.25 296.95 149.5C296.95 150.5 296.7 151.38 296.08 152.25C295.45 153 294.71 153.63 293.58 154.13C292.59 154.63 291.47 154.75 290.34 154.75C289.35 154.88 288.23 154.63 287.1 154.13Z" />
			<path id="Layer" fill-rule="evenodd" class="shp0" d="M323.37 137.25C324.61 138.13 325.73 139.13 326.48 140.63C327.23 142.13 327.6 143.63 327.6 145.38C327.6 147.13 327.23 148.75 326.48 150.25C325.73 151.75 324.74 152.75 323.37 153.63C322 154.5 320.63 154.88 318.88 154.88C317.26 154.88 315.77 154.5 314.52 153.63C313.27 152.88 312.15 151.75 311.4 150.38C310.66 149 310.28 147.38 310.28 145.75L310.28 129.5C310.28 129.25 310.41 129 310.53 128.75C310.66 128.63 310.91 128.5 311.28 128.5C311.65 128.5 311.78 128.63 312.03 128.75C312.15 128.88 312.28 129.25 312.28 129.5L312.28 140C313.02 138.88 313.9 137.88 315.02 137.13C316.14 136.38 317.51 136.13 319.01 136.13C320.63 136 322 136.5 323.37 137.25ZM322.37 152C323.37 151.25 324.24 150.5 324.86 149.38C325.48 148.25 325.73 146.88 325.73 145.5C325.73 144.13 325.48 142.88 324.86 141.63C324.24 140.5 323.49 139.5 322.37 139C321.37 138.38 320.25 138 318.88 138C317.63 138 316.39 138.25 315.39 139C314.39 139.63 313.52 140.5 312.9 141.63C312.28 142.75 312.03 144.13 312.03 145.5C312.03 146.88 312.28 148.13 312.9 149.38C313.52 150.5 314.27 151.5 315.39 152C316.39 152.75 317.51 153 318.88 153C320.25 153 321.37 152.63 322.37 152Z" />
			<path id="Layer" class="shp0" d="M332.71 153.13C331.96 152.13 331.59 150.75 331.59 149.13L331.59 129.38C331.59 129.13 331.72 128.88 331.84 128.63C331.96 128.5 332.21 128.38 332.59 128.38C332.96 128.38 333.09 128.5 333.34 128.63C333.46 128.75 333.58 129.13 333.58 129.38L333.58 149.13C333.58 150.13 333.83 151 334.21 151.63C334.58 152.38 335.08 152.63 335.7 152.63L336.45 152.63C336.7 152.63 336.82 152.75 336.95 152.88C337.07 153 337.2 153.38 337.2 153.63C337.2 153.87 337.07 154.13 336.95 154.37C336.82 154.5 336.58 154.63 336.2 154.63L335.58 154.63C334.46 154.63 333.46 154.13 332.71 153.13Z" />
			<path id="Layer" fill-rule="evenodd" class="shp0" d="M343.55 153.63C342.31 152.75 341.19 151.75 340.44 150.25C339.69 148.75 339.32 147.25 339.32 145.5C339.32 143.75 339.69 142.13 340.44 140.63C341.19 139.13 342.18 138.13 343.55 137.25C344.8 136.38 346.3 136 348.04 136C349.66 136 351.15 136.38 352.4 137.25C353.65 138.13 354.77 139.13 355.52 140.63C356.26 142.13 356.64 143.75 356.64 145.5C356.64 147.25 356.26 148.88 355.52 150.25C354.77 151.75 353.77 152.75 352.4 153.63C351.15 154.5 349.66 154.88 348.04 154.88C346.3 154.88 344.8 154.38 343.55 153.63ZM351.4 152C352.4 151.38 353.27 150.5 353.9 149.38C354.52 148.25 354.77 146.88 354.77 145.5C354.77 144.13 354.52 142.88 353.9 141.63C353.27 140.5 352.53 139.5 351.4 139C350.41 138.25 349.29 138 347.92 138C346.54 138 345.42 138.25 344.43 139C343.43 139.75 342.56 140.5 341.93 141.63C341.31 142.75 341.06 144.13 341.06 145.5C341.06 146.88 341.31 148.13 341.93 149.38C342.56 150.5 343.3 151.5 344.43 152C345.42 152.63 346.54 153 347.92 153C349.29 153 350.28 152.63 351.4 152Z" />
			<path id="Layer" class="shp0" d="M364.24 153.63C362.99 152.75 362 151.75 361.25 150.25C360.5 148.75 360.13 147.25 360.13 145.5C360.13 143.75 360.38 142.13 361.12 140.63C361.87 139.13 362.74 138.13 363.99 137.25C365.24 136.38 366.61 136 367.98 136C369.22 136 370.47 136.25 371.59 136.88C372.71 137.38 373.71 138.25 374.46 139.38C374.58 139.63 374.71 139.75 374.71 139.88C374.71 140.13 374.58 140.38 374.21 140.63C374.08 140.75 373.96 140.88 373.71 140.88C373.46 140.88 373.21 140.75 372.96 140.5C371.72 138.88 369.97 138 367.98 138C366.73 138 365.73 138.25 364.74 138.88C363.87 139.5 363.12 140.38 362.62 141.5C362.12 142.63 361.87 144 361.87 145.38C361.87 146.75 362.12 148 362.74 149.25C363.24 150.38 363.99 151.38 364.99 151.87C365.98 152.5 367.11 152.87 368.35 152.87C370.22 152.87 371.59 152.37 372.71 151.25C372.84 151 373.09 151 373.34 151C373.58 151 373.71 151.12 373.83 151.25C374.08 151.5 374.08 151.75 374.08 152C374.08 152.25 373.96 152.5 373.83 152.62C373.09 153.37 372.34 153.87 371.34 154.25C370.35 154.62 369.35 154.87 368.23 154.87C366.98 154.88 365.61 154.38 364.24 153.63Z" />
			<path id="Layer" class="shp0" d="M392.28 153.75C392.28 154 392.15 154.25 392.03 154.5C391.78 154.63 391.65 154.75 391.53 154.75C391.28 154.75 391.03 154.63 390.91 154.38L384.18 145.5L381.31 148.38L381.31 153.75C381.31 154 381.19 154.25 381.06 154.5C380.94 154.75 380.69 154.75 380.31 154.75C380.06 154.75 379.82 154.63 379.57 154.5C379.44 154.38 379.32 154 379.32 153.75L379.32 129.5C379.32 129.25 379.44 129 379.57 128.75C379.69 128.63 379.94 128.5 380.31 128.5C380.56 128.5 380.81 128.63 381.06 128.75C381.19 128.88 381.31 129.25 381.31 129.5L381.31 146L390.91 136.5C391.16 136.38 391.28 136.25 391.53 136.25C391.78 136.25 391.9 136.38 392.15 136.5C392.28 136.75 392.4 136.88 392.4 137.13C392.4 137.38 392.28 137.63 392.15 137.75L385.67 144.25L392.4 153.25C392.28 153.38 392.28 153.5 392.28 153.75Z" />
			<path id="Layer" class="shp0" d="M399.63 153.63C398.38 152.75 397.39 151.75 396.64 150.25C395.89 148.75 395.52 147.25 395.52 145.5C395.52 143.75 395.77 142.13 396.51 140.63C397.26 139.13 398.13 138.13 399.38 137.25C400.63 136.38 402 136 403.37 136C404.61 136 405.86 136.25 406.98 136.88C408.1 137.38 409.1 138.25 409.85 139.38C409.97 139.63 410.1 139.75 410.1 139.88C410.1 140.13 409.97 140.38 409.6 140.63C409.47 140.75 409.35 140.88 409.1 140.88C408.85 140.88 408.6 140.75 408.35 140.5C407.11 138.88 405.36 138 403.37 138C402.12 138 401.12 138.25 400.13 138.88C399.25 139.5 398.51 140.38 398.01 141.5C397.51 142.63 397.26 144 397.26 145.38C397.26 146.75 397.51 148 398.13 149.25C398.63 150.38 399.38 151.38 400.38 151.87C401.37 152.37 402.49 152.87 403.74 152.87C405.61 152.87 406.98 152.37 408.1 151.25C408.23 151 408.48 151 408.73 151C408.97 151 409.1 151.12 409.22 151.25C409.47 151.5 409.47 151.75 409.47 152C409.47 152.25 409.35 152.5 409.22 152.62C408.48 153.37 407.73 153.87 406.73 154.25C405.73 154.62 404.74 154.87 403.62 154.87C402.37 154.88 400.87 154.38 399.63 153.63Z" />
			<path id="Layer" class="shp0" d="M426.42 137C427.54 137.75 428.54 138.63 429.16 139.88C429.91 141.13 430.16 142.75 430.16 144.5L430.16 153.5C430.16 153.75 430.03 154 429.91 154.25C429.78 154.37 429.54 154.5 429.16 154.5C428.91 154.5 428.66 154.38 428.41 154.25C428.29 154.13 428.16 153.75 428.16 153.5L428.16 144.5C428.16 142.38 427.67 140.75 426.54 139.63C425.42 138.5 424.05 138 422.31 138C421.19 138 420.19 138.25 419.32 138.75C418.45 139.25 417.7 139.88 417.2 140.62C416.7 141.37 416.45 142.25 416.45 143.25L416.45 153.5C416.45 153.75 416.33 154 416.2 154.25C416.08 154.37 415.83 154.5 415.45 154.5C415.21 154.5 414.96 154.37 414.71 154.25C414.58 154.12 414.46 153.75 414.46 153.5L414.46 129.25C414.46 129 414.58 128.75 414.71 128.5C414.83 128.38 415.08 128.25 415.45 128.25C415.83 128.25 415.95 128.37 416.2 128.5C416.33 128.62 416.45 129 416.45 129.25L416.45 139C417.2 138.12 417.95 137.37 418.94 136.75C419.94 136.12 421.06 136 422.18 136C423.93 136 425.3 136.38 426.42 137Z" />
			<path id="Layer" fill-rule="evenodd" class="shp0" d="M447.6 137.25C448.85 138.13 449.97 139.13 450.72 140.63C451.47 142.13 451.84 143.75 451.84 145.5L451.84 153.75C451.84 154 451.72 154.25 451.59 154.5C451.47 154.75 451.22 154.75 450.84 154.75C450.59 154.75 450.35 154.63 450.1 154.5C449.97 154.38 449.85 154 449.85 153.75L449.85 151.13C449.1 152.38 448.23 153.25 447.11 154C445.98 154.75 444.61 155 443.12 155C441.5 155 440 154.63 438.63 153.75C437.39 152.88 436.26 151.88 435.52 150.38C434.77 148.88 434.4 147.38 434.4 145.63C434.4 143.88 434.77 142.25 435.52 140.75C436.26 139.25 437.26 138.25 438.63 137.38C439.88 136.5 441.37 136.13 443.12 136.13C444.74 136 446.11 136.5 447.6 137.25ZM446.61 152C447.6 151.38 448.48 150.5 449.1 149.38C449.72 148.25 449.97 146.88 449.97 145.5C449.97 144.13 449.72 142.88 449.1 141.63C448.48 140.5 447.73 139.5 446.61 139C445.61 138.25 444.49 138 443.12 138C441.75 138 440.63 138.25 439.63 139C438.63 139.75 437.76 140.5 437.14 141.63C436.51 142.75 436.26 144.13 436.26 145.5C436.26 146.88 436.51 148.13 437.14 149.38C437.76 150.5 438.51 151.5 439.63 152C440.63 152.63 441.75 153 443.12 153C444.49 153 445.61 152.63 446.61 152Z" />
			<path id="Layer" class="shp0" d="M456.83 132C456.58 131.75 456.45 131.25 456.45 130.88C456.45 130.5 456.58 130 456.95 129.75C457.2 129.5 457.57 129.37 457.95 129.37C458.32 129.37 458.69 129.5 458.94 129.75C459.19 130 459.32 130.37 459.32 130.88C459.32 131.38 459.19 131.75 458.94 132C458.69 132.25 458.32 132.5 457.82 132.5C457.32 132.5 457.07 132.25 456.83 132ZM457.2 154.38C457.07 154.25 456.95 153.88 456.95 153.63L456.95 137.25C456.95 137 457.07 136.75 457.2 136.5C457.32 136.38 457.57 136.25 457.95 136.25C458.32 136.25 458.45 136.38 458.69 136.5C458.82 136.63 458.94 137 458.94 137.25L458.94 153.63C458.94 153.88 458.82 154.13 458.69 154.38C458.57 154.63 458.32 154.63 457.95 154.63C457.57 154.63 457.45 154.5 457.2 154.38Z" />
			<path id="Layer" class="shp0" d="M476.76 137C477.88 137.75 478.88 138.63 479.5 139.88C480.25 141.13 480.5 142.75 480.5 144.5L480.5 153.5C480.5 153.75 480.38 154 480.25 154.25C480.13 154.37 479.88 154.5 479.5 154.5C479.26 154.5 479.01 154.38 478.76 154.25C478.63 154.13 478.51 153.75 478.51 153.5L478.51 144.5C478.51 142.38 478.01 140.75 476.89 139.63C475.77 138.5 474.4 138 472.65 138C471.53 138 470.53 138.25 469.66 138.75C468.79 139.25 468.04 139.88 467.54 140.62C467.04 141.5 466.79 142.25 466.79 143.25L466.79 153.5C466.79 153.75 466.67 154 466.55 154.25C466.42 154.37 466.17 154.5 465.8 154.5C465.55 154.5 465.3 154.37 465.05 154.25C464.93 154.12 464.8 153.75 464.8 153.5L464.8 137.13C464.8 136.87 464.93 136.62 465.05 136.38C465.17 136.25 465.42 136.13 465.8 136.13C466.17 136.13 466.3 136.25 466.55 136.38C466.67 136.5 466.79 136.88 466.79 137.13L466.79 138.88C467.54 138 468.29 137.25 469.29 136.63C470.28 136 471.4 135.88 472.53 135.88C474.15 136 475.52 136.38 476.76 137Z" />
		</g>
	</g>
</svg>