<svg xmlns="http://www.w3.org/2000/svg" xmlns:xlink="http://www.w3.org/1999/xlink" version="1.1" id="Layer_1" x="0px" y="0px" viewBox="0 0 448 512" style="enable-background:new 0 0 448 512;" xml:space="preserve" width="448"  height="512" >
<style type="text/css">
	.st0{fill:#ADADAD;}
</style>
<path class="st0" d="M100.3,448H7.4V148.9h92.9V448z M53.8,108.1C24.1,108.1,0,83.5,0,53.8C0,24.1,24.1,0,53.8,0  c29.7,0,53.8,24.1,53.8,53.8C107.6,83.5,83.5,108.1,53.8,108.1z M447.9,448h-92.7V302.4c0-34.7-0.7-79.2-48.3-79.2  c-48.3,0-55.7,37.7-55.7,76.7V448h-92.8V148.9h89.1v40.8h1.3c12.4-23.5,42.7-48.3,87.9-48.3c94,0,111.3,61.9,111.3,142.3V448H447.9z  "/>
</svg>