<svg xmlns="http://www.w3.org/2000/svg" xmlns:xlink="http://www.w3.org/1999/xlink" version="1.1" id="Layer_1" x="0px" y="0px" viewBox="0 0 512 512" style="enable-background:new 0 0 512 512;" xml:space="preserve" width="512"  height="512" >
<style type="text/css">
	.st0{fill:#ADADAD;}
</style>
<path class="st0" d="M440.3,203.5c-15,0-28.2,6.2-37.9,15.9c-35.7-24.7-83.8-40.6-137.1-42.3L293,52.3l88.2,19.8  c0,21.6,17.6,39.2,39.2,39.2c22,0,39.7-18.1,39.7-39.7s-17.6-39.7-39.7-39.7c-15.4,0-28.7,9.3-35.3,22l-97.4-21.6  c-4.9-1.3-9.7,2.2-11,7.1L246.3,177c-52.9,2.2-100.5,18.1-136.3,42.8c-9.7-10.1-23.4-16.3-38.4-16.3c-55.6,0-73.8,74.6-22.9,100.1  c-1.8,7.9-2.6,16.3-2.6,24.7c0,83.8,94.4,151.7,210.3,151.7c116.4,0,210.8-67.9,210.8-151.7c0-8.4-0.9-17.2-3.1-25.1  C514,277.6,495.6,203.5,440.3,203.5L440.3,203.5z M129.4,308.9c0-22,17.6-39.7,39.7-39.7c21.6,0,39.2,17.6,39.2,39.7  c0,21.6-17.6,39.2-39.2,39.2C147.1,348.2,129.4,330.5,129.4,308.9z M343.7,402.4c-36.4,36.4-139.1,36.4-175.5,0c-4-3.5-4-9.7,0-13.7  c3.5-3.5,9.7-3.5,13.2,0c27.8,28.5,120,29,149,0c3.5-3.5,9.7-3.5,13.2,0C347.7,392.7,347.7,398.9,343.7,402.4L343.7,402.4z   M342.9,348.2c-21.6,0-39.2-17.6-39.2-39.2c0-22,17.6-39.7,39.2-39.7c22,0,39.7,17.6,39.7,39.7C382.5,330.5,364.9,348.2,342.9,348.2  z"/>
</svg>