<svg xmlns="http://www.w3.org/2000/svg" xmlns:xlink="http://www.w3.org/1999/xlink" version="1.1" id="Layer_1" x="0px" y="0px" viewBox="0 0 512 512" style="enable-background:new 0 0 512 512;" xml:space="preserve" width="512"  height="512" >
<style type="text/css">
	.st0{fill:#ADADAD;}
</style>
<path class="st0" d="M511.6,36.9l-64,415.1c-1.5,9.7-7.4,18.2-16,23c-4.8,2.7-10.3,4.1-15.7,4.1c-4.2,0-8.3-0.8-12.3-2.5  l-122.6-51.1l-50.9,76.3c-3.9,6.7-10.4,10.2-17.4,10.2c-11.5,0-20.8-9.3-20.8-20.8V395c0-7.1,2.4-14,6.7-19.6L416,96L122.3,360.3  L19.7,317.5c-11.3-4.7-18.9-15.3-19.6-28.4s5.5-23.7,16.1-29.8l448-255.1c10.7-6.1,23.9-5.5,34,1.4S513.5,24.7,511.6,36.9z"/>
</svg>