<svg viewBox="0 0 20 20" fill="none" xmlns="http://www.w3.org/2000/svg">
  <path fill-rule="evenodd" clip-rule="evenodd" d="M3 3.6v4.812c0 6.447 5.414 8.703 6.79 9.17 1.377-.467 6.791-2.723 6.791-9.17V3.6H3ZM1.506 2.091A1.714 1.714 0 0 1 2.708 1.6h14.165c.448 0 .88.175 1.202.491.322.317.506.75.506 1.206v5.115c0 8.015-6.912 10.66-8.246 11.097a1.647 1.647 0 0 1-1.089 0C7.912 19.072 1 16.427 1 8.412V3.297c0-.455.184-.889.506-1.206Z" fill="currentColor"/>
  <path fill-rule="evenodd" clip-rule="evenodd" d="M9.9 5.4a1.1 1.1 0 0 0-1.1 1.1v3.8a1.1 1.1 0 0 0 2.2 0V6.5a1.1 1.1 0 0 0-1.1-1.1Zm1.1 8.343a1.1 1.1 0 1 1-2.2 0 1.1 1.1 0 0 1 2.2 0Z" fill="currentColor"/>
</svg>
