<svg viewBox="0 0 20 20" fill="none" xmlns="http://www.w3.org/2000/svg">
  <path fill-rule="evenodd" clip-rule="evenodd" d="M3 8.412V3.6h13.581v4.812c0 6.447-5.414 8.703-6.79 9.17C8.414 17.115 3 14.86 3 8.412ZM2.708 1.6c-.448 0-.88.175-1.202.491-.322.317-.506.75-.506 1.206v5.115c0 8.015 6.912 10.66 8.246 11.097.352.123.737.123 1.089 0 1.334-.437 8.246-3.082 8.246-11.097V3.297c0-.455-.184-.889-.506-1.206a1.714 1.714 0 0 0-1.202-.491H2.708ZM14.37 8.208a1 1 0 1 0-1.369-1.458L8.49 10.986 6.58 9.191a1 1 0 1 0-1.37 1.457l2.594 2.44a1 1 0 0 0 1.37 0l5.196-4.88Z" fill="currentColor"/>
</svg>
