<svg version="1.0" xmlns="http://www.w3.org/2000/svg" viewBox="0 0 700 700">
  <path d="M149.7 1.1c-11.6 2.8-22.3 13.4-25.4 25-.3 1.3-.7 22-.9 45.9-.3 48.7-.5 50.7-7.3 59.6-4.5 6-10.2 10.1-17.2 12.3-4.6 1.5-9.6 1.8-35.4 1.9-16.5 0-32 .3-34.5.7-12.4 1.8-23.8 12-27.4 24.6C.1 176 0 200.6.2 425l.3 248.5 2.6 5.6c3.7 7.9 9 13.3 16.7 17.1l6.7 3.3h94l5.5-2.6c7.3-3.4 13.6-9.9 17.4-17.9l3.1-6.5.1-248c0-136.4.4-249.6.8-251.5 2.1-8.8 9.9-19.1 17.6-23 7.4-3.8 11.6-4.2 42.5-4.2 33.9.1 38.7-.6 47.1-6.3 5.3-3.7 9.9-9.3 13-16 1.7-3.7 1.9-7.7 2.1-47 .2-28.1-.1-44.9-.8-48.5-2.1-10.7-9.6-20.1-19.8-24.9L243.5.5l-45-.2c-24.7-.1-46.7.3-48.8.8zM444.2 1c-10 2.4-18.8 9.9-23.6 20l-3 6.5-.1 43.5c-.1 30.3.2 44.9 1 48 2.8 10.8 9.2 18.5 19.5 23.4l6.5 3.1 30.2.2c30.8.2 35.2.7 42.5 4.4 7.8 4 15.3 13.8 17.4 22.9.4 1.9.8 114.6.9 250.5.1 183.2.4 248 1.3 251 2.6 9.1 10.1 17.7 19.2 22.3l5.5 2.7 45.1.3c43.9.3 45.3.3 51.5-1.8 10.9-3.7 19.1-12.1 22.3-23 1.5-5 1.7-26.6 1.6-252.8 0-243.1 0-247.3-2-252.8-3.4-9.9-11.5-18-21.5-21.5-5.1-1.8-8.7-2-36.3-2.2-28.9-.3-31-.5-36.3-2.5-7.3-2.9-15.2-10.4-18.7-17.9l-2.7-5.8L564 73l-.5-46.5-2.6-5.6c-3.7-7.9-9-13.3-16.7-17.1L537.5.5l-45-.2c-24.7-.1-46.5.2-48.3.7zM296.5 280c-12.4 2.9-21.9 11.6-25.9 23.6-1.5 4.7-1.7 14.9-1.7 117.6 0 111.4 0 112.6 2.1 118.1 4.3 11.4 14.1 20 25.4 22.4 4.3.8 84 1 89.7.2 14.3-2.2 26.5-14.6 28.6-29.1 1-6.5.8-220.9-.1-225.8-1.8-8.9-8.2-17.9-16.1-22.6-9.1-5.3-10.6-5.4-56.5-5.3-23.4.1-43.8.5-45.5.9z"/>
</svg>
