<svg viewBox="0 0 20 20" fill="none" xmlns="http://www.w3.org/2000/svg">
  <path d="M19.432 3.6 16.4.569A1.925 1.925 0 0 0 15.03 0c-.518 0-1.005.202-1.371.568L.962 13.264a.779.779 0 0 0-.221.446l-.734 5.406a.779.779 0 0 0 .877.877l5.406-.734a.778.778 0 0 0 .446-.221L19.432 6.342c.366-.366.568-.853.568-1.37 0-.518-.202-1.005-.568-1.371ZM5.82 17.75l-4.132.561.561-4.131 8.997-8.997 3.57 3.57L5.82 17.75ZM18.33 5.24l-2.41 2.412-3.571-3.57L14.76 1.67a.379.379 0 0 1 .537 0l3.034 3.032a.378.378 0 0 1 0 .538Z" fill="currentColor"/>
</svg>
