<svg viewBox="0 0 20 20" fill="none" xmlns="http://www.w3.org/2000/svg">
  <path d="M9.976 20a6.977 6.977 0 0 0 6.977-6.977c0-.805-.214-1.578-.465-2.297-1.55 1.532-2.729 2.297-3.535 2.297C16.669 6.512 14.627 3.721 9.046 0c.465 4.651-2.601 6.767-3.85 7.941A6.977 6.977 0 0 0 9.977 20Zm.66-16.526c3.016 2.559 3.03 4.546.701 8.627-.708 1.24.188 2.783 1.616 2.783.64 0 1.287-.186 1.971-.554a5.116 5.116 0 1 1-8.453-5.034c.117-.11.712-.637.738-.66.394-.354.719-.668 1.04-1.01 1.144-1.227 1.967-2.587 2.388-4.152Z" fill="currentColor"/>
</svg>
