<svg viewBox="0 0 42 42" fill="none" xmlns="http://www.w3.org/2000/svg">
  <path d="M6.121 1C3.131 1 .667 3.464.667 6.455V41H26.12V28.273h3.637v7.272c0 2.99 2.464 5.455 5.454 5.455 2.99 0 5.455-2.465 5.455-5.455V17.023a5.33 5.33 0 0 0-1.591-3.807l-8.58-8.58-2.557 2.557 5.17 5.17c-1.952.832-3.352 2.756-3.352 5 0 2.99 2.465 5.455 5.455 5.455.64 0 1.243-.135 1.818-.34v13.067c0 1.03-.788 1.819-1.818 1.819a1.786 1.786 0 0 1-1.818-1.819v-7.272c0-1.989-1.648-3.637-3.636-3.637H26.12V6.455C26.12 3.465 23.656 1 20.666 1H6.12Zm0 3.636h14.546c1.03 0 1.818.789 1.818 1.819v7.272H4.303V6.455c0-1.03.788-1.819 1.818-1.819Zm29.091 10.91c1.023 0 1.818.795 1.818 1.818a1.795 1.795 0 0 1-1.818 1.818 1.795 1.795 0 0 1-1.818-1.818c0-1.023.795-1.819 1.818-1.819ZM4.303 17.364h18.182v20H4.303v-20Z" fill="currentColor" stroke="currentColor"/>
</svg>
