<svg viewBox="0 0 20 20" fill="none" xmlns="http://www.w3.org/2000/svg">
  <path fill-rule="evenodd" clip-rule="evenodd" d="M15.293.903a1 1 0 0 1 1.414 0l3 3a1.003 1.003 0 0 1 .25.415l.012.05A1 1 0 0 1 20 4.61a.992.992 0 0 1-.031.24l-.013.05a.991.991 0 0 1-.125.264l-.044.059a.997.997 0 0 1-.08.094l-3 3a1 1 0 1 1-1.414-1.414l1.293-1.293h-2.981a4 4 0 0 0-3.279 1.707h.001l-.51.73v.001A6 6 0 0 1 8.21 9.611a5.98 5.98 0 0 1 1.602 1.558l.514.734a4 4 0 0 0 3.277 1.707h2.983l-1.293-1.293a1 1 0 0 1 1.414-1.414l3 3a1.004 1.004 0 0 1 .25.415l.012.05.011.047.003.022c.01.056.017.114.017.173a.992.992 0 0 1-.031.24l-.013.05a.991.991 0 0 1-.125.264l-.044.059a.993.993 0 0 1-.08.094l-3 3a1 1 0 1 1-1.414-1.414l1.293-1.293h-2.983a6 6 0 0 1-4.7-2.27l-.216-.29-.513-.733v-.001a4 4 0 0 0-3.036-1.7l-.242-.006H1a1 1 0 1 1 0-2h3.9a4.003 4.003 0 0 0 3.277-1.708l.51-.73a6.003 6.003 0 0 1 4.918-2.562h2.98l-1.292-1.293a1 1 0 0 1 0-1.414Z" fill="currentColor"/>
</svg>
