<svg viewBox="0 0 20 20" fill="none" xmlns="http://www.w3.org/2000/svg">
  <path fill-rule="evenodd" clip-rule="evenodd" d="M10 1.593A8.407 8.407 0 0 0 3.332 15.12c1.465-2.162 3.89-3.556 6.668-3.556 2.784 0 5.2 1.461 6.66 3.567A8.407 8.407 0 0 0 10 1.593ZM0 10C0 4.477 4.477 0 10 0s10 4.477 10 10-4.477 10-10 10S0 15.523 0 10Zm4.476 6.287c1.443 1.295 3.412 2.039 5.524 2.039a8.529 8.529 0 0 0 5.51-2.045c-1.17-1.85-3.2-3.123-5.51-3.123-2.333 0-4.363 1.225-5.524 3.129Zm3.388-8.975a2.136 2.136 0 1 1 4.272 0 2.136 2.136 0 0 1-4.272 0ZM10 3.584a3.729 3.729 0 1 0 0 7.457 3.729 3.729 0 0 0 0-7.457Z" fill="currentColor"/>
</svg>
