<svg viewBox="0 0 20 20" fill="none" xmlns="http://www.w3.org/2000/svg">
  <path d="M15 13a1.93 1.93 0 0 0-1 .285l-1.545-1.55a3 3 0 0 0 0-3.47L14 6.715A1.93 1.93 0 0 0 15 7a2 2 0 1 0-2-2c.002.353.1.699.285 1l-1.55 1.545a3 3 0 0 0-3.47 0L6.715 6A1.93 1.93 0 0 0 7 5a2 2 0 1 0-2 2 1.93 1.93 0 0 0 1-.285l1.545 1.55a3 3 0 0 0 0 3.47L6 13.285A1.93 1.93 0 0 0 5 13a2 2 0 1 0 2 2 1.93 1.93 0 0 0-.285-1l1.55-1.545a3 3 0 0 0 3.47 0L13.285 14A1.93 1.93 0 0 0 13 15a2 2 0 1 0 2-2Zm0-9a1 1 0 1 1 0 2 1 1 0 0 1 0-2ZM4 5a1 1 0 1 1 2 0 1 1 0 0 1-2 0Zm1 11a1 1 0 1 1 0-2.001A1 1 0 0 1 5 16Zm5-4a2 2 0 1 1 0-4 2 2 0 0 1 0 4Zm5 4a1 1 0 1 1 0-2.002A1 1 0 0 1 15 16Z" fill="currentColor" stroke="currentColor" stroke-width=".636"/>
</svg>
