<svg fill="currentColor" xmlns="http://www.w3.org/2000/svg" viewBox="0 0 30 30">
  <g clip-path="url(#ABI_svg__a)">
    <path d="M10.176 10.291a1.253 1.253 0 0 0-1.76.159L5.29 14.2a1.247 1.247 0 0 0 0 1.6l3.125 3.75a1.25 1.25 0 1 0 1.919-1.6L7.876 15l2.459-2.949a1.25 1.25 0 0 0-.159-1.76Zm6.318-2.766a1.261 1.261 0 0 0-1.47.981l-2.5 12.5a1.246 1.246 0 0 0 1.229 1.494 1.249 1.249 0 0 0 1.223-1.006l2.5-12.5a1.246 1.246 0 0 0-.982-1.469Zm8.215 6.675-3.125-3.75a1.251 1.251 0 0 0-2.209.687 1.25 1.25 0 0 0 .29.914l2.459 2.95-2.459 2.948a1.248 1.248 0 0 0 .584 2 1.25 1.25 0 0 0 1.335-.398l3.125-3.75a1.247 1.247 0 0 0 0-1.601Z"/>
  </g>
  <defs>
    <clipPath id="ABI_svg__a">
      <path fill="#fff" transform="translate(5 5)" d="M0 0h20v20H0z"/>
    </clipPath>
  </defs>
</svg>
