<svg width="20" height="20" fill="currentColor" xmlns="http://www.w3.org/2000/svg"><path d="M5.176 5.29a1.253 1.253 0 0 0-1.76.16L.29 9.2a1.247 1.247 0 0 0 0 1.6l3.125 3.75a1.25 1.25 0 1 0 1.919-1.601L2.876 10l2.459-2.949a1.25 1.25 0 0 0-.159-1.76Zm6.318-2.765a1.261 1.261 0 0 0-1.47.981l-2.5 12.5a1.247 1.247 0 0 0 1.229 1.493 1.249 1.249 0 0 0 1.223-1.005l2.5-12.5a1.246 1.246 0 0 0-.982-1.47ZM19.709 9.2l-3.125-3.75a1.249 1.249 0 1 0-1.919 1.6L17.124 10l-2.459 2.949a1.251 1.251 0 0 0 .584 2 1.248 1.248 0 0 0 1.335-.399l3.125-3.75a1.247 1.247 0 0 0 0-1.6Z"/></svg>