<svg xmlns="http://www.w3.org/2000/svg" viewBox="0 0 20 20" fill="none">
  <g clip-path="url(#a)" fill="currentColor">
    <path d="M5.176 5.291a1.253 1.253 0 0 0-1.76.159L.29 9.2a1.247 1.247 0 0 0 0 1.6l3.125 3.75a1.25 1.25 0 1 0 1.919-1.6L2.876 10l2.459-2.949a1.25 1.25 0 0 0-.159-1.76Z"/>
    <path d="M5.176 5.291a1.253 1.253 0 0 0-1.76.159L.29 9.2a1.247 1.247 0 0 0 0 1.6l3.125 3.75a1.25 1.25 0 1 0 1.919-1.6L2.876 10l2.459-2.949a1.25 1.25 0 0 0-.159-1.76Zm6.318-2.766a1.261 1.261 0 0 0-1.47.981l-2.5 12.5a1.247 1.247 0 0 0 1.23 1.494 1.249 1.249 0 0 0 1.223-1.006l2.5-12.5a1.246 1.246 0 0 0-.982-1.469Z"/>
    <path d="M11.494 2.525a1.261 1.261 0 0 0-1.47.981l-2.5 12.5a1.247 1.247 0 0 0 1.23 1.494 1.249 1.249 0 0 0 1.223-1.006l2.5-12.5a1.246 1.246 0 0 0-.982-1.469ZM19.708 9.2l-3.124-3.75a1.249 1.249 0 1 0-1.92 1.601l2.46 2.95-2.46 2.948a1.25 1.25 0 1 0 1.92 1.602l3.124-3.75a1.246 1.246 0 0 0 0-1.601Z"/>
    <path d="m19.708 9.2-3.124-3.75a1.249 1.249 0 1 0-1.92 1.601l2.46 2.95-2.46 2.948a1.25 1.25 0 1 0 1.92 1.602l3.124-3.75a1.246 1.246 0 0 0 0-1.601Z"/>
  </g>
  <defs>
    <clipPath id="a">
      <path fill="#fff" d="M0 0h20v20H0z"/>
    </clipPath>
  </defs>
</svg>
