<svg viewBox="0 0 20 21" fill="none" xmlns="http://www.w3.org/2000/svg">
  <path d="M9.334 13.723a.835.835 0 0 1 0 1.667H7.668a.834.834 0 1 1 0-1.667h1.666ZM6.668 9.557a.833.833 0 0 1 0 1.666H4.334a.833.833 0 1 1 0-1.666h2.334Zm3.5-4.167a.833.833 0 0 1 0 1.667H1.834a.834.834 0 0 1 0-1.667h8.334Zm2.492 4.286c.345 0 .624-.28.624-.625V6.015c0-.345.28-.625.625-.625h.179c.345 0 .625.28.625.625v3.036c0 .345.28.625.625.625h3.036c.345 0 .625.28.625.625v.178c0 .346-.28.625-.625.625h-3.036a.625.625 0 0 0-.625.625v3.036c0 .345-.28.625-.625.625h-.179a.625.625 0 0 1-.625-.625V11.73a.625.625 0 0 0-.625-.625H9.624a.625.625 0 0 1-.625-.625v-.178c0-.345.28-.625.625-.625h3.035Z" fill="currentColor"/>
</svg>
