<svg viewBox="0 0 20 20" fill="none" xmlns="http://www.w3.org/2000/svg">
  <path fill-rule="evenodd" clip-rule="evenodd" d="M10 3.177H4.6a2.34 2.34 0 0 0-2.34 2.34v9.9a2.34 2.34 0 0 0 2.34 2.34h10.8a2.34 2.34 0 0 0 2.34-2.34v-9.9H19v9.9l-.005.186a3.6 3.6 0 0 1-3.41 3.41l-.185.004H4.6a3.6 3.6 0 0 1-3.6-3.6v-9.9a3.6 3.6 0 0 1 3.6-3.6H10v1.26ZM8.987 6.814c.098 0 .186.061.219.153l2.614 7.2a.234.234 0 0 1-.22.314h-.89a.235.235 0 0 1-.22-.158l-.638-1.828H7.015l-.639 1.828a.235.235 0 0 1-.22.158h-.892a.234.234 0 0 1-.22-.314l2.615-7.2a.233.233 0 0 1 .219-.153h1.11Zm4.913 0c.129 0 .233.104.233.233v7.2a.233.233 0 0 1-.233.234h-.841a.234.234 0 0 1-.234-.234v-7.2c0-.129.105-.233.234-.233h.841Zm-6.495 4.562h2.057L8.434 8.428l-1.029 2.948Zm7.9-9.324a.129.129 0 0 1 .24 0l.556 1.5a.13.13 0 0 0 .076.076l1.5.555a.13.13 0 0 1 0 .242l-1.5.555a.13.13 0 0 0-.076.076l-.555 1.5a.129.129 0 0 1-.241 0l-.556-1.5a.13.13 0 0 0-.076-.076l-1.5-.555a.13.13 0 0 1 0-.242l1.5-.555a.13.13 0 0 0 .076-.076l.556-1.5Zm-2.58-.645a.13.13 0 0 1 .243 0l.206.559a.13.13 0 0 0 .076.076l.56.207a.13.13 0 0 1 0 .242l-.56.206a.13.13 0 0 0-.076.077l-.206.558a.13.13 0 0 1-.242 0l-.207-.558a.13.13 0 0 0-.077-.077l-.558-.206a.13.13 0 0 1 0-.242l.558-.207a.13.13 0 0 0 .077-.076l.207-.559Z" fill="currentColor"/>
</svg>
