<svg viewBox="0 0 459 138" fill="none" xmlns="http://www.w3.org/2000/svg">
  <rect x="3" y="-3" width="453" height="132" rx="30" transform="matrix(1 0 0 -1 0 132)" stroke="#D54244" stroke-width="6"/>
  <path d="M67.182 92.818c-2.212 0-4.22-.416-6.023-1.25-1.803-.848-3.235-2.068-4.295-3.659-1.061-1.606-1.591-3.545-1.591-5.818 0-2 .394-3.621 1.181-4.864a8.342 8.342 0 0 1 3.16-2.954c1.318-.712 2.772-1.243 4.363-1.591a53.12 53.12 0 0 1 4.841-.864c2.121-.272 3.841-.477 5.16-.614 1.333-.151 2.302-.401 2.908-.75.622-.348.932-.954.932-1.818v-.181c0-2.243-.614-3.985-1.84-5.228-1.213-1.242-3.054-1.863-5.523-1.863-2.561 0-4.569.56-6.023 1.681-1.455 1.122-2.477 2.319-3.068 3.591l-5.091-1.818c.909-2.121 2.12-3.773 3.636-4.954 1.53-1.197 3.197-2.03 5-2.5a20.761 20.761 0 0 1 5.364-.728c1.12 0 2.409.137 3.863.41 1.47.257 2.887.795 4.25 1.613 1.38.818 2.523 2.053 3.432 3.705.91 1.651 1.364 3.863 1.364 6.636v23h-5.364v-4.727h-.272c-.364.757-.97 1.568-1.819 2.431-.848.864-1.977 1.599-3.386 2.205-1.41.606-3.129.91-5.16.91ZM68 88c2.121 0 3.91-.417 5.364-1.25 1.47-.833 2.575-1.91 3.318-3.227.757-1.319 1.136-2.705 1.136-4.16v-4.909c-.227.273-.727.523-1.5.75-.757.213-1.636.402-2.636.569-.985.151-1.947.288-2.886.409-.925.106-1.675.197-2.25.272a20.494 20.494 0 0 0-3.91.887c-1.197.394-2.166.992-2.909 1.795-.727.788-1.09 1.864-1.09 3.228 0 1.863.689 3.272 2.068 4.227C64.099 87.53 65.864 88 68 88Zm30.335-42.545V92h-5.363V45.455h5.363Zm9.824 59.636v-48h5.182v5.545h.636a47.92 47.92 0 0 1 1.637-2.318c.712-.954 1.727-1.803 3.045-2.545 1.333-.758 3.136-1.137 5.409-1.137 2.94 0 5.53.735 7.773 2.205 2.242 1.47 3.992 3.553 5.25 6.25 1.257 2.697 1.886 5.879 1.886 9.545 0 3.697-.629 6.902-1.886 9.614-1.258 2.697-3 4.788-5.227 6.273-2.228 1.47-4.796 2.204-7.705 2.204-2.242 0-4.038-.37-5.386-1.113-1.349-.758-2.387-1.614-3.114-2.569-.727-.97-1.288-1.772-1.682-2.409h-.454v18.455h-5.364Zm5.273-30.545c0 2.636.386 4.962 1.159 6.977.773 2 1.901 3.568 3.386 4.704 1.485 1.121 3.303 1.682 5.455 1.682 2.242 0 4.113-.59 5.613-1.773 1.516-1.197 2.652-2.803 3.41-4.818.772-2.03 1.159-4.288 1.159-6.772 0-2.455-.379-4.667-1.137-6.637-.742-1.985-1.871-3.553-3.386-4.705-1.5-1.166-3.386-1.75-5.659-1.75-2.182 0-4.015.554-5.5 1.66-1.485 1.09-2.606 2.62-3.364 4.59-.757 1.955-1.136 4.235-1.136 6.842ZM152.523 71v21h-5.364V45.455h5.364v17.09h.454c.818-1.803 2.046-3.234 3.682-4.295 1.652-1.076 3.849-1.614 6.591-1.614 2.379 0 4.462.478 6.25 1.432 1.788.94 3.174 2.387 4.159 4.341 1 1.94 1.5 4.41 1.5 7.41V92h-5.364V70.182c0-2.773-.719-4.917-2.159-6.432-1.424-1.53-3.401-2.295-5.931-2.295-1.758 0-3.334.37-4.728 1.113-1.379.743-2.469 1.826-3.272 3.25-.788 1.424-1.182 3.152-1.182 5.182Zm42.721 21.818c-2.212 0-4.219-.416-6.022-1.25-1.803-.848-3.235-2.068-4.296-3.659-1.06-1.606-1.591-3.545-1.591-5.818 0-2 .394-3.621 1.182-4.864a8.344 8.344 0 0 1 3.159-2.954c1.318-.712 2.773-1.243 4.364-1.591a53.073 53.073 0 0 1 4.841-.864c2.121-.272 3.841-.477 5.159-.614 1.333-.151 2.303-.401 2.909-.75.621-.348.932-.954.932-1.818v-.181c0-2.243-.614-3.985-1.841-5.228-1.212-1.242-3.053-1.863-5.523-1.863-2.561 0-4.568.56-6.023 1.681-1.454 1.122-2.477 2.319-3.068 3.591l-5.091-1.818c.909-2.121 2.121-3.773 3.637-4.954 1.53-1.197 3.197-2.03 5-2.5a20.759 20.759 0 0 1 5.363-.728c1.121 0 2.409.137 3.864.41 1.47.257 2.886.795 4.25 1.613 1.379.818 2.523 2.053 3.432 3.705.909 1.651 1.363 3.863 1.363 6.636v23h-5.363v-4.727h-.273c-.364.757-.97 1.568-1.818 2.431-.849.864-1.977 1.599-3.387 2.205-1.409.606-3.128.91-5.159.91Zm.818-4.818c2.122 0 3.91-.417 5.364-1.25 1.47-.833 2.576-1.91 3.318-3.227.758-1.319 1.137-2.705 1.137-4.16v-4.909c-.228.273-.728.523-1.5.75-.758.213-1.637.402-2.637.569-.985.151-1.947.288-2.886.409-.924.106-1.674.197-2.25.272a20.492 20.492 0 0 0-3.909.887c-1.197.394-2.167.992-2.909 1.795-.727.788-1.091 1.864-1.091 3.228 0 1.863.689 3.272 2.068 4.227 1.394.94 3.159 1.409 5.295 1.409Zm30.336-17v21h-5.364V57.09h5.182v5.455h.454c.819-1.772 2.061-3.197 3.728-4.272 1.666-1.091 3.818-1.637 6.454-1.637 2.364 0 4.432.485 6.205 1.455 1.773.954 3.151 2.409 4.136 4.364.985 1.939 1.477 4.394 1.477 7.363V92h-5.363V70.182c0-2.743-.712-4.879-2.137-6.41-1.424-1.545-3.378-2.317-5.863-2.317-1.712 0-3.243.37-4.591 1.113-1.333.743-2.386 1.826-3.159 3.25-.773 1.424-1.159 3.152-1.159 5.182Zm46.71 21.727c-3.364 0-6.265-.742-8.705-2.227-2.424-1.5-4.295-3.59-5.613-6.273-1.303-2.697-1.955-5.833-1.955-9.409 0-3.576.652-6.727 1.955-9.454 1.318-2.743 3.151-4.88 5.5-6.41 2.363-1.545 5.121-2.318 8.272-2.318 1.819 0 3.614.303 5.387.91 1.773.605 3.386 1.59 4.841 2.954 1.454 1.349 2.613 3.136 3.477 5.364.864 2.227 1.295 4.97 1.295 8.227v2.273h-26.909v-4.637h21.455c0-1.97-.394-3.727-1.182-5.273-.773-1.545-1.879-2.765-3.318-3.658-1.424-.895-3.106-1.341-5.046-1.341-2.136 0-3.984.53-5.545 1.59a10.464 10.464 0 0 0-3.568 4.091 12.022 12.022 0 0 0-1.25 5.41v3.09c0 2.637.454 4.872 1.363 6.705.925 1.818 2.205 3.205 3.841 4.159 1.637.94 3.538 1.41 5.705 1.41 1.409 0 2.682-.198 3.818-.592a8.166 8.166 0 0 0 2.977-1.818c.834-.818 1.478-1.833 1.932-3.046l5.182 1.455a11.483 11.483 0 0 1-2.75 4.636c-1.288 1.319-2.879 2.349-4.773 3.091-1.894.728-4.022 1.091-6.386 1.091Zm37.795-35.636v4.545h-18.091v-4.545h18.091Zm-12.818-8.364h5.364V82c0 1.515.22 2.651.659 3.41.455.742 1.03 1.242 1.727 1.5a6.933 6.933 0 0 0 2.25.363c.591 0 1.076-.03 1.455-.091l.909-.182 1.091 4.818c-.364.136-.871.273-1.523.41-.651.15-1.477.227-2.477.227-1.515 0-3-.326-4.455-.978-1.439-.651-2.636-1.644-3.591-2.977-.939-1.333-1.409-3.015-1.409-5.046V48.727Zm67.432 8.364L352.608 92h-5.455l-12.909-34.91h5.818l9.637 27.82h.363l9.637-27.82h5.818ZM372.506 92v-4.09l15.363-16.82c1.803-1.969 3.288-3.68 4.455-5.136 1.167-1.47 2.03-2.848 2.591-4.136a10.01 10.01 0 0 0 .863-4.09c0-1.637-.394-3.054-1.181-4.25-.773-1.198-1.834-2.122-3.182-2.773-1.349-.652-2.864-.978-4.546-.978-1.788 0-3.348.372-4.681 1.114a7.668 7.668 0 0 0-3.069 3.068c-.712 1.318-1.068 2.864-1.068 4.636h-5.363c0-2.727.628-5.12 1.886-7.181 1.257-2.061 2.97-3.667 5.136-4.819 2.182-1.151 4.629-1.727 7.341-1.727 2.727 0 5.144.576 7.25 1.727 2.106 1.152 3.758 2.705 4.955 4.66 1.197 1.954 1.795 4.128 1.795 6.522 0 1.712-.31 3.387-.932 5.023-.606 1.621-1.666 3.432-3.181 5.432-1.5 1.985-3.584 4.409-6.25 7.272l-10.455 11.182V87h21.636v5h-29.363Z" fill="#D54244"/>
</svg>
