<svg fill="currentColor" xmlns="http://www.w3.org/2000/svg" viewBox="0 0 30 30">
  <path fill-rule="evenodd" clip-rule="evenodd" d="M13.297 8.699a1.699 1.699 0 0 1 3.397 0V9.6a1 1 0 1 0 2 0v-.902a3.699 3.699 0 1 0-7.397 0v6.268a1 1 0 1 0 2 0V8.699Zm5.397 6.298a1 1 0 1 0-2 0v6.295a1.699 1.699 0 0 1-3.397 0v-.913a1 1 0 1 0-2 0v.913a3.699 3.699 0 1 0 7.397 0v-6.295Zm-10.003-1.7c-.931 0-1.691.758-1.691 1.699 0 .94.76 1.698 1.691 1.698h6.304a1 1 0 0 1 0 2H8.691A3.695 3.695 0 0 1 5 14.996c0-2.04 1.65-3.699 3.691-3.699h.902a1 1 0 1 1 0 2h-.902Zm6.304-2a1 1 0 0 0 0 2h6.292c.943 0 1.704.762 1.704 1.699a1.7 1.7 0 0 1-1.704 1.698h-.865a1 1 0 1 0 0 2h.865a3.701 3.701 0 0 0 3.704-3.698 3.701 3.701 0 0 0-3.704-3.699h-6.292Z"/>
</svg>
