<svg viewBox="0 0 20 20" fill="none" xmlns="http://www.w3.org/2000/svg">
  <path fill-rule="evenodd" clip-rule="evenodd" d="M8.3 3.7a1.7 1.7 0 0 1 3.4 0v.903a1 1 0 1 0 2 0V3.7a3.7 3.7 0 0 0-7.4 0v6.272a1 1 0 0 0 2 0V3.7Zm5.4 6.302a1 1 0 0 0-2 0V16.3a1.7 1.7 0 0 1-3.4 0v-.914a1 1 0 1 0-2 0v.914a3.7 3.7 0 1 0 7.4 0v-6.298ZM3.692 8.3C2.76 8.3 2 9.059 2 10c0 .94.76 1.7 1.693 1.7H10a1 1 0 1 1 0 2H3.693A3.696 3.696 0 0 1 0 10c0-2.04 1.65-3.7 3.693-3.7h.902a1 1 0 0 1 0 2h-.902ZM10 6.3a1 1 0 0 0 0 2h6.294C17.238 8.3 18 9.064 18 10c0 .937-.761 1.7-1.705 1.7h-.865a1 1 0 1 0 0 2h.865A3.702 3.702 0 0 0 20 10c0-2.046-1.66-3.7-3.705-3.7H10Z" fill="currentColor"/>
</svg>
