<svg width="20" height="20" fill="currentColor" xmlns="http://www.w3.org/2000/svg"><path fill-rule="evenodd" clip-rule="evenodd" d="M8.297 3.699a1.699 1.699 0 0 1 3.397 0V4.6a1 1 0 1 0 2 0v-.902a3.699 3.699 0 1 0-7.397 0v6.268a1 1 0 0 0 2 0V3.699Zm5.397 6.298a1 1 0 1 0-2 0v6.295a1.699 1.699 0 0 1-3.397 0v-.913a1 1 0 1 0-2 0v.913a3.699 3.699 0 0 0 7.397 0V9.997ZM3.69 8.297c-.93 0-1.69.758-1.69 1.699 0 .94.76 1.698 1.691 1.698h6.304a1 1 0 0 1 0 2H3.691A3.695 3.695 0 0 1 0 9.996c0-2.04 1.65-3.699 3.691-3.699h.902a1 1 0 1 1 0 2h-.902Zm6.304-2a1 1 0 1 0 0 2h6.292c.943 0 1.704.762 1.704 1.699a1.7 1.7 0 0 1-1.704 1.698h-.865a1 1 0 1 0 0 2h.865a3.701 3.701 0 0 0 3.704-3.698 3.701 3.701 0 0 0-3.704-3.699H9.995Z"/></svg>