<svg viewBox="0 0 20 20" fill="none" xmlns="http://www.w3.org/2000/svg">
  <path fill-rule="evenodd" clip-rule="evenodd" d="M2.167 4.167c0-.92.746-1.667 1.667-1.667h3.333c.92 0 1.667.746 1.667 1.667V7.5c0 .92-.747 1.667-1.667 1.667H3.834c-.92 0-1.667-.747-1.667-1.667V4.167Zm1.667.5a.5.5 0 0 1 .5-.5h2.333a.5.5 0 0 1 .5.5V7a.5.5 0 0 1-.5.5H4.334a.5.5 0 0 1-.5-.5V4.667ZM10.5 4.27c0 .519.42.938.938.938h4.792a.938.938 0 0 0 0-1.875h-4.792a.937.937 0 0 0-.938.938Zm0 3.334c0 .518.42.938.938.938h4.792a.938.938 0 0 0 0-1.875h-4.792a.937.937 0 0 0-.938.937ZM2.167 12.5c0-.92.746-1.667 1.667-1.667h3.333c.92 0 1.667.746 1.667 1.667v3.333c0 .92-.747 1.667-1.667 1.667H3.834c-.92 0-1.667-.746-1.667-1.667V12.5Zm1.667.5a.5.5 0 0 1 .5-.5h2.333a.5.5 0 0 1 .5.5v2.333a.5.5 0 0 1-.5.5H4.334a.5.5 0 0 1-.5-.5V13Zm6.666-.396c0 .518.42.938.938.938h4.792a.938.938 0 0 0 0-1.875h-4.792a.937.937 0 0 0-.938.937Zm0 3.334c0 .517.42.937.938.937h4.792a.938.938 0 0 0 0-1.875h-4.792a.937.937 0 0 0-.938.938Z" fill="currentColor"/>
</svg>
