<svg viewBox="0 0 21 20" fill="none" xmlns="http://www.w3.org/2000/svg">
  <path fill-rule="evenodd" clip-rule="evenodd" d="M3 4.167c0-.92.746-1.667 1.667-1.667H8c.92 0 1.667.746 1.667 1.667V7.5c0 .92-.747 1.667-1.667 1.667H4.667C3.747 9.167 3 8.42 3 7.5V4.167Zm1.667.5a.5.5 0 0 1 .5-.5H7.5a.5.5 0 0 1 .5.5V7a.5.5 0 0 1-.5.5H5.167a.5.5 0 0 1-.5-.5V4.667ZM3 12.5c0-.92.746-1.667 1.667-1.667H8c.92 0 1.667.746 1.667 1.667v3.333c0 .92-.747 1.667-1.667 1.667H4.667C3.747 17.5 3 16.754 3 15.833V12.5Zm1.667.5a.5.5 0 0 1 .5-.5H7.5a.5.5 0 0 1 .5.5v2.333a.5.5 0 0 1-.5.5H5.167a.5.5 0 0 1-.5-.5V13ZM13 2.5c-.92 0-1.667.746-1.667 1.667V7.5c0 .92.746 1.667 1.667 1.667h3.333C17.253 9.167 18 8.42 18 7.5V4.167c0-.92-.746-1.667-1.667-1.667H13Zm3.333 2.167a.5.5 0 0 0-.5-.5H13.5a.5.5 0 0 0-.5.5V7a.5.5 0 0 0 .5.5h2.333a.5.5 0 0 0 .5-.5V4.667Zm-5 7.833c0-.92.746-1.667 1.667-1.667h3.333c.92 0 1.667.746 1.667 1.667v3.333c0 .92-.746 1.667-1.667 1.667H13c-.92 0-1.667-.746-1.667-1.667V12.5ZM13 13a.5.5 0 0 1 .5-.5h2.333a.5.5 0 0 1 .5.5v2.333a.5.5 0 0 1-.5.5H13.5a.5.5 0 0 1-.5-.5V13Z" fill="currentColor"/>
</svg>
