<svg xmlns="http://www.w3.org/2000/svg" viewBox="0 0 20 20" fill="none">
  <path d="M5 4.166a1.25 1.25 0 1 1-2.5 0 1.25 1.25 0 0 1 2.5 0Zm0 11.667a1.25 1.25 0 1 1-2.5 0 1.25 1.25 0 0 1 2.5 0ZM5 10a1.25 1.25 0 1 1-2.5 0A1.25 1.25 0 0 1 5 10Z" fill="currentColor"/>
  <path d="M17.5 4.166H8.333M17.5 15.833H8.333M17.5 9.999H8.333M5 4.166a1.25 1.25 0 1 1-2.5 0 1.25 1.25 0 0 1 2.5 0Zm0 11.667a1.25 1.25 0 1 1-2.5 0 1.25 1.25 0 0 1 2.5 0Zm0-5.834a1.25 1.25 0 1 1-2.5 0A1.25 1.25 0 0 1 5 10Z" stroke="currentColor" stroke-width="2" stroke-linecap="round" stroke-linejoin="round"/>
</svg>
