<svg viewBox="0 0 12 12" fill="none" xmlns="http://www.w3.org/2000/svg">
  <rect width="12" height="12" rx="2" fill="#F56565"/>
  <path fill-rule="evenodd" clip-rule="evenodd" d="M7.42 2.494c-.373-.313-.896-.49-1.5-.49a2.028 2.028 0 0 0-1.52.567 1.948 1.948 0 0 0-.453.685 1.91 1.91 0 0 0-.127.805V10h.79V8.508a2.46 2.46 0 0 0 1.59.549c.3.01.6-.04.88-.147a2.21 2.21 0 0 0 .751-.48 2.136 2.136 0 0 0 .652-1.596 1.925 1.925 0 0 0-.309-1.09 1.978 1.978 0 0 0-.717-.664 1.75 1.75 0 0 0 .557-1.301c0-.523-.22-.97-.594-1.285Zm-2.023.36c.163-.06.338-.085.512-.074h.008c.413 0 .741.105.964.28.22.171.343.417.343.72v.004a.944.944 0 0 1-.288.713.99.99 0 0 1-.732.283l-.115-.004v.781h.112c.467 0 .84.13 1.094.351.253.219.398.534.398.927v.004a1.357 1.357 0 0 1-.418 1.04 1.422 1.422 0 0 1-1.069.4h-.012a1.532 1.532 0 0 1-1.109-.393 1.437 1.437 0 0 1-.475-1.052V4.05a1.165 1.165 0 0 1 .352-.923c.123-.12.272-.214.435-.274Z" fill="#fff"/>
</svg>
