<svg viewBox="0 0 26 12" fill="none" xmlns="http://www.w3.org/2000/svg">
  <rect width="26" height="12" rx="2" fill="#F56565"/>
  <path d="M3.028 9V1.727h1.061V4.43h.064c.062-.114.15-.245.267-.394.116-.15.277-.28.483-.391.205-.114.478-.17.816-.17.44 0 .834.11 1.18.333.345.223.616.544.812.963.2.419.299.923.299 1.512 0 .59-.098 1.095-.295 1.517a2.3 2.3 0 0 1-.81.97 2.097 2.097 0 0 1-1.175.337c-.332 0-.603-.056-.813-.167a1.54 1.54 0 0 1-.49-.391 2.957 2.957 0 0 1-.274-.398h-.089V9H3.028Zm1.04-2.727c0 .383.056.72.167 1.008.111.29.272.515.483.679.21.16.469.241.774.241.317 0 .582-.084.795-.252.214-.17.375-.401.483-.693.112-.29.167-.619.167-.983 0-.36-.054-.683-.163-.97a1.484 1.484 0 0 0-.483-.678c-.213-.166-.48-.249-.799-.249-.308 0-.568.08-.781.238-.21.159-.37.38-.48.664a2.77 2.77 0 0 0-.163.995Zm7.485 2.837c-.538 0-1-.115-1.389-.344a2.336 2.336 0 0 1-.894-.977c-.209-.421-.313-.915-.313-1.48 0-.56.104-1.052.313-1.478.21-.426.504-.759.88-.998.379-.239.822-.359 1.328-.359.308 0 .606.051.895.153.29.102.548.262.778.48.23.217.41.5.543.848.133.346.2.766.2 1.26v.377H9.556v-.795h3.296c0-.28-.057-.527-.17-.742a1.29 1.29 0 0 0-1.198-.703 1.38 1.38 0 0 0-.78.22 1.474 1.474 0 0 0-.512.568 1.641 1.641 0 0 0-.178.756v.622c0 .364.064.674.192.93.13.256.311.451.543.586.232.133.503.199.814.199.2 0 .384-.028.55-.085a1.143 1.143 0 0 0 .707-.692l1.005.18a1.82 1.82 0 0 1-.434.778 2.1 2.1 0 0 1-.777.515 2.91 2.91 0 0 1-1.062.181Zm6.064-5.565v.853h-2.979v-.853h2.98Zm-2.18-1.306h1.062v5.16c0 .205.03.36.092.465a.49.49 0 0 0 .238.21c.1.035.207.052.323.052.085 0 .16-.005.224-.017l.149-.029.192.877a2.08 2.08 0 0 1-.689.114 1.87 1.87 0 0 1-.781-.15 1.34 1.34 0 0 1-.586-.482c-.15-.218-.224-.491-.224-.82v-5.38Zm4.942 6.882c-.345 0-.658-.064-.937-.192a1.58 1.58 0 0 1-.664-.565c-.161-.246-.242-.548-.242-.905 0-.308.06-.561.178-.76a1.31 1.31 0 0 1 .48-.472c.2-.116.425-.204.674-.263a6.56 6.56 0 0 1 .76-.135l.795-.092c.204-.027.352-.068.444-.125.092-.057.139-.149.139-.277V5.31c0-.31-.088-.55-.263-.72-.173-.171-.431-.256-.774-.256-.358 0-.64.08-.845.238-.204.156-.345.33-.423.522l-.998-.228a1.92 1.92 0 0 1 .519-.802c.23-.206.493-.355.791-.448a3.116 3.116 0 0 1 1.634-.063c.246.05.476.142.689.277.215.134.392.327.53.578.136.249.205.572.205.97V9h-1.037v-.746h-.043a1.512 1.512 0 0 1-.308.405 1.642 1.642 0 0 1-.53.33 2.053 2.053 0 0 1-.774.132Zm.231-.853c.294 0 .545-.058.753-.174a1.192 1.192 0 0 0 .646-1.061V6.33a.552.552 0 0 1-.22.106 3.43 3.43 0 0 1-.366.082l-.401.06c-.13.017-.24.03-.327.043a2.63 2.63 0 0 0-.564.131.97.97 0 0 0-.405.266.665.665 0 0 0-.15.455c0 .263.098.462.292.597.194.132.441.198.742.198Z" fill="#fff"/>
</svg>
