<svg viewBox="0 0 20 20" fill="none" xmlns="http://www.w3.org/2000/svg">
  <path fill-rule="evenodd" clip-rule="evenodd" d="M3.392.45C3.644.163 3.984 0 4.34 0h8.038a.63.63 0 0 1 .474.225L17.54 5.61a.83.83 0 0 1 .196.544v12.308c0 .408-.141.799-.393 1.087-.25.289-.592.451-.947.451H4.34c-.356 0-.696-.162-.948-.45A1.661 1.661 0 0 1 3 18.461V1.538c0-.408.141-.799.392-1.087Zm.948 1.088h6.87v4.497c0 .388.315.702.702.702h4.485v11.725H4.34V1.538Zm8.274.59 2.791 3.205h-2.791V2.128Z" fill="currentColor"/>
  <path d="M8.1 16.4a.5.5 0 0 1-.5-.5v-7a.5.5 0 0 1 .5-.5h2.237c.74 0 1.305.164 1.697.491.397.324.595.808.595 1.452 0 .457-.101.85-.303 1.177-.202.328-.505.552-.909.674l.097-.223c.59.11 1.04.345 1.349.703.309.358.463.84.463 1.446 0 .709-.229 1.267-.686 1.674-.457.404-1.086.606-1.886.606H8.1Zm.746-1.12h1.765c.423 0 .76-.097 1.012-.291.255-.199.383-.517.383-.955 0-.476-.132-.805-.395-.988-.259-.187-.592-.28-1-.28H8.846v2.514Zm0-3.634h1.32c.373 0 .666-.075.88-.223.217-.152.325-.432.325-.84 0-.412-.108-.692-.325-.84-.213-.152-.507-.229-.88-.229h-1.32v2.132Z" fill="currentColor"/>
  <path fill-rule="evenodd" clip-rule="evenodd" d="M12.038 12.116a2 2 0 0 1 .825.558c.309.358.463.84.463 1.446 0 .709-.229 1.267-.686 1.674-.457.404-1.086.606-1.886.606H8.1a.5.5 0 0 1-.5-.5v-7a.5.5 0 0 1 .5-.5h2.237c.74 0 1.305.164 1.697.491.397.324.595.808.595 1.452 0 .457-.101.85-.303 1.177a1.477 1.477 0 0 1-.534.515c.086.024.168.05.246.08Zm.177-.145c.32.137.588.327.8.573.347.403.51.936.51 1.576 0 .756-.245 1.372-.752 1.824-.504.445-1.185.656-2.019.656H8.1a.7.7 0 0 1-.7-.7v-7a.7.7 0 0 1 .7-.7h2.237c.765 0 1.383.17 1.825.537.454.371.667.92.667 1.606 0 .487-.108.917-.333 1.282-.08.13-.174.245-.281.346Zm-.72 1.237c-.217-.156-.506-.242-.883-.242H9.046v2.114h1.566c.393 0 .682-.09.889-.25.19-.147.305-.396.305-.796 0-.444-.122-.695-.309-.824l-.002-.002Zm.128 1.78c-.251.195-.589.292-1.011.292H8.846v-2.514h1.766c.407 0 .74.093 1 .28.262.183.394.512.394.988 0 .438-.128.756-.383.954Zm-.693-5.082c-.168-.12-.415-.192-.764-.192h-1.12v1.732h1.12c.35 0 .597-.07.765-.187.14-.098.24-.298.24-.676 0-.384-.1-.581-.238-.675l-.003-.002Zm.116 1.517c-.213.148-.507.223-.88.223h-1.32V9.514h1.32c.373 0 .666.076.88.229.217.148.326.428.326.84 0 .407-.109.687-.326.84Z" fill="currentColor"/>
</svg>
