<svg xmlns="http://www.w3.org/2000/svg" viewBox="0 0 20 20" fill="none">
  <path d="M4.182 5C2.66 7 .42 14.586 1.138 16c1.015 2 4.732 2.553 8.624 2.5 3.701-.05 8.582-.33 9.132-2.5.507-2-.881-5.737-2.537-9-1.014-2-3.126-4.255-6.087-4.5-2.567-.211-4.736.723-6.088 2.5Z" stroke="currentColor" stroke-width="2"/>
  <path d="M14.5 11.25c0 .966-.286 1.75-.639 1.75-.353 0-.638-.784-.638-1.75s.285-1.75.638-1.75c.353 0 .639.784.639 1.75Zm-4.144.603c0 1.026-.304 1.857-.678 1.857-.375 0-.678-.831-.678-1.857s.303-1.857.678-1.857c.374 0 .678.831.678 1.857Z" stroke="currentColor" stroke-width="2"/>
</svg>
