<svg viewBox="0 0 20 20" fill="none" xmlns="http://www.w3.org/2000/svg">
  <path d="M9.83 0 1 5.03v10.267l6.825 3.976-.034-1.67-5.421-3.175V6.8l6.757 3.818V19.6l.713.4.736-.401v-8.98L17.323 6.8v7.628l-5.388 3.108v1.67l6.858-3.834V5.029L9.829 0Zm0 9.415L3.238 5.531l6.59-3.877 6.75 3.877-6.75 3.884Zm-5.082 3.767 1.32-.752-.112-.196-1.32.752.112.196ZM7.06 11.86l1.32-.752-.113-.196-1.32.752.113.196Zm2.868-3.527V6.821h-.226v1.512h.226Zm0-2.636v-1.52h-.226v1.52h.226Zm0-2.534v-1.52h-.226v1.52h.226Zm2.854 8.51-1.31-.76-.114.195 1.311.76.114-.196Zm2.287 1.322-1.32-.76-.113.195 1.32.76.113-.195Zm-12.654 1.52 1.311-.751-.112-.196-1.311.751.112.196Zm14.979-.198-1.311-.76-.114.195 1.311.76.114-.195Z" fill="currentColor"/>
</svg>
