<svg viewBox="0 0 20 20" fill="none" xmlns="http://www.w3.org/2000/svg">
  <path d="M8.05.194a10 10 0 1 1 3.903 19.614A10 10 0 0 1 8.049.194ZM10 1.539a8.462 8.462 0 1 0 0 16.925 8.462 8.462 0 0 0 0-16.925Zm0 1.538a.77.77 0 0 1 .77.77v5.838l4.007 4a.771.771 0 0 1 .169.841.772.772 0 0 1-1.01.417.77.77 0 0 1-.251-.165l-4.23-4.232A.77.77 0 0 1 9.23 10V3.847a.77.77 0 0 1 .77-.77Z" fill="currentColor"/>
  <path d="M19.697 9.64a9.704 9.704 0 0 0-1.434-4.73l-.194-.303a9.705 9.705 0 0 0-4.026-3.43l-.33-.143A9.703 9.703 0 0 0 8.461.419l-.354.064a9.705 9.705 0 0 0-4.71 2.405l-.259.25a9.705 9.705 0 0 0-2.58 4.618l-.075.35a9.705 9.705 0 0 0 .552 5.607l.143.33a9.704 9.704 0 0 0 3.43 4.025l.303.194a9.706 9.706 0 0 0 5.09 1.442l.48-.012a9.704 9.704 0 0 0 6.38-2.83l.332-.349A9.706 9.706 0 0 0 19.703 10l-.006-.359Zm-1.518-.047a8.189 8.189 0 0 0-2.11-5.09l-.28-.293a8.188 8.188 0 0 0-5.383-2.389L10 1.811a8.19 8.19 0 0 0-4.294 1.217l-.256.163A8.19 8.19 0 0 0 2.556 6.59l-.121.278a8.19 8.19 0 0 0-.466 4.73l.065.297A8.188 8.188 0 0 0 4.21 15.79l.218.21a8.19 8.19 0 0 0 3.974 2.03l.298.054a8.19 8.19 0 0 0 4.433-.52l.278-.12a8.19 8.19 0 0 0 3.397-2.895l.164-.255a8.19 8.19 0 0 0 1.216-4.295l-.01-.406ZM10.61 3.937a.61.61 0 0 0-.102-.339l-.077-.092a.61.61 0 0 0-.311-.168L10 3.327a.61.61 0 0 0-.338.102l-.093.077a.61.61 0 0 0-.179.43V10c0 .08.015.16.045.235l.056.105a.618.618 0 0 0 .075.092l4.17 4.17c.056.055.123.1.198.13l.115.035c.039.008.079.01.118.01h.002l.119-.01a.615.615 0 0 0 .115-.035l.107-.056a.601.601 0 0 0 .092-.075l.077-.093a.609.609 0 0 0 .057-.106l.035-.114.011-.12a.67.67 0 0 0-.011-.12l-.035-.115a.61.61 0 0 0-.134-.198L10.61 9.75V3.937Zm7.869 6.376a8.486 8.486 0 0 1-1.255 4.136l-.17.264a8.486 8.486 0 0 1-3.52 2.999l-.287.126a8.486 8.486 0 0 1-4.594.538l-.309-.055a8.484 8.484 0 0 1-4.117-2.104L4 15.999a8.485 8.485 0 0 1-2.254-4.037l-.068-.307a8.486 8.486 0 0 1 .484-4.902l.126-.288a8.486 8.486 0 0 1 2.999-3.52l.263-.17A8.486 8.486 0 0 1 10 1.516l.42.01A8.485 8.485 0 0 1 16 4l.289.305A8.484 8.484 0 0 1 18.485 10l-.006.314Zm1.509.182a10.002 10.002 0 0 1-2.575 6.216l-.342.36a10.001 10.001 0 0 1-6.575 2.916L10 20a10 10 0 0 1-5.244-1.486l-.311-.2A10.002 10.002 0 0 1 .91 14.166l-.148-.34a10.001 10.001 0 0 1-.57-5.777l.079-.362A10.002 10.002 0 0 1 2.928 2.93l.268-.257A10.001 10.001 0 0 1 8.049.192l.365-.065a10 10 0 0 1 5.413.634l.34.148a10.003 10.003 0 0 1 4.148 3.535l.2.312A10.002 10.002 0 0 1 20 9.999l-.012.496Zm-9.081-.869 3.904 3.899a.907.907 0 0 1 .198.294l.03.085c.026.085.04.174.04.263l-.005.09a.903.903 0 0 1-.035.174l-.03.085a.908.908 0 0 1-.138.229l-.06.066a.896.896 0 0 1-.216.157l-.08.037a.907.907 0 0 1-.61.03l-.083-.03a.904.904 0 0 1-.295-.194l-4.17-4.169a.914.914 0 0 1-.157-.214l-.038-.081a.91.91 0 0 1-.068-.349V3.937c0-.24.096-.471.265-.64l.067-.06A.906.906 0 0 1 10 3.03l.09.005a.914.914 0 0 1 .551.261l.06.066a.906.906 0 0 1 .206.575v5.69Z" fill="currentColor"/>
</svg>
