<svg viewBox="0 0 20 20" fill="none" xmlns="http://www.w3.org/2000/svg">
  <path d="M8.164.859a9.3 9.3 0 0 1 8.3 2.457l.047.046c.136.134.268.272.395.415l.03.033c.207.234.403.478.587.733l.039.055.15.214c.087.131.17.266.25.401.15.252.29.51.415.773.012.024.022.049.033.073.084.18.161.362.233.546l.03.08a9.3 9.3 0 0 1 .607 3.297l-.012.46a9.301 9.301 0 0 1-2.395 5.781l-.317.334a9.3 9.3 0 0 1-6.114 2.712l-.461.012A9.3 9.3 0 0 1 5.105 17.9l-.29-.187a9.303 9.303 0 0 1-.819-.615l-.055-.049a9.33 9.33 0 0 1-.438-.397l-.098-.098a8.814 8.814 0 0 1-.351-.371l-.078-.088a9.32 9.32 0 0 1-.16-.188l-.062-.075a9.397 9.397 0 0 1-.294-.383A9.297 9.297 0 0 1 8.164.859Zm1.817 1.509a7.617 7.617 0 0 0-3.994 1.13l-.237.153A7.616 7.616 0 0 0 3.06 6.81l-.113.259a7.615 7.615 0 0 0-.433 4.398l.06.277a7.613 7.613 0 0 0 2.024 3.622l.203.196a7.615 7.615 0 0 0 3.695 1.888l.278.05a7.614 7.614 0 0 0 4.12-.484l.26-.112a7.615 7.615 0 0 0 3.159-2.692l.152-.237a7.616 7.616 0 0 0 1.13-3.993l-.008-.378a7.614 7.614 0 0 0-1.962-4.732l-.26-.274a7.614 7.614 0 0 0-5.005-2.22l-.378-.01Zm.083 1.138c.192.02.374.104.512.242l.056.062c.123.15.191.339.191.534v5.29l3.631 3.626c.079.078.142.17.185.274l.027.078c.024.08.037.162.037.245l-.005.084a.84.84 0 0 1-.032.162l-.027.078a.852.852 0 0 1-.129.213l-.057.062a.837.837 0 0 1-.199.146l-.075.034a.841.841 0 0 1-.566.029l-.079-.029a.842.842 0 0 1-.274-.18l-3.877-3.877a.853.853 0 0 1-.146-.2l-.036-.075a.846.846 0 0 1-.063-.323V4.344c0-.223.09-.438.247-.596l.061-.055a.844.844 0 0 1 .535-.192l.083.005Z" fill="currentColor"/>
</svg>
