<svg viewBox="0 0 20 20" fill="none" xmlns="http://www.w3.org/2000/svg">
  <path d="M9.44 8.035a.791.791 0 0 0 1.12 0l3.802-3.803a.791.791 0 0 1 1.119 0l.287.287a.79.79 0 0 1 0 1.119L11.965 9.44a.79.79 0 0 0 0 1.118l3.803 3.803a.791.791 0 0 1 0 1.119l-.287.287a.791.791 0 0 1-1.119 0l-3.803-3.803a.79.79 0 0 0-1.118 0l-3.803 3.803a.79.79 0 0 1-1.119 0l-.287-.287a.791.791 0 0 1 0-1.119l3.803-3.803a.791.791 0 0 0 0-1.118L4.232 5.638a.791.791 0 0 1 0-1.119l.287-.287a.791.791 0 0 1 1.119 0L9.44 8.035Z" fill="currentColor"/>
</svg>
