<svg id="CIRCLE_x5F_BOTTOM_x5F_RIGHT_copy_2" xmlns="http://www.w3.org/2000/svg" viewBox="480 180 950 800">
  <defs>
    <style>
      .cls-2{opacity:.84}.cls-3{opacity:.58}.cls-4{opacity:.4}
    </style>
  </defs>
  <path d="M1367.46 574.95c-47.99 47.66-114.1 77.11-187.08 77.11s-139.09-29.45-187.08-77.11c-.44.43-.87.87-1.3 1.3 47.66 47.99 77.11 114.1 77.11 187.08S1039.66 902.42 992 950.41c48.1 48.43 114.74 78.42 188.39 78.42 146.63 0 265.5-118.87 265.5-265.5 0-73.65-29.99-140.29-78.42-188.39" transform="translate(113.4) scale(.81)"/>
  <path class="cls-2" d="M1180.37 121.06c-73.65 0-140.29 29.99-188.39 78.42 47.66 47.99 77.11 114.1 77.11 187.08s-29.45 139.09-77.11 187.08c.43.44.87.87 1.3 1.3 47.99-47.66 114.1-77.11 187.08-77.11s139.09 29.45 187.08 77.11c48.43-48.1 78.42-114.74 78.42-188.39 0-146.63-118.87-265.5-265.5-265.5" transform="translate(113.4) scale(.81)"/>
  <path class="cls-2" d="M1180.37 497.84c-72.98 0-139.09 29.45-187.08 77.11 47.99 47.66 114.1 77.11 187.08 77.11s139.09-29.45 187.08-77.11c-47.99-47.66-114.1-77.11-187.08-77.11" transform="translate(113.4) scale(.81)"/>
  <path class="cls-3" d="M803.6 121.06c-146.63 0-265.5 118.87-265.5 265.5 0 73.65 29.99 140.29 78.42 188.39 47.99-47.66 114.1-77.11 187.08-77.11s139.09 29.45 187.08 77.11c.44-.43.87-.87 1.3-1.3-47.66-47.99-77.11-114.1-77.11-187.08s29.45-139.09 77.11-187.08c-48.1-48.43-114.74-78.42-188.39-78.42" transform="translate(113.4) scale(.81)"/>
  <path class="cls-3" d="M991.98 199.48c-47.66 47.99-77.11 114.1-77.11 187.08s29.45 139.09 77.11 187.08c47.66-47.99 77.11-114.1 77.11-187.08s-29.45-139.09-77.11-187.08" transform="translate(113.4) scale(.81)"/>
  <path class="cls-4" d="M990.68 574.95c-47.99 47.66-114.1 77.11-187.08 77.11s-139.09-29.45-187.08-77.11c-48.43 48.1-78.42 114.74-78.42 188.39 0 146.63 118.87 265.5 265.5 265.5 73.65 0 140.29-29.99 188.39-78.42-47.66-47.99-77.11-114.1-77.11-187.08s29.45-139.09 77.11-187.08c-.43-.44-.87-.87-1.3-1.3" transform="translate(113.4) scale(.81)"/>
  <path class="cls-4" d="M991.98 576.25c-47.66 47.99-77.11 114.1-77.11 187.08s29.45 139.09 77.11 187.08c47.66-47.99 77.11-114.1 77.11-187.08s-29.45-139.09-77.11-187.08M803.6 497.84c-72.98 0-139.09 29.45-187.08 77.11 47.99 47.66 114.1 77.11 187.08 77.11s139.09-29.45 187.08-77.11c-47.99-47.66-114.1-77.11-187.08-77.11" transform="translate(113.4) scale(.81)"/>
</svg>
