<svg xmlns="http://www.w3.org/2000/svg" viewBox="480 180 950 800">
  <path d="M1257.643 575.71c-38.872 38.604-92.421 62.459-151.535 62.459s-112.663-23.855-151.535-62.46c-.356.349-.705.705-1.053 1.054 38.605 38.871 62.46 92.42 62.46 151.534s-23.855 112.663-62.46 151.535c38.961 39.228 92.94 63.52 152.596 63.52 118.77 0 215.055-96.284 215.055-215.055 0-59.656-24.292-113.635-63.52-152.596"/>
  <path d="M1106.1 208.059c-59.657 0-113.635 24.292-152.596 63.52 38.604 38.872 62.459 92.42 62.459 151.535s-23.855 112.663-62.46 151.534c.35.357.705.705 1.054 1.053 38.872-38.604 92.42-62.459 151.535-62.459s112.662 23.855 151.534 62.46c39.229-38.962 63.52-92.94 63.52-152.596 0-118.77-96.284-215.055-215.054-215.055" opacity=".84"/>
  <path d="M1106.1 513.25c-59.114 0-112.663 23.855-151.535 62.46 38.872 38.604 92.42 62.459 151.535 62.459s112.663-23.855 151.535-62.46c-38.872-38.604-92.421-62.459-151.535-62.459" opacity=".84"/>
  <path d="M800.916 208.059c-118.77 0-215.055 96.284-215.055 215.055 0 59.656 24.292 113.635 63.52 152.596 38.872-38.605 92.421-62.46 151.535-62.46s112.663 23.855 151.535 62.46c.356-.349.705-.705 1.053-1.053-38.605-38.872-62.46-92.421-62.46-151.535s23.855-112.663 62.46-151.535c-38.961-39.228-92.94-63.52-152.596-63.52" opacity=".58"/>
  <path d="M953.504 271.579c-38.605 38.872-62.46 92.42-62.46 151.535s23.855 112.663 62.46 151.534c38.604-38.871 62.459-92.42 62.459-151.534s-23.855-112.663-62.46-151.535" opacity=".58"/>
  <path d="M952.45 575.71c-38.871 38.604-92.42 62.459-151.534 62.459s-112.663-23.855-151.535-62.46c-39.228 38.962-63.52 92.94-63.52 152.596 0 118.77 96.285 215.055 215.055 215.055 59.656 0 113.635-24.291 152.596-63.52-38.605-38.872-62.46-92.42-62.46-151.535s23.855-112.662 62.46-151.534c-.348-.357-.705-.705-1.053-1.053" opacity=".4"/>
  <path d="M953.504 576.763c-38.605 38.871-62.46 92.42-62.46 151.534s23.855 112.663 62.46 151.535c38.604-38.872 62.459-92.42 62.459-151.535s-23.855-112.663-62.46-151.534M800.917 513.25c-59.114 0-112.663 23.855-151.535 62.46 38.872 38.604 92.421 62.459 151.535 62.459s112.663-23.855 151.535-62.46c-38.872-38.604-92.421-62.459-151.535-62.459" opacity=".4"/>
</svg>
