<svg xmlns="http://www.w3.org/2000/svg" fill="none" viewBox="0 0 20 20">
  <path fill="currentColor" fill-opacity=".8" fill-rule="evenodd" d="M9.767 2.074a.7.7 0 0 1 .626 0l7.38 3.69a.7.7 0 0 1 0 1.252l-7.38 3.69a.7.7 0 0 1-.626 0l-7.38-3.69a.7.7 0 0 1 0-1.252l7.38-3.69ZM4.266 6.39l5.814 2.907 5.815-2.907-5.815-2.907L4.266 6.39Zm-2.192 7.067a.7.7 0 0 1 .94-.313l7.066 3.534 7.067-3.534a.7.7 0 0 1 .627 1.252l-7.38 3.69a.7.7 0 0 1-.627 0l-7.38-3.69a.7.7 0 0 1-.313-.939Zm.94-4.003a.7.7 0 0 0-.627 1.252l7.38 3.69a.7.7 0 0 0 .626 0l7.38-3.69a.7.7 0 1 0-.626-1.252l-7.067 3.534-7.067-3.534Z" clip-rule="evenodd"/>
</svg>
