<svg xmlns="http://www.w3.org/2000/svg" viewBox="0 0 20 20" fill="none">
  <path d="m1.667 10 8.035 4.018c.11.055.164.082.221.093.051.01.103.01.154 0a.907.907 0 0 0 .221-.093l8.035-4.017M1.667 14.168l8.035 4.017c.11.055.164.082.221.093.051.01.103.01.154 0a.907.907 0 0 0 .221-.093l8.035-4.017M1.667 5.834l8.035-4.017a.922.922 0 0 1 .221-.093.399.399 0 0 1 .154 0c.057.01.112.038.221.093l8.035 4.017-8.035 4.018a.906.906 0 0 1-.221.093.416.416 0 0 1-.154 0 .905.905 0 0 1-.221-.093L1.667 5.834Z" stroke="currentColor" stroke-width="2" stroke-linecap="round" stroke-linejoin="round"/>
</svg>
