<svg xmlns="http://www.w3.org/2000/svg" fill="none" viewBox="0 0 20 20">
  <g fill="currentColor">
    <path d="M1 2.688A1.687 1.687 0 0 1 2.688 1h14.624A1.687 1.687 0 0 1 19 2.688v14.624A1.687 1.687 0 0 1 17.312 19H2.688A1.687 1.687 0 0 1 1 17.312zm1.688-.563a.563.563 0 0 0-.563.563v14.624a.562.562 0 0 0 .563.563h3.937V2.125zm9.562 15.75V2.125h-4.5v15.75zm1.125 0h3.938a.562.562 0 0 0 .562-.563V2.688a.563.563 0 0 0-.563-.562h-3.937z"/>
    <path fill-rule="evenodd" d="M2.687 1.15A1.537 1.537 0 0 0 1.15 2.688v14.625a1.538 1.538 0 0 0 1.537 1.537h14.625a1.538 1.538 0 0 0 1.538-1.538V2.688a1.538 1.538 0 0 0-1.538-1.538zm-1.3.238a1.837 1.837 0 0 1 1.3-.538h14.625a1.838 1.838 0 0 1 1.838 1.838v14.624a1.838 1.838 0 0 1-1.838 1.838H2.687A1.837 1.837 0 0 1 .85 17.313V2.688c0-.488.193-.955.538-1.3zm.796.796a.712.712 0 0 1 .504-.209h4.088v16.05H2.687a.713.713 0 0 1-.712-.712V2.688c0-.19.075-.37.208-.504zm.504.091a.413.413 0 0 0-.412.413v14.625a.413.413 0 0 0 .412.412h3.788V2.275zm4.913-.3h4.8v16.05H7.6zm.3.3v15.45h4.2V2.275zm5.325-.3h4.087a.712.712 0 0 1 .713.713v14.625a.712.712 0 0 1-.713.712h-4.087zm.3.3v15.45h3.787a.413.413 0 0 0 .413-.412V2.688a.412.412 0 0 0-.413-.413z" clip-rule="evenodd"/>
  </g>
</svg>
