<svg viewBox="0 0 20 22" fill="none" xmlns="http://www.w3.org/2000/svg">
  <path fill-rule="evenodd" clip-rule="evenodd" d="M3.392 1.45c.252-.288.592-.45.948-.45h8.038a.63.63 0 0 1 .474.225L17.54 6.61a.83.83 0 0 1 .196.544v12.308c0 .408-.141.799-.393 1.087-.25.289-.592.451-.947.451H4.34c-.356 0-.696-.162-.948-.45A1.661 1.661 0 0 1 3 19.461V2.538c0-.408.141-.799.392-1.087Zm.948 1.088h6.87v4.497c0 .388.315.702.702.702h4.485v11.725H4.34V2.538Zm8.274.59 2.791 3.205h-2.791V3.128ZM6.5 11a.5.5 0 0 0 0 1h7.2a.5.5 0 0 0 0-1H6.5ZM6 13.9a.5.5 0 0 1 .5-.5h7.2a.5.5 0 1 1 0 1H6.5a.5.5 0 0 1-.5-.5Zm4.5 2.1a.5.5 0 0 0 0 1h3.2a.5.5 0 0 0 0-1h-3.2Z" fill="currentColor"/>
  <path fill-rule="evenodd" clip-rule="evenodd" d="M3.28 1.352A1.408 1.408 0 0 1 4.34.85h8.038a.78.78 0 0 1 .587.276l4.689 5.385a.98.98 0 0 1 .233.642v12.308c0 .442-.153.869-.43 1.187a1.408 1.408 0 0 1-1.06.502H4.34c-.403 0-.783-.184-1.06-.502a1.811 1.811 0 0 1-.43-1.187V2.538c0-.442.153-.869.43-1.186Zm1.06-.202c-.308 0-.61.14-.834.399a1.511 1.511 0 0 0-.356.99V19.46c0 .375.13.73.356.99.225.258.526.399.834.399h12.057c.309 0 .61-.14.834-.4.226-.259.356-.614.356-.989V7.153a.68.68 0 0 0-.16-.445L12.74 1.323a.48.48 0 0 0-.36-.173H4.34Zm7.02 1.238v4.647c0 .304.248.551.552.551h4.635v12.025H4.19V2.388h7.17Zm-6.87.3v16.623h11.757V7.886h-4.335a.852.852 0 0 1-.852-.851V2.688H4.49Zm7.974.039 3.27 3.756h-3.27V2.727Zm.3.801v2.655h2.312l-2.312-2.655ZM6.5 11.15a.35.35 0 1 0 0 .7h7.2a.35.35 0 1 0 0-.7H6.5Zm-.65.35a.65.65 0 0 1 .65-.65h7.2a.65.65 0 1 1 0 1.3H6.5a.65.65 0 0 1-.65-.65Zm0 2.4a.65.65 0 0 1 .65-.65h7.2a.65.65 0 1 1 0 1.3H6.5a.65.65 0 0 1-.65-.65Zm.65-.35a.35.35 0 1 0 0 .7h7.2a.35.35 0 1 0 0-.7H6.5Zm4 2.6a.35.35 0 1 0 0 .7h3.2a.35.35 0 1 0 0-.7h-3.2Zm-.65.35a.65.65 0 0 1 .65-.65h3.2a.65.65 0 1 1 0 1.3h-3.2a.65.65 0 0 1-.65-.65Z" fill="currentColor"/>
</svg>
