<svg xmlns="http://www.w3.org/2000/svg" viewBox="0 0 20 20" fill="none">
  <g clip-path="url(#a)">
    <path d="M4.666 7.667V6.033c0-.653 0-.98.127-1.23.112-.219.29-.397.51-.51.25-.127.576-.127 1.23-.127h4.433c.653 0 .98 0 1.23.128.22.112.398.29.51.51.127.25.127.576.127 1.23v4.433c0 .653 0 .98-.127 1.23-.112.219-.29.397-.51.509-.25.127-.577.127-1.23.127H9.333m-6.3 3.5h4.433c.653 0 .98 0 1.23-.127.22-.112.398-.29.51-.51.127-.25.127-.576.127-1.23V9.534c0-.653 0-.98-.127-1.23a1.167 1.167 0 0 0-.51-.51c-.25-.127-.577-.127-1.23-.127H3.033c-.654 0-.98 0-1.23.128-.22.112-.398.29-.51.51-.127.25-.127.576-.127 1.23v4.432c0 .654 0 .98.127 1.23.112.22.29.398.51.51.25.127.576.127 1.23.127Z" stroke="currentColor" stroke-width="2" stroke-linecap="round" stroke-linejoin="round"/>
  </g>
  <defs>
    <clipPath id="a">
      <path fill="#fff" d="M0 0h20v20H0z"/>
    </clipPath>
  </defs>
</svg>
