<svg xmlns="http://www.w3.org/2000/svg" viewBox="0 0 16 16" fill="none">
  <path d="M5.333 8.222 6.973 10l3.693-4m3.712 1.482-2.74-4.933c-.111-.2-.167-.3-.246-.373a.666.666 0 0 0-.242-.142C11.048 2 10.934 2 10.705 2H5.294c-.229 0-.343 0-.445.034a.667.667 0 0 0-.242.142c-.08.073-.135.173-.246.373l-2.74 4.933c-.106.189-.158.284-.179.384a.667.667 0 0 0 0 .268c.021.1.073.195.179.384l2.74 4.933c.111.2.167.3.246.373.07.064.152.113.242.142.102.034.216.034.445.034h5.411c.229 0 .343 0 .445-.034a.665.665 0 0 0 .242-.142c.08-.073.135-.173.245-.373l2.741-4.933c.105-.189.158-.284.178-.384a.664.664 0 0 0 0-.268c-.02-.1-.073-.195-.178-.384Z" stroke="#00C9CB" stroke-width="1.2" stroke-linecap="round" stroke-linejoin="round"/>
</svg>
