<svg xmlns="http://www.w3.org/2000/svg" viewBox="0 0 16 16" fill="none">
  <g clip-path="url(#a)">
    <path d="M10.667 10.667v1.866c0 .747 0 1.12-.146 1.406-.127.25-.331.455-.582.582-.285.146-.659.146-1.405.146H3.466c-.747 0-1.12 0-1.405-.146a1.333 1.333 0 0 1-.583-.582c-.146-.286-.146-.659-.146-1.406V7.467c0-.747 0-1.12.146-1.406.128-.25.332-.454.583-.582.285-.146.658-.146 1.405-.146h1.866m2.134 5.334h5.067c.746 0 1.12 0 1.405-.146.25-.127.455-.331.582-.582.146-.286.146-.659.146-1.406V3.467c0-.747 0-1.12-.146-1.406a1.333 1.333 0 0 0-.582-.582c-.285-.146-.659-.146-1.405-.146H7.466c-.747 0-1.12 0-1.405.146a1.333 1.333 0 0 0-.583.582c-.146.286-.146.659-.146 1.406v5.066c0 .747 0 1.12.146 1.406.128.25.332.455.583.582.285.146.658.146 1.405.146Z" stroke="currentColor" stroke-width="1.5" stroke-linecap="round" stroke-linejoin="round"/>
  </g>
  <defs>
    <clipPath id="a">
      <path fill="#fff" d="M0 0h16v16H0z"/>
    </clipPath>
  </defs>
</svg>
