<svg xmlns="http://www.w3.org/2000/svg" viewBox="0 0 20 20" fill="none">
  <path d="M13.333 5v-.667c0-.934 0-1.4-.181-1.757a1.667 1.667 0 0 0-.729-.728c-.356-.182-.823-.182-1.756-.182H9.333c-.933 0-1.4 0-1.756.182-.314.16-.569.414-.729.728-.181.357-.181.823-.181 1.757v.666m1.666 4.584v4.166m3.334-4.166v4.166M2.5 5h15m-1.667 0v9.334c0 1.4 0 2.1-.272 2.635a2.5 2.5 0 0 1-1.093 1.092c-.534.273-1.235.273-2.635.273H8.167c-1.4 0-2.1 0-2.635-.273a2.5 2.5 0 0 1-1.093-1.092c-.272-.535-.272-1.235-.272-2.635V4.999" stroke="currentColor" stroke-width="2" stroke-linecap="round" stroke-linejoin="round"/>
</svg>
