<svg width="21" height="20" fill="currentColor" xmlns="http://www.w3.org/2000/svg"><path d="M15.645 19.375h-10A1.875 1.875 0 0 1 3.77 17.5V5.625a.625.625 0 0 1 1.25 0V17.5a.625.625 0 0 0 .625.625h10a.625.625 0 0 0 .625-.625V5.625a.625.625 0 0 1 1.25 0V17.5a1.875 1.875 0 0 1-1.875 1.875Zm2.5-15h-15a.625.625 0 0 1 0-1.25h15a.625.625 0 1 1 0 1.25Z"/><path d="M13.145 4.375a.625.625 0 0 1-.625-.625V1.875H8.77V3.75a.625.625 0 0 1-1.25 0v-2.5a.625.625 0 0 1 .625-.625h5a.625.625 0 0 1 .625.625v2.5a.625.625 0 0 1-.625.625Zm-2.5 11.875a.625.625 0 0 1-.625-.625v-8.75a.625.625 0 0 1 1.25 0v8.75a.625.625 0 0 1-.625.625ZM13.77 15a.625.625 0 0 1-.625-.625v-6.25a.625.625 0 0 1 1.25 0v6.25a.625.625 0 0 1-.625.625Zm-6.25 0a.625.625 0 0 1-.625-.625v-6.25a.625.625 0 0 1 1.25 0v6.25A.625.625 0 0 1 7.52 15Z"/></svg>