<svg viewBox="0 0 20 20" fill="none" xmlns="http://www.w3.org/2000/svg">
  <path d="M15 19.375H5A1.875 1.875 0 0 1 3.125 17.5V5.625a.625.625 0 0 1 1.25 0V17.5a.625.625 0 0 0 .625.625h10a.624.624 0 0 0 .625-.625V5.625a.625.625 0 1 1 1.25 0V17.5A1.875 1.875 0 0 1 15 19.375Zm2.5-15h-15a.625.625 0 0 1 0-1.25h15a.625.625 0 1 1 0 1.25Z" fill="currentColor"/>
  <path d="M12.5 4.375a.625.625 0 0 1-.625-.625V1.875h-3.75V3.75a.625.625 0 0 1-1.25 0v-2.5A.625.625 0 0 1 7.5.625h5a.625.625 0 0 1 .625.625v2.5a.625.625 0 0 1-.625.625ZM10 16.25a.625.625 0 0 1-.625-.625v-8.75a.625.625 0 0 1 1.25 0v8.75a.624.624 0 0 1-.625.625ZM13.125 15a.624.624 0 0 1-.625-.625v-6.25a.625.625 0 1 1 1.25 0v6.25a.624.624 0 0 1-.625.625Zm-6.25 0a.625.625 0 0 1-.625-.625v-6.25a.625.625 0 0 1 1.25 0v6.25a.625.625 0 0 1-.625.625Z" fill="currentColor"/>
</svg>
