<svg width="37" height="14" viewBox="0 0 37 14" fill="none" xmlns="http://www.w3.org/2000/svg">
<g clip-path="url(#clip0_232_75)">
<path d="M32.6672 0.199951H4.0002C1.90151 0.199951 0.200195 1.90127 0.200195 3.99995V9.99995C0.200195 12.0986 1.90151 13.8 4.0002 13.8H32.6672C34.7659 13.8 36.4672 12.0986 36.4672 9.99995V3.99995C36.4672 1.90127 34.7659 0.199951 32.6672 0.199951Z" stroke="currentColor" stroke-width="0.4"/>
<path d="M31.0903 4.99512V5.61914H28.5195V4.99512H31.0903ZM29.3896 3.83936H30.2026V8.57227C30.2026 8.7334 30.2275 8.85498 30.2773 8.93701C30.3271 9.01904 30.3916 9.07324 30.4707 9.09961C30.5498 9.12598 30.6348 9.13916 30.7256 9.13916C30.793 9.13916 30.8633 9.1333 30.9365 9.12158C31.0127 9.10693 31.0698 9.09521 31.1079 9.08643L31.1123 9.75C31.0479 9.77051 30.9629 9.78955 30.8574 9.80713C30.7549 9.82764 30.6304 9.83789 30.4839 9.83789C30.2847 9.83789 30.1016 9.79834 29.9346 9.71924C29.7676 9.64014 29.6343 9.5083 29.5347 9.32373C29.438 9.13623 29.3896 8.88428 29.3896 8.56787V3.83936Z" fill="currentColor"/>
<path d="M26.3003 9.83789C25.9692 9.83789 25.6689 9.78223 25.3994 9.6709C25.1328 9.55664 24.9028 9.39697 24.7095 9.19189C24.519 8.98682 24.3726 8.74365 24.27 8.4624C24.1675 8.18115 24.1162 7.87354 24.1162 7.53955V7.35498C24.1162 6.96826 24.1733 6.62402 24.2876 6.32227C24.4019 6.01758 24.5571 5.75977 24.7534 5.54883C24.9497 5.33789 25.1724 5.17822 25.4214 5.06982C25.6704 4.96143 25.9282 4.90723 26.1948 4.90723C26.5347 4.90723 26.8276 4.96582 27.0737 5.08301C27.3228 5.2002 27.5264 5.36426 27.6846 5.5752C27.8428 5.7832 27.96 6.0293 28.0361 6.31348C28.1123 6.59473 28.1504 6.90234 28.1504 7.23633V7.60107H24.5996V6.9375H27.3374V6.87598C27.3257 6.66504 27.2817 6.45996 27.2056 6.26074C27.1323 6.06152 27.0151 5.89746 26.854 5.76855C26.6929 5.63965 26.4731 5.5752 26.1948 5.5752C26.0103 5.5752 25.8403 5.61475 25.6851 5.69385C25.5298 5.77002 25.3965 5.88428 25.2852 6.03662C25.1738 6.18896 25.0874 6.375 25.0259 6.59473C24.9644 6.81445 24.9336 7.06787 24.9336 7.35498V7.53955C24.9336 7.76514 24.9644 7.97754 25.0259 8.17676C25.0903 8.37305 25.1826 8.5459 25.3027 8.69531C25.4258 8.84473 25.5737 8.96191 25.7466 9.04688C25.9224 9.13184 26.1216 9.17432 26.3442 9.17432C26.6313 9.17432 26.8745 9.11572 27.0737 8.99854C27.2729 8.88135 27.4473 8.72461 27.5967 8.52832L28.0889 8.91943C27.9863 9.07471 27.856 9.22266 27.6978 9.36328C27.5396 9.50391 27.3447 9.61816 27.1133 9.70605C26.8848 9.79395 26.6138 9.83789 26.3003 9.83789Z" fill="currentColor"/>
<path d="M20.1655 6.01025V9.75H19.3525V4.99512H20.1216L20.1655 6.01025ZM19.9722 7.19238L19.6338 7.1792C19.6367 6.854 19.6851 6.55371 19.7788 6.27832C19.8726 6 20.0044 5.7583 20.1743 5.55322C20.3442 5.34814 20.5464 5.18994 20.7808 5.07861C21.0181 4.96436 21.2803 4.90723 21.5674 4.90723C21.8018 4.90723 22.0127 4.93945 22.2002 5.00391C22.3877 5.06543 22.5474 5.16504 22.6792 5.30273C22.814 5.44043 22.9165 5.61914 22.9868 5.83887C23.0571 6.05566 23.0923 6.3208 23.0923 6.63428V9.75H22.2749V6.62549C22.2749 6.37646 22.2383 6.17725 22.165 6.02783C22.0918 5.87549 21.9849 5.76562 21.8442 5.69824C21.7036 5.62793 21.5308 5.59277 21.3257 5.59277C21.1235 5.59277 20.939 5.63525 20.772 5.72021C20.6079 5.80518 20.4658 5.92236 20.3457 6.07178C20.2285 6.22119 20.1362 6.39258 20.0688 6.58594C20.0044 6.77637 19.9722 6.97852 19.9722 7.19238Z" fill="currentColor"/>
<path d="M16.439 9.01611L17.7397 4.99512H18.5703L16.8608 9.75H16.3159L16.439 9.01611ZM15.3535 4.99512L16.6938 9.03809L16.7861 9.75H16.2412L14.5186 4.99512H15.3535Z" fill="currentColor"/>
<path d="M12.2554 9.83789C11.9243 9.83789 11.624 9.78223 11.3545 9.6709C11.0879 9.55664 10.8579 9.39697 10.6646 9.19189C10.4741 8.98682 10.3276 8.74365 10.2251 8.4624C10.1226 8.18115 10.0713 7.87354 10.0713 7.53955V7.35498C10.0713 6.96826 10.1284 6.62402 10.2427 6.32227C10.3569 6.01758 10.5122 5.75977 10.7085 5.54883C10.9048 5.33789 11.1274 5.17822 11.3765 5.06982C11.6255 4.96143 11.8833 4.90723 12.1499 4.90723C12.4897 4.90723 12.7827 4.96582 13.0288 5.08301C13.2778 5.2002 13.4814 5.36426 13.6396 5.5752C13.7979 5.7832 13.915 6.0293 13.9912 6.31348C14.0674 6.59473 14.1055 6.90234 14.1055 7.23633V7.60107H10.5547V6.9375H13.2925V6.87598C13.2808 6.66504 13.2368 6.45996 13.1606 6.26074C13.0874 6.06152 12.9702 5.89746 12.8091 5.76855C12.6479 5.63965 12.4282 5.5752 12.1499 5.5752C11.9653 5.5752 11.7954 5.61475 11.6401 5.69385C11.4849 5.77002 11.3516 5.88428 11.2402 6.03662C11.1289 6.18896 11.0425 6.375 10.981 6.59473C10.9194 6.81445 10.8887 7.06787 10.8887 7.35498V7.53955C10.8887 7.76514 10.9194 7.97754 10.981 8.17676C11.0454 8.37305 11.1377 8.5459 11.2578 8.69531C11.3809 8.84473 11.5288 8.96191 11.7017 9.04688C11.8774 9.13184 12.0767 9.17432 12.2993 9.17432C12.5864 9.17432 12.8296 9.11572 13.0288 8.99854C13.228 8.88135 13.4023 8.72461 13.5518 8.52832L14.0439 8.91943C13.9414 9.07471 13.811 9.22266 13.6528 9.36328C13.4946 9.50391 13.2998 9.61816 13.0684 9.70605C12.8398 9.79395 12.5688 9.83789 12.2554 9.83789Z" fill="currentColor"/>
<path d="M8.19922 8.82715V3H9.0166V9.75H8.26953L8.19922 8.82715ZM5 7.42529V7.33301C5 6.96973 5.04395 6.64014 5.13184 6.34424C5.22266 6.04541 5.3501 5.78906 5.51416 5.5752C5.68115 5.36133 5.87891 5.19727 6.10742 5.08301C6.33887 4.96582 6.59668 4.90723 6.88086 4.90723C7.17969 4.90723 7.44043 4.95996 7.66309 5.06543C7.88867 5.16797 8.0791 5.31885 8.23438 5.51807C8.39258 5.71436 8.51709 5.95166 8.60791 6.22998C8.69873 6.5083 8.76172 6.82324 8.79688 7.1748V7.5791C8.76465 7.92773 8.70166 8.24121 8.60791 8.51953C8.51709 8.79785 8.39258 9.03516 8.23438 9.23145C8.0791 9.42773 7.88867 9.57861 7.66309 9.68408C7.4375 9.78662 7.17383 9.83789 6.87207 9.83789C6.59375 9.83789 6.33887 9.77783 6.10742 9.65771C5.87891 9.5376 5.68115 9.36914 5.51416 9.15234C5.3501 8.93555 5.22266 8.68066 5.13184 8.3877C5.04395 8.0918 5 7.771 5 7.42529ZM5.81738 7.33301V7.42529C5.81738 7.6626 5.84082 7.88525 5.8877 8.09326C5.9375 8.30127 6.01367 8.48438 6.11621 8.64258C6.21875 8.80078 6.34912 8.92529 6.50732 9.01611C6.66553 9.104 6.85449 9.14795 7.07422 9.14795C7.34375 9.14795 7.56494 9.09082 7.73779 8.97656C7.91357 8.8623 8.0542 8.71143 8.15967 8.52393C8.26514 8.33643 8.34717 8.13281 8.40576 7.91309V6.854C8.37061 6.69287 8.31934 6.5376 8.25195 6.38818C8.1875 6.23584 8.10254 6.10107 7.99707 5.98389C7.89453 5.86377 7.76709 5.76855 7.61475 5.69824C7.46533 5.62793 7.28809 5.59277 7.08301 5.59277C6.86035 5.59277 6.66846 5.63965 6.50732 5.7334C6.34912 5.82422 6.21875 5.9502 6.11621 6.11133C6.01367 6.26953 5.9375 6.4541 5.8877 6.66504C5.84082 6.87305 5.81738 7.0957 5.81738 7.33301Z" fill="currentColor"/>
</g>
<defs>
<clipPath id="clip0_232_75">
<rect width="37" height="14" fill="white"/>
</clipPath>
</defs>
</svg>
