<svg viewBox="0 0 57 16" fill="none" xmlns="http://www.w3.org/2000/svg">
  <path d="M50.237 1H6.763C3.58 1 1 2.751 1 4.912v6.176C1 13.248 3.58 15 6.763 15h43.474C53.42 15 56 13.249 56 11.088V4.912C56 2.752 53.42 1 50.237 1Z" stroke="currentColor" stroke-width=".4"/>
  <path d="M53.805 5.455v.568h-2.26v-.568h2.26Zm-1.602-1.046h.67v4.16c0 .189.028.33.083.425a.427.427 0 0 0 .216.188c.089.03.183.045.281.045a1.19 1.19 0 0 0 .296-.034l.136.602a1.4 1.4 0 0 1-.5.08c-.19 0-.375-.04-.557-.122a1.106 1.106 0 0 1-.449-.372 1.073 1.073 0 0 1-.176-.631V4.41ZM49.081 9.91c-.42 0-.783-.094-1.088-.28a1.87 1.87 0 0 1-.702-.783c-.163-.338-.244-.73-.244-1.177 0-.447.081-.84.244-1.181.165-.343.394-.61.688-.802.295-.193.64-.29 1.034-.29.227 0 .452.039.673.114.222.076.423.2.605.37.182.168.327.392.435.67.108.279.162.621.162 1.029v.284h-3.364v-.58h2.682c0-.246-.05-.466-.148-.659A1.113 1.113 0 0 0 49.013 6a1.2 1.2 0 0 0-.693.199c-.194.13-.342.301-.446.511-.105.21-.157.436-.157.676v.387c0 .33.057.609.17.838.116.227.276.4.48.52.205.117.443.176.714.176.176 0 .335-.025.477-.074.144-.051.268-.127.372-.227.105-.103.185-.23.242-.381l.648.182c-.069.22-.183.413-.344.58-.161.164-.36.293-.597.386a2.23 2.23 0 0 1-.798.136Zm-5.839-2.717v2.625h-.67V5.455h.647v.681h.057c.103-.221.258-.4.466-.534.209-.136.477-.204.807-.204.295 0 .554.06.776.182.221.119.394.3.517.545.123.242.184.55.184.92v2.773h-.67V7.091c0-.343-.09-.61-.267-.801-.178-.193-.422-.29-.733-.29a1.17 1.17 0 0 0-.574.14.996.996 0 0 0-.395.405 1.341 1.341 0 0 0-.145.648Zm-1.679-1.738v.568h-2.261v-.568h2.261Zm-1.602-1.046h.67v4.16c0 .189.028.33.083.425a.427.427 0 0 0 .216.188.87.87 0 0 0 .281.045 1.19 1.19 0 0 0 .295-.034l.137.602a1.4 1.4 0 0 1-.5.08c-.19 0-.375-.04-.557-.122a1.106 1.106 0 0 1-.449-.372 1.073 1.073 0 0 1-.176-.631V4.41Zm-1.384 2.023-.603.17a1.118 1.118 0 0 0-.167-.292.814.814 0 0 0-.296-.239 1.073 1.073 0 0 0-.48-.094c-.267 0-.49.062-.667.185-.176.121-.265.275-.265.463 0 .167.061.298.182.395.122.096.31.177.568.241l.648.16c.39.094.681.239.872.434.192.193.287.442.287.747 0 .25-.072.474-.216.67-.142.198-.34.353-.596.467a2.19 2.19 0 0 1-.892.17c-.445 0-.814-.097-1.105-.29a1.28 1.28 0 0 1-.554-.846l.636-.16a.88.88 0 0 0 .344.529c.17.117.393.176.667.176.313 0 .56-.066.745-.199.185-.134.278-.295.278-.483a.508.508 0 0 0-.159-.38c-.106-.105-.269-.182-.489-.233l-.727-.17c-.4-.095-.693-.242-.88-.441a1.067 1.067 0 0 1-.279-.753c0-.246.07-.464.207-.653.14-.19.33-.338.571-.446.243-.108.517-.162.824-.162.432 0 .771.094 1.017.284.248.19.424.44.529.75ZM32.66 9.91c-.421 0-.784-.094-1.089-.28a1.87 1.87 0 0 1-.702-.783c-.163-.338-.244-.73-.244-1.177 0-.447.081-.84.244-1.181.165-.343.394-.61.688-.802.295-.193.64-.29 1.034-.29.227 0 .452.039.673.114.222.076.423.2.605.37.182.168.327.392.435.67.108.279.162.621.162 1.029v.284h-3.364v-.58h2.682c0-.246-.05-.466-.148-.659A1.113 1.113 0 0 0 32.591 6a1.2 1.2 0 0 0-.693.199c-.194.13-.342.301-.446.511-.105.21-.157.436-.157.676v.387c0 .33.057.609.17.838.116.227.276.4.481.52.205.117.442.176.713.176.176 0 .335-.025.477-.074.144-.051.268-.127.372-.227.105-.103.185-.23.242-.381l.648.182c-.069.22-.183.413-.344.58-.161.164-.36.293-.597.386-.236.09-.502.136-.798.136Zm-2.792-4.455v.568h-2.261v-.568h2.26Zm-1.602-1.046h.67v4.16c0 .189.028.33.082.425a.427.427 0 0 0 .216.188c.09.03.183.045.282.045a1.19 1.19 0 0 0 .295-.034l.137.602a1.4 1.4 0 0 1-.5.08c-.19 0-.375-.04-.557-.122a1.106 1.106 0 0 1-.45-.372c-.117-.167-.175-.377-.175-.631V4.41ZM22.497 9.92c-.277 0-.528-.052-.753-.156a1.292 1.292 0 0 1-.537-.457 1.29 1.29 0 0 1-.2-.727c0-.25.05-.453.148-.608.099-.158.23-.28.395-.37.165-.089.347-.155.546-.199.2-.045.402-.081.605-.108.265-.034.48-.06.645-.076a.992.992 0 0 0 .363-.094c.078-.044.117-.12.117-.227v-.023c0-.28-.077-.498-.23-.653-.152-.156-.382-.233-.69-.233-.32 0-.572.07-.753.21-.182.14-.31.29-.384.449l-.636-.228c.113-.265.265-.471.454-.619.192-.15.4-.254.625-.312.228-.061.451-.091.67-.091.141 0 .302.017.484.05.183.033.36.1.531.203.172.102.315.256.429.463.114.206.17.483.17.83v2.874h-.67v-.59h-.034a1.18 1.18 0 0 1-.227.303 1.31 1.31 0 0 1-.424.276 1.63 1.63 0 0 1-.644.113Zm.102-.602c.265 0 .488-.052.67-.156a1.065 1.065 0 0 0 .557-.923v-.614c-.028.034-.09.065-.188.094a3.05 3.05 0 0 1-.329.07 15.061 15.061 0 0 1-.642.086c-.174.023-.337.06-.489.11a.842.842 0 0 0-.363.225.572.572 0 0 0-.137.404c0 .233.086.409.259.528.174.117.395.176.662.176Zm-5.443-2.125v2.625h-.67V4h.67v2.136h.057a1.24 1.24 0 0 1 .46-.537c.207-.134.481-.201.824-.201.298 0 .558.06.782.179.223.117.396.298.52.542.124.243.187.551.187.926v2.773h-.67V7.091c0-.347-.09-.615-.27-.804-.178-.191-.426-.287-.742-.287-.22 0-.417.046-.59.14a1.018 1.018 0 0 0-.41.405 1.32 1.32 0 0 0-.148.648Zm-5.546 4.261v-6h.649v.694h.08c.048-.076.117-.173.204-.29.089-.12.216-.225.38-.318.167-.095.392-.142.677-.142.367 0 .69.092.971.275.28.184.5.444.656.782.157.337.236.734.236 1.193 0 .462-.079.862-.236 1.201a1.86 1.86 0 0 1-.653.784c-.278.184-.6.276-.963.276-.28 0-.505-.046-.674-.14a1.248 1.248 0 0 1-.389-.32 4.322 4.322 0 0 1-.21-.301h-.057v2.306h-.67Zm.66-3.818c0 .33.048.62.145.872.096.25.238.447.423.589.186.14.413.21.682.21a1.1 1.1 0 0 0 .702-.222c.189-.15.331-.35.426-.602.096-.254.145-.536.145-.847a2.32 2.32 0 0 0-.142-.83 1.282 1.282 0 0 0-.424-.587C14.04 6.073 13.804 6 13.52 6c-.273 0-.502.07-.688.207a1.245 1.245 0 0 0-.42.574c-.095.245-.142.53-.142.855ZM10.383 4v5.818h-.67V4h.67ZM6.489 9.92c-.277 0-.528-.052-.753-.156a1.292 1.292 0 0 1-.537-.457A1.29 1.29 0 0 1 5 8.58c0-.25.05-.453.148-.608.098-.158.23-.28.395-.37.164-.089.346-.155.545-.199.2-.045.403-.081.605-.108.265-.034.48-.06.645-.076a.992.992 0 0 0 .364-.094c.077-.044.116-.12.116-.227v-.023c0-.28-.077-.498-.23-.653-.151-.156-.382-.233-.69-.233-.32 0-.571.07-.753.21-.182.14-.31.29-.384.449l-.636-.228c.114-.265.265-.471.455-.619.19-.15.4-.254.625-.312.227-.061.45-.091.67-.091.14 0 .301.017.483.05.184.033.36.1.531.203.173.102.316.256.43.463.113.206.17.483.17.83v2.874h-.67v-.59h-.035a1.18 1.18 0 0 1-.227.303c-.106.108-.247.2-.423.276a1.63 1.63 0 0 1-.645.113Zm.102-.602c.265 0 .489-.052.67-.156a1.064 1.064 0 0 0 .557-.923v-.614c-.028.034-.09.065-.187.094-.095.026-.205.05-.33.07a14.976 14.976 0 0 1-.642.086c-.174.023-.337.06-.489.11a.842.842 0 0 0-.363.225.572.572 0 0 0-.137.404c0 .233.087.409.259.528.174.117.395.176.662.176Z" fill="currentColor"/>
</svg>
