<svg xmlns="http://www.w3.org/2000/svg" fill="none" viewBox="0 0 30 30">
  <path fill="currentColor" fill-rule="evenodd" d="M13.776 20.692a8.5 8.5 0 0 1-1.695.288 7.3 7.3 0 1 0 7.632-10.68q.22.82.272 1.696a5.7 5.7 0 1 1-6.21 8.696m5.33-4.392q.312-.624.52-1.3H21v5h-5v-.287a8.5 8.5 0 0 0 1.315-1.013H19.7v-2.4z" clip-rule="evenodd"/>
  <path fill="currentColor" fill-rule="evenodd" d="M5.8 12.5a5.7 5.7 0 1 1 11.4 0 5.7 5.7 0 0 1-11.4 0m5.7-7.3a7.3 7.3 0 1 0 0 14.6 7.3 7.3 0 0 0 0-14.6m.563 4.675L11.5 8.9l-.563.975-2.165 3.75-.563.975h6.582l-.563-.975zM10.46 13.3l1.04-1.8 1.039 1.8z" clip-rule="evenodd"/>
</svg>
