<svg xmlns="http://www.w3.org/2000/svg" fill="none" viewBox="0 0 24 24">
  <path fill="currentColor" d="M13.76 7.444h2.88a5.76 5.76 0 0 1 0 11.52v2.52c-3.6-1.44-8.64-3.6-8.64-8.28a5.76 5.76 0 0 1 5.76-5.76Zm1.44 10.08h1.44a4.32 4.32 0 1 0 0-8.64h-2.88a4.32 4.32 0 0 0-4.32 4.32c0 2.6 1.772 4.296 5.76 6.106v-1.786Z"/>
  <path fill="currentColor" d="M10.4 3.444H7.2a6.32 6.32 0 0 0-4.526 1.923A6.65 6.65 0 0 0 .8 10.008c0 1.741.674 3.41 1.874 4.642A6.32 6.32 0 0 0 7.2 16.572v2.872c4-1.64 9.6-4.102 9.6-9.436a6.65 6.65 0 0 0-1.875-4.641A6.32 6.32 0 0 0 10.4 3.444ZM8.8 14.931H7.2c-.63 0-1.255-.127-1.837-.374a4.793 4.793 0 0 1-1.557-1.068c-.446-.457-.8-1-1.04-1.597a5.033 5.033 0 0 1 0-3.768 4.933 4.933 0 0 1 1.04-1.597c.445-.457.975-.82 1.557-1.067A4.696 4.696 0 0 1 7.2 5.085h3.2a4.74 4.74 0 0 1 3.394 1.442 4.988 4.988 0 0 1 1.406 3.481c0 2.962-1.97 4.895-6.4 6.958v-2.035Z"/>
</svg>
