<svg viewBox="0 0 24 24" fill="none" xmlns="http://www.w3.org/2000/svg">
  <path d="M5.978 6.156c.56.455.77.42 1.82.35l9.912-.595c.21 0 .035-.21-.035-.245l-1.646-1.19c-.315-.245-.736-.525-1.54-.455l-9.598.7c-.35.035-.42.21-.28.35l1.367 1.085Zm.595 2.31v10.428c0 .56.28.77.91.735L18.375 19c.631-.035.701-.42.701-.875V7.765c0-.454-.175-.7-.56-.664l-11.383.664c-.42.036-.56.246-.56.7Zm10.753.559c.07.315 0 .63-.316.666l-.525.104v7.699c-.456.245-.876.385-1.226.385-.56 0-.701-.175-1.121-.7l-3.433-5.389v5.214l1.086.245s0 .63-.876.63l-2.416.14c-.07-.14 0-.49.245-.56l.63-.174V10.39l-.875-.07c-.07-.315.105-.77.595-.805l2.592-.175 3.573 5.46V9.97l-.911-.104c-.07-.386.21-.666.56-.7l2.418-.141ZM4.086 3.776l9.982-.735c1.226-.105 1.541-.035 2.312.525l3.186 2.24c.526.385.701.49.701.91v12.283c0 .77-.28 1.225-1.26 1.295l-11.593.7c-.736.035-1.087-.07-1.472-.56l-2.347-3.045c-.42-.56-.595-.98-.595-1.47V5c0-.63.28-1.155 1.085-1.225Z" fill="currentColor"/>
</svg>
