<svg xmlns="http://www.w3.org/2000/svg" viewBox="0 0 20 20" fill="none">
  <path d="M8.67 18.333c-1.4 0-2.1 0-2.635-.273a2.5 2.5 0 0 1-1.092-1.092c-.273-.535-.273-1.235-.273-2.635V5.666c0-.375 0-.7.005-.985M8.67 18.333H6c-1.4 0-2.1 0-2.635-.273a2.5 2.5 0 0 1-1.093-1.092C2 16.433 2 15.733 2 14.333V8.666c0-1.4 0-2.1.272-2.635a2.5 2.5 0 0 1 1.093-1.092c.331-.17.726-.233 1.31-.258M8.67 18.333h5.333c1.4 0 2.1 0 2.635-.273a2.5 2.5 0 0 0 1.093-1.092c.272-.535.272-1.235.272-2.635v-6.01c0-.612 0-.917-.069-1.205a2.5 2.5 0 0 0-.299-.723c-.155-.252-.37-.468-.803-.9l-2.657-2.657c-.432-.433-.649-.649-.9-.804a2.5 2.5 0 0 0-.723-.299c-.288-.069-.594-.069-1.205-.069H8.67c-1.4 0-2.1 0-2.635.272a2.5 2.5 0 0 0-1.092 1.093c-.2.392-.253.872-.268 1.65m8.328-2.79v3.442c0 .466 0 .7.091.878.08.157.208.284.364.364.179.091.412.091.879.091h3.442M8.3 14.5h6m-6-3h6" stroke="currentColor" stroke-width="2" stroke-linecap="round" stroke-linejoin="round"/>
</svg>
