<svg viewBox="0 0 20 20" fill="none" xmlns="http://www.w3.org/2000/svg">
  <path d="M18.942 4.505c-.045-.107-1.15-2.617-4.799-2.617A5.336 5.336 0 0 0 10 3.546a5.333 5.333 0 0 0-4.144-1.658c-3.649 0-4.755 2.51-4.8 2.617L1 4.78v12.674l1.36.284c.032-.07.82-1.758 3.496-1.758 2.674 0 3.462 1.686 3.491 1.751l1.304.006c.032-.07.82-1.757 3.494-1.757 2.674 0 3.463 1.686 3.492 1.751L19 17.455V4.781l-.058-.276ZM17.58 15.58a5.677 5.677 0 0 0-3.436-1.018A5.347 5.347 0 0 0 10 16.216a5.347 5.347 0 0 0-4.144-1.654 5.677 5.677 0 0 0-3.437 1.018V4.953c.226-.391 1.13-1.646 3.437-1.646 2.306 0 3.214 1.261 3.434 1.645v8.955h1.42V4.952c.226-.39 1.129-1.645 3.435-1.645 2.307 0 3.216 1.261 3.436 1.645V15.58Z" fill="currentColor"/>
</svg>
