<svg xmlns="http://www.w3.org/2000/svg" viewBox="0 0 12 12" fill="none">
  <path d="M2.813.75a.937.937 0 0 0-.938.938v8.624c0 .518.42.938.938.938h6.374c.518 0 .938-.42.938-.938V6.376c0-1.036-.84-1.875-1.875-1.875h-.938a.937.937 0 0 1-.937-.938v-.937C6.375 1.589 5.535.75 4.5.75H2.812Z" fill="currentColor" fill-opacity=".2"/>
  <path d="M6.486.908c.398.46.639 1.06.639 1.717v.938c0 .103.084.187.188.187h.937c.657 0 1.257.241 1.717.64A4.884 4.884 0 0 0 6.486.907Z" fill="currentColor" fill-opacity=".2"/>
</svg>
