<svg viewBox="0 0 24 24" fill="none" xmlns="http://www.w3.org/2000/svg">
  <path d="M19.111 21H4.891a.674.674 0 0 1-.673-.674v-9.698a.674.674 0 0 1 .674-.674h14.22a.674.674 0 0 1 .673.674v9.698a.674.674 0 0 1-.674.674ZM5.566 19.652h12.871v-8.35H5.566v8.35Z" fill="currentColor"/>
  <path d="M19.111 21H4.891a.674.674 0 0 1-.673-.674v-9.698a.674.674 0 0 1 .674-.674h14.22a.674.674 0 0 1 .673.674v9.698a.674.674 0 0 1-.674.674ZM5.566 19.652h12.871v-8.35H5.566v8.35Z" fill="currentColor"/>
  <path d="M20.328 11.302H3.674A.674.674 0 0 1 3 10.628V7.006a.674.674 0 0 1 .674-.674h16.654a.674.674 0 0 1 .675.674v3.622a.674.674 0 0 1-.675.674ZM4.348 9.954h15.307V7.68H4.348v2.274Z" fill="currentColor"/>
  <path d="M20.328 11.302H3.674A.674.674 0 0 1 3 10.628V7.006a.674.674 0 0 1 .674-.674h16.654a.674.674 0 0 1 .675.674v3.622a.674.674 0 0 1-.675.674ZM4.348 9.954h15.307V7.68H4.348v2.274Z" fill="currentColor"/>
  <path d="M12 7.68a.674.674 0 0 1-.415-.144l-3.903-3.07a.55.55 0 0 0-.89.432v2.108a.674.674 0 1 1-1.348 0V4.898a1.898 1.898 0 0 1 3.071-1.491l3.902 3.07A.674.674 0 0 1 12 7.68Z" fill="currentColor"/>
  <path d="M12 7.68a.674.674 0 0 1-.415-.144l-3.903-3.07a.55.55 0 0 0-.89.432v2.108a.674.674 0 1 1-1.348 0V4.898a1.898 1.898 0 0 1 3.071-1.491l3.902 3.07A.674.674 0 0 1 12 7.68Z" fill="currentColor"/>
  <path d="M12.001 7.68a.674.674 0 0 1-.416-1.204l3.901-3.07a1.898 1.898 0 0 1 3.072 1.492v2.108a.674.674 0 1 1-1.348 0V4.898a.55.55 0 0 0-.89-.432l-3.902 3.07A.674.674 0 0 1 12 7.68Z" fill="currentColor"/>
  <path d="M12.001 7.68a.674.674 0 0 1-.416-1.204l3.901-3.07a1.898 1.898 0 0 1 3.072 1.492v2.108a.674.674 0 1 1-1.348 0V4.898a.55.55 0 0 0-.89-.432l-3.902 3.07A.674.674 0 0 1 12 7.68Z" fill="currentColor"/>
</svg>
