<svg width="20" height="20" fill="currentColor" xmlns="http://www.w3.org/2000/svg"><path d="M19.433 3.6 16.399.569A1.926 1.926 0 0 0 15.03 0c-.518 0-1.005.202-1.37.568L.961 13.264a.779.779 0 0 0-.221.446l-.734 5.406a.78.78 0 0 0 .877.877l5.406-.734a.78.78 0 0 0 .446-.221L19.433 6.342c.366-.366.567-.853.567-1.37 0-.518-.201-1.005-.567-1.371ZM5.82 17.75l-4.131.561.56-4.131 8.997-8.997 3.571 3.57L5.82 17.75ZM18.33 5.24l-2.41 2.412-3.57-3.57 2.411-2.413a.379.379 0 0 1 .538 0l3.033 3.033a.379.379 0 0 1 0 .538Z"/></svg>