<svg viewBox="0 0 177 100" fill="none" xmlns="http://www.w3.org/2000/svg">
  <path fill-rule="evenodd" clip-rule="evenodd" d="M166.961 7.644a2 2 0 0 0-2.251-2.812l-76.313 17.5a2 2 0 0 0-.727 3.569l17.58 12.744v17.636a2.001 2.001 0 0 0 3.321 1.502l10.716-9.426 21.384 9.744a2 2 0 0 0 2.634-.957l23.656-49.5ZM108.308 35.92 93.583 25.247l62.923-14.43-48.198 25.104Zm.942 1.764v14.173l8.367-7.36a.385.385 0 0 1 .022-.018l.016-.014a.998.998 0 0 1 .214-.242l37.608-30.616-46.227 24.077Zm31.293 15.962-19.927-9.08 39.719-32.335-19.792 41.415ZM93.278 65.729a1.5 1.5 0 0 0 1.93 2.296 93.435 93.435 0 0 0 2.449-2.13 57.65 57.65 0 0 0 .819-.753l.044-.042.012-.011.004-.004.001-.001L97.5 64l1.038 1.083a1.5 1.5 0 0 0-2.075-2.167l-.002.002-.008.008-.037.035a19.011 19.011 0 0 1-.154.145 90.663 90.663 0 0 1-2.984 2.623Zm-5.037 7.714a1.5 1.5 0 0 0-1.751-2.436 105.47 105.47 0 0 1-7.163 4.73 1.5 1.5 0 1 0 1.547 2.57c2.69-1.618 5.17-3.284 7.367-4.864Zm-15.172 9.06a1.5 1.5 0 0 0-1.28-2.714c-2.556 1.205-5.207 2.277-7.906 3.13a1.5 1.5 0 0 0 .905 2.86c2.847-.9 5.624-2.024 8.28-3.276Zm-17.046 5.22a1.5 1.5 0 0 0-.358-2.98A34.938 34.938 0 0 1 51.5 85c-1.392 0-2.728-.09-4.012-.26a1.5 1.5 0 1 0-.394 2.973A33.44 33.44 0 0 0 51.5 88c1.51 0 3.02-.097 4.523-.278Zm-17.422-2.388a1.5 1.5 0 1 0 1.212-2.745c-2.517-1.11-4.783-2.55-6.816-4.194a1.5 1.5 0 1 0-1.887 2.332c2.216 1.792 4.705 3.377 7.491 4.607ZM24.974 74.523a1.5 1.5 0 1 0 2.338-1.881C25.51 70.403 24 68.076 22.756 65.86a1.5 1.5 0 0 0-2.616 1.47c1.311 2.333 2.911 4.803 4.834 7.193Zm-8.515-15a1.5 1.5 0 0 0 2.796-1.086 49.986 49.986 0 0 1-1-2.813 32.043 32.043 0 0 1-.29-.956l-.013-.045-.002-.01a1.5 1.5 0 0 0-2.899.775l1.45-.388-1.45.388.001.003.002.005.004.018.018.061.064.227c.057.196.143.478.258.837.23.718.579 1.741 1.06 2.984Z" fill="currentColor"/>
</svg>
