<svg xmlns="http://www.w3.org/2000/svg" viewBox="0 0 240 185" fill="none">
  <g clip-path="url(#a)">
    <path fill-rule="evenodd" clip-rule="evenodd" d="M26.307-2.023H6.923A7.2 7.2 0 0 0-.37 5.269v19.385a7.25 7.25 0 0 0 7.293 7.292h19.384a7.25 7.25 0 0 0 7.293-7.292V5.269a7.25 7.25 0 0 0-7.293-7.292Zm-19.384-2.4A9.692 9.692 0 0 0-2.77 5.269v19.385a9.692 9.692 0 0 0 9.693 9.692h19.384A9.692 9.692 0 0 0 36 24.654V5.269a9.693 9.693 0 0 0-9.693-9.692H6.923Zm19.384 54.092H6.923A7.2 7.2 0 0 0-.37 56.962v19.384a7.25 7.25 0 0 0 7.293 7.292h19.384a7.25 7.25 0 0 0 7.293-7.292V56.961a7.25 7.25 0 0 0-7.293-7.292Zm-19.384-2.4a9.693 9.693 0 0 0-9.693 9.693v19.384a9.692 9.692 0 0 0 9.693 9.692h19.384A9.692 9.692 0 0 0 36 76.346V56.961a9.693 9.693 0 0 0-9.693-9.692H6.923Zm0 54.093h19.384a7.249 7.249 0 0 1 7.293 7.292v19.384a7.25 7.25 0 0 1-7.293 7.293H6.923a7.209 7.209 0 0 1-5.184-2.108 7.208 7.208 0 0 1-2.109-5.185v-19.384a7.249 7.249 0 0 1 7.293-7.292Zm-9.693 7.292a9.693 9.693 0 0 1 9.693-9.692h19.384A9.694 9.694 0 0 1 36 108.654v19.384a9.694 9.694 0 0 1-9.693 9.693H6.923a9.691 9.691 0 0 1-9.693-9.693v-19.384Zm29.077 44.4H6.923a7.19 7.19 0 0 0-5.184 2.108 7.208 7.208 0 0 0-2.109 5.184v19.385a7.25 7.25 0 0 0 7.293 7.292h19.384a7.25 7.25 0 0 0 7.293-7.292v-19.385a7.25 7.25 0 0 0-7.293-7.292Zm-19.384-2.4a9.691 9.691 0 0 0-9.693 9.692v19.385a9.691 9.691 0 0 0 9.693 9.692h19.384A9.691 9.691 0 0 0 36 179.731v-19.385a9.691 9.691 0 0 0-9.693-9.692H6.923Zm51.692-126.83H78a7.25 7.25 0 0 1 7.292 7.291V50.5A7.25 7.25 0 0 1 78 57.792H58.615a7.2 7.2 0 0 1-7.292-7.292V31.115a7.249 7.249 0 0 1 7.292-7.292Zm-9.692 7.291a9.692 9.692 0 0 1 9.692-9.692H78a9.692 9.692 0 0 1 9.692 9.692V50.5A9.692 9.692 0 0 1 78 60.192H58.615a9.692 9.692 0 0 1-9.692-9.692V31.115ZM78 75.515H58.615a7.2 7.2 0 0 0-7.292 7.293v19.384a7.25 7.25 0 0 0 7.292 7.293H78a7.25 7.25 0 0 0 7.292-7.293v-2.123c.39 1.933.977 3.819 1.754 5.631A9.689 9.689 0 0 1 78 111.885H58.615a9.695 9.695 0 0 1-9.692-9.693V82.808a9.692 9.692 0 0 1 9.692-9.693H78c4.061 0 7.569 2.493 9.046 6.185-.83 1.754-1.385 3.692-1.846 5.538v-2.03c0-4.062-3.139-7.293-7.2-7.293Zm61.384-12.83V56.96a9.694 9.694 0 0 0-9.692-9.692h-19.385a9.693 9.693 0 0 0-9.692 9.693v5.723l2.4-1.477v-4.246a7.25 7.25 0 0 1 7.292-7.293h19.385a7.249 7.249 0 0 1 7.292 7.293v4.246l2.4 1.477Zm13.57 43.015a9.691 9.691 0 0 0 9.046 6.185h19.384a9.696 9.696 0 0 0 9.693-9.693V82.808a9.695 9.695 0 0 0-9.693-9.693H162a9.69 9.69 0 0 0-9.046 6.185c.83 1.754 1.384 3.692 1.846 5.538v-2.03c0-4.062 3.138-7.293 7.2-7.293h19.384a7.25 7.25 0 0 1 7.293 7.293v19.384a7.25 7.25 0 0 1-7.293 7.293H162a7.188 7.188 0 0 1-5.184-2.109 7.188 7.188 0 0 1-2.109-5.184v-2.123a28.602 28.602 0 0 1-1.753 5.631Zm-52.339 16.615v5.816a9.69 9.69 0 0 0 9.692 9.692h19.385a9.692 9.692 0 0 0 9.692-9.692v-5.723l-2.4 1.384v4.339a7.249 7.249 0 0 1-7.292 7.292h-19.385a7.192 7.192 0 0 1-5.217-2.14 7.199 7.199 0 0 1-2.075-5.245v-4.153l-2.4-1.385v-.185Zm-42 4.893H78a7.249 7.249 0 0 1 7.292 7.292v19.385A7.25 7.25 0 0 1 78 161.177H58.615a7.21 7.21 0 0 1-5.184-2.108 7.209 7.209 0 0 1-2.108-5.184V134.5a7.248 7.248 0 0 1 7.292-7.292Zm-9.692 7.292a9.693 9.693 0 0 1 9.692-9.692H78a9.694 9.694 0 0 1 9.692 9.692v19.385A9.693 9.693 0 0 1 78 163.577H58.615a9.69 9.69 0 0 1-9.692-9.692V134.5ZM129.692-2.023h-19.385a7.198 7.198 0 0 0-7.292 7.292v19.385a7.25 7.25 0 0 0 7.292 7.292h19.385a7.249 7.249 0 0 0 7.292-7.292V5.269a7.249 7.249 0 0 0-7.292-7.292Zm-19.385-2.4a9.693 9.693 0 0 0-9.692 9.692v19.385a9.69 9.69 0 0 0 9.692 9.692h19.385a9.693 9.693 0 0 0 9.692-9.692V5.269a9.694 9.694 0 0 0-9.692-9.692h-19.385Zm-7.292 164.769a7.25 7.25 0 0 1 7.292-7.292h19.385a7.249 7.249 0 0 1 7.292 7.292v19.385a7.249 7.249 0 0 1-7.292 7.292h-19.385a7.207 7.207 0 0 1-5.184-2.108 7.216 7.216 0 0 1-2.108-5.184v-19.385Zm-2.4 0a9.69 9.69 0 0 1 9.692-9.692h19.385a9.692 9.692 0 0 1 9.692 9.692v19.385a9.693 9.693 0 0 1-9.692 9.692h-19.385a9.691 9.691 0 0 1-9.692-9.692v-19.385Zm80.769-136.523H162a7.206 7.206 0 0 0-5.184 2.108 7.195 7.195 0 0 0-2.109 5.184V50.5A7.25 7.25 0 0 0 162 57.792h19.384a7.25 7.25 0 0 0 7.293-7.292V31.115a7.25 7.25 0 0 0-7.293-7.292ZM162 21.423a9.691 9.691 0 0 0-9.693 9.692V50.5A9.695 9.695 0 0 0 162 60.192h19.384a9.693 9.693 0 0 0 9.693-9.692V31.115a9.695 9.695 0 0 0-9.693-9.692H162Zm19.384 105.785H162a7.186 7.186 0 0 0-5.184 2.108 7.193 7.193 0 0 0-2.109 5.184v19.385a7.25 7.25 0 0 0 7.293 7.292h19.384a7.25 7.25 0 0 0 7.293-7.292V134.5a7.249 7.249 0 0 0-7.293-7.292Zm-19.384-2.4a9.695 9.695 0 0 0-9.693 9.692v19.385a9.696 9.696 0 0 0 9.693 9.692h19.384a9.692 9.692 0 0 0 9.693-9.692V134.5a9.695 9.695 0 0 0-9.693-9.692H162ZM213.692-2.023h19.385a7.25 7.25 0 0 1 7.292 7.292v19.385a7.25 7.25 0 0 1-7.292 7.292h-19.385a7.198 7.198 0 0 1-7.292-7.292V5.269a7.249 7.249 0 0 1 7.292-7.292ZM204 5.269a9.691 9.691 0 0 1 9.692-9.692h19.385a9.693 9.693 0 0 1 9.692 9.692v19.385a9.69 9.69 0 0 1-9.692 9.692h-19.385A9.69 9.69 0 0 1 204 24.654V5.269Zm29.077 44.4h-19.385a7.198 7.198 0 0 0-7.292 7.293v19.384a7.249 7.249 0 0 0 7.292 7.292h19.385a7.25 7.25 0 0 0 7.292-7.292V56.961a7.25 7.25 0 0 0-7.292-7.292Zm-19.385-2.4A9.69 9.69 0 0 0 204 56.962v19.384a9.69 9.69 0 0 0 9.692 9.692h19.385a9.693 9.693 0 0 0 9.692-9.692V56.961a9.691 9.691 0 0 0-9.692-9.692h-19.385Zm0 54.093h19.385a7.249 7.249 0 0 1 7.292 7.292v19.384a7.25 7.25 0 0 1-7.292 7.293h-19.385a7.207 7.207 0 0 1-5.184-2.108 7.2 7.2 0 0 1-2.108-5.185v-19.384a7.248 7.248 0 0 1 7.292-7.292ZM204 108.654a9.692 9.692 0 0 1 9.692-9.692h19.385a9.694 9.694 0 0 1 9.692 9.692v19.384a9.692 9.692 0 0 1-9.692 9.693h-19.385a9.692 9.692 0 0 1-9.692-9.693v-19.384Zm29.077 44.4h-19.385a7.189 7.189 0 0 0-5.184 2.108 7.2 7.2 0 0 0-2.108 5.184v19.385a7.249 7.249 0 0 0 7.292 7.292h19.385a7.25 7.25 0 0 0 7.292-7.292v-19.385a7.25 7.25 0 0 0-7.292-7.292Zm-19.385-2.4a9.69 9.69 0 0 0-9.692 9.692v19.385a9.69 9.69 0 0 0 9.692 9.692h19.385a9.691 9.691 0 0 0 9.692-9.692v-19.385a9.69 9.69 0 0 0-9.692-9.692h-19.385Z" fill="url(#b)"/>
    <path d="M87.231 68.5c1.385-1.846 4.154-.923 4.154 1.477v.37a6.461 6.461 0 0 0 6.462 6.46h44.307a6.461 6.461 0 0 0 6.462-6.46v-.37c0-2.308 2.769-3.416 4.154-1.477.276.37.461.923.461 1.477v.37a11.078 11.078 0 0 1-11.077 11.076H97.847a11.077 11.077 0 0 1-11.078-11.077v-.37c0-.553.185-1.107.462-1.476Zm65.539 48c.276-.369.461-.923.461-1.477v-.369a11.08 11.08 0 0 0-11.077-11.077H97.847a11.078 11.078 0 0 0-11.078 11.077v.369c0 .554.185 1.108.462 1.477 1.385 1.846 4.154.923 4.154-1.477v-.369a6.461 6.461 0 0 1 6.462-6.462h44.307a6.46 6.46 0 0 1 6.462 6.462v.369c0 2.308 2.769 3.415 4.154 1.477Z" fill="#A0AEC0" fill-opacity=".5"/>
    <path fill-rule="evenodd" clip-rule="evenodd" d="M153.231 92.5a33.233 33.233 0 0 1-45.948 30.701 33.237 33.237 0 0 1-17.984-17.984A33.233 33.233 0 0 1 120 59.269 33.232 33.232 0 0 1 153.231 92.5Zm-5.262 33.877a3.963 3.963 0 0 0-4.984-.369 40.618 40.618 0 0 1-54.212-7.54 40.613 40.613 0 0 1 2.52-54.675 40.614 40.614 0 0 1 62.215 51.692c-1.108 1.569-.923 3.692.369 4.984l18.185 18.185a3.693 3.693 0 0 1 0 5.169l-.739.739a3.693 3.693 0 0 1-5.169 0l-18.185-18.185Z" fill="#A0AEC0"/>
  </g>
  <defs>
    <radialGradient id="b" cx="0" cy="0" r="1" gradientUnits="userSpaceOnUse" gradientTransform="matrix(0 96.9231 -119.218 0 116.449 92.5)">
      <stop stop-color="#CBD5E0" stop-opacity=".8"/>
      <stop offset="1" stop-color="#CBD5E0" stop-opacity="0"/>
    </radialGradient>
    <clipPath id="a">
      <path fill="#fff" transform="translate(0 .192)" d="M0 0h240v184.615H0z"/>
    </clipPath>
  </defs>
</svg>
