<svg viewBox="0 0 240 192" fill="none" xmlns="http://www.w3.org/2000/svg">
  <path fill-rule="evenodd" clip-rule="evenodd" d="M82.667 4H56a4 4 0 0 0-4 4v26.667a4 4 0 0 0 4 4h26.667a4 4 0 0 0 4-4V8a4 4 0 0 0-4-4ZM56 0a8 8 0 0 0-8 8v26.667a8 8 0 0 0 8 8h26.667a8 8 0 0 0 8-8V8a8 8 0 0 0-8-8H56Zm122.667 4H152a4 4 0 0 0-4 4v26.667a4 4 0 0 0 4 4h26.667a4 4 0 0 0 4-4V8a4 4 0 0 0-4-4ZM152 0a8 8 0 0 0-8 8v26.667a8 8 0 0 0 8 8h26.667a8 8 0 0 0 8-8V8a8 8 0 0 0-8-8H152ZM56 52h26.667a4 4 0 0 1 4 4v26.667a4 4 0 0 1-4 4H56a4 4 0 0 1-4-4V56a4 4 0 0 1 4-4Zm-8 4a8 8 0 0 1 8-8h26.667a8 8 0 0 1 8 8v26.667a8 8 0 0 1-8 8H56a8 8 0 0 1-8-8V56Zm34.667 44H56a4 4 0 0 0-4 4v26.667a4 4 0 0 0 4 4h26.667a4 4 0 0 0 4-4V104a4 4 0 0 0-4-4ZM56 96a8 8 0 0 0-8 8v26.667a8 8 0 0 0 8 8h26.667a8 8 0 0 0 8-8V104a8 8 0 0 0-8-8H56Zm0 52h26.667a4 4 0 0 1 4 4v26.667a4 4 0 0 1-4 4H56a4 4 0 0 1-4-4V152a4 4 0 0 1 4-4Zm-8 4a8 8 0 0 1 8-8h26.667a8 8 0 0 1 8 8v26.667a8 8 0 0 1-8 8H56a8 8 0 0 1-8-8V152ZM178.667 52H152a4 4 0 0 0-4 4v26.667a4 4 0 0 0 4 4h26.667a4 4 0 0 0 4-4V56a4 4 0 0 0-4-4ZM152 48a8 8 0 0 0-8 8v26.667a8 8 0 0 0 8 8h26.667a8 8 0 0 0 8-8V56a8 8 0 0 0-8-8H152Zm0 52h26.667a4 4 0 0 1 4 4v26.667a4 4 0 0 1-4 4H152a4 4 0 0 1-4-4V104a4 4 0 0 1 4-4Zm-8 4a8 8 0 0 1 8-8h26.667a8 8 0 0 1 8 8v26.667a8 8 0 0 1-8 8H152a8 8 0 0 1-8-8V104Zm34.667 44H152a4 4 0 0 0-4 4v26.667a4 4 0 0 0 4 4h26.667a4 4 0 0 0 4-4V152a4 4 0 0 0-4-4ZM152 144a8 8 0 0 0-8 8v26.667a8 8 0 0 0 8 8h26.667a8 8 0 0 0 8-8V152a8 8 0 0 0-8-8H152ZM8 28h26.667a4 4 0 0 1 4 4v26.667a4 4 0 0 1-4 4H8a4 4 0 0 1-4-4V32a4 4 0 0 1 4-4Zm-8 4a8 8 0 0 1 8-8h26.667a8 8 0 0 1 8 8v26.667a8 8 0 0 1-8 8H8a8 8 0 0 1-8-8V32Zm104-4h26.667a4 4 0 0 1 4 4v26.667a4 4 0 0 1-4 4H104a4 4 0 0 1-4-4V32a4 4 0 0 1 4-4Zm-8 4a8 8 0 0 1 8-8h26.667a8 8 0 0 1 8 8v26.667a8 8 0 0 1-8 8H104a8 8 0 0 1-8-8V32Zm130.667-4H200a4 4 0 0 0-4 4v26.667a4 4 0 0 0 4 4h26.667a4 4 0 0 0 4-4V32a4 4 0 0 0-4-4ZM200 24a8 8 0 0 0-8 8v26.667a8 8 0 0 0 8 8h26.667a8 8 0 0 0 8-8V32a8 8 0 0 0-8-8H200Zm-96 52h26.667a4 4 0 0 1 4 4v26.667a4 4 0 0 1-4 4H104a4 4 0 0 1-4-4V80a4 4 0 0 1 4-4Zm-8 4a8 8 0 0 1 8-8h26.667a8 8 0 0 1 8 8v26.667a8 8 0 0 1-8 8H104a8 8 0 0 1-8-8V80Zm34.667 44H104a4 4 0 0 0-4 4v26.667a4 4 0 0 0 4 4h26.667a4 4 0 0 0 4-4V128a4 4 0 0 0-4-4ZM104 120a8 8 0 0 0-8 8v26.667a8 8 0 0 0 8 8h26.667a8 8 0 0 0 8-8V128a8 8 0 0 0-8-8H104Zm96-44h26.667a4 4 0 0 1 4 4v26.667a4 4 0 0 1-4 4H200a4 4 0 0 1-4-4V80a4 4 0 0 1 4-4Zm-8 4a8 8 0 0 1 8-8h26.667a8 8 0 0 1 8 8v26.667a8 8 0 0 1-8 8H200a8 8 0 0 1-8-8V80Zm34.667 44H200a4 4 0 0 0-4 4v26.667a4 4 0 0 0 4 4h26.667a4 4 0 0 0 4-4V128a4 4 0 0 0-4-4ZM200 120a8 8 0 0 0-8 8v26.667a8 8 0 0 0 8 8h26.667a8 8 0 0 0 8-8V128a8 8 0 0 0-8-8H200ZM8 76h26.667a4 4 0 0 1 4 4v26.667a4 4 0 0 1-4 4H8a4 4 0 0 1-4-4V80a4 4 0 0 1 4-4Zm-8 4a8 8 0 0 1 8-8h26.667a8 8 0 0 1 8 8v26.667a8 8 0 0 1-8 8H8a8 8 0 0 1-8-8V80Zm34.667 44H8a4 4 0 0 0-4 4v26.667a4 4 0 0 0 4 4h26.667a4 4 0 0 0 4-4V128a4 4 0 0 0-4-4ZM8 120a8 8 0 0 0-8 8v26.667a8 8 0 0 0 8 8h26.667a8 8 0 0 0 8-8V128a8 8 0 0 0-8-8H8Z" fill="url(#empty_search_result_svg__a)"/>
  <path d="m135.337 94.376 11.182 11.242-3.694 3.715-11.18-11.245a23.31 23.31 0 0 1-14.666 5.17c-12.971 0-23.498-10.586-23.498-23.629C93.48 66.586 104.008 56 116.979 56c12.971 0 23.499 10.586 23.499 23.629a23.614 23.614 0 0 1-5.141 14.747Zm-5.238-1.948a18.372 18.372 0 0 0 5.157-12.799c0-10.155-8.18-18.378-18.277-18.378-10.099 0-18.276 8.223-18.276 18.378 0 10.153 8.177 18.378 18.276 18.378a18.166 18.166 0 0 0 12.729-5.185l.391-.394Z" fill="#A0AEC0"/>
  <defs>
    <radialGradient id="empty_search_result_svg__a" cx="0" cy="0" r="1" gradientUnits="userSpaceOnUse" gradientTransform="rotate(103.716 25.035 85.404) scale(58.3301 137.703)">
      <stop offset=".081" stop-color="#CBD5E0" stop-opacity="0"/>
      <stop offset=".563" stop-color="#CBD5E0" stop-opacity=".54"/>
      <stop offset="1" stop-color="#CBD5E0" stop-opacity="0"/>
    </radialGradient>
  </defs>
</svg>
