<svg xmlns="http://www.w3.org/2000/svg" viewBox="0 0 240 185" fill="none">
  <mask id="a" style="mask-type:luminance" maskUnits="userSpaceOnUse" x="0" y="0" width="240" height="185">
    <path d="M0 .191h240v184.615H0V.191Z" fill="#fff"/>
  </mask>
  <g mask="url(#a)">
    <path fill-rule="evenodd" clip-rule="evenodd" d="M26.307-2.024H6.923A7.2 7.2 0 0 0-.37 5.268v19.385a7.25 7.25 0 0 0 7.293 7.292h19.384a7.249 7.249 0 0 0 7.293-7.292V5.268a7.25 7.25 0 0 0-7.293-7.292Zm-19.384-2.4A9.692 9.692 0 0 0-2.77 5.268v19.385a9.692 9.692 0 0 0 9.693 9.692h19.384A9.693 9.693 0 0 0 36 24.653V5.268a9.693 9.693 0 0 0-9.693-9.692H6.923Zm19.384 54.092H6.923A7.2 7.2 0 0 0-.37 56.961v19.384a7.25 7.25 0 0 0 7.293 7.292h19.384a7.249 7.249 0 0 0 7.293-7.292V56.96a7.25 7.25 0 0 0-7.293-7.292Zm-19.384-2.4a9.693 9.693 0 0 0-9.693 9.693v19.384a9.692 9.692 0 0 0 9.693 9.692h19.384A9.693 9.693 0 0 0 36 76.345V56.96a9.693 9.693 0 0 0-9.693-9.692H6.923Zm0 54.093h19.384a7.253 7.253 0 0 1 6.75 4.495 7.25 7.25 0 0 1 .543 2.797v19.384a7.255 7.255 0 0 1-4.495 6.75 7.254 7.254 0 0 1-2.798.543H6.923a7.207 7.207 0 0 1-5.184-2.108 7.211 7.211 0 0 1-2.109-5.185v-19.384a7.246 7.246 0 0 1 4.495-6.749 7.253 7.253 0 0 1 2.798-.543Zm-9.693 7.292a9.692 9.692 0 0 1 9.693-9.692h19.384A9.694 9.694 0 0 1 36 108.653v19.384a9.695 9.695 0 0 1-9.693 9.693H6.923a9.696 9.696 0 0 1-6.855-2.838 9.691 9.691 0 0 1-2.838-6.855v-19.384Zm29.077 44.4H6.923a7.191 7.191 0 0 0-6.762 4.487 7.207 7.207 0 0 0-.531 2.805v19.385a7.257 7.257 0 0 0 2.124 5.169 7.252 7.252 0 0 0 5.17 2.123h19.383a7.252 7.252 0 0 0 6.75-4.494 7.258 7.258 0 0 0 .543-2.798v-19.385a7.249 7.249 0 0 0-7.293-7.292Zm-19.384-2.4a9.695 9.695 0 0 0-8.955 5.983 9.689 9.689 0 0 0-.738 3.709v19.385a9.694 9.694 0 0 0 5.984 8.955 9.695 9.695 0 0 0 3.709.737h19.384a9.695 9.695 0 0 0 8.955-5.982 9.694 9.694 0 0 0 .738-3.71v-19.385a9.69 9.69 0 0 0-9.693-9.692H6.923Zm51.692-126.83H78a7.25 7.25 0 0 1 7.292 7.291V50.5A7.25 7.25 0 0 1 78 57.791H58.615a7.2 7.2 0 0 1-7.292-7.292V31.114a7.248 7.248 0 0 1 7.292-7.29Zm-9.692 7.291a9.692 9.692 0 0 1 9.692-9.692H78a9.692 9.692 0 0 1 9.692 9.692V50.5A9.692 9.692 0 0 1 78 60.191H58.615a9.692 9.692 0 0 1-9.692-9.692V31.114ZM78 75.514H58.615a7.198 7.198 0 0 0-7.292 7.293v19.384a7.257 7.257 0 0 0 2.123 5.169 7.231 7.231 0 0 0 2.372 1.58c.887.365 1.838.55 2.797.544H78c.96.006 1.91-.179 2.797-.544a7.247 7.247 0 0 0 4.495-6.749v-2.123c.39 1.933.977 3.819 1.754 5.631A9.686 9.686 0 0 1 78 111.884H58.615a9.695 9.695 0 0 1-9.692-9.693V82.807a9.693 9.693 0 0 1 9.692-9.693H78c4.061 0 7.569 2.493 9.046 6.185-.83 1.754-1.385 3.692-1.846 5.538v-2.03c0-4.062-3.139-7.293-7.2-7.293Zm61.384-12.83V56.96a9.696 9.696 0 0 0-9.692-9.692h-19.385a9.69 9.69 0 0 0-9.692 9.693v5.723l2.4-1.477V56.96a7.252 7.252 0 0 1 7.292-7.293h19.385a7.255 7.255 0 0 1 5.169 2.124 7.248 7.248 0 0 1 2.123 5.17v4.245l2.4 1.477v.001Zm13.57 43.015a9.689 9.689 0 0 0 9.046 6.185h19.384a9.695 9.695 0 0 0 9.693-9.693V82.807a9.696 9.696 0 0 0-9.693-9.693H162a9.687 9.687 0 0 0-9.046 6.185c.83 1.754 1.384 3.692 1.846 5.538v-2.03c0-4.062 3.138-7.293 7.2-7.293h19.384a7.255 7.255 0 0 1 5.17 2.124 7.246 7.246 0 0 1 2.123 5.17v19.383a7.257 7.257 0 0 1-4.495 6.75 7.258 7.258 0 0 1-2.798.543H162a7.196 7.196 0 0 1-7.293-7.293v-2.123a28.581 28.581 0 0 1-1.753 5.631Zm-52.339 16.615v5.816a9.692 9.692 0 0 0 9.692 9.692h19.385a9.69 9.69 0 0 0 9.692-9.692v-5.723l-2.4 1.384v4.339a7.25 7.25 0 0 1-7.292 7.292h-19.385a7.191 7.191 0 0 1-6.79-4.551 7.207 7.207 0 0 1-.502-2.834v-4.153l-2.4-1.385v-.185Zm-42 4.893H78a7.244 7.244 0 0 1 7.292 7.292v19.385A7.248 7.248 0 0 1 78 161.176H58.615a7.207 7.207 0 0 1-5.184-2.108 7.211 7.211 0 0 1-2.108-5.184v-19.385a7.246 7.246 0 0 1 7.292-7.292Zm-9.692 7.292a9.695 9.695 0 0 1 9.692-9.692H78a9.696 9.696 0 0 1 9.692 9.692v19.385A9.691 9.691 0 0 1 78 163.576H58.615a9.695 9.695 0 0 1-6.854-2.838 9.692 9.692 0 0 1-2.838-6.854v-19.385ZM129.692-2.024h-19.385a7.195 7.195 0 0 0-6.763 4.487 7.19 7.19 0 0 0-.529 2.805v19.385a7.244 7.244 0 0 0 7.292 7.292h19.385a7.246 7.246 0 0 0 6.749-4.495 7.25 7.25 0 0 0 .543-2.797V5.268a7.251 7.251 0 0 0-4.495-6.748 7.247 7.247 0 0 0-2.797-.544Zm-19.385-2.4a9.695 9.695 0 0 0-9.692 9.692v19.385a9.694 9.694 0 0 0 5.983 8.955 9.689 9.689 0 0 0 3.709.737h19.385a9.695 9.695 0 0 0 9.692-9.692V5.268a9.698 9.698 0 0 0-9.692-9.692h-19.385Zm-7.292 164.769a7.242 7.242 0 0 1 4.495-6.748 7.25 7.25 0 0 1 2.797-.544h19.385a7.232 7.232 0 0 1 2.797.544 7.236 7.236 0 0 1 3.952 3.951 7.25 7.25 0 0 1 .543 2.797v19.385a7.25 7.25 0 0 1-7.292 7.292h-19.385a7.207 7.207 0 0 1-5.184-2.108 7.213 7.213 0 0 1-2.108-5.184v-19.385Zm-2.4 0a9.692 9.692 0 0 1 9.692-9.692h19.385a9.69 9.69 0 0 1 9.692 9.692v19.385a9.691 9.691 0 0 1-9.692 9.692h-19.385a9.692 9.692 0 0 1-9.692-9.692v-19.385Zm80.769-136.523H162a7.205 7.205 0 0 0-7.293 7.292V50.5c-.006.96.179 1.91.544 2.797A7.24 7.24 0 0 0 162 57.791h19.384a7.246 7.246 0 0 0 6.749-4.494 7.24 7.24 0 0 0 .544-2.798V31.114a7.234 7.234 0 0 0-.544-2.797 7.239 7.239 0 0 0-6.749-4.495ZM162 21.422a9.687 9.687 0 0 0-8.955 5.983 9.696 9.696 0 0 0-.738 3.71v19.384A9.694 9.694 0 0 0 162 60.191h19.384a9.693 9.693 0 0 0 9.693-9.692V31.114a9.695 9.695 0 0 0-9.693-9.692H162Zm19.384 105.785H162a7.196 7.196 0 0 0-7.293 7.292v19.385a7.24 7.24 0 0 0 2.124 5.169 7.254 7.254 0 0 0 5.169 2.123h19.384a7.25 7.25 0 0 0 7.293-7.292v-19.385a7.232 7.232 0 0 0-.544-2.797 7.236 7.236 0 0 0-3.951-3.952 7.258 7.258 0 0 0-2.798-.543Zm-19.384-2.4a9.697 9.697 0 0 0-9.693 9.692v19.385a9.7 9.7 0 0 0 2.84 6.853 9.7 9.7 0 0 0 6.853 2.839h19.384a9.692 9.692 0 0 0 9.693-9.692v-19.385a9.697 9.697 0 0 0-9.693-9.692H162Zm51.692-126.83h19.385a7.25 7.25 0 0 1 7.292 7.291v19.385a7.244 7.244 0 0 1-7.292 7.292h-19.385a7.195 7.195 0 0 1-6.763-4.486 7.19 7.19 0 0 1-.529-2.806V5.268a7.251 7.251 0 0 1 4.495-6.748 7.247 7.247 0 0 1 2.797-.544ZM204 5.267a9.693 9.693 0 0 1 5.983-8.954 9.69 9.69 0 0 1 3.709-.738h19.385a9.695 9.695 0 0 1 9.692 9.692v19.385a9.694 9.694 0 0 1-5.983 8.955 9.689 9.689 0 0 1-3.709.737h-19.385A9.689 9.689 0 0 1 204 24.653V5.268Zm29.077 44.4h-19.385a7.2 7.2 0 0 0-7.292 7.293v19.384a7.25 7.25 0 0 0 7.292 7.292h19.385a7.252 7.252 0 0 0 7.292-7.292V56.96a7.244 7.244 0 0 0-7.292-7.292Zm-19.385-2.4a9.696 9.696 0 0 0-6.854 2.839A9.692 9.692 0 0 0 204 56.96v19.384a9.694 9.694 0 0 0 5.983 8.955 9.689 9.689 0 0 0 3.709.737h19.385a9.695 9.695 0 0 0 9.692-9.692V56.96a9.694 9.694 0 0 0-2.838-6.853 9.692 9.692 0 0 0-6.854-2.839h-19.385Zm0 54.093h19.385a7.232 7.232 0 0 1 2.797.544 7.236 7.236 0 0 1 3.952 3.951 7.25 7.25 0 0 1 .543 2.797v19.384a7.258 7.258 0 0 1-.543 2.798 7.26 7.26 0 0 1-3.952 3.951 7.232 7.232 0 0 1-2.797.544h-19.385a7.207 7.207 0 0 1-5.184-2.108 7.2 7.2 0 0 1-2.108-5.185v-19.384a7.25 7.25 0 0 1 7.292-7.292ZM204 108.653a9.693 9.693 0 0 1 9.692-9.692h19.385a9.698 9.698 0 0 1 6.853 2.839 9.7 9.7 0 0 1 2.839 6.853v19.384a9.692 9.692 0 0 1-9.692 9.693h-19.385a9.693 9.693 0 0 1-9.692-9.693v-19.384Zm29.077 44.4h-19.385a7.196 7.196 0 0 0-7.292 7.292v19.385a7.25 7.25 0 0 0 7.292 7.292h19.385a7.257 7.257 0 0 0 5.169-2.123 7.236 7.236 0 0 0 1.579-2.372c.365-.887.55-1.838.544-2.797v-19.385a7.242 7.242 0 0 0-4.495-6.748 7.25 7.25 0 0 0-2.797-.544Zm-19.385-2.4a9.692 9.692 0 0 0-9.692 9.692v19.385a9.692 9.692 0 0 0 9.692 9.692h19.385a9.692 9.692 0 0 0 9.692-9.692v-19.385a9.692 9.692 0 0 0-9.692-9.692h-19.385Z" fill="url(#b)"/>
    <path d="M87.231 68.5c1.385-1.846 4.154-.923 4.154 1.477v.37a6.46 6.46 0 0 0 6.462 6.46h44.307a6.467 6.467 0 0 0 4.569-1.892 6.464 6.464 0 0 0 1.893-4.568v-.37c0-2.308 2.769-3.416 4.154-1.477.276.37.461.923.461 1.477v.37a11.081 11.081 0 0 1-11.077 11.076H97.847a11.078 11.078 0 0 1-11.078-11.077v-.37c0-.553.185-1.107.462-1.476Zm65.539 48c.276-.369.461-.923.461-1.477v-.369a11.08 11.08 0 0 0-11.077-11.077H97.847a11.08 11.08 0 0 0-11.078 11.077v.369c0 .554.185 1.108.462 1.477 1.385 1.846 4.154.923 4.154-1.477v-.369a6.46 6.46 0 0 1 6.462-6.462h44.307a6.47 6.47 0 0 1 5.971 3.988c.324.785.491 1.625.491 2.474v.369c0 2.308 2.769 3.415 4.154 1.477Z" fill="#B9B9B9" fill-opacity=".5"/>
    <path fill-rule="evenodd" clip-rule="evenodd" d="M153.231 92.5a33.24 33.24 0 0 1-14.77 27.629 33.228 33.228 0 1 1-34.125-56.935 33.231 33.231 0 0 1 39.162 5.808 33.23 33.23 0 0 1 9.733 23.498Zm-5.262 33.877a3.964 3.964 0 0 0-4.984-.369 40.617 40.617 0 0 1-63.546-35.366 40.613 40.613 0 0 1 11.854-26.849 40.613 40.613 0 0 1 62.215 51.692c-1.108 1.569-.923 3.692.369 4.984l18.185 18.185a3.694 3.694 0 0 1 0 5.169l-.739.739a3.693 3.693 0 0 1-5.169 0l-18.185-18.185Z" fill="#B9B9B9"/>
  </g>
  <defs>
    <radialGradient id="b" cx="0" cy="0" r="1" gradientUnits="userSpaceOnUse" gradientTransform="matrix(0 96.9231 -119.218 0 116.449 92.5)">
      <stop stop-color="#B9B9B9" stop-opacity=".8"/>
      <stop offset="1" stop-color="#B9B9B9" stop-opacity="0"/>
    </radialGradient>
  </defs>
</svg>
