<svg viewBox="0 0 30 30" fill="none" xmlns="http://www.w3.org/2000/svg">
  <path fill-rule="evenodd" clip-rule="evenodd" d="M14.41 3 7.764 7.625c-.396.263-.72.62-.946 1.038a4.74 4.74 0 0 0-.046.1l-.009.019a4.786 4.786 0 0 0 .01 3.93c.233.508.828 1.51.828 1.51L14.41 3ZM4.076 16.404A15.45 15.45 0 0 1 4 14.886l1.168-3.159a6.617 6.617 0 0 0 .755 2.095C9.802 20.393 14.401 27 14.401 27l-7.35-5.108A7.562 7.562 0 0 1 4.25 17.57a7.53 7.53 0 0 1-.174-1.166ZM4 14.886l1.144-3.306a3.575 3.575 0 0 1 0-1.076c-.101.187-.298.57-.298.57a8.68 8.68 0 0 0-.794 2.534A15.45 15.45 0 0 0 4 14.886ZM15.192 27l.063-.103 6.734-11.113.005.009.007-.012s.589 1.002.827 1.51a4.787 4.787 0 0 1-.045 4.05c-.225.417-.55.774-.946 1.037L15.192 27Zm9.263-7.504c.054-.357.054-.72 0-1.076a6.622 6.622 0 0 0-.776-2.242C19.796 9.607 15.2 3 15.2 3l7.35 5.108a7.533 7.533 0 0 1 2.975 5.488c.091.93.098 1.865.02 2.796a8.68 8.68 0 0 1-.794 2.535s-.196.382-.297.57v-.001Z" fill="currentColor"/>
</svg>
