<svg viewBox="0 0 20 20" fill="none" xmlns="http://www.w3.org/2000/svg">
  <path d="M3.145 8.091c.198.423.689 1.258.689 1.258L9.508 0 3.97 3.854c-.33.22-.6.517-.788.865a3.989 3.989 0 0 0-.037 3.372ZM.897 11.17a6.277 6.277 0 0 0 2.478 4.573L9.501 20S5.668 14.495 2.436 9.018a5.52 5.52 0 0 1-.65-1.868 2.98 2.98 0 0 1 0-.897 35.09 35.09 0 0 0-.247.475A7.234 7.234 0 0 0 .877 8.84a12.86 12.86 0 0 0 .02 2.33Zm15.626.739c-.198-.423-.689-1.258-.689-1.258L10.16 20l5.538-3.852c.33-.22.6-.516.788-.864a3.99 3.99 0 0 0 .037-3.375Zm2.249-3.079a6.279 6.279 0 0 0-2.48-4.573L10.168 0s3.83 5.505 7.065 10.982a5.52 5.52 0 0 1 .647 1.868c.045.297.045.6 0 .897.084-.156.248-.475.248-.475a7.223 7.223 0 0 0 .662-2.112c.065-.776.059-1.555-.017-2.33Z" fill="currentColor"/>
  <path d="M3.182 4.719c.188-.348.458-.645.788-.865L9.508 0 3.834 9.351s-.496-.835-.69-1.257a3.989 3.989 0 0 1 .038-3.375Zm-2.285 6.45a6.278 6.278 0 0 0 2.478 4.574L9.501 20S5.668 14.495 2.436 9.018a5.52 5.52 0 0 1-.65-1.868 2.98 2.98 0 0 1 0-.897 34.31 34.31 0 0 0-.247.475A7.234 7.234 0 0 0 .877 8.84c-.064.776-.057 1.555.02 2.33Zm15.616.742c-.198-.422-.689-1.258-.689-1.258L10.16 20l5.538-3.852c.33-.22.6-.516.788-.864a3.99 3.99 0 0 0 .037-3.375l-.01.002Zm2.249-3.078a6.277 6.277 0 0 0-2.48-4.574L10.169 0s3.83 5.505 7.064 10.982a5.52 5.52 0 0 1 .647 1.868c.045.297.045.6 0 .897.084-.156.248-.475.248-.475a7.233 7.233 0 0 0 .662-2.112c.064-.776.059-1.555-.018-2.33l-.01.003Z" fill="currentColor" style="mix-blend-mode:color"/>
</svg>
