<svg xmlns="http://www.w3.org/2000/svg" viewBox="0 0 20 20" fill="none">
  <path d="M10 18.333a8.333 8.333 0 1 0 0-16.667 8.333 8.333 0 0 0 0 16.667Z" stroke="currentColor" stroke-width="2" stroke-linecap="round" stroke-linejoin="round"/>
  <path d="M12.268 6.888c.407-.136.611-.204.746-.156a.42.42 0 0 1 .253.253c.048.135-.02.339-.155.746l-1.24 3.719c-.039.116-.058.174-.09.222a.417.417 0 0 1-.11.108c-.048.034-.106.053-.222.091l-3.718 1.24c-.408.136-.611.204-.747.155a.417.417 0 0 1-.252-.252c-.048-.135.02-.34.155-.746l1.24-3.72a.907.907 0 0 1 .09-.221.417.417 0 0 1 .11-.109.907.907 0 0 1 .222-.09l3.718-1.24Z" stroke="currentColor" stroke-width="2" stroke-linecap="round" stroke-linejoin="round"/>
</svg>
