<svg xmlns="http://www.w3.org/2000/svg" viewBox="0 0 20 20" fill="none">
  <path d="M7.04 7.357a8.027 8.027 0 0 0 .152 1.682 6.627 6.627 0 0 1-.395-1.169l-.031-.137-.083-.113a.713.713 0 0 0-1.074-.088c-2.027 1.823-2.483 3.879-2.225 5.654.252 1.732 1.175 3.162 1.858 3.86 1.001 1.027 2.603 1.632 4.238 1.636 1.655.003 3.416-.608 4.709-2.109 2.158-2.502 2.05-6.254-.805-8.709h0c-1.145-.983-1.567-2.233-1.683-3.341a7.08 7.08 0 0 1 .149-2.312h0l.001-.008a.721.721 0 0 0-1.071-.781C7.943 3.106 7.078 5.366 7.04 7.357Z" stroke="currentColor" stroke-width="1.363" stroke-linecap="round"/>
</svg>
