<svg viewBox="0 0 20 20" fill="none" xmlns="http://www.w3.org/2000/svg">
  <path d="M9.575 15v4.599L8.841 20l-.714-.401V15h1.448Zm2.899-12.955-.738 1.278L8.928 1.71v1.453H8.7V1.73l-6.462 3.8 6.138 3.617-.701 1.215L1.37 6.8v7.48l1.244-.713.113.197-1.26.72 5.324 3.118.033 1.671L0 15.297V5.029L8.83 0l3.644 2.045ZM5.068 12.43l-1.32.752-.111-.197 1.32-.752.111.197Zm2.245-1.44-.134.232-1.12.637-.112-.196 1.32-.752.045.078Zm1.615-4.17v1.37l-.081.142H8.7V6.821h.227Zm0-2.644v1.52H8.7v-1.52h.227Z" fill="currentColor"/>
  <path d="M14.353 9.353H20L12.941 19.94v-6.353H8L14.353 3v6.353Zm-1.412 1.412V8.096l-2.448 4.08h3.86v3.102l3.01-4.513H12.94Z" fill="currentColor"/>
</svg>
