<svg xmlns="http://www.w3.org/2000/svg" fill="none" viewBox="0 0 20 20">
  <path fill="currentColor" d="M10.442.847a.505.505 0 0 1 .834.515l-.49 1.477h1.649a.505.505 0 0 1 .356.86l-.31.31h.596c1.11 0 2.1.513 2.746 1.315l.377-1.07a1.255 1.255 0 0 1-.348-.749l-.006-.126a1.26 1.26 0 0 1 2.517 0l-.008.152a1.258 1.258 0 0 1-.495.855v5.035l-.006.144a1.638 1.638 0 0 1-1.252 1.449v1.177l-.01.33a6.42 6.42 0 0 1-12.821 0l-.008-.33v-1.177a1.639 1.639 0 0 1-1.253-1.45l-.006-.143V4.386a1.258 1.258 0 0 1-.495-.855L2 3.38a1.26 1.26 0 0 1 1.259-1.259l.129.007c.634.065 1.13.6 1.13 1.252l-.007.126c-.03.29-.156.551-.348.75l.377 1.07a3.517 3.517 0 0 1 2.54-1.31l.207-.007h.122a.504.504 0 0 1 .139-.267L10.442.847Zm6.513 3.673-.377 1.07-.476 1.356-.902-1.12a2.717 2.717 0 0 0-2.123-1.017h-1.396l-.366.366v1.603a1.133 1.133 0 0 1-2.266 0v-.434a.501.501 0 0 1 0-.209V4.809H7.287c-.858 0-1.623.396-2.124 1.017l-.901 1.12-.477-1.356-.377-1.07-.104-.298v5.2c0 .393.274.726.642.813l.616.145v1.81c0 .18.01.356.026.53l2.256 1.867v2.123c.933.69 2.087 1.1 3.338 1.1 1.286 0 2.47-.433 3.418-1.16v-2.063l2.169-1.796a5.95 5.95 0 0 0 .033-.6v-1.81l.615-.146a.837.837 0 0 0 .643-.814v-5.2l-.105.299ZM12.07 14.833H8.294v-1.007h3.776v1.007Zm2.14-6.293c.417 0 .756.34.756.756v2.014a.757.757 0 0 1-.756.756H6.153a.756.756 0 0 1-.755-.756V9.295c0-.417.339-.755.755-.756h8.056Zm-6.797.63a.756.756 0 0 0-.755.755v.755a.756.756 0 0 0 1.511 0v-.755a.756.756 0 0 0-.756-.755Zm5.54 0a.756.756 0 0 0-.757.755v.756a.756.756 0 0 0 1.511 0v-.756a.756.756 0 0 0-.755-.755ZM8.38 4.008l-.012.013h1.864l-.261.788-.303.912 2.3-2.3h-1.864l.564-1.701L8.38 4.008ZM3.259 2.92a.46.46 0 0 0-.275.826l.32.24v.005l.285-.294a.46.46 0 0 0-.33-.777Zm13.846 0a.459.459 0 0 0-.33.777l.285.293v-.003l.32-.24a.46.46 0 0 0-.275-.826Z"/>
</svg>
