<svg viewBox="0 0 30 30" fill="none" xmlns="http://www.w3.org/2000/svg">
  <path d="M23.462 11.511A2.197 2.197 0 0 1 25 13.608v4.286a2.2 2.2 0 0 1-2.03 2.193c-.35.027-.698.052-1.047.072v3.091l-3.077-3c-1.389 0-2.763-.055-4.123-.163a2.21 2.21 0 0 1-.846-.242m9.585-8.334a2.23 2.23 0 0 0-.489-.095 51.166 51.166 0 0 0-8.254 0 2.198 2.198 0 0 0-2.027 2.192v4.286a2.2 2.2 0 0 0 1.185 1.951m9.585-8.334V9.637c0-1.621-1.182-3.026-2.831-3.235A50.953 50.953 0 0 0 14.23 6c-2.17 0-4.306.137-6.4.402C6.18 6.611 5 8.016 5 9.637v6.226c0 1.621 1.182 3.026 2.83 3.235.593.075 1.187.14 1.785.194V24l4.262-4.155" stroke="currentColor" stroke-width="1.5" stroke-linecap="round" stroke-linejoin="round"/>
</svg>
