<svg xmlns="http://www.w3.org/2000/svg" fill="none" viewBox="0 0 30 30">
  <path stroke="currentColor" stroke-linecap="round" stroke-linejoin="round" stroke-width="1.6" d="M24.24 18.89v-8.582c0-.28-.072-.556-.206-.8a1.576 1.576 0 0 0-.56-.587L16.16 4.476A2.232 2.232 0 0 0 15 4.149c-.408 0-.809.113-1.161.327L6.525 8.92a1.576 1.576 0 0 0-.56.587c-.134.244-.204.52-.205.8v8.581c0 .281.071.557.205.801s.327.446.56.588l7.315 4.445c.352.214.753.327 1.16.327.408 0 .809-.113 1.161-.327l7.315-4.445c.232-.142.425-.345.559-.588.134-.244.204-.52.204-.8Z"/>
  <path stroke="transparent" stroke-linecap="round" stroke-linejoin="round" stroke-opacity=".2" stroke-width="1.6" d="M24.24 18.89v-8.582c0-.28-.072-.556-.206-.8a1.576 1.576 0 0 0-.56-.587L16.16 4.476A2.232 2.232 0 0 0 15 4.149c-.408 0-.809.113-1.161.327L6.525 8.92a1.576 1.576 0 0 0-.56.587c-.134.244-.204.52-.205.8v8.581c0 .281.071.557.205.801s.327.446.56.588l7.315 4.445c.352.214.753.327 1.16.327.408 0 .809-.113 1.161-.327l7.315-4.445c.232-.142.425-.345.559-.588.134-.244.204-.52.204-.8Z"/>
  <path fill="currentColor" fill-rule="evenodd" d="M6.42 8.792a.8.8 0 1 0-.838 1.364l8.618 5.293v9.602a.8.8 0 1 0 1.6 0V15.45l8.617-5.293a.8.8 0 0 0-.837-1.364L15 14.062l-8.58-5.27Z" clip-rule="evenodd"/>
  <path fill="transparent" fill-opacity=".2" fill-rule="evenodd" d="M6.42 8.792a.8.8 0 1 0-.838 1.364l8.618 5.293v9.602a.8.8 0 1 0 1.6 0V15.45l8.617-5.293a.8.8 0 0 0-.837-1.364L15 14.062l-8.58-5.27Z" clip-rule="evenodd"/>
  <path fill="currentColor" fill-rule="evenodd" d="M15 10.177c.638 0 1.155-.36 1.155-.804 0-.444-.517-.804-1.155-.804-.637 0-1.155.36-1.155.804 0 .444.518.804 1.155.804Zm-2.9 7.735c.497 0 .9-.54.9-1.206 0-.666-.403-1.206-.9-1.206s-.9.54-.9 1.206c0 .666.403 1.206.9 1.206Zm-3 .306c0 .666-.403 1.206-.9 1.206s-.9-.54-.9-1.206c0-.667.403-1.207.9-1.207s.9.54.9 1.207Zm8.458-.404c.496.029.93-.487.968-1.152.04-.665-.331-1.227-.828-1.256-.496-.03-.93.486-.968 1.15-.04.666.331 1.228.828 1.258Zm5.068-3.305c-.039.665-.472 1.18-.969 1.152-.496-.03-.866-.592-.828-1.257.04-.665.473-1.18.97-1.151.496.029.866.591.827 1.256Zm-5.069 7.352c.497.029.93-.487.97-1.152.038-.665-.332-1.227-.829-1.256-.496-.03-.93.486-.969 1.151-.039.665.332 1.227.828 1.257Zm5.07-3.591c-.04.665-.473 1.18-.97 1.151-.496-.029-.866-.591-.828-1.256.04-.665.473-1.18.97-1.152.496.03.866.592.827 1.257Z" clip-rule="evenodd"/>
  <path fill="transparent" fill-opacity=".2" fill-rule="evenodd" d="M15 10.177c.638 0 1.155-.36 1.155-.804 0-.444-.517-.804-1.155-.804-.637 0-1.155.36-1.155.804 0 .444.518.804 1.155.804Zm-2.9 7.735c.497 0 .9-.54.9-1.206 0-.666-.403-1.206-.9-1.206s-.9.54-.9 1.206c0 .666.403 1.206.9 1.206Zm-3 .306c0 .666-.403 1.206-.9 1.206s-.9-.54-.9-1.206c0-.667.403-1.207.9-1.207s.9.54.9 1.207Zm8.458-.404c.496.029.93-.487.968-1.152.04-.665-.331-1.227-.828-1.256-.496-.03-.93.486-.968 1.15-.04.666.331 1.228.828 1.258Zm5.068-3.305c-.039.665-.472 1.18-.969 1.152-.496-.03-.866-.592-.828-1.257.04-.665.473-1.18.97-1.151.496.029.866.591.827 1.256Zm-5.069 7.352c.497.029.93-.487.97-1.152.038-.665-.332-1.227-.829-1.256-.496-.03-.93.486-.969 1.151-.039.665.332 1.227.828 1.257Zm5.07-3.591c-.04.665-.473 1.18-.97 1.151-.496-.029-.866-.591-.828-1.256.04-.665.473-1.18.97-1.152.496.03.866.592.827 1.257Z" clip-rule="evenodd"/>
</svg>
