<svg xmlns="http://www.w3.org/2000/svg" viewBox="0 0 24 24" fill="none">
  <path d="M14 20v1a1 1 0 0 0 1-1h-1ZM2 20H1a1 1 0 0 0 1 1v-1Zm.218-14.908.891.454-.891-.454Zm.874-.874-.454-.891.454.891Zm10.69.874-.891.454.891-.454Zm-.874-.874-.454.891.454-.891ZM14 12h1-1Zm0 1.5a1 1 0 1 0 0 2v-2Zm8-3.5h1a1 1 0 0 0-.293-.707L22 10Zm-3.793-5.207a1 1 0 1 0-1.414 1.414l1.414-1.414ZM19.25 10h-1a1 1 0 0 0 1 1v-1ZM14 19H2v2h12v-2ZM5.2 5h5.6V3H5.2v2ZM3 7.2c0-.577 0-.949.024-1.232.022-.272.06-.373.085-.422l-1.782-.908c-.193.378-.264.772-.296 1.167C.999 6.189 1 6.656 1 7.2h2ZM5.2 3c-.544 0-1.011 0-1.395.03-.395.033-.789.104-1.167.297l.908 1.782c.05-.025.15-.063.422-.085C4.25 5 4.623 5 5.2 5V3ZM3.109 5.546a1 1 0 0 1 .437-.437l-.908-1.782a3 3 0 0 0-1.311 1.311l1.782.908ZM15 7.2c0-.544 0-1.011-.03-1.395-.033-.395-.104-.789-.297-1.167l-1.782.908c.025.05.063.15.085.422C13 6.25 13 6.623 13 7.2h2ZM10.8 5c.577 0 .949 0 1.232.024.272.022.373.06.422.085l.908-1.782c-.378-.193-.772-.264-1.167-.296C11.811 2.999 11.344 3 10.8 3v2Zm3.873-.362a3 3 0 0 0-1.311-1.311l-.908 1.782a1 1 0 0 1 .437.437l1.782-.908ZM3 20v-8H1v8h2Zm0-8V7.2H1V12h2Zm10-4.8V12h2V7.2h-2Zm0 4.8v8h2v-8h-2ZM2 13h12v-2H2v2Zm12 2.5h1.25v-2H14v2Zm3 1.75V18h2v-.75h-2Zm6 .75v-8h-2v8h2Zm-3 3a3 3 0 0 0 3-3h-2a1 1 0 0 1-1 1v2Zm-3-3a3 3 0 0 0 3 3v-2a1 1 0 0 1-1-1h-2Zm-1.75-2.5c.966 0 1.75.784 1.75 1.75h2a3.75 3.75 0 0 0-3.75-3.75v2Zm4.707-8.957-1.75-1.75-1.414 1.414 1.75 1.75 1.414-1.414ZM22 9h-2.75v2H22V9Zm-1.75 1V7.25h-2V10h2Zm-1.707-2.043 2.75 2.75 1.414-1.414-2.75-2.75-1.414 1.414Z" fill="currentColor"/>
</svg>
