<svg xmlns="http://www.w3.org/2000/svg" viewBox="0 0 56 56" fill="none">
  <path d="M4.667 28v18.667h28V28.001m-28 0V16.8c0-2.614 0-3.92.508-4.919a4.666 4.666 0 0 1 2.04-2.04c.998-.508 2.305-.508 4.918-.508H25.2c2.614 0 3.92 0 4.919.509a4.666 4.666 0 0 1 2.039 2.039c.509.998.509 2.305.509 4.919V28m-28 0h28m0 5.833h2.916A6.417 6.417 0 0 1 42 40.251V42a4.667 4.667 0 1 0 9.333 0V23.334m0 0h-6.416v-6.417m6.416 6.417-6.416-6.417m0 0-4.084-4.083" stroke="currentColor" stroke-width="5.6" stroke-linecap="round" stroke-linejoin="round"/>
</svg>
