<svg viewBox="0 0 18 18" fill="none" xmlns="http://www.w3.org/2000/svg">
  <path fill-rule="evenodd" clip-rule="evenodd" d="M8.039 17.16h2.432a.608.608 0 0 0 .584-.608v-.827a.84.84 0 0 1 1.429-.608l.608.608a.608.608 0 0 0 .864 0l1.72-1.72a.61.61 0 0 0 0-.864l-.608-.608a.84.84 0 0 1 .608-1.43h.876a.608.608 0 0 0 .608-.607V8.063a.608.608 0 0 0-.608-.608h-.857a.84.84 0 0 1-.608-1.429l.608-.608a.607.607 0 0 0 0-.863l-1.721-1.721a.609.609 0 0 0-.864 0l-.608.608a.84.84 0 0 1-1.429-.608v-.876a.608.608 0 0 0-.608-.608H8.033a.608.608 0 0 0-.608.608v.845a.84.84 0 0 1-1.43.608l-.607-.608a.608.608 0 0 0-.864 0L2.834 4.53a.608.608 0 0 0 0 .864l.608.608a.84.84 0 0 1-.608 1.429h-.876a.608.608 0 0 0-.608.608v2.438a.608.608 0 0 0 .608.608h.845a.839.839 0 0 1 .608 1.43l-.608.607a.609.609 0 0 0 0 .864l1.727 1.69a.608.608 0 0 0 .864 0l.608-.608a.84.84 0 0 1 1.429.608v.876a.608.608 0 0 0 .608.608Zm1.824-1.216H8.647v-.268a2.049 2.049 0 0 0-3.503-1.447l-.188.189-.863-.864.188-.188a2.05 2.05 0 0 0-1.447-3.503h-.268V8.647h.268A2.05 2.05 0 0 0 4.28 5.144l-.188-.188.863-.864.188.189a2.05 2.05 0 0 0 3.503-1.447v-.268h1.216v.268a2.05 2.05 0 0 0 3.503 1.447l.188-.189.864.864-.189.188a2.05 2.05 0 0 0 1.447 3.503h.268v1.216h-.268a2.05 2.05 0 0 0-1.447 3.503l.189.188-.864.864-.188-.189a2.05 2.05 0 0 0-3.503 1.447v.268Zm-2.297-4.161a3.04 3.04 0 1 0 3.378-5.056 3.04 3.04 0 0 0-3.378 5.056Zm.676-4.045a1.824 1.824 0 1 1 2.027 3.034 1.824 1.824 0 0 1-2.027-3.034Z" fill="currentColor"/>
</svg>
