<svg fill="currentColor" xmlns="http://www.w3.org/2000/svg" viewBox="0 0 30 30">
  <path d="M15 10.5a4.5 4.5 0 1 0 0 9 4.5 4.5 0 0 0 0-9Zm0 7.5a3 3 0 1 1 0-5.999A3 3 0 0 1 15 18Zm10.307-4.95a.75.75 0 0 0-.365-.505l-2.796-1.594-.011-3.152a.751.751 0 0 0-.266-.57 10.49 10.49 0 0 0-3.442-1.938.75.75 0 0 0-.606.056l-2.82 1.576-2.825-1.58a.75.75 0 0 0-.606-.056A10.51 10.51 0 0 0 8.13 7.233a.75.75 0 0 0-.265.569l-.014 3.155-2.797 1.593a.75.75 0 0 0-.365.507 9.981 9.981 0 0 0 0 3.896.75.75 0 0 0 .365.506l2.797 1.594.011 3.152a.75.75 0 0 0 .265.57 10.491 10.491 0 0 0 3.443 1.938.75.75 0 0 0 .605-.056L15 23.077l2.824 1.58a.742.742 0 0 0 .607.054 10.509 10.509 0 0 0 3.438-1.944.75.75 0 0 0 .266-.569l.014-3.155 2.796-1.593a.753.753 0 0 0 .365-.507 9.983 9.983 0 0 0-.003-3.892Zm-1.406 3.274-2.679 1.523a.75.75 0 0 0-.28.281c-.055.094-.112.194-.17.287a.744.744 0 0 0-.115.395l-.014 3.023a8.99 8.99 0 0 1-2.378 1.341l-2.702-1.506a.75.75 0 0 0-.367-.093H14.838a.757.757 0 0 0-.385.093l-2.704 1.51a9 9 0 0 1-2.385-1.334l-.01-3.019a.75.75 0 0 0-.115-.396 5.374 5.374 0 0 1-.169-.287.758.758 0 0 0-.28-.286l-2.682-1.528a8.483 8.483 0 0 1 0-2.649l2.674-1.526a.75.75 0 0 0 .281-.281c.054-.094.112-.194.17-.287a.744.744 0 0 0 .114-.395l.014-3.023a8.99 8.99 0 0 1 2.379-1.341l2.698 1.506a.75.75 0 0 0 .384.093h.341a.758.758 0 0 0 .385-.093l2.703-1.51c.859.32 1.663.77 2.385 1.334l.01 3.019c.001.14.04.277.115.396.058.093.115.187.169.287.066.119.163.218.281.286l2.681 1.528c.141.878.143 1.773.005 2.652h.004Z"/>
</svg>
