<svg viewBox="0 0 24 24" fill="none" xmlns="http://www.w3.org/2000/svg">
  <path d="M12.2 19.4c3.972 0 7.2-3.228 7.2-7.2S16.172 5 12.2 5A7.206 7.206 0 0 0 5 12.2c0 3.972 3.228 7.2 7.2 7.2Zm-5.574-4.332 2.926-.023a10.424 10.424 0 0 0 1.614 3.333 6.28 6.28 0 0 1-4.54-3.31Zm3.67-4.842h3.646a9.853 9.853 0 0 1 .023 3.867l-3.67.023a9.544 9.544 0 0 1 0-3.89Zm1.823 7.885a9.323 9.323 0 0 1-1.591-3.066l3.193-.023a9.813 9.813 0 0 1-1.602 3.089Zm.929.302a10.24 10.24 0 0 0 1.637-3.403l3.124-.023a6.286 6.286 0 0 1-4.761 3.426ZM18.47 12.2c0 .65-.105 1.277-.279 1.858l-3.286.023c.232-1.277.22-2.578-.023-3.855h3.263a6.17 6.17 0 0 1 .325 1.974Zm-.72-2.903h-3.09a10.675 10.675 0 0 0-1.613-3.31 6.244 6.244 0 0 1 4.703 3.31Zm-4.053 0H10.54a9.593 9.593 0 0 1 1.58-3.008 9.595 9.595 0 0 1 1.58 3.008Zm-2.532-3.275a10.317 10.317 0 0 0-1.59 3.275H6.648a6.249 6.249 0 0 1 4.517-3.275Zm-1.811 4.204a10.685 10.685 0 0 0-.012 3.89l-3.1.023a6.173 6.173 0 0 1 .012-3.914h3.1Z" fill="currentColor"/>
</svg>
