<svg xmlns="http://www.w3.org/2000/svg" fill="none" viewBox="0 0 30 30">
  <path fill="currentColor" d="m17.613 5.751 5.082 2.85a2.255 2.255 0 0 1 3.123-.077c.153.14.282.301.389.477.606 1.028.238 2.339-.82 2.928-.18.1-.372.175-.575.223v5.699c1.18.273 1.91 1.423 1.627 2.569-.05.204-.13.4-.239.581-.61 1.023-1.958 1.374-3.014.782a2.18 2.18 0 0 1-.542-.429l-5.052 2.832c.383 1.124-.245 2.335-1.402 2.706a2.275 2.275 0 0 1-.69.108c-1.216.001-2.203-.955-2.204-2.136 0-.205.03-.41.09-.609l-5.083-2.847a2.252 2.252 0 0 1-3.117.07 2.098 2.098 0 0 1-.072-3.026 2.224 2.224 0 0 1 1.075-.603l.001-5.699c-1.184-.276-1.913-1.433-1.628-2.584.048-.198.127-.389.23-.566.61-1.024 1.96-1.374 3.015-.782.183.101.35.228.495.377l5.086-2.85c-.347-1.133.32-2.322 1.484-2.657.203-.059.416-.088.628-.088 1.216-.001 2.203.954 2.204 2.134.001.209-.03.418-.091.617Zm-.53.877a.799.799 0 0 1-.06.058l6.654 11.19c.027-.009.058-.016.084-.023v-5.707c-1.179-.283-1.897-1.442-1.604-2.588.006-.024.012-.049.02-.072l-5.095-2.858Zm-3.106.059-.062-.06L8.82 9.479c.337 1.135-.337 2.318-1.505 2.645l-.078.021v5.708l.086.023 6.655-11.19-.002.001Zm2.138.507a2.285 2.285 0 0 1-1.228 0L8.234 18.383c.302.283.517.645.618 1.041h13.297c.1-.398.317-.761.622-1.044L16.115 7.194Zm1.016 16.227 5.06-2.838a1.715 1.715 0 0 1-.04-.142H8.85l-.022.083 5.087 2.852c.4-.404.962-.653 1.586-.653.646 0 1.226.269 1.63.698Z"/>
</svg>
