<svg xmlns="http://www.w3.org/2000/svg" viewBox="0 0 24 24" fill="none">
  <path d="M11.31 3.496c.251-.14.377-.21.51-.238a.89.89 0 0 1 .36 0c.133.028.259.098.51.238l6.58 3.654c.266.148.399.222.496.327a.89.89 0 0 1 .19.324c.045.136.045.288.045.593v7.215c0 .304 0 .457-.045.592a.89.89 0 0 1-.19.324c-.097.105-.23.18-.497.327l-6.577 3.654c-.252.14-.378.21-.512.238a.89.89 0 0 1-.358 0c-.134-.028-.26-.098-.512-.238l-6.577-3.654c-.267-.148-.4-.222-.497-.327a.89.89 0 0 1-.19-.324C4 16.066 4 15.913 4 15.61V8.394c0-.305 0-.457.045-.593a.9.9 0 0 1 .19-.324c.097-.105.23-.179.497-.327l6.577-3.654Z" stroke="currentColor" stroke-width="1.67" stroke-linecap="round" stroke-linejoin="round"/>
  <path d="M20 9a1 1 0 1 0 0-2 1 1 0 0 0 0 2Zm0 8a1 1 0 1 0 0-2 1 1 0 0 0 0 2Zm-8 5a1 1 0 1 0 0-2 1 1 0 0 0 0 2Zm0-18a1 1 0 1 0 0-2 1 1 0 0 0 0 2ZM4 9a1 1 0 1 0 0-2 1 1 0 0 0 0 2Zm0 8a1 1 0 1 0 0-2 1 1 0 0 0 0 2Z" stroke="currentColor" stroke-width="2" stroke-linecap="round" stroke-linejoin="round"/>
  <path d="M12 3.5 4 16h16L12 3.5Z" stroke="currentColor" stroke-width="1.67" stroke-linecap="round" stroke-linejoin="round"/>
</svg>
