<svg xmlns="http://www.w3.org/2000/svg" viewBox="0 0 21 20" fill="none">
  <path fill-rule="evenodd" clip-rule="evenodd" d="M10.671 3.458a5.332 5.332 0 0 1 7.542 7.532l-.007.008-7.54 7.548-7.539-7.54-.007-.008a5.332 5.332 0 0 1 7.542-7.532l.002-.001.008-.007Zm1.017 1.06-1.017 1.018L9.647 4.53A3.862 3.862 0 0 0 4.18 9.983l6.485 6.484 6.485-6.493a3.863 3.863 0 0 0-5.463-5.455Z" fill="currentColor" stroke="currentColor" stroke-width=".4"/>
  <path fill-rule="evenodd" clip-rule="evenodd" d="M10.671 3.458a5.332 5.332 0 0 1 7.542 7.532l-.007.008-7.54 7.548-7.539-7.54-.007-.008a5.332 5.332 0 0 1 7.542-7.532l.002-.001.008-.007Zm1.017 1.06-1.017 1.018L9.647 4.53A3.862 3.862 0 0 0 4.18 9.983l6.485 6.484 6.485-6.493a3.863 3.863 0 0 0-5.463-5.455Z" fill="currentColor"/>
</svg>
