<svg viewBox="0 0 20 21" fill="none" xmlns="http://www.w3.org/2000/svg">
  <path fill-rule="evenodd" clip-rule="evenodd" d="M10.005 4.24a5.332 5.332 0 0 1 7.542 7.532l-.007.008L10 19.328l-7.54-7.54-.007-.007a5.332 5.332 0 0 1 7.542-7.532l.003-.002.007-.007Zm1.017 1.061L10.004 6.32 8.98 5.312a3.862 3.862 0 0 0-5.465 5.453L10 17.25l6.485-6.493A3.862 3.862 0 0 0 11.022 5.3Z" fill="currentColor" stroke="currentColor" stroke-width=".4"/>
  <path fill-rule="evenodd" clip-rule="evenodd" d="M10.005 4.24a5.332 5.332 0 0 1 7.542 7.532l-.007.008L10 19.328l-7.54-7.54-.007-.007a5.332 5.332 0 0 1 7.542-7.532l.003-.002.007-.007Zm1.017 1.061L10.004 6.32 8.98 5.312a3.862 3.862 0 0 0-5.465 5.453L10 17.25l6.485-6.493A3.863 3.863 0 0 0 11.022 5.3Z" fill="currentColor"/>
</svg>
