<svg viewBox="0 0 20 20" fill="none" xmlns="http://www.w3.org/2000/svg">
  <path d="M15.125 6.906a1.257 1.257 0 0 0 .5-1V3.125a1.25 1.25 0 0 0-1.25-1.25h-8.75a1.25 1.25 0 0 0-1.25 1.25v2.813a1.258 1.258 0 0 0 .5 1L6.289 8l2.672 2-4.086 3.063a1.258 1.258 0 0 0-.5 1v2.812a1.25 1.25 0 0 0 1.25 1.25h8.75a1.25 1.25 0 0 0 1.25-1.25v-2.781a1.257 1.257 0 0 0-.5-1L11.039 10l1.774-1.344 2.312-1.75Zm-9.5-3.781h8.75v2.781l-.453.344H6.039l-.414-.313V3.126Zm8.75 10.969v2.781h-8.75v-2.813l3.75-2.812v1.875a.625.625 0 1 0 1.25 0v-1.867l3.75 2.836Z" fill="currentColor"/>
</svg>
