<svg viewBox="0 0 30 30" fill="none" xmlns="http://www.w3.org/2000/svg">
  <path d="M21.052 4.708c.415.037.82.204 1.141.493l.132.132c.293.323.47.746.47 1.206v3.43a1.785 1.785 0 0 1-.128.654l-.096.201a1.875 1.875 0 0 1-.58.635l-.003.002L16.796 15l5.192 3.54.014.01.145.11.013.012c.163.14.304.31.411.504l.096.201c.083.206.127.428.129.654v3.43l-.01.195a1.8 1.8 0 0 1-.46 1.012l-.133.132c-.32.29-.726.455-1.141.492l-.179.008H8.923c-.417 0-.833-.13-1.177-.384l-.142-.116a1.821 1.821 0 0 1-.567-.978l-.026-.166-.002-.016L7 23.478v-3.483l.001-.021.014-.188.002-.018.03-.166c.038-.162.098-.319.179-.464l.01-.016.098-.155.01-.015.101-.128c.104-.12.223-.225.352-.314l.016-.012L12.986 15l-5.174-3.498-.015-.012a1.889 1.889 0 0 1-.453-.442l-.118-.186a1.799 1.799 0 0 1-.21-.63L7 10.008V6.539a1.8 1.8 0 0 1 .604-1.338l.142-.116c.343-.254.76-.385 1.177-.385h11.95l.179.008ZM9.139 20.182v2.98h11.52v-2.941l-4.691-3.198v1.823a1.07 1.07 0 0 1-.96 1.063l-.11.006a1.07 1.07 0 0 1-1.069-1.07v-1.832l-4.69 3.169Zm-.121.082h.002l.006-.006-.008.006Zm5.877-6.557 2.176-1.483H12.7l2.196 1.483Zm-5.756-3.89.395.268H20.21l.45-.307v-2.94H9.138v2.98Z" fill="currentColor"/>
  <path d="M21.052 4.708c.415.037.82.204 1.141.493l.132.132c.293.323.47.746.47 1.206v3.43a1.785 1.785 0 0 1-.128.654l-.096.201a1.875 1.875 0 0 1-.58.635l-.003.002L16.796 15l5.192 3.54.014.01.145.11.013.012c.163.14.304.31.411.504l.096.201c.083.206.127.428.129.654v3.43l-.01.195a1.8 1.8 0 0 1-.46 1.012l-.133.132c-.32.29-.726.455-1.141.492l-.179.008H8.923c-.417 0-.833-.13-1.177-.384l-.142-.116a1.821 1.821 0 0 1-.567-.978l-.026-.166-.002-.016L7 23.478v-3.483l.001-.021.014-.188.002-.018.03-.166c.038-.162.098-.319.179-.464l.01-.016.098-.155.01-.015.101-.128c.104-.12.223-.225.352-.314l.016-.012L12.986 15l-5.174-3.498-.015-.012a1.889 1.889 0 0 1-.453-.442l-.118-.186a1.799 1.799 0 0 1-.21-.63L7 10.008V6.539a1.8 1.8 0 0 1 .604-1.338l.142-.116c.343-.254.76-.385 1.177-.385h11.95l.179.008ZM9.139 20.182v2.98h11.52v-2.941l-4.691-3.198v1.823a1.07 1.07 0 0 1-.96 1.063l-.11.006a1.07 1.07 0 0 1-1.069-1.07v-1.832l-4.69 3.169Zm-.121.082h.002l.006-.006-.008.006Zm5.877-6.557 2.176-1.483H12.7l2.196 1.483Zm-5.756-3.89.395.268H20.21l.45-.307v-2.94H9.138v2.98Z" fill="currentColor"/>
</svg>
