<svg viewBox="0 0 32 32" fill="none" xmlns="http://www.w3.org/2000/svg">
  <g clip-path="url(#a)">
    <g clip-path="url(#b)">
      <path d="M16 32.005c8.84 0 16.005-7.166 16.005-16.005C32.005 7.16 24.84-.005 16-.005 7.16-.005-.005 7.161-.005 16c0 8.84 7.166 16.005 16.005 16.005Z" fill="#C15E97"/>
      <path d="m16.121 11.808 2.23-3.715a1.093 1.093 0 0 1 1.443.002c1.53 2.416 2.953 4.914 4.376 7.413a279.833 279.833 0 0 0 2.847 4.92c.819 1.223-.627 2.498-1.705 1.466l-6.198-10.723-6.153 10.61c-.761 1.04-2.312.285-1.992-.954l3.86-6.762c.025-.164-.443-.955-.674-1.348l-.096-.164-.012-.02c-.12-.207-.812-1.414-.88-1.363l-6.11 10.693c-.964.977-2.376.07-1.865-1.226l7.333-12.543c.467-.39 1.103-.36 1.523.08l2.073 3.634Zm2.612 3.931c2.253-.417 2.305 2.759.38 2.759-1.679 0-1.857-2.485-.38-2.759Z" fill="#fff"/>
    </g>
  </g>
  <defs>
    <clipPath id="a">
      <path fill="#fff" d="M0 0h32v32H0z"/>
    </clipPath>
    <clipPath id="b">
      <path fill="#fff" d="M0 0h32v32H0z"/>
    </clipPath>
  </defs>
</svg>
