<svg viewBox="0 0 16 16" fill="none" xmlns="http://www.w3.org/2000/svg">
  <path d="m12.18 3.765-1.944-1.944a1.674 1.674 0 0 0-1.179-.488H4.333c-.92 0-1.666.746-1.666 1.667v10c0 .92.746 1.667 1.667 1.667H11c.917 0 1.667-.75 1.667-1.667V4.943c0-.44-.175-.865-.487-1.178ZM11.417 13c0 .23-.187.417-.417.417H4.334A.417.417 0 0 1 3.917 13V3.003c0-.23.186-.416.416-.416H8.5v2.08c0 .46.373.833.833.833h2.06V13h.024ZM8.273 8.938a.365.365 0 0 0-.303.162l-1.032 1.55-.305-.456a.363.363 0 0 0-.606-.001l-1.215 1.823a.364.364 0 0 0-.018.374c.063.12.186.192.297.192h5.104a.365.365 0 0 0 .304-.566L8.554 9.1c-.044-.103-.158-.162-.28-.162ZM6 8.833a.833.833 0 1 0 0-1.666.833.833 0 0 0 0 1.666Z" fill="currentColor"/>
</svg>
