<svg xmlns="http://www.w3.org/2000/svg" viewBox="0 0 20 20" fill="none">
  <path d="M10 13.333V10m0-3.333h.008M6.5 17.5h7c1.4 0 2.1 0 2.635-.273a2.5 2.5 0 0 0 1.092-1.092c.273-.535.273-1.235.273-2.635v-7c0-1.4 0-2.1-.273-2.635a2.5 2.5 0 0 0-1.092-1.093C15.6 2.5 14.9 2.5 13.5 2.5h-7c-1.4 0-2.1 0-2.635.272a2.5 2.5 0 0 0-1.093 1.093C2.5 4.4 2.5 5.1 2.5 6.5v7c0 1.4 0 2.1.272 2.635a2.5 2.5 0 0 0 1.093 1.092C4.4 17.5 5.1 17.5 6.5 17.5Z" stroke="currentColor" stroke-width="2" stroke-linecap="round" stroke-linejoin="round"/>
</svg>
