<svg viewBox="0 0 20 20" fill="none" xmlns="http://www.w3.org/2000/svg">
  <path d="M16 1a1 1 0 0 1 1 1v.596a6.501 6.501 0 0 0 2.338 1.463 1.001 1.001 0 0 1-.677 1.883 8.47 8.47 0 0 1-1.66-.816V11h1.9a1 1 0 0 1 0 2H17v5a1 1 0 0 1-2 0v-5H5v5a1 1 0 1 1-2 0v-5H1.1a1 1 0 0 1 0-2H3V5.126a8.516 8.516 0 0 1-1.662.816A1.001 1.001 0 0 1 .66 4.059 6.505 6.505 0 0 0 3 2.596V2a1 1 0 0 1 2 0v.79a5.5 5.5 0 0 0 10 .002V2a1 1 0 0 1 1-1Zm-1 5.088a7.499 7.499 0 0 1-4 1.844V11h4V6.088ZM5 11h4V7.932a7.5 7.5 0 0 1-4-1.844V11Z" fill="currentColor"/>
</svg>
