<svg viewBox="0 0 30 30" fill="none" xmlns="http://www.w3.org/2000/svg">
  <path fill-rule="evenodd" clip-rule="evenodd" d="m5.29 9.053 3.723-3.828a.972.972 0 0 1 1.336.06 1.051 1.051 0 0 1 .058 1.394L8.4 8.751h14.37c.262 0 .514.107.7.3.188.191.294.454.294.729 0 .275-.106.537-.293.73a.976.976 0 0 1-.7.298H5.987a.969.969 0 0 1-.55-.17 1.02 1.02 0 0 1-.367-.46 1.062 1.062 0 0 1 .22-1.125Zm18.724 6a.97.97 0 0 1 .55.17c.163.111.291.271.367.46a1.062 1.062 0 0 1-.22 1.125l-3.737 3.841-.006.008a.997.997 0 0 1-.322.255.966.966 0 0 1-1.13-.197 1.06 1.06 0 0 1 .056-1.513l.008-.006 2.021-2.087H15.72c.103-.684.183-1.403 0-2.072l8.294.016Z" fill="currentColor"/>
  <path fill-rule="evenodd" clip-rule="evenodd" d="m5.29 9.053 3.723-3.828a.972.972 0 0 1 1.336.06 1.051 1.051 0 0 1 .058 1.394L8.4 8.751h14.37c.262 0 .514.107.7.3.188.191.294.454.294.729 0 .275-.106.537-.293.73a.976.976 0 0 1-.7.298H5.987a.969.969 0 0 1-.55-.17 1.02 1.02 0 0 1-.367-.46 1.062 1.062 0 0 1 .22-1.125Zm18.724 6a.97.97 0 0 1 .55.17c.163.111.291.271.367.46a1.062 1.062 0 0 1-.22 1.125l-3.737 3.841-.006.008a.997.997 0 0 1-.322.255.966.966 0 0 1-1.13-.197 1.06 1.06 0 0 1 .056-1.513l.008-.006 2.021-2.087H15.72c.103-.684.183-1.403 0-2.072l8.294.016ZM6.209 13.24a.67.67 0 0 1 .504-.24h4.277c.095 0 .186.043.252.12l2.496 2.865c.067.077.104.181.104.29v6.55a.884.884 0 0 1-.209.578.67.67 0 0 1-.504.24H6.713a.67.67 0 0 1-.504-.24.884.884 0 0 1-.209-.579V13.82c0-.217.075-.426.209-.58Zm4.634.579h-4.13v9.005h6.416v-6.38l-2.286-2.625Z" fill="currentColor"/>
  <path fill-rule="evenodd" clip-rule="evenodd" d="M6.209 13.24a.67.67 0 0 1 .504-.24h4.277c.095 0 .186.043.252.12l2.496 2.865c.067.077.104.181.104.29v6.55a.884.884 0 0 1-.209.578.67.67 0 0 1-.504.24H6.713a.67.67 0 0 1-.504-.24.884.884 0 0 1-.209-.579V13.82c0-.217.075-.426.209-.58Zm4.634.579h-4.13v9.005h6.416v-6.38l-2.286-2.625Z" fill="currentColor"/>
  <path clip-rule="evenodd" d="M6.209 13.24a.67.67 0 0 1 .504-.24h4.277c.095 0 .186.043.252.12l2.496 2.865c.067.077.104.181.104.29v6.55a.884.884 0 0 1-.209.578.67.67 0 0 1-.504.24H6.713a.67.67 0 0 1-.504-.24.884.884 0 0 1-.209-.579V13.82c0-.217.075-.426.209-.58Zm4.634.579h-4.13v9.005h6.416v-6.38l-2.286-2.625Z" stroke="currentColor" stroke-linecap="round" stroke-linejoin="round"/>
  <path clip-rule="evenodd" d="M6.209 13.24a.67.67 0 0 1 .504-.24h4.277c.095 0 .186.043.252.12l2.496 2.865c.067.077.104.181.104.29v6.55a.884.884 0 0 1-.209.578.67.67 0 0 1-.504.24H6.713a.67.67 0 0 1-.504-.24.884.884 0 0 1-.209-.579V13.82c0-.217.075-.426.209-.58Zm4.634.579h-4.13v9.005h6.416v-6.38l-2.286-2.625Z" stroke="currentColor" stroke-opacity=".2" stroke-linecap="round" stroke-linejoin="round"/>
  <path fill-rule="evenodd" clip-rule="evenodd" d="M10.743 13.224c.206 0 .373.167.373.373v2.24h2.24a.373.373 0 1 1 0 .748h-2.613a.373.373 0 0 1-.374-.374v-2.614c0-.206.167-.373.374-.373Z" fill="currentColor"/>
  <path fill-rule="evenodd" clip-rule="evenodd" d="M10.743 13.224c.206 0 .373.167.373.373v2.24h2.24a.373.373 0 1 1 0 .748h-2.613a.373.373 0 0 1-.374-.374v-2.614c0-.206.167-.373.374-.373Z" fill="currentColor"/>
  <path clip-rule="evenodd" d="M10.743 13.224c.206 0 .373.167.373.373v2.24h2.24a.373.373 0 1 1 0 .748h-2.613a.373.373 0 0 1-.374-.374v-2.614c0-.206.167-.373.374-.373Z" stroke="currentColor" stroke-linecap="round" stroke-linejoin="round"/>
  <path clip-rule="evenodd" d="M10.743 13.224c.206 0 .373.167.373.373v2.24h2.24a.373.373 0 1 1 0 .748h-2.613a.373.373 0 0 1-.374-.374v-2.614c0-.206.167-.373.374-.373Z" stroke="currentColor" stroke-linecap="round" stroke-linejoin="round"/>
</svg>
