<svg viewBox="0 0 24 24" fill="none" xmlns="http://www.w3.org/2000/svg">
  <path fill-rule="evenodd" clip-rule="evenodd" d="M16.17 3a5.073 5.073 0 0 0-3.568 1.424l-.01.01-1.401 1.393a1 1 0 0 0 1.41 1.419l1.396-1.388a3.073 3.073 0 0 1 4.346 4.344l-2.437 2.438a3.072 3.072 0 0 1-4.635-.332 1 1 0 1 0-1.601 1.198 5.074 5.074 0 0 0 7.65.548l2.444-2.444.012-.012A5.073 5.073 0 0 0 16.17 3Zm-5.34 5.657a5.073 5.073 0 0 0-3.95 1.474l-2.444 2.444-.012.012a5.073 5.073 0 0 0 7.174 7.174l.012-.013 1.393-1.393a1 1 0 1 0-1.414-1.414l-1.387 1.387a3.073 3.073 0 0 1-4.345-4.346l2.437-2.437a3.072 3.072 0 0 1 4.635.332 1 1 0 0 0 1.601-1.198 5.074 5.074 0 0 0-3.7-2.022Z" fill="currentColor"/>
</svg>
