<svg viewBox="0 0 18 18" fill="none" xmlns="http://www.w3.org/2000/svg">
  <g clip-path="url(#link_svg__a)">
    <path d="M5.547 6.073c1.303-1.303 3.469-1.303 4.772 0 1.171 1.172 1.345 3.04.382 4.387l-.026.038a.75.75 0 0 1-1.221-.872l.026-.038a1.89 1.89 0 0 0-2.874-2.435l-2.63 2.632c-.738.717-.738 1.934 0 2.672a1.887 1.887 0 0 0 2.433.202l.038-.047a.772.772 0 0 1 1.045.194.75.75 0 0 1-.173 1.048l-.038.026a3.389 3.389 0 0 1-4.366-5.154l2.632-2.653Zm6.914 5.833A3.388 3.388 0 0 1 7.307 7.54l.026-.038c.22-.335.689-.415 1.045-.173.338.22.417.689.176 1.045l-.026.038c-.537.731-.452 1.781.202 2.435a1.893 1.893 0 0 0 2.671 0l2.63-2.632c.738-.738.738-1.955 0-2.672a1.887 1.887 0 0 0-2.433-.202l-.037.026c-.338.242-.806.143-1.046-.174a.749.749 0 0 1 .174-1.046l.037-.026a3.389 3.389 0 0 1 4.367 5.153l-2.632 2.632Z" fill="currentColor"/>
  </g>
  <defs>
    <clipPath id="link_svg__a">
      <path fill="#fff" transform="translate(1.504 3)" d="M0 0h15v12H0z"/>
    </clipPath>
  </defs>
</svg>
