<svg viewBox="0 0 143 26" fill="currentColor" xmlns="http://www.w3.org/2000/svg">
  <path fill-rule="evenodd" clip-rule="evenodd" d="M10.513 1a1 1 0 0 0-1-1H6.068a1 1 0 0 0-1 1v3.417a1 1 0 0 1-1 1H1.49a1 1 0 0 0-1 1V25a1 1 0 0 0 1 1h3.445a1 1 0 0 0 1-1V6.417a1 1 0 0 1 1-1h2.578a1 1 0 0 0 1-1V1Zm10.926 0a1 1 0 0 0-1-1h-3.445a1 1 0 0 0-1 1v3.417a1 1 0 0 0 1 1h2.389a1 1 0 0 1 1 1V25a1 1 0 0 0 1 1h3.444a1 1 0 0 0 1-1V6.417a1 1 0 0 0-1-1H22.44a1 1 0 0 1-1-1V1Zm-5.52 10.369a1 1 0 0 0-1-1h-3.445a1 1 0 0 0-1 1v8.524a1 1 0 0 0 1 1h3.445a1 1 0 0 0 1-1v-8.524Z"/>
  <path d="M35.113 5.893h6.228c2.638 0 4.065 1.434 4.065 3.498.02.645-.15 1.28-.486 1.825a3.12 3.12 0 0 1-1.395 1.221v.067a3.548 3.548 0 0 1 1.842 1.364c.453.652.687 1.44.666 2.242 0 2.308-1.544 4.122-4.346 4.122h-6.574V5.893Zm6.27 5.827c.996 0 1.71-.761 1.71-1.92 0-1.158-.714-1.92-1.71-1.92h-3.95v3.84h3.95Zm.282 6.54c1.19 0 2.054-.94 2.054-2.306 0-1.367-.865-2.285-2.054-2.285h-4.232v4.592h4.232ZM48.93 7.599h-1.303V5.436h3.59v14.786h-2.293L48.931 7.6Zm4.409 7.324c0-3.248 2.317-5.644 5.517-5.644s5.535 2.374 5.535 5.644-2.313 5.623-5.535 5.623-5.517-2.375-5.517-5.623Zm4.911 3.495h1.236c1.406 0 2.638-1.546 2.638-3.495 0-1.948-1.236-3.52-2.638-3.52H58.25c-1.405 0-2.638 1.6-2.638 3.52s1.233 3.495 2.638 3.495Zm7.63-3.518c0-3.314 2.21-5.621 5.388-5.621 2.552 0 4.562 1.366 4.887 4.16h-2.227c-.217-1.412-1.19-2.039-2.184-2.039h-1.082c-1.384 0-2.508 1.568-2.508 3.52s1.124 3.54 2.508 3.54h1.082a2.163 2.163 0 0 0 1.494-.597c.409-.386.662-.916.711-1.487h2.227c-.308 2.755-2.335 4.189-4.942 4.189-3.17-.02-5.353-2.349-5.353-5.664Zm12.348-9.464h2.27v8.156h1.647l3.07-4.01h2.595l-3.784 4.951 3.957 5.69h-2.725l-3.308-4.704h-1.452v4.703h-2.27V5.436ZM89.02 17.029h2.185c.108.94.67 1.546 1.853 1.546h1.43c1.017 0 1.493-.538 1.493-1.255 0-.717-.39-1.142-1.32-1.28l-2.403-.32c-2.032-.246-2.94-1.5-2.94-3.136 0-2.15 1.544-3.315 4.303-3.315 2.64 0 4.24 1.098 4.324 3.54h-2.184c-.108-.92-.475-1.569-1.6-1.569h-1.3c-.973 0-1.428.538-1.428 1.232 0 .695.433 1.165 1.363 1.3l2.425.32c1.968.246 2.876 1.343 2.876 3.046 0 2.195-1.406 3.404-4.52 3.404-3.012.004-4.473-1.184-4.556-3.513ZM99.524 14.9c0-3.314 2.205-5.621 5.387-5.621 2.552 0 4.563 1.366 4.887 4.16h-2.227c-.216-1.412-1.189-2.039-2.184-2.039h-1.081c-1.387 0-2.512 1.568-2.512 3.52s1.125 3.54 2.512 3.54h1.081a2.165 2.165 0 0 0 1.495-.597 2.32 2.32 0 0 0 .711-1.487h2.227c-.309 2.755-2.336 4.189-4.943 4.189-3.166-.02-5.353-2.349-5.353-5.664Zm11.738.023c0-3.248 2.314-5.644 5.514-5.644 3.201 0 5.539 2.374 5.539 5.644s-2.314 5.623-5.539 5.623c-3.225 0-5.514-2.375-5.514-5.623Zm4.909 3.495h1.236c1.405 0 2.641-1.546 2.641-3.495 0-1.948-1.236-3.52-2.641-3.52h-1.236c-1.406 0-2.638 1.6-2.638 3.52s1.239 3.495 2.644 3.495h-.006Zm8.029-2.128V9.595h2.27v6.295c0 1.545.757 2.464 1.752 2.464h1.235c1.06 0 2.011-1.008 2.011-2.464V9.595h2.274v10.64h-2.209V18.78c-.618 1.098-1.708 1.77-3.373 1.77-2.49-.003-3.96-1.504-3.96-4.26Zm13.32 1.456v-6.08h-1.99v-2.07h1.99V6.612h2.292v2.982h2.681v2.061h-2.681v5.42c0 .695.216 1.031.951 1.031h1.817v2.128h-2.472c-1.662-.003-2.588-.899-2.588-2.49Z"/>
</svg>
