<svg xmlns="http://www.w3.org/2000/svg" viewBox="0 0 32 32" fill="none">
  <rect x=".25" y=".25" width="31.5" height="31.5" rx="3.75" fill="#fff"/>
  <rect x=".25" y=".25" width="31.5" height="31.5" rx="3.75" stroke="#8A55FD" stroke-width=".5"/>
  <path fill-rule="evenodd" clip-rule="evenodd" d="m12.981 20.615 1.21-.942c3.952-3.078 9.649-2.366 12.732 1.583l.944 1.209-2.418 1.887-.943-1.209a6.01 6.01 0 0 0-8.431-1.05l-1.21.942-1.884-2.42Z" fill="#D8CAFF" stroke="#8752F3" stroke-width=".51" stroke-miterlimit="10" stroke-linecap="square"/>
  <path d="M22.334 26.462a2.178 2.178 0 1 0-4.347-.266 2.178 2.178 0 0 0 4.347.266Z" fill="#D8CAFF" stroke="#8752F3" stroke-width=".51" stroke-miterlimit="10" stroke-linecap="square"/>
  <path fill-rule="evenodd" clip-rule="evenodd" d="m10.662 14.455 1.27.86c4.147 2.806 5.231 8.447 2.427 12.598l-.858 1.271-2.542-1.717.858-1.27a6.011 6.011 0 0 0-1.604-8.343l-1.27-.86 1.72-2.54Z" fill="#D8CAFF" stroke="#8752F3" stroke-width=".51" stroke-miterlimit="10" stroke-linecap="square"/>
  <path d="M9.616 23.178a2.177 2.177 0 1 0-4.347-.266 2.177 2.177 0 0 0 4.347.266Z" fill="#D8CAFF" stroke="#8752F3" stroke-width=".51" stroke-miterlimit="10" stroke-linecap="square"/>
  <path fill-rule="evenodd" clip-rule="evenodd" d="m3.523 14.639 1.473.427a6 6 0 0 0 7.433-4.102l.425-1.474 2.947.849-.424 1.473c-1.387 4.815-6.42 7.595-11.235 6.2l-1.473-.428.854-2.945Z" fill="#D8CAFF" stroke="#8752F3" stroke-width=".51" stroke-miterlimit="10" stroke-linecap="square"/>
  <path d="M8.807 10.07a2.177 2.177 0 1 0-4.347-.267 2.177 2.177 0 0 0 4.347.267Z" fill="#D8CAFF" stroke="#8752F3" stroke-width=".51" stroke-miterlimit="10" stroke-linecap="square"/>
  <path fill-rule="evenodd" clip-rule="evenodd" d="m13.422 3.608.05 1.533a6.002 6.002 0 0 0 6.198 5.8l1.532-.05.1 3.066-1.532.05a9.069 9.069 0 0 1-9.363-8.765l-.05-1.533 3.065-.1Z" fill="#D8CAFF" stroke="#8752F3" stroke-width=".51" stroke-miterlimit="10" stroke-linecap="square"/>
  <path d="M21.024 5.25a2.177 2.177 0 1 0-4.347-.267 2.177 2.177 0 0 0 4.347.267ZM29.389 15.38a2.177 2.177 0 1 0-4.347-.267 2.177 2.177 0 0 0 4.347.267Z" fill="#D8CAFF" stroke="#8752F3" stroke-width=".51" stroke-miterlimit="10" stroke-linecap="square"/>
  <path fill-rule="evenodd" clip-rule="evenodd" d="m25.927 6.726 1.044 2.883-1.445.519a6 6 0 0 0-3.605 7.69l.078.22a9.037 9.037 0 0 0-3.266-.223c-1.036-4.404 1.38-8.987 5.749-10.57l1.445-.519Z" fill="#D8CAFF" stroke="#8752F3" stroke-width=".51" stroke-miterlimit="10" stroke-linecap="square"/>
</svg>
