<svg viewBox="0 0 42 45" fill="none" xmlns="http://www.w3.org/2000/svg">
  <path d="M19.693 7.355a2.614 2.614 0 0 1 2.614 0l9.857 5.69a2.615 2.615 0 0 1 1.307 2.264v11.382c0 .934-.498 1.797-1.307 2.264l-9.857 5.69a2.614 2.614 0 0 1-2.614 0l-9.856-5.69a2.614 2.614 0 0 1-1.308-2.264V15.309c0-.934.499-1.797 1.308-2.264l9.856-5.69Z" fill="url(#a)"/>
  <path d="m32.644 12.214-9.857-5.69a3.574 3.574 0 0 0-3.574 0l-9.856 5.69a3.574 3.574 0 0 0-1.788 3.095v11.382c0 1.277.682 2.457 1.788 3.095l9.856 5.69a3.574 3.574 0 0 0 3.574 0l9.857-5.69a3.574 3.574 0 0 0 1.787-3.096V15.31a3.574 3.574 0 0 0-1.787-3.096Z" stroke="#fff" stroke-width="1.92"/>
  <path d="M19.693 7.355a2.614 2.614 0 0 1 2.614 0l9.857 5.69a2.615 2.615 0 0 1 1.307 2.264v11.382c0 .934-.498 1.797-1.307 2.264l-9.857 5.69a2.614 2.614 0 0 1-2.614 0l-9.856-5.69a2.614 2.614 0 0 1-1.308-2.264V15.309c0-.934.499-1.797 1.308-2.264l9.856-5.69Z" fill="url(#b)"/>
  <path fill-rule="evenodd" clip-rule="evenodd" d="M19.797 16.078a.838.838 0 0 0-.838-.838h-.8a.838.838 0 0 0-.837.838v.724a.838.838 0 0 1-.838.838h-.406a.838.838 0 0 0-.838.838v7.444c0 .463.375.838.838.838h.8a.838.838 0 0 0 .838-.838v-7.444c0-.463.375-.838.838-.838h.405a.838.838 0 0 0 .838-.838v-.724Zm4.968 0a.838.838 0 0 0-.838-.838h-.8a.838.838 0 0 0-.837.838v.724c0 .463.375.838.837.838h.32c.463 0 .838.375.838.838v7.444c0 .463.375.838.837.838h.8a.838.838 0 0 0 .838-.838v-7.444a.838.838 0 0 0-.838-.838h-.32a.838.838 0 0 1-.837-.838v-.724Zm-2.51 4.594a.838.838 0 0 0-.838-.838h-.8a.838.838 0 0 0-.837.838v2.987c0 .463.375.838.837.838h.8a.838.838 0 0 0 .838-.838v-2.987Z" fill="#fff"/>
  <defs>
    <linearGradient id="a" x1="21" y1="6.6" x2="21" y2="35.4" gradientUnits="userSpaceOnUse">
      <stop stop-color="#2C5282"/>
      <stop offset="1" stop-color="#153967"/>
    </linearGradient>
    <linearGradient id="b" x1="21" y1="6.6" x2="21" y2="35.4" gradientUnits="userSpaceOnUse">
      <stop stop-color="#008BE4"/>
      <stop offset="1" stop-color="#81C5F1"/>
    </linearGradient>
  </defs>
</svg>
