<svg xmlns="http://www.w3.org/2000/svg" viewBox="0 0 24 24" fill="none">
  <path fill-rule="evenodd" clip-rule="evenodd" d="m16.133 2.85-3.239-1.637a1.98 1.98 0 0 0-1.788 0l-8 4.044A2.024 2.024 0 0 0 2 7.065v9.87c0 .766.428 1.466 1.106 1.808l8 4.044a1.981 1.981 0 0 0 1.788 0l8-4.044A2.024 2.024 0 0 0 22 16.935V8.9a5.022 5.022 0 0 1-2 0v8.035l-8 4.043-8-4.043v-9.87l8-4.043 4.123 2.083a5.02 5.02 0 0 1 .01-2.255Zm-5.177 4.83a.731.731 0 0 0-.727-.734h-.695a.731.731 0 0 0-.727.735v.635a.731.731 0 0 1-.727.736h-.353A.731.731 0 0 0 7 9.787v6.532c0 .406.326.735.727.735h.695a.731.731 0 0 0 .727-.735V9.787c0-.406.326-.735.727-.735h.353c.401 0 .727-.33.727-.735V7.68Zm4.312 0a.731.731 0 0 0-.727-.734h-.695a.731.731 0 0 0-.727.735v.636c0 .406.326.735.727.735h.278c.401 0 .727.329.727.735v6.532c0 .406.326.735.727.735h.695a.731.731 0 0 0 .727-.735V9.787a.731.731 0 0 0-.727-.735h-.278a.731.731 0 0 1-.727-.736v-.635Zm-2.906 3.297c.402 0 .727.33.727.735v2.622a.731.731 0 0 1-.727.735h-.694a.731.731 0 0 1-.728-.736v-2.62c0-.407.326-.736.728-.736h.694Z" fill="currentColor"/>
  <circle cx="21" cy="4" r="3" fill="#E53E3E"/>
</svg>
