<svg xmlns="http://www.w3.org/2000/svg" viewBox="0 0 30 30" fill="none">
  <path fill-rule="evenodd" clip-rule="evenodd" d="m19.133 5.85-3.239-1.637a1.98 1.98 0 0 0-1.788 0l-8 4.044A2.024 2.024 0 0 0 5 10.065v9.87c0 .766.428 1.466 1.106 1.808l8 4.044a1.981 1.981 0 0 0 1.788 0l8-4.044A2.024 2.024 0 0 0 25 19.935V11.9a5.022 5.022 0 0 1-2 0v8.035l-8 4.043-8-4.043v-9.87l8-4.043 4.123 2.083a5.02 5.02 0 0 1 .01-2.255Zm-5.177 4.83a.731.731 0 0 0-.727-.734h-.695a.731.731 0 0 0-.727.735v.636a.731.731 0 0 1-.728.735h-.352a.731.731 0 0 0-.727.735v6.532c0 .406.326.735.727.735h.695a.731.731 0 0 0 .727-.735v-6.532c0-.406.326-.735.727-.735h.353c.401 0 .727-.33.727-.736v-.635Zm4.312 0a.731.731 0 0 0-.727-.734h-.695a.731.731 0 0 0-.727.735v.636c0 .406.326.735.727.735h.278a.73.73 0 0 1 .727.735v6.532c0 .406.326.735.727.735h.695a.731.731 0 0 0 .727-.735v-6.532a.731.731 0 0 0-.727-.735h-.278a.731.731 0 0 1-.727-.736v-.635Zm-2.906 3.297c.402 0 .727.33.727.735v2.622a.731.731 0 0 1-.727.735h-.694a.731.731 0 0 1-.728-.735v-2.622c0-.406.326-.735.728-.735h.694Z" fill="currentColor"/>
  <circle cx="24" cy="7" r="3" fill="#E53E3E"/>
</svg>
