<svg xmlns="http://www.w3.org/2000/svg" width="41" height="41" viewBox="0 0 24 24">
	<rect width="24" height="24" fill="none" />
	<path fill="none" stroke="currentColor" stroke-linecap="round" stroke-linejoin="round" stroke-width="1.5" d="M14.881 5.186C13.46 4.314 9.808 2.642 6.52 3.069c1.99 1.37 3.036 2.106 5.86 4.62m6.435 1.43c.872 1.422 2.544 5.073 2.117 8.361c-1.37-1.989-2.106-3.035-4.62-5.859m-5.838-.203l-7.05 7.05c-.572.572-.563 1.507.02 2.09c.582.582 1.518.59 2.09.019l7.049-7.05m-.596-4.301l2.788 2.787c.31.31.81.311 1.119.003l3.453-3.454a.79.79 0 0 0-.002-1.118l-2.788-2.788a.79.79 0 0 0-1.118-.002l-3.454 3.453a.79.79 0 0 0 .002 1.119" color="currentColor" />
</svg>