<svg viewBox="0 0 22 18" fill="none" xmlns="http://www.w3.org/2000/svg">
  <path d="M19 6.5V4.2c0-1.12 0-1.68-.218-2.108a2 2 0 0 0-.874-.874C17.48 1 16.92 1 15.8 1H4.2c-1.12 0-1.68 0-2.108.218a2 2 0 0 0-.874.874C1 2.52 1 3.08 1 4.2v9.6c0 1.12 0 1.68.218 2.108a2 2 0 0 0 .874.874C2.52 17 3.08 17 4.2 17h11.6c1.12 0 1.68 0 2.108-.218a2 2 0 0 0 .874-.874C19 15.48 19 14.92 19 13.8v-2.3M14 9c0-.465 0-.697.038-.89a2 2 0 0 1 1.572-1.572c.193-.038.425-.038.89-.038h2c.465 0 .697 0 .89.038a2 2 0 0 1 1.572 1.572C21 8.303 21 8.535 21 9s0 .697-.038.89a2 2 0 0 1-1.572 1.572c-.193.038-.425.038-.89.038h-2c-.465 0-.697 0-.89-.038a2 2 0 0 1-1.572-1.572C14 9.697 14 9.465 14 9Z" stroke="currentColor" stroke-width="2" stroke-linecap="round" stroke-linejoin="round"/>
</svg>
