<svg xmlns="http://www.w3.org/2000/svg" viewBox="0 0 20 20" fill="none">
  <g clip-path="url(#a)" stroke="currentColor" stroke-width="2" stroke-linecap="round" stroke-linejoin="round">
    <path d="m15 1.666.515 1.03c.221.442.332.663.48.855.13.17.283.323.453.454.192.148.413.258.856.48l1.03.514-1.03.515c-.443.221-.664.332-.856.48-.17.131-.322.283-.454.454-.147.191-.258.413-.48.855L15 8.333l-.515-1.03c-.221-.442-.332-.664-.48-.855a2.5 2.5 0 0 0-.453-.454c-.192-.148-.413-.259-.856-.48L11.666 5l1.03-.514c.443-.222.664-.332.856-.48a2.5 2.5 0 0 0 .454-.454c.147-.192.258-.413.48-.855L15 1.666Zm2.5 9.491A6.348 6.348 0 1 1 8.843 2.5a7.935 7.935 0 1 0 8.657 8.658Z"/>
  </g>
  <defs>
    <clipPath id="a">
      <path fill="#fff" d="M0 0h20v20H0z"/>
    </clipPath>
  </defs>
</svg>
