<svg viewBox="0 0 20 20" fill="none" xmlns="http://www.w3.org/2000/svg">
  <path fill-rule="evenodd" clip-rule="evenodd" d="M15.557 9.542a.75.75 0 0 1 .441.729 6.798 6.798 0 1 1-7.214-7.186.75.75 0 0 1 .548 1.307l-.149.133a3.786 3.786 0 0 0 5.364 5.344l.172-.173a.75.75 0 0 1 .838-.154ZM14.063 12a5.297 5.297 0 0 1-2.195.476 5.285 5.285 0 0 1-4.822-7.44A5.297 5.297 0 1 0 14.063 12Z" fill="currentColor"/>
  <path d="m12.631 5.626.193.386a.75.75 0 0 0 .336.335l.386.194-.386.193a.75.75 0 0 0-.336.335l-.193.386-.193-.386a.75.75 0 0 0-.335-.335l-.386-.193.386-.194a.75.75 0 0 0 .335-.335l.193-.386Z" stroke="currentColor"/>
</svg>
