<svg xmlns="http://www.w3.org/2000/svg" fill="none" viewBox="0 0 20 20">
  <path fill="currentColor" d="M3.933 17.138a3.98 3.98 0 0 1-1.03-.136 4.001 4.001 0 0 1-2.771-4.866L1.796 5.82a3.958 3.958 0 0 1 1.85-2.45 3.88 3.88 0 0 1 2.966-.386A3.944 3.944 0 0 1 9.07 4.992h1.857a3.922 3.922 0 0 1 2.458-2.008 3.88 3.88 0 0 1 2.965.386 3.977 3.977 0 0 1 1.85 2.436l1.665 6.33a4 4 0 0 1-2.779 4.88 3.879 3.879 0 0 1-2.965-.386 3.959 3.959 0 0 1-1.85-2.436l-.13-.629H7.856l-.164.615a3.958 3.958 0 0 1-1.85 2.436 3.9 3.9 0 0 1-1.908.522ZM5.59 4.278a2.494 2.494 0 0 0-1.229.328A2.572 2.572 0 0 0 3.175 6.17l-1.664 6.316a2.572 2.572 0 0 0 1.771 3.137 2.45 2.45 0 0 0 1.872-.243 2.53 2.53 0 0 0 1.186-1.565l.443-1.679h6.43l.436 1.68a2.558 2.558 0 0 0 1.187 1.564 2.47 2.47 0 0 0 1.879.243 2.558 2.558 0 0 0 1.764-3.137L16.814 6.17a2.535 2.535 0 0 0-1.178-1.564 2.472 2.472 0 0 0-1.88-.243 2.536 2.536 0 0 0-1.693 1.586l-.171.472H8.105l-.171-.472a2.544 2.544 0 0 0-1.7-1.586 2.486 2.486 0 0 0-.644-.086Z"/>
  <path fill="currentColor" d="M5.712 9.993a1.429 1.429 0 1 1 0-2.858 1.429 1.429 0 0 1 0 2.858Zm8.573-2.143a.714.714 0 1 0 0-1.43.714.714 0 0 0 0 1.43Zm0 2.857a.714.714 0 1 0 0-1.429.714.714 0 0 0 0 1.43Zm-1.428-1.429a.714.714 0 1 0 0-1.428.714.714 0 0 0 0 1.428Zm2.857 0a.714.714 0 1 0 0-1.428.714.714 0 0 0 0 1.428Z"/>
</svg>
