<svg xmlns="http://www.w3.org/2000/svg" fill="none" viewBox="0 0 30 30">
  <path fill="#4A5568" fill-rule="evenodd" d="M7.904 22.831c.335.102.681.153 1.029.152a3.59 3.59 0 0 0 1.907-.583 4.14 4.14 0 0 0 1.17-1.155 4.666 4.666 0 0 0 .68-1.57l.165-.688h4.287l.128.704c.132.569.363 1.102.68 1.57.319.468.716.86 1.171 1.155a3.61 3.61 0 0 0 1.444.548 3.483 3.483 0 0 0 1.521-.117c1.011-.32 1.87-1.07 2.39-2.092.52-1.021.66-2.23.39-3.366L23.2 10.31a4.69 4.69 0 0 0-.682-1.569 4.16 4.16 0 0 0-1.169-1.156 3.61 3.61 0 0 0-1.444-.548 3.483 3.483 0 0 0-1.52.117 3.793 3.793 0 0 0-1.442.832 4.34 4.34 0 0 0-1.017 1.413H14.07a4.357 4.357 0 0 0-1.018-1.411 3.814 3.814 0 0 0-1.44-.834 3.483 3.483 0 0 0-1.521-.117 3.6 3.6 0 0 0-1.444.548 4.14 4.14 0 0 0-1.173 1.162 4.668 4.668 0 0 0-.678 1.58L5.132 17.39a4.944 4.944 0 0 0 .393 3.354c.518 1.017 1.372 1.767 2.379 2.088ZM9.36 8.967c.375-.24.798-.366 1.23-.368.216 0 .433.033.642.096.39.123.747.349 1.042.657.296.309.522.691.659 1.117l.171.527h3.787l.171-.527a2.88 2.88 0 0 1 .655-1.116c.294-.309.65-.534 1.039-.658a2.22 2.22 0 0 1 .963-.073 2.3 2.3 0 0 1 .916.345c.29.19.544.442.746.742.203.3.35.643.432 1.008l1.665 7.064a3.162 3.162 0 0 1-.237 2.16c-.33.657-.88 1.141-1.527 1.348-.314.095-.642.12-.964.073a2.298 2.298 0 0 1-.916-.345 2.675 2.675 0 0 1-.749-.742 3.016 3.016 0 0 1-.437-1.008l-.435-1.878h-6.43l-.444 1.878a2.982 2.982 0 0 1-.435 1.01 2.64 2.64 0 0 1-.75.74 2.28 2.28 0 0 1-.912.346 2.199 2.199 0 0 1-.96-.074c-.648-.209-1.196-.693-1.527-1.35a3.179 3.179 0 0 1-.245-2.158l1.664-7.064c.173-.736.6-1.365 1.186-1.75ZM20 12.287a.714.714 0 1 1-1.43.001.714.714 0 0 1 1.43 0ZM9.918 14.906a1.43 1.43 0 1 0 1.588-2.377 1.43 1.43 0 0 0-1.588 2.377Zm9.367.955a.714.714 0 1 0 0-1.429.714.714 0 0 0 0 1.43Zm-.714-2.143a.714.714 0 1 1-1.429 0 .714.714 0 0 1 1.429 0Zm2.143.714a.714.714 0 1 0 0-1.429.714.714 0 0 0 0 1.43Z" clip-rule="evenodd"/>
  <path fill="#000" fill-opacity=".2" fill-rule="evenodd" d="M7.904 22.831c.335.102.681.153 1.029.152a3.59 3.59 0 0 0 1.907-.583 4.14 4.14 0 0 0 1.17-1.155 4.666 4.666 0 0 0 .68-1.57l.165-.688h4.287l.128.704c.132.569.363 1.102.68 1.57.319.468.716.86 1.171 1.155a3.61 3.61 0 0 0 1.444.548 3.483 3.483 0 0 0 1.521-.117c1.011-.32 1.87-1.07 2.39-2.092.52-1.021.66-2.23.39-3.366L23.2 10.31a4.69 4.69 0 0 0-.682-1.569 4.16 4.16 0 0 0-1.169-1.156 3.61 3.61 0 0 0-1.444-.548 3.483 3.483 0 0 0-1.52.117 3.793 3.793 0 0 0-1.442.832 4.34 4.34 0 0 0-1.017 1.413H14.07a4.357 4.357 0 0 0-1.018-1.411 3.814 3.814 0 0 0-1.44-.834 3.483 3.483 0 0 0-1.521-.117 3.6 3.6 0 0 0-1.444.548 4.14 4.14 0 0 0-1.173 1.162 4.668 4.668 0 0 0-.678 1.58L5.132 17.39a4.944 4.944 0 0 0 .393 3.354c.518 1.017 1.372 1.767 2.379 2.088ZM9.36 8.967c.375-.24.798-.366 1.23-.368.216 0 .433.033.642.096.39.123.747.349 1.042.657.296.309.522.691.659 1.117l.171.527h3.787l.171-.527a2.88 2.88 0 0 1 .655-1.116c.294-.309.65-.534 1.039-.658a2.22 2.22 0 0 1 .963-.073 2.3 2.3 0 0 1 .916.345c.29.19.544.442.746.742.203.3.35.643.432 1.008l1.665 7.064a3.162 3.162 0 0 1-.237 2.16c-.33.657-.88 1.141-1.527 1.348-.314.095-.642.12-.964.073a2.298 2.298 0 0 1-.916-.345 2.675 2.675 0 0 1-.749-.742 3.016 3.016 0 0 1-.437-1.008l-.435-1.878h-6.43l-.444 1.878a2.982 2.982 0 0 1-.435 1.01 2.64 2.64 0 0 1-.75.74 2.28 2.28 0 0 1-.912.346 2.199 2.199 0 0 1-.96-.074c-.648-.209-1.196-.693-1.527-1.35a3.179 3.179 0 0 1-.245-2.158l1.664-7.064c.173-.736.6-1.365 1.186-1.75ZM20 12.287a.714.714 0 1 1-1.43.001.714.714 0 0 1 1.43 0ZM9.918 14.906a1.43 1.43 0 1 0 1.588-2.377 1.43 1.43 0 0 0-1.588 2.377Zm9.367.955a.714.714 0 1 0 0-1.429.714.714 0 0 0 0 1.43Zm-.714-2.143a.714.714 0 1 1-1.429 0 .714.714 0 0 1 1.429 0Zm2.143.714a.714.714 0 1 0 0-1.429.714.714 0 0 0 0 1.43Z" clip-rule="evenodd"/>
</svg>
