<svg viewBox="0 0 20 20" fill="none" xmlns="http://www.w3.org/2000/svg">
  <path fill-rule="evenodd" clip-rule="evenodd" d="M0 2.632a2.632 2.632 0 1 1 5.263 0 2.632 2.632 0 0 1-5.263 0Zm7.368 0a2.632 2.632 0 1 1 5.263 0 2.632 2.632 0 0 1-5.263 0Zm10-2.632a2.632 2.632 0 1 0 0 5.263 2.632 2.632 0 0 0 0-5.263ZM0 10a2.632 2.632 0 1 1 5.263 0A2.632 2.632 0 0 1 0 10Zm7.368 0a2.632 2.632 0 1 1 5.263 0 2.632 2.632 0 0 1-5.263 0Zm10-2.632a2.632 2.632 0 1 0 0 5.264 2.632 2.632 0 0 0 0-5.264Zm-2.631 10a2.632 2.632 0 1 1 5.263 0 2.632 2.632 0 0 1-5.263 0ZM2.632 14.737a2.632 2.632 0 1 0 0 5.263 2.632 2.632 0 0 0 0-5.263Zm7.368 0A2.632 2.632 0 1 0 10 20a2.632 2.632 0 0 0 0-5.263Z" fill="currentColor"/>
</svg>
