<svg xmlns="http://www.w3.org/2000/svg" viewBox="0 0 20 20" fill="none">
  <path d="M10 5a.833.833 0 1 0 0-1.666A.833.833 0 0 0 10 5Zm0 5.834a.833.833 0 1 0 0-1.667.833.833 0 0 0 0 1.667Zm0 5.833a.833.833 0 1 0 0-1.666.833.833 0 0 0 0 1.666ZM15.833 5a.833.833 0 1 0 0-1.666.833.833 0 0 0 0 1.667Zm0 5.834a.833.833 0 1 0 0-1.667.833.833 0 0 0 0 1.667Zm0 5.833a.833.833 0 1 0 0-1.666.833.833 0 0 0 0 1.666ZM4.167 5a.833.833 0 1 0 0-1.666.833.833 0 0 0 0 1.667Zm0 5.834a.833.833 0 1 0 0-1.667.833.833 0 0 0 0 1.667Zm0 5.833a.833.833 0 1 0 0-1.666.833.833 0 0 0 0 1.666Z" fill="currentColor"/>
  <path d="M10 5a.833.833 0 1 0 0-1.666A.833.833 0 0 0 10 5Zm0 5.834a.833.833 0 1 0 0-1.667.833.833 0 0 0 0 1.667Zm0 5.833a.833.833 0 1 0 0-1.666.833.833 0 0 0 0 1.666ZM15.833 5a.833.833 0 1 0 0-1.666.833.833 0 0 0 0 1.667Zm0 5.834a.833.833 0 1 0 0-1.667.833.833 0 0 0 0 1.667Zm0 5.833a.833.833 0 1 0 0-1.666.833.833 0 0 0 0 1.666ZM4.167 5a.833.833 0 1 0 0-1.666.833.833 0 0 0 0 1.667Zm0 5.834a.833.833 0 1 0 0-1.667.833.833 0 0 0 0 1.667Zm0 5.833a.833.833 0 1 0 0-1.666.833.833 0 0 0 0 1.666Z" stroke="currentColor" stroke-width="2" stroke-linecap="round" stroke-linejoin="round"/>
</svg>
