<svg viewBox="0 0 24 24" fill="none" xmlns="http://www.w3.org/2000/svg">
  <path fill-rule="evenodd" clip-rule="evenodd" d="M11.868 1.55a.377.377 0 0 0-.378 0L3.188 6.363A.377.377 0 0 0 3 6.69v9.622c0 .135.072.26.188.327l8.302 4.811a.377.377 0 0 0 .378 0l8.302-4.811a.377.377 0 0 0 .188-.327V6.69a.377.377 0 0 0-.188-.327l-8.302-4.811ZM3.755 16.095V6.906l7.924-4.592 7.925 4.592v9.188l-7.925 4.592-7.924-4.592ZM8.66 6.972a.377.377 0 0 0-.754 0v6.354l-1.53-4.587a.377.377 0 0 0-.734.12v5.66a.377.377 0 0 0 .754 0v-3.335l1.529 4.586a.377.377 0 0 0 .735-.12V6.973Zm2.824-2.448a.377.377 0 0 1 .386-.003l2.262 1.32a.377.377 0 0 1-.38.652l-2.07-1.208-1.89 1.145v4.693h2.265a.377.377 0 0 1 0 .754H9.792v4.906a.377.377 0 0 1-.754 0V6.217c0-.132.069-.254.182-.323l2.264-1.37Zm3.195 2.06a.377.377 0 0 1 .515-.141l2.333 1.333a.377.377 0 1 1-.375.655l-.567-.324v7.544a.377.377 0 1 1-.755 0V7.676l-1.01-.578a.377.377 0 0 1-.141-.515Z" fill="currentColor"/>
</svg>
