<svg viewBox="0 0 24 24" fill="none" xmlns="http://www.w3.org/2000/svg">
  <path fill-rule="evenodd" clip-rule="evenodd" d="M12.24.061a.502.502 0 0 0-.48 0L1.238 5.835A.449.449 0 0 0 1 6.226v11.548c0 .161.09.31.238.391L11.76 23.94a.502.502 0 0 0 .48 0l10.522-5.774a.45.45 0 0 0 .238-.391V6.226a.45.45 0 0 0-.238-.391L12.24.06ZM1.957 17.513V6.487L12 .977l10.044 5.51v11.026L12 23.023l-10.043-5.51ZM8.174 6.566a.466.466 0 0 0-.478-.453.466.466 0 0 0-.479.453v7.625L5.28 8.687a.481.481 0 0 0-.53-.304.461.461 0 0 0-.402.447v6.793c0 .25.214.453.478.453a.466.466 0 0 0 .478-.453V11.62l1.938 5.503c.074.211.299.34.53.304a.461.461 0 0 0 .402-.447V6.566Zm3.578-2.938a.501.501 0 0 1 .49-.003l2.866 1.585a.44.44 0 0 1 .172.619.493.493 0 0 1-.654.163l-2.622-1.45L9.61 5.916v5.631h2.87c.263 0 .478.203.478.453s-.215.453-.479.453h-2.87v5.887c0 .25-.213.452-.478.452a.466.466 0 0 1-.478-.452V5.66c0-.158.088-.305.23-.387l2.87-1.645Zm4.05 2.472a.493.493 0 0 1 .652-.168l2.957 1.6c.23.123.31.4.178.617a.493.493 0 0 1-.652.169l-.72-.39v9.053c0 .25-.214.453-.478.453a.466.466 0 0 1-.478-.453v-9.57l-1.281-.693a.44.44 0 0 1-.178-.618Z" fill="currentColor"/>
</svg>
