<svg xmlns="http://www.w3.org/2000/svg" viewBox="0 0 20 20" fill="none">
  <path fill-rule="evenodd" clip-rule="evenodd" d="M9.664.987a1.69 1.69 0 0 1 .672 0c.256.053.485.181.666.283l.05.028 6.167 3.426.052.029c.193.106.435.24.621.441.161.175.283.381.357.607.086.26.085.537.084.757v6.884c.001.22.002.496-.084.757a1.666 1.666 0 0 1-.357.607c-.186.201-.428.335-.62.44l-.053.03-6.167 3.426-.05.028c-.181.101-.41.23-.666.282-.222.046-.45.046-.672 0-.256-.052-.485-.18-.667-.282-.017-.01-.033-.02-.05-.028l-6.166-3.426-.053-.03c-.192-.105-.434-.239-.62-.44a1.667 1.667 0 0 1-.357-.607c-.086-.26-.085-.537-.085-.757V6.558c0-.22-.001-.497.085-.757.074-.226.196-.432.357-.607.186-.202.428-.335.62-.441l.053-.03 6.167-3.425.05-.028c.181-.102.41-.23.666-.283ZM10 2.624l-.004.002a5.437 5.437 0 0 0-.239.129L3.59 6.18a5.535 5.535 0 0 0-.253.145v.005a5.533 5.533 0 0 0-.004.287v6.764c0 .152 0 .23.004.287v.005l.004.002c.048.03.116.069.25.143l6.166 3.426c.126.07.19.106.239.129l.004.002.004-.002c.048-.023.112-.059.239-.129l6.166-3.426a5.55 5.55 0 0 0 .25-.143l.004-.002v-.005c.003-.056.004-.135.004-.287V6.618a5.513 5.513 0 0 0-.005-.292l-.003-.003a5.557 5.557 0 0 0-.25-.142l-6.166-3.426a5.461 5.461 0 0 0-.24-.13H10Z" fill="currentColor"/>
  <path fill-rule="evenodd" clip-rule="evenodd" d="M9.866 3.443c-.1.02-.195.073-.384.178L4.549 6.362c-.2.111-.3.166-.373.245a.666.666 0 0 0-.142.243C4 6.952 4 7.066 4 7.294v5.412c0 .228 0 .343.034.444.03.09.078.173.142.243.073.079.173.134.373.245l4.933 2.741c.189.105.283.157.384.178.088.018.18.018.268 0 .1-.02.195-.073.384-.178l4.933-2.74c.2-.112.3-.167.372-.246a.668.668 0 0 0 .143-.243c.034-.101.034-.216.034-.444V7.294c0-.228 0-.342-.034-.444a.667.667 0 0 0-.143-.243c-.072-.079-.172-.134-.372-.245l-4.933-2.74c-.19-.106-.284-.158-.384-.179a.667.667 0 0 0-.268 0ZM6.476 7.74a.354.354 0 0 0-.682.137v4.25a.354.354 0 1 0 .708 0v-2.48l1.09 2.616a.354.354 0 0 0 .681-.136v-4.25a.354.354 0 0 0-.708 0v2.479L6.475 7.74Zm2.771-.218a.354.354 0 0 0-.354.355v4.25a.354.354 0 1 0 .709 0v-1.771h1.062a.354.354 0 0 0 0-.709H9.602V8.23h1.416a.354.354 0 1 0 0-.709h-1.77Zm2.833 0a.354.354 0 1 0 0 .709h.532v3.896a.354.354 0 0 0 .708 0V8.23h.531a.354.354 0 1 0 0-.709h-1.77Z" fill="currentColor"/>
</svg>
