<svg viewBox="0 0 20 20" fill="none" xmlns="http://www.w3.org/2000/svg">
  <path fill-rule="evenodd" clip-rule="evenodd" d="M5.16 3A2.16 2.16 0 0 0 3 5.16v10.18a2.16 2.16 0 0 0 2.16 2.16h10.18a2.16 2.16 0 0 0 2.16-2.16v-3.272h-1.614v3.114a.704.704 0 0 1-.704.704H5.318a.705.705 0 0 1-.704-.704V5.318c0-.389.315-.704.704-.704h3.114V3H5.159Zm6.135 0a.41.41 0 0 0-.41.41v.793a.41.41 0 0 0 .41.409h3.453l-4.244 4.245a.409.409 0 0 0 0 .578l.56.561c.16.16.42.16.58 0l4.244-4.245v3.454c0 .226.183.41.41.41h.793a.41.41 0 0 0 .409-.41V3h-6.205Z" fill="currentColor"/>
</svg>
