<svg viewBox="0 0 30 30" fill="none" xmlns="http://www.w3.org/2000/svg">
  <path d="M21.7 4a3.3 3.3 0 0 1 .99 6.447v9.105A3.301 3.301 0 0 1 21.7 26a3.3 3.3 0 0 1-3.26-3.809L8.502 17.46a3.297 3.297 0 0 1-2.203.84A3.29 3.29 0 0 1 3 15.019l.004-.17A3.293 3.293 0 0 1 6.3 11.735l.17.005a3.299 3.299 0 0 1 2.355 1.166l9.666-4.834A3.3 3.3 0 0 1 21.7 4Zm0 17.38a1.32 1.32 0 1 0 0 2.641 1.32 1.32 0 0 0 0-2.641ZM9.585 14.74c.003.036.009.072.01.109l.005.17c0 .251-.03.496-.084.731l9.802 4.667c.38-.396.856-.697 1.392-.865v-9.105a3.293 3.293 0 0 1-1.193-.675L9.585 14.74ZM6.3 13.715c-.74 0-1.32.594-1.32 1.303 0 .708.58 1.301 1.32 1.301.739 0 1.32-.593 1.32-1.301 0-.71-.581-1.303-1.32-1.303Zm15.4-7.737a1.32 1.32 0 1 0 0 2.642 1.32 1.32 0 0 0 0-2.642Z" fill="currentColor"/>
</svg>
