<svg viewBox="0 0 20 20" fill="none" xmlns="http://www.w3.org/2000/svg">
  <path d="M17 0a3 3 0 0 1 .9 5.862v8.275A3.002 3.002 0 0 1 17 20a3 3 0 0 1-2.965-3.463L5 12.234A2.993 2.993 0 0 1 3 13c-1.657 0-3-1.336-3-2.983l.004-.155A2.993 2.993 0 0 1 3 7.032l.154.004a3 3 0 0 1 2.142 1.06L14.085 3.7A3 3 0 0 1 17 0Zm0 15.8a1.2 1.2 0 1 0 0 2.4 1.2 1.2 0 0 0 0-2.4ZM5.985 9.763c.003.033.01.066.011.1l.004.154c0 .228-.028.45-.077.664l8.913 4.244a3 3 0 0 1 1.264-.788V5.862a2.992 2.992 0 0 1-1.083-.615L5.985 9.763ZM3 8.832c-.672 0-1.2.54-1.2 1.185 0 .644.528 1.183 1.2 1.183.672 0 1.2-.539 1.2-1.183 0-.645-.528-1.185-1.2-1.185ZM17 1.8a1.2 1.2 0 1 0 0 2.4 1.2 1.2 0 0 0 0-2.4Z" fill="currentColor"/>
</svg>
