<svg viewBox="0 0 20 20" fill="none" xmlns="http://www.w3.org/2000/svg">
  <path fill-rule="evenodd" clip-rule="evenodd" d="M10.603 2.425A5.072 5.072 0 0 1 19.2 6.034a5.08 5.08 0 0 1-1.423 3.571l-.012.012-2.202 2.204c.21-.479.325-1.047.325-1.718 0-.474-.057-.896-.165-1.272l.62-.62A3.08 3.08 0 0 0 14.154 3a3.072 3.072 0 0 0-2.156.859l-1.396 1.389a1 1 0 0 1-1.41-1.418l1.4-1.394.01-.01Zm-5.96 5.95-2.207 2.209-.012.012A5.079 5.079 0 0 0 6.03 19.2c1.33.011 2.612-.5 3.569-1.425l.012-.013 1.393-1.394a1 1 0 0 0-1.414-1.414l-1.387 1.388A3.072 3.072 0 0 1 3 14.15a3.08 3.08 0 0 1 .858-2.16l.62-.62a4.617 4.617 0 0 1-.163-1.268c0-.676.115-1.247.328-1.727Z" fill="currentColor"/>
  <path fill-rule="evenodd" clip-rule="evenodd" d="M8.308 12.49v-1.173h2.863a.247.247 0 0 0 .184-.086.313.313 0 0 0 .076-.207.313.313 0 0 0-.076-.207.247.247 0 0 0-.184-.086H9.089c-.346 0-.677-.155-.92-.43a1.564 1.564 0 0 1-.382-1.036c0-.388.137-.76.381-1.036.244-.275.575-.429.92-.429h.521V6.628h1.041V7.8h1.302v1.172H9.088a.246.246 0 0 0-.184.086.313.313 0 0 0-.076.207c0 .078.028.153.076.208a.246.246 0 0 0 .184.085h2.083c.345 0 .676.155.92.43.244.274.381.647.381 1.036 0 .388-.137.761-.381 1.036s-.575.43-.92.43h-.52v1.171H9.608V12.49h-1.3Z" fill="currentColor"/>
</svg>
