<svg viewBox="0 0 16 16" fill="none" xmlns="http://www.w3.org/2000/svg">
  <path fill-rule="evenodd" clip-rule="evenodd" d="M8.339 1.271a4.518 4.518 0 0 1 7.66 3.214 4.524 4.524 0 0 1-1.269 3.18l-.012.013-2.111 2.114a4.402 4.402 0 0 1-.115.11c.325-.488.508-1.112.508-1.9 0-.473-.065-.886-.188-1.246l.485-.485a2.524 2.524 0 0 0-1.796-4.27 2.518 2.518 0 0 0-1.767.704L8.528 3.904a1 1 0 1 1-1.41-1.418l1.21-1.205.01-.01Zm-4.825 4.82a4.524 4.524 0 0 0-.122.117L1.281 8.322l-.013.012a4.524 4.524 0 0 0 3.212 7.664 4.518 4.518 0 0 0 3.18-1.27l.012-.011 1.204-1.205a1 1 0 0 0-1.415-1.414l-1.197 1.198A2.518 2.518 0 0 1 2 11.498a2.524 2.524 0 0 1 .702-1.77l.485-.484A3.859 3.859 0 0 1 3 8c0-.793.185-1.42.514-1.91Z" fill="currentColor" fill-opacity=".8"/>
  <path fill-rule="evenodd" clip-rule="evenodd" d="M6.45 10.064V9.051h2.474c.06 0 .116-.026.159-.074a.27.27 0 0 0 .065-.179.27.27 0 0 0-.065-.179.213.213 0 0 0-.16-.074H7.125c-.298 0-.584-.133-.795-.37C6.12 7.936 6 7.614 6 7.278c0-.336.118-.658.33-.895.21-.238.496-.371.794-.371h.45V5h.9v1.013h1.124v1.013H7.124a.213.213 0 0 0-.159.074.27.27 0 0 0-.065.179.27.27 0 0 0 .065.179c.043.047.1.074.16.074h1.799c.298 0 .584.133.795.37.21.238.329.56.329.896 0 .336-.119.658-.33.895-.21.238-.496.371-.794.371h-.45v1.013h-.9v-1.013H6.45Z" fill="currentColor" fill-opacity=".8"/>
</svg>
