<svg xmlns="http://www.w3.org/2000/svg" fill="none" viewBox="0 0 20 20">
  <g clip-path="url(#a)">
    <path fill="currentColor" d="M7.857 9.052a1 1 0 0 0 1-1V3.195a1 1 0 0 1 1-1h.286a1 1 0 0 1 1 1v4.857a1 1 0 0 0 1 1H17a1 1 0 0 1 1 1v.286a1 1 0 0 1-1 1h-4.857a1 1 0 0 0-1 1v4.857a1 1 0 0 1-1 1h-.286a1 1 0 0 1-1-1v-4.857a1 1 0 0 0-1-1H3a1 1 0 0 1-1-1v-.286a1 1 0 0 1 1-1h4.857Z"/>
  </g>
  <defs>
    <clipPath id="a">
      <path fill="currentColor" d="M0 0h20v20H0z"/>
    </clipPath>
  </defs>
</svg>
