<svg viewBox="0 0 16 16" fill="none" xmlns="http://www.w3.org/2000/svg">
  <path d="m6 8 1.333 1.333 3-3M4.89 2.546a2.555 2.555 0 0 0 1.454-.602 2.555 2.555 0 0 1 3.314 0c.41.348.918.56 1.454.602a2.555 2.555 0 0 1 2.343 2.343c.043.536.254 1.045.603 1.454.813.955.813 2.36 0 3.314-.35.41-.56.918-.603 1.454a2.555 2.555 0 0 1-2.343 2.343 2.555 2.555 0 0 0-1.454.602 2.555 2.555 0 0 1-3.314 0 2.555 2.555 0 0 0-1.454-.602 2.555 2.555 0 0 1-2.343-2.343 2.555 2.555 0 0 0-.602-1.454 2.555 2.555 0 0 1 0-3.314c.348-.41.56-.918.602-1.454A2.555 2.555 0 0 1 4.89 2.546Z" stroke="#6C636B" stroke-width="1.5" stroke-linecap="round" stroke-linejoin="round"/>
</svg>
