<svg viewBox="0 0 22 22" fill="none" xmlns="http://www.w3.org/2000/svg">
  <path fill-rule="evenodd" clip-rule="evenodd" d="M9.605 21a2.26 2.26 0 0 1-1.614-.665l-6.314-6.318a2.266 2.266 0 0 1 0-3.23l8.45-8.457C10.888 1.57 12.265 1 13.31 1h5.412C19.956 1 21 2.045 21 3.28v5.416c0 .403-.085.856-.233 1.304H19.18c.208-.443.348-.944.348-1.352V3.233a.851.851 0 0 0-.854-.855h-5.365v.047c-.665 0-1.71.428-2.184.903l-8.451 8.456a.832.832 0 0 0 0 1.188l6.314 6.318c.332.332.902.332 1.187 0l1.818-1.82v2.09l-.773.775A2.26 2.26 0 0 1 9.605 21Z" fill="currentColor"/>
  <path d="m7.991 20.335-.177.177.177-.177Zm-6.314-6.318.176-.177-.176.177Zm0-3.23.176.176-.176-.177Zm8.45-8.457-.176-.177.177.177ZM20.768 10v.25h.181l.057-.172-.238-.078Zm-1.587 0-.226-.106-.168.356h.394V10ZM13.31 2.378v-.25h-.25v.25h.25Zm0 .047v.25h.25v-.25h-.25Zm-2.184.903-.177-.177.177.177Zm-8.451 8.456.176.177-.176-.177Zm0 1.188-.177.176.177-.176Zm6.314 6.318-.177.177.177-.177Zm1.187 0-.177-.177-.007.007-.006.007.19.163Zm1.818-1.82h.25v-.604l-.426.428.176.176Zm0 2.09.177.177.073-.073v-.103h-.25Zm-.773.775.176.177-.176-.177Zm-3.406.177a2.51 2.51 0 0 0 1.791.738v-.5a2.01 2.01 0 0 1-1.437-.592l-.354.354ZM1.5 14.193l6.314 6.319.354-.354-6.315-6.318-.353.353Zm0-3.583c-1 1-1 2.583 0 3.583l.353-.353a2.016 2.016 0 0 1 0-2.877L1.5 10.61Zm8.45-8.457L1.5 10.61l.353.353 8.451-8.456-.353-.354ZM13.31.75c-.564 0-1.202.153-1.794.4-.592.246-1.156.595-1.564 1.003l.353.354c.352-.352.856-.668 1.403-.896.548-.229 1.12-.361 1.602-.361v-.5Zm5.412 0H13.31v.5h5.412v-.5Zm2.529 2.53c0-1.373-1.156-2.53-2.529-2.53v.5c1.096 0 2.029.933 2.029 2.03h.5Zm0 5.416V3.28h-.5v5.416h.5Zm-.245 1.382c.154-.466.245-.946.245-1.382h-.5c0 .37-.078.797-.22 1.226l.475.156Zm-1.825.172h1.587v-.5H19.18v.5Zm.098-1.602c0 .36-.126.823-.324 1.246l.452.213c.218-.464.372-1.002.372-1.459h-.5Zm0-5.415v5.415h.5V3.233h-.5Zm-.604-.605c.336 0 .604.268.604.605h.5a1.1 1.1 0 0 0-1.104-1.105v.5Zm-5.365 0h5.365v-.5H13.31v.5Zm.25-.203v-.047h-.5v.047h.5Zm-2.257 1.08c.205-.206.552-.416.939-.576.386-.159.78-.254 1.068-.254v-.5c-.377 0-.839.119-1.259.292-.42.173-.833.414-1.102.684l.354.354ZM2.85 11.96l8.452-8.456-.354-.354-8.451 8.456.353.354Zm0 .834a.582.582 0 0 1 0-.834l-.353-.354c-.43.43-.43 1.111 0 1.541l.353-.353Zm6.315 6.318L2.85 12.795l-.353.353 6.314 6.319.354-.354Zm.82.014c-.178.208-.577.23-.82-.014l-.354.354c.422.422 1.162.443 1.554-.015l-.38-.325Zm1.832-1.833-1.819 1.82.354.352 1.818-1.819-.353-.353Zm.426 2.267v-2.09h-.5v2.09h.5Zm-.847.95.774-.774-.353-.353-.774.774.353.354Zm-1.79.739a2.51 2.51 0 0 0 1.79-.738l-.353-.354a2.01 2.01 0 0 1-1.438.592v.5ZM20.988 20v-5c0-.55-.45-1-1-1h-5.996c-.55 0-1 .45-1 1v5c0 .55.45 1 1 1h5.996c.55 0 1-.45 1-1Zm-2.998-2.5c0 .55-.45 1-1 1s-1-.45-1-1 .45-1 1-1 1 .45 1 1Z" fill="currentColor"/>
  <path d="M19.489 16v-2.5c0-1.4-1.1-2.5-2.499-2.5s-2.498 1.1-2.498 2.5V16" stroke="currentColor" stroke-opacity=".8" stroke-miterlimit="10"/>
</svg>
