<svg width="21" height="20" fill="currentColor" xmlns="http://www.w3.org/2000/svg"><path d="M8.61 20a2.262 2.262 0 0 1-1.615-.665L.677 13.017a2.265 2.265 0 0 1 0-3.23L9.133 1.33C9.893.57 11.271 0 12.316 0h5.416c1.235 0 2.28 1.045 2.28 2.28v5.416c0 1.045-.57 2.423-1.33 3.183l-8.456 8.456A2.262 2.262 0 0 1 8.61 20Zm3.706-18.575c-.665 0-1.71.428-2.185.903l-8.456 8.456a.832.832 0 0 0 0 1.188l6.318 6.318c.332.332.902.332 1.188 0l8.456-8.456c.475-.475.902-1.473.902-2.186V2.233a.852.852 0 0 0-.855-.855h-5.368v.047Z"/><path d="M14.311 8.504A2.808 2.808 0 0 1 11.508 5.7a2.808 2.808 0 0 1 2.803-2.803A2.808 2.808 0 0 1 17.114 5.7a2.808 2.808 0 0 1-2.803 2.803Zm0-4.276a1.48 1.48 0 0 0-1.473 1.473 1.48 1.48 0 0 0 1.473 1.472 1.48 1.48 0 0 0 1.473-1.472 1.48 1.48 0 0 0-1.473-1.473Z"/></svg>