<svg xmlns="http://www.w3.org/2000/svg" viewBox="0 0 24 24" fill="none">
  <path d="M13.073 21.61a3 3 0 0 0 1.854 0c.685-.222 1.28-.816 2.467-2.004l2.212-2.212c1.188-1.188 1.782-1.782 2.004-2.467a3 3 0 0 0 0-1.854c-.222-.685-.816-1.28-2.004-2.467l-7.669-7.669c-.346-.346-.519-.519-.72-.642a2.001 2.001 0 0 0-.579-.24C10.409 2 10.165 2 9.676 2H5.2c-1.12 0-1.68 0-2.108.218a2 2 0 0 0-.874.874C2 3.52 2 4.08 2 5.2v4.475c0 .489 0 .733.055.963.05.204.13.4.24.579.105.17.245.321.496.574M8 8h.01m1.09 8.25v-1a2.5 2.5 0 0 0-5 0v1m2.5 2.25v1M8.5 8a.5.5 0 1 1-1 0 .5.5 0 0 1 1 0ZM5 21.75h3.2c.84 0 1.26 0 1.581-.163a1.5 1.5 0 0 0 .655-.656c.164-.32.164-.74.164-1.581v-.7c0-.84 0-1.26-.163-1.581a1.5 1.5 0 0 0-.656-.655c-.32-.164-.74-.164-1.581-.164H5c-.84 0-1.26 0-1.581.163a1.5 1.5 0 0 0-.656.656c-.163.32-.163.74-.163 1.581v.7c0 .84 0 1.26.163 1.581a1.5 1.5 0 0 0 .656.655c.32.164.74.164 1.581.164Z" stroke="currentColor" stroke-width="2" stroke-linecap="round" stroke-linejoin="round"/>
</svg>
