<svg viewBox="0 0 20 20" fill="none" xmlns="http://www.w3.org/2000/svg">
  <path d="M9.094 19.3c-.58 0-1.116-.223-1.517-.625l-5.936-5.94a2.13 2.13 0 0 1 0-3.036L9.585 1.75c.714-.714 2.008-1.25 2.99-1.25h5.088c1.16 0 2.142.982 2.142 2.143v5.091c0 .983-.536 2.278-1.25 2.992l-7.944 7.949a2.125 2.125 0 0 1-1.517.625Zm3.481-17.46c-.625 0-1.607.402-2.053.848l-7.944 7.949a.782.782 0 0 0 0 1.116l5.936 5.94c.312.312.848.312 1.115 0l7.944-7.95c.447-.446.848-1.384.848-2.053V2.599a.8.8 0 0 0-.803-.804h-5.043v.045Z" fill="currentColor"/>
  <path d="M14.45 8.493a2.639 2.639 0 0 1-2.634-2.634 2.639 2.639 0 0 1 2.633-2.635 2.639 2.639 0 0 1 2.634 2.635 2.639 2.639 0 0 1-2.633 2.634Zm0-4.019a1.39 1.39 0 0 0-1.384 1.385 1.39 1.39 0 0 0 1.383 1.384 1.39 1.39 0 0 0 1.384-1.384 1.39 1.39 0 0 0-1.383-1.385Z" fill="currentColor"/>
</svg>
