<svg xmlns="http://www.w3.org/2000/svg" viewBox="0 0 20 20" fill="none">
  <path d="M6.667 6.666h.008M1.667 4.333V8.06c0 .408 0 .612.046.804.04.17.108.332.2.481.102.169.246.313.535.601l6.39 6.39c.99.99 1.485 1.486 2.056 1.671a2.5 2.5 0 0 0 1.545 0c.571-.185 1.066-.68 2.056-1.67l1.843-1.844c.99-.99 1.485-1.485 1.67-2.055a2.5 2.5 0 0 0 0-1.546c-.185-.57-.68-1.065-1.67-2.055l-6.39-6.39c-.289-.29-.433-.433-.6-.536a1.666 1.666 0 0 0-.483-.2c-.191-.046-.395-.046-.803-.046H4.333c-.933 0-1.4 0-1.756.182-.314.16-.569.414-.729.728-.181.357-.181.823-.181 1.757Zm5.416 2.333a.417.417 0 1 1-.833 0 .417.417 0 0 1 .833 0Z" stroke="currentColor" stroke-width="2" stroke-linecap="round" stroke-linejoin="round"/>
</svg>
