<svg width="20" height="20" fill="currentColor" xmlns="http://www.w3.org/2000/svg"><path d="M17.5 3.75h-5.732l-8.75 8.75 5.732 5.733 8.75-8.75V3.75Zm0-1.25a1.25 1.25 0 0 1 1.25 1.25v5.732c0 .332-.132.65-.366.884l-8.75 8.75a1.25 1.25 0 0 1-1.768 0l-5.732-5.732a1.25 1.25 0 0 1 0-1.768l8.75-8.75a1.25 1.25 0 0 1 .883-.366H17.5Z"/><path d="M13.75 6.875a.625.625 0 1 1 1.25 0 .625.625 0 0 1-1.25 0Zm-1.25 0a1.875 1.875 0 1 0 3.75 0 1.875 1.875 0 0 0-3.75 0ZM11.143 1.25c-.332 0-.65.132-.884.366L.937 10.937l-.053-.053a1.25 1.25 0 0 1 0-1.768l8.75-8.75A1.25 1.25 0 0 1 10.517 0h5.733a1.25 1.25 0 0 1 1.25 1.25h-6.357Z"/></svg>