<svg xmlns="http://www.w3.org/2000/svg" viewBox="0 0 20 20" fill="none">
  <path d="M5.417 5.417h.008m9.158 0h.009m-9.175 9.166h.008m5.408-3.75h.009m3.741 3.75h.009m-.425 2.917H17.5v-3.333m-5.833-.417v3.75m5.833-5.833h-3.75M13 8.333h3.167c.466 0 .7 0 .878-.09a.833.833 0 0 0 .364-.365C17.5 7.7 17.5 7.467 17.5 7V3.833c0-.466 0-.7-.09-.878a.833.833 0 0 0-.365-.364c-.178-.091-.412-.091-.878-.091H13c-.467 0-.7 0-.878.09a.833.833 0 0 0-.364.365c-.091.178-.091.412-.091.878V7c0 .467 0 .7.09.878.08.157.208.285.365.365.178.09.411.09.878.09Zm-9.167 0H7c.467 0 .7 0 .878-.09a.833.833 0 0 0 .365-.365c.09-.178.09-.411.09-.878V3.833c0-.466 0-.7-.09-.878a.833.833 0 0 0-.365-.364C7.7 2.5 7.467 2.5 7 2.5H3.833c-.466 0-.7 0-.878.09a.833.833 0 0 0-.364.365c-.091.178-.091.412-.091.878V7c0 .467 0 .7.09.878.08.157.208.285.365.365.178.09.412.09.878.09Zm0 9.167H7c.467 0 .7 0 .878-.09a.833.833 0 0 0 .365-.365c.09-.178.09-.412.09-.878V13c0-.467 0-.7-.09-.878a.833.833 0 0 0-.365-.364c-.178-.091-.411-.091-.878-.091H3.833c-.466 0-.7 0-.878.09a.833.833 0 0 0-.364.365C2.5 12.3 2.5 12.533 2.5 13v3.167c0 .466 0 .7.09.878.08.157.208.284.365.364.178.091.412.091.878.091Z" stroke="currentColor" stroke-width="2" stroke-linecap="round" stroke-linejoin="round"/>
</svg>
