<svg viewBox="0 0 20 20" fill="currentColor" xmlns="http://www.w3.org/2000/svg">
  <path d="M15.938 13.125h-2.5a.312.312 0 0 0-.313.313v2.5c0 .172.14.312.313.312h2.5c.172 0 .312-.14.312-.313v-2.5a.312.312 0 0 0-.313-.312Zm-3.125-2.5h-1.876a.312.312 0 0 0-.312.313v1.874c0 .173.14.313.313.313h1.874c.173 0 .313-.14.313-.313v-1.874a.312.312 0 0 0-.313-.313Zm5.625 5.625h-1.875a.312.312 0 0 0-.313.313v1.875c0 .172.14.312.313.312h1.875c.172 0 .312-.14.312-.313v-1.875a.312.312 0 0 0-.313-.312Zm0-5.625h-1.25a.312.312 0 0 0-.313.313v1.25c0 .172.14.312.313.312h1.25c.172 0 .312-.14.312-.313v-1.25a.312.312 0 0 0-.313-.312Zm-6.25 6.25h-1.25a.312.312 0 0 0-.313.313v1.25c0 .172.14.312.313.312h1.25c.172 0 .312-.14.312-.313v-1.25a.312.312 0 0 0-.313-.312ZM17.5 1.25h-5.625a1.25 1.25 0 0 0-1.25 1.25v5.625a1.25 1.25 0 0 0 1.25 1.25H17.5a1.25 1.25 0 0 0 1.25-1.25V2.5a1.25 1.25 0 0 0-1.25-1.25Zm-1.25 5.313a.312.312 0 0 1-.313.312h-2.5a.313.313 0 0 1-.312-.313v-2.5a.312.312 0 0 1 .313-.312h2.5a.313.313 0 0 1 .312.313v2.5ZM8.125 1.25H2.5A1.25 1.25 0 0 0 1.25 2.5v5.625a1.25 1.25 0 0 0 1.25 1.25h5.625a1.25 1.25 0 0 0 1.25-1.25V2.5a1.25 1.25 0 0 0-1.25-1.25Zm-1.25 5.313a.312.312 0 0 1-.313.312h-2.5a.312.312 0 0 1-.312-.313v-2.5a.312.312 0 0 1 .313-.312h2.5a.312.312 0 0 1 .312.313v2.5Zm1.25 4.062H2.5a1.25 1.25 0 0 0-1.25 1.25V17.5a1.25 1.25 0 0 0 1.25 1.25h5.625a1.25 1.25 0 0 0 1.25-1.25v-5.625a1.25 1.25 0 0 0-1.25-1.25Zm-1.25 5.313a.313.313 0 0 1-.313.312h-2.5a.312.312 0 0 1-.312-.313v-2.5a.313.313 0 0 1 .313-.312h2.5a.312.312 0 0 1 .312.313v2.5Z"/>
</svg>
