<svg xmlns="http://www.w3.org/2000/svg" width="15" height="15" viewBox="0 0 15 15">
  <path fill="currentColor"
    d="M4.993 1.582a.5.5 0 1 0-.986-.164l-2 12a.5.5 0 1 0 .986.164l.67-4.02c.806.118 1.677.157 2.363.638a3.3 3.3 0 0 0 1.432.583c.966.146 1.83-.385 2.784-.234l1.289.194c.26.04.53-.16.569-.42l.884-5.934l.004-.004a.52.52 0 0 0-.427-.564l-1.289-.194c-.963-.143-1.829.373-2.783.23A2.8 2.8 0 0 1 7.3 3.38c-.739-.517-1.619-.603-2.486-.725zm-.59 3.538l.33-1.972c.599.082 1.233.129 1.788.369l-.295 1.965c-.57-.233-1.213-.278-1.822-.362m-.658 3.95l.33-1.974c.62.086 1.277.13 1.858.368l.3-1.976c.658.27 1.159.733 1.893.841l.3-1.98c.738.111 1.349-.177 2.058-.234l-.3 1.966c-.71.06-1.324.36-2.06.25l-.286 1.978c-.736-.11-1.238-.575-1.899-.844l-.3 1.976c-.595-.239-1.263-.281-1.894-.371m4.094-.76c.734.11 1.351-.192 2.061-.251l.284-1.978c.655-.06 1.325.111 1.968.209l-.28 1.976c-.644-.097-1.316-.269-1.971-.207l-.3 1.976c-.709.048-1.335.36-2.062.25z" />
</svg>