<svg viewBox="0 0 20 20" fill="none" xmlns="http://www.w3.org/2000/svg">
  <path fill-rule="evenodd" clip-rule="evenodd" d="M5.396 2.285a8.837 8.837 0 0 1 13.173 6.436.9.9 0 1 1-1.783.247A7.037 7.037 0 0 0 4.105 5.826a.1.1 0 0 0 .081.159H5.92a.9.9 0 1 1 0 1.8H2a.9.9 0 0 1-.9-.9v-3.92a.9.9 0 0 1 1.8 0v1.192a.1.1 0 0 0 .176.065 8.836 8.836 0 0 1 2.32-1.937Zm2.563 7.54a1.88 1.88 0 1 1 3.76 0 1.88 1.88 0 0 1-3.76 0Zm-6.083.088a.9.9 0 0 1 1.015.767 7.037 7.037 0 0 0 12.682 3.142.1.1 0 0 0-.082-.158h-1.733a.9.9 0 1 1 0-1.8h3.41a.93.93 0 0 1 .04 0h.47a.9.9 0 0 1 .9.9v3.92a.9.9 0 1 1-1.8 0V15.49a.1.1 0 0 0-.177-.064 8.834 8.834 0 0 1-12.958.564 8.837 8.837 0 0 1-2.534-5.063.9.9 0 0 1 .767-1.015Zm7.983-.088V9.82l-.002-.005a.019.019 0 0 0-.004-.006.019.019 0 0 0-.006-.004h-.002l-.004-.001h-.006l-.005.001a.019.019 0 0 0-.006.004.019.019 0 0 0-.004.006.028.028 0 0 0-.001.005v.003l.04.001Z" fill="currentColor"/>
</svg>
