<svg viewBox="0 0 24 24" fill="none" xmlns="http://www.w3.org/2000/svg">
  <path d="M18.46 18a.484.484 0 0 1-.425-.24 7.324 7.324 0 0 0-2.66-2.634 7.345 7.345 0 0 0-3.615-.978v2.889a.481.481 0 0 1-.3.443.484.484 0 0 1-.525-.101L5.143 11.6a.483.483 0 0 1 0-.684l5.792-5.778a.483.483 0 0 1 .526-.101.482.482 0 0 1 .3.443v2.942a8.303 8.303 0 0 1 5.163 2.733A8.265 8.265 0 0 1 19 16.608a7.85 7.85 0 0 1-.063.963.482.482 0 0 1-.381.414l-.097.015Zm-6.941-4.815a8.523 8.523 0 0 1 6.516 2.889 7.365 7.365 0 0 0-2.156-4.62 7.397 7.397 0 0 0-4.645-2.121.483.483 0 0 1-.44-.482v-2.21L6.167 11.26l4.629 4.617v-2.21a.48.48 0 0 1 .482-.481h.261-.02Z" fill="currentColor"/>
</svg>
