<svg xmlns="http://www.w3.org/2000/svg" fill="none" viewBox="0 0 30 30">
  <g fill-rule="evenodd" clip-path="url(#restAPI_svg__a)" clip-rule="evenodd">
    <path fill="currentColor" d="M23 4.3H7A2.7 2.7 0 0 0 4.3 7v16A2.7 2.7 0 0 0 7 25.7h16a2.7 2.7 0 0 0 2.7-2.7V7A2.7 2.7 0 0 0 23 4.3ZM7 3a4 4 0 0 0-4 4v16a4 4 0 0 0 4 4h16a4 4 0 0 0 4-4V7a4 4 0 0 0-4-4H7Z"/>
    <path fill="currentColor" d="M14.911 11a1 1 0 0 0-1 1v7.111a1 1 0 1 0 2 0v-1.667h1.667a2.778 2.778 0 0 0 2.777-2.777v-.89A2.778 2.778 0 0 0 17.578 11H14.91Zm2.667 4.444H15.91V13h1.667a.777.777 0 0 1 .777.778v.889a.777.777 0 0 1-.777.777Zm-10.778 1v-2.222a3.222 3.222 0 0 1 6.444 0v4.889a1 1 0 1 1-2 0v-1.667H8.8v1.667a1 1 0 1 1-2 0v-2.667Zm2-1h2.444v-1.222a1.222 1.222 0 1 0-2.444 0v1.222ZM22.022 11a1 1 0 0 1 1 1v7.111a1 1 0 1 1-2 0V12a1 1 0 0 1 1-1Z"/>
    <path d="M15.711 17.444c0-.11.09-.2.2-.2h1.667a2.577 2.577 0 0 0 2.578-2.577v-.89a2.577 2.577 0 0 0-2.578-2.577H14.91a.8.8 0 0 0-.8.8v7.111a.8.8 0 0 0 1.6 0v-1.667Zm.2-1.8a.2.2 0 0 1-.2-.2V13c0-.11.09-.2.2-.2h1.667a.978.978 0 0 1 .977.978v.889a.978.978 0 0 1-.977.977H15.91Zm-4.667 1.6c.11 0 .2.09.2.2v1.667a.8.8 0 0 0 1.6 0v-4.889a3.022 3.022 0 0 0-6.044 0v4.89a.8.8 0 0 0 1.6 0v-1.668c0-.11.09-.2.2-.2h2.444Zm-2.444-1.6a.2.2 0 0 1-.2-.2v-1.222a1.422 1.422 0 1 1 2.844 0v1.222a.2.2 0 0 1-.2.2H8.8Zm7.111 3.467a1 1 0 1 1-2 0V12a1 1 0 0 1 1-1h2.667a2.778 2.778 0 0 1 2.777 2.778v.889a2.778 2.778 0 0 1-2.777 2.777H15.91v1.667Zm1.667-3.667a.777.777 0 0 0 .777-.777v-.89a.778.778 0 0 0-.777-.777H15.91v2.444h1.667ZM8.8 19.111a1 1 0 1 1-2 0v-4.889a3.222 3.222 0 0 1 6.444 0v4.89a1 1 0 1 1-2 0v-1.668H8.8v1.667Zm2.444-4.889a1.222 1.222 0 1 0-2.444 0v1.222h2.444v-1.222ZM22.822 12a.8.8 0 0 0-1.6 0v7.111a.8.8 0 0 0 1.6 0V12Zm.2 0a1 1 0 1 0-2 0v7.111a1 1 0 1 0 2 0V12Z"/>
  </g>
  <defs>
    <clipPath id="restAPI_svg__a">
      <path d="M3 3h24v24H3z"/>
    </clipPath>
  </defs>
</svg>
