<svg viewBox="0 0 20 20" fill="none" xmlns="http://www.w3.org/2000/svg">
  <path d="M3.49 8.67a.899.899 0 0 0 .232-1.784l-1.57-.392a.892.892 0 1 0-.463 1.72l1.57.42a.695.695 0 0 0 .23.035Zm3.44-4.985a.891.891 0 0 0 .891.66.73.73 0 0 0 .232 0 .891.891 0 0 0 .624-1.088L8.26 1.69a.891.891 0 1 0-1.72.464l.392 1.533Zm4.306 8.915a.892.892 0 0 0-1.293 0l-3.12 3.173a1.97 1.97 0 0 1-2.728 0 1.916 1.916 0 0 1 0-2.728l3.174-3.12A.891.891 0 1 0 6.013 8.67l-3.2 3.112a3.732 3.732 0 1 0 5.277 5.277l3.147-3.147a.891.891 0 0 0 0-1.31ZM3.864 5.103a.891.891 0 0 0 1.257 0 .891.891 0 0 0 0-1.256l-1.15-1.15a.891.891 0 0 0-1.257 1.257l1.15 1.15ZM18.2 11.638l-1.569-.42a.891.891 0 1 0-.446 1.722l1.57.418h.231a.899.899 0 1 0 .232-1.783l-.018.063Zm-5.242 4.529a.891.891 0 0 0-1.72.463l.419 1.57a.89.89 0 0 0 .891.659c.077.008.155.008.232 0a.893.893 0 0 0 .633-1.097l-.455-1.595Zm3.067-1.4a.89.89 0 0 0-1.257 1.257l1.15 1.15a.892.892 0 0 0 1.257 0 .892.892 0 0 0 0-1.257l-1.15-1.15Zm2.122-9.298a3.708 3.708 0 0 0-6.348-2.674L8.652 5.968a.91.91 0 1 0 1.292 1.284l3.12-3.174a1.97 1.97 0 0 1 2.728 0 1.917 1.917 0 0 1 0 2.728l-3.174 3.12a.892.892 0 0 0 0 1.257.892.892 0 0 0 1.258 0l3.2-3.11a3.735 3.735 0 0 0 1.07-2.604Z" fill="currentColor"/>
</svg>
