<svg viewBox="0 0 20 20" fill="none" xmlns="http://www.w3.org/2000/svg">
  <path d="M10 9.375a1.25 1.25 0 1 0 0-2.5 1.25 1.25 0 0 0 0 2.5Z" stroke="currentColor" stroke-width="1.4" stroke-miterlimit="10" stroke-linecap="round" stroke-linejoin="round"/>
  <path d="M6.25 9.938c-1.188.937-2.125 2.25-2.5 3.812h1.438c.937 0 1.625-.875 1.375-1.75a9.626 9.626 0 0 1-.375-2.688C6.25 5.876 7.813 2.939 10 1.875c2.188 1.063 3.75 4 3.75 7.375 0 .938-.125 1.875-.375 2.688-.25.874.438 1.75 1.375 1.75h1.5c-.375-1.563-1.313-2.938-2.5-3.813M10 13.75v5M8.125 15v2.5m3.75-2.5v2.5" stroke="currentColor" stroke-width="1.4" stroke-miterlimit="10" stroke-linecap="round" stroke-linejoin="round"/>
</svg>
