<svg viewBox="0 0 40 40" fill="none" xmlns="http://www.w3.org/2000/svg">
  <path fill-rule="evenodd" clip-rule="evenodd" d="M26.05 8.552c3.799-3.798 7.474-4.099 9.352-3.954.145 1.878-.156 5.553-3.954 9.352l-11.32 11.32-5.398-5.398 9.163-9.162.008-.01 2.15-2.148ZM22.817 5.32l-1.484 1.483H9.94a3.81 3.81 0 0 0-2.656 1.132l-6.166 6.147-.003.003a3.81 3.81 0 0 0 1.95 6.43h.002l7.302 1.464 7.653 7.653 1.463 7.301v.003a3.812 3.812 0 0 0 6.43 1.95l6.151-6.169a3.81 3.81 0 0 0 1.132-2.656V18.667l1.483-1.484C40.216 11.65 40.24 5.961 39.863 3.36A3.773 3.773 0 0 0 36.641.137c-2.602-.376-8.29-.353-13.824 5.182ZM5.358 16.31l5.388 1.08 6.015-6.015h-6.452l-4.95 4.935ZM22.61 29.255l1.08 5.387 4.935-4.951v-6.452l-6.015 6.015Zm-13.608-.278a2.286 2.286 0 1 0-2.29-3.958c-3.224 1.866-4.709 5.062-5.404 7.487a19.116 19.116 0 0 0-.697 4.184 11.72 11.72 0 0 0-.012.38v.044l2.286.001H.598a2.286 2.286 0 0 0 2.287 2.287v-2.287l.001 2.287h.045a9.419 9.419 0 0 0 .38-.013 19.11 19.11 0 0 0 4.184-.698c2.424-.694 5.62-2.179 7.486-5.404a2.286 2.286 0 0 0-3.958-2.29c-1.012 1.749-2.874 2.75-4.788 3.299-.244.07-.483.13-.714.183.053-.23.113-.47.183-.714.549-1.914 1.55-3.776 3.298-4.788Z" fill="currentColor"/>
</svg>
