<svg xmlns="http://www.w3.org/2000/svg" viewBox="0 0 20 20" fill="none">
  <path d="M10 12.5 7.5 10m2.5 2.5a18.63 18.63 0 0 0 3.333-1.667M10 12.5v4.166s2.525-.458 3.333-1.666c.9-1.35 0-4.167 0-4.167M7.5 10a18.332 18.332 0 0 1 1.667-3.292 10.733 10.733 0 0 1 9.166-5.042c0 2.267-.65 6.25-5 9.167M7.5 10H3.333S3.792 7.475 5 6.666c1.35-.9 4.167 0 4.167 0M3.75 13.75c-1.25 1.05-1.667 4.166-1.667 4.166S5.2 17.5 6.25 16.25c.592-.7.583-1.775-.075-2.425a1.817 1.817 0 0 0-2.425-.075Z" stroke="currentColor" stroke-width="2" stroke-linecap="round" stroke-linejoin="round"/>
</svg>
