<svg xmlns="http://www.w3.org/2000/svg" viewBox="0 0 56 56" fill="none">
  <path d="m28 35-7-7m7 7a52.15 52.15 0 0 0 9.334-4.666M28 35v11.667s7.07-1.284 9.334-4.667c2.52-3.78 0-11.666 0-11.666M21 28a51.329 51.329 0 0 1 4.667-9.216A30.054 30.054 0 0 1 51.333 4.666c0 6.347-1.82 17.5-14 25.666M21 28H9.334s1.283-7.07 4.666-9.333c3.78-2.52 11.667 0 11.667 0M10.5 38.5C7 41.44 5.833 50.167 5.833 50.167S14.56 49 17.5 45.5c1.657-1.96 1.634-4.97-.21-6.79a5.086 5.086 0 0 0-6.79-.21Z" stroke="currentColor" stroke-width="5.6" stroke-linecap="round" stroke-linejoin="round"/>
</svg>
