<svg xmlns="http://www.w3.org/2000/svg" viewBox="0 0 24 24" fill="none">
  <path d="m7.725 7.725 2.218 2.218m4.114 4.114 2.218 2.218m-6.332-2.218-2.218 2.218m8.55-8.55-2.218 2.218M14.909 12a2.91 2.91 0 1 1-5.818 0 2.91 2.91 0 0 1 5.818 0ZM8.364 6.182a2.182 2.182 0 1 1-4.364 0 2.182 2.182 0 0 1 4.364 0Zm11.636 0a2.182 2.182 0 1 1-4.364 0 2.182 2.182 0 0 1 4.364 0Zm0 11.636a2.182 2.182 0 1 1-4.364 0 2.182 2.182 0 0 1 4.364 0Zm-11.636 0a2.182 2.182 0 1 1-4.364 0 2.182 2.182 0 0 1 4.364 0Z" stroke="currentColor" stroke-width="2" stroke-linecap="round" stroke-linejoin="round"/>
</svg>
