<svg xmlns="http://www.w3.org/2000/svg" fill="none" viewBox="0 0 30 30">
  <path fill="currentColor" d="M22.857 19.714a3.033 3.033 0 0 0-1.571.448l-2.428-2.436a4.714 4.714 0 0 0 0-5.452l2.428-2.436c.473.29 1.016.445 1.571.448a3.143 3.143 0 1 0-3.143-3.143c.003.555.158 1.098.448 1.571l-2.436 2.428a4.714 4.714 0 0 0-5.452 0L9.838 8.714c.29-.473.445-1.016.448-1.571a3.143 3.143 0 1 0-3.143 3.143 3.033 3.033 0 0 0 1.571-.448l2.428 2.436a4.714 4.714 0 0 0 0 5.452l-2.428 2.436a3.033 3.033 0 0 0-1.571-.448 3.142 3.142 0 1 0 3.143 3.143 3.033 3.033 0 0 0-.448-1.571l2.436-2.428a4.714 4.714 0 0 0 5.452 0l2.436 2.428a3.033 3.033 0 0 0-.448 1.571 3.142 3.142 0 1 0 3.143-3.143Zm0-14.143a1.572 1.572 0 1 1 0 3.144 1.572 1.572 0 0 1 0-3.144ZM5.571 7.143a1.571 1.571 0 1 1 3.143 0 1.571 1.571 0 0 1-3.143 0Zm1.572 17.286a1.571 1.571 0 1 1 0-3.143 1.571 1.571 0 0 1 0 3.143ZM15 18.143a3.143 3.143 0 1 1 0-6.287 3.143 3.143 0 0 1 0 6.287Zm7.857 6.286a1.571 1.571 0 1 1 0-3.143 1.571 1.571 0 0 1 0 3.143Z"/>
</svg>
