<svg xmlns="http://www.w3.org/2000/svg" fill="none" viewBox="0 0 20 20">
  <path fill="#E53E3E" d="M10 0c5.523 0 10 4.477 10 10s-4.477 10-10 10S0 15.523 0 10 4.477 0 10 0m0 1.6a8.4 8.4 0 1 0 0 16.8 8.4 8.4 0 0 0 0-16.8m6.895 9.41a.501.501 0 0 1 .21.98l-.154.03-1.547 2.68a.2.2 0 0 1-.345 0l-1.222-2.115-.152.022-1.293 3.02a.2.2 0 0 1-.359.02l-1.556-2.774q-.362.008-.725.003l-1.554 2.77a.2.2 0 0 1-.358-.019l-1.28-2.985-.184-.026L5.173 14.7a.2.2 0 0 1-.346 0l-1.516-2.626-.416-.085-.096-.031A.501.501 0 0 1 3.005 11l.1.01.992.207c4.824.957 7.78.867 12.798-.206M3.88 5.368a.43.43 0 0 1 .266.038L9.064 7.88a.426.426 0 0 1-.04.777l-1.246.472A2.42 2.42 0 0 1 4.83 8.094L3.59 6.002a.43.43 0 0 1 .055-.506.43.43 0 0 1 .235-.129m12.241 0a.424.424 0 0 1 .29.634l-1.24 2.093a2.43 2.43 0 0 1-2.951 1.035l-1.246-.472h.003a.428.428 0 0 1-.217-.611.43.43 0 0 1 .177-.166l4.919-2.474a.42.42 0 0 1 .265-.039"/>
</svg>
