<svg xmlns="http://www.w3.org/2000/svg" viewBox="0 0 16 16" fill="none">
  <path d="M5.333 2H5.2c-1.12 0-1.68 0-2.108.218a2 2 0 0 0-.874.874C2 3.52 2 4.08 2 5.2v.133M5.333 14H5.2c-1.12 0-1.68 0-2.108-.218a2 2 0 0 1-.874-.874C2 12.48 2 11.92 2 10.8v-.133m12-5.334V5.2c0-1.12 0-1.68-.218-2.108a2 2 0 0 0-.874-.874C12.48 2 11.92 2 10.8 2h-.133M14 10.667v.133c0 1.12 0 1.68-.218 2.108a2 2 0 0 1-.874.874C12.48 14 11.92 14 10.8 14h-.133" stroke="currentColor" stroke-width="2" stroke-linecap="round" stroke-linejoin="round"/>
</svg>
