<svg viewBox="0 0 20 20" fill="none" xmlns="http://www.w3.org/2000/svg">
  <path d="M19.916 9.556c-.111-.111-.111-.223-.222-.334L16.356 5.89a1.077 1.077 0 0 0-1.558 0 1.073 1.073 0 0 0 0 1.556l1.446 1.444h-5.118c-.667 0-1.112.444-1.112 1.111s.445 1.111 1.112 1.111h5.118l-1.446 1.445a1.073 1.073 0 0 0 0 1.555c.223.222.556.334.779.334.223 0 .556-.112.779-.334l3.338-3.333c.111-.111.222-.222.222-.333a1.225 1.225 0 0 0 0-.89Z" fill="currentColor"/>
  <path d="M13.908 16.778a8.135 8.135 0 0 1-3.894 1c-4.34 0-7.789-3.445-7.789-7.778s3.45-7.778 7.789-7.778c1.335 0 2.67.334 3.894 1 .556.334 1.224.111 1.558-.444.334-.556.111-1.222-.445-1.556C13.463.444 11.794 0 10.014 0A9.965 9.965 0 0 0 0 10c0 5.556 4.45 10 10.014 10a9.94 9.94 0 0 0 5.007-1.333c.556-.334.667-1 .445-1.556-.334-.444-1.002-.667-1.558-.333Z" fill="currentColor"/>
</svg>
