<svg viewBox="0 0 20 20" fill="none" xmlns="http://www.w3.org/2000/svg">
  <path d="M14.76 18.333a.603.603 0 0 1-.294-.075L10 15.798l-4.467 2.46a.607.607 0 0 1-.663-.052.657.657 0 0 1-.213-.285.69.69 0 0 1-.038-.36l.853-5.21-3.615-3.69a.69.69 0 0 1-.16-.677.663.663 0 0 1 .194-.3.615.615 0 0 1 .315-.149l4.995-.76 2.233-4.74a.65.65 0 0 1 .233-.269.61.61 0 0 1 .666 0c.1.065.18.158.232.269l2.234 4.74 4.994.76c.116.018.226.07.316.149.09.079.157.183.193.3a.69.69 0 0 1-.16.678l-3.615 3.69.854 5.21a.692.692 0 0 1-.14.537.636.636 0 0 1-.216.173.607.607 0 0 1-.266.061h.001Z" fill="currentColor"/>
</svg>
