<svg viewBox="0 0 20 20" fill="none" xmlns="http://www.w3.org/2000/svg">
  <path fill-rule="evenodd" clip-rule="evenodd" d="M15.711 20a.724.724 0 0 1-.352-.09Zm.005 0a.73.73 0 0 0 .314-.074.77.77 0 0 0 .26-.208.806.806 0 0 0 .167-.644l-1.024-6.252 4.338-4.428a.828.828 0 0 0 .192-.813.796.796 0 0 0-.232-.36.74.74 0 0 0-.38-.179l-5.86-.892a.25.25 0 0 1-.19-.14L10.679.442A.78.78 0 0 0 10.4.119a.732.732 0 0 0-.798 0 .78.78 0 0 0-.28.323L6.699 6.01a.25.25 0 0 1-.188.14l-5.862.892a.741.741 0 0 0-.38.179.795.795 0 0 0-.231.36.829.829 0 0 0-.015.436.802.802 0 0 0 .207.377l4.25 4.338a.25.25 0 0 1 .068.215l-1.004 6.127a.827.827 0 0 0 .045.432.788.788 0 0 0 .256.342.728.728 0 0 0 .796.061l5.24-2.886a.25.25 0 0 1 .24 0l5.24 2.886m-9.354-3.497a.25.25 0 0 0 .367.26L9.88 14.74a.25.25 0 0 1 .24 0l3.507 1.932a.25.25 0 0 0 .367-.26l-.678-4.141a.25.25 0 0 1 .068-.216l2.982-3.043a.25.25 0 0 0-.14-.423l-4.09-.622a.25.25 0 0 1-.189-.14l-1.72-3.653a.25.25 0 0 0-.453 0L8.053 7.826a.25.25 0 0 1-.189.141l-4.09.622a.25.25 0 0 0-.14.423l2.982 3.043a.25.25 0 0 1 .068.216l-.678 4.14ZM15.716 20h-.003Z" fill="currentColor"/>
</svg>
