<svg xmlns="http://www.w3.org/2000/svg" viewBox="0 0 21 20" fill="none">
  <path fill-rule="evenodd" clip-rule="evenodd" d="M16.568 20a.724.724 0 0 1-.352-.09l.352.09Zm.005 0a.73.73 0 0 0 .314-.074c.1-.049.189-.12.26-.208a.806.806 0 0 0 .167-.644l-1.024-6.252 4.338-4.428a.803.803 0 0 0 .207-.377.83.83 0 0 0-.015-.436.795.795 0 0 0-.232-.36.74.74 0 0 0-.38-.179l-5.86-.892a.25.25 0 0 1-.19-.14L11.537.442a.78.78 0 0 0-.28-.323.732.732 0 0 0-.799 0 .78.78 0 0 0-.279.323L7.555 6.01a.25.25 0 0 1-.188.14l-5.862.892a.741.741 0 0 0-.38.179.795.795 0 0 0-.231.36.829.829 0 0 0-.015.436.802.802 0 0 0 .207.377l4.25 4.338a.25.25 0 0 1 .068.215L4.4 19.074a.827.827 0 0 0 .045.432.788.788 0 0 0 .256.342.728.728 0 0 0 .796.061l5.24-2.886a.25.25 0 0 1 .24 0l5.24 2.886m-9.354-3.497a.25.25 0 0 0 .367.26l3.506-1.932a.25.25 0 0 1 .242 0l3.506 1.932a.25.25 0 0 0 .367-.26l-.678-4.141a.25.25 0 0 1 .068-.216l2.982-3.043a.25.25 0 0 0-.14-.423l-4.09-.622a.25.25 0 0 1-.189-.14l-1.72-3.653a.25.25 0 0 0-.453 0L8.91 7.826a.25.25 0 0 1-.189.141l-4.09.622a.25.25 0 0 0-.14.423l2.982 3.043a.25.25 0 0 1 .068.216l-.678 4.14ZM16.573 20h-.004.004Z" fill="currentColor"/>
</svg>
