<svg xmlns="http://www.w3.org/2000/svg" viewBox="0 0 20 20" fill="none">
  <path d="M9.402 2.878c.192-.39.288-.584.419-.646a.417.417 0 0 1 .358 0c.13.062.227.257.419.646l1.822 3.691a.912.912 0 0 0 .127.217c.036.04.08.072.13.095a.91.91 0 0 0 .244.053l4.076.596c.43.063.644.094.744.199a.417.417 0 0 1 .11.34c-.019.144-.174.295-.485.598l-2.948 2.872a.911.911 0 0 0-.168.187.417.417 0 0 0-.05.153.913.913 0 0 0 .026.25l.696 4.056c.073.428.11.642.04.769a.417.417 0 0 1-.29.21c-.142.027-.334-.074-.718-.276l-3.644-1.916a.908.908 0 0 0-.23-.102.416.416 0 0 0-.16 0 .908.908 0 0 0-.23.102l-3.644 1.916c-.384.202-.577.303-.719.277a.417.417 0 0 1-.29-.211c-.069-.127-.032-.341.041-.769l.696-4.056c.022-.127.033-.19.025-.25a.416.416 0 0 0-.05-.153.91.91 0 0 0-.167-.187L2.634 8.667c-.311-.303-.466-.454-.485-.597a.417.417 0 0 1 .11-.341c.1-.105.314-.136.744-.2l4.076-.595c.126-.019.19-.028.245-.053a.417.417 0 0 0 .13-.095.925.925 0 0 0 .126-.217l1.822-3.691Z" stroke="currentColor" stroke-width="2" stroke-linecap="round" stroke-linejoin="round"/>
</svg>
