<svg viewBox="0 0 20 20" fill="none" xmlns="http://www.w3.org/2000/svg">
  <path fill-rule="evenodd" clip-rule="evenodd" d="M14.76 18.333a.603.603 0 0 1-.294-.075l.293.075Zm.003 0a.6.6 0 0 0 .262-.061c.083-.04.157-.1.216-.173a.674.674 0 0 0 .14-.538l-.854-5.21 3.616-3.69a.69.69 0 0 0 .16-.677.662.662 0 0 0-.194-.3.617.617 0 0 0-.316-.149l-4.884-.743a.208.208 0 0 1-.158-.117l-2.186-4.64a.651.651 0 0 0-.232-.269.61.61 0 0 0-.666 0 .65.65 0 0 0-.233.269l-2.186 4.64a.208.208 0 0 1-.157.117l-4.885.743a.617.617 0 0 0-.315.149.663.663 0 0 0-.194.3.69.69 0 0 0 .16.678L5.4 12.276a.208.208 0 0 1 .056.18L4.62 17.56a.69.69 0 0 0 .038.36.657.657 0 0 0 .213.285.613.613 0 0 0 .663.052L9.9 15.852a.208.208 0 0 1 .201 0l4.366 2.405m-7.795-2.915c-.028.172.154.3.306.216L9.9 13.95a.208.208 0 0 1 .201 0l2.922 1.61a.208.208 0 0 0 .306-.216l-.565-3.452a.208.208 0 0 1 .057-.18l2.485-2.536a.208.208 0 0 0-.117-.351l-3.409-.52a.208.208 0 0 1-.157-.116l-1.434-3.044a.208.208 0 0 0-.377 0L8.377 8.189a.208.208 0 0 1-.157.117l-3.408.518a.208.208 0 0 0-.118.352l2.486 2.537a.208.208 0 0 1 .057.18l-.566 3.45Zm8.092 2.99h-.003.003Z" fill="currentColor"/>
</svg>
