<svg xmlns="http://www.w3.org/2000/svg" viewBox="0 0 20 20" fill="none">
  <path d="M15.713 20a.724.724 0 0 1-.354-.09L10 16.956 4.64 19.91a.728.728 0 0 1-.796-.061.788.788 0 0 1-.256-.342.827.827 0 0 1-.045-.432l1.024-6.252L.229 8.394a.802.802 0 0 1-.207-.377.829.829 0 0 1 .015-.435.795.795 0 0 1 .232-.361.741.741 0 0 1 .379-.179L6.64 6.13 9.321.442a.78.78 0 0 1 .28-.323.731.731 0 0 1 .798 0 .78.78 0 0 1 .28.323l2.68 5.688 5.993.912a.74.74 0 0 1 .379.178.8.8 0 0 1 .232.361.828.828 0 0 1-.192.813l-4.338 4.428 1.024 6.252a.83.83 0 0 1-.167.644.762.762 0 0 1-.26.208.728.728 0 0 1-.319.074h.002Z" fill="currentColor"/>
</svg>
