<svg viewBox="0 0 18 18" fill="none" xmlns="http://www.w3.org/2000/svg">
  <path d="M13.76 17.333a.603.603 0 0 1-.294-.075L9 14.798l-4.467 2.46a.606.606 0 0 1-.663-.051.657.657 0 0 1-.213-.285.69.69 0 0 1-.038-.36l.854-5.21-3.616-3.69a.69.69 0 0 1-.16-.677.663.663 0 0 1 .194-.301c.09-.08.2-.131.316-.149l4.994-.76 2.234-4.74a.65.65 0 0 1 .232-.269.61.61 0 0 1 .666 0c.1.065.18.158.233.269l2.233 4.74 4.994.76c.117.018.226.07.316.149a.66.66 0 0 1 .193.3.69.69 0 0 1-.16.678l-3.614 3.69.853 5.21a.692.692 0 0 1-.14.537.634.634 0 0 1-.216.173.605.605 0 0 1-.265.061Z" fill="currentColor"/>
</svg>
