<svg viewBox="0 0 20 20" fill="none" xmlns="http://www.w3.org/2000/svg">
  <path d="m4.7 14.167-.592.591a.833.833 0 0 0 0 1.175.833.833 0 0 0 1.175 0l.592-.591A.833.833 0 0 0 4.7 14.167ZM4.167 10a.833.833 0 0 0-.834-.833H2.5a.833.833 0 0 0 0 1.666h.833A.833.833 0 0 0 4.167 10ZM10 4.167a.833.833 0 0 0 .833-.834V2.5a.833.833 0 1 0-1.666 0v.833a.833.833 0 0 0 .833.834ZM4.7 5.875a.833.833 0 0 0 1.175 0 .833.833 0 0 0 0-1.175l-.592-.592a.833.833 0 0 0-1.175 1.175l.592.592Zm10 .242a.833.833 0 0 0 .583-.242l.592-.592a.835.835 0 0 0-.574-1.465.833.833 0 0 0-.601.29l-.533.592a.833.833 0 0 0 0 1.175.833.833 0 0 0 .55.242H14.7Zm2.8 3.05h-.833a.833.833 0 0 0 0 1.666h.833a.833.833 0 0 0 0-1.666ZM10 15.833a.834.834 0 0 0-.833.834v.833a.833.833 0 0 0 1.666 0v-.833a.833.833 0 0 0-.833-.834Zm5.3-1.666a.834.834 0 0 0-1.133 1.133l.591.592a.833.833 0 0 0 1.175 0 .833.833 0 0 0 0-1.175l-.633-.55ZM10 5.417A4.583 4.583 0 1 0 14.583 10 4.592 4.592 0 0 0 10 5.417Zm0 7.5a2.917 2.917 0 1 1 0-5.834 2.917 2.917 0 0 1 0 5.834Z" fill="currentColor"/>
</svg>
