<svg viewBox="0 0 16 16" fill="none" xmlns="http://www.w3.org/2000/svg">
  <path d="M4 3c0-.184.15-.333.333-.333h4.334v2c0 .368.298.666.666.666h2v1.334h1.334v-.92c0-.441-.176-.865-.489-1.178L9.431 1.822a1.667 1.667 0 0 0-1.179-.489H4.333c-.92 0-1.666.747-1.666 1.667v3.667H4V3Zm0 10v-1H2.667v1c0 .92.746 1.667 1.666 1.667H11c.92 0 1.667-.746 1.667-1.667v-1h-1.334v1a.333.333 0 0 1-.333.333H4.333A.333.333 0 0 1 4 13Zm1.167-5.833H4.75c-.575 0-1.042.466-1.042 1.041v2.084c0 .575.466 1.041 1.042 1.041h.417a1.04 1.04 0 0 0 1.041-1.041v-.209a.418.418 0 0 0-.416-.416.418.418 0 0 0-.417.416v.209a.209.209 0 0 1-.208.208H4.75a.209.209 0 0 1-.208-.208V8.208c0-.114.093-.208.208-.208h.417a.21.21 0 0 1 .208.208v.209a.417.417 0 0 0 .833 0v-.209a1.04 1.04 0 0 0-1.041-1.041Zm2.666 0a1.21 1.21 0 0 0-.599 2.258l.662.377a.375.375 0 0 1-.188.7h-.666a.418.418 0 0 0-.417.417c0 .23.188.417.417.417h.666a1.21 1.21 0 0 0 .6-2.258l-.662-.377a.375.375 0 0 1 .188-.7h.458a.418.418 0 0 0 0-.833h-.459Zm2.125.416v.823c0 .6.144 1.188.417 1.719a3.737 3.737 0 0 0 .417-1.719v-.823a.417.417 0 0 1 .833 0v.823a4.58 4.58 0 0 1-.77 2.542l-.134.2a.415.415 0 0 1-.692 0l-.133-.2a4.58 4.58 0 0 1-.771-2.542v-.823a.417.417 0 0 1 .833 0Z" fill="currentColor"/>
</svg>
