<svg viewBox="0 0 12 12" fill="none" xmlns="http://www.w3.org/2000/svg">
  <path d="M10.98 5.36c-.387 0-.645.258-.645.645a4.485 4.485 0 0 1-4.512 4.512h-.451c-.13 0-.194 0-.322-.064-.13 0-.194-.065-.323-.065-.064 0-.129-.064-.193-.064-.451-.129-.903-.387-1.29-.645-.064-.064-.128-.064-.128-.129-.065-.064-.13-.129-.194-.129-.129-.064-.258-.193-.322-.257l-.129-.13 1.16-.193a.669.669 0 0 0 .516-.773.669.669 0 0 0-.773-.516l-2.128.387-.515.129a.435.435 0 0 0-.387.258 1.195 1.195 0 0 0-.13.45l.517 2.708c.064.323.322.516.644.516h.13a.669.669 0 0 0 .515-.774l-.194-1.095c.13.128.323.257.452.386h.064c.065.065.129.13.193.13.13.128.258.193.452.257.129.258.322.322.515.451h.065c.064.065.193.065.322.13.258.064.516.128.71.193.128 0 .257.064.386.064h.774a5.778 5.778 0 0 0 5.801-5.801c.065-.323-.258-.58-.58-.58ZM.73 6.65c.387 0 .645-.258.645-.645a4.485 4.485 0 0 1 4.513-4.512h.45c.13 0 .194 0 .323.064.13 0 .194.065.323.065.064 0 .128.064.193.064.451.129.902.322 1.29.645.064.064.128.064.193.129.064.064.129.064.193.128.064.065.129.194.258.258l.129.13-1.16.193a.669.669 0 0 0-.516.773c.064.322.322.516.644.516h.13l2.707-.516a.669.669 0 0 0 .515-.773L11.045.526A.669.669 0 0 0 10.27.01a.669.669 0 0 0-.516.773L9.95 1.88c-.13-.129-.322-.322-.451-.386h-.065c-.064-.065-.129-.13-.193-.13-.13-.128-.258-.193-.451-.322C8.596.913 8.403.849 8.21.72h-.065C8.079.655 7.95.655 7.822.59a10.574 10.574 0 0 1-.71-.193c-.128 0-.257-.065-.386-.065h-.773A5.778 5.778 0 0 0 .15 6.134c-.064.258.194.516.58.516Z" fill="currentColor"/>
</svg>
