<svg viewBox="0 0 20 20" fill="none" xmlns="http://www.w3.org/2000/svg">
  <path fill-rule="evenodd" clip-rule="evenodd" d="M2.944 10.007c0 .58-.406.967-1.015.967-.609 0-1.015-.386-.913-.773 0-4.835 4.06-8.703 9.136-8.703h1.218c.102 0 .204.025.305.049s.203.048.304.048c.305.097.711.193 1.117.29.09.043.178.066.259.088.103.027.192.051.249.106h.101c.153.096.305.169.457.241.152.073.305.145.457.242.082.052.156.097.225.138.188.114.337.204.486.345.101 0 .203.097.304.194h.102c.203.097.507.387.71.58l-.304-1.644a1.007 1.007 0 0 1 .812-1.16c.61-.097 1.117.29 1.218.773l.812 3.965a1.007 1.007 0 0 1-.812 1.16l-4.264.774h-.203c-.507 0-.913-.29-1.015-.774a1.006 1.006 0 0 1 .812-1.16l1.828-.29-.203-.194a.913.913 0 0 1-.311-.277 1.259 1.259 0 0 0-.096-.11c-.05-.048-.101-.072-.152-.096-.05-.024-.101-.048-.152-.097a.534.534 0 0 0-.152-.096.534.534 0 0 1-.153-.097c-.609-.484-1.32-.774-2.03-.967a.373.373 0 0 1-.152-.048.366.366 0 0 0-.152-.049.783.783 0 0 1-.254-.048.783.783 0 0 0-.254-.048c-.203-.097-.305-.097-.508-.097h-.71c-3.96 0-7.107 2.997-7.107 6.768Zm14.112 0c0-.58.406-.966 1.015-.966.508 0 1.015.386.914.87 0 4.835-4.06 8.702-9.137 8.702H8.63c-.102 0-.203-.024-.305-.048a1.336 1.336 0 0 0-.304-.048c-.305-.097-.71-.194-1.117-.29a1.458 1.458 0 0 0-.258-.088c-.103-.028-.192-.052-.25-.106h-.101a4.445 4.445 0 0 0-.198-.116c-.234-.133-.455-.258-.614-.56-.305-.097-.508-.194-.71-.387-.102 0-.204-.097-.305-.194h-.102a4.366 4.366 0 0 0-.355-.29 4.347 4.347 0 0 1-.355-.29l.304 1.644A1.007 1.007 0 0 1 3.148 19h-.203c-.508 0-.914-.29-1.015-.773l-.812-4.062c0-.193.101-.483.203-.676a.686.686 0 0 1 .609-.387l.812-.194 3.35-.58c.61-.096 1.117.29 1.218.774a1.007 1.007 0 0 1-.812 1.16l-1.827.29.203.194c.101.096.304.29.507.386.102 0 .203.097.305.194 0 .06.039.082.092.114.033.02.072.042.11.08.61.386 1.32.773 2.031.966.051 0 .102.024.153.048.05.025.101.049.152.049.101 0 .178.024.254.048a.783.783 0 0 0 .253.048c.203.097.305.097.508.097h.71c3.96 0 7.107-2.997 7.107-6.768Z" fill="currentColor"/>
</svg>
