<svg viewBox="0 0 49 18" fill="none" xmlns="http://www.w3.org/2000/svg">
  <rect x=".5" y=".5" width="48" height="17" rx="3.5" stroke="#FF57B7"/>
  <path d="M4.132 4.216h6.708v1.14H8.128V13H6.832V5.356h-2.7v-1.14Zm9.033 2.412c.544 0 1.02.128 1.428.384.408.248.724.592.948 1.032.224.432.336.92.336 1.464 0 .184-.02.404-.06.66h-4.368c.048.624.24 1.096.576 1.416.336.312.756.468 1.26.468.656 0 1.132-.272 1.428-.816l.924.54c-.16.432-.464.768-.912 1.008a3.213 3.213 0 0 1-1.5.348 3.232 3.232 0 0 1-1.548-.372 2.857 2.857 0 0 1-1.116-1.128c-.272-.496-.408-1.088-.408-1.776 0-.672.136-1.252.408-1.74.28-.488.648-.856 1.104-1.104a3.056 3.056 0 0 1 1.5-.384Zm-.048 1.08c-.408 0-.764.132-1.068.396-.296.256-.484.632-.564 1.128h3.096c-.032-.48-.18-.852-.444-1.116-.264-.272-.604-.408-1.02-.408ZM21.57 11.2c0 .584-.224 1.052-.672 1.404-.44.352-1.016.528-1.728.528-.632 0-1.172-.136-1.62-.408a1.99 1.99 0 0 1-.9-1.128l.924-.54c.136.336.34.592.612.768.272.168.6.252.984.252.344 0 .616-.068.816-.204a.679.679 0 0 0 .312-.588.612.612 0 0 0-.192-.468 1.212 1.212 0 0 0-.468-.3 9.686 9.686 0 0 0-.768-.252 8.766 8.766 0 0 1-1.044-.348 1.922 1.922 0 0 1-.672-.492c-.184-.224-.276-.52-.276-.888 0-.384.104-.72.312-1.008.216-.296.5-.52.852-.672.36-.152.756-.228 1.188-.228.568 0 1.052.124 1.452.372.408.248.68.584.816 1.008l-.924.528c-.12-.264-.3-.468-.54-.612a1.562 1.562 0 0 0-.84-.216c-.312 0-.564.064-.756.192a.584.584 0 0 0-.288.528c0 .176.056.32.168.432.12.104.268.192.444.264.176.064.424.14.744.228.432.12.784.24 1.056.36.28.12.516.3.708.54.2.24.3.556.3.948Zm4.872 1.548c-.352.256-.82.384-1.404.384-.592 0-1.076-.164-1.452-.492-.368-.328-.552-.912-.552-1.752v-3.06H21.98V6.772h1.056v-1.8h1.224v1.8h1.836v1.056H24.26v2.892c0 .864.32 1.296.96 1.296.288 0 .556-.076.804-.228l.42.96Zm4.125-6.12c.672 0 1.208.22 1.608.66.4.44.6 1.076.6 1.908V13H31.54V9.568c0-.576-.108-1.02-.324-1.332-.216-.312-.544-.468-.984-.468-.448 0-.832.16-1.152.48-.312.312-.468.76-.468 1.344V13h-1.236V6.772h1.092c.016.392.04.732.072 1.02.208-.384.484-.672.828-.864.352-.2.752-.3 1.2-.3Zm6.515 0c.544 0 1.02.128 1.428.384.408.248.724.592.948 1.032.224.432.336.92.336 1.464 0 .184-.02.404-.06.66h-4.368c.048.624.24 1.096.576 1.416.336.312.756.468 1.26.468.656 0 1.132-.272 1.428-.816l.924.54c-.16.432-.464.768-.912 1.008a3.213 3.213 0 0 1-1.5.348 3.232 3.232 0 0 1-1.548-.372 2.857 2.857 0 0 1-1.116-1.128c-.272-.496-.408-1.088-.408-1.776 0-.672.136-1.252.408-1.74.28-.488.648-.856 1.104-1.104a3.056 3.056 0 0 1 1.5-.384Zm-.048 1.08c-.408 0-.764.132-1.068.396-.296.256-.484.632-.564 1.128h3.096c-.032-.48-.18-.852-.444-1.116-.264-.272-.604-.408-1.02-.408Zm7.69 5.04c-.353.256-.82.384-1.405.384-.592 0-1.076-.164-1.452-.492-.368-.328-.552-.912-.552-1.752v-3.06H40.26V6.772h1.056v-1.8h1.224v1.8h1.836v1.056H42.54v2.892c0 .864.32 1.296.96 1.296.288 0 .556-.076.804-.228l.42.96Z" fill="#FF57B7"/>
</svg>
