<svg fill="currentColor" xmlns="http://www.w3.org/2000/svg" viewBox="0 0 30 30">
  <path d="M15 5.25c-5.047 0-9 2.306-9 5.25v9c0 2.944 3.953 5.25 9 5.25 5.047 0 9-2.306 9-5.25v-9c0-2.944-3.953-5.25-9-5.25ZM22.5 15c0 .902-.739 1.822-2.026 2.524-1.45.79-3.394 1.226-5.474 1.226s-4.025-.436-5.474-1.226C8.239 16.822 7.5 15.902 7.5 15v-1.56c1.6 1.406 4.334 2.31 7.5 2.31 3.166 0 5.9-.908 7.5-2.31V15ZM9.526 7.976C10.976 7.186 12.92 6.75 15 6.75s4.025.436 5.474 1.226c1.287.702 2.026 1.622 2.026 2.524 0 .902-.739 1.822-2.026 2.524-1.45.79-3.394 1.226-5.474 1.226s-4.025-.436-5.474-1.226C8.239 12.322 7.5 11.402 7.5 10.5c0-.902.739-1.822 2.026-2.524Zm10.948 14.048c-1.45.79-3.394 1.226-5.474 1.226s-4.025-.436-5.474-1.226C8.239 21.322 7.5 20.402 7.5 19.5v-1.56c1.6 1.406 4.334 2.31 7.5 2.31 3.166 0 5.9-.907 7.5-2.31v1.56c0 .902-.739 1.822-2.026 2.524Z"/>
</svg>
