<svg xmlns="http://www.w3.org/2000/svg" fill="none" viewBox="0 0 30 30">
  <path fill="currentColor" fill-rule="evenodd" d="m6.134 10.067 3.722-3.828a.97.97 0 0 1 1.337.06c.177.182.283.428.292.69a1.05 1.05 0 0 1-.234.704L9.243 9.765h14.371c.261 0 .513.107.7.299s.294.454.294.73c0 .274-.107.537-.294.729a.98.98 0 0 1-.7.299H6.831a.97.97 0 0 1-.55-.17 1 1 0 0 1-.368-.46 1.06 1.06 0 0 1 .22-1.126m18.723 6a.965.965 0 0 1 .55.17c.163.111.291.27.368.459a1.06 1.06 0 0 1-.22 1.125l-3.737 3.842-.006.008a1 1 0 0 1-.323.255.97.97 0 0 1-1.13-.197q-.146-.152-.224-.353a1.06 1.06 0 0 1 .281-1.16l.007-.007 2.022-2.086h-5.882c.104-.685.184-1.404 0-2.073z" clip-rule="evenodd"/>
  <path fill="currentColor" d="M10 19.513c-1.272 0-2.48-.276-3.395-.778C5.57 18.169 5 17.374 5 16.497c0-.878.57-1.672 1.605-2.239.917-.502 2.123-.778 3.395-.778s2.48.276 3.395.778C14.43 14.825 15 15.622 15 16.497s-.57 1.671-1.605 2.238c-.917.502-2.123.778-3.395.778m0-4.793c-1.052 0-2.073.228-2.8.626-.61.334-.96.753-.96 1.15 0 .398.35.818.96 1.151.727.397 1.746.626 2.8.626s2.073-.228 2.8-.626c.61-.333.96-.753.96-1.15 0-.398-.35-.817-.96-1.151-.727-.398-1.746-.626-2.8-.626"/>
  <path stroke="currentColor" stroke-width=".3" d="M10 19.513c-1.272 0-2.48-.276-3.395-.778C5.57 18.169 5 17.374 5 16.497c0-.878.57-1.672 1.605-2.239.917-.502 2.123-.778 3.395-.778s2.48.276 3.395.778C14.43 14.825 15 15.622 15 16.497s-.57 1.671-1.605 2.238c-.917.502-2.123.778-3.395.778Zm0-4.793c-1.052 0-2.073.228-2.8.626-.61.334-.96.753-.96 1.15 0 .398.35.818.96 1.151.727.397 1.746.626 2.8.626s2.073-.228 2.8-.626c.61-.333.96-.753.96-1.15 0-.398-.35-.817-.96-1.151-.727-.398-1.746-.626-2.8-.626Z"/>
  <path fill="currentColor" d="M10 23.962c-1.272 0-2.48-.276-3.395-.778C5.57 22.618 5 21.823 5 20.946v-4.45a.62.62 0 0 1 1.24 0v4.45c0 .397.35.817.96 1.151.727.397 1.748.626 2.8.626 1.053 0 2.073-.229 2.8-.626.61-.334.96-.754.96-1.151v-4.45a.62.62 0 0 1 1.24 0v4.45c0 .877-.57 1.672-1.605 2.238-.917.502-2.123.778-3.395.778"/>
  <path stroke="currentColor" stroke-width=".3" d="M10 23.962c-1.272 0-2.48-.276-3.395-.778C5.57 22.618 5 21.823 5 20.946v-4.45a.62.62 0 0 1 1.24 0v4.45c0 .397.35.817.96 1.151.727.397 1.748.626 2.8.626 1.053 0 2.073-.229 2.8-.626.61-.334.96-.754.96-1.151v-4.45a.62.62 0 0 1 1.24 0v4.45c0 .877-.57 1.672-1.605 2.238-.917.502-2.123.778-3.395.778Z"/>
  <path fill="currentColor" d="M10 21.738c-1.272 0-2.48-.277-3.395-.778C5.57 20.393 5 19.598 5 18.72a.62.62 0 1 1 1.24 0c0 .397.35.817.96 1.151.727.398 1.748.626 2.8.626 1.053 0 2.073-.228 2.8-.626.61-.334.96-.754.96-1.15a.62.62 0 1 1 1.24 0c0 .876-.57 1.671-1.605 2.238-.917.501-2.123.778-3.395.778"/>
  <path stroke="currentColor" stroke-width=".3" d="M10 21.738c-1.272 0-2.48-.277-3.395-.778C5.57 20.393 5 19.598 5 18.72a.62.62 0 1 1 1.24 0c0 .397.35.817.96 1.151.727.398 1.748.626 2.8.626 1.053 0 2.073-.228 2.8-.626.61-.334.96-.754.96-1.15a.62.62 0 1 1 1.24 0c0 .876-.57 1.671-1.605 2.238-.917.501-2.123.778-3.395.778Z"/>
</svg>
