<svg fill="currentColor" xmlns="http://www.w3.org/2000/svg" viewBox="0 0 17 16">
  <path fill-rule="evenodd" clip-rule="evenodd" d="M4.281 0a3.636 3.636 0 1 0 0 7.273 3.636 3.636 0 0 0 0-7.273ZM2.099 3.636a2.182 2.182 0 1 1 4.364 0 2.182 2.182 0 0 1-4.364 0ZM13.01 0a3.636 3.636 0 1 0 0 7.273 3.636 3.636 0 0 0 0-7.273Zm-2.183 3.636a2.182 2.182 0 1 1 4.364 0 2.182 2.182 0 0 1-4.364 0ZM.646 12.364a3.636 3.636 0 1 1 7.272 0 3.636 3.636 0 0 1-7.272 0Zm3.636-2.182a2.182 2.182 0 1 0 0 4.363 2.182 2.182 0 0 0 0-4.363Zm8.727-1.455a3.636 3.636 0 1 0 0 7.273 3.636 3.636 0 0 0 0-7.273Zm-2.181 3.637a2.182 2.182 0 1 1 4.363 0 2.182 2.182 0 0 1-4.364 0Z"/>
</svg>
