<svg xmlns="http://www.w3.org/2000/svg" viewBox="0 0 24 24" fill="none">
  <path d="M14 16.4h6.5m0 0-4-4m4 4-4 4m4-14h-16m0 0 4-4m-4 4 4 4" stroke="currentColor" stroke-width="2" stroke-linecap="round" stroke-linejoin="round"/>
  <path d="M11.5 14.656c0 .803-1.79 1.454-4 1.454s-4-.651-4-1.454m8 0c0-.804-1.79-1.455-4-1.455s-4 .651-4 1.455m8 0v5.454c0 .804-1.79 1.455-4 1.455s-4-.651-4-1.455v-5.454m8 2.727c0 .803-1.79 1.454-4 1.454s-4-.65-4-1.454" stroke="currentColor" stroke-width="1.67" stroke-linecap="round" stroke-linejoin="round"/>
</svg>
