<svg viewBox="0 0 30 30" fill="none" xmlns="http://www.w3.org/2000/svg">
  <g clip-path="url(#top-accounts_svg__a)">
    <path fill-rule="evenodd" clip-rule="evenodd" d="M7.585 2.973a3.412 3.412 0 0 0-3.412 3.412v17.23a3.412 3.412 0 0 0 3.412 3.412h17.23a.95.95 0 0 0 0-1.9H7.585a1.512 1.512 0 1 1 0-3.023h17.23a.95.95 0 0 0 .934-1.126.954.954 0 0 0 .016-.176V4.662c0-.933-.756-1.689-1.688-1.689H7.585ZM6.073 6.385c0-.835.677-1.512 1.512-1.512h16.28v15.33H7.585a3.4 3.4 0 0 0-1.512.353V6.385Zm8.897 1.4a3.013 3.013 0 1 0 0 6.026 3.013 3.013 0 0 0 0-6.026Zm-1.024 3.013a1.024 1.024 0 1 1 2.048 0 1.024 1.024 0 0 1-2.048 0Zm1.025 3.097c-2.316 0-4.3 1.303-5.319 3.243a.446.446 0 0 0 .395.654h1.281a.446.446 0 0 0 .366-.19 3.972 3.972 0 0 1 3.277-1.718c1.33 0 2.52.685 3.268 1.723a.446.446 0 0 0 .362.185h1.292a.446.446 0 0 0 .393-.659c-1.01-1.866-2.983-3.238-5.315-3.238Z" fill="currentColor"/>
  </g>
  <defs>
    <clipPath id="top-accounts_svg__a">
      <path fill="#fff" transform="translate(3 3)" d="M0 0h24v24H0z"/>
    </clipPath>
  </defs>
</svg>
