<svg viewBox="0 0 20 20" fill="none" xmlns="http://www.w3.org/2000/svg">
  <path fill-rule="evenodd" clip-rule="evenodd" d="M17.77 7.794H.987a.97.97 0 0 1-.549-.17 1.009 1.009 0 0 1-.364-.453 1.041 1.041 0 0 1 .218-1.106l3.722-3.827a.97.97 0 0 1 1.333.06 1.033 1.033 0 0 1 .058 1.37L3.371 5.764H17.77c.262 0 .513.107.698.297a1.031 1.031 0 0 1 0 1.435.973.973 0 0 1-.698.297ZM2.23 12.066h16.783c.195 0 .386.059.549.17.162.11.289.269.364.454a1.042 1.042 0 0 1-.218 1.106l-3.737 3.842-.006.007a.99.99 0 0 1-.711.354.963.963 0 0 1-.736-.296 1.017 1.017 0 0 1-.289-.757 1.04 1.04 0 0 1 .345-.731l.007-.007 2.047-2.112H2.23a.973.973 0 0 1-.698-.298 1.03 1.03 0 0 1-.29-.717c0-.27.105-.527.29-.718a.974.974 0 0 1 .698-.297Z" fill="currentColor"/>
</svg>
