<svg width="30" height="30" fill="none" xmlns="http://www.w3.org/2000/svg"><path fill-rule="evenodd" clip-rule="evenodd" d="M23.433 12.64a1.212 1.212 0 0 1-.857.354H6.212a1.212 1.212 0 0 1-1.12-.745 1.212 1.212 0 0 1 .266-1.321L8.994 7.29a1.212 1.212 0 0 1 1.71 1.71L9.14 10.57h13.436a1.212 1.212 0 0 1 .857 2.068ZM7.424 17.236h16.363a1.213 1.213 0 0 1 1.121.745 1.212 1.212 0 0 1-.266 1.321l-3.636 3.637a1.213 1.213 0 1 1-1.71-1.71l1.564-1.569H7.424a1.212 1.212 0 0 1 0-2.424Z" fill="#4A5568"/></svg>