<svg viewBox="0 0 20 22" fill="none" xmlns="http://www.w3.org/2000/svg">
  <path fill-rule="evenodd" clip-rule="evenodd" d="M13.013 21H2.035a.626.626 0 0 1-.625-.625V4.749c0-.345.28-.625.625-.625h2.85V1.625c0-.345.279-.625.624-.625h7.853c.008 0 .014.002.021.004l.018.004a.6.6 0 0 1 .186.04.616.616 0 0 1 .208.126l4.603 4.414-.002.002a.622.622 0 0 1 .194.45v9.733c0 1.16-.943 2.103-2.102 2.103h-1.372v1.021c0 1.16-.944 2.103-2.103 2.103Zm3.764-15.586-2.79-2.69v1.838c0 .47.382.852.852.852h1.938Zm-3.673-3.531H5.767v15.11h11.089a.852.852 0 0 0 .851-.852V6.297H14.84c-1.16 0-1.735-.575-1.735-1.735v-2.68Zm-8.22 3.124H2.293v15.11H13.38c.47 0 .852-.75.852-1.22v-1.02H5.509a.625.625 0 0 1-.625-.626V5.007Zm10.182 4.866a.418.418 0 1 0 0-.836H9.568l.54-.542a.418.418 0 0 0-.302-.69c-.105-.004-.226-.068-.306 0L8.172 9.103c-.06.058-.007.191-.024.272a.418.418 0 0 0 .178.43c.069.045.137.157.22.157l6.52-.088Zm-.013 1.377H8.545c-.11 0-.217.05-.295.129-.079.078-.123.265-.123.376a.418.418 0 0 0 .418.418h5.498l-.54.542a.417.417 0 0 0 .12.707.415.415 0 0 0 .47-.118l1.347-1.218c.059-.058.007-.169.023-.25a.417.417 0 0 0-.178-.43c-.068-.045-.15-.156-.232-.156Z" fill="currentColor"/>
  <path fill-rule="evenodd" clip-rule="evenodd" d="M4.784 1.625c0-.4.325-.725.725-.725h7.853c.023 0 .042.006.048.008h.001a.705.705 0 0 1 .205.044h.002l.044.016a.72.72 0 0 1 .202.134l4.677 4.485-.007.007a.717.717 0 0 1 .156.446v9.733a2.205 2.205 0 0 1-2.202 2.203h-1.272v.921a2.205 2.205 0 0 1-2.203 2.203H2.035a.726.726 0 0 1-.725-.725V4.749c0-.4.325-.725.725-.725h2.75V1.625ZM18.255 5.59l-4.53-4.344a.518.518 0 0 0-.167-.103l-.026-.008a.492.492 0 0 0-.136-.027m4.86 4.482-.003.002.074.07c.1.097.163.23.163.378v9.733a2.005 2.005 0 0 1-2.002 2.003h-1.472v1.121a2.005 2.005 0 0 1-2.003 2.003H2.035a.526.526 0 0 1-.525-.525V4.749c0-.29.235-.525.525-.525h2.95V1.625c0-.29.234-.525.524-.525h7.846m-7.688.683h7.537v2.78c0 .564.14.968.403 1.231.264.263.668.403 1.232.403h2.968v9.944a.953.953 0 0 1-.951.952H5.667V1.783Zm.2.2v14.91h10.989a.753.753 0 0 0 .751-.752V6.397H14.84c-.595 0-1.059-.147-1.373-.462-.314-.314-.462-.778-.462-1.373v-2.58H5.867Zm8.02.505 3.138 3.026h-2.186a.953.953 0 0 1-.952-.952V2.488Zm.2.471v1.603c0 .415.337.752.752.752h1.69L14.087 2.96ZM2.193 4.907h2.791V17.25c0 .29.235.525.525.525h8.824v1.121c0 .257-.103.58-.265.84-.16.254-.399.48-.687.48H2.193V4.907Zm.2.2v14.91H13.38c.18 0 .368-.148.517-.387.146-.234.235-.52.235-.733v-.92H5.509a.725.725 0 0 1-.725-.726V5.107H2.393Zm7.193 2.872L8.334 9.231a.32.32 0 0 0-.07.347.318.318 0 0 0 .294.195h6.508a.318.318 0 0 0 0-.636H9.327l.707-.71a.319.319 0 0 0-.448-.448Zm-.133-.15a.518.518 0 0 1 .73.731l-.004.006-.37.37h5.257a.518.518 0 0 1 0 1.037H8.56m-.366-.884a.518.518 0 0 0 .366.884m.894-2.143-1.26 1.26 1.26-1.26Zm-.908 3.607a.318.318 0 1 0 0 .636h5.739l-.715.718a.319.319 0 0 0 .09.537.319.319 0 0 0 .358-.089l.005-.006 1.255-1.254a.318.318 0 0 0-.047-.489.318.318 0 0 0-.177-.053H8.545Zm-.366-.048a.518.518 0 0 1 .366-.152h6.508m.365.883a.518.518 0 0 0-.365-.883m.365.883-1.251 1.252a.518.518 0 1 1-.732-.73l.367-.369H8.545a.518.518 0 0 1-.366-.884" fill="currentColor"/>
</svg>
