<svg xmlns="http://www.w3.org/2000/svg" fill="none" viewBox="0 0 20 21">
  <path d="m.29 5.053 3.722-3.828a.972.972 0 0 1 1.337.06c.177.183.283.429.292.69.01.257-.074.509-.234.704L3.399 4.751H17.77c.262 0 .514.107.7.3a1.05 1.05 0 0 1 0 1.459.976.976 0 0 1-.7.298H.987a.969.969 0 0 1-.55-.17 1.021 1.021 0 0 1-.368-.46 1.062 1.062 0 0 1 .22-1.125zm18.723 6a.97.97 0 0 1 .55.17c.163.111.292.271.368.46a1.061 1.061 0 0 1-.22 1.125l-3.737 3.841-.006.008a.997.997 0 0 1-.322.255.966.966 0 0 1-1.13-.197c-.097-.1-.174-.22-.224-.352a1.067 1.067 0 0 1 .03-.828c.06-.128.146-.241.25-.333l.008-.006 2.02-2.087h-5.88c.103-.684.183-1.403 0-2.072zM8.501 13.694a3.636 3.636 0 0 1-1.275 1.829 5.482 5.482 0 0 1 2.714 2.606.588.588 0 0 1-.038.583.593.593 0 0 1-.51.288H7.978C7.8 17.76 6.535 16.8 5 16.8s-2.8.96-2.979 2.2H.61a.599.599 0 0 1-.511-.288.588.588 0 0 1-.038-.583 5.482 5.482 0 0 1 2.714-2.606 3.636 3.636 0 0 1-1.275-1.83 3.615 3.615 0 0 1 .036-2.224A3.638 3.638 0 0 1 2.868 9.68a3.675 3.675 0 0 1 4.264 0 3.638 3.638 0 0 1 1.333 1.788c.246.72.259 1.497.036 2.225zM6.7 12.5a1.7 1.7 0 1 1-3.4 0 1.7 1.7 0 0 1 3.4 0z" fill="currentColor" fill-rule="evenodd" clip-rule="evenodd"/>
</svg>
