<svg viewBox="0 0 30 30" fill="none" xmlns="http://www.w3.org/2000/svg">
  <path fill-rule="evenodd" clip-rule="evenodd" d="M6.392 5.45c.252-.288.592-.45.948-.45h8.038a.63.63 0 0 1 .474.225l4.689 5.385a.83.83 0 0 1 .196.544v8.574l-.985 1.055-.355-.38v-8.666h-4.485a.702.702 0 0 1-.702-.702V6.538H7.34v16.924h9.44L18.217 25H7.34c-.356 0-.696-.162-.948-.45A1.661 1.661 0 0 1 6 23.461V6.538c0-.408.141-.799.392-1.087Zm9.222 1.678 2.791 3.205h-2.791V7.128ZM8.85 15.5a.65.65 0 0 1 .65-.65h7.2a.65.65 0 1 1 0 1.3H9.5a.65.65 0 0 1-.65-.65Zm0 2.4a.65.65 0 0 1 .65-.65h7.2a.65.65 0 1 1 0 1.3H9.5a.65.65 0 0 1-.65-.65Z" fill="currentColor"/>
  <path d="m17.552 21.357 2.2 2.357 4.4-4.714" stroke="currentColor" stroke-width="1.4" stroke-linecap="round" stroke-linejoin="round"/>
</svg>
