<svg viewBox="0 0 22 22" fill="none" xmlns="http://www.w3.org/2000/svg">
  <path fill-rule="evenodd" clip-rule="evenodd" d="M19.4 11a8.4 8.4 0 1 1-16.8 0 8.4 8.4 0 0 1 16.8 0Zm1.6 0c0 5.523-4.477 10-10 10S1 16.523 1 11 5.477 1 11 1s10 4.477 10 10Zm-5.895-3.706A.916.916 0 1 1 16.4 8.589l-6.022 6.022a1.05 1.05 0 0 1-1.485 0l-3.2-3.199a.915.915 0 0 1 1.295-1.295l2.258 2.258a.55.55 0 0 0 .778 0l5.081-5.081Z" fill="currentColor"/>
  <path d="m16.4 7.293-.141.142.141-.142Zm-1.295 0 .142.142-.142-.141ZM16.4 8.59l-.141-.142.141.142Zm-6.022 6.022.141.141-.141-.141Zm-4.684-3.199.141-.141-.141.141Zm0-1.295-.142-.141.142.141Zm1.294 0-.141.142.141-.142Zm2.258 2.258-.14.142.14-.142Zm.778 0-.141-.141.141.141ZM11 19.6a8.6 8.6 0 0 0 8.6-8.6h-.4a8.2 8.2 0 0 1-8.2 8.2v.4ZM2.4 11a8.6 8.6 0 0 0 8.6 8.6v-.4A8.2 8.2 0 0 1 2.8 11h-.4ZM11 2.4A8.6 8.6 0 0 0 2.4 11h.4A8.2 8.2 0 0 1 11 2.8v-.4Zm8.6 8.6A8.6 8.6 0 0 0 11 2.4v.4a8.2 8.2 0 0 1 8.2 8.2h.4ZM11 21.2c5.633 0 10.2-4.567 10.2-10.2h-.4c0 5.412-4.388 9.8-9.8 9.8v.4ZM.8 11c0 5.633 4.567 10.2 10.2 10.2v-.4c-5.412 0-9.8-4.388-9.8-9.8H.8ZM11 .8C5.367.8.8 5.367.8 11h.4c0-5.412 4.388-9.8 9.8-9.8V.8ZM21.2 11C21.2 5.367 16.633.8 11 .8v.4c5.412 0 9.8 4.388 9.8 9.8h.4Zm-4.659-3.848a1.116 1.116 0 0 0-1.577 0l.283.283a.716.716 0 0 1 1.012 0l.282-.283Zm0 1.578a1.116 1.116 0 0 0 0-1.578l-.282.283c.28.28.28.733 0 1.012l.283.283Zm-6.022 6.022 6.023-6.022-.283-.283-6.023 6.023.283.282Zm-1.767 0a1.25 1.25 0 0 0 1.767 0l-.283-.282a.85.85 0 0 1-1.202 0l-.282.282Zm-3.2-3.199 3.2 3.2.282-.283-3.199-3.2-.283.283Zm0-1.577a1.115 1.115 0 0 0 0 1.577l.283-.282a.715.715 0 0 1 0-1.012l-.283-.283Zm1.578 0a1.115 1.115 0 0 0-1.578 0l.283.283a.715.715 0 0 1 1.012 0l.283-.283Zm2.258 2.258L7.13 9.976l-.283.283 2.258 2.258.283-.283Zm.495 0a.35.35 0 0 1-.495 0l-.283.283a.75.75 0 0 0 1.06 0l-.282-.283Zm5.081-5.082-5.081 5.082.283.283 5.08-5.082-.282-.283Z" fill="currentColor"/>
</svg>
