<svg width="16" height="16" fill="currentColor" xmlns="http://www.w3.org/2000/svg"><path d="M12.923 16H3.077A3.078 3.078 0 0 1 0 12.924V4.312a.615.615 0 0 1 .615-.615h12.308A3.077 3.077 0 0 1 16 6.773v6.151A3.076 3.076 0 0 1 12.923 16ZM1.23 4.927v7.997a1.845 1.845 0 0 0 1.846 1.846h9.846a1.846 1.846 0 0 0 1.846-1.846V6.773a1.845 1.845 0 0 0-1.846-1.846H1.23Z"/><path d="M14.154 4.927a.616.616 0 0 1-.615-.615V2.62a1.433 1.433 0 0 0-.48-1.15 1.194 1.194 0 0 0-1.028-.197L1.71 3.617a.615.615 0 0 0-.48.615.615.615 0 0 1-1.23 0 1.845 1.845 0 0 1 1.433-1.815L11.76.073a2.401 2.401 0 0 1 2.068.437 2.67 2.67 0 0 1 .941 2.11v1.692a.615.615 0 0 1-.615.615Zm1.231 7.382h-4.308a2.462 2.462 0 1 1 0-4.921h4.308a.615.615 0 0 1 .615.615v3.69a.615.615 0 0 1-.615.616Zm-4.308-3.691a1.231 1.231 0 0 0 0 2.46h3.692v-2.46h-3.692Z"/></svg>