<svg xmlns="http://www.w3.org/2000/svg" fill="none" viewBox="0 0 31 30">
  <g fill="currentColor" clip-path="url(#wallet_svg__a)">
    <path d="M22.75 27.188h-15A4.688 4.688 0 0 1 3.062 22.5V9.375A.937.937 0 0 1 4 8.437h18.75a4.688 4.688 0 0 1 4.688 4.688V22.5a4.688 4.688 0 0 1-4.688 4.688ZM4.937 10.313V22.5a2.812 2.812 0 0 0 2.813 2.813h15a2.812 2.812 0 0 0 2.813-2.813v-9.375a2.812 2.812 0 0 0-2.813-2.813H4.937Z"/>
    <path d="M24.625 10.312a.937.937 0 0 1-.937-.937V6.797a2.184 2.184 0 0 0-.732-1.754 1.82 1.82 0 0 0-1.565-.3L5.669 8.315a.938.938 0 0 0-.731.938.938.938 0 0 1-1.875 0 2.813 2.813 0 0 1 2.184-2.766l15.731-3.572a3.656 3.656 0 0 1 3.15.666 4.069 4.069 0 0 1 1.435 3.216v2.578a.938.938 0 0 1-.938.937ZM26.5 21.563h-6.563a3.75 3.75 0 1 1 0-7.5H26.5a.938.938 0 0 1 .938.937v5.625a.938.938 0 0 1-.938.938Zm-6.563-5.625a1.875 1.875 0 1 0 0 3.75h5.625v-3.75h-5.625Z"/>
  </g>
  <defs>
    <clipPath id="wallet_svg__a">
      <path fill="#fff" d="M.25 0h30v30h-30z"/>
    </clipPath>
  </defs>
</svg>
