<svg viewBox="0 0 21 20" fill="none" xmlns="http://www.w3.org/2000/svg">
  <path d="M17.139 20H4.83a3.847 3.847 0 0 1-3.846-3.845V5.39a.769.769 0 0 1 .77-.769h15.384a3.847 3.847 0 0 1 3.846 3.845v7.69A3.844 3.844 0 0 1 17.139 20ZM2.524 6.16v9.996a2.307 2.307 0 0 0 2.307 2.307H17.14a2.308 2.308 0 0 0 2.308-2.307v-7.69A2.306 2.306 0 0 0 17.14 6.16H2.524Z" fill="currentColor"/>
  <path d="M18.677 6.159a.77.77 0 0 1-.769-.77V3.276a1.79 1.79 0 0 0-.6-1.438 1.493 1.493 0 0 0-1.284-.246l-12.9 2.93a.77.77 0 0 0-.6.769.769.769 0 0 1-1.539 0A2.306 2.306 0 0 1 2.778 3.02L15.685.091a3 3 0 0 1 2.585.546 3.338 3.338 0 0 1 1.177 2.638V5.39a.77.77 0 0 1-.77.769Zm1.539 9.227H14.83a3.077 3.077 0 0 1-2.175-5.25 3.074 3.074 0 0 1 2.175-.902h5.385a.77.77 0 0 1 .769.77v4.613a.77.77 0 0 1-.77.769Zm-5.385-4.614a1.539 1.539 0 1 0 0 3.076h4.616v-3.076H14.83Z" fill="currentColor"/>
</svg>
