<svg fill="none" xmlns="http://www.w3.org/2000/svg" viewBox="0 0 30 30">
  <path d="M20.712 25a.724.724 0 0 1-.353-.09L15 21.956 9.64 24.91a.728.728 0 0 1-.796-.061.788.788 0 0 1-.256-.342.827.827 0 0 1-.045-.432l1.024-6.252-4.338-4.428a.803.803 0 0 1-.207-.377.828.828 0 0 1 .015-.435.795.795 0 0 1 .232-.361.741.741 0 0 1 .379-.179l5.993-.912 2.68-5.688a.78.78 0 0 1 .28-.323.732.732 0 0 1 .798 0 .78.78 0 0 1 .28.323l2.68 5.688 5.993.912c.14.021.27.083.379.178a.8.8 0 0 1 .232.361.828.828 0 0 1-.192.813l-4.338 4.428 1.024 6.252a.83.83 0 0 1-.167.644.762.762 0 0 1-.26.208.728.728 0 0 1-.319.074h.002ZM7.382 13.38l3.524 3.598a.8.8 0 0 1 .192.321.829.829 0 0 1 .026.378l-.832 5.08 4.355-2.397a.73.73 0 0 1 .706 0l4.356 2.399-.833-5.082a.828.828 0 0 1 .026-.378.799.799 0 0 1 .191-.323l3.524-3.596-4.87-.74a.738.738 0 0 1-.335-.143.785.785 0 0 1-.234-.29L15 7.585l-2.178 4.622a.785.785 0 0 1-.234.29.738.738 0 0 1-.336.143l-4.87.74Z" fill="currentColor" stroke="currentColor" stroke-width=".5"/>
</svg>
