<svg class="icon" viewBox="0 0 1024 1024" xmlns="http://www.w3.org/2000/svg">
  <path fill="currentColor" d="M512 51.2C258.048 51.2 51.2 258.048 51.2 512S258.048 972.8 512 972.8 972.8 765.952 972.8 512 765.952 51.2 512 51.2zm0 884.736C278.528 935.936 88.064 745.472 88.064 512S278.528 88.064 512 88.064 935.936 278.528 935.936 512 745.472 935.936 512 935.936zm0-598.528c-96.768 0-174.592 78.336-174.592 174.592S415.744 686.592 512 686.592 686.592 608.256 686.592 512 608.256 337.408 512 337.408z"/>
</svg>
