<svg class="icon" viewBox="0 0 1025 1024" xmlns="http://www.w3.org/2000/svg">
  <path fill="currentColor" d="M895.568 65.267H612.945c-35.402 0-64.203 29.073-64.203 64.808v347.259h346.826c35.428 0 64.25-29.074 64.25-64.81V130.075c0-35.735-28.823-64.808-64.25-64.808zm15.104 347.257c0 8.638-6.776 15.664-15.104 15.664h-297.68V130.075c0-8.636 6.755-15.662 15.057-15.662h282.622c8.328 0 15.104 7.026 15.104 15.662v282.45zM65.468 130.075v282.45c0 35.736 28.823 64.81 64.251 64.81h346.826v-347.26c0-35.735-28.801-64.808-64.203-64.808H129.72c-35.427 0-64.25 29.073-64.25 64.808zm49.147 0c0-8.636 6.776-15.662 15.104-15.662h282.623c8.302 0 15.056 7.026 15.056 15.662v298.113H129.72c-8.328 0-15.104-7.027-15.104-15.664V130.075zm845.204 764.7V612.326c0-35.736-28.823-64.81-64.251-64.81H548.742v347.26c0 35.736 28.801 64.81 64.203 64.81h282.622c35.428 0 64.252-29.073 64.252-64.81zm-49.147 0c0 8.637-6.776 15.663-15.104 15.663H612.945c-8.302 0-15.056-7.026-15.056-15.663V596.663h297.678c8.328 0 15.104 7.027 15.104 15.663v282.45zm-780.953 64.81h282.623c35.402 0 64.203-29.073 64.203-64.809v-347.26H129.719c-35.428 0-64.25 29.075-64.25 64.81v282.45c0 35.736 28.823 64.81 64.25 64.81zm-15.104-347.259c0-8.637 6.776-15.663 15.104-15.663h297.678v298.112c0 8.637-6.754 15.663-15.056 15.663H129.72c-8.328 0-15.104-7.026-15.104-15.663V612.326z"/>
</svg>
