<svg class="icon" viewBox="0 0 1024 1024" xmlns="http://www.w3.org/2000/svg">
  <path fill="currentColor" d="M853.333 128H298.667c-47.062 0-85.334 38.272-85.334 85.333v85.334h-42.666c-47.062 0-85.334 38.272-85.334 85.333v426.667c0 47.061 38.272 85.333 85.334 85.333h256C473.728 896 512 857.728 512 810.667h341.333c47.062 0 85.334-38.272 85.334-85.334v-512c0-47.061-38.272-85.333-85.334-85.333zM426.54 810.667H170.667V384h256l-.128 426.667zm426.666-85.334H512V384c0-47.061-38.272-85.333-85.333-85.333h-128v-85.334h554.666l-.128 512z"/>
</svg>
