<svg xmlns="http://www.w3.org/2000/svg" viewBox="0 0 1025 1024">
  <path stroke="null" d="M753.766 235.095c-63.473 0-117.875 41.658-139.403 100.16l-184.746-57.84c-.751-85.08-67.24-154.151-149.256-154.321-82.082 0-149.085 69.732-149.273 155.497-.142 85.863 66.674 155.916 148.99 156.113h.33c6.306 0 12.52-.416 18.625-1.213l49.63 162.19c-36.193 28.396-59.69 73.537-59.774 124.275-.188 85.888 66.628 155.941 148.944 156.138h.33c82.129 0 149.085-69.732 149.32-155.497.056-33.645-10.167-64.851-27.587-90.384l111.836-109.245c23.468 16.185 51.545 25.657 81.704 25.737h.377c82.129 0 149.085-69.758 149.273-155.474.142-85.911-66.72-155.964-149.32-156.136zM280.22 364.652c-45.282-.098-82.083-38.678-82.034-85.913.141-47.21 36.988-85.593 82.364-85.593 45.28.074 82.082 38.629 81.987 85.936-.093 47.185-36.941 85.568-82.129 85.568m81.665 44.567c22.73-15.584 41.167-37.461 53.004-63.241l190.08 59.522a148.304 154.781 0 0 0 20.238 64.774L509.457 583.489c-21.193-12.067-45.495-18.953-71.34-19.006-9.455 0-18.704.934-27.677 2.702l-48.367-157.968zM438.02 806.04c-45.328-.098-82.129-38.653-82.034-85.937.094-47.185 36.988-85.568 82.318-85.568 45.327.074 82.082 38.652 82.082 85.913-.142 47.21-37.035 85.593-82.223 85.593m315.46-329.389c-45.28-.098-82.08-38.652-81.986-85.962.094-47.16 36.942-85.568 82.316-85.568 45.282.098 82.083 38.653 81.988 85.962-.094 47.185-36.942 85.568-82.13 85.568" fill="currentColor"/>
</svg>
