<svg class="icon" viewBox="0 0 1025 1024" xmlns="http://www.w3.org/2000/svg">
  <path fill="currentColor" d="M827.024 175.438c-84.192 0-156.352 52.944-184.908 127.296l-245.052-73.51c-.996-108.13-89.188-195.914-197.976-196.13-108.876 0-197.75 88.624-198 197.624C.9 339.842 89.526 428.874 198.712 429.124h.438c8.364 0 16.608-.528 24.704-1.542l65.83 206.13c-48.006 36.09-79.172 93.46-79.284 157.944-.25 109.156 88.376 198.188 197.562 198.438h.438c108.938 0 197.75-88.624 198.062-197.624.074-42.76-13.486-82.42-36.592-114.87l148.342-138.842c31.128 20.57 68.37 32.608 108.374 32.71h.5c108.938 0 197.75-88.656 198-197.594.188-109.186-88.5-198.218-198.062-198.436zM198.9 340.094c-60.062-.124-108.876-49.156-108.812-109.188.188-60 49.062-108.782 109.25-108.782 60.062.094 108.876 49.094 108.75 109.218-.124 59.968-49 108.75-108.938 108.75m108.322 56.64c30.15-19.806 54.606-47.61 70.306-80.374l252.128 75.648a196.714 196.714 0 0 0 26.844 82.322l-153.784 143.89c-28.11-15.336-60.346-24.088-94.628-24.156-12.54 0-24.808 1.188-36.71 3.434l-64.156-200.764zm100.74 504.33c-60.124-.124-108.938-49.124-108.812-109.218.124-59.968 49.062-108.75 109.188-108.75 60.124.094 108.876 49.124 108.876 109.188-.188 60-49.124 108.782-109.062 108.782m418.434-418.626c-60.06-.124-108.874-49.124-108.748-109.25.124-59.938 49-108.75 109.186-108.75 60.062.124 108.876 49.124 108.75 109.25-.124 59.968-49 108.75-108.938 108.75"/>
</svg>
