<svg class="icon" viewBox="0 0 1200 1024" xmlns="http://www.w3.org/2000/svg">
  <path fill="currentColor" d="M553.35 472.339A443.837 443.837 0 0 1 797.02 622.42a135.046 135.046 0 0 0-5.425-2.313c-59.161-23.887-114.94-18.326-156.887 11.476l-6.539 4.894a124.726 124.726 0 0 0-24.554 26.021l-37.809 55.29-2.314 4.227a138.783 138.783 0 0 0-9.429 22.107c-9.52 28.646-11.654 59.916.133 92.789 12.766 35.629 39.856 63.608 76.953 80.511 11.7 5.338 22.552 10.898 32.694 16.681a517.633 517.633 0 0 1-217.426 47.505c-169.92 0-320.8-81.446-415.725-207.463A444.772 444.772 0 0 1 351.716 473.45l69.658 69.614-65.254 65.343 95.946 265.555 95.991-265.555-65.388-65.388 70.727-70.681zm203.727 233.128c38.343 15.524 73.84 51.51 96.97 79.133a519.99 519.99 0 0 1-93.456 91.455l-8.185 6.094a448.375 448.375 0 0 0-83.135-48.486c-40.79-18.593-31.049-52.932-26.467-64.186l1.69-3.693 34.829-50.842c4.136-5.515 26.244-30.248 77.754-9.475zM232.728 214.213a213.29 213.29 0 1 0 426.578 0 213.29 213.29 0 1 0-426.578 0z"/>
  <path fill="currentColor" d="m678.568 716.009-34.075 49.82s-24.508 45.371 24.778 67.79c127.038 57.915 160.265 132.066 179.038 155.596 19.26 24.154 51.91 24.065 66.455-4.803 40.7-80.867 85.049-236.687 230.326-392.95 36.875-39.679 46.35-82.292 10.23-61.52-206.572 118.9-274.228 290.377-274.228 290.377s-57.738-88.074-124.015-114.852c-57.648-23.309-78.51 10.542-78.51 10.542z"/>
</svg>
