<svg xmlns="http://www.w3.org/2000/svg" viewBox="0 0 1200 1024">
  <g stroke="null" fill="currentColor">
    <path d="M524.525 455.065a352.556 331.07 0 0 1 193.557 111.95 107.272 100.734 0 0 0-4.31-1.726c-46.993-17.818-91.3-13.67-124.62 8.56l-5.195 3.65a99.075 93.036 0 0 0-19.504 19.41l-30.033 41.242-1.838 3.153a110.24 103.522 0 0 0-7.49 16.49c-7.562 21.368-9.257 44.693.105 69.214 10.141 26.577 31.66 47.447 61.127 60.055 9.294 3.982 17.914 8.13 25.97 12.443a411.175 386.115 0 0 1-172.71 35.435c-134.973 0-254.823-60.752-330.225-154.751A353.299 331.766 0 0 1 364.36 455.894l55.332 51.926-51.834 48.741 76.214 198.085L520.32 556.56l-51.94-48.774 56.181-52.723-.037.001zm161.828 173.896c30.458 11.58 58.654 38.423 77.027 59.027a413.047 387.873 0 0 1-74.235 68.219l-6.502 4.545a356.16 334.454 0 0 0-66.037-36.166c-32.401-13.87-24.664-39.484-21.024-47.878l1.343-2.755 27.665-37.924c3.286-4.114 20.847-22.563 61.763-7.068zm-416.51-366.439a169.424 159.098 0 1 0 338.847 0 169.424 159.098 0 1 0-338.847 0z"/>
    <path d="m647.75 652.863-24.898 35.907s-17.908 32.701 18.105 48.86c92.827 41.742 117.106 95.186 130.823 112.145 14.074 17.41 37.931 17.345 48.56-3.462 29.739-58.284 62.144-170.591 168.298-283.217 26.945-28.599 33.868-59.312 7.475-44.34-150.942 85.696-200.378 209.288-200.378 209.288s-42.19-63.48-90.618-82.78c-42.123-16.8-57.367 7.599-57.367 7.599z"/>
  </g>
</svg>
