<svg class="icon" viewBox="0 0 1024 1024" xmlns="http://www.w3.org/2000/svg">
  <path fill="currentColor" d="M560.526 818.631a28.302 28.302 0 0 0-20.082-8.391c-11.833 0-22.47-4.836-30.15-12.601l-.342-.37c-23.552-24.092-70.03-44.26-103.652-44.26H219.477c-33.706 0-80.1 20.082-103.651 44.26l-.37.37a42.126 42.126 0 0 1-30.123 12.6A28.558 28.558 0 0 0 56.89 838.8v28.557c0 23.666 19.115 42.866 42.667 42.866h426.666c23.552 0 42.667-19.2 42.667-42.866v-28.53c0-7.85-3.186-14.99-8.363-20.195zm-402.66 34.418a7.111 7.111 0 0 1-4.806-12.402l2.759-2.674.71-.71c4.723-4.922 15.02-12.317 29.782-18.575 14.592-6.258 26.738-8.477 33.252-8.477h186.851c6.486 0 18.66 2.22 33.223 8.477 14.678 6.343 24.975 13.739 29.782 18.574l.71.711c.911.882 1.793 1.792 2.76 2.674 4.722 4.38 1.593 12.402-4.807 12.402H157.867zm787.997-129.536L654.848 431.218a14.308 14.308 0 0 0 0-20.167l-10.041-10.098a28.132 28.132 0 0 1 27.307-7.481 28.33 28.33 0 0 0 27.449-7.14l65.962-66.275a43.093 43.093 0 0 0 0-60.587L604.615 97.85a42.638 42.638 0 0 0-60.36 0l-65.933 66.275c-7.197 7.197-9.671 17.636-7.111 27.592a28.729 28.729 0 0 1-7.481 27.392l-120.605 121.23a28.274 28.274 0 0 1-27.306 7.395 28.36 28.36 0 0 0-27.45 7.168l-65.99 66.247a43.093 43.093 0 0 0 0 60.616l160.91 161.592a42.638 42.638 0 0 0 60.359 0l65.963-66.247c7.196-7.225 9.67-17.664 7.11-27.59a28.729 28.729 0 0 1-.91-7.226c0-7.31 2.76-14.649 8.363-20.195l10.041 10.097a14.08 14.08 0 0 0 20.11 0l291.613 292.978c27.904 28.018 73.244 27.847 100.977-.37 27.45-28.017 26.653-73.386-1.08-101.262zM423.566 582.827a14.08 14.08 0 0 1-20.11 0l-120.69-121.23a14.222 14.222 0 0 1 0-20.196l10.041-10.07a14.052 14.052 0 0 1 20.082 0l120.718 121.23a14.222 14.222 0 0 1 0 20.196l-10.04 10.07zM373.22 390.884l140.828-141.426a14.052 14.052 0 0 1 20.082 0l80.44 80.782a14.222 14.222 0 0 1 0 20.196L473.77 491.86a14.08 14.08 0 0 1-20.081 0l-80.441-80.782a14.393 14.393 0 0 1 0-20.195zM695.01 310.1a14.052 14.052 0 0 1-20.081 0L554.21 188.843a14.222 14.222 0 0 1 0-20.196l10.07-10.07a14.08 14.08 0 0 1 20.082 0L705.08 279.809a14.222 14.222 0 0 1 0 20.196l-10.07 10.069zm191.147 474.681-291.67-292.92 20.083-20.196 291.67 292.95a14.364 14.364 0 0 1 0 20.167 14.052 14.052 0 0 1-20.082 0z"/>
</svg>
