<svg class="icon" viewBox="0 0 1024 1024" xmlns="http://www.w3.org/2000/svg">
  <path fill="currentColor" d="m546.355 595.763-2.048 6.298-33.485 89.907 184.32 100.608c66.202 36.045 43.52 134.656-28.825 140.8l-7.168.307H51.2a46.08 46.08 0 0 1-5.786-91.801l5.786-.359h186.214v-148.07H51.2a46.08 46.08 0 0 1-45.722-40.295l-.358-5.785a46.08 46.08 0 0 1 40.294-45.722l5.786-.358h220.416l166.042-91.29c59.033-32.41 126.361 22.938 108.697 85.76zm-104.448 17.05L329.626 674.56v166.912h262.81l-160.769-87.654a46.08 46.08 0 0 1-22.733-51.098l1.639-5.427 31.334-84.48zM603.597 56.32a396.8 396.8 0 0 1 228.557 721.152 46.08 46.08 0 0 1-53.146-75.264 304.64 304.64 0 1 0-477.696-211.456 46.08 46.08 0 1 1-91.443 11.264A396.8 396.8 0 0 1 603.597 56.32zm17.613 153.754 5.478 2.662 173.568 100.198a46.08 46.08 0 0 1 22.63 33.792l.41 6.144v200.448a46.08 46.08 0 0 1-17.92 36.506l-5.12 3.38-173.568 100.198a46.08 46.08 0 0 1-50.893-76.596l4.813-3.225 150.528-86.887v-147.25l-127.488-73.575-127.488 73.574v62.208a46.08 46.08 0 0 1-40.294 45.722l-5.786.358a46.08 46.08 0 0 1-45.722-40.294L384 441.65v-88.78a46.08 46.08 0 0 1 17.92-36.506l5.12-3.43 173.568-100.199a46.08 46.08 0 0 1 40.602-2.662z"/>
</svg>
