<svg class="icon" viewBox="0 0 1024 1024" xmlns="http://www.w3.org/2000/svg">
  <path fill="currentColor" d="M784 304c-73.6-70.4-163.2-108.8-272-112-108.8 3.2-198.4 41.6-272 112S131.2 467.2 128 576c3.2 108.8 41.6 198.4 112 272s163.2 108.8 272 112c108.8-3.2 198.4-41.6 272-112s108.8-163.2 112-272c-3.2-108.8-41.6-198.4-112-272zm-44.8 499.2C678.4 864 601.6 892.8 512 896c-89.6-3.2-166.4-32-227.2-92.8C224 742.4 195.2 665.6 192 576c3.2-89.6 32-166.4 92.8-227.2C345.6 288 422.4 259.2 512 256c89.6 3.2 166.4 32 227.2 92.8C800 409.6 832 483.2 832 576c-3.2 89.6-32 166.4-92.8 227.2z"/>
  <path fill="currentColor" d="M512 320c9.6 0 16 3.2 22.4 9.6 6.4 6.4 9.6 12.8 9.6 22.4v224c0 9.6-3.2 16-9.6 22.4-6.4 6.4-12.8 9.6-22.4 9.6-9.6 0-16-3.2-22.4-9.6-6.4-6.4-9.6-12.8-9.6-22.4V352c0-9.6 3.2-16 9.6-22.4 6.4-6.4 12.8-9.6 22.4-9.6z"/>
  <path fill="currentColor" d="M448 576c0 19.2 6.4 32 19.2 44.8C480 633.6 492.8 640 512 640c19.2 0 32-6.4 44.8-19.2C569.6 608 576 595.2 576 576c0-19.2-6.4-32-19.2-44.8C544 518.4 531.2 512 512 512c-19.2 0-32 6.4-44.8 19.2C454.4 544 448 556.8 448 576zm96-448v128h-64V128h-96c-9.6 0-16-3.2-22.4-9.6-6.4-6.4-9.6-12.8-9.6-22.4 0-9.6 3.2-16 9.6-22.4C368 67.2 374.4 64 384 64h256c9.6 0 16 3.2 22.4 9.6C668.8 80 672 86.4 672 96c0 9.6-3.2 16-9.6 22.4-6.4 6.4-12.8 9.6-22.4 9.6h-96z"/>
</svg>
