<svg class="icon" viewBox="0 0 1029 1024" xmlns="http://www.w3.org/2000/svg">
  <path fill="currentColor" d="M757.244 1024a260.43 260.43 0 1 1 260.429-260.43A260.43 260.43 0 0 1 757.243 1024zm0-457.333A197.157 197.157 0 1 0 954.4 763.571a197.157 197.157 0 0 0-197.156-196.904z"/>
  <path fill="currentColor" d="M866.831 831.652H715.484V632.471h63.272V768.38h88.075v63.272zM415.067 674.483H38.47V49.606h875.183v377.609h-63.272V112.878H101.742V611.21h313.325v63.272zM45.05 731.935h366.98v63.272H45.05z"/>
  <path fill="currentColor" d="M526.68 521.111H359.386v-92.377h63.272v29.105h104.02a36.192 36.192 0 0 0 0-72.384h-90.606a99.464 99.464 0 1 1 0-198.928h167.292v91.871h-63.272V249.8h-104.02a36.192 36.192 0 1 0 0 72.384h90.606a99.464 99.464 0 0 1 0 198.928z"/>
  <path fill="currentColor" d="M449.74 150.335h63.272v405.45H449.74z"/>
</svg>
