<svg class="icon" viewBox="0 0 1024 1024" xmlns="http://www.w3.org/2000/svg">
  <path fill="currentColor" d="M298.57 446.05q-27.58 0-47.37 19.79-19.78 19.78-19.78 47.37 0 27.58 19.78 47.37 19.79 19.78 47.37 19.78t46.76-19.78q19.19-19.79 19.19-47.37t-19.19-47.37q-19.19-19.79-46.76-19.79zm146.28 67.15q0-27.58 19.78-47.37 19.79-19.79 47.37-19.79t47.37 19.79q19.78 19.78 19.78 47.37 0 27.58-19.78 47.37-19.78 19.78-47.37 19.78-27.58 0-47.37-19.78-19.78-19.79-19.78-47.37zm280.58-67.15q-27.58 0-46.76 19.79-19.18 19.78-19.18 47.37 0 27.58 19.18 47.37 19.19 19.78 46.77 19.78 27.58 0 47.37-19.78 19.78-19.79 19.78-47.37t-19.78-47.37q-19.79-19.79-47.37-19.79zM1024 512q0 139.09-70.74 257.8-67.15 116.31-183.46 183.46Q651.09 1024 512 1024q-139.09 0-257.8-70.74Q137.89 886.11 70.74 769.8 0 651.09 0 512q0-139.09 70.74-257.8Q137.89 137.89 254.2 70.74 372.91 0 512 0q139.09 0 257.8 70.74 116.31 67.15 183.46 183.46Q1024 372.91 1024 512zm-76.74 0q0-118.71-59.95-219.43-57.56-98.32-155.88-155.88Q630.71 76.74 512 76.74q-118.71 0-219.43 59.95-98.32 57.56-155.88 155.88Q76.74 393.29 76.74 512q0 118.71 59.95 219.43 57.56 98.32 155.88 155.88Q393.29 947.26 512 947.26q118.71 0 219.43-59.95 98.32-57.56 155.88-155.88Q947.26 630.71 947.26 512z"/>
</svg>
