<svg xmlns="http://www.w3.org/2000/svg" fill="none" viewBox="0 0 260 200">
  <g clip-path="url(#empty_state_query_svg__a)">
    <path fill="url(#empty_state_query_svg__b)" fill-rule="evenodd" d="M28.5-2.4h-21A7.8 7.8 0 0 0-.4 5.5v21c0 4.4 3.5 7.9 7.9 7.9h21c4.4 0 7.9-3.5 7.9-7.9v-21c0-4.4-3.5-7.9-7.9-7.9ZM7.5-5A10.5 10.5 0 0 0-3 5.5v21A10.5 10.5 0 0 0 7.5 37h21A10.5 10.5 0 0 0 39 26.5v-21A10.5 10.5 0 0 0 28.5-5h-21Zm21 58.6h-21a7.8 7.8 0 0 0-7.9 7.9v21c0 4.4 3.5 7.9 7.9 7.9h21c4.4 0 7.9-3.5 7.9-7.9v-21c0-4.4-3.5-7.9-7.9-7.9ZM7.5 51A10.5 10.5 0 0 0-3 61.5v21A10.5 10.5 0 0 0 7.5 93h21A10.5 10.5 0 0 0 39 82.5v-21A10.5 10.5 0 0 0 28.5 51h-21Zm0 58.6h21c4.4 0 7.9 3.5 7.9 7.9v21c0 4.4-3.5 7.9-7.9 7.9h-21a7.813 7.813 0 0 1-5.616-2.284A7.792 7.792 0 0 1-.4 138.5v-21c0-4.4 3.5-7.9 7.9-7.9ZM-3 117.5A10.502 10.502 0 0 1 7.5 107h21A10.5 10.5 0 0 1 39 117.5v21A10.502 10.502 0 0 1 28.5 149h-21A10.5 10.5 0 0 1-3 138.5v-21Zm31.5 48.1h-21a7.813 7.813 0 0 0-5.616 2.284A7.792 7.792 0 0 0-.4 173.5v21c0 4.4 3.5 7.9 7.9 7.9h21c4.4 0 7.9-3.5 7.9-7.9v-21c0-4.4-3.5-7.9-7.9-7.9Zm-21-2.6A10.5 10.5 0 0 0-3 173.5v21A10.502 10.502 0 0 0 7.5 205h21A10.5 10.5 0 0 0 39 194.5v-21A10.502 10.502 0 0 0 28.5 163h-21Zm56-137.4h21c4.4 0 7.9 3.5 7.9 7.9v21c0 4.4-3.5 7.9-7.9 7.9h-21a7.8 7.8 0 0 1-7.9-7.9v-21c0-4.4 3.5-7.9 7.9-7.9ZM53 33.5A10.5 10.5 0 0 1 63.5 23h21A10.5 10.5 0 0 1 95 33.5v21A10.5 10.5 0 0 1 84.5 65h-21A10.5 10.5 0 0 1 53 54.5v-21Zm31.5 48.1h-21a7.8 7.8 0 0 0-7.9 7.9v21c0 4.4 3.5 7.9 7.9 7.9h21c4.4 0 7.9-3.5 7.9-7.9v-2.3a30.996 30.996 0 0 0 1.9 6.1 10.502 10.502 0 0 1-9.8 6.7h-21A10.5 10.5 0 0 1 53 110.5v-21A10.5 10.5 0 0 1 63.5 79h21c4.4 0 8.2 2.7 9.8 6.7-.9 1.9-1.5 4-2 6v-2.2c0-4.4-3.4-7.9-7.8-7.9ZM151 67.7v-6.2A10.5 10.5 0 0 0 140.5 51h-21A10.502 10.502 0 0 0 109 61.5v6.2l2.6-1.6v-4.6c0-4.4 3.5-7.9 7.9-7.9h21c4.4 0 7.9 3.5 7.9 7.9v4.6l2.6 1.6Zm14.7 46.6a10.503 10.503 0 0 0 9.8 6.7h21a10.502 10.502 0 0 0 10.5-10.5v-21A10.5 10.5 0 0 0 196.5 79h-21a10.5 10.5 0 0 0-9.8 6.7c.9 1.9 1.5 4 2 6v-2.2c0-4.4 3.4-7.9 7.8-7.9h21c4.4 0 7.9 3.5 7.9 7.9v21c0 4.4-3.5 7.9-7.9 7.9h-21a7.815 7.815 0 0 1-5.616-2.284 7.793 7.793 0 0 1-2.284-5.616v-2.3a31.01 31.01 0 0 1-1.9 6.1Zm-56.7 18v6.3a10.502 10.502 0 0 0 10.5 10.5h21a10.502 10.502 0 0 0 10.5-10.5v-6.2l-2.6 1.5v4.7c0 4.4-3.5 7.9-7.9 7.9h-21a7.789 7.789 0 0 1-5.653-2.319 7.808 7.808 0 0 1-2.247-5.681V134l-2.6-1.5v-.2Zm-45.5 5.3h21c4.4 0 7.9 3.5 7.9 7.9v21c0 4.4-3.5 7.9-7.9 7.9h-21a7.812 7.812 0 0 1-5.616-2.284A7.79 7.79 0 0 1 55.6 166.5v-21c0-4.4 3.5-7.9 7.9-7.9ZM53 145.5A10.502 10.502 0 0 1 63.5 135h21A10.5 10.5 0 0 1 95 145.5v21A10.502 10.502 0 0 1 84.5 177h-21A10.5 10.5 0 0 1 53 166.5v-21ZM140.5-2.4h-21a7.802 7.802 0 0 0-7.9 7.9v21c0 4.4 3.5 7.9 7.9 7.9h21c4.4 0 7.9-3.5 7.9-7.9v-21c0-4.4-3.5-7.9-7.9-7.9Zm-21-2.6A10.502 10.502 0 0 0 109 5.5v21A10.5 10.5 0 0 0 119.5 37h21A10.502 10.502 0 0 0 151 26.5v-21A10.5 10.5 0 0 0 140.5-5h-21Zm-7.9 178.5c0-4.4 3.5-7.9 7.9-7.9h21c4.4 0 7.9 3.5 7.9 7.9v21c0 4.4-3.5 7.9-7.9 7.9h-21a7.815 7.815 0 0 1-5.616-2.284 7.793 7.793 0 0 1-2.284-5.616v-21Zm-2.6 0a10.502 10.502 0 0 1 10.5-10.5h21a10.502 10.502 0 0 1 10.5 10.5v21a10.502 10.502 0 0 1-10.5 10.5h-21a10.502 10.502 0 0 1-10.5-10.5v-21Zm87.5-147.9h-21a7.802 7.802 0 0 0-7.9 7.9v21c0 4.4 3.5 7.9 7.9 7.9h21c4.4 0 7.9-3.5 7.9-7.9v-21c0-4.4-3.5-7.9-7.9-7.9Zm-21-2.6A10.499 10.499 0 0 0 165 33.5v21A10.5 10.5 0 0 0 175.5 65h21A10.502 10.502 0 0 0 207 54.5v-21A10.5 10.5 0 0 0 196.5 23h-21Zm21 114.6h-21a7.815 7.815 0 0 0-5.616 2.284 7.793 7.793 0 0 0-2.284 5.616v21c0 4.4 3.5 7.9 7.9 7.9h21c4.4 0 7.9-3.5 7.9-7.9v-21c0-4.4-3.5-7.9-7.9-7.9Zm-21-2.6a10.502 10.502 0 0 0-10.5 10.5v21a10.502 10.502 0 0 0 10.5 10.5h21a10.502 10.502 0 0 0 10.5-10.5v-21a10.502 10.502 0 0 0-10.5-10.5h-21Zm56-137.4h21c4.4 0 7.9 3.5 7.9 7.9v21c0 4.4-3.5 7.9-7.9 7.9h-21a7.802 7.802 0 0 1-7.9-7.9v-21c0-4.4 3.5-7.9 7.9-7.9ZM221 5.5A10.5 10.5 0 0 1 231.5-5h21A10.502 10.502 0 0 1 263 5.5v21A10.5 10.5 0 0 1 252.5 37h-21A10.502 10.502 0 0 1 221 26.5v-21Zm31.5 48.1h-21a7.802 7.802 0 0 0-7.9 7.9v21c0 4.4 3.5 7.9 7.9 7.9h21c4.4 0 7.9-3.5 7.9-7.9v-21c0-4.4-3.5-7.9-7.9-7.9Zm-21-2.6A10.502 10.502 0 0 0 221 61.5v21A10.5 10.5 0 0 0 231.5 93h21A10.502 10.502 0 0 0 263 82.5v-21A10.5 10.5 0 0 0 252.5 51h-21Zm0 58.6h21c4.4 0 7.9 3.5 7.9 7.9v21c0 4.4-3.5 7.9-7.9 7.9h-21a7.815 7.815 0 0 1-5.616-2.284 7.793 7.793 0 0 1-2.284-5.616v-21c0-4.4 3.5-7.9 7.9-7.9Zm-10.5 7.9a10.502 10.502 0 0 1 10.5-10.5h21a10.502 10.502 0 0 1 10.5 10.5v21a10.502 10.502 0 0 1-10.5 10.5h-21a10.502 10.502 0 0 1-10.5-10.5v-21Zm31.5 48.1h-21a7.815 7.815 0 0 0-5.616 2.284 7.793 7.793 0 0 0-2.284 5.616v21c0 4.4 3.5 7.9 7.9 7.9h21c4.4 0 7.9-3.5 7.9-7.9v-21c0-4.4-3.5-7.9-7.9-7.9Zm-21-2.6a10.502 10.502 0 0 0-10.5 10.5v21a10.502 10.502 0 0 0 10.5 10.5h21a10.502 10.502 0 0 0 10.5-10.5v-21a10.502 10.502 0 0 0-10.5-10.5h-21Z" clip-rule="evenodd"/>
    <path fill="currentColor" fill-opacity=".5" d="M94.5 74c1.5-2 4.5-1 4.5 1.6v.4a7 7 0 0 0 7 7h48a7 7 0 0 0 7-7v-.4c0-2.5 3-3.7 4.5-1.6.3.4.5 1 .5 1.6v.4a11.998 11.998 0 0 1-12 12h-48a12 12 0 0 1-12-12v-.4c0-.6.2-1.2.5-1.6Zm71 52c.3-.4.5-1 .5-1.6v-.4c0-3.183-1.264-6.235-3.515-8.485A11.996 11.996 0 0 0 154 112h-48a11.997 11.997 0 0 0-12 12v.4c0 .6.2 1.2.5 1.6 1.5 2 4.5 1 4.5-1.6v-.4a7.001 7.001 0 0 1 7-7h48a6.999 6.999 0 0 1 7 7v.4c0 2.5 3 3.7 4.5 1.6Z"/>
    <path fill="currentColor" fill-rule="evenodd" d="M166 100a36.004 36.004 0 0 1-10.544 25.456 36.004 36.004 0 0 1-39.233 7.804A36.004 36.004 0 0 1 94 100a36 36 0 0 1 72 0Zm-5.7 36.7a4.304 4.304 0 0 0-5.4-.4 44.005 44.005 0 0 1-30.947 7.295 44.005 44.005 0 0 1-37.892-45.607A44 44 0 1 1 166.3 124.9c-1.2 1.7-1 4 .4 5.4l19.7 19.7a4 4 0 0 1 0 5.6l-.8.8a4 4 0 0 1-5.6 0l-19.7-19.7Z" clip-rule="evenodd"/>
  </g>
  <defs>
    <radialGradient id="empty_state_query_svg__b" cx="0" cy="0" r="1" gradientTransform="matrix(0 105 -129.153 0 126.153 100)" gradientUnits="userSpaceOnUse">
      <stop stop-color="currentColor" stop-opacity=".8"/>
      <stop offset="1" stop-color="currentColor" stop-opacity="0"/>
    </radialGradient>
    <clipPath id="empty_state_query_svg__a">
      <path fill="#fff" d="M0 0h260v200H0z"/>
    </clipPath>
  </defs>
</svg>
