<svg viewBox="0 0 260 200" fill="none" xmlns="http://www.w3.org/2000/svg">
  <g clip-path="url(#empty_state_stats_svg__a)">
    <path fill-rule="evenodd" clip-rule="evenodd" d="M61.82 20.28a6.802 6.802 0 0 1 8.652 5.492l42.582 6.715a10.2 10.2 0 0 1 18.018-.936l26.943-3.994a6.816 6.816 0 0 1 6.29-7.31 6.819 6.819 0 0 1 7.309 6.29l-.085 1.105 38.502 27.027a10.201 10.201 0 0 1 5.78-1.784 10.198 10.198 0 0 1 8.38 4.541 10.198 10.198 0 0 1 1.662 4.621 10.21 10.21 0 0 1-.693 4.861l17.339 11.135a10.2 10.2 0 1 1 4.76 16.998l-9.52 15.98a6.797 6.797 0 0 1 .311 8.934 6.8 6.8 0 0 1-8.81 1.52l-25.413 22.183a13.596 13.596 0 0 1-3.756 18.112 13.596 13.596 0 0 1-18.342-2.388l-24.649 10.284a10.2 10.2 0 0 1-20.058 3.4H76.931a6.805 6.805 0 0 1-11.74 2.204 6.81 6.81 0 0 1-1.426-5.475 6.805 6.805 0 0 1 1.096-2.679l-20.653-20.653a10.198 10.198 0 0 1-12.834-13.685L10.381 114.76A6.8 6.8 0 0 1 .27 110.877a6.798 6.798 0 0 1 3.441-7.954 6.8 6.8 0 0 1 3.015-.742h.255l8.754-25.413h.17c-1.53-2.21-2.38-4.845-2.38-7.735A13.599 13.599 0 0 1 32.31 56.454l25.243-26.858a6.801 6.801 0 0 1 4.267-9.317Zm85.146 143.097a7.65 7.65 0 1 0 0 15.3 7.65 7.65 0 0 0 0-15.3Zm-76.494 3.4a4.252 4.252 0 0 0-4.25 4.25 4.25 4.25 0 1 0 4.25-4.25Zm32.382-9.775a13.591 13.591 0 0 1-9.109 6.979 13.606 13.606 0 0 1-11.205-2.474l-6.374 5.949a6.8 6.8 0 0 1 1.02 3.145h59.496c0-.68.17-1.445.34-2.124l-34.168-11.475ZM131.412 41.41a10.207 10.207 0 0 1-2.599 3.21 10.203 10.203 0 0 1-11.68.87L105.674 60h-3.204l12.623-15.955a10.2 10.2 0 0 1-1.869-2.55L90.36 51.865A13.6 13.6 0 0 1 90.09 60h-2.76a11.04 11.04 0 0 0 .991-4.565 11.05 11.05 0 0 0-18.862-7.814 11.05 11.05 0 0 0 7.813 18.863c.399 0 .796-.024 1.19-.067v2.628c-.846.075-1.7.073-2.55-.012l-11.756 32.728-2.014-1.835 11.305-31.487a13.6 13.6 0 0 1-9.094-8.67l-24.138 5.525a13.6 13.6 0 0 1-2.55 12.323l24.477 22.309-.94 2.621-25.407-23.06a13.6 13.6 0 0 1-6.46 2.975L38.94 127a10.2 10.2 0 0 1 6.375.85l13.088-17.508 2.04 1.529-13.004 17.509a10.2 10.2 0 0 1 2.975 10.879l27.367 6.8A13.595 13.595 0 0 1 81.282 141h4.172c-.87.49-1.679 1.096-2.397 1.815a11.05 11.05 0 1 0 15.626 0A11.04 11.04 0 0 0 96.286 141h4.197a13.59 13.59 0 0 1 3.391 13.622l34.167 11.475a10.197 10.197 0 0 1 13.26-4.25L163.973 141h2.941l-13.488 22.122a10.205 10.205 0 0 1 3.059 4.164l23.713-9.944A13.604 13.604 0 0 1 182.443 141h.017v-.016a13.605 13.605 0 0 1 8.192-3.871l-1.189-22.523-2.129-7.08-4.874 7.993v-4.917l3.88-6.383.994 3.307 1.741-2.856 2.938 9.766 1.189 22.693a12.96 12.96 0 0 1 9.01 4.59l25.158-21.843a6.797 6.797 0 0 1-1.118-5.797 6.802 6.802 0 0 1 3.838-4.488l-10.879-36.886a10.201 10.201 0 0 1-5.95.255l-15.236 16.984-2.188-1.346 14.874-16.574a10.206 10.206 0 0 1-5.1-7.65v-.084l-20.568-1.956a13.587 13.587 0 0 1-2.583 6.306v-5.987a11.05 11.05 0 0 0-10.846-13.152A11.05 11.05 0 0 0 160.578 60h-2.551a14.053 14.053 0 0 1 1.603-5.926L131.412 41.41Zm-82.19 101.228a10.2 10.2 0 0 1-2.719 2.72l20.059 20.058a6.796 6.796 0 0 1 3.98-1.181 6.793 6.793 0 0 1 3.924 1.351l6.205-5.864a13.607 13.607 0 0 1-3.4-10.199l-28.048-6.885Zm142.791-3.06a11.047 11.047 0 0 0-11.049 11.05 11.05 11.05 0 1 0 11.049-11.05Zm-151.29-10.199a7.652 7.652 0 0 0-7.649 7.649 7.652 7.652 0 0 0 7.65 7.65 7.652 7.652 0 0 0 7.65-7.65 7.652 7.652 0 0 0-7.65-7.649ZM9.446 102.776a6.798 6.798 0 0 1 2.805 10.2l20.484 17.678a10.205 10.205 0 0 1 3.74-2.89l-9.69-45.132a13.599 13.599 0 0 1-9.093-3.824l-8.246 23.968Zm69.015 16.056v6.769l-4.929-11.861 2.38-1.02 2.55 6.112Zm154.35-7.302a4.251 4.251 0 0 0-3.005 7.255 4.25 4.25 0 1 0 3.005-7.255Zm-157.75.17-1.529 2.04-10.315-9.363.94-2.616L75.06 111.7Zm-68.334-6.969a4.25 4.25 0 1 0 0 8.5 4.25 4.25 0 0 0 0-8.5Zm56.49-.354-2.264 6.304-2.55-.34 2.798-7.794 2.016 1.83ZM223.97 69.118c-.7.964-1.563 1.799-2.55 2.465l11.049 37.398h.255a6.792 6.792 0 0 1 2.804.594l9.35-15.468a10.197 10.197 0 0 1-5.224-10.272 10.194 10.194 0 0 1 1.314-3.838L223.97 69.118Zm-26.264 21.164.318-.354.022.014-8.972 14.712-.996-3.311 7.758-12.76 1.87 1.7Zm-9.628 11.061-1.739 2.86-3.88-12.907v-8.635l5.619 18.682Zm61.73-23.81A7.649 7.649 0 0 0 244.4 90.59a7.649 7.649 0 1 0 5.409-13.059ZM78.46 90.514l-.084-.063.084-.106v.169Zm-51.336-32.53a11.05 11.05 0 1 0 .001 22.098 11.05 11.05 0 0 0 0-22.099Zm188.687-2.55a7.651 7.651 0 0 0-7.65 7.65 7.65 7.65 0 0 0 15.299 0 7.652 7.652 0 0 0-7.649-7.65ZM34.604 57.73a13.6 13.6 0 0 1 4.674 5.1v.084l24.394-5.61a13.683 13.683 0 0 1 7.055-13.769l-5.1-10.539a6.8 6.8 0 0 1-6.46-1.36L34.604 57.73Zm136.075-27.623a6.8 6.8 0 0 1-3.909 2.974l3.484 13.939 1.36-.085a13.599 13.599 0 0 1 13.599 12.749l20.483 2.04a10.205 10.205 0 0 1 2.38-5.27l-37.397-26.347Zm-38.587 3.824a10.2 10.2 0 0 1 .17 5.1l28.813 12.918a13.6 13.6 0 0 1 6.714-4.505l-3.569-14.108a6.798 6.798 0 0 1-5.27-3.4l-26.858 3.995Zm-61.876-5.525a6.799 6.799 0 0 1-2.294 3.4h.085l5.1 10.709A13.6 13.6 0 0 1 89.424 49.4l22.948-10.37a10.195 10.195 0 0 1-.085-4.08l-42.072-6.544Zm52.101.68a7.652 7.652 0 0 0-7.649 7.65 7.652 7.652 0 0 0 7.649 7.649 7.652 7.652 0 0 0 7.65-7.65 7.652 7.652 0 0 0-7.65-7.649Zm-58.645-6.8a4.25 4.25 0 1 0 .001 8.5 4.25 4.25 0 0 0-.001-8.5Zm101.143 0a4.25 4.25 0 1 0 .001 8.5 4.25 4.25 0 0 0-.001-8.5Z" fill="url(#empty_state_stats_svg__b)"/>
    <rect x="77" y="58.846" width="106" height="82.923" rx="7.615" stroke="currentColor" stroke-width="6"/>
    <path d="m86.923 127.507 5.861-2.201c.48-.18.837-.587.956-1.085l4.944-20.789c.375-1.576 2.617-1.577 2.993-.002l3.976 16.651c.351 1.47 2.39 1.606 2.932.195l3.484-9.059c.496-1.29 2.31-1.322 2.851-.05l4.183 9.819a1.54 1.54 0 0 0 2.57.415l4.812-5.457a1.54 1.54 0 0 0 .301-.516l4.64-13.469c.514-1.491 2.673-1.335 2.966.215l4.375 23.091c.3 1.583 2.522 1.699 2.985.156l3.595-11.987c.413-1.379 2.324-1.486 2.889-.162l3.419 8.021c.549 1.287 2.392 1.233 2.864-.085l4.898-13.683c.238-.666.9-1.084 1.604-1.012l4.183.425a1.538 1.538 0 0 0 1.623-1.067l6.25-19.794" stroke="currentColor" stroke-width="4.615" stroke-linecap="round" stroke-linejoin="round"/>
    <rect x="86.154" y="68" width="24.615" height="4.615" rx="2.308" fill="currentColor"/>
    <rect x="86.154" y="74.923" width="74.615" height="4.615" rx="2.308" fill="currentColor"/>
  </g>
  <defs>
    <radialGradient id="empty_state_stats_svg__b" cx="0" cy="0" r="1" gradientUnits="userSpaceOnUse" gradientTransform="matrix(0 80.4175 -126.24 0 126.24 100.418)">
      <stop stop-color="currentColor" stop-opacity=".8"/>
      <stop offset="1" stop-color="currentColor" stop-opacity="0"/>
    </radialGradient>
    <clipPath id="empty_state_stats_svg__a">
      <path fill="currentColor" d="M0 0h260v200H0z"/>
    </clipPath>
  </defs>
</svg>
