<svg width="96" height="96" viewBox="-2 -2 40 38" fill="none" xmlns="http://www.w3.org/2000/svg" xmlns:xlink="http://www.w3.org/1999/xlink">
    <desc>
        Created with Pixso.
    </desc>
    <defs/>
    <!-- 添加蓝色圆形背景 -->
    <circle cx="18" cy="17" r="17" fill="#2196F3"/>
    
    <g style="mix-blend-mode:normal" transform="translate(6, 5.67) scale(0.6667)">
        <path id="路径 172" d="M36.53 25.84C36.51 25.64 36.5 25.58 36.26 25.63C35.08 25.87 33.9 26.05 32.69 26.04C32.1 26.03 31.95 25.91 31.86 25.25C31.84 25.03 31.85 24.79 31.87 24.57C31.92 23.98 31.99 23.4 32.06 22.82C32.22 21.41 32.34 20 32.2 18.57C32.05 17.12 31.66 15.76 30.88 14.51C30.21 13.42 29.73 12.26 29.55 10.98C29.34 9.58 29.48 8.22 30.12 6.95C30.64 5.9 31.41 5.01 31.82 3.9C31.9 3.69 31.96 3.44 32.03 3.22C32.2 2.72 32.19 2.22 32.12 1.7C32.1 1.52 32.04 1.34 31.97 1.14C31.78 0.71 31.48 0.38 31.08 0.15C30.91 0.06 30.79 0.02 30.64 0C30.23 -0.04 29.84 0.08 29.46 0.24C29.19 0.35 28.94 0.47 28.68 0.63C28.56 0.69 28.44 0.75 28.31 0.79C27.6 1.06 26.85 1.05 26.11 1.12C24.69 1.25 23.48 1.8 22.53 2.87C21.62 3.89 21.24 5.14 21.18 6.49C21.11 8.17 21.33 9.85 21.31 11.54C21.29 12.86 21.33 14.19 21.12 15.51C20.99 16.36 20.8 17.2 20.39 17.97C20.35 18.04 20.31 18.1 20.27 18.19C20.22 18.28 20.19 18.38 20.13 18.46C19.4 19.57 18.33 20.22 17.1 20.64C16.65 20.74 16.21 20.84 15.77 20.96C15.42 21.05 15.09 21.07 14.71 21.12C14.48 21.14 14.24 21.17 14.01 21.2C13.53 21.28 13.06 21.39 12.61 21.55C11.16 21.99 9.94 22.77 8.97 23.93C8.91 24.01 8.87 24.05 8.8 24.16C8.8 24.16 8.43 24.66 8.29 24.94C8.22 25.08 8.16 25.12 7.98 25.05C7.21 24.72 6.47 24.32 5.66 24.09C5.17 23.95 5.04 24 4.8 24.45C4.58 24.87 4.43 25.32 4.32 25.78C4.28 25.97 4.19 26.04 3.99 26.03C3.43 26.01 2.88 26.03 2.32 26.09C1.68 26.16 1.04 26.22 0.44 26.48C-0.02 26.68 -0.1 26.92 0.1 27.38C0.17 27.56 0.28 27.71 0.42 27.84C1 28.4 1.73 28.59 2.5 28.71C2.55 28.76 2.62 28.75 2.68 28.76C3.45 28.88 4.22 28.83 4.99 28.81C5.2 28.8 5.42 28.79 5.63 28.71C6.06 28.68 6.49 28.65 6.93 28.62C7.98 28.57 9.03 28.6 10.06 28.78C11.09 28.97 12.12 29.19 13.15 29.37C15.14 29.72 17.14 30.05 19.14 30.27C19.75 30.34 19.99 30.86 19.67 31.39C19.5 31.67 19.22 31.84 18.98 32.05C18.38 32.55 18.03 33.17 18.02 33.96C18.02 34.09 18.01 34.21 18.19 34.22C18.64 34.26 19.07 34.33 19.52 34.33C20.27 34.34 21.01 34.31 21.75 34.21C22.66 34.08 23.51 33.83 24.27 33.27C25.37 32.44 26.5 31.64 27.74 31.02C28.73 30.53 29.75 30.14 30.86 30.07C31.85 30.01 32.84 29.9 33.79 29.61C34.49 29.39 35.13 29.04 35.66 28.52C36.41 27.78 36.63 26.87 36.53 25.84Z" fill="#FFFFFF" fill-opacity="1.000000" fill-rule="nonzero"/>
    </g>
</svg>