<svg viewBox="0 0 201 100" fill="none" xmlns="http://www.w3.org/2000/svg">
  <path fill-rule="evenodd" clip-rule="evenodd" d="M126.092 85.414c1.267-2.895 1.9-5.993 1.9-9.295V23.881c0-3.302-.633-6.4-1.9-9.295-1.221-2.895-2.917-5.427-5.088-7.598-2.171-2.171-4.704-3.867-7.598-5.088-2.895-1.267-5.993-1.9-9.295-1.9h-4.138C96.67 0 93.55.633 90.61 1.9c-2.895 1.22-5.428 2.917-7.599 5.088-2.17 2.17-3.89 4.703-5.156 7.598-1.221 2.895-1.832 5.993-1.832 9.295v52.238c0 3.302.611 6.4 1.832 9.295 1.267 2.894 2.985 5.427 5.156 7.598 2.171 2.171 4.704 3.89 7.599 5.156C93.55 99.39 96.67 100 99.973 100h4.138c3.302 0 6.4-.61 9.295-1.832 2.894-1.266 5.427-2.985 7.598-5.156 2.171-2.17 3.867-4.704 5.088-7.598Zm-8.073-67.571c.814 1.854 1.221 3.867 1.221 6.038v52.238c0 2.171-.407 4.207-1.221 6.106a16.717 16.717 0 0 1-3.324 4.953c-1.402 1.402-3.053 2.51-4.953 3.324-1.854.814-3.867 1.221-6.038 1.221h-3.324c-2.171 0-4.206-.407-6.106-1.221a16.718 16.718 0 0 1-4.952-3.324 16.718 16.718 0 0 1-3.325-4.953c-.814-1.9-1.22-3.935-1.22-6.106V23.881c0-2.171.406-4.184 1.22-6.038.814-1.9 1.922-3.55 3.325-4.953a16.718 16.718 0 0 1 4.952-3.324c1.9-.814 3.935-1.221 6.106-1.221h3.324c2.171 0 4.184.407 6.038 1.22 1.9.815 3.551 1.923 4.953 3.325 1.402 1.402 2.51 3.053 3.324 4.953Zm-70.19 63.975v16.825a8.752 8.752 0 0 1-8.752-8.752v-8.073H3.275a3.275 3.275 0 0 1-2.85-4.89L42.38 2.836a2.914 2.914 0 0 1 5.45 1.436v69.203h8.345a8.345 8.345 0 0 1-8.345 8.344Zm-8.752-56.513L12.28 73.474h26.797V25.305Zm152.711 56.513v16.825a8.752 8.752 0 0 1-8.752-8.752v-8.073h-35.802a3.275 3.275 0 0 1-2.85-4.89l41.954-74.093a2.914 2.914 0 0 1 5.45 1.436v69.203h8.345a8.345 8.345 0 0 1-8.345 8.344Zm-8.752-56.513-26.798 48.169h26.798V25.305Z" fill="currentColor"/>
</svg>
