<svg viewBox="0 0 197 101" fill="none" xmlns="http://www.w3.org/2000/svg">
  <path fill-rule="evenodd" clip-rule="evenodd" d="M124.363 76.7c0 3.326-.638 6.448-1.914 9.364-1.23 2.917-2.939 5.47-5.127 7.657-2.187 2.187-4.739 3.919-7.656 5.195-2.917 1.23-6.038 1.846-9.365 1.846h-4.17c-3.327 0-6.472-.616-9.434-1.846-2.916-1.276-5.469-3.008-7.656-5.195-2.188-2.188-3.92-4.74-5.195-7.657C72.616 83.148 72 80.026 72 76.7V24.063c0-3.327.615-6.45 1.846-9.366 1.276-2.916 3.007-5.468 5.195-7.656 2.188-2.187 4.74-3.896 7.656-5.127C89.66.638 92.804 0 96.131 0h4.17c3.327 0 6.448.638 9.365 1.914 2.917 1.23 5.469 2.94 7.656 5.127 2.188 2.188 3.897 4.74 5.127 7.656 1.276 2.917 1.914 6.039 1.914 9.366v52.636Zm-8.818-52.638c0-2.187-.41-4.215-1.231-6.084-.82-1.914-1.936-3.577-3.349-4.99-1.413-1.412-3.076-2.529-4.99-3.35-1.869-.82-3.897-1.23-6.084-1.23h-3.35c-2.188 0-4.238.41-6.152 1.23a16.848 16.848 0 0 0-4.99 3.35c-1.413 1.413-2.53 3.076-3.35 4.99-.82 1.869-1.23 3.897-1.23 6.084V76.7c0 2.188.41 4.239 1.23 6.153a16.847 16.847 0 0 0 3.35 4.99 16.847 16.847 0 0 0 4.99 3.35c1.914.82 3.965 1.23 6.152 1.23h3.35c2.187 0 4.215-.41 6.084-1.23 1.914-.82 3.577-1.937 4.99-3.35a16.834 16.834 0 0 0 3.349-4.99c.821-1.915 1.231-3.965 1.231-6.153V24.063ZM52.363 76.7c0 3.327-.638 6.449-1.914 9.365-1.23 2.917-2.94 5.47-5.127 7.657-2.187 2.187-4.74 3.919-7.656 5.195-2.917 1.23-6.038 1.846-9.365 1.846h-4.17c-3.327 0-6.471-.616-9.434-1.846-2.916-1.276-5.468-3.008-7.656-5.195-2.187-2.188-3.92-4.74-5.195-7.657C.616 83.148 0 80.026 0 76.7c0-.83.673-1.504 1.504-1.504h5.81c.831 0 1.504.674 1.504 1.504 0 2.188.41 4.239 1.23 6.153a16.847 16.847 0 0 0 3.35 4.99 16.847 16.847 0 0 0 4.99 3.35c1.915.82 3.965 1.23 6.153 1.23h3.35c2.187 0 4.215-.41 6.084-1.23 1.914-.82 3.577-1.937 4.99-3.35a16.847 16.847 0 0 0 3.35-4.99c.82-1.915 1.23-3.965 1.23-6.153V57.695c0-2.187-.41-4.215-1.23-6.084-.82-1.914-1.937-3.577-3.35-4.99a15.212 15.212 0 0 0-4.99-3.418c-1.869-.82-3.897-1.23-6.084-1.23h-3.35c-2.188 0-4.238.41-6.152 1.23a16.228 16.228 0 0 0-4.99 3.418c-1.413 1.413-2.53 3.076-3.35 4.99a14.485 14.485 0 0 0-1.112 4.09c-.134 1.096-1.014 1.994-2.119 1.994h-4.61a2 2 0 0 1-1.99-2.198l4.85-48.724a6 6 0 0 1 5.97-5.406H47.51a8.408 8.408 0 0 1-8.408 8.408H13.877l-3.213 30.147c2.096-2.005 4.535-3.555 7.315-4.649 2.78-1.139 5.765-1.709 8.955-1.709H28.3c3.327 0 6.448.639 9.365 1.914 2.917 1.231 5.469 2.94 7.656 5.127 2.188 2.188 3.897 4.763 5.127 7.725 1.276 2.917 1.914 6.038 1.914 9.365V76.7Zm142.086 9.365c1.276-2.916 1.914-6.038 1.914-9.365V24.063c0-3.327-.638-6.45-1.914-9.366-1.23-2.916-2.939-5.468-5.127-7.656-2.187-2.187-4.739-3.896-7.656-5.127C178.749.638 175.628 0 172.301 0h-4.17c-3.327 0-6.471.638-9.434 1.914-2.916 1.23-5.468 2.94-7.656 5.127-2.187 2.188-3.919 4.74-5.195 7.656-1.231 2.917-1.846 6.039-1.846 9.366v52.636c0 3.327.615 6.449 1.846 9.365 1.276 2.917 3.008 5.47 5.195 7.657 2.188 2.187 4.74 3.919 7.656 5.195 2.963 1.23 6.107 1.846 9.434 1.846h4.17c3.327 0 6.448-.616 9.365-1.846 2.917-1.276 5.469-3.008 7.656-5.195 2.188-2.188 3.897-4.74 5.127-7.657Zm-8.135-68.085c.821 1.868 1.231 3.896 1.231 6.084V76.7c0 2.188-.41 4.239-1.231 6.153a16.834 16.834 0 0 1-3.349 4.99c-1.413 1.413-3.076 2.53-4.99 3.35-1.869.82-3.897 1.23-6.084 1.23h-3.35c-2.187 0-4.238-.41-6.152-1.23a16.851 16.851 0 0 1-4.991-3.35 16.853 16.853 0 0 1-3.349-4.99c-.82-1.915-1.231-3.965-1.231-6.153V24.063c0-2.188.411-4.216 1.231-6.084.82-1.915 1.937-3.578 3.349-4.99a16.852 16.852 0 0 1 4.991-3.35c1.914-.82 3.965-1.23 6.152-1.23h3.35c2.187 0 4.215.41 6.084 1.23 1.914.82 3.577 1.937 4.99 3.35 1.413 1.412 2.529 3.075 3.349 4.99Z" fill="currentColor"/>
</svg>
