<svg xmlns="http://www.w3.org/2000/svg" fill="none" viewBox="0 0 20 20">
  <path fill="#E2761B" d="M19.004 1 11.2 6.82l1.443-3.434L19.003 1Z"/>
  <path fill="#E4761B" d="M.988 1 8.73 6.875 7.357 3.386.988 1Zm15.208 13.492-2.078 3.197 4.447 1.229 1.278-4.356-3.647-.07Zm-16.031.07 1.27 4.356 4.447-1.229-2.078-3.197-3.64.07Z"/>
  <path fill="#E4761B" d="m5.631 9.088-1.239 1.883 4.416.197-.157-4.765-3.02 2.685Zm8.73 0-3.06-2.74-.101 4.82 4.408-.197-1.247-1.883ZM5.882 17.69l2.651-1.3-2.29-1.795-.36 3.095Zm5.577-1.3 2.659 1.3-.369-3.095-2.29 1.796Z"/>
  <path fill="#D7C1B3" d="m14.118 17.69-2.66-1.3.213 1.74-.024.733 2.47-1.174Zm-8.236 0 2.47 1.173-.015-.733.196-1.74-2.65 1.3Z"/>
  <path fill="#233447" d="M8.392 13.444 6.18 12.79l1.561-.716.651 1.37Zm3.208 0 .651-1.37 1.569.716-2.22.654Z"/>
  <path fill="#CD6116" d="m5.882 17.69.377-3.199-2.455.071 2.078 3.127Zm7.86-3.199.376 3.198 2.078-3.127-2.455-.07Zm1.866-3.52-4.408.197.408 2.276.65-1.37 1.57.716 1.78-1.82ZM6.18 12.79l1.57-.717.642 1.37.416-2.276-4.416-.197 1.788 1.82Z"/>
  <path fill="#E4751F" d="m4.392 10.97 1.851 3.624-.063-1.804-1.788-1.82Zm9.435 1.82-.078 1.804 1.859-3.623-1.78 1.82Zm-5.02-1.622-.415 2.276.518 2.686.117-3.537-.22-1.425Zm2.393 0-.212 1.418.094 3.544.526-2.686-.408-2.276Z"/>
  <path fill="#F6851B" d="m11.608 13.444-.526 2.686.377.26 2.29-1.796.079-1.804-2.22.654ZM6.18 12.79l.063 1.804 2.29 1.796.377-.26-.518-2.686-2.212-.654Z"/>
  <path fill="#C0AD9E" d="m11.647 18.863.024-.733-.196-.173H8.518l-.18.173.015.733-2.47-1.174.862.709 1.75 1.22h3.003l1.757-1.22.863-.709-2.471 1.174Z"/>
  <path fill="#161616" d="m11.459 16.39-.377-.26H8.91l-.377.26-.196 1.74.18-.173h2.957l.197.173-.212-1.74Z"/>
  <path fill="#763D16" d="M19.333 7.198 20 3.985 19.004 1l-7.545 5.623L14.36 9.09l4.102 1.205.91-1.064-.393-.283.628-.575-.486-.378.627-.48-.416-.316ZM0 3.985l.667 3.213-.424.315.628.48-.479.379.628.575-.393.283.902 1.064 4.102-1.205 2.902-2.466L.988 1 0 3.985Z"/>
  <path fill="#F6851B" d="M18.463 10.294 14.36 9.089l1.247 1.882-1.859 3.623 2.447-.031h3.647l-1.38-4.27ZM5.63 9.089l-4.1 1.205-1.365 4.268h3.639l2.44.032-1.852-3.623 1.24-1.882Zm5.57 2.079.258-4.545 1.192-3.237H7.357l1.176 3.237.275 4.545.094 1.433.008 3.529h2.172l.016-3.529.102-1.433Z"/>
</svg>
