<svg xmlns="http://www.w3.org/2000/svg" fill="none" viewBox="0 0 20 20">
  <g clip-path="url(#a)">
    <path fill="#FF5C16" d="m17.763 17.7-3.864-1.15-2.914 1.742H8.952L6.037 16.55 2.175 17.7 1 13.736l1.175-4.402L1 5.613 2.175 1l6.034 3.605h3.519L17.763 1l1.175 4.612-1.175 3.721 1.175 4.402-1.175 3.966Z"/>
    <path fill="#FF5C16" d="M2.176 1 8.21 4.608l-.24 2.476L2.176 1Zm3.862 12.737 2.655 2.022-2.655.791v-2.813Zm2.443-3.344-.51-3.307-3.267 2.249-.002-.001v.001l.01 2.315 1.325-1.257H8.48ZM17.763 1l-6.035 3.608.24 2.476L17.762 1ZM13.9 13.737l-2.656 2.022 2.656.791v-2.813Zm1.335-4.402v-.002l-.001.001-3.267-2.248-.51 3.307H13.9l1.325 1.257.01-2.315Z"/>
    <path fill="#E34807" d="M6.037 16.55 2.175 17.7 1 13.737h5.037v2.814Zm2.443-6.159.738 4.781-1.023-2.658-3.485-.865 1.326-1.257H8.48Zm5.42 6.159 3.863 1.15 1.175-3.964H13.9v2.814Zm-2.442-6.159-.738 4.781 1.022-2.658 3.485-.865-1.326-1.257h-2.443Z"/>
    <path fill="#FF8D5D" d="m1 13.735 1.175-4.402H4.7l.01 2.316 3.484.864 1.023 2.658-.526.586-2.655-2.023H1Zm17.938 0-1.175-4.402h-2.527l-.009 2.316-3.485.864-1.022 2.658.525.586 2.656-2.023h5.037Zm-7.21-9.13H8.209l-.238 2.476 1.247 8.088h1.502l1.248-8.088-.24-2.476Z"/>
    <path fill="#661800" d="M2.175 1 1 5.612l1.175 3.721H4.7l3.27-2.249L2.175 1ZM7.75 11.352H6.605l-.623.61 2.214.55-.446-1.16ZM17.763 1l1.175 4.612-1.175 3.721h-2.527l-3.268-2.249L17.763 1Zm-5.574 10.352h1.147l.623.611-2.217.55.447-1.162Zm-1.205 5.363.261-.957-.525-.585H9.217l-.526.585.261.957"/>
    <path fill="#C0C4CD" d="M10.984 16.714v1.579H8.952v-1.579h2.032Z"/>
    <path fill="#E7EBF6" d="m6.038 16.548 2.916 1.744v-1.579l-.261-.956-2.655.791Zm7.863 0-2.917 1.744v-1.579l.262-.956 2.655.791Z"/>
  </g>
  <defs>
    <clipPath id="a">
      <path fill="#fff" d="M1 1h18v17.366H1z"/>
    </clipPath>
  </defs>
</svg>
