<svg xmlns="http://www.w3.org/2000/svg" viewBox="0 0 20 20" fill="none">
  <path d="M3.265 6.697a7.5 7.5 0 0 0 10.04 10.037c.727.311 1.432.515 2.075.568.752.061 1.537-.08 2.105-.648.627-.627.734-1.513.622-2.343-.103-.758-.4-1.6-.835-2.468a7.5 7.5 0 0 0-9.113-9.115c-.87-.436-1.712-.735-2.47-.838-.832-.112-1.719-.006-2.346.622-.57.569-.71 1.354-.648 2.107.053.644.258 1.35.57 2.078Zm1.17-1.726a3.447 3.447 0 0 1-.079-.489c-.04-.488.075-.702.165-.792.1-.099.352-.228.943-.148.165.022.344.06.536.113-.58.366-1.107.81-1.565 1.316Zm11.909 9.031c.052.191.089.368.11.532.08.59-.049.842-.148.941-.09.09-.303.205-.79.166a3.453 3.453 0 0 1-.485-.079 7.536 7.536 0 0 0 1.313-1.56Zm-3.11.853c-1.397-.732-3.02-1.936-4.588-3.504-1.567-1.567-2.77-3.188-3.502-4.584a5.848 5.848 0 0 1 3.164-2.351 5.833 5.833 0 0 1 4.927 10.44Zm-1.896.824A5.833 5.833 0 0 1 4.32 8.663c.803 1.264 1.875 2.594 3.146 3.866 1.274 1.274 2.605 2.346 3.87 3.15Z" fill="currentColor"/>
</svg>
