<svg xmlns="http://www.w3.org/2000/svg" viewBox="0 0 20 20" fill="none">
  <path d="m10 1.667 3.536 3.535-1.179 1.179L10 4.024 7.643 6.38 6.464 5.202 10 1.667ZM1.667 10l3.535-3.536 1.179 1.179L4.024 10l2.357 2.357-1.179 1.179L1.667 10Zm16.666 0-3.535 3.536-1.179-1.179L15.976 10 13.62 7.643l1.179-1.179L18.333 10ZM10 11.667a1.667 1.667 0 1 1 0-3.334 1.667 1.667 0 0 1 0 3.334Zm0 6.666-3.536-3.535 1.179-1.179L10 15.976l2.357-2.357 1.179 1.179L10 18.333Z" fill="currentColor" fill-opacity=".4"/>
</svg>
