<svg viewBox="0 0 20 20" fill="none" xmlns="http://www.w3.org/2000/svg">
  <path d="M10 15.833c.175 0 .337-.082.661-.247l2.608-1.325c1.154-.587 1.731-.88 1.731-1.345V7.083m-5 8.75c-.175 0-.337-.082-.661-.247L6.73 14.26C5.577 13.674 5 13.38 5 12.915V7.083m5 8.75V10m5-2.917c0-.464-.577-.757-1.731-1.344l-2.608-1.325c-.324-.165-.486-.247-.661-.247-.175 0-.337.082-.661.247L6.73 5.739C5.577 6.326 5 6.62 5 7.083m10 0c0 .465-.577.758-1.731 1.344l-2.608 1.325c-.324.165-.486.248-.661.248M5 7.083c0 .465.577.758 1.731 1.344l2.608 1.325c.324.165.486.248.661.248" stroke="currentColor" stroke-opacity=".4" stroke-width="1.2" stroke-linejoin="round"/>
  <path d="m10.992 17.98 3.911-1.893c1.731-.838 2.597-1.257 2.597-1.92V5.832c0-.663-.866-1.082-2.597-1.92L10.992 2.02c-.487-.236-.73-.353-.992-.353s-.505.117-.992.353L5.096 3.913C3.366 4.751 2.5 5.17 2.5 5.833v8.334c0 .663.865 1.082 2.596 1.92l3.912 1.893c.487.235.73.353.992.353s.505-.118.992-.353Z" stroke="currentColor" stroke-opacity=".4" stroke-width="1.2" stroke-linejoin="round"/>
</svg>
