<svg viewBox="0 0 20 20" fill="none" xmlns="http://www.w3.org/2000/svg">
  <path d="M17.388 10c0-1.02-.827-1.847-1.847-1.847h-3.078a2.463 2.463 0 1 1-4.925 0H4.459c-1.02 0-1.846.827-1.846 1.847m14.775 0v4.925c0 1.02-.827 1.847-1.847 1.847H4.459a1.847 1.847 0 0 1-1.846-1.847V10m14.775 0V7.537M2.613 10V7.537m14.775 0c0-1.02-.827-1.846-1.847-1.846H4.459c-1.02 0-1.846.826-1.846 1.846m14.775 0V5.075c0-1.02-.827-1.847-1.847-1.847H4.459c-1.02 0-1.846.827-1.846 1.847v2.462" stroke="currentColor" stroke-width="1.6" stroke-linecap="round" stroke-linejoin="round"/>
</svg>
