<svg viewBox="0 0 20 20" fill="none" xmlns="http://www.w3.org/2000/svg">
  <rect x=".8" y=".8" width="18.4" height="18.4" rx="5.2" stroke="currentColor" stroke-width="1.6"/>
  <path d="M9.293 8.182a1 1 0 0 0 1.414 0l2.627-2.627a.786.786 0 1 1 1.11 1.111l-2.626 2.627a1 1 0 0 0 0 1.414l2.627 2.627a.785.785 0 1 1-1.111 1.11l-2.627-2.626a1 1 0 0 0-1.414 0l-2.627 2.627a.786.786 0 1 1-1.11-1.111l2.626-2.627a1 1 0 0 0 0-1.414L5.555 6.666a.786.786 0 1 1 1.111-1.11l2.627 2.626Z" fill="currentColor"/>
</svg>
