<svg xmlns="http://www.w3.org/2000/svg" viewBox="0 0 24 24" fill="none">
  <path d="M4 14.2V6.8c0-1.68 0-2.52.327-3.162a3 3 0 0 1 1.311-1.311C6.28 2 7.12 2 8.8 2h3.212c.733 0 1.1 0 1.446.083.306.073.598.195.867.36.303.185.562.444 1.08.963l3.19 3.188c.518.519.777.778.963 1.081a3 3 0 0 1 .36.867c.082.346.082.712.082 1.446V14.2M14 2.27V6.4c0 .56 0 .84.109 1.054a1 1 0 0 0 .437.437C14.76 8 15.04 8 15.6 8h4.13" stroke="currentColor" stroke-width="2" stroke-linecap="round" stroke-linejoin="round"/>
  <path d="M17.386 22.063a.769.769 0 0 1-.434-.112.854.854 0 0 1-.273-.357l-1.694-3.738a.704.704 0 0 1-.07-.441.467.467 0 0 1 .196-.301.637.637 0 0 1 .385-.112c.192 0 .334.042.427.126a.995.995 0 0 1 .252.371l1.428 3.304h-.392l1.428-3.311a.928.928 0 0 1 .252-.364c.098-.084.236-.126.413-.126.145 0 .266.037.364.112a.45.45 0 0 1 .182.301.704.704 0 0 1-.07.441l-1.7 3.738a.808.808 0 0 1-.267.357.735.735 0 0 1-.427.112ZM11.55 22.077c-.186 0-.382-.014-.588-.042-.2-.023-.392-.06-.573-.112a2.993 2.993 0 0 1-.49-.182.56.56 0 0 1-.266-.238.588.588 0 0 1 .063-.616.455.455 0 0 1 .259-.175.513.513 0 0 1 .364.042c.177.084.377.15.601.196.225.047.434.07.63.07.308 0 .523-.04.644-.119.126-.084.19-.186.19-.308a.306.306 0 0 0-.133-.259c-.085-.065-.236-.121-.455-.168l-.82-.175c-.448-.093-.781-.256-1-.49-.22-.233-.33-.534-.33-.903 0-.242.05-.462.148-.658a1.5 1.5 0 0 1 .426-.51 2.06 2.06 0 0 1 .659-.323c.256-.08.54-.119.854-.119.242 0 .487.028.734.084.252.052.47.13.651.238a.503.503 0 0 1 .232.231c.046.098.065.2.056.308a.49.49 0 0 1-.113.273.448.448 0 0 1-.252.161c-.102.024-.226.005-.37-.056a1.85 1.85 0 0 0-.462-.133 2.562 2.562 0 0 0-.49-.049c-.173 0-.32.021-.441.063a.593.593 0 0 0-.28.168.399.399 0 0 0-.091.26c0 .097.04.181.118.251.085.066.236.122.455.168l.813.175c.452.098.79.26 1.014.483.224.224.336.516.336.875 0 .243-.049.462-.147.658a1.448 1.448 0 0 1-.42.504c-.181.136-.4.24-.658.315a3.109 3.109 0 0 1-.867.112ZM6.462 22.077c-.546 0-1.015-.105-1.407-.315a2.182 2.182 0 0 1-.903-.889c-.205-.382-.308-.83-.308-1.344 0-.382.059-.73.175-1.043.122-.312.294-.58.518-.805.229-.224.504-.394.826-.51a3.137 3.137 0 0 1 1.1-.183c.214 0 .436.026.664.077.234.047.439.12.616.217.13.07.222.159.273.266a.54.54 0 0 1 .05.33.63.63 0 0 1-.12.3.492.492 0 0 1-.252.182.466.466 0 0 1-.336-.049 2.137 2.137 0 0 0-.42-.147 1.596 1.596 0 0 0-.427-.056c-.29 0-.532.056-.728.168a1.027 1.027 0 0 0-.434.476c-.098.21-.147.47-.147.777 0 .308.05.57.147.784.098.21.243.371.434.483.196.108.439.161.728.161.122 0 .252-.014.392-.042a1.99 1.99 0 0 0 .413-.147.57.57 0 0 1 .371-.049.47.47 0 0 1 .266.168c.07.084.115.182.133.294a.524.524 0 0 1-.049.322.54.54 0 0 1-.252.26 2.101 2.101 0 0 1-.609.23 3.108 3.108 0 0 1-.714.084Z" fill="currentColor"/>
</svg>
