<svg viewBox="0 0 24 24" fill="none" xmlns="http://www.w3.org/2000/svg">
  <path fill-rule="evenodd" clip-rule="evenodd" d="M6.4 2.933a.156.156 0 0 0-.155.156v10.844a.467.467 0 0 1-.934 0V3.09A1.089 1.089 0 0 1 6.401 2h7.474a.467.467 0 0 1 .322.137l4.355 4.355a.467.467 0 0 1 .137.33v7.111a.467.467 0 0 1-.933 0V7.29h-3.89a.467.467 0 0 1-.466-.467v-3.89h-7Zm7.933.66v2.763h2.763l-2.763-2.763Zm-3.11 14.385c0-.186.064-.305.157-.385.1-.086.275-.16.542-.16.32.001.631.105.888.297a.467.467 0 0 0 .558-.749 2.427 2.427 0 0 0-1.444-.481h-.002c-.433 0-.841.12-1.15.384-.315.27-.483.657-.483 1.094 0 .235.065.447.189.628.12.175.28.297.436.386.28.16.633.253.915.327l.051.014c.327.087.568.157.733.257.13.08.165.145.165.254 0 .24-.084.34-.184.404-.134.086-.36.14-.671.14-.32 0-.632-.104-.888-.296a.467.467 0 0 0-.558.749c.417.31.923.48 1.444.481h.001c.388 0 .823-.062 1.175-.287.386-.247.614-.654.614-1.19 0-.513-.277-.847-.613-1.052-.298-.181-.674-.281-.967-.36l-.011-.002c-.333-.089-.576-.154-.745-.25a.377.377 0 0 1-.128-.103c-.012-.018-.025-.044-.025-.1Zm4.02-1.364c.238-.1.51.013.61.25l1.125 2.7 1.124-2.7a.467.467 0 1 1 .862.36l-1.556 3.733a.467.467 0 0 1-.861 0l-1.556-3.733a.466.466 0 0 1 .252-.61Zm-8.067.897c-.653.001-1.243.585-1.243 1.4s.59 1.399 1.243 1.4c.287-.003.564-.112.776-.306a.467.467 0 1 1 .63.69 2.1 2.1 0 0 1-1.4.55h-.004C5.934 21.244 5 20.163 5 18.91s.934-2.333 2.178-2.333h.004a2.1 2.1 0 0 1 1.4.55.467.467 0 1 1-.63.689 1.167 1.167 0 0 0-.776-.306Z" fill="currentColor" stroke="currentColor" stroke-width=".4" stroke-linecap="round" stroke-linejoin="round"/>
</svg>
