<svg xmlns="http://www.w3.org/2000/svg" fill="none" viewBox="0 0 20 20">
  <path fill="currentColor" fill-rule="evenodd" d="M3.6 2.096a.18.18 0 0 0-.126.054.19.19 0 0 0-.052.13v8.04a.54.54 0 0 1-.533.548.54.54 0 0 1-.533-.548V2.28c0-.34.13-.665.364-.905S3.27 1 3.6 1h8.533a.52.52 0 0 1 .378.16l4.977 5.117q.03.03.053.064a.55.55 0 0 1 .103.324v3.655a.54.54 0 0 1-.533.548.54.54 0 0 1-.533-.548V7.213h-4.445a.54.54 0 0 1-.533-.548V2.096zm9.067.776v3.245h3.156zM9.11 15.07c0-.218.075-.358.18-.452.115-.1.315-.187.62-.188.365.002.721.124 1.015.349.236.18.57.13.746-.112a.56.56 0 0 0-.109-.767 2.72 2.72 0 0 0-1.65-.566H9.91c-.495 0-.962.142-1.314.452-.36.317-.552.771-.552 1.284 0 .276.073.525.215.738.137.205.32.35.499.454.32.187.723.296 1.046.384l.058.016c.374.102.649.184.837.302.15.094.189.17.189.299 0 .283-.095.4-.21.475-.153.1-.41.164-.767.165a1.68 1.68 0 0 1-1.015-.349.524.524 0 0 0-.747.112.56.56 0 0 0 .109.767 2.72 2.72 0 0 0 1.65.566h.002c.443 0 .94-.073 1.343-.338.441-.29.702-.767.702-1.398 0-.602-.317-.994-.7-1.235-.341-.213-.77-.33-1.107-.422l-.012-.004c-.38-.104-.658-.18-.851-.293a.4.4 0 0 1-.146-.121c-.014-.02-.029-.052-.029-.118m4.595-1.602a.53.53 0 0 1 .697.295l1.286 3.171 1.285-3.171a.53.53 0 0 1 .698-.295c.272.116.4.437.287.716L16.18 18.57a.53.53 0 0 1-.492.338.53.53 0 0 1-.492-.338l-1.778-4.386a.554.554 0 0 1 .287-.716m-9.22 1.054c-.745.001-1.42.687-1.42 1.645 0 .957.675 1.643 1.42 1.644.33-.003.645-.13.887-.359a.523.523 0 0 1 .754.035.56.56 0 0 1-.034.774 2.37 2.37 0 0 1-1.6.647H4.49C3.067 18.909 2 17.639 2 16.168c0-1.473 1.067-2.742 2.489-2.742h.004a2.36 2.36 0 0 1 1.6.646.56.56 0 0 1 .034.775.523.523 0 0 1-.754.035 1.31 1.31 0 0 0-.886-.36" clip-rule="evenodd"/>
  <path fill="currentColor" d="m2.72 1.375-.143-.14zM12.133 1V.8zm.326.114-.124.157zm.052.047.143-.14zm4.977 5.116.144-.14zm.053.064-.163.116zm.1.265-.199.021zm-1.063.607h.2a.2.2 0 0 0-.2-.2zM11.6 2.096h.2a.2.2 0 0 0-.2-.2zm1.067.776.143-.14a.2.2 0 0 0-.343.14zm0 3.245h-.2c0 .11.09.2.2.2zm3.156 0v.2a.2.2 0 0 0 .144-.34zm-6.531 8.502.132.15zm.618-.188.001-.2zm1.016.349.121-.16zm.746-.112-.162-.118zm-.109-.767-.121.158zm-1.65-.566v-.2zm-.002 0v-.2zm-1.314.452.133.15zm-.337 2.022-.166.11zm.499.454.1-.173zm1.046.384.052-.193zm.058.016.053-.193zm.837.302.107-.17zm-.02.774-.11-.167zm-.768.165v.2zm-1.015-.349.121-.158zm-.747.112.162.117zm.109.767.122-.158zm1.65.566v.2zm.002 0v.2zm1.343-.338.11.167zm.001-2.633-.106.17zm-1.106-.422-.052.193zm-.012-.004.053-.193zm-.851-.293-.101.172zm-.146-.121-.166.11zm5.263-1.425-.185.075zm-.697-.295.079.183zm1.983 3.466-.186.075a.2.2 0 0 0 .371 0zm1.285-3.171.186.075zm.698-.295-.08.183zm.287.716-.186-.075zm-1.778 4.386-.185-.075zm-.985 0 .186-.075zm-1.777-4.386-.186.076zm-8.932.338.002-.2h-.003zm0 3.29v.2h.002zm.886-.36-.137-.145zm.754.035.15-.133zm-.034.774-.137-.145zm-1.6.647.001.2zm-.004 0v.2zm0-5.483v-.2zm.004 0 .002-.2h-.001zm1.6.646-.137.146zm.034.775.15.133zm-.754.035-.137.146zM3.474 2.15l.144.14a.03.03 0 0 1-.018.006v-.4a.38.38 0 0 0-.269.115zm-.052.13h.2l-.004.01-.144-.14-.143-.14a.39.39 0 0 0-.109.27zm0 8.04h.2V2.28h-.4v8.04zm-.533.548v.2a.74.74 0 0 0 .733-.748h-.4a.34.34 0 0 1-.333.348zm-.533-.548h-.2a.74.74 0 0 0 .733.748v-.4a.34.34 0 0 1-.333-.348zm0-8.04h-.2v8.04h.4V2.28zm.364-.905-.143-.14a1.5 1.5 0 0 0-.421 1.044h.4c0-.288.111-.563.308-.765zM3.6 1V.8c-.385 0-.753.157-1.023.435l.143.14.144.14A1.02 1.02 0 0 1 3.6 1.2zm8.533 0V.8H3.6v.4h8.533zm0 0v.2zV.8zm0 0v.2c.076 0 .145.026.202.07l.124-.156.125-.156a.72.72 0 0 0-.45-.158zm.378.16.143-.139a1 1 0 0 0-.07-.063l-.125.156-.124.157.032.029zm4.977 5.117.144-.14-4.978-5.116-.143.14-.144.139 4.978 5.117zm.053.064.163-.117a1 1 0 0 0-.072-.086l-.144.14-.143.139.033.04zm0 0-.163.116a.35.35 0 0 1 .064.17l.2-.02.198-.021a.75.75 0 0 0-.136-.362zm.103.324h.2a1 1 0 0 0-.004-.08l-.199.021-.198.021.001.038zm0 3.655h.2V6.665h-.4v3.655zm-.533.548v.2a.74.74 0 0 0 .733-.748h-.4a.34.34 0 0 1-.333.348zm-.533-.548h-.2a.74.74 0 0 0 .733.748v-.4a.34.34 0 0 1-.333-.348zm0-3.107h-.2v3.107h.4V7.213zm0 0v-.2h-4.445v.4h4.445zm-4.445 0v-.2a.34.34 0 0 1-.333-.348h-.4a.74.74 0 0 0 .733.748zm-.533-.548h.2V2.096h-.4v4.569zm-8-4.569v.2h8v-.4h-8zm9.067.776h-.2v3.245h.4V2.872zm0 3.245v.2h3.156v-.4h-3.156zm0-3.245-.144.14 3.157 3.244.143-.14.144-.139-3.157-3.245zM9.292 14.619l-.133-.15c-.153.135-.248.332-.248.602h.4c0-.166.054-.25.113-.302zm.618-.188v-.2c-.341 0-.592.098-.75.238l.132.15.132.15c.07-.062.22-.137.487-.138zm1.016.349.121-.16a1.88 1.88 0 0 0-1.136-.389v.2l-.001.2c.322.001.635.109.894.307zm.746-.112-.162-.118a.324.324 0 0 1-.463.07l-.121.16-.122.158c.327.25.789.18 1.03-.153zm-.109-.767-.121.158a.36.36 0 0 1 .068.491l.162.118.162.117a.76.76 0 0 0-.149-1.043zm-1.65-.566v.2a2.53 2.53 0 0 1 1.529.524l.121-.158.122-.16a2.92 2.92 0 0 0-1.772-.606zm-.002 0v.2h.001v-.4zm-1.314.452.133.15c.307-.271.723-.402 1.181-.402v-.4c-.532 0-1.05.152-1.446.502zm-.552 1.284h.2c0-.461.171-.858.485-1.134l-.133-.15-.132-.15c-.408.359-.62.87-.62 1.434zm.215.738.167-.111a1.1 1.1 0 0 1-.182-.627h-.4c0 .313.084.601.249.849zm.499.454.1-.173a1.3 1.3 0 0 1-.432-.392l-.167.11-.166.112c.159.238.367.401.564.516zm1.046.384.052-.193c-.328-.089-.704-.192-.997-.364l-.101.173-.1.173c.346.202.776.318 1.093.404zm.058.016.053-.193-.059-.016-.052.193-.053.193.059.016zm.837.302.107-.17c-.219-.136-.525-.225-.891-.325l-.053.193-.053.193c.382.104.626.18.784.279zm.189.299h.2a.5.5 0 0 0-.068-.267.64.64 0 0 0-.215-.201l-.106.17-.106.169a.3.3 0 0 1 .086.07c.002.005.009.015.009.059zm-.21.475.11.167a.6.6 0 0 0 .216-.235.9.9 0 0 0 .084-.407h-.4c0 .12-.02.186-.04.223a.2.2 0 0 1-.08.085zm-.767.165v.2c.373 0 .677-.066.877-.198l-.11-.167-.11-.167c-.105.07-.317.131-.657.131zm-1.015-.349-.122.16c.328.25.726.387 1.136.389l.001-.2v-.2a1.48 1.48 0 0 1-.894-.307zm-.747.112.162.117a.324.324 0 0 1 .463-.07l.122-.159.121-.158a.724.724 0 0 0-1.03.153zm.109.767.122-.158a.36.36 0 0 1-.069-.491l-.162-.118-.162-.117a.76.76 0 0 0 .15 1.043zm1.65.566.001-.2a2.52 2.52 0 0 1-1.53-.524l-.121.158-.122.159a2.92 2.92 0 0 0 1.772.607zm.002 0v-.2H9.91v.4zm1.343-.338-.11-.167c-.355.234-.807.305-1.233.305v.4c.46 0 1.003-.075 1.453-.37zm.702-1.398h-.2c0 .57-.232.981-.612 1.231l.11.167.11.167c.503-.33.792-.873.792-1.565zm-.7-1.235-.107.17c.34.212.607.547.607 1.065h.4c0-.686-.367-1.136-.795-1.404zm-1.107-.422-.052.193c.341.093.74.203 1.052.399l.106-.17.106-.17c-.37-.231-.829-.355-1.159-.445zm-.012-.004-.053.193.013.004.053-.193.052-.193-.012-.004zm-.851-.293-.101.172c.221.13.53.213.9.314l.052-.193.053-.193c-.39-.106-.638-.177-.804-.273zm-.146-.121-.166.11c.04.06.106.122.21.183l.102-.172.1-.173c-.07-.041-.083-.064-.08-.06zm-.029-.118h-.2c0 .104.026.173.063.229l.166-.111.166-.111.001.001.005.012v-.02zm5.292-1.307.186-.075a.73.73 0 0 0-.962-.404l.079.184.079.183a.33.33 0 0 1 .433.187zm1.286 3.171.185-.075-1.285-3.171-.186.075-.185.075 1.285 3.171zm1.285-3.171-.185-.075-1.286 3.17.186.076.185.075 1.286-3.171zm.698-.295.078-.184a.73.73 0 0 0-.961.404l.185.075.186.075a.33.33 0 0 1 .433-.187zm.287.716.185.076a.754.754 0 0 0-.394-.976l-.078.184-.08.183a.354.354 0 0 1 .181.458zm-1.778 4.386.185.075 1.778-4.385-.185-.075-.186-.076-1.777 4.386zm-.492.338v.2c.3 0 .565-.185.677-.463l-.185-.075-.185-.075a.33.33 0 0 1-.307.213zm-.492-.338-.186.075a.73.73 0 0 0 .678.463v-.4a.33.33 0 0 1-.307-.213zm-1.778-4.386-.186.076 1.778 4.385.186-.075.185-.075-1.778-4.386zm.287-.716-.079-.184a.754.754 0 0 0-.394.976l.186-.075.185-.076a.354.354 0 0 1 .18-.458zm-10.64 2.699h.2c0-.868.604-1.444 1.221-1.445v-.4c-.876.001-1.62.797-1.62 1.845zm1.42 1.644.001-.2c-.617 0-1.22-.577-1.22-1.444h-.4c0 1.047.744 1.843 1.62 1.844zm.887-.359-.137-.145a1.11 1.11 0 0 1-.751.304l.002.2.002.2a1.51 1.51 0 0 0 1.021-.413zm.754.035.15-.133a.723.723 0 0 0-1.04-.047l.136.145.137.146a.323.323 0 0 1 .467.022zm-.034.774.137.146a.76.76 0 0 0 .046-1.053l-.15.133-.149.133a.36.36 0 0 1-.02.496zm-1.6.647.002.2a2.57 2.57 0 0 0 1.735-.7l-.137-.146-.137-.146a2.17 2.17 0 0 1-1.464.592zm-.004 0v.2h.005v-.2l-.002-.2h-.004zM2 16.168h-.2c0 1.559 1.135 2.94 2.689 2.94v-.4c-1.29 0-2.289-1.156-2.289-2.54zm2.489-2.742v-.2c-1.554 0-2.689 1.382-2.689 2.941h.4c0-1.384 1-2.54 2.289-2.54zm.004 0 .001-.2H4.49l-.001.2-.001.2h.004zm1.6.646.137-.145a2.56 2.56 0 0 0-1.735-.7l-.002.2-.001.2a2.17 2.17 0 0 1 1.464.591zm.034.775.15.133a.76.76 0 0 0-.047-1.053l-.137.146-.137.145a.36.36 0 0 1 .021.496zm-.754.035-.137.146c.3.281.767.26 1.04-.048l-.15-.133-.149-.133a.323.323 0 0 1-.467.022zm-.886-.36-.002.2c.277.004.545.112.751.306l.137-.146.137-.146a1.51 1.51 0 0 0-1.021-.413z"/>
</svg>
