<svg viewBox="0 0 20 21" fill="none" xmlns="http://www.w3.org/2000/svg">
  <path fill-rule="evenodd" clip-rule="evenodd" d="M3.6 2.487a.175.175 0 0 0-.126.053.185.185 0 0 0-.052.13v8.04a.541.541 0 0 1-.533.548.541.541 0 0 1-.533-.548V2.67c0-.34.13-.665.364-.905.234-.24.55-.375.88-.375h8.533a.522.522 0 0 1 .378.16l4.977 5.117a.539.539 0 0 1 .153.33.549.549 0 0 1 .003.058v3.655a.541.541 0 0 1-.533.548.54.54 0 0 1-.533-.548V7.603h-4.445a.54.54 0 0 1-.533-.548V2.487h-8Zm9.067.775v3.245h3.156l-3.156-3.245Zm-3.556 12.2c0-.22.075-.36.18-.453.115-.1.315-.187.62-.188.365.002.721.124 1.015.349.236.18.57.13.746-.112a.558.558 0 0 0-.109-.767 2.724 2.724 0 0 0-1.65-.566H9.91c-.495 0-.962.142-1.314.452-.36.318-.552.771-.552 1.284 0 .276.073.525.215.738.137.206.32.35.499.454.32.187.723.297 1.046.384l.058.016c.374.102.649.185.837.302.15.094.189.17.189.299 0 .283-.095.4-.21.475-.153.1-.41.165-.767.165a1.676 1.676 0 0 1-1.015-.348.524.524 0 0 0-.747.111.558.558 0 0 0 .109.767 2.723 2.723 0 0 0 1.65.566h.002c.443 0 .94-.073 1.343-.338.441-.29.702-.767.702-1.398 0-.602-.317-.994-.7-1.235-.341-.213-.77-.33-1.107-.422l-.012-.004c-.38-.103-.658-.18-.851-.293a.432.432 0 0 1-.146-.121c-.014-.02-.029-.051-.029-.118Zm4.595-1.603a.528.528 0 0 1 .697.295l1.286 3.171 1.285-3.171a.528.528 0 0 1 .698-.295c.272.116.4.437.287.717L16.18 18.96a.533.533 0 0 1-.492.338.533.533 0 0 1-.492-.338l-1.778-4.385a.554.554 0 0 1 .287-.717Zm-9.22 1.054c-.745.001-1.42.687-1.42 1.645 0 .957.675 1.643 1.42 1.644.33-.003.645-.13.887-.359a.523.523 0 0 1 .754.035.559.559 0 0 1-.034.775 2.364 2.364 0 0 1-1.6.646H4.49c-1.423 0-2.49-1.27-2.49-2.741 0-1.472 1.067-2.742 2.489-2.742h.004a2.365 2.365 0 0 1 1.6.647.56.56 0 0 1 .034.774.523.523 0 0 1-.754.035 1.314 1.314 0 0 0-.886-.36Z" fill="currentColor"/>
  <path d="m3.474 2.54-.143-.14.143.14Zm-.754-.775-.143-.14.143.14Zm9.413-.375v-.2.2Zm.324.112-.124.158.124-.158Zm.053.049-.143.14.143-.14Zm4.978 5.116.144-.139-.144.14Zm.053.064-.163.116.163-.116Zm.1.266-.199.02.2-.02Zm-1.063.606h.2a.2.2 0 0 0-.2-.2v.2ZM11.6 2.487h.2a.2.2 0 0 0-.2-.2v.2Zm1.067.775.143-.14a.2.2 0 0 0-.343.14h.2Zm0 3.245h-.2c0 .11.09.2.2.2v-.2Zm3.156 0v.2a.2.2 0 0 0 .144-.34l-.144.14Zm-6.531 8.502.132.15-.132-.15Zm.618-.188.001-.2v.2Zm1.016.349.121-.16-.121.16Zm.746-.112.162.117-.162-.117Zm-.109-.767-.121.158.121-.158Zm-1.65-.566v-.2.2Zm-.002 0v-.2.2Zm-1.314.452.133.15-.133-.15Zm-.337 2.022-.166.111.166-.111Zm.499.454-.1.173.1-.173Zm1.046.384.052-.193-.052.193Zm.058.016.053-.193-.053.193Zm.837.302-.106.17.106-.17Zm-.02.774-.11-.167.11.167Zm-.768.165v.2-.2Zm-1.015-.348.121-.16-.121.16Zm-.638.878.122-.158-.122.158Zm1.65.566v.2-.2Zm.002 0v.2-.2Zm1.343-.338.11.167-.11-.167Zm.001-2.633.106-.17-.106.17Zm-1.106-.422-.052.193.053-.193Zm-.012-.004-.053.193.053-.193Zm-.851-.293-.101.172.1-.172Zm-.146-.121.166-.111-.166.11Zm5.263-1.425-.185.075.185-.075Zm-.697-.295.079.184-.08-.184Zm1.983 3.466-.186.075a.2.2 0 0 0 .371 0l-.185-.075Zm1.285-3.171.186.075-.186-.075Zm.698-.295-.08.184.08-.184Zm.287.717-.186-.075.186.075ZM16.18 18.96l-.185-.075.185.075Zm-.985 0-.185.076.186-.076Zm-1.777-4.385-.186.075.186-.075Zm-8.932.337.002-.2h-.003v.2Zm0 3.29v.2h.002l-.002-.2Zm.886-.36-.137-.145.137.145Zm.754.035-.15.133.15-.133Zm-.034.775-.137-.146.137.146Zm-1.6.646.001.2v-.2Zm-.004 0v.2-.2Zm0-5.482v-.2.2Zm.004 0 .002-.2h-.001v.2Zm1.6.646-.137.145.137-.145Zm.034.774.15.133-.15-.133Zm-.754.035-.137.146.137-.146ZM3.618 2.68a.025.025 0 0 1-.018.007v-.4a.375.375 0 0 0-.269.114l.287.279Zm.004-.01a.015.015 0 0 1-.004.01L3.33 2.4a.385.385 0 0 0-.109.27h.4Zm0 8.04V2.67h-.4v8.04h.4Zm-.733.748a.74.74 0 0 0 .733-.748h-.4a.341.341 0 0 1-.333.348v.4Zm-.733-.748a.74.74 0 0 0 .733.748v-.4a.341.341 0 0 1-.333-.348h-.4Zm0-8.04v8.04h.4V2.67h-.4Zm.42-1.045c-.27.278-.42.654-.42 1.044h.4c0-.288.111-.563.308-.765l-.287-.279ZM3.6 1.19c-.385 0-.753.157-1.023.435l.287.28A1.02 1.02 0 0 1 3.6 1.59v-.4Zm8.533 0H3.6v.4h8.533v-.4Zm0 .4v-.4.4Zm0 0c.075 0 .144.026.2.07l.247-.315a.722.722 0 0 0-.447-.155v.4Zm.52-.179a.736.736 0 0 0-.073-.066l-.247.315.034.03.287-.279Zm4.979 5.117-4.978-5.117-.287.28 4.978 5.116.287-.279Zm.072.086a.758.758 0 0 0-.072-.086l-.287.279a.349.349 0 0 1 .033.04l.326-.233Zm-.326.233a.354.354 0 0 1 .064.17l.398-.04a.754.754 0 0 0-.136-.363l-.326.233Zm.466.208a.773.773 0 0 0-.004-.08l-.398.042a.364.364 0 0 1 .002.038h.4Zm0 3.655V7.055h-.4v3.655h.4Zm-.733.748a.74.74 0 0 0 .733-.748h-.4a.341.341 0 0 1-.333.348v.4Zm-.733-.748a.74.74 0 0 0 .733.748v-.4a.341.341 0 0 1-.333-.348h-.4Zm0-3.107v3.107h.4V7.603h-.4Zm.2-.2h-4.445v.4h4.445v-.4Zm-4.445 0a.341.341 0 0 1-.333-.348h-.4a.74.74 0 0 0 .733.748v-.4Zm-.333-.348V2.487h-.4v4.568h.4ZM3.6 2.687h8v-.4h-8v.4Zm8.867.575v3.245h.4V3.262h-.4Zm.2 3.445h3.156v-.4h-3.156v.4ZM12.523 3.4l3.157 3.245.287-.279-3.157-3.245-.287.28ZM9.16 14.86c-.153.135-.248.332-.248.602h.4c0-.166.054-.25.113-.302l-.265-.3Zm.751-.238c-.341 0-.592.098-.75.238l.264.3c.07-.062.22-.137.487-.138v-.4Zm1.137.39a1.876 1.876 0 0 0-1.136-.39l-.001.4c.322.002.635.109.894.307l.243-.317Zm.463-.07a.324.324 0 0 1-.463.07l-.243.317c.327.25.789.18 1.03-.153l-.324-.235Zm-.068-.492a.358.358 0 0 1 .068.492l.324.234a.758.758 0 0 0-.149-1.043l-.243.317Zm-1.53-.524c.55.002 1.087.185 1.53.524l.243-.317a2.924 2.924 0 0 0-1.772-.607v.4Zm-.001 0h.001v-.4l-.001.4Zm-1.181.402c.307-.27.723-.402 1.181-.402v-.4c-.532 0-1.05.152-1.446.502l.265.3Zm-.485 1.134c0-.46.171-.858.485-1.134l-.265-.3c-.408.36-.62.87-.62 1.434h.4Zm.182.627a1.108 1.108 0 0 1-.182-.627h-.4c0 .313.084.602.249.85l.333-.223Zm.433.392a1.29 1.29 0 0 1-.433-.392l-.333.222c.159.238.367.401.564.516l.202-.346Zm.997.364c-.328-.089-.704-.192-.997-.364l-.202.346c.347.203.777.318 1.094.404l.105-.386Zm.059.016-.059-.016-.105.386.059.016.105-.386Zm.89.326c-.218-.137-.524-.226-.89-.326l-.106.386c.382.104.626.18.784.279l.213-.339Zm.283.468a.495.495 0 0 0-.068-.267.636.636 0 0 0-.215-.201l-.212.339a.3.3 0 0 1 .086.07c.002.005.009.015.009.059h.4Zm-.3.642a.614.614 0 0 0 .216-.235.876.876 0 0 0 .084-.407h-.4a.48.48 0 0 1-.04.224.215.215 0 0 1-.08.084l.22.334Zm-.877.198c.373 0 .677-.066.877-.198l-.22-.334c-.105.07-.317.131-.657.132v.4Zm-1.137-.39c.328.252.726.388 1.136.39l.002-.4a1.476 1.476 0 0 1-.895-.307l-.243.317Zm-.463.07a.324.324 0 0 1 .463-.07l.243-.317a.724.724 0 0 0-1.03.153l.324.235Zm.069.492a.358.358 0 0 1-.069-.491l-.324-.235a.758.758 0 0 0 .15 1.043l.243-.317Zm1.53.524a2.524 2.524 0 0 1-1.53-.524l-.244.317a2.925 2.925 0 0 0 1.772.607l.001-.4Zm0 0H9.91v.4l.001-.4Zm1.233-.305c-.355.234-.807.305-1.233.305v.4c.46 0 1.003-.075 1.453-.37l-.22-.335Zm.612-1.231c0 .57-.232.981-.612 1.231l.22.334c.503-.33.792-.873.792-1.565h-.4Zm-.607-1.065c.34.213.607.547.607 1.065h.4c0-.686-.367-1.136-.795-1.404l-.212.339Zm-1.052-.4c.341.094.74.205 1.052.4l.213-.34c-.37-.231-.83-.355-1.16-.445l-.105.386Zm-.013-.003.013.004.105-.386-.012-.004-.106.386Zm-.9-.314c.222.13.53.213.9.314l.106-.386c-.39-.106-.638-.177-.804-.273l-.201.345Zm-.21-.182c.04.06.106.121.21.182l.202-.345c-.07-.04-.083-.064-.08-.06l-.332.223Zm-.063-.229a.39.39 0 0 0 .063.229l.332-.222.001.001a.048.048 0 0 1 .005.012v-.02h-.4Zm5.678-1.382a.728.728 0 0 0-.962-.404l.158.368a.328.328 0 0 1 .433.186l.37-.15Zm1.285 3.171L14.59 14.08l-.371.15 1.285 3.171.371-.15Zm.915-3.171-1.286 3.171.371.15 1.286-3.171-.371-.15Zm.961-.404a.728.728 0 0 0-.961.404l.37.15a.328.328 0 0 1 .434-.186l.157-.368Zm.394.976a.754.754 0 0 0-.394-.976l-.157.368a.354.354 0 0 1 .18.458l.371.15Zm-1.778 4.386 1.778-4.386-.37-.15-1.778 4.385.37.15Zm-.677.462c.3 0 .565-.185.677-.462l-.37-.15a.333.333 0 0 1-.307.212v.4Zm-.678-.462a.734.734 0 0 0 .678.462v-.4a.334.334 0 0 1-.307-.213l-.37.15Zm-1.778-4.386 1.778 4.386.37-.15-1.777-4.386-.37.15Zm.394-.976a.754.754 0 0 0-.394.976l.371-.15a.354.354 0 0 1 .18-.458l-.157-.368Zm-10.36 2.883c0-.868.603-1.444 1.22-1.445v-.4c-.876.002-1.62.797-1.62 1.845h.4Zm1.22 1.444c-.617 0-1.22-.577-1.22-1.444h-.4c0 1.047.744 1.843 1.62 1.844v-.4Zm.75-.304a1.114 1.114 0 0 1-.752.304l.004.4a1.51 1.51 0 0 0 1.021-.413l-.274-.291Zm1.04.047a.723.723 0 0 0-1.04-.047l.273.291a.323.323 0 0 1 .467.022l.3-.266Zm-.047 1.053a.759.759 0 0 0 .046-1.053l-.299.266a.359.359 0 0 1-.02.496l.273.291Zm-1.735.7a2.564 2.564 0 0 0 1.735-.7l-.274-.291a2.165 2.165 0 0 1-1.464.592l.003.4Zm-.005 0h.004l-.002-.4h-.004l.002.4Zm-2.69-2.94c0 1.559 1.135 2.94 2.689 2.94v-.4c-1.29 0-2.289-1.156-2.289-2.54h-.4Zm2.689-2.941c-1.554 0-2.689 1.381-2.689 2.94h.4c0-1.384 1-2.54 2.289-2.54v-.4Zm.005 0H4.49l-.002.4h.004l.002-.4Zm1.736.7a2.565 2.565 0 0 0-1.735-.7l-.003.4a2.165 2.165 0 0 1 1.464.591l.274-.291Zm.046 1.053a.759.759 0 0 0-.046-1.053l-.274.291c.138.13.149.353.021.496l.3.266Zm-1.04.048c.3.281.767.26 1.04-.048l-.299-.266a.323.323 0 0 1-.467.022l-.274.292Zm-.751-.305c.277.003.545.11.751.305l.274-.292a1.514 1.514 0 0 0-1.021-.413l-.004.4Z" fill="currentColor"/>
</svg>
