<svg viewBox="0 0 24 24" fill="none" xmlns="http://www.w3.org/2000/svg">
  <path d="m18.27 5.648-2.916-2.916A2.512 2.512 0 0 0 13.586 2H6.5A2.5 2.5 0 0 0 4 4.5v15A2.5 2.5 0 0 0 6.5 22h10c1.375 0 2.5-1.125 2.5-2.5V7.414c0-.66-.262-1.297-.73-1.766ZM17.125 19.5c0 .345-.28.625-.625.625h-10a.625.625 0 0 1-.624-.625L5.875 4.505c0-.345.28-.625.625-.625h6.25V7c0 .69.56 1.25 1.25 1.25h3.09V19.5h.035Zm-4.715-6.094a.547.547 0 0 0-.455.244l-1.549 2.327-.456-.685a.544.544 0 0 0-.909-.002l-1.823 2.735a.547.547 0 0 0-.027.561.53.53 0 0 0 .446.289h7.656a.547.547 0 0 0 .455-.85L12.83 13.65c-.065-.154-.237-.244-.42-.244ZM9 13.25a1.25 1.25 0 1 0 0-2.5 1.25 1.25 0 0 0 0 2.5Z" fill="currentColor"/>
</svg>
