<svg viewBox="0 0 24 24" fill="none" xmlns="http://www.w3.org/2000/svg">
  <path fill-rule="evenodd" clip-rule="evenodd" d="M6.4 2.933a.156.156 0 0 0-.156.156v10.844a.467.467 0 0 1-.933 0V3.09A1.089 1.089 0 0 1 6.4 2h7.476a.467.467 0 0 1 .32.137l4.356 4.355a.467.467 0 0 1 .137.33v7.111a.467.467 0 0 1-.934 0V7.29h-3.889a.467.467 0 0 1-.466-.467v-3.89h-7Zm7.933.66v2.763h2.762l-2.762-2.763Z" fill="currentColor" stroke="currentColor" stroke-width=".4" stroke-linecap="round" stroke-linejoin="round"/>
  <path fill-rule="evenodd" clip-rule="evenodd" d="M7.752 20.137c-.016-.04-.03-.08-.043-.12-.068-.223.123-.42.356-.42h.074c.16 0 .29.123.369.263.045.08.103.147.17.2a.787.787 0 0 0 .256.136.99.99 0 0 0 .326.05.944.944 0 0 0 .421-.085.591.591 0 0 0 .26-.232.69.69 0 0 0 .086-.348.538.538 0 0 0-.036-.22.46.46 0 0 0-.119-.173c-.103-.096-.261-.173-.473-.232l-.63-.172a1.612 1.612 0 0 1-.55-.257 1.142 1.142 0 0 1-.36-.442 1.475 1.475 0 0 1-.125-.63c0-.293.065-.55.194-.768.13-.218.31-.388.538-.508.23-.12.495-.179.794-.179.31 0 .575.06.795.183.221.122.392.287.51.493.051.085.092.174.124.267.075.217-.117.414-.346.414-.194 0-.35-.152-.462-.31a.655.655 0 0 0-.25-.218.817.817 0 0 0-.379-.082c-.22 0-.395.06-.522.183a.559.559 0 0 0-.141.204.654.654 0 0 0-.048.258c0 .145.049.264.147.36a.922.922 0 0 0 .412.21l.634.173c.222.06.415.144.578.254.157.101.29.25.383.43.091.178.137.403.137.674a1.6 1.6 0 0 1-.191.789 1.308 1.308 0 0 1-.55.528c-.24.126-.531.19-.876.19-.26 0-.486-.036-.68-.109a1.375 1.375 0 0 1-.487-.303 1.355 1.355 0 0 1-.296-.45Zm-3.168-.04a1.803 1.803 0 0 1-.045-.17c-.044-.212.136-.39.354-.39h.05c.187 0 .332.157.412.325a.56.56 0 0 0 .197.224.448.448 0 0 0 .267.072c.194 0 .337-.066.43-.198.093-.132.14-.318.14-.56v-2.898a.404.404 0 0 1 .808 0v2.874c0 .53-.122.93-.365 1.209-.242.276-.576.415-1.005.415a1.402 1.402 0 0 1-.58-.113 1.17 1.17 0 0 1-.415-.32 1.428 1.428 0 0 1-.248-.47Zm9.279-1.906v.628c0 .308-.04.565-.12.771-.067.19-.182.352-.328.466a.795.795 0 0 1-.48.151.8.8 0 0 1-.48-.151 1.027 1.027 0 0 1-.326-.466 2.159 2.159 0 0 1-.12-.77v-.629c0-.31.04-.566.12-.77.067-.19.181-.352.326-.466a.787.787 0 0 1 .48-.155c.18 0 .34.052.48.155.146.113.26.275.329.465.08.205.119.461.119.771Zm.82.625v-.617c0-.454-.07-.844-.21-1.17a1.674 1.674 0 0 0-.602-.758c-.258-.176-.57-.265-.935-.265a1.65 1.65 0 0 0-.939.265c-.26.173-.47.437-.601.755-.14.326-.21.717-.21 1.173v.617c0 .45.07.84.21 1.17.14.326.34.577.601.753.263.174.576.26.94.26s.676-.086.935-.26c.261-.176.462-.427.601-.753.14-.33.21-.72.21-1.17ZM16 17.69v2.838a.38.38 0 0 1-.762 0v-4.003a.426.426 0 0 1 .797-.208l1.66 2.97a.02.02 0 0 0 .04-.01v-2.796a.383.383 0 1 1 .765 0v4.006a.422.422 0 0 1-.79.206l-1.661-2.974a.056.056 0 0 0-.049-.028Z" fill="currentColor" stroke="currentColor" stroke-width=".3"/>
</svg>
