<svg xmlns="http://www.w3.org/2000/svg" viewBox="0 0 50 50" fill="none">
  <path d="M29.167 5.228v8.605c0 1.167 0 1.75.227 2.196.2.392.518.71.91.91.446.227 1.03.227 2.196.227h8.605M19.792 25.5l10.416 10.417m0-10.417L19.792 35.916m9.375-31.25H18.333c-3.5 0-5.25 0-6.587.681A6.25 6.25 0 0 0 9.015 8.08c-.682 1.337-.682 3.087-.682 6.587v21.667c0 3.5 0 5.25.682 6.587a6.25 6.25 0 0 0 2.73 2.731c1.338.682 3.088.682 6.588.682h13.334c3.5 0 5.25 0 6.587-.681a6.25 6.25 0 0 0 2.732-2.732c.68-1.337.68-3.087.68-6.587V17.166l-12.5-12.5Z" stroke="currentColor" stroke-width="4" stroke-linecap="round" stroke-linejoin="round"/>
</svg>
