<svg viewBox="0 0 51 50" fill="none" xmlns="http://www.w3.org/2000/svg">
  <path fill-rule="evenodd" clip-rule="evenodd" d="M11.693 5.058c.498-.57 1.172-.891 1.875-.891h15.91c.351 0 .688.16.937.446l9.28 10.657c.249.285.388.672.388 1.076v24.36c0 .807-.279 1.581-.776 2.152-.498.571-1.172.892-1.875.892H13.568c-.703 0-1.377-.32-1.875-.892-.497-.57-.776-1.345-.776-2.153V7.212c0-.808.28-1.582.776-2.154Zm17.235 2.154h-15.36v33.493h23.864V16.977l-8.504-9.765Z" fill="currentColor"/>
  <path fill-rule="evenodd" clip-rule="evenodd" d="M28.556 5a1.39 1.39 0 0 1 1.389 1.389v8.333h8.333a1.389 1.389 0 0 1 0 2.778h-9.722a1.389 1.389 0 0 1-1.39-1.389V6.39a1.39 1.39 0 0 1 1.39-1.389ZM22.46 25.151a1.326 1.326 0 0 0-1.875 1.875l3.04 3.04-3.04 3.04a1.326 1.326 0 0 0 1.875 1.875l3.04-3.04 3.04 3.04a1.326 1.326 0 0 0 1.875-1.875l-3.04-3.04 3.04-3.04a1.326 1.326 0 0 0-1.875-1.875l-3.04 3.04-3.04-3.04Z" fill="currentColor"/>
</svg>
