<svg xmlns="http://www.w3.org/2000/svg" viewBox="0 0 24 24" fill="none">
  <path d="M4 14.2V6.8c0-1.68 0-2.52.327-3.162a3 3 0 0 1 1.311-1.311C6.28 2 7.12 2 8.8 2h3.212c.733 0 1.1 0 1.446.083.306.073.598.195.867.36.303.185.562.444 1.08.963l3.19 3.188c.518.519.777.778.963 1.081a3 3 0 0 1 .36.867c.082.346.082.712.082 1.446V14.2M14 2.27V6.4c0 .56 0 .84.109 1.054a1 1 0 0 0 .437.437C14.76 8 15.04 8 15.6 8h4.13" stroke="currentColor" stroke-width="2" stroke-linecap="round" stroke-linejoin="round"/>
  <path d="M17.455 22c-.206 0-.367-.055-.483-.167-.112-.117-.168-.278-.168-.483v-3.64c0-.21.056-.371.168-.483.112-.112.27-.168.476-.168.21 0 .368.056.476.168.112.112.168.273.168.483v3.22H19.8c.177 0 .312.046.406.14.098.088.147.219.147.392 0 .172-.05.305-.147.399-.094.093-.229.14-.406.14h-2.345ZM12.487 22.077c-.5 0-.938-.105-1.316-.315a2.263 2.263 0 0 1-.882-.896c-.205-.382-.308-.828-.308-1.337 0-.382.059-.73.175-1.043.121-.312.292-.58.511-.805a2.23 2.23 0 0 1 .798-.51 2.765 2.765 0 0 1 1.022-.183c.5 0 .936.105 1.31.315.377.21.671.507.881.89.21.377.315.823.315 1.336 0 .383-.06.73-.182 1.043a2.242 2.242 0 0 1-1.302 1.33 2.866 2.866 0 0 1-1.022.175Zm0-1.078a1.1 1.1 0 0 0 .63-.175c.173-.116.306-.284.4-.504.093-.22.14-.483.14-.79 0-.463-.104-.822-.309-1.079-.205-.256-.492-.385-.86-.385a1.12 1.12 0 0 0-.63.175 1.072 1.072 0 0 0-.4.497c-.093.215-.14.479-.14.791 0 .462.103.824.308 1.085.206.257.492.385.861.385ZM6.332 22.077c-.187 0-.383-.014-.588-.042-.201-.023-.392-.06-.574-.112a2.993 2.993 0 0 1-.49-.182.56.56 0 0 1-.266-.238.588.588 0 0 1 .063-.616.455.455 0 0 1 .259-.175.514.514 0 0 1 .364.042c.177.084.378.15.602.196.224.047.434.07.63.07.308 0 .522-.04.644-.119.126-.084.189-.186.189-.308a.306.306 0 0 0-.133-.259c-.084-.065-.236-.121-.455-.168l-.82-.175c-.447-.093-.781-.256-1-.49-.22-.233-.33-.534-.33-.903 0-.242.05-.462.148-.658a1.5 1.5 0 0 1 .427-.51 2.06 2.06 0 0 1 .658-.323c.256-.08.54-.119.854-.119.242 0 .487.028.735.084.252.052.469.13.65.238a.503.503 0 0 1 .232.231c.046.098.065.2.056.308a.49.49 0 0 1-.112.273.449.449 0 0 1-.252.161.62.62 0 0 1-.371-.056 1.85 1.85 0 0 0-.462-.133 2.562 2.562 0 0 0-.49-.049c-.173 0-.32.021-.441.063a.593.593 0 0 0-.28.168.399.399 0 0 0-.091.26c0 .097.04.181.119.251.084.066.235.122.455.168l.812.175c.452.098.79.26 1.015.483.224.224.336.516.336.875 0 .243-.05.462-.147.658a1.448 1.448 0 0 1-.42.504c-.182.136-.402.24-.658.315a3.11 3.11 0 0 1-.868.112Z" fill="currentColor"/>
</svg>
