<svg viewBox="0 0 24 24" fill="none" xmlns="http://www.w3.org/2000/svg">
  <path fill-rule="evenodd" clip-rule="evenodd" d="M6.4 2.933a.156.156 0 0 0-.155.156v10.844a.467.467 0 0 1-.934 0V3.09A1.089 1.089 0 0 1 6.401 2h7.474a.467.467 0 0 1 .322.137l4.355 4.355a.467.467 0 0 1 .137.33v7.111a.467.467 0 0 1-.933 0V7.29h-3.89a.467.467 0 0 1-.466-.467v-3.89h-7Zm7.933.66v2.763h2.763l-2.763-2.763Z" fill="currentColor" stroke="currentColor" stroke-width=".4" stroke-linecap="round" stroke-linejoin="round"/>
  <path d="M17.06 20h1.301a.5.5 0 0 1 .5.5v.5h-2.5a.5.5 0 0 1-.5-.5v-3.9a.6.6 0 0 1 1.199 0V20Z" fill="currentColor"/>
  <path fill-rule="evenodd" clip-rule="evenodd" d="M18.861 21v-.5a.5.5 0 0 0-.5-.5H17.06v-3.4a.6.6 0 0 0-1.199 0v3.9a.5.5 0 0 0 .5.5h2.5Zm-1.701-1.1v-3.3a.7.7 0 0 0-1.399 0v3.9a.6.6 0 0 0 .6.6h2.6v-.6a.6.6 0 0 0-.6-.6H17.16Z" fill="currentColor"/>
  <path d="M11.18 15.85a.63.63 0 0 1 .63.63v3.131c0 .177.043.291.11.365a.378.378 0 0 0 .29.115c.135-.002.222-.044.282-.113l.002-.002c.067-.074.11-.188.11-.364V16.48a.63.63 0 0 1 1.26 0v3.288h-.007a1.44 1.44 0 0 1-.213.641l-.001.002a1.592 1.592 0 0 1-.592.543l-.002.001a1.74 1.74 0 0 1-.682.189v.006h-.313v-.006a1.788 1.788 0 0 1-.688-.188l-.003-.002a1.592 1.592 0 0 1-.592-.543v-.002a1.44 1.44 0 0 1-.214-.64h-.007v-3.29a.63.63 0 0 1 .63-.629Zm-3.894.435.397 1.229.484-1.3a.558.558 0 0 1 1.046.388l-.983 2.656v1.304a.588.588 0 1 1-1.177 0v-1.304l-.953-2.56a.628.628 0 1 1 1.186-.413Z" fill="currentColor"/>
</svg>
