<svg xmlns="http://www.w3.org/2000/svg" viewBox="0 0 24 24" fill="none">
  <path d="M4 14.2V6.8c0-1.68 0-2.52.327-3.162a3 3 0 0 1 1.311-1.311C6.28 2 7.12 2 8.8 2h3.212c.733 0 1.1 0 1.446.083.306.073.598.195.867.36.303.185.562.444 1.08.963l3.19 3.188c.518.519.777.778.963 1.081a3 3 0 0 1 .36.867c.082.346.082.712.082 1.446V14.2M14 2.27V6.4c0 .56 0 .84.109 1.054a1 1 0 0 0 .437.437C14.76 8 15.04 8 15.6 8h4.13" stroke="currentColor" stroke-width="2" stroke-linecap="round" stroke-linejoin="round"/>
  <path d="M17.476 22c-.206 0-.367-.055-.483-.167-.112-.117-.168-.278-.168-.483v-3.64c0-.21.056-.371.168-.483.112-.112.27-.168.476-.168.21 0 .368.056.476.168.112.112.168.273.168.483v3.22h1.708c.177 0 .312.046.406.14.098.088.147.219.147.392 0 .172-.05.305-.147.399-.094.093-.229.14-.406.14h-2.345ZM12.722 22.077c-.359 0-.676-.044-.952-.133a1.872 1.872 0 0 1-.7-.413 1.776 1.776 0 0 1-.427-.679 2.964 2.964 0 0 1-.14-.952v-2.247c0-.215.056-.376.168-.483.112-.112.271-.168.476-.168.21 0 .369.056.476.168.112.107.168.268.168.483v2.261c0 .36.08.63.238.812.159.182.39.273.693.273.299 0 .528-.091.686-.273.159-.182.238-.453.238-.812v-2.261c0-.215.054-.376.161-.483.112-.112.271-.168.476-.168.206 0 .362.056.47.168.107.107.16.268.16.483V19.9c0 .48-.084.884-.252 1.211a1.61 1.61 0 0 1-.735.728c-.326.159-.728.238-1.204.238ZM6.783 22.063c-.206 0-.364-.056-.476-.168-.112-.117-.168-.282-.168-.497V19.48l.266.707-1.61-2.317a.558.558 0 0 1-.105-.371.542.542 0 0 1 .168-.35c.102-.098.247-.147.434-.147.13 0 .25.033.357.098.107.06.207.166.3.315l.98 1.442h-.251l.98-1.449a.98.98 0 0 1 .3-.315.702.702 0 0 1 .365-.091c.177 0 .315.044.413.133.098.089.149.2.154.336a.658.658 0 0 1-.126.413l-1.596 2.303.259-.707v1.918c0 .443-.215.665-.644.665Z" fill="currentColor"/>
</svg>
