<svg xmlns="http://www.w3.org/2000/svg" viewBox="0 0 20 20" fill="none">
  <path d="m3.56 17.273 5.497-5.497c.33-.33.495-.495.685-.557a.833.833 0 0 1 .515 0c.19.062.356.227.686.557l5.46 5.46M11.667 12.5l2.39-2.39c.33-.33.495-.496.685-.557a.834.834 0 0 1 .515 0c.19.061.356.226.686.556l2.39 2.391m-10-5A1.667 1.667 0 1 1 5 7.5a1.667 1.667 0 0 1 3.333 0Zm-2.666 10h8.666c1.4 0 2.1 0 2.635-.273a2.5 2.5 0 0 0 1.093-1.092c.272-.535.272-1.235.272-2.635v-7c0-1.4 0-2.1-.272-2.635a2.5 2.5 0 0 0-1.093-1.093c-.535-.272-1.235-.272-2.635-.272H5.667c-1.4 0-2.1 0-2.635.272a2.5 2.5 0 0 0-1.093 1.093C1.667 4.4 1.667 5.1 1.667 6.5v7c0 1.4 0 2.1.272 2.635a2.5 2.5 0 0 0 1.093 1.092c.534.273 1.234.273 2.635.273Z" stroke="currentColor" stroke-width="2" stroke-linecap="round" stroke-linejoin="round"/>
</svg>
