<svg viewBox="0 0 20 20" fill="none" xmlns="http://www.w3.org/2000/svg">
  <g clip-path="url(#a)" fill="currentColor">
    <path fill-rule="evenodd" clip-rule="evenodd" d="M3.647 1h12.705A2.65 2.65 0 0 1 19 3.647v12.706A2.65 2.65 0 0 1 16.353 19H3.647A2.65 2.65 0 0 1 1 16.353V3.647A2.65 2.65 0 0 1 3.647 1Zm12.705 16.94a1.59 1.59 0 0 0 1.588-1.588l.001-1.87-2.647-2.206-3.192 2.66-5.77-5.246-4.273 4.747v1.915a1.59 1.59 0 0 0 1.588 1.588h12.705Zm-1.059-7.04 2.647 2.205.001-9.457a1.59 1.59 0 0 0-1.588-1.588H3.647A1.59 1.59 0 0 0 2.06 3.647v9.208L6.257 8.19l5.874 5.342 3.162-2.634Zm1.06-4.605a2.65 2.65 0 0 1-2.647 2.647 2.65 2.65 0 0 1-2.647-2.648 2.65 2.65 0 0 1 2.647-2.647 2.65 2.65 0 0 1 2.647 2.647Zm-1.059 0a1.59 1.59 0 1 0-1.588 1.588 1.59 1.59 0 0 0 1.588-1.588Z"/>
    <path d="M19 3.647h.2-.2Zm-1.06 12.705h-.2.2Zm.001-1.87h.2v-.094l-.072-.06-.128.154Zm-2.647-2.206.128-.153-.128-.107-.128.107.128.153Zm-3.192 2.66-.134.148.129.117.133-.112-.128-.153ZM6.332 9.69l.134-.148-.149-.136-.134.15.148.134Zm-4.273 4.747-.149-.134-.051.057v.077h.2Zm15.881-1.333-.128.154.328.273v-.427h-.2ZM15.293 10.9l.128-.154-.128-.107-.128.107.128.154Zm2.648-7.252h.2-.2ZM2.06 12.855h-.2v.521l.349-.387-.15-.134ZM6.257 8.19l.134-.148-.149-.135-.134.15.149.133Zm5.874 5.342-.134.148.129.117.133-.112-.128-.153ZM16.351.8H3.648v.4h12.705V.8ZM19.2 3.647A2.85 2.85 0 0 0 16.352.8v.4A2.45 2.45 0 0 1 18.8 3.647h.4Zm0 12.706V3.647h-.4v12.706h.4ZM16.353 19.2a2.85 2.85 0 0 0 2.847-2.847h-.4a2.45 2.45 0 0 1-2.447 2.447v.4Zm-12.706 0h12.706v-.4H3.647v.4ZM.8 16.353A2.85 2.85 0 0 0 3.647 19.2v-.4A2.45 2.45 0 0 1 1.2 16.353H.8Zm0-12.706v12.706h.4V3.647H.8ZM3.647.8A2.85 2.85 0 0 0 .8 3.647h.4A2.45 2.45 0 0 1 3.647 1.2V.8ZM17.74 16.352a1.39 1.39 0 0 1-1.388 1.388v.4a1.79 1.79 0 0 0 1.788-1.788h-.4Zm.001-1.87v1.87h.4v-1.87h-.4Zm-2.575-2.052 2.647 2.205.256-.307-2.647-2.205-.256.307Zm-2.936 2.66 3.192-2.66-.256-.307-3.192 2.66.256.306ZM6.197 9.837l5.77 5.246.27-.296-5.771-5.246-.27.296Zm-3.99 4.733L6.48 9.823l-.297-.267-4.273 4.747.298.268Zm.052 1.78v-1.914h-.4v1.915h.4Zm1.388 1.39a1.39 1.39 0 0 1-1.388-1.39h-.4a1.79 1.79 0 0 0 1.788 1.79v-.4Zm12.705 0H3.647v.4h12.705v-.4Zm1.716-4.79-2.647-2.206-.256.307 2.647 2.206.256-.307Zm-.327-9.304v9.457h.4V3.647h-.4ZM16.353 2.26a1.39 1.39 0 0 1 1.388 1.388h.4a1.79 1.79 0 0 0-1.788-1.788v.4Zm-12.706 0h12.706v-.4H3.647v.4ZM2.26 3.647A1.39 1.39 0 0 1 3.647 2.26v-.4A1.79 1.79 0 0 0 1.86 3.647h.4Zm0 9.208V3.647h-.4v9.208h.4Zm3.849-4.798L1.91 12.721l.298.268 4.197-4.664-.297-.268Zm6.158 5.328L6.39 8.043l-.269.296 5.875 5.342.269-.296Zm2.899-2.64-3.162 2.634.256.307 3.162-2.634-.256-.307Zm-1.46-1.604a2.85 2.85 0 0 0 2.848-2.848h-.4a2.45 2.45 0 0 1-2.447 2.448v.4Zm-2.847-2.848a2.85 2.85 0 0 0 2.848 2.848v-.4a2.45 2.45 0 0 1-2.447-2.447h-.4Zm2.848-2.847a2.85 2.85 0 0 0-2.848 2.847h.4a2.45 2.45 0 0 1 2.448-2.447v-.4Zm2.847 2.847a2.85 2.85 0 0 0-2.847-2.847v.4a2.45 2.45 0 0 1 2.447 2.447h.4Zm-2.847-1.387a1.39 1.39 0 0 1 1.388 1.388h.4a1.79 1.79 0 0 0-1.788-1.788v.4Zm-1.389 1.388a1.39 1.39 0 0 1 1.389-1.388v-.4a1.79 1.79 0 0 0-1.789 1.788h.4Zm1.389 1.389a1.39 1.39 0 0 1-1.389-1.389h-.4a1.79 1.79 0 0 0 1.789 1.789v-.4Zm1.388-1.389a1.39 1.39 0 0 1-1.388 1.389v.4a1.79 1.79 0 0 0 1.788-1.789h-.4Z"/>
  </g>
  <defs>
    <clipPath id="a">
      <path fill="#fff" d="M0 0h20v20H0z"/>
    </clipPath>
  </defs>
</svg>
