<svg xmlns="http://www.w3.org/2000/svg" viewBox="0 0 20 21" fill="none">
  <path d="M9.167 3.833H6.5c-1.4 0-2.1 0-2.635.273a2.5 2.5 0 0 0-1.093 1.092C2.5 5.733 2.5 6.433 2.5 7.833V14c0 1.4 0 2.1.272 2.635a2.5 2.5 0 0 0 1.093 1.092C4.4 18 5.1 18 6.5 18h6.167c1.4 0 2.1 0 2.635-.273a2.5 2.5 0 0 0 1.092-1.092c.273-.535.273-1.235.273-2.635v-2.667m.1-7.6a2.5 2.5 0 1 1-3.535 3.535 2.5 2.5 0 0 1 3.536-3.536Z" stroke="currentColor" stroke-width="2" stroke-linecap="round" stroke-linejoin="round"/>
</svg>
