<svg xmlns="http://www.w3.org/2000/svg" fill="none" viewBox="0 0 20 20"><path fill="currentColor" fill-rule="evenodd" d="M4 1a3 3 0 0 0-3 3v12a3 3 0 0 0 3 3h12a3 3 0 0 0 3-3V4a3 3 0 0 0-3-3H4Zm.2 1.2a2 2 0 0 0-2 2v11.6a2 2 0 0 0 2 2h11.6a2 2 0 0 0 2-2V4.2a2 2 0 0 0-2-2H4.2Z" clip-rule="evenodd"/><rect width="12" height="1.4" x="4" y="5" fill="currentColor" rx=".7"/><rect width="8" height="1.4" x="4" y="8" fill="currentColor" rx=".7"/><rect width="12" height="1.4" x="4" y="10.8" fill="currentColor" rx=".7"/><rect width="9" height="1.4" x="4" y="13.6" fill="currentColor" rx=".7"/></svg>