<svg xmlns="http://www.w3.org/2000/svg" viewBox="0 0 20 21" fill="none">
  <path d="M11.333 13.885h-5m6.667-3.3H6.333M13 7.285H6.333m6.834 10.382H7c-1.4 0-2.1 0-2.635-.273a2.5 2.5 0 0 1-1.093-1.092C3 15.767 3 15.067 3 13.667V7.5c0-1.4 0-2.1.272-2.635a2.5 2.5 0 0 1 1.093-1.093C4.9 3.5 5.6 3.5 7 3.5h6.167c1.4 0 2.1 0 2.635.272a2.5 2.5 0 0 1 1.092 1.093c.273.535.273 1.235.273 2.635v6.167c0 1.4 0 2.1-.273 2.635a2.5 2.5 0 0 1-1.092 1.092c-.535.273-1.235.273-2.635.273Z" stroke="currentColor" stroke-width="2" stroke-linecap="round" stroke-linejoin="round"/>
</svg>
