<svg xmlns="http://www.w3.org/2000/svg" fill="none" viewBox="0 0 120 24">
  <g fill="currentColor">
    <path fill-rule="evenodd" d="M7.71 3a1 1 0 0 0-1-1H4.52a1 1 0 0 0-1 1v2.167a1 1 0 0 1-1 1H1a1 1 0 0 0-1 1V21a1 1 0 0 0 1 1h2.188a1 1 0 0 0 1-1V7.167a1 1 0 0 1 1-1H6.71a1 1 0 0 0 1-1zm8.404 0a1 1 0 0 0-1-1h-2.188a1 1 0 0 0-1 1v2.167a1 1 0 0 0 1 1h1.376a1 1 0 0 1 1 1V21a1 1 0 0 0 1 1h2.188a1 1 0 0 0 1-1V7.167a1 1 0 0 0-1-1h-1.376a1 1 0 0 1-1-1zm-4.246 7.976a1 1 0 0 0-1-1H8.68a1 1 0 0 0-1 1v6.095a1 1 0 0 0 1 1h2.188a1 1 0 0 0 1-1z" clip-rule="evenodd"/>
    <path d="M27.702 6.533h4.948c2.095 0 3.23 1.103 3.23 2.69a2.466 2.466 0 0 1-1.495 2.344v.052a2.81 2.81 0 0 1 1.463 1.049 2.83 2.83 0 0 1 .53 1.725c0 1.774-1.228 3.17-3.453 3.17h-5.223zm4.982 4.482c.79 0 1.357-.585 1.357-1.477 0-.89-.567-1.476-1.357-1.476h-3.139v2.953zm.223 5.032c.945 0 1.632-.724 1.632-1.775s-.687-1.758-1.632-1.758h-3.362v3.533zm5.773-8.202h-1.036V6.181h2.851v11.375h-1.82zm3.501 5.635c0-2.5 1.84-4.343 4.383-4.343s4.398 1.827 4.398 4.342c0 2.516-1.838 4.325-4.398 4.325s-4.383-1.826-4.383-4.325zm3.902 2.687h.982c1.117 0 2.096-1.189 2.096-2.688s-.982-2.707-2.096-2.707h-.982c-1.116 0-2.095 1.23-2.095 2.707s.979 2.688 2.095 2.688zm6.062-2.705c0-2.55 1.755-4.325 4.28-4.325 2.027 0 3.625 1.051 3.882 3.2h-1.769c-.172-1.085-.945-1.568-1.735-1.568h-.859c-1.1 0-1.993 1.206-1.993 2.708s.893 2.722 1.993 2.722h.859a1.75 1.75 0 0 0 1.187-.459 1.76 1.76 0 0 0 .565-1.143h1.77c-.246 2.12-1.856 3.222-3.927 3.222-2.518-.015-4.253-1.807-4.253-4.357zm9.809-7.281h1.804v6.274h1.308l2.44-3.084h2.06L66.56 13.18l3.144 4.377H67.54l-2.629-3.619h-1.153v3.619h-1.804zm8.575 8.918h1.735c.086.724.532 1.189 1.472 1.189h1.136c.808 0 1.186-.414 1.186-.965s-.31-.879-1.048-.985l-1.91-.246c-1.614-.19-2.336-1.154-2.336-2.412 0-1.654 1.227-2.55 3.419-2.55 2.098 0 3.37.844 3.436 2.722h-1.735c-.086-.706-.378-1.206-1.272-1.206H73.58c-.773 0-1.134.414-1.134.948s.344.896 1.083 1l1.926.245c1.563.19 2.285 1.034 2.285 2.344 0 1.688-1.117 2.619-3.59 2.619-2.393.002-3.554-.911-3.62-2.703zm8.344-1.637c0-2.55 1.752-4.325 4.28-4.325 2.027 0 3.624 1.051 3.882 3.2h-1.77c-.171-1.085-.944-1.568-1.735-1.568h-.858c-1.102 0-1.996 1.206-1.996 2.708s.894 2.722 1.996 2.722h.858a1.75 1.75 0 0 0 1.188-.459 1.76 1.76 0 0 0 .565-1.143h1.77c-.246 2.12-1.856 3.222-3.927 3.222-2.516-.015-4.253-1.807-4.253-4.357zm9.325.018c0-2.5 1.838-4.343 4.38-4.343 2.543 0 4.401 1.827 4.401 4.342 0 2.516-1.838 4.325-4.4 4.325s-4.38-1.826-4.38-4.325zm3.9 2.687h.982c1.116 0 2.098-1.189 2.098-2.688s-.982-2.707-2.098-2.707h-.982c-1.117 0-2.096 1.23-2.096 2.707s.984 2.688 2.1 2.688zm6.378-1.637V9.381h1.804v4.842c0 1.189.601 1.895 1.391 1.895h.982c.842 0 1.598-.775 1.598-1.895V9.38h1.806v8.184h-1.755v-1.12c-.491.845-1.357 1.362-2.68 1.362-1.978-.003-3.146-1.157-3.146-3.277zm10.582 1.12v-4.677h-1.58V9.381h1.58V7.087h1.821V9.38h2.13v1.585h-2.13v4.17c0 .534.172.793.756.793h1.443v1.636h-1.963c-1.321-.002-2.057-.691-2.057-1.915z"/>
  </g>
</svg>
