<svg xmlns="http://www.w3.org/2000/svg" viewBox="0 0 82 86" fill="none">
  <path d="M48.24 3.608a14.19 14.19 0 0 0-14.202 0L10.603 17.154A14.19 14.19 0 0 0 3.514 29.44v27.12a14.19 14.19 0 0 0 7.089 12.286l23.435 13.546a14.19 14.19 0 0 0 14.203 0l23.435-13.546a14.19 14.19 0 0 0 7.088-12.286V29.44a14.19 14.19 0 0 0-7.088-12.286L48.24 3.608Z" fill="#ECF5FF" stroke="#A7BFDA" stroke-width=".86"/>
  <path d="M41.14 2.133V43L5.784 22.564a13.751 13.751 0 0 1 5.03-5.035l.003-.002L34.253 3.98a13.751 13.751 0 0 1 6.886-1.847Z" fill="#F8FBFF"/>
  <path d="M3.944 29.44v27.12c0 2.457.655 4.82 1.841 6.876L41.14 43 5.785 22.564a13.751 13.751 0 0 0-1.84 6.876Z" fill="url(#a)"/>
  <path d="M78.334 56.571v-27.12c0-2.457-.654-4.82-1.84-6.876L41.138 43.011l35.354 20.436a13.75 13.75 0 0 0 1.841-6.876Z" fill="#E0EEFF"/>
  <path d="M41.14 2.15v40.867L76.492 22.58a13.75 13.75 0 0 0-5.033-5.038L48.025 3.997A13.751 13.751 0 0 0 41.14 2.15Z" fill="url(#b)"/>
  <path d="M10.815 68.472a13.751 13.751 0 0 1-5.03-5.036L41.14 43v40.867a13.75 13.75 0 0 1-6.884-1.847h-.002L10.818 68.473l-.003-.001Z" fill="url(#c)"/>
  <path d="M48.025 82.02 71.46 68.473a13.752 13.752 0 0 0 5.033-5.037L41.14 43v40.867c2.378 0 4.756-.616 6.886-1.847Z" fill="#D1E5FE"/>
  <path d="M35.114 8.643a12.04 12.04 0 0 1 12.05 0l20.692 11.96a12.04 12.04 0 0 1 6.015 10.424v23.946c0 4.299-2.293 8.272-6.015 10.424l-20.691 11.96a12.04 12.04 0 0 1-12.051 0l-20.692-11.96a12.04 12.04 0 0 1-6.014-10.424V31.027c0-4.3 2.292-8.272 6.014-10.424l20.692-11.96Z" fill="#A7BFDA"/>
  <path d="M47.38 8.27a12.47 12.47 0 0 0-12.481 0L14.207 20.231a12.47 12.47 0 0 0-6.23 10.796v23.946a12.47 12.47 0 0 0 6.23 10.796L34.9 77.729a12.47 12.47 0 0 0 12.48 0l20.693-11.96A12.47 12.47 0 0 0 74.3 54.973V31.027a12.47 12.47 0 0 0-6.23-10.796L47.38 8.271Z" stroke="#F8FBFF" stroke-width=".86"/>
  <path d="M35.33 9.015a11.61 11.61 0 0 1 11.62 0l20.691 11.96a11.61 11.61 0 0 1 5.8 10.052v23.946a11.61 11.61 0 0 1-5.8 10.051L46.95 76.984a11.61 11.61 0 0 1-11.62 0l-20.691-11.96a11.61 11.61 0 0 1-5.8-10.051V31.027a11.61 11.61 0 0 1 5.8-10.052l20.691-11.96Z" stroke="#A7BFDA" stroke-width=".86"/>
  <path d="M35.166 8.643a12.04 12.04 0 0 1 12.05 0l20.692 11.96a12.04 12.04 0 0 1 6.015 10.424v23.946c0 4.299-2.293 8.272-6.015 10.424l-20.692 11.96a12.04 12.04 0 0 1-12.05 0l-20.692-11.96A12.04 12.04 0 0 1 8.46 54.973V31.027c0-4.3 2.293-8.272 6.015-10.424l20.692-11.96Z" fill="#FFBA0D"/>
  <path fill-rule="evenodd" clip-rule="evenodd" d="M8.46 50.673v4.3c0 4.299 2.292 8.272 6.014 10.424l20.692 11.96a12.04 12.04 0 0 0 12.05 0l20.692-11.96a12.04 12.04 0 0 0 6.015-10.424v-4.3c0 4.299-2.293 8.272-6.015 10.423l-20.692 11.96a12.04 12.04 0 0 1-12.05 0l-20.692-11.96A12.04 12.04 0 0 1 8.46 50.673Z" fill="#E1910E"/>
  <path fill-rule="evenodd" clip-rule="evenodd" d="M35.115 8.643a12.04 12.04 0 0 1 12.05 0l20.692 11.96a12.04 12.04 0 0 1 6.015 10.424v2.58c0-4.3-2.292-8.272-6.015-10.424l-20.691-11.96a12.04 12.04 0 0 0-12.05 0l-20.692 11.96a12.04 12.04 0 0 0-6.015 10.424v-2.58c0-4.3 2.292-8.272 6.014-10.424l20.692-11.96Z" fill="#FFD57C"/>
  <path d="M35.38 9.015a11.61 11.61 0 0 1 11.621 0l20.692 11.96a11.61 11.61 0 0 1 5.8 10.052v23.946a11.61 11.61 0 0 1-5.8 10.051L47 76.984a11.61 11.61 0 0 1-11.62 0l-20.692-11.96a11.61 11.61 0 0 1-5.8-10.051V31.027a11.61 11.61 0 0 1 5.8-10.052l20.692-11.96Z" stroke="#A05500" stroke-width=".86"/>
  <g filter="url(#d)">
    <path d="M44.364 50.74v-12.9l-1.72 1.72v9.46l1.72 1.72Z" fill="#A964FD" stroke="#50119C" stroke-width=".86" stroke-linejoin="round"/>
    <path d="M44.365 37.84h-6.45l1.72 1.72h3.01l1.72-1.72Z" fill="#A964FD" stroke="#50119C" stroke-width=".86" stroke-linejoin="round"/>
    <path d="M42.644 49.02v-9.46h-3.01v9.46h3.01Z" fill="#B77CFF" stroke="#50119C" stroke-width=".86" stroke-linejoin="round"/>
    <path fill-rule="evenodd" clip-rule="evenodd" d="m39.634 44.667 3.01 3.01v-5.053l-3.01-3.01v5.053Z" fill="#DABCFF"/>
    <path d="M37.915 50.74h6.45l-1.72-1.72h-3.01l-1.72 1.72ZM37.915 37.84v12.9l1.72-1.72v-9.46l-1.72-1.72Z" fill="#7A2CDA" stroke="#50119C" stroke-width=".86" stroke-linejoin="round"/>
    <path d="M37.915 37.84h6.45m-6.45 0v12.9m0-12.9 1.72 1.72m4.73-1.72v12.9m0-12.9-1.72 1.72m1.72 11.18h-6.45m6.45 0-1.72-1.72m-4.73 1.72 1.72-1.72m3.01 0v-9.46m0 9.46h-3.01m0 0v-9.46m0 0h3.01" stroke="#50119C" stroke-width=".86" stroke-linejoin="round"/>
  </g>
  <g filter="url(#e)" stroke="#50119C" stroke-width=".86" stroke-linejoin="round">
    <path d="M37.484 30.745v-6.45l-1.72 1.72v3.01l1.72 1.72Z" fill="#A964FD"/>
    <path d="M37.485 24.295h-6.45l1.72 1.72h3.01l1.72-1.72Z" fill="#A964FD"/>
    <path d="M35.764 29.025v-3.01h-3.01v3.01h3.01Z" fill="#B77CFF"/>
    <path d="M31.035 30.745h6.45l-1.72-1.72h-3.01l-1.72 1.72Z" fill="#7A2CDA"/>
    <path d="M31.035 24.295v6.45l1.72-1.72v-3.01l-1.72-1.72Z" fill="#7A2CDA"/>
    <path d="M31.035 24.295h6.45m-6.45 0v6.45m0-6.45 1.72 1.72m4.73-1.72v6.45m0-6.45-1.72 1.72m1.72 4.73h-6.45m6.45 0-1.72-1.72m-4.73 1.72 1.72-1.72m3.01 0v-3.01m0 3.01h-3.01m0 0v-3.01m0 0h3.01"/>
  </g>
  <g filter="url(#f)" stroke="#50119C" stroke-width=".86" stroke-linejoin="round">
    <path d="M51.46 30.745v-6.45l-1.72 1.72v3.01l1.72 1.72ZM51.46 24.295h-6.45l1.72 1.72h3.01l1.72-1.72Z" fill="#A964FD"/>
    <path d="M49.739 29.025v-3.01h-3.01v3.01h3.01Z" fill="#B77CFF"/>
    <path d="M45.01 30.745h6.45l-1.72-1.72h-3.01l-1.72 1.72ZM45.01 24.295v6.45l1.72-1.72v-3.01l-1.72-1.72Z" fill="#7A2CDA"/>
    <path d="M45.01 24.295h6.45m-6.45 0v6.45m0-6.45 1.72 1.72m4.73-1.72v6.45m0-6.45-1.72 1.72m1.72 4.73h-6.45m6.45 0-1.72-1.72m-4.73 1.72 1.72-1.72m3.01 0v-3.01m0 3.01h-3.01m0 0v-3.01m0 0h3.01"/>
  </g>
  <g filter="url(#g)">
    <path d="M31.035 57.405v-26.66l-1.72 1.72v23.22l1.72 1.72ZM31.035 30.745h-6.45l1.72 1.72h3.01l1.72-1.72Z" fill="#A964FD" stroke="#50119C" stroke-width=".86" stroke-linejoin="round"/>
    <path d="M29.314 55.685v-23.22h-3.01v23.22h3.01Z" fill="#B77CFF" stroke="#50119C" stroke-width=".86" stroke-linejoin="round"/>
    <path fill-rule="evenodd" clip-rule="evenodd" d="m26.305 51.641 3.01 3.01v-3.307l-3.01-3.01v3.307Zm0-4.084 3.01 3.01v-1.463l-3.01-3.01v1.463Z" fill="#DABCFF"/>
    <path d="M24.584 57.405h6.45l-1.72-1.72h-3.01l-1.72 1.72ZM24.584 30.745v26.66l1.72-1.72v-23.22l-1.72-1.72Z" fill="#7A2CDA" stroke="#50119C" stroke-width=".86" stroke-linejoin="round"/>
    <path d="M24.584 30.745h6.45m-6.45 0v26.66m0-26.66 1.72 1.72m4.73-1.72v26.66m0-26.66-1.72 1.72m1.72 24.94h-6.45m6.45 0-1.72-1.72m-4.73 1.72 1.72-1.72m3.01 0v-23.22m0 23.22h-3.01m0 0v-23.22m0 0h3.01" stroke="#50119C" stroke-width=".86" stroke-linejoin="round"/>
  </g>
  <g filter="url(#h)">
    <path d="M57.91 57.405v-26.66l-1.72 1.72v23.22l1.72 1.72ZM57.91 30.745h-6.45l1.72 1.72h3.01l1.72-1.72Z" fill="#A964FD" stroke="#50119C" stroke-width=".86" stroke-linejoin="round"/>
    <path d="M56.19 55.685v-23.22h-3.01v23.22h3.01Z" fill="#B77CFF" stroke="#50119C" stroke-width=".86" stroke-linejoin="round"/>
    <path fill-rule="evenodd" clip-rule="evenodd" d="m53.18 41.237 3.01 3.01V40.94l-3.01-3.01v3.307Zm0-4.084 3.01 3.01V38.7l-3.01-3.01v1.463Z" fill="#DABCFF"/>
    <path d="M51.46 57.405h6.45l-1.72-1.72h-3.01l-1.72 1.72ZM51.46 30.745v26.66l1.72-1.72v-23.22l-1.72-1.72Z" fill="#7A2CDA" stroke="#50119C" stroke-width=".86" stroke-linejoin="round"/>
    <path d="M51.46 30.745h6.45m-6.45 0v26.66m0-26.66 1.72 1.72m4.73-1.72v26.66m0-26.66-1.72 1.72m1.72 24.94h-6.45m6.45 0-1.72-1.72m-4.73 1.72 1.72-1.72m3.01 0v-23.22m0 23.22h-3.01m0 0v-23.22m0 0h3.01" stroke="#50119C" stroke-width=".86" stroke-linejoin="round"/>
  </g>
  <g style="mix-blend-mode:color-burn">
    <mask id="i" maskUnits="userSpaceOnUse" x="1.204" y="13.265" width="23" height="61" fill="#000">
      <path fill="#fff" d="M1.204 13.265h23v61h-23z"/>
      <path d="M18.533 19.338c-.609 1.258-1.689 1.917-2.886 2.396-.138.08-.275.2-.334.32-.451 1.018-.883 2.076-1.315 3.074-.157.38-.275.739-.452 1.198a57.93 57.93 0 0 1 1.414-1.757c.824-.978 1.806-1.717 3.121-1.917 1.335-.22 2.67-.1 3.986.24.039.04.059.04.137.08-.334.499-.628 1.018-.942 1.477-.687.899-1.512 1.637-2.611 2.037-1.57.499-3.18.619-4.79.36-.158-.06-.295-.08-.452-.12a46.466 46.466 0 0 0-1.865 7.127c.314-.46.589-.978.864-1.438.687-1.177 1.55-2.116 2.866-2.575a9.09 9.09 0 0 1 3.082-.52c.334 0 .687.04 1.1.04-.197.48-.334.9-.491 1.299-.51 1.098-1.139 2.056-2.16 2.695-1.217.819-2.591 1.218-4.024 1.358-.452.04-.943.08-1.414.12a50.87 50.87 0 0 0-.707 7.367c.079-.08.098-.2.138-.32.157-.46.334-.938.51-1.437.55-1.438 1.473-2.536 2.867-3.195.961-.44 1.982-.699 3.023-.858.177 0 .353-.04.55-.08v.24c-.04.219-.079.498-.138.778-.334 1.438-.883 2.815-2.1 3.754-1.277 1.058-2.769 1.717-4.398 2.076-.157.02-.314.02-.51.06a40.27 40.27 0 0 0 .588 7.527c.177-.819.315-1.597.472-2.376.255-1.098.785-2.077 1.63-2.815 1.06-.899 2.296-1.478 3.592-1.957.137 0 .275-.08.49-.12-.02.72-.039 1.338-.117 1.957-.138 1.138-.452 2.176-1.178 3.035-1.237 1.437-2.729 2.535-4.516 3.154-.059 0-.117.04-.196.08.452 2.316 1.06 4.572 1.885 6.748.04-.399 0-.778.02-1.177.02-1.318.235-2.556 1.04-3.614a8.461 8.461 0 0 1 2.356-2.097c.471-.319.942-.598 1.472-.858.06.22.079.42.118.579.275 1.637.275 3.234-.55 4.712-.687 1.218-1.63 2.236-2.729 3.094-.412.32-.824.58-1.256.859.805 2.096 1.728 4.133 2.827 6.07 0-.12 0-.2-.02-.28-.059-.54-.137-1.138-.196-1.677a5.277 5.277 0 0 1 .589-2.895c.57-1.038 1.335-1.937 2.238-2.715.334-.26.668-.54 1.021-.859.49 1.178.766 2.316.805 3.474 0 .659-.04 1.318-.295 1.957a11.52 11.52 0 0 1-3.102 4.492c-.157.12-.137.2-.058.36a55.328 55.328 0 0 0 3.003 4.472s-.196.399-1.511-.46c-.314-.459-.629-.898-.923-1.397-.609-.979-1.217-1.957-1.787-2.955-.117-.26-.235-.34-.51-.26-1.728.4-3.475.4-5.183-.08-1.217-.319-2.199-1.098-3.004-2.036-.353-.42-.667-.939-1-1.358-.02-.08-.06-.12-.099-.2l.118-.08c1.374-.459 2.788-.698 4.22-.578 1.434.08 2.592.778 3.613 1.797.236.24.452.459.726.659-.02-.08-.059-.16-.098-.24a53.49 53.49 0 0 1-2.395-5.69c-.059-.2-.137-.24-.334-.24-1.708.12-3.376-.2-4.947-.898-1.217-.54-2.061-1.478-2.71-2.616-.313-.499-.549-1.078-.843-1.697.569 0 1.08-.08 1.59-.08.981-.04 1.963.04 2.925.3 1.315.4 2.238 1.218 3.023 2.296.197.24.354.479.51.719-.49-2.137-.98-4.293-1.472-6.43-.785-.199-1.63-.359-2.414-.618-1.218-.42-2.356-1.018-3.26-1.997-.785-.858-1.59-2.735-1.688-3.893h.04c1.688.02 3.317.34 4.79 1.278.903.539 1.472 1.437 1.943 2.376.118.2.216.399.354.619-.197-2.137-.275-4.253-.118-6.39-1.06-.319-2.022-.738-2.906-1.317-1.295-.859-2.414-1.877-2.885-3.434a9.274 9.274 0 0 1-.432-2.536c-.02-.08 0-.16 0-.36.746.28 1.472.48 2.16.7.942.399 1.805.898 2.532 1.677.628.678.962 1.497 1.237 2.336.117.399.215.798.373 1.178 0-.12.02-.16.02-.28.176-2.056.45-4.093.863-6.11.04-.199.02-.359-.216-.439A9.502 9.502 0 0 1 6.97 30.18c-.688-1.058-.845-2.216-.825-3.474 0-.459.059-.898.118-1.437.589.32 1.158.559 1.649.858 1.1.64 2.061 1.418 2.69 2.536.49.858.608 1.837.687 2.815.039.3.039.62.117.899l.06-.24c.51-2.057 1.118-4.133 1.904-6.13.078-.2.078-.319-.099-.419-1.354-.978-2.375-2.216-3.121-3.753-.59-1.218-.589-2.456-.334-3.714.079-.459.196-.878.314-1.338l.04-.04c.863.54 1.668 1.159 2.355 1.937 1.06 1.138 1.63 2.456 1.512 4.093-.04.58-.098 1.218-.137 1.917.039-.08.059-.12.078-.2.432-.898.864-1.797 1.296-2.715.04-.12.04-.24.04-.36-.04-.818-.02-1.637.195-2.455.158-.62.393-1.258.845-1.717.53-.58 1.158-1.018 1.826-1.398.353-.24.706-.4 1.08-.579.058 0 .097.04.156.04-.02.3-.078.58-.098.878-.04 1.099-.294 2.197-.785 3.155Z"/>
    </mask>
    <path d="M18.533 19.338c-.609 1.258-1.689 1.917-2.886 2.396-.138.08-.275.2-.334.32-.451 1.018-.883 2.076-1.315 3.074-.157.38-.275.739-.452 1.198a57.93 57.93 0 0 1 1.414-1.757c.824-.978 1.806-1.717 3.121-1.917 1.335-.22 2.67-.1 3.986.24.039.04.059.04.137.08-.334.499-.628 1.018-.942 1.477-.687.899-1.512 1.637-2.611 2.037-1.57.499-3.18.619-4.79.36-.158-.06-.295-.08-.452-.12a46.466 46.466 0 0 0-1.865 7.127c.314-.46.589-.978.864-1.438.687-1.177 1.55-2.116 2.866-2.575a9.09 9.09 0 0 1 3.082-.52c.334 0 .687.04 1.1.04-.197.48-.334.9-.491 1.299-.51 1.098-1.139 2.056-2.16 2.695-1.217.819-2.591 1.218-4.024 1.358-.452.04-.943.08-1.414.12a50.87 50.87 0 0 0-.707 7.367c.079-.08.098-.2.138-.32.157-.46.334-.938.51-1.437.55-1.438 1.473-2.536 2.867-3.195.961-.44 1.982-.699 3.023-.858.177 0 .353-.04.55-.08v.24c-.04.219-.079.498-.138.778-.334 1.438-.883 2.815-2.1 3.754-1.277 1.058-2.769 1.717-4.398 2.076-.157.02-.314.02-.51.06a40.27 40.27 0 0 0 .588 7.527c.177-.819.315-1.597.472-2.376.255-1.098.785-2.077 1.63-2.815 1.06-.899 2.296-1.478 3.592-1.957.137 0 .275-.08.49-.12-.02.72-.039 1.338-.117 1.957-.138 1.138-.452 2.176-1.178 3.035-1.237 1.437-2.729 2.535-4.516 3.154-.059 0-.117.04-.196.08.452 2.316 1.06 4.572 1.885 6.748.04-.399 0-.778.02-1.177.02-1.318.235-2.556 1.04-3.614a8.461 8.461 0 0 1 2.356-2.097c.471-.319.942-.598 1.472-.858.06.22.079.42.118.579.275 1.637.275 3.234-.55 4.712-.687 1.218-1.63 2.236-2.729 3.094-.412.32-.824.58-1.256.859.805 2.096 1.728 4.133 2.827 6.07 0-.12 0-.2-.02-.28-.059-.54-.137-1.138-.196-1.677a5.277 5.277 0 0 1 .589-2.895c.57-1.038 1.335-1.937 2.238-2.715.334-.26.668-.54 1.021-.859.49 1.178.766 2.316.805 3.474 0 .659-.04 1.318-.295 1.957a11.52 11.52 0 0 1-3.102 4.492c-.157.12-.137.2-.058.36a55.328 55.328 0 0 0 3.003 4.472s-.196.399-1.511-.46c-.314-.459-.629-.898-.923-1.397-.609-.979-1.217-1.957-1.787-2.955-.117-.26-.235-.34-.51-.26-1.728.4-3.475.4-5.183-.08-1.217-.319-2.199-1.098-3.004-2.036-.353-.42-.667-.939-1-1.358-.02-.08-.06-.12-.099-.2l.118-.08c1.374-.459 2.788-.698 4.22-.578 1.434.08 2.592.778 3.613 1.797.236.24.452.459.726.659-.02-.08-.059-.16-.098-.24a53.49 53.49 0 0 1-2.395-5.69c-.059-.2-.137-.24-.334-.24-1.708.12-3.376-.2-4.947-.898-1.217-.54-2.061-1.478-2.71-2.616-.313-.499-.549-1.078-.843-1.697.569 0 1.08-.08 1.59-.08.981-.04 1.963.04 2.925.3 1.315.4 2.238 1.218 3.023 2.296.197.24.354.479.51.719-.49-2.137-.98-4.293-1.472-6.43-.785-.199-1.63-.359-2.414-.618-1.218-.42-2.356-1.018-3.26-1.997-.785-.858-1.59-2.735-1.688-3.893h.04c1.688.02 3.317.34 4.79 1.278.903.539 1.472 1.437 1.943 2.376.118.2.216.399.354.619-.197-2.137-.275-4.253-.118-6.39-1.06-.319-2.022-.738-2.906-1.317-1.295-.859-2.414-1.877-2.885-3.434a9.274 9.274 0 0 1-.432-2.536c-.02-.08 0-.16 0-.36.746.28 1.472.48 2.16.7.942.399 1.805.898 2.532 1.677.628.678.962 1.497 1.237 2.336.117.399.215.798.373 1.178 0-.12.02-.16.02-.28.176-2.056.45-4.093.863-6.11.04-.199.02-.359-.216-.439A9.502 9.502 0 0 1 6.97 30.18c-.688-1.058-.845-2.216-.825-3.474 0-.459.059-.898.118-1.437.589.32 1.158.559 1.649.858 1.1.64 2.061 1.418 2.69 2.536.49.858.608 1.837.687 2.815.039.3.039.62.117.899l.06-.24c.51-2.057 1.118-4.133 1.904-6.13.078-.2.078-.319-.099-.419-1.354-.978-2.375-2.216-3.121-3.753-.59-1.218-.589-2.456-.334-3.714.079-.459.196-.878.314-1.338l.04-.04c.863.54 1.668 1.159 2.355 1.937 1.06 1.138 1.63 2.456 1.512 4.093-.04.58-.098 1.218-.137 1.917.039-.08.059-.12.078-.2.432-.898.864-1.797 1.296-2.715.04-.12.04-.24.04-.36-.04-.818-.02-1.637.195-2.455.158-.62.393-1.258.845-1.717.53-.58 1.158-1.018 1.826-1.398.353-.24.706-.4 1.08-.579.058 0 .097.04.156.04-.02.3-.078.58-.098.878-.04 1.099-.294 2.197-.785 3.155Z" fill="#000" fill-opacity=".16"/>
    <path d="M18.533 19.338c-.609 1.258-1.689 1.917-2.886 2.396-.138.08-.275.2-.334.32-.451 1.018-.883 2.076-1.315 3.074-.157.38-.275.739-.452 1.198a57.93 57.93 0 0 1 1.414-1.757c.824-.978 1.806-1.717 3.121-1.917 1.335-.22 2.67-.1 3.986.24.039.04.059.04.137.08-.334.499-.628 1.018-.942 1.477-.687.899-1.512 1.637-2.611 2.037-1.57.499-3.18.619-4.79.36-.158-.06-.295-.08-.452-.12a46.466 46.466 0 0 0-1.865 7.127c.314-.46.589-.978.864-1.438.687-1.177 1.55-2.116 2.866-2.575a9.09 9.09 0 0 1 3.082-.52c.334 0 .687.04 1.1.04-.197.48-.334.9-.491 1.299-.51 1.098-1.139 2.056-2.16 2.695-1.217.819-2.591 1.218-4.024 1.358-.452.04-.943.08-1.414.12a50.87 50.87 0 0 0-.707 7.367c.079-.08.098-.2.138-.32.157-.46.334-.938.51-1.437.55-1.438 1.473-2.536 2.867-3.195.961-.44 1.982-.699 3.023-.858.177 0 .353-.04.55-.08v.24c-.04.219-.079.498-.138.778-.334 1.438-.883 2.815-2.1 3.754-1.277 1.058-2.769 1.717-4.398 2.076-.157.02-.314.02-.51.06a40.27 40.27 0 0 0 .588 7.527c.177-.819.315-1.597.472-2.376.255-1.098.785-2.077 1.63-2.815 1.06-.899 2.296-1.478 3.592-1.957.137 0 .275-.08.49-.12-.02.72-.039 1.338-.117 1.957-.138 1.138-.452 2.176-1.178 3.035-1.237 1.437-2.729 2.535-4.516 3.154-.059 0-.117.04-.196.08.452 2.316 1.06 4.572 1.885 6.748.04-.399 0-.778.02-1.177.02-1.318.235-2.556 1.04-3.614a8.461 8.461 0 0 1 2.356-2.097c.471-.319.942-.598 1.472-.858.06.22.079.42.118.579.275 1.637.275 3.234-.55 4.712-.687 1.218-1.63 2.236-2.729 3.094-.412.32-.824.58-1.256.859.805 2.096 1.728 4.133 2.827 6.07 0-.12 0-.2-.02-.28-.059-.54-.137-1.138-.196-1.677a5.277 5.277 0 0 1 .589-2.895c.57-1.038 1.335-1.937 2.238-2.715.334-.26.668-.54 1.021-.859.49 1.178.766 2.316.805 3.474 0 .659-.04 1.318-.295 1.957a11.52 11.52 0 0 1-3.102 4.492c-.157.12-.137.2-.058.36a55.328 55.328 0 0 0 3.003 4.472s-.196.399-1.511-.46c-.314-.459-.629-.898-.923-1.397-.609-.979-1.217-1.957-1.787-2.955-.117-.26-.235-.34-.51-.26-1.728.4-3.475.4-5.183-.08-1.217-.319-2.199-1.098-3.004-2.036-.353-.42-.667-.939-1-1.358-.02-.08-.06-.12-.099-.2l.118-.08c1.374-.459 2.788-.698 4.22-.578 1.434.08 2.592.778 3.613 1.797.236.24.452.459.726.659-.02-.08-.059-.16-.098-.24a53.49 53.49 0 0 1-2.395-5.69c-.059-.2-.137-.24-.334-.24-1.708.12-3.376-.2-4.947-.898-1.217-.54-2.061-1.478-2.71-2.616-.313-.499-.549-1.078-.843-1.697.569 0 1.08-.08 1.59-.08.981-.04 1.963.04 2.925.3 1.315.4 2.238 1.218 3.023 2.296.197.24.354.479.51.719-.49-2.137-.98-4.293-1.472-6.43-.785-.199-1.63-.359-2.414-.618-1.218-.42-2.356-1.018-3.26-1.997-.785-.858-1.59-2.735-1.688-3.893h.04c1.688.02 3.317.34 4.79 1.278.903.539 1.472 1.437 1.943 2.376.118.2.216.399.354.619-.197-2.137-.275-4.253-.118-6.39-1.06-.319-2.022-.738-2.906-1.317-1.295-.859-2.414-1.877-2.885-3.434a9.274 9.274 0 0 1-.432-2.536c-.02-.08 0-.16 0-.36.746.28 1.472.48 2.16.7.942.399 1.805.898 2.532 1.677.628.678.962 1.497 1.237 2.336.117.399.215.798.373 1.178 0-.12.02-.16.02-.28.176-2.056.45-4.093.863-6.11.04-.199.02-.359-.216-.439A9.502 9.502 0 0 1 6.97 30.18c-.688-1.058-.845-2.216-.825-3.474 0-.459.059-.898.118-1.437.589.32 1.158.559 1.649.858 1.1.64 2.061 1.418 2.69 2.536.49.858.608 1.837.687 2.815.039.3.039.62.117.899l.06-.24c.51-2.057 1.118-4.133 1.904-6.13.078-.2.078-.319-.099-.419-1.354-.978-2.375-2.216-3.121-3.753-.59-1.218-.589-2.456-.334-3.714.079-.459.196-.878.314-1.338l.04-.04c.863.54 1.668 1.159 2.355 1.937 1.06 1.138 1.63 2.456 1.512 4.093-.04.58-.098 1.218-.137 1.917.039-.08.059-.12.078-.2.432-.898.864-1.797 1.296-2.715.04-.12.04-.24.04-.36-.04-.818-.02-1.637.195-2.455.158-.62.393-1.258.845-1.717.53-.58 1.158-1.018 1.826-1.398.353-.24.706-.4 1.08-.579.058 0 .097.04.156.04-.02.3-.078.58-.098.878-.04 1.099-.294 2.197-.785 3.155Z" stroke="#000" stroke-opacity=".16" stroke-width="2.15" stroke-linejoin="round" mask="url(#i)"/>
  </g>
  <path d="M17.243 18.478c-.608 1.258-1.688 1.917-2.886 2.396-.137.08-.274.2-.333.32-.452 1.018-.884 2.076-1.316 3.074-.157.38-.275.739-.451 1.198.51-.659.962-1.218 1.413-1.757.825-.978 1.806-1.717 3.122-1.917 1.335-.22 2.67-.1 3.985.24.04.04.059.04.138.08-.334.499-.629 1.018-.943 1.477-.687.899-1.512 1.637-2.61 2.037-1.571.499-3.181.619-4.791.359-.157-.06-.295-.08-.452-.12a46.477 46.477 0 0 0-1.865 7.128c.314-.46.59-.978.864-1.438.687-1.178 1.551-2.116 2.866-2.575a9.092 9.092 0 0 1 3.083-.52c.333 0 .687.04 1.099.04-.196.48-.334.9-.49 1.298-.511 1.099-1.14 2.057-2.16 2.696-1.217.818-2.592 1.218-4.025 1.357-.451.04-.942.08-1.413.12a50.867 50.867 0 0 0-.707 7.368c.078-.08.098-.2.137-.32.157-.46.334-.938.51-1.438.55-1.437 1.473-2.535 2.867-3.194.962-.44 1.983-.699 3.023-.858.177 0 .354-.04.55-.08v.24c-.04.219-.078.498-.137.778-.334 1.437-.884 2.815-2.101 3.753-1.276 1.059-2.768 1.718-4.398 2.077-.157.02-.314.02-.51.06-.04 2.535.157 5.031.589 7.527.177-.819.314-1.598.471-2.376.255-1.098.785-2.077 1.63-2.815 1.06-.899 2.296-1.478 3.592-1.957.138 0 .275-.08.491-.12-.02.719-.04 1.338-.118 1.957-.137 1.138-.451 2.176-1.178 3.035-1.236 1.437-2.729 2.535-4.515 3.154-.059 0-.118.04-.196.08.451 2.316 1.06 4.572 1.884 6.748.04-.399 0-.778.02-1.178.02-1.317.236-2.555 1.04-3.613a8.461 8.461 0 0 1 2.356-2.097 11.9 11.9 0 0 1 1.473-.858c.059.22.078.42.117.579.275 1.637.275 3.234-.55 4.712-.686 1.218-1.629 2.236-2.728 3.094-.412.32-.825.58-1.257.859.805 2.096 1.728 4.133 2.828 6.07 0-.12 0-.2-.02-.28-.06-.54-.138-1.138-.197-1.677a5.277 5.277 0 0 1 .59-2.895c.569-1.038 1.334-1.937 2.238-2.716.333-.26.667-.539 1.02-.858.491 1.178.766 2.316.805 3.474 0 .659-.039 1.318-.294 1.956a11.52 11.52 0 0 1-3.102 4.493c-.157.12-.137.2-.059.36a55.327 55.327 0 0 0 3.004 4.471s-.197.4-1.512-.459c-.314-.459-.628-.898-.923-1.397a90.378 90.378 0 0 1-1.786-2.955c-.118-.26-.236-.34-.51-.26-1.728.4-3.476.4-5.183-.08-1.218-.32-2.2-1.098-3.004-2.036-.354-.42-.668-.939-1.001-1.358-.02-.08-.06-.12-.099-.2l.118-.08c1.374-.459 2.788-.698 4.221-.578 1.433.08 2.592.778 3.613 1.797.235.24.451.459.726.658-.02-.08-.059-.16-.098-.24a53.463 53.463 0 0 1-2.395-5.69c-.06-.199-.138-.239-.334-.239-1.708.12-3.377-.2-4.948-.898-1.217-.54-2.06-1.478-2.709-2.616-.314-.499-.55-1.078-.844-1.697.57 0 1.08-.08 1.59-.08.982-.04 1.963.04 2.925.3 1.316.399 2.239 1.218 3.024 2.296.196.24.353.479.51.718-.49-2.136-.981-4.292-1.472-6.428-.785-.2-1.63-.36-2.415-.62-1.217-.419-2.356-1.018-3.259-1.996-.785-.858-1.59-2.735-1.688-3.893h.039c1.688.02 3.318.34 4.79 1.278.903.539 1.473 1.437 1.944 2.376.118.2.216.399.353.618-.196-2.136-.275-4.252-.118-6.388-1.06-.32-2.022-.74-2.905-1.318-1.296-.859-2.415-1.877-2.886-3.434a9.274 9.274 0 0 1-.432-2.536c-.02-.08 0-.16 0-.36.746.28 1.472.48 2.16.7.942.399 1.806.898 2.532 1.677.628.678.962 1.497 1.237 2.336.118.399.216.798.373 1.177 0-.12.02-.16.02-.279.176-2.056.451-4.093.863-6.11.04-.2.02-.359-.216-.439A9.502 9.502 0 0 1 5.68 29.32c-.687-1.058-.844-2.216-.825-3.474 0-.459.06-.898.118-1.437.59.32 1.158.559 1.65.858 1.099.64 2.06 1.418 2.689 2.536.49.858.609 1.837.687 2.815.04.3.04.619.118.898l.059-.24c.51-2.056 1.119-4.132 1.904-6.128.079-.2.079-.32-.098-.42-1.355-.978-2.376-2.216-3.122-3.753-.589-1.218-.589-2.456-.333-3.714.078-.46.196-.878.314-1.338l.039-.04c.864.54 1.669 1.159 2.356 1.937 1.06 1.138 1.63 2.456 1.511 4.093-.039.58-.098 1.218-.137 1.917.04-.08.059-.12.079-.2.432-.898.864-1.797 1.295-2.715.04-.12.04-.24.04-.36-.04-.818-.02-1.637.196-2.455.157-.62.393-1.258.844-1.717.53-.58 1.158-1.019 1.826-1.398.353-.24.707-.4 1.08-.579.059 0 .098.04.157.04-.02.3-.079.579-.098.878-.04 1.099-.295 2.197-.786 3.155Z" fill="#FFD57C"/>
  <path fill-rule="evenodd" clip-rule="evenodd" d="M16.897 50.047c-1.26 3.726-2.24 5.921-4.306 8.904l-.622-1.43a2.804 2.804 0 0 1-.007.07c-.07-.187-.139-.373-.206-.56l-.071-.164-.045-.164a41.595 41.595 0 0 1-1.431-5.213l-.03-.105-.015-.112c-.03-.143-.058-.287-.086-.431l.023-.012-.161-1.127-.039.18a40.272 40.272 0 0 1-.589-7.526c.046-.01.09-.017.132-.023l.063-1.312-.022.075c-.027.092-.053.179-.114.241.059-2.495.294-4.951.707-7.367l.045-.004.277-1.196a7.991 7.991 0 0 1-.146.222 46.476 46.476 0 0 1 1.866-7.128l.139.033c.103.023.203.045.312.087 1.61.26 3.22.14 4.79-.36 1.1-.399 1.924-1.137 2.611-2.036.165-.24.324-.497.486-.759l.046-.074c-2.923 1.732-5.053 2.57-8.135 3.108l.42-1.075c-.172.215-.348.44-.532.677.073-.19.136-.362.196-.527.085-.233.163-.448.256-.671.176-.409.353-.827.531-1.25.257-.608.517-1.223.784-1.825a.726.726 0 0 1 .203-.23h-.265a257.17 257.17 0 0 1-.802 1.685 63.337 63.337 0 0 0-1.866 4.691 56.278 56.278 0 0 0-1.118 3.937l-.059.24a1.244 1.244 0 0 1-.005-.019c-.785 3.807-1.117 7.949-1.336 10.7l-.045.557c-.046 1.659.036 3.31.188 4.973l-.09-.149c.089.786.204 1.612.342 2.453l.72 3.147.736 3.214a35.164 35.164 0 0 0-.072-.11c.215.752.44 1.46.67 2.1.095.025.146.086.188.227a54.16 54.16 0 0 0 1.117 2.883c.45 1.022.864 1.935 1.253 2.756l.025.05.058.125c.366.765.71 1.447 1.044 2.06.042.047.078.11.115.192.245.429.497.855.753 1.278.324.501.64 1.022.933 1.515l.1.161c.24.408.494.775.75 1.146l.173.252c1.316.859 1.512.46 1.512.46a55.325 55.325 0 0 1-3.004-4.473c-.07-.143-.093-.222.015-.323l-1.016-1.815v.002c.02.08.02.16.02.28-1.1-1.937-2.022-3.974-2.827-6.07l.14-.09c.381-.247.749-.484 1.116-.769 1.1-.858 2.042-1.877 2.729-3.094.825-1.478.825-3.075.55-4.712a3.384 3.384 0 0 1-.044-.225 8.635 8.635 0 0 0-.028-.151Zm2.019 6.741c-.755 4.362-1.306 6.716-2.54 9.8a11.522 11.522 0 0 0 3.027-4.426c.255-.639.295-1.297.295-1.956-.04-1.14-.306-2.26-.782-3.418Zm-4.635 9.679c-3.288-.513-5.542-1.555-8.849-3.39.114.152.226.312.34.473.18.258.362.518.556.749.805.938 1.787 1.717 3.004 2.036 1.63.458 3.297.478 4.949.132Zm-3.407-8.086c-2.815-1.035-4.77-2.366-8.195-5.008l.12.26c.202.44.391.853.623 1.222.648 1.138 1.492 2.077 2.71 2.616 1.507.67 3.106.992 4.742.91ZM8.768 49.87c-2.84-1.502-4.332-3.052-6.77-6.411-.055-.002-.11-.003-.166-.003h-.039c.098 1.158.903 3.035 1.688 3.893.903.978 2.042 1.577 3.26 1.997.533.176 1.093.306 1.644.434l.383.09Zm-.312-8.64c-2.329-1.938-3.622-3.769-5.678-7.464a16.062 16.062 0 0 1-.189-.07l-.01.027-.006.158c-.004.075-.007.123.005.171.02.858.177 1.717.432 2.536.471 1.557 1.59 2.575 2.886 3.434.787.515 1.635.904 2.56 1.209Zm1.045-8.499c-1.973-2.34-3.042-4.092-4.542-8.194l-.013.116c-.048.432-.09.805-.09 1.193-.02 1.258.137 2.416.824 3.474a9.499 9.499 0 0 0 3.821 3.411Zm2.6-7.899.012.001c-1.854-3.366-2.53-5.368-3.279-8.884a73.3 73.3 0 0 1-.054.21c-.096.37-.188.722-.253 1.102-.255 1.258-.255 2.496.334 3.714.746 1.537 1.766 2.775 3.121 3.753a.318.318 0 0 1 .119.104ZM18.089 14.8c-.983 2.306-1.84 3.829-3.644 6.038 1.163-.476 2.205-1.133 2.799-2.36.49-.958.745-2.056.785-3.155a6.268 6.268 0 0 1 .06-.523Zm-.102 14.161c-2.762 2.514-4.66 3.892-7.419 4.969.314-.026.627-.052.923-.079 1.433-.14 2.808-.539 4.025-1.357 1.02-.64 1.649-1.598 2.16-2.696.066-.168.128-.34.193-.517l.118-.32Zm-1.53 6.738c-2.631 3.117-4.301 4.833-6.996 6.633.068-.009.132-.014.194-.019l.168-.016c1.629-.36 3.121-1.018 4.397-2.077 1.217-.938 1.767-2.316 2.1-3.753.04-.186.07-.373.098-.541l.038-.227Zm-.38 7.236c-2.143 3.5-3.571 5.613-5.66 7.776 1.724-.627 3.169-1.705 4.373-3.103.726-.859 1.04-1.897 1.177-3.035.067-.526.091-1.051.11-1.638Z" fill="#E1910E"/>
  <mask id="j" maskUnits="userSpaceOnUse" x="-.085" y="12.405" width="23" height="61" fill="#000">
    <path fill="#fff" d="M-.085 12.405h23v61h-23z"/>
    <path d="M17.244 18.478c-.609 1.258-1.689 1.917-2.886 2.396-.138.08-.275.2-.334.32-.451 1.018-.883 2.076-1.315 3.074-.157.38-.275.739-.452 1.198.51-.659.962-1.218 1.414-1.757.824-.978 1.806-1.717 3.121-1.917 1.335-.22 2.67-.1 3.986.24.039.04.059.04.137.08-.334.499-.628 1.018-.942 1.477-.687.899-1.512 1.637-2.611 2.037-1.571.499-3.18.619-4.79.359-.158-.06-.295-.08-.452-.12a46.489 46.489 0 0 0-1.865 7.128c.314-.46.589-.978.864-1.438.687-1.178 1.55-2.116 2.866-2.575a9.092 9.092 0 0 1 3.082-.52c.334 0 .687.04 1.1.04-.197.48-.334.9-.491 1.298-.51 1.099-1.139 2.057-2.16 2.696-1.217.818-2.591 1.218-4.024 1.357-.452.04-.943.08-1.414.12a50.865 50.865 0 0 0-.707 7.368c.079-.08.098-.2.138-.32.157-.46.333-.938.51-1.438.55-1.437 1.473-2.535 2.867-3.194.961-.44 1.982-.699 3.023-.858.176 0 .353-.04.55-.08v.24c-.04.219-.079.498-.138.778-.334 1.437-.883 2.815-2.1 3.753-1.277 1.059-2.769 1.718-4.398 2.077-.157.02-.314.02-.51.06-.04 2.535.156 5.031.588 7.527.177-.819.315-1.598.472-2.376.255-1.098.785-2.077 1.629-2.815 1.06-.899 2.297-1.478 3.593-1.957.137 0 .275-.08.49-.12-.02.719-.039 1.338-.117 1.957-.138 1.138-.452 2.176-1.178 3.035-1.237 1.437-2.73 2.535-4.516 3.154-.058 0-.117.04-.196.08.452 2.316 1.06 4.572 1.885 6.748.039-.399 0-.778.02-1.178.019-1.317.235-2.555 1.04-3.613a8.461 8.461 0 0 1 2.356-2.097 11.9 11.9 0 0 1 1.472-.858c.06.22.079.42.118.579.275 1.637.275 3.234-.55 4.712-.687 1.218-1.63 2.236-2.729 3.094-.412.32-.824.58-1.256.859.805 2.096 1.728 4.133 2.827 6.07 0-.12 0-.2-.02-.28-.059-.54-.137-1.138-.196-1.677a5.277 5.277 0 0 1 .589-2.895c.57-1.038 1.335-1.937 2.238-2.716.334-.26.668-.539 1.02-.858.492 1.178.767 2.316.806 3.474 0 .659-.04 1.318-.295 1.956a11.52 11.52 0 0 1-3.101 4.493c-.158.12-.138.2-.06.36a55.327 55.327 0 0 0 3.004 4.471s-.196.4-1.511-.459c-.314-.459-.629-.898-.923-1.397a90.378 90.378 0 0 1-1.787-2.955c-.117-.26-.235-.34-.51-.26-1.728.4-3.475.4-5.183-.08-1.217-.32-2.199-1.098-3.004-2.036-.353-.42-.667-.939-1-1.358-.02-.08-.06-.12-.1-.2l.119-.08c1.374-.459 2.787-.698 4.22-.578 1.434.08 2.592.778 3.613 1.797.236.24.452.459.726.658-.02-.08-.059-.16-.098-.24a53.484 53.484 0 0 1-2.395-5.69c-.059-.199-.137-.239-.334-.239-1.708.12-3.376-.2-4.947-.898-1.217-.54-2.061-1.478-2.71-2.616-.313-.499-.549-1.078-.843-1.697.569 0 1.08-.08 1.59-.08.981-.04 1.963.04 2.925.3 1.315.399 2.238 1.218 3.023 2.296.197.24.354.479.51.718-.49-2.136-.98-4.292-1.472-6.428-.785-.2-1.63-.36-2.414-.62-1.218-.419-2.356-1.018-3.26-1.996-.785-.858-1.59-2.735-1.688-3.893h.04c1.688.02 3.317.34 4.79 1.278.903.539 1.472 1.437 1.943 2.376.118.2.216.399.354.618-.197-2.136-.275-4.252-.118-6.388-1.06-.32-2.022-.74-2.906-1.318-1.295-.859-2.414-1.877-2.886-3.434a9.274 9.274 0 0 1-.431-2.536c-.02-.08 0-.16 0-.36.746.28 1.472.48 2.16.7.941.399 1.805.898 2.532 1.677.628.678.962 1.497 1.236 2.336.118.399.216.798.373 1.177 0-.12.02-.16.02-.279.177-2.056.452-4.093.864-6.11.04-.2.02-.359-.216-.439A9.502 9.502 0 0 1 5.68 29.32c-.687-1.058-.844-2.216-.824-3.474 0-.459.059-.898.118-1.437.589.32 1.158.559 1.649.858 1.1.64 2.061 1.418 2.69 2.536.49.858.608 1.837.687 2.815.039.3.039.619.117.898l.06-.24c.51-2.056 1.118-4.132 1.904-6.128.078-.2.078-.32-.099-.42-1.354-.978-2.375-2.216-3.121-3.753-.59-1.218-.59-2.456-.334-3.714.079-.46.196-.878.314-1.338l.04-.04c.863.54 1.668 1.159 2.355 1.937 1.06 1.138 1.63 2.456 1.512 4.093-.04.58-.098 1.218-.137 1.917.039-.08.058-.12.078-.2.432-.898.864-1.797 1.296-2.715.04-.12.04-.24.04-.36-.04-.818-.02-1.637.195-2.455.157-.62.393-1.258.845-1.717.53-.58 1.158-1.019 1.825-1.398.354-.24.707-.4 1.08-.579.06 0 .098.04.157.04-.02.3-.078.579-.098.878-.04 1.099-.294 2.197-.785 3.155Z"/>
  </mask>
  <path d="M17.244 18.478c-.609 1.258-1.689 1.917-2.886 2.396-.138.08-.275.2-.334.32-.451 1.018-.883 2.076-1.315 3.074-.157.38-.275.739-.452 1.198.51-.659.962-1.218 1.414-1.757.824-.978 1.806-1.717 3.121-1.917 1.335-.22 2.67-.1 3.986.24.039.04.059.04.137.08-.334.499-.628 1.018-.942 1.477-.687.899-1.512 1.637-2.611 2.037-1.571.499-3.18.619-4.79.359-.158-.06-.295-.08-.452-.12a46.489 46.489 0 0 0-1.865 7.128c.314-.46.589-.978.864-1.438.687-1.178 1.55-2.116 2.866-2.575a9.092 9.092 0 0 1 3.082-.52c.334 0 .687.04 1.1.04-.197.48-.334.9-.491 1.298-.51 1.099-1.139 2.057-2.16 2.696-1.217.818-2.591 1.218-4.024 1.357-.452.04-.943.08-1.414.12a50.865 50.865 0 0 0-.707 7.368c.079-.08.098-.2.138-.32.157-.46.333-.938.51-1.438.55-1.437 1.473-2.535 2.867-3.194.961-.44 1.982-.699 3.023-.858.176 0 .353-.04.55-.08v.24c-.04.219-.079.498-.138.778-.334 1.437-.883 2.815-2.1 3.753-1.277 1.059-2.769 1.718-4.398 2.077-.157.02-.314.02-.51.06-.04 2.535.156 5.031.588 7.527.177-.819.315-1.598.472-2.376.255-1.098.785-2.077 1.629-2.815 1.06-.899 2.297-1.478 3.593-1.957.137 0 .275-.08.49-.12-.02.719-.039 1.338-.117 1.957-.138 1.138-.452 2.176-1.178 3.035-1.237 1.437-2.73 2.535-4.516 3.154-.058 0-.117.04-.196.08.452 2.316 1.06 4.572 1.885 6.748.039-.399 0-.778.02-1.178.019-1.317.235-2.555 1.04-3.613a8.461 8.461 0 0 1 2.356-2.097 11.9 11.9 0 0 1 1.472-.858c.06.22.079.42.118.579.275 1.637.275 3.234-.55 4.712-.687 1.218-1.63 2.236-2.729 3.094-.412.32-.824.58-1.256.859.805 2.096 1.728 4.133 2.827 6.07 0-.12 0-.2-.02-.28-.059-.54-.137-1.138-.196-1.677a5.277 5.277 0 0 1 .589-2.895c.57-1.038 1.335-1.937 2.238-2.716.334-.26.668-.539 1.02-.858.492 1.178.767 2.316.806 3.474 0 .659-.04 1.318-.295 1.956a11.52 11.52 0 0 1-3.101 4.493c-.158.12-.138.2-.06.36a55.327 55.327 0 0 0 3.004 4.471s-.196.4-1.511-.459c-.314-.459-.629-.898-.923-1.397a90.378 90.378 0 0 1-1.787-2.955c-.117-.26-.235-.34-.51-.26-1.728.4-3.475.4-5.183-.08-1.217-.32-2.199-1.098-3.004-2.036-.353-.42-.667-.939-1-1.358-.02-.08-.06-.12-.1-.2l.119-.08c1.374-.459 2.787-.698 4.22-.578 1.434.08 2.592.778 3.613 1.797.236.24.452.459.726.658-.02-.08-.059-.16-.098-.24a53.484 53.484 0 0 1-2.395-5.69c-.059-.199-.137-.239-.334-.239-1.708.12-3.376-.2-4.947-.898-1.217-.54-2.061-1.478-2.71-2.616-.313-.499-.549-1.078-.843-1.697.569 0 1.08-.08 1.59-.08.981-.04 1.963.04 2.925.3 1.315.399 2.238 1.218 3.023 2.296.197.24.354.479.51.718-.49-2.136-.98-4.292-1.472-6.428-.785-.2-1.63-.36-2.414-.62-1.218-.419-2.356-1.018-3.26-1.996-.785-.858-1.59-2.735-1.688-3.893h.04c1.688.02 3.317.34 4.79 1.278.903.539 1.472 1.437 1.943 2.376.118.2.216.399.354.618-.197-2.136-.275-4.252-.118-6.388-1.06-.32-2.022-.74-2.906-1.318-1.295-.859-2.414-1.877-2.886-3.434a9.274 9.274 0 0 1-.431-2.536c-.02-.08 0-.16 0-.36.746.28 1.472.48 2.16.7.941.399 1.805.898 2.532 1.677.628.678.962 1.497 1.236 2.336.118.399.216.798.373 1.177 0-.12.02-.16.02-.279.177-2.056.452-4.093.864-6.11.04-.2.02-.359-.216-.439A9.502 9.502 0 0 1 5.68 29.32c-.687-1.058-.844-2.216-.824-3.474 0-.459.059-.898.118-1.437.589.32 1.158.559 1.649.858 1.1.64 2.061 1.418 2.69 2.536.49.858.608 1.837.687 2.815.039.3.039.619.117.898l.06-.24c.51-2.056 1.118-4.132 1.904-6.128.078-.2.078-.32-.099-.42-1.354-.978-2.375-2.216-3.121-3.753-.59-1.218-.59-2.456-.334-3.714.079-.46.196-.878.314-1.338l.04-.04c.863.54 1.668 1.159 2.355 1.937 1.06 1.138 1.63 2.456 1.512 4.093-.04.58-.098 1.218-.137 1.917.039-.08.058-.12.078-.2.432-.898.864-1.797 1.296-2.715.04-.12.04-.24.04-.36-.04-.818-.02-1.637.195-2.455.157-.62.393-1.258.845-1.717.53-.58 1.158-1.019 1.825-1.398.354-.24.707-.4 1.08-.579.06 0 .098.04.157.04-.02.3-.078.579-.098.878-.04 1.099-.294 2.197-.785 3.155Z" stroke="#A05500" stroke-width="2.15" stroke-linejoin="round" mask="url(#j)"/>
  <g style="mix-blend-mode:color-burn">
    <mask id="k" maskUnits="userSpaceOnUse" x="58.059" y="13.265" width="23" height="61" fill="#000">
      <path fill="#fff" d="M58.059 13.265h23v61h-23z"/>
      <path d="M63.73 19.338c.609 1.258 1.689 1.917 2.886 2.396.138.08.275.2.334.32.451 1.018.883 2.076 1.315 3.074.157.38.275.739.452 1.198a58.085 58.085 0 0 0-1.414-1.757c-.824-.978-1.806-1.717-3.121-1.917-1.335-.22-2.67-.1-3.986.24-.039.04-.058.04-.137.08.334.499.628 1.018.942 1.477.688.899 1.512 1.637 2.611 2.037 1.571.499 3.18.619 4.79.36.158-.06.295-.08.452-.12a46.466 46.466 0 0 1 1.865 7.127c-.314-.46-.589-.978-.863-1.438-.688-1.177-1.551-2.116-2.867-2.575a9.09 9.09 0 0 0-3.082-.52c-.334 0-.687.04-1.1.04.197.48.334.9.491 1.299.51 1.098 1.14 2.056 2.16 2.695 1.217.819 2.591 1.218 4.025 1.358.451.04.942.08 1.413.12.412 2.415.648 4.87.707 7.367-.079-.08-.098-.2-.138-.32-.157-.46-.333-.938-.51-1.437-.55-1.438-1.472-2.536-2.866-3.195-.962-.44-1.983-.699-3.024-.858-.176 0-.353-.04-.55-.08v.24c.04.219.08.498.138.778.334 1.438.883 2.815 2.1 3.754 1.277 1.058 2.769 1.717 4.398 2.076.157.02.314.02.51.06a40.27 40.27 0 0 1-.588 7.527c-.177-.819-.314-1.597-.471-2.376-.256-1.098-.786-2.077-1.63-2.815-1.06-.899-2.297-1.478-3.593-1.957-.137 0-.274-.08-.49-.12.02.72.039 1.338.117 1.957.138 1.138.452 2.176 1.178 3.035 1.237 1.437 2.73 2.535 4.516 3.154.059 0 .117.04.196.08-.451 2.316-1.06 4.572-1.885 6.748-.039-.399 0-.778-.02-1.177-.019-1.318-.235-2.556-1.04-3.614a8.462 8.462 0 0 0-2.356-2.097c-.47-.319-.942-.598-1.472-.858-.059.22-.079.42-.118.579-.275 1.637-.275 3.234.55 4.712.687 1.218 1.63 2.236 2.729 3.094.412.32.824.58 1.256.859-.805 2.096-1.727 4.133-2.827 6.07 0-.12 0-.2.02-.28.059-.54.137-1.138.196-1.677a5.277 5.277 0 0 0-.589-2.895c-.57-1.038-1.335-1.937-2.238-2.715-.334-.26-.667-.54-1.02-.859-.492 1.178-.767 2.316-.806 3.474 0 .659.04 1.318.295 1.957a11.52 11.52 0 0 0 3.102 4.492c.157.12.137.2.059.36a55.354 55.354 0 0 1-3.004 4.472s.196.399 1.511-.46c.315-.459.629-.898.923-1.397.609-.979 1.217-1.957 1.787-2.955.118-.26.235-.34.51-.26 1.728.4 3.475.4 5.183-.08 1.217-.319 2.199-1.098 3.004-2.036.353-.42.667-.939 1.001-1.358.02-.08.059-.12.098-.2l-.118-.08c-1.374-.459-2.787-.698-4.22-.578-1.434.08-2.592.778-3.613 1.797-.235.24-.451.459-.726.659.02-.08.059-.16.098-.24a53.47 53.47 0 0 0 2.395-5.69c.059-.2.137-.24.334-.24 1.708.12 3.377-.2 4.947-.898 1.217-.54 2.061-1.478 2.71-2.616.313-.499.55-1.078.844-1.697-.57 0-1.08-.08-1.59-.08-.982-.04-1.964.04-2.926.3-1.315.4-2.238 1.218-3.023 2.296-.197.24-.354.479-.51.719.49-2.137.981-4.293 1.472-6.43.785-.199 1.63-.359 2.415-.618 1.217-.42 2.355-1.018 3.259-1.997.785-.858 1.59-2.735 1.688-3.893h-.04c-1.688.02-3.317.34-4.79 1.278-.903.539-1.472 1.437-1.943 2.376-.118.2-.216.399-.354.619.197-2.137.275-4.253.118-6.39 1.06-.319 2.022-.738 2.906-1.317 1.295-.859 2.415-1.877 2.886-3.434a9.277 9.277 0 0 0 .432-2.536c.02-.08 0-.16 0-.36-.746.28-1.473.48-2.16.7-.942.399-1.806.898-2.532 1.677-.629.678-.962 1.497-1.237 2.336-.118.399-.216.798-.373 1.178 0-.12-.02-.16-.02-.28a53.172 53.172 0 0 0-.864-6.11c-.04-.199-.02-.359.216-.439a9.502 9.502 0 0 0 3.868-3.434c.687-1.058.844-2.216.824-3.474 0-.459-.059-.898-.118-1.437-.588.32-1.158.559-1.649.858-1.1.64-2.061 1.418-2.69 2.536-.49.858-.608 1.837-.686 2.815-.04.3-.04.62-.118.899l-.06-.24c-.51-2.057-1.118-4.133-1.903-6.13-.079-.2-.079-.319.098-.419 1.354-.978 2.375-2.216 3.121-3.753.59-1.218.59-2.456.334-3.714-.079-.459-.196-.878-.314-1.338l-.04-.04c-.863.54-1.668 1.159-2.355 1.937-1.06 1.138-1.63 2.456-1.512 4.093.04.58.098 1.218.138 1.917a.84.84 0 0 1-.079-.2c-.432-.898-.864-1.797-1.296-2.715-.039-.12-.039-.24-.039-.36.04-.818.02-1.637-.196-2.455-.157-.62-.393-1.258-.845-1.717-.53-.58-1.158-1.018-1.825-1.398-.354-.24-.707-.4-1.08-.579-.059 0-.098.04-.157.04.02.3.078.58.098.878.04 1.099.294 2.197.785 3.155Z"/>
    </mask>
    <path d="M63.73 19.338c.609 1.258 1.689 1.917 2.886 2.396.138.08.275.2.334.32.451 1.018.883 2.076 1.315 3.074.157.38.275.739.452 1.198a58.085 58.085 0 0 0-1.414-1.757c-.824-.978-1.806-1.717-3.121-1.917-1.335-.22-2.67-.1-3.986.24-.039.04-.058.04-.137.08.334.499.628 1.018.942 1.477.688.899 1.512 1.637 2.611 2.037 1.571.499 3.18.619 4.79.36.158-.06.295-.08.452-.12a46.466 46.466 0 0 1 1.865 7.127c-.314-.46-.589-.978-.863-1.438-.688-1.177-1.551-2.116-2.867-2.575a9.09 9.09 0 0 0-3.082-.52c-.334 0-.687.04-1.1.04.197.48.334.9.491 1.299.51 1.098 1.14 2.056 2.16 2.695 1.217.819 2.591 1.218 4.025 1.358.451.04.942.08 1.413.12.412 2.415.648 4.87.707 7.367-.079-.08-.098-.2-.138-.32-.157-.46-.333-.938-.51-1.437-.55-1.438-1.472-2.536-2.866-3.195-.962-.44-1.983-.699-3.024-.858-.176 0-.353-.04-.55-.08v.24c.04.219.08.498.138.778.334 1.438.883 2.815 2.1 3.754 1.277 1.058 2.769 1.717 4.398 2.076.157.02.314.02.51.06a40.27 40.27 0 0 1-.588 7.527c-.177-.819-.314-1.597-.471-2.376-.256-1.098-.786-2.077-1.63-2.815-1.06-.899-2.297-1.478-3.593-1.957-.137 0-.274-.08-.49-.12.02.72.039 1.338.117 1.957.138 1.138.452 2.176 1.178 3.035 1.237 1.437 2.73 2.535 4.516 3.154.059 0 .117.04.196.08-.451 2.316-1.06 4.572-1.885 6.748-.039-.399 0-.778-.02-1.177-.019-1.318-.235-2.556-1.04-3.614a8.462 8.462 0 0 0-2.356-2.097c-.47-.319-.942-.598-1.472-.858-.059.22-.079.42-.118.579-.275 1.637-.275 3.234.55 4.712.687 1.218 1.63 2.236 2.729 3.094.412.32.824.58 1.256.859-.805 2.096-1.727 4.133-2.827 6.07 0-.12 0-.2.02-.28.059-.54.137-1.138.196-1.677a5.277 5.277 0 0 0-.589-2.895c-.57-1.038-1.335-1.937-2.238-2.715-.334-.26-.667-.54-1.02-.859-.492 1.178-.767 2.316-.806 3.474 0 .659.04 1.318.295 1.957a11.52 11.52 0 0 0 3.102 4.492c.157.12.137.2.059.36a55.354 55.354 0 0 1-3.004 4.472s.196.399 1.511-.46c.315-.459.629-.898.923-1.397.609-.979 1.217-1.957 1.787-2.955.118-.26.235-.34.51-.26 1.728.4 3.475.4 5.183-.08 1.217-.319 2.199-1.098 3.004-2.036.353-.42.667-.939 1.001-1.358.02-.08.059-.12.098-.2l-.118-.08c-1.374-.459-2.787-.698-4.22-.578-1.434.08-2.592.778-3.613 1.797-.235.24-.451.459-.726.659.02-.08.059-.16.098-.24a53.47 53.47 0 0 0 2.395-5.69c.059-.2.137-.24.334-.24 1.708.12 3.377-.2 4.947-.898 1.217-.54 2.061-1.478 2.71-2.616.313-.499.55-1.078.844-1.697-.57 0-1.08-.08-1.59-.08-.982-.04-1.964.04-2.926.3-1.315.4-2.238 1.218-3.023 2.296-.197.24-.354.479-.51.719.49-2.137.981-4.293 1.472-6.43.785-.199 1.63-.359 2.415-.618 1.217-.42 2.355-1.018 3.259-1.997.785-.858 1.59-2.735 1.688-3.893h-.04c-1.688.02-3.317.34-4.79 1.278-.903.539-1.472 1.437-1.943 2.376-.118.2-.216.399-.354.619.197-2.137.275-4.253.118-6.39 1.06-.319 2.022-.738 2.906-1.317 1.295-.859 2.415-1.877 2.886-3.434a9.277 9.277 0 0 0 .432-2.536c.02-.08 0-.16 0-.36-.746.28-1.473.48-2.16.7-.942.399-1.806.898-2.532 1.677-.629.678-.962 1.497-1.237 2.336-.118.399-.216.798-.373 1.178 0-.12-.02-.16-.02-.28a53.172 53.172 0 0 0-.864-6.11c-.04-.199-.02-.359.216-.439a9.502 9.502 0 0 0 3.868-3.434c.687-1.058.844-2.216.824-3.474 0-.459-.059-.898-.118-1.437-.588.32-1.158.559-1.649.858-1.1.64-2.061 1.418-2.69 2.536-.49.858-.608 1.837-.686 2.815-.04.3-.04.62-.118.899l-.06-.24c-.51-2.057-1.118-4.133-1.903-6.13-.079-.2-.079-.319.098-.419 1.354-.978 2.375-2.216 3.121-3.753.59-1.218.59-2.456.334-3.714-.079-.459-.196-.878-.314-1.338l-.04-.04c-.863.54-1.668 1.159-2.355 1.937-1.06 1.138-1.63 2.456-1.512 4.093.04.58.098 1.218.138 1.917a.84.84 0 0 1-.079-.2c-.432-.898-.864-1.797-1.296-2.715-.039-.12-.039-.24-.039-.36.04-.818.02-1.637-.196-2.455-.157-.62-.393-1.258-.845-1.717-.53-.58-1.158-1.018-1.825-1.398-.354-.24-.707-.4-1.08-.579-.059 0-.098.04-.157.04.02.3.078.58.098.878.04 1.099.294 2.197.785 3.155Z" fill="#000" fill-opacity=".16"/>
    <path d="M63.73 19.338c.609 1.258 1.689 1.917 2.886 2.396.138.08.275.2.334.32.451 1.018.883 2.076 1.315 3.074.157.38.275.739.452 1.198a58.085 58.085 0 0 0-1.414-1.757c-.824-.978-1.806-1.717-3.121-1.917-1.335-.22-2.67-.1-3.986.24-.039.04-.058.04-.137.08.334.499.628 1.018.942 1.477.688.899 1.512 1.637 2.611 2.037 1.571.499 3.18.619 4.79.36.158-.06.295-.08.452-.12a46.466 46.466 0 0 1 1.865 7.127c-.314-.46-.589-.978-.863-1.438-.688-1.177-1.551-2.116-2.867-2.575a9.09 9.09 0 0 0-3.082-.52c-.334 0-.687.04-1.1.04.197.48.334.9.491 1.299.51 1.098 1.14 2.056 2.16 2.695 1.217.819 2.591 1.218 4.025 1.358.451.04.942.08 1.413.12.412 2.415.648 4.87.707 7.367-.079-.08-.098-.2-.138-.32-.157-.46-.333-.938-.51-1.437-.55-1.438-1.472-2.536-2.866-3.195-.962-.44-1.983-.699-3.024-.858-.176 0-.353-.04-.55-.08v.24c.04.219.08.498.138.778.334 1.438.883 2.815 2.1 3.754 1.277 1.058 2.769 1.717 4.398 2.076.157.02.314.02.51.06a40.27 40.27 0 0 1-.588 7.527c-.177-.819-.314-1.597-.471-2.376-.256-1.098-.786-2.077-1.63-2.815-1.06-.899-2.297-1.478-3.593-1.957-.137 0-.274-.08-.49-.12.02.72.039 1.338.117 1.957.138 1.138.452 2.176 1.178 3.035 1.237 1.437 2.73 2.535 4.516 3.154.059 0 .117.04.196.08-.451 2.316-1.06 4.572-1.885 6.748-.039-.399 0-.778-.02-1.177-.019-1.318-.235-2.556-1.04-3.614a8.462 8.462 0 0 0-2.356-2.097c-.47-.319-.942-.598-1.472-.858-.059.22-.079.42-.118.579-.275 1.637-.275 3.234.55 4.712.687 1.218 1.63 2.236 2.729 3.094.412.32.824.58 1.256.859-.805 2.096-1.727 4.133-2.827 6.07 0-.12 0-.2.02-.28.059-.54.137-1.138.196-1.677a5.277 5.277 0 0 0-.589-2.895c-.57-1.038-1.335-1.937-2.238-2.715-.334-.26-.667-.54-1.02-.859-.492 1.178-.767 2.316-.806 3.474 0 .659.04 1.318.295 1.957a11.52 11.52 0 0 0 3.102 4.492c.157.12.137.2.059.36a55.354 55.354 0 0 1-3.004 4.472s.196.399 1.511-.46c.315-.459.629-.898.923-1.397.609-.979 1.217-1.957 1.787-2.955.118-.26.235-.34.51-.26 1.728.4 3.475.4 5.183-.08 1.217-.319 2.199-1.098 3.004-2.036.353-.42.667-.939 1.001-1.358.02-.08.059-.12.098-.2l-.118-.08c-1.374-.459-2.787-.698-4.22-.578-1.434.08-2.592.778-3.613 1.797-.235.24-.451.459-.726.659.02-.08.059-.16.098-.24a53.47 53.47 0 0 0 2.395-5.69c.059-.2.137-.24.334-.24 1.708.12 3.377-.2 4.947-.898 1.217-.54 2.061-1.478 2.71-2.616.313-.499.55-1.078.844-1.697-.57 0-1.08-.08-1.59-.08-.982-.04-1.964.04-2.926.3-1.315.4-2.238 1.218-3.023 2.296-.197.24-.354.479-.51.719.49-2.137.981-4.293 1.472-6.43.785-.199 1.63-.359 2.415-.618 1.217-.42 2.355-1.018 3.259-1.997.785-.858 1.59-2.735 1.688-3.893h-.04c-1.688.02-3.317.34-4.79 1.278-.903.539-1.472 1.437-1.943 2.376-.118.2-.216.399-.354.619.197-2.137.275-4.253.118-6.39 1.06-.319 2.022-.738 2.906-1.317 1.295-.859 2.415-1.877 2.886-3.434a9.277 9.277 0 0 0 .432-2.536c.02-.08 0-.16 0-.36-.746.28-1.473.48-2.16.7-.942.399-1.806.898-2.532 1.677-.629.678-.962 1.497-1.237 2.336-.118.399-.216.798-.373 1.178 0-.12-.02-.16-.02-.28a53.172 53.172 0 0 0-.864-6.11c-.04-.199-.02-.359.216-.439a9.502 9.502 0 0 0 3.868-3.434c.687-1.058.844-2.216.824-3.474 0-.459-.059-.898-.118-1.437-.588.32-1.158.559-1.649.858-1.1.64-2.061 1.418-2.69 2.536-.49.858-.608 1.837-.686 2.815-.04.3-.04.62-.118.899l-.06-.24c-.51-2.057-1.118-4.133-1.903-6.13-.079-.2-.079-.319.098-.419 1.354-.978 2.375-2.216 3.121-3.753.59-1.218.59-2.456.334-3.714-.079-.459-.196-.878-.314-1.338l-.04-.04c-.863.54-1.668 1.159-2.355 1.937-1.06 1.138-1.63 2.456-1.512 4.093.04.58.098 1.218.138 1.917a.84.84 0 0 1-.079-.2c-.432-.898-.864-1.797-1.296-2.715-.039-.12-.039-.24-.039-.36.04-.818.02-1.637-.196-2.455-.157-.62-.393-1.258-.845-1.717-.53-.58-1.158-1.018-1.825-1.398-.354-.24-.707-.4-1.08-.579-.059 0-.098.04-.157.04.02.3.078.58.098.878.04 1.099.294 2.197.785 3.155Z" stroke="#000" stroke-opacity=".16" stroke-width="2.15" stroke-linejoin="round" mask="url(#k)"/>
  </g>
  <path d="M65.02 18.478c.61 1.258 1.69 1.917 2.887 2.396.137.08.275.2.334.32.451 1.018.883 2.076 1.315 3.074.157.38.275.739.451 1.198a57.93 57.93 0 0 0-1.413-1.757c-.825-.978-1.806-1.717-3.122-1.917-1.335-.22-2.67-.1-3.985.24-.04.04-.059.04-.137.08.333.499.628 1.018.942 1.477.687.899 1.512 1.637 2.611 2.037 1.57.499 3.18.619 4.79.359.157-.06.295-.08.452-.12a46.466 46.466 0 0 1 1.865 7.128c-.314-.46-.59-.978-.864-1.438-.687-1.178-1.55-2.116-2.866-2.575a9.093 9.093 0 0 0-3.082-.52c-.334 0-.688.04-1.1.04.196.48.334.9.49 1.298.511 1.099 1.14 2.057 2.16 2.696 1.218.818 2.592 1.218 4.025 1.357.452.04.942.08 1.414.12.412 2.416.648 4.872.706 7.368-.078-.08-.098-.2-.137-.32-.157-.46-.334-.938-.51-1.438-.55-1.437-1.473-2.535-2.867-3.194-.962-.44-1.983-.699-3.023-.858-.177 0-.354-.04-.55-.08v.24c.04.219.079.498.138.778.333 1.437.883 2.815 2.1 3.753 1.276 1.059 2.768 1.718 4.398 2.077.157.02.314.02.51.06a40.27 40.27 0 0 1-.589 7.527c-.176-.819-.314-1.598-.47-2.376-.256-1.098-.786-2.077-1.63-2.815-1.06-.899-2.297-1.478-3.593-1.957-.138 0-.275-.08-.49-.12.019.719.038 1.338.117 1.957.137 1.138.452 2.176 1.178 3.035 1.237 1.437 2.729 2.535 4.515 3.154.06 0 .118.04.197.08-.452 2.316-1.06 4.572-1.885 6.748-.04-.399 0-.778-.02-1.178-.02-1.317-.235-2.555-1.04-3.613a8.461 8.461 0 0 0-2.356-2.097c-.471-.32-.942-.599-1.472-.858-.06.22-.08.42-.118.579-.275 1.637-.275 3.234.55 4.712.686 1.218 1.629 2.236 2.728 3.094.413.32.825.58 1.257.859-.805 2.096-1.728 4.133-2.827 6.07 0-.12 0-.2.02-.28.058-.54.137-1.138.196-1.677a5.277 5.277 0 0 0-.59-2.895c-.569-1.038-1.334-1.937-2.237-2.716-.334-.26-.668-.539-1.021-.858-.491 1.178-.766 2.316-.805 3.474 0 .659.04 1.318.294 1.956a11.52 11.52 0 0 0 3.102 4.493c.157.12.138.2.06.36a55.328 55.328 0 0 1-3.005 4.471s.197.4 1.512-.459c.314-.459.628-.898.923-1.397a90.557 90.557 0 0 0 1.786-2.955c.118-.26.236-.34.51-.26 1.728.4 3.476.4 5.184-.08 1.217-.32 2.198-1.098 3.003-2.036.354-.42.668-.939 1.002-1.358.02-.08.058-.12.098-.2l-.118-.08c-1.374-.459-2.788-.698-4.221-.578-1.433.08-2.591.778-3.612 1.797-.236.24-.452.459-.727.658.02-.08.06-.16.099-.24a53.463 53.463 0 0 0 2.395-5.69c.058-.199.137-.239.333-.239 1.708.12 3.377-.2 4.948-.898 1.217-.54 2.061-1.478 2.709-2.616.314-.499.55-1.078.844-1.697-.57 0-1.08-.08-1.59-.08-.982-.04-1.963.04-2.925.3-1.316.399-2.238 1.218-3.024 2.296-.196.24-.353.479-.51.718.49-2.136.981-4.292 1.472-6.428.786-.2 1.63-.36 2.415-.62 1.217-.419 2.356-1.018 3.259-1.996.785-.858 1.59-2.735 1.688-3.893h-.039c-1.688.02-3.318.34-4.79 1.278-.903.539-1.473 1.437-1.944 2.376-.117.2-.216.399-.353.618.196-2.136.275-4.252.118-6.388 1.06-.32 2.022-.74 2.905-1.318 1.296-.859 2.415-1.877 2.886-3.434a9.274 9.274 0 0 0 .432-2.536c.02-.08 0-.16 0-.36-.746.28-1.472.48-2.16.7-.942.399-1.806.898-2.532 1.677-.628.678-.962 1.497-1.237 2.336-.118.399-.216.798-.373 1.177 0-.12-.02-.16-.02-.279a53.172 53.172 0 0 0-.863-6.11c-.04-.2-.02-.359.216-.439a9.502 9.502 0 0 0 3.867-3.434c.687-1.058.844-2.216.825-3.474 0-.459-.06-.898-.118-1.437-.589.32-1.158.559-1.65.858-1.099.64-2.06 1.418-2.689 2.536-.49.858-.608 1.837-.687 2.815-.04.3-.04.619-.118.898l-.059-.24c-.51-2.056-1.119-4.132-1.904-6.128-.078-.2-.078-.32.098-.42 1.355-.978 2.376-2.216 3.122-3.753.589-1.218.589-2.456.334-3.714-.079-.46-.197-.878-.315-1.338l-.039-.04c-.864.54-1.669 1.159-2.356 1.937-1.06 1.138-1.63 2.456-1.511 4.093.039.58.098 1.218.137 1.917-.04-.08-.059-.12-.078-.2-.432-.898-.864-1.797-1.296-2.715-.04-.12-.04-.24-.04-.36.04-.818.02-1.637-.196-2.455-.157-.62-.392-1.258-.844-1.717-.53-.58-1.158-1.019-1.826-1.398-.353-.24-.706-.4-1.08-.579-.058 0-.098.04-.157.04.02.3.079.579.099.878.039 1.099.294 2.197.785 3.155Z" fill="#FFD57C"/>
  <path fill-rule="evenodd" clip-rule="evenodd" d="M65.368 50.048c1.26 3.725 2.24 5.92 4.306 8.903l.622-1.432.007.071c.071-.188.14-.376.209-.566l.068-.157.043-.157a41.608 41.608 0 0 0 1.435-5.228l.027-.097.015-.104c.03-.146.059-.292.087-.439a1.65 1.65 0 0 1-.023-.012l.161-1.128.04.182a40.27 40.27 0 0 0 .588-7.527 2.055 2.055 0 0 0-.132-.023l-.064-1.314c.009.026.016.052.023.077.027.092.053.179.114.242a50.868 50.868 0 0 0-.707-7.368l-.045-.004-.278-1.197c.048.076.097.15.147.223a46.477 46.477 0 0 0-1.865-7.128 4.692 4.692 0 0 1-.14.033c-.103.023-.203.045-.312.087-1.61.26-3.22.14-4.79-.36-1.1-.399-1.924-1.137-2.611-2.036-.165-.24-.324-.497-.486-.759l-.046-.074c2.923 1.732 5.053 2.57 8.135 3.108l-.42-1.076c.171.215.348.44.532.678-.073-.19-.136-.362-.195-.526a16.395 16.395 0 0 0-.256-.672c-.177-.409-.354-.827-.532-1.25-.257-.608-.517-1.223-.784-1.825a.725.725 0 0 0-.203-.23h.266c.264.562.53 1.118.794 1.67.583 1.313 1.28 3.001 1.88 4.729a56.373 56.373 0 0 1 1.111 3.914l.06.24c0-.006.002-.012.004-.018.785 3.807 1.116 7.948 1.336 10.698l.046.568c.045 1.655-.037 3.303-.19 4.963.032-.05.062-.1.09-.148a49.259 49.259 0 0 1-.342 2.46c-.24 1.043-.48 2.09-.719 3.139-.245 1.073-.49 2.146-.736 3.214l.072-.11c-.215.752-.44 1.46-.67 2.1-.095.025-.146.086-.188.227-.34.96-.71 1.916-1.107 2.86-.46 1.044-.881 1.974-1.277 2.809l-.01.02a43.56 43.56 0 0 1-1.103 2.186.764.764 0 0 0-.115.19c-.242.426-.492.848-.746 1.267-.33.51-.653 1.042-.95 1.544l-.09.144c-.24.408-.494.775-.75 1.146l-.173.252c-1.316.859-1.512.46-1.512.46a55.345 55.345 0 0 0 3.004-4.473c.07-.143.093-.222-.016-.323l1.017-1.816v.003c-.02.08-.02.16-.02.28 1.1-1.937 2.023-3.974 2.828-6.07l-.14-.09a15.432 15.432 0 0 1-1.117-.769c-1.1-.858-2.042-1.877-2.729-3.094-.824-1.478-.824-3.075-.55-4.712.017-.068.03-.144.045-.225l.027-.15Zm-2.02 6.741c.756 4.36 1.307 6.715 2.541 9.798a11.522 11.522 0 0 1-3.027-4.425c-.255-.638-.294-1.297-.294-1.956.038-1.14.305-2.26.78-3.417Zm4.636 9.678c3.288-.513 5.542-1.555 8.85-3.39-.115.151-.227.312-.34.473-.18.258-.363.518-.557.749-.805.938-1.786 1.717-3.004 2.036-1.63.458-3.297.479-4.949.132Zm3.407-8.086c2.815-1.035 4.77-2.366 8.195-5.008l-.12.26c-.202.44-.391.853-.623 1.222-.648 1.138-1.492 2.077-2.71 2.616-1.507.67-3.106.992-4.742.91Zm2.105-8.512c2.841-1.502 4.333-3.052 6.77-6.411l.167-.003h.039c-.098 1.159-.903 3.035-1.688 3.893-.903.978-2.042 1.577-3.26 1.997-.532.176-1.093.306-1.644.434l-.384.09Zm.312-8.64c2.33-1.937 3.623-3.769 5.679-7.464l.189-.07.011.028c0 .064.003.115.005.157.004.075.007.123-.005.171a9.274 9.274 0 0 1-.432 2.536c-.471 1.557-1.59 2.575-2.886 3.434-.787.515-1.636.904-2.56 1.209Zm-1.045-8.498c1.973-2.34 3.043-4.093 4.543-8.196l.013.117c.049.432.09.805.09 1.193.02 1.258-.137 2.416-.824 3.474a9.498 9.498 0 0 1-3.822 3.412Zm-2.598-7.9-.013.002c1.854-3.367 2.529-5.369 3.279-8.886l.054.21c.097.37.188.723.253 1.103.256 1.258.256 2.496-.333 3.714-.746 1.537-1.767 2.775-3.122 3.753a.316.316 0 0 0-.118.104Zm-5.989-10.03c.983 2.306 1.84 3.828 3.643 6.037-1.162-.476-2.204-1.133-2.797-2.36-.491-.958-.746-2.056-.786-3.155-.01-.15-.03-.294-.049-.439l-.01-.082Zm.103 14.16c2.761 2.514 4.659 3.892 7.418 4.969-.314-.026-.627-.052-.923-.079-1.433-.14-2.808-.539-4.025-1.357-1.02-.64-1.649-1.598-2.16-2.696-.065-.168-.128-.34-.193-.517l-.117-.32Zm1.53 6.739c2.63 3.116 4.3 4.832 6.994 6.632-.068-.009-.131-.014-.193-.019a3.842 3.842 0 0 1-.167-.016c-1.63-.36-3.122-1.018-4.398-2.077-1.217-.938-1.767-2.316-2.1-3.753a12.05 12.05 0 0 1-.098-.541l-.038-.226Zm.38 7.236c2.142 3.5 3.57 5.612 5.658 7.775-1.723-.627-3.168-1.705-4.371-3.103-.727-.859-1.04-1.897-1.178-3.035a16.97 16.97 0 0 1-.109-1.637Z" fill="#E1910E"/>
  <mask id="l" maskUnits="userSpaceOnUse" x="59.35" y="12.405" width="23" height="61" fill="#000">
    <path fill="#fff" d="M59.35 12.405h23v61h-23z"/>
    <path d="M65.02 18.478c.61 1.258 1.69 1.917 2.887 2.396.137.08.275.2.334.32.451 1.018.883 2.076 1.315 3.074.157.38.275.739.451 1.198a57.93 57.93 0 0 0-1.413-1.757c-.825-.978-1.806-1.717-3.122-1.917-1.335-.22-2.67-.1-3.985.24-.04.04-.059.04-.137.08.333.499.628 1.018.942 1.477.687.899 1.512 1.637 2.611 2.037 1.57.499 3.18.619 4.79.359.157-.06.295-.08.452-.12a46.466 46.466 0 0 1 1.865 7.128c-.314-.46-.59-.978-.864-1.438-.687-1.178-1.55-2.116-2.866-2.575a9.093 9.093 0 0 0-3.082-.52c-.334 0-.688.04-1.1.04.196.48.334.9.49 1.298.511 1.099 1.14 2.057 2.16 2.696 1.218.818 2.592 1.218 4.025 1.357.452.04.942.08 1.414.12.412 2.416.648 4.872.706 7.368-.078-.08-.098-.2-.137-.32-.157-.46-.334-.938-.51-1.438-.55-1.437-1.473-2.535-2.867-3.194-.962-.44-1.983-.699-3.023-.858-.177 0-.354-.04-.55-.08v.24c.04.219.079.498.138.778.333 1.437.883 2.815 2.1 3.753 1.276 1.059 2.768 1.718 4.398 2.077.157.02.314.02.51.06a40.27 40.27 0 0 1-.589 7.527c-.176-.819-.314-1.598-.47-2.376-.256-1.098-.786-2.077-1.63-2.815-1.06-.899-2.297-1.478-3.593-1.957-.138 0-.275-.08-.49-.12.019.719.038 1.338.117 1.957.137 1.138.452 2.176 1.178 3.035 1.237 1.437 2.729 2.535 4.515 3.154.06 0 .118.04.197.08-.452 2.316-1.06 4.572-1.885 6.748-.04-.399 0-.778-.02-1.178-.02-1.317-.235-2.555-1.04-3.613a8.461 8.461 0 0 0-2.356-2.097c-.471-.32-.942-.599-1.472-.858-.06.22-.08.42-.118.579-.275 1.637-.275 3.234.55 4.712.686 1.218 1.629 2.236 2.728 3.094.413.32.825.58 1.257.859-.805 2.096-1.728 4.133-2.827 6.07 0-.12 0-.2.02-.28.058-.54.137-1.138.196-1.677a5.277 5.277 0 0 0-.59-2.895c-.569-1.038-1.334-1.937-2.237-2.716-.334-.26-.668-.539-1.021-.858-.491 1.178-.766 2.316-.805 3.474 0 .659.04 1.318.294 1.956a11.52 11.52 0 0 0 3.102 4.493c.157.12.138.2.06.36a55.328 55.328 0 0 1-3.005 4.471s.197.4 1.512-.459c.314-.459.628-.898.923-1.397a90.557 90.557 0 0 0 1.786-2.955c.118-.26.236-.34.51-.26 1.728.4 3.476.4 5.184-.08 1.217-.32 2.198-1.098 3.003-2.036.354-.42.668-.939 1.002-1.358.02-.08.058-.12.098-.2l-.118-.08c-1.374-.459-2.788-.698-4.221-.578-1.433.08-2.591.778-3.612 1.797-.236.24-.452.459-.727.658.02-.08.06-.16.099-.24a53.463 53.463 0 0 0 2.395-5.69c.058-.199.137-.239.333-.239 1.708.12 3.377-.2 4.948-.898 1.217-.54 2.061-1.478 2.709-2.616.314-.499.55-1.078.844-1.697-.57 0-1.08-.08-1.59-.08-.982-.04-1.963.04-2.925.3-1.316.399-2.238 1.218-3.024 2.296-.196.24-.353.479-.51.718.49-2.136.981-4.292 1.472-6.428.786-.2 1.63-.36 2.415-.62 1.217-.419 2.356-1.018 3.259-1.996.785-.858 1.59-2.735 1.688-3.893h-.039c-1.688.02-3.318.34-4.79 1.278-.903.539-1.473 1.437-1.944 2.376-.117.2-.216.399-.353.618.196-2.136.275-4.252.118-6.388 1.06-.32 2.022-.74 2.905-1.318 1.296-.859 2.415-1.877 2.886-3.434a9.274 9.274 0 0 0 .432-2.536c.02-.08 0-.16 0-.36-.746.28-1.472.48-2.16.7-.942.399-1.806.898-2.532 1.677-.628.678-.962 1.497-1.237 2.336-.118.399-.216.798-.373 1.177 0-.12-.02-.16-.02-.279a53.172 53.172 0 0 0-.863-6.11c-.04-.2-.02-.359.216-.439a9.502 9.502 0 0 0 3.867-3.434c.687-1.058.844-2.216.825-3.474 0-.459-.06-.898-.118-1.437-.589.32-1.158.559-1.65.858-1.099.64-2.06 1.418-2.689 2.536-.49.858-.608 1.837-.687 2.815-.04.3-.04.619-.118.898l-.059-.24c-.51-2.056-1.119-4.132-1.904-6.128-.078-.2-.078-.32.098-.42 1.355-.978 2.376-2.216 3.122-3.753.589-1.218.589-2.456.334-3.714-.079-.46-.197-.878-.315-1.338l-.039-.04c-.864.54-1.669 1.159-2.356 1.937-1.06 1.138-1.63 2.456-1.511 4.093.039.58.098 1.218.137 1.917-.04-.08-.059-.12-.078-.2-.432-.898-.864-1.797-1.296-2.715-.04-.12-.04-.24-.04-.36.04-.818.02-1.637-.196-2.455-.157-.62-.392-1.258-.844-1.717-.53-.58-1.158-1.019-1.826-1.398-.353-.24-.706-.4-1.08-.579-.058 0-.098.04-.157.04.02.3.079.579.099.878.039 1.099.294 2.197.785 3.155Z"/>
  </mask>
  <path d="M65.02 18.478c.61 1.258 1.69 1.917 2.887 2.396.137.08.275.2.334.32.451 1.018.883 2.076 1.315 3.074.157.38.275.739.451 1.198a57.93 57.93 0 0 0-1.413-1.757c-.825-.978-1.806-1.717-3.122-1.917-1.335-.22-2.67-.1-3.985.24-.04.04-.059.04-.137.08.333.499.628 1.018.942 1.477.687.899 1.512 1.637 2.611 2.037 1.57.499 3.18.619 4.79.359.157-.06.295-.08.452-.12a46.466 46.466 0 0 1 1.865 7.128c-.314-.46-.59-.978-.864-1.438-.687-1.178-1.55-2.116-2.866-2.575a9.093 9.093 0 0 0-3.082-.52c-.334 0-.688.04-1.1.04.196.48.334.9.49 1.298.511 1.099 1.14 2.057 2.16 2.696 1.218.818 2.592 1.218 4.025 1.357.452.04.942.08 1.414.12.412 2.416.648 4.872.706 7.368-.078-.08-.098-.2-.137-.32-.157-.46-.334-.938-.51-1.438-.55-1.437-1.473-2.535-2.867-3.194-.962-.44-1.983-.699-3.023-.858-.177 0-.354-.04-.55-.08v.24c.04.219.079.498.138.778.333 1.437.883 2.815 2.1 3.753 1.276 1.059 2.768 1.718 4.398 2.077.157.02.314.02.51.06a40.27 40.27 0 0 1-.589 7.527c-.176-.819-.314-1.598-.47-2.376-.256-1.098-.786-2.077-1.63-2.815-1.06-.899-2.297-1.478-3.593-1.957-.138 0-.275-.08-.49-.12.019.719.038 1.338.117 1.957.137 1.138.452 2.176 1.178 3.035 1.237 1.437 2.729 2.535 4.515 3.154.06 0 .118.04.197.08-.452 2.316-1.06 4.572-1.885 6.748-.04-.399 0-.778-.02-1.178-.02-1.317-.235-2.555-1.04-3.613a8.461 8.461 0 0 0-2.356-2.097c-.471-.32-.942-.599-1.472-.858-.06.22-.08.42-.118.579-.275 1.637-.275 3.234.55 4.712.686 1.218 1.629 2.236 2.728 3.094.413.32.825.58 1.257.859-.805 2.096-1.728 4.133-2.827 6.07 0-.12 0-.2.02-.28.058-.54.137-1.138.196-1.677a5.277 5.277 0 0 0-.59-2.895c-.569-1.038-1.334-1.937-2.237-2.716-.334-.26-.668-.539-1.021-.858-.491 1.178-.766 2.316-.805 3.474 0 .659.04 1.318.294 1.956a11.52 11.52 0 0 0 3.102 4.493c.157.12.138.2.06.36a55.328 55.328 0 0 1-3.005 4.471s.197.4 1.512-.459c.314-.459.628-.898.923-1.397a90.557 90.557 0 0 0 1.786-2.955c.118-.26.236-.34.51-.26 1.728.4 3.476.4 5.184-.08 1.217-.32 2.198-1.098 3.003-2.036.354-.42.668-.939 1.002-1.358.02-.08.058-.12.098-.2l-.118-.08c-1.374-.459-2.788-.698-4.221-.578-1.433.08-2.591.778-3.612 1.797-.236.24-.452.459-.727.658.02-.08.06-.16.099-.24a53.463 53.463 0 0 0 2.395-5.69c.058-.199.137-.239.333-.239 1.708.12 3.377-.2 4.948-.898 1.217-.54 2.061-1.478 2.709-2.616.314-.499.55-1.078.844-1.697-.57 0-1.08-.08-1.59-.08-.982-.04-1.963.04-2.925.3-1.316.399-2.238 1.218-3.024 2.296-.196.24-.353.479-.51.718.49-2.136.981-4.292 1.472-6.428.786-.2 1.63-.36 2.415-.62 1.217-.419 2.356-1.018 3.259-1.996.785-.858 1.59-2.735 1.688-3.893h-.039c-1.688.02-3.318.34-4.79 1.278-.903.539-1.473 1.437-1.944 2.376-.117.2-.216.399-.353.618.196-2.136.275-4.252.118-6.388 1.06-.32 2.022-.74 2.905-1.318 1.296-.859 2.415-1.877 2.886-3.434a9.274 9.274 0 0 0 .432-2.536c.02-.08 0-.16 0-.36-.746.28-1.472.48-2.16.7-.942.399-1.806.898-2.532 1.677-.628.678-.962 1.497-1.237 2.336-.118.399-.216.798-.373 1.177 0-.12-.02-.16-.02-.279a53.172 53.172 0 0 0-.863-6.11c-.04-.2-.02-.359.216-.439a9.502 9.502 0 0 0 3.867-3.434c.687-1.058.844-2.216.825-3.474 0-.459-.06-.898-.118-1.437-.589.32-1.158.559-1.65.858-1.099.64-2.06 1.418-2.689 2.536-.49.858-.608 1.837-.687 2.815-.04.3-.04.619-.118.898l-.059-.24c-.51-2.056-1.119-4.132-1.904-6.128-.078-.2-.078-.32.098-.42 1.355-.978 2.376-2.216 3.122-3.753.589-1.218.589-2.456.334-3.714-.079-.46-.197-.878-.315-1.338l-.039-.04c-.864.54-1.669 1.159-2.356 1.937-1.06 1.138-1.63 2.456-1.511 4.093.039.58.098 1.218.137 1.917-.04-.08-.059-.12-.078-.2-.432-.898-.864-1.797-1.296-2.715-.04-.12-.04-.24-.04-.36.04-.818.02-1.637-.196-2.455-.157-.62-.392-1.258-.844-1.717-.53-.58-1.158-1.019-1.826-1.398-.353-.24-.706-.4-1.08-.579-.058 0-.098.04-.157.04.02.3.079.579.099.878.039 1.099.294 2.197.785 3.155Z" stroke="#A05500" stroke-width="2.15" stroke-linejoin="round" mask="url(#l)"/>
  <defs>
    <filter id="d" x="37.484" y="37.41" width="7.31" height="15.48" filterUnits="userSpaceOnUse" color-interpolation-filters="sRGB">
      <feFlood flood-opacity="0" result="BackgroundImageFix"/>
      <feColorMatrix in="SourceAlpha" values="0 0 0 0 0 0 0 0 0 0 0 0 0 0 0 0 0 0 127 0" result="hardAlpha"/>
      <feOffset dy="1.72"/>
      <feComposite in2="hardAlpha" operator="out"/>
      <feColorMatrix values="0 0 0 0 0.882353 0 0 0 0 0.568627 0 0 0 0 0.054902 0 0 0 1 0"/>
      <feBlend in2="BackgroundImageFix" result="effect1_dropShadow_2467_19888"/>
      <feBlend in="SourceGraphic" in2="effect1_dropShadow_2467_19888" result="shape"/>
    </filter>
    <filter id="e" x="30.605" y="23.865" width="7.31" height="9.03" filterUnits="userSpaceOnUse" color-interpolation-filters="sRGB">
      <feFlood flood-opacity="0" result="BackgroundImageFix"/>
      <feColorMatrix in="SourceAlpha" values="0 0 0 0 0 0 0 0 0 0 0 0 0 0 0 0 0 0 127 0" result="hardAlpha"/>
      <feOffset dy="1.72"/>
      <feComposite in2="hardAlpha" operator="out"/>
      <feColorMatrix values="0 0 0 0 0.882353 0 0 0 0 0.568627 0 0 0 0 0.054902 0 0 0 1 0"/>
      <feBlend in2="BackgroundImageFix" result="effect1_dropShadow_2467_19888"/>
      <feBlend in="SourceGraphic" in2="effect1_dropShadow_2467_19888" result="shape"/>
    </filter>
    <filter id="f" x="44.579" y="23.865" width="7.31" height="9.03" filterUnits="userSpaceOnUse" color-interpolation-filters="sRGB">
      <feFlood flood-opacity="0" result="BackgroundImageFix"/>
      <feColorMatrix in="SourceAlpha" values="0 0 0 0 0 0 0 0 0 0 0 0 0 0 0 0 0 0 127 0" result="hardAlpha"/>
      <feOffset dy="1.72"/>
      <feComposite in2="hardAlpha" operator="out"/>
      <feColorMatrix values="0 0 0 0 0.882353 0 0 0 0 0.568627 0 0 0 0 0.054902 0 0 0 1 0"/>
      <feBlend in2="BackgroundImageFix" result="effect1_dropShadow_2467_19888"/>
      <feBlend in="SourceGraphic" in2="effect1_dropShadow_2467_19888" result="shape"/>
    </filter>
    <filter id="g" x="24.154" y="30.315" width="7.31" height="29.24" filterUnits="userSpaceOnUse" color-interpolation-filters="sRGB">
      <feFlood flood-opacity="0" result="BackgroundImageFix"/>
      <feColorMatrix in="SourceAlpha" values="0 0 0 0 0 0 0 0 0 0 0 0 0 0 0 0 0 0 127 0" result="hardAlpha"/>
      <feOffset dy="1.72"/>
      <feComposite in2="hardAlpha" operator="out"/>
      <feColorMatrix values="0 0 0 0 0.882353 0 0 0 0 0.568627 0 0 0 0 0.054902 0 0 0 1 0"/>
      <feBlend in2="BackgroundImageFix" result="effect1_dropShadow_2467_19888"/>
      <feBlend in="SourceGraphic" in2="effect1_dropShadow_2467_19888" result="shape"/>
    </filter>
    <filter id="h" x="51.029" y="30.315" width="7.31" height="29.24" filterUnits="userSpaceOnUse" color-interpolation-filters="sRGB">
      <feFlood flood-opacity="0" result="BackgroundImageFix"/>
      <feColorMatrix in="SourceAlpha" values="0 0 0 0 0 0 0 0 0 0 0 0 0 0 0 0 0 0 127 0" result="hardAlpha"/>
      <feOffset dy="1.72"/>
      <feComposite in2="hardAlpha" operator="out"/>
      <feColorMatrix values="0 0 0 0 0.882353 0 0 0 0 0.568627 0 0 0 0 0.054902 0 0 0 1 0"/>
      <feBlend in2="BackgroundImageFix" result="effect1_dropShadow_2467_19888"/>
      <feBlend in="SourceGraphic" in2="effect1_dropShadow_2467_19888" result="shape"/>
    </filter>
    <linearGradient id="a" x1="22.542" y1="22.564" x2="22.542" y2="63.436" gradientUnits="userSpaceOnUse">
      <stop stop-color="#E0EEFF"/>
      <stop offset="1" stop-color="#F8FBFF"/>
    </linearGradient>
    <linearGradient id="b" x1="41.139" y1="4.192" x2="76.399" y2="4.192" gradientUnits="userSpaceOnUse">
      <stop stop-color="#E0EEFF"/>
      <stop offset="1" stop-color="#F8FBFF"/>
    </linearGradient>
    <linearGradient id="c" x1="6.632" y1="63.425" x2="41.139" y2="63.425" gradientUnits="userSpaceOnUse">
      <stop stop-color="#D1E5FE"/>
      <stop offset="1" stop-color="#F8FBFF"/>
    </linearGradient>
  </defs>
</svg>
