<svg viewBox="0 0 181 86" fill="none" xmlns="http://www.w3.org/2000/svg">
  <path d="M135.242 8.795a13.983 13.983 0 0 1 13.995 0L167.98 19.63a13.982 13.982 0 0 1 6.985 12.106v21.697c0 4.992-2.662 9.606-6.985 12.105l-18.743 10.834a13.983 13.983 0 0 1-13.995 0l-18.743-10.834a13.984 13.984 0 0 1-6.985-12.106V31.735c0-4.993 2.663-9.607 6.985-12.106l18.743-10.834Z" fill="url(#a)"/>
  <path d="M135.978 9.477a13.483 13.483 0 0 1 13.495 0l18.743 10.834a13.483 13.483 0 0 1 6.735 11.674V53.68c0 4.815-2.567 9.264-6.735 11.674l-18.743 10.834a13.483 13.483 0 0 1-13.495 0l-18.743-10.834a13.484 13.484 0 0 1-6.736-11.674V31.985c0-4.815 2.568-9.264 6.736-11.674l18.743-10.834Z" fill="url(#b)" stroke="#6BB171" stroke-width=".999"/>
  <path d="M123.015 44.668a.295.295 0 0 0-.045-.158l-.859-1.388a.3.3 0 0 0-.314-.136l-6.966 1.387a.297.297 0 0 0-.198.14l-.741 1.227a.298.298 0 0 0-.004.303l.741 1.299a.3.3 0 0 0 .261.151h7.825a.3.3 0 0 0 .3-.3v-2.525Zm2.005 4.021a.294.294 0 0 0-.083.104l-.832 1.714a.3.3 0 0 0 .018.293l.831 1.298a.3.3 0 0 0 .253.138h11.904a.3.3 0 0 0 .3-.3V48.64a.304.304 0 0 0-.043-.156l-.879-1.447a.3.3 0 0 0-.333-.134l-4.165 1.09c1.316-1.105 2.438-2.234 3.362-3.387h.001c1.192-1.503 1.796-3.14 1.796-4.907 0-1.616-.505-2.953-1.533-3.981-1.024-1.04-2.529-1.536-4.458-1.536-1.131 0-2.172.222-3.117.67h-.001c-.268.13-.611.413-.965.747-.362.342-.763.763-1.151 1.197-.771.862-1.514 1.797-1.805 2.272-.06.097-.06.22.001.316l.784 1.257a.299.299 0 0 0 .254.141h3.913a.3.3 0 0 0 .3-.3c0-.787.16-1.346.438-1.716.288-.38.671-.569 1.183-.569.538 0 .892.16 1.12.437.242.292.382.722.382 1.326 0 .779-.28 1.598-.872 2.463a14.612 14.612 0 0 1-2.231 2.533l-.002.002c-.88.816-2.092 1.863-3.639 3.142a.254.254 0 0 0-.029.028l-.117.094a55.61 55.61 0 0 1-.585.467Zm15.193-12.003-.001.001c-1.088 1.632-1.615 3.84-1.615 6.593 0 2.785.527 5.008 1.615 6.64l.001.002c1.129 1.668 2.935 2.48 5.347 2.48 2.412 0 4.211-.812 5.324-2.48 1.105-1.633 1.64-3.857 1.64-6.642 0-2.753-.536-4.962-1.64-6.594-1.113-1.668-2.912-2.48-5.324-2.48s-4.218.812-5.347 2.48Zm7.227 3.03.001.002c.326.8.499 1.98.499 3.562 0 1.065-.063 1.939-.185 2.627-.118.651-.359 1.167-.711 1.56v.001c-.306.344-.781.54-1.484.54-.699 0-1.184-.195-1.507-.54-.336-.394-.569-.91-.687-1.561-.123-.688-.185-1.562-.185-2.627 0-1.582.173-2.762.499-3.562l.001-.002c.153-.382.379-.653.677-.833.301-.182.696-.283 1.202-.283.507 0 .902.101 1.203.283.297.18.524.451.677.833Zm8.802.304-.002.002c-.62.593-.911 1.422-.911 2.44 0 1.019.291 1.847.911 2.44l.002.002c.622.582 1.416.864 2.358.864.718 0 1.348-.164 1.877-.501l-3.74 5.347a.299.299 0 0 0-.003.34l.941 1.388a.3.3 0 0 0 .249.131h2.934c.11 0 .211-.06.264-.156l6.847-12.521a.3.3 0 0 0-.006-.299l-.793-1.316a.301.301 0 0 0-.414-.1l-2.142 1.315a.306.306 0 0 0-.089.084l-2.78 3.975c.072-.306.107-.638.107-.993 0-1.019-.291-1.847-.911-2.44-.61-.584-1.4-.866-2.341-.866-.942 0-1.736.282-2.358.864Zm11.185 8.612.005.006c.097.127.17.352.17.725s-.073.599-.17.725c-.093.121-.215.184-.402.184-.204 0-.318-.066-.395-.175-.091-.128-.159-.357-.159-.734 0-.386.068-.62.156-.747.092-.118.213-.18.398-.18.18 0 .302.063.397.196Zm-9.399-6.17c0-.383.068-.618.16-.749.077-.111.191-.178.394-.178.211 0 .329.069.409.18.093.131.162.364.162.747 0 .373-.073.599-.169.725-.093.121-.215.185-.402.185-.205 0-.319-.067-.395-.176-.091-.128-.159-.357-.159-.734Zm6.678 4.461c-.62.593-.911 1.421-.911 2.44s.291 1.847.911 2.44c.61.584 1.401.866 2.342.866.941 0 1.731-.282 2.341-.866.62-.593.911-1.421.911-2.44s-.291-1.847-.911-2.44c-.61-.584-1.4-.866-2.341-.866-.941 0-1.732.282-2.342.866Z" fill="#9EDF99" stroke="#6BB171" stroke-width=".6" stroke-linejoin="round"/>
  <path d="M122.126 43.185a.3.3 0 0 0-.3-.3H114a.3.3 0 0 0-.3.3v2.526a.3.3 0 0 0 .3.3h7.826a.3.3 0 0 0 .3-.3v-2.526Zm2.005 4.022a.3.3 0 0 0-.114.235v3.012a.3.3 0 0 0 .3.3h11.905a.3.3 0 0 0 .3-.3v-3.296a.3.3 0 0 0-.3-.3h-5.54c1.499-1.217 2.761-2.461 3.782-3.734l.001-.001c1.192-1.502 1.796-3.14 1.796-4.906 0-1.616-.506-2.953-1.534-3.981-1.024-1.041-2.528-1.536-4.458-1.536-1.131 0-2.171.222-3.116.67h-.002c-.941.454-1.702 1.16-2.283 2.105l-.002.004c-.571.956-.864 2.133-.896 3.514a.301.301 0 0 0 .3.307h3.913a.3.3 0 0 0 .3-.3c0-.787.159-1.346.437-1.717.288-.38.672-.568 1.183-.568.538 0 .892.16 1.121.436.242.293.382.723.382 1.327 0 .779-.281 1.598-.873 2.463a14.613 14.613 0 0 1-2.231 2.533l-.002.001c-.879.817-2.091 1.864-3.639 3.143a.376.376 0 0 0-.029.027l-.116.095-.585.467Zm15.193-12.004-.001.002c-1.088 1.632-1.616 3.84-1.616 6.593 0 2.784.527 5.008 1.616 6.64l.001.002c1.128 1.668 2.934 2.48 5.347 2.48 2.412 0 4.211-.812 5.324-2.48 1.104-1.633 1.64-3.857 1.64-6.642 0-2.754-.536-4.962-1.64-6.594-1.113-1.669-2.912-2.48-5.324-2.48-2.413 0-4.219.812-5.347 2.48Zm7.226 3.03.001.003c.326.8.5 1.98.5 3.562 0 1.065-.063 1.939-.185 2.626-.119.652-.36 1.167-.711 1.562h-.001c-.305.344-.78.54-1.483.54-.699 0-1.185-.195-1.507-.54-.336-.394-.569-.91-.688-1.561-.122-.688-.185-1.562-.185-2.627 0-1.582.174-2.762.5-3.562v-.002c.153-.382.38-.653.677-.833.301-.182.696-.283 1.203-.283.507 0 .901.101 1.202.283.298.18.525.451.677.833Zm8.803.305-.002.002c-.62.593-.911 1.421-.911 2.44s.291 1.847.911 2.44l.002.002c.621.582 1.416.864 2.357.864.941 0 1.731-.282 2.342-.866.619-.593.91-1.421.91-2.44s-.291-1.847-.91-2.44c-.611-.584-1.401-.866-2.342-.866-.941 0-1.736.282-2.357.864Zm11.727-.224a.302.302 0 0 0-.264-.444h-2.934c-.11 0-.211.06-.264.156l-6.847 12.521a.3.3 0 0 0 .263.444h2.935a.3.3 0 0 0 .263-.156l6.848-12.521Zm-.542 8.835h-.001l.005.007c.097.126.17.352.17.725s-.073.598-.17.725c-.092.12-.214.184-.402.184-.204 0-.318-.066-.395-.175-.09-.128-.158-.357-.158-.734 0-.387.067-.62.155-.747.092-.118.214-.18.398-.18a.45.45 0 0 1 .398.195Zm-9.399-6.169c0-.383.068-.618.159-.75.078-.11.192-.177.394-.177.211 0 .33.068.409.18.093.131.163.364.163.747 0 .373-.073.598-.17.725-.092.121-.214.184-.402.184-.204 0-.318-.066-.395-.175-.09-.128-.158-.357-.158-.734Zm6.678 4.46c-.62.594-.911 1.422-.911 2.44 0 1.02.291 1.848.911 2.44.61.585 1.4.867 2.341.867.941 0 1.732-.282 2.342-.866.62-.593.911-1.421.911-2.44s-.291-1.847-.911-2.44c-.61-.584-1.401-.866-2.342-.866-.941 0-1.731.282-2.341.866Z" fill="#fff" stroke="#6BB171" stroke-width=".6" stroke-linejoin="round"/>
  <path d="M60.254 4.092H17.878c-9.112 0-16.5 7.387-16.5 16.5v43.983c0 9.112 7.388 16.5 16.5 16.5h42.376c9.112 0 16.5-7.388 16.5-16.5V20.591c0-9.112-7.388-16.5-16.5-16.5Z" fill="url(#c)" stroke="#A7BFDA" stroke-width=".999"/>
  <path d="M59.791 9.25H18.34c-6.903 0-12.499 5.597-12.499 12.5v41.666c0 6.903 5.596 12.5 12.5 12.5h41.45c6.903 0 12.5-5.597 12.5-12.5V21.75c0-6.903-5.597-12.5-12.5-12.5Z" stroke="#F8FBFF" stroke-width=".999"/>
  <path d="M38.725 10.5h20.726c6.351 0 11.5 5.148 11.5 11.5v41.666c0 6.351-5.149 11.5-11.5 11.5H18c-6.352 0-11.5-5.149-11.5-11.5V22c0-6.352 5.148-11.5 11.5-11.5h20.725Z" fill="url(#d)" stroke="#B967AD" stroke-width=".999"/>
  <path d="M28.513 54.808a.3.3 0 0 0 .247.13h4.288a.3.3 0 0 0 .247-.471l-4.172-6.02 4.063-6.106a.3.3 0 0 0 .007-.322l-1.02-1.682a.3.3 0 0 0-.4-.109l-3.111 1.683a.3.3 0 0 0-.116.112l-1.773 3.034-2.122-3.053a.3.3 0 0 0-.246-.13h-4.289a.3.3 0 0 0-.246.472l4.073 5.883-4.886 4.513a.3.3 0 0 0-.056.37l.967 1.676a.3.3 0 0 0 .26.15h4.132a.3.3 0 0 0 .26-.15l1.772-3.053 2.121 3.073Zm23.502-17.172a.3.3 0 0 0 .3-.3v-4.467a.3.3 0 0 0-.042-.154l-1.114-1.869a.3.3 0 0 0-.301-.143l-12.793 1.869a.3.3 0 0 0-.256.27l-.98 11.347a.3.3 0 0 0 .043.182l.98 1.608a.3.3 0 0 0 .256.144h4.914a.3.3 0 0 0 .29-.225c.122-.47.371-.838.75-1.113l.007-.005c.373-.289.86-.444 1.484-.444.856 0 1.46.24 1.864.678.409.442.636 1.103.636 2.03 0 .948-.218 1.671-.623 2.2-.387.503-.982.776-1.847.776-.743 0-1.29-.185-1.676-.52a2.45 2.45 0 0 1-.77-1.382.3.3 0 0 0-.294-.243H37.87a.3.3 0 0 0-.3.314c.062 1.32.424 2.494 1.091 3.516.67 1.024 1.617 1.823 2.833 2.4l.004.001c1.218.558 2.642.831 4.264.831 2.44 0 4.373-.693 5.754-2.115l.002-.002c1.375-1.438 2.048-3.365 2.048-5.746 0-1.289-.235-2.49-.709-3.602a6.226 6.226 0 0 0-2.28-2.75c-1.034-.718-2.329-1.066-3.862-1.066-.868 0-1.68.145-2.432.438a5.302 5.302 0 0 0-1.259.678v-3.136h8.991Z" fill="#FF96C6" stroke="#B967AD" stroke-width=".6" stroke-linejoin="round"/>
  <path d="M27.397 52.947a.3.3 0 0 0 .247.13h4.288a.3.3 0 0 0 .246-.472l-4.172-6.019 4.064-6.106a.3.3 0 0 0-.25-.467h-4.132a.3.3 0 0 0-.259.15l-1.773 3.033-2.121-3.054a.3.3 0 0 0-.247-.129H19a.3.3 0 0 0-.247.471l4.107 5.933-4 6.197a.3.3 0 0 0 .252.462h4.132a.3.3 0 0 0 .259-.15l1.773-3.052 2.12 3.073Zm23.502-17.173a.3.3 0 0 0 .3-.3v-4.467a.3.3 0 0 0-.3-.3H36.992a.3.3 0 0 0-.3.3v12.954a.3.3 0 0 0 .3.3h4.914a.3.3 0 0 0 .29-.224c.122-.47.37-.838.75-1.114l.007-.005c.373-.288.86-.443 1.484-.443.856 0 1.46.24 1.864.677.408.443.635 1.104.635 2.03 0 .948-.218 1.672-.623 2.2-.386.504-.982.776-1.846.776-.743 0-1.29-.184-1.677-.52a2.45 2.45 0 0 1-.769-1.381.3.3 0 0 0-.294-.243h-4.973a.3.3 0 0 0-.3.314c.062 1.319.423 2.493 1.09 3.515.67 1.024 1.618 1.823 2.833 2.4l.004.002c1.219.558 2.643.831 4.264.831 2.44 0 4.374-.693 5.755-2.116l.001-.001c1.375-1.438 2.049-3.365 2.049-5.747 0-1.288-.236-2.49-.71-3.602a6.226 6.226 0 0 0-2.28-2.75c-1.034-.717-2.328-1.065-3.862-1.065-.868 0-1.68.145-2.431.437a5.301 5.301 0 0 0-1.26.679v-3.137H50.9Z" fill="#fff" stroke="#B967AD" stroke-width=".6" stroke-linejoin="round"/>
  <path d="M163.376 4.092H121c-9.112 0-16.499 7.387-16.499 16.5v43.983c0 9.112 7.387 16.5 16.499 16.5h42.376c9.112 0 16.499-7.388 16.499-16.5V20.591c0-9.112-7.387-16.5-16.499-16.5Z" fill="url(#e)" stroke="#A7BFDA" stroke-width=".999"/>
  <path d="M162.913 9.25h-41.451c-6.903 0-12.499 5.597-12.499 12.5v41.666c0 6.903 5.596 12.5 12.499 12.5h41.451c6.903 0 12.5-5.597 12.5-12.5V21.75c0-6.903-5.597-12.5-12.5-12.5Z" stroke="#F8FBFF" stroke-width=".999"/>
  <path d="M141.847 10.5h20.726c6.351 0 11.5 5.148 11.5 11.5v41.666c0 6.351-5.149 11.5-11.5 11.5h-41.451c-6.352 0-11.501-5.149-11.501-11.5V22c0-6.352 5.149-11.5 11.501-11.5h20.725Z" fill="url(#f)" stroke="#6BB171" stroke-width=".999"/>
  <path d="M123.015 44.667a.294.294 0 0 0-.045-.157l-.859-1.388a.3.3 0 0 0-.314-.136l-6.966 1.387a.297.297 0 0 0-.198.14l-.741 1.227a.298.298 0 0 0-.004.303l.741 1.299a.3.3 0 0 0 .261.151h7.825a.3.3 0 0 0 .3-.3v-2.526Zm2.005 4.022a.294.294 0 0 0-.083.104l-.832 1.714a.3.3 0 0 0 .018.292l.831 1.299a.3.3 0 0 0 .253.138h11.904a.3.3 0 0 0 .3-.3V48.64a.304.304 0 0 0-.043-.156l-.879-1.447a.3.3 0 0 0-.333-.134l-4.165 1.09c1.316-1.105 2.438-2.235 3.362-3.387l.001-.001c1.192-1.502 1.796-3.14 1.796-4.906 0-1.616-.505-2.953-1.533-3.981-1.024-1.041-2.529-1.536-4.458-1.536-1.131 0-2.172.222-3.117.67h-.001c-.268.13-.611.413-.965.747-.362.342-.763.763-1.151 1.197-.771.862-1.514 1.797-1.805 2.272-.06.097-.06.22.001.316l.784 1.257a.299.299 0 0 0 .254.14h3.913a.3.3 0 0 0 .3-.3c0-.786.16-1.345.438-1.716.288-.38.671-.568 1.183-.568.538 0 .892.16 1.12.436.242.293.382.723.382 1.327 0 .779-.28 1.598-.872 2.463a14.616 14.616 0 0 1-2.231 2.533l-.002.002c-.88.816-2.092 1.863-3.639 3.142a.245.245 0 0 0-.029.028l-.117.094c-.121.098-.316.254-.585.467Zm15.193-12.004-.001.002c-1.088 1.632-1.615 3.84-1.615 6.593 0 2.784.527 5.008 1.615 6.64l.001.002c1.129 1.668 2.935 2.48 5.347 2.48 2.412 0 4.211-.812 5.324-2.48 1.105-1.633 1.64-3.857 1.64-6.642 0-2.754-.536-4.962-1.64-6.594-1.113-1.669-2.912-2.48-5.324-2.48s-4.218.812-5.347 2.48Zm7.227 3.03.001.003c.326.8.499 1.98.499 3.562 0 1.065-.063 1.939-.185 2.626-.118.652-.359 1.167-.711 1.562-.306.344-.781.54-1.484.54-.699 0-1.184-.195-1.507-.54-.336-.394-.569-.91-.687-1.561-.123-.688-.185-1.562-.185-2.627 0-1.582.173-2.762.499-3.562l.001-.002c.153-.382.379-.653.677-.833.301-.182.696-.283 1.202-.283.507 0 .902.101 1.203.283.297.18.524.451.677.833Zm8.802.305-.002.002c-.62.593-.911 1.421-.911 2.44s.291 1.847.911 2.44l.002.002c.622.582 1.416.864 2.358.864.718 0 1.348-.164 1.877-.501l-3.74 5.347a.299.299 0 0 0-.003.34l.941 1.388a.3.3 0 0 0 .249.131h2.934c.11 0 .211-.06.264-.156l6.847-12.521a.3.3 0 0 0-.006-.299l-.793-1.316a.301.301 0 0 0-.414-.1l-2.142 1.315a.307.307 0 0 0-.089.084l-2.78 3.975c.072-.307.107-.638.107-.993 0-1.019-.291-1.847-.911-2.44-.61-.584-1.4-.866-2.341-.866-.942 0-1.736.282-2.358.864Zm11.185 8.611.005.007c.097.127.17.352.17.725s-.073.598-.17.725a.466.466 0 0 1-.402.184c-.204 0-.318-.066-.395-.175-.091-.128-.159-.357-.159-.734 0-.386.068-.62.156-.747.092-.118.213-.18.398-.18.18 0 .302.063.397.196Zm-9.399-6.169c0-.384.068-.618.16-.749.077-.112.191-.178.394-.178.211 0 .329.068.409.18.093.131.162.364.162.747 0 .373-.073.598-.169.725-.093.121-.215.184-.402.184-.205 0-.319-.066-.395-.175-.091-.128-.159-.357-.159-.734Zm6.678 4.46c-.62.594-.911 1.422-.911 2.44 0 1.02.291 1.848.911 2.44.61.585 1.401.867 2.342.867.941 0 1.731-.282 2.341-.866.62-.593.911-1.421.911-2.44s-.291-1.847-.911-2.44c-.61-.584-1.4-.866-2.341-.866-.941 0-1.732.282-2.342.866Z" fill="#9EDF99" stroke="#6BB171" stroke-width=".6" stroke-linejoin="round"/>
  <path d="M122.126 43.185a.3.3 0 0 0-.3-.3H114a.3.3 0 0 0-.3.3v2.526a.3.3 0 0 0 .3.3h7.826a.3.3 0 0 0 .3-.3v-2.526Zm2.005 4.022a.3.3 0 0 0-.114.235v3.012a.3.3 0 0 0 .3.3h11.905a.3.3 0 0 0 .3-.3v-3.297a.3.3 0 0 0-.3-.3h-5.54c1.499-1.216 2.761-2.46 3.782-3.733l.001-.001c1.192-1.502 1.796-3.14 1.796-4.906 0-1.617-.506-2.953-1.534-3.982-1.024-1.04-2.528-1.535-4.458-1.535-1.131 0-2.171.222-3.116.67h-.002c-.941.454-1.702 1.16-2.283 2.105l-.002.004c-.571.956-.864 2.132-.896 3.514a.3.3 0 0 0 .3.307h3.913a.3.3 0 0 0 .3-.3c0-.787.159-1.346.437-1.717.288-.38.672-.568 1.183-.568.538 0 .892.16 1.121.436.242.293.382.723.382 1.327 0 .778-.281 1.598-.873 2.463a14.612 14.612 0 0 1-2.231 2.532l-.002.002c-.879.817-2.091 1.864-3.639 3.143a.377.377 0 0 0-.029.027l-.116.095-.585.467Zm15.193-12.004-.001.002c-1.088 1.632-1.616 3.84-1.616 6.593 0 2.784.527 5.008 1.616 6.64l.001.002c1.128 1.668 2.934 2.48 5.347 2.48 2.412 0 4.211-.812 5.324-2.48 1.104-1.633 1.64-3.858 1.64-6.642 0-2.754-.536-4.962-1.64-6.594-1.113-1.669-2.912-2.48-5.324-2.48-2.413 0-4.219.812-5.347 2.48Zm7.226 3.03.001.003c.326.8.5 1.98.5 3.562 0 1.065-.063 1.938-.185 2.626-.119.652-.36 1.167-.711 1.561h-.001c-.305.344-.78.54-1.483.54-.699 0-1.185-.194-1.507-.54-.336-.393-.569-.909-.688-1.56-.122-.688-.185-1.562-.185-2.627 0-1.582.174-2.762.5-3.563v-.001c.153-.382.38-.653.677-.833.301-.182.696-.283 1.203-.283.507 0 .901.101 1.202.283.298.18.525.451.677.833Zm8.803.305-.002.002c-.62.593-.911 1.421-.911 2.44s.291 1.847.911 2.44l.002.002c.621.582 1.416.864 2.357.864.941 0 1.731-.282 2.342-.866.619-.593.91-1.421.91-2.44s-.291-1.847-.91-2.44c-.611-.584-1.401-.866-2.342-.866-.941 0-1.736.282-2.357.864Zm11.727-.224a.302.302 0 0 0-.264-.444h-2.934c-.11 0-.211.06-.264.156l-6.847 12.52a.3.3 0 0 0 .263.445h2.935a.3.3 0 0 0 .263-.156l6.848-12.521Zm-.542 8.835h-.001l.005.007c.097.126.17.351.17.725 0 .373-.073.598-.17.725-.092.12-.214.184-.402.184-.204 0-.318-.066-.395-.175-.09-.128-.158-.357-.158-.734 0-.387.067-.62.155-.748.092-.118.214-.18.398-.18a.45.45 0 0 1 .398.196Zm-9.399-6.17c0-.383.068-.617.159-.748.078-.112.192-.178.394-.178.211 0 .33.068.409.18.093.131.163.364.163.747 0 .373-.073.598-.17.725-.092.12-.214.184-.402.184-.204 0-.318-.066-.395-.175-.09-.128-.158-.357-.158-.734Zm6.678 4.462c-.62.592-.911 1.421-.911 2.44s.291 1.847.911 2.44c.61.584 1.4.866 2.341.866.941 0 1.732-.282 2.342-.866.62-.593.911-1.421.911-2.44s-.291-1.848-.911-2.44c-.61-.584-1.401-.866-2.342-.866-.941 0-1.731.282-2.341.866Z" fill="#fff" stroke="#6BB171" stroke-width=".6" stroke-linejoin="round"/>
  <path d="M95.99 3.608a14.19 14.19 0 0 0-14.202 0L58.353 17.154a14.19 14.19 0 0 0-7.089 12.286v27.12a14.19 14.19 0 0 0 7.089 12.286l23.435 13.546a14.19 14.19 0 0 0 14.203 0l23.435-13.546a14.191 14.191 0 0 0 7.088-12.286V29.44c0-5.067-2.702-9.75-7.088-12.286L95.991 3.608Z" fill="#ECF5FF" stroke="#A7BFDA" stroke-width=".86"/>
  <path d="M88.89 2.133V43L53.534 22.564a13.75 13.75 0 0 1 5.033-5.037L82.003 3.98a13.751 13.751 0 0 1 6.886-1.847Z" fill="#F8FBFF"/>
  <path d="M51.694 29.44v27.12c0 2.456.655 4.82 1.841 6.876L88.89 43 53.535 22.564a13.751 13.751 0 0 0-1.84 6.876Z" fill="url(#g)"/>
  <path d="M126.084 56.571v-27.12c0-2.457-.655-4.82-1.841-6.876L88.889 43.011l35.354 20.436a13.753 13.753 0 0 0 1.841-6.876Z" fill="#E0EEFF"/>
  <path d="M88.89 2.15v40.867l35.353-20.436a13.749 13.749 0 0 0-5.033-5.038L95.775 3.997A13.751 13.751 0 0 0 88.89 2.15Z" fill="url(#h)"/>
  <path d="M58.565 68.472a13.751 13.751 0 0 1-5.03-5.036L88.89 43v40.867a13.75 13.75 0 0 1-6.884-1.847h-.002L58.568 68.473l-.003-.001Z" fill="url(#i)"/>
  <path d="m95.775 82.02 23.435-13.547a13.749 13.749 0 0 0 5.033-5.037L88.889 43v40.867c2.378 0 4.756-.616 6.886-1.847Z" fill="#D1E5FE"/>
  <path d="M82.864 8.643a12.04 12.04 0 0 1 12.05 0l20.692 11.96a12.04 12.04 0 0 1 6.015 10.424v23.946c0 4.3-2.293 8.272-6.015 10.424l-20.691 11.96a12.04 12.04 0 0 1-12.051 0l-20.692-11.96a12.04 12.04 0 0 1-6.014-10.424V31.027c0-4.3 2.292-8.272 6.014-10.424l20.692-11.96Z" fill="#A7BFDA"/>
  <path d="M95.13 8.27a12.47 12.47 0 0 0-12.481 0L61.957 20.232a12.47 12.47 0 0 0-6.23 10.796v23.946a12.47 12.47 0 0 0 6.23 10.796l20.692 11.96a12.47 12.47 0 0 0 12.48 0l20.692-11.96a12.469 12.469 0 0 0 6.23-10.796V31.027c0-4.453-2.374-8.568-6.23-10.796L95.13 8.271Z" stroke="#F8FBFF" stroke-width=".86"/>
  <path d="M83.08 9.015a11.61 11.61 0 0 1 11.62 0l20.691 11.96a11.61 11.61 0 0 1 5.8 10.052v23.946a11.61 11.61 0 0 1-5.8 10.051l-20.692 11.96a11.61 11.61 0 0 1-11.62 0l-20.691-11.96a11.61 11.61 0 0 1-5.8-10.051V31.027a11.61 11.61 0 0 1 5.8-10.051l20.691-11.96Z" stroke="#A7BFDA" stroke-width=".86"/>
  <path d="M82.916 8.643a12.04 12.04 0 0 1 12.05 0l20.692 11.96a12.04 12.04 0 0 1 6.015 10.424v23.946c0 4.3-2.293 8.272-6.015 10.424l-20.692 11.96a12.04 12.04 0 0 1-12.05 0l-20.692-11.96a12.04 12.04 0 0 1-6.014-10.424V31.027c0-4.3 2.292-8.272 6.014-10.424l20.692-11.96Z" fill="#FFBA0D"/>
  <path fill-rule="evenodd" clip-rule="evenodd" d="M56.21 50.673v4.3c0 4.3 2.292 8.272 6.014 10.424l20.692 11.96a12.04 12.04 0 0 0 12.05 0l20.692-11.96a12.04 12.04 0 0 0 6.015-10.424v-4.3c0 4.3-2.293 8.272-6.015 10.424l-20.692 11.96a12.04 12.04 0 0 1-12.05 0l-20.692-11.96a12.04 12.04 0 0 1-6.014-10.424Z" fill="#E1910E"/>
  <path fill-rule="evenodd" clip-rule="evenodd" d="M82.865 8.643a12.04 12.04 0 0 1 12.05 0l20.692 11.96a12.039 12.039 0 0 1 6.015 10.424v2.58c0-4.3-2.292-8.272-6.015-10.424l-20.691-11.96a12.04 12.04 0 0 0-12.05 0l-20.693 11.96a12.04 12.04 0 0 0-6.014 10.424v-2.58c0-4.3 2.292-8.272 6.014-10.424l20.692-11.96Z" fill="#FFD57C"/>
  <path d="M83.13 9.015a11.61 11.61 0 0 1 11.621 0l20.692 11.96a11.61 11.61 0 0 1 5.8 10.052v23.946a11.61 11.61 0 0 1-5.8 10.051l-20.692 11.96a11.61 11.61 0 0 1-11.62 0l-20.692-11.96a11.61 11.61 0 0 1-5.8-10.051V31.027a11.61 11.61 0 0 1 5.8-10.051l20.692-11.96Z" stroke="#A05500" stroke-width=".86"/>
  <g filter="url(#j)">
    <path d="M92.115 50.74v-12.9l-1.72 1.72v9.46l1.72 1.72Z" fill="#A964FD" stroke="#50119C" stroke-width=".86" stroke-linejoin="round"/>
    <path d="M92.115 37.84h-6.45l1.72 1.72h3.01l1.72-1.72Z" fill="#A964FD" stroke="#50119C" stroke-width=".86" stroke-linejoin="round"/>
    <path d="M90.394 49.02v-9.46h-3.01v9.46h3.01Z" fill="#B77CFF" stroke="#50119C" stroke-width=".86" stroke-linejoin="round"/>
    <path fill-rule="evenodd" clip-rule="evenodd" d="m87.384 44.667 3.01 3.01v-5.053l-3.01-3.01v5.053Z" fill="#DABCFF"/>
    <path d="M85.665 50.74h6.45l-1.72-1.72h-3.01l-1.72 1.72Z" fill="#7A2CDA" stroke="#50119C" stroke-width=".86" stroke-linejoin="round"/>
    <path d="M85.665 37.84v12.9l1.72-1.72v-9.46l-1.72-1.72Z" fill="#7A2CDA" stroke="#50119C" stroke-width=".86" stroke-linejoin="round"/>
    <path d="M85.665 37.84h6.45m-6.45 0v12.9m0-12.9 1.72 1.72m4.73-1.72v12.9m0-12.9-1.72 1.72m1.72 11.18h-6.45m6.45 0-1.72-1.72m-4.73 1.72 1.72-1.72m3.01 0v-9.46m0 9.46h-3.01m0 0v-9.46m0 0h3.01" stroke="#50119C" stroke-width=".86" stroke-linejoin="round"/>
  </g>
  <g filter="url(#k)" stroke="#50119C" stroke-width=".86" stroke-linejoin="round">
    <path d="M85.234 30.745v-6.45l-1.72 1.72v3.01l1.72 1.72Z" fill="#A964FD"/>
    <path d="M85.235 24.295h-6.45l1.72 1.72h3.01l1.72-1.72Z" fill="#A964FD"/>
    <path d="M83.514 29.025v-3.01h-3.01v3.01h3.01Z" fill="#B77CFF"/>
    <path d="M78.785 30.745h6.45l-1.72-1.72h-3.01l-1.72 1.72Z" fill="#7A2CDA"/>
    <path d="M78.785 24.295v6.45l1.72-1.72v-3.01l-1.72-1.72Z" fill="#7A2CDA"/>
    <path d="M78.785 24.295h6.45m-6.45 0v6.45m0-6.45 1.72 1.72m4.73-1.72v6.45m0-6.45-1.72 1.72m1.72 4.73h-6.45m6.45 0-1.72-1.72m-4.73 1.72 1.72-1.72m3.01 0v-3.01m0 3.01h-3.01m0 0v-3.01m0 0h3.01"/>
  </g>
  <g filter="url(#l)" stroke="#50119C" stroke-width=".86" stroke-linejoin="round">
    <path d="M99.21 30.745v-6.45l-1.72 1.72v3.01l1.72 1.72Z" fill="#A964FD"/>
    <path d="M99.21 24.295h-6.45l1.72 1.72h3.01l1.72-1.72Z" fill="#A964FD"/>
    <path d="M97.489 29.025v-3.01h-3.01v3.01h3.01Z" fill="#B77CFF"/>
    <path d="M92.76 30.745h6.45l-1.72-1.72h-3.01l-1.72 1.72Z" fill="#7A2CDA"/>
    <path d="M92.76 24.295v6.45l1.72-1.72v-3.01l-1.72-1.72Z" fill="#7A2CDA"/>
    <path d="M92.76 24.295h6.45m-6.45 0v6.45m0-6.45 1.72 1.72m4.73-1.72v6.45m0-6.45-1.72 1.72m1.72 4.73h-6.45m6.45 0-1.72-1.72m-4.73 1.72 1.72-1.72m3.01 0v-3.01m0 3.01h-3.01m0 0v-3.01m0 0h3.01"/>
  </g>
  <g filter="url(#m)">
    <path d="M78.784 57.405v-26.66l-1.72 1.72v23.22l1.72 1.72Z" fill="#A964FD" stroke="#50119C" stroke-width=".86" stroke-linejoin="round"/>
    <path d="M78.784 30.745h-6.45l1.72 1.72h3.01l1.72-1.72Z" fill="#A964FD" stroke="#50119C" stroke-width=".86" stroke-linejoin="round"/>
    <path d="M77.064 55.685v-23.22h-3.01v23.22h3.01Z" fill="#B77CFF" stroke="#50119C" stroke-width=".86" stroke-linejoin="round"/>
    <path fill-rule="evenodd" clip-rule="evenodd" d="m74.055 51.641 3.01 3.01v-3.307l-3.01-3.01v3.307Zm0-4.084 3.01 3.01v-1.463l-3.01-3.01v1.463Z" fill="#DABCFF"/>
    <path d="M72.335 57.405h6.45l-1.72-1.72h-3.01l-1.72 1.72Z" fill="#7A2CDA" stroke="#50119C" stroke-width=".86" stroke-linejoin="round"/>
    <path d="M72.335 30.745v26.66l1.72-1.72v-23.22l-1.72-1.72Z" fill="#7A2CDA" stroke="#50119C" stroke-width=".86" stroke-linejoin="round"/>
    <path d="M72.335 30.745h6.45m-6.45 0v26.66m0-26.66 1.72 1.72m4.73-1.72v26.66m0-26.66-1.72 1.72m1.72 24.94h-6.45m6.45 0-1.72-1.72m-4.73 1.72 1.72-1.72m3.01 0v-23.22m0 23.22h-3.01m0 0v-23.22m0 0h3.01" stroke="#50119C" stroke-width=".86" stroke-linejoin="round"/>
  </g>
  <g filter="url(#n)">
    <path d="M105.659 57.405v-26.66l-1.72 1.72v23.22l1.72 1.72Z" fill="#A964FD" stroke="#50119C" stroke-width=".86" stroke-linejoin="round"/>
    <path d="M105.659 30.745h-6.45l1.72 1.72h3.01l1.72-1.72Z" fill="#A964FD" stroke="#50119C" stroke-width=".86" stroke-linejoin="round"/>
    <path d="M103.939 55.685v-23.22h-3.01v23.22h3.01Z" fill="#B77CFF" stroke="#50119C" stroke-width=".86" stroke-linejoin="round"/>
    <path fill-rule="evenodd" clip-rule="evenodd" d="m100.93 41.238 3.01 3.01V40.94l-3.01-3.01v3.308Zm0-4.085 3.01 3.01V38.7l-3.01-3.01v1.463Z" fill="#DABCFF"/>
    <path d="M99.21 57.405h6.449l-1.72-1.72h-3.01l-1.72 1.72Z" fill="#7A2CDA" stroke="#50119C" stroke-width=".86" stroke-linejoin="round"/>
    <path d="M99.21 30.745v26.66l1.719-1.72v-23.22l-1.72-1.72Z" fill="#7A2CDA" stroke="#50119C" stroke-width=".86" stroke-linejoin="round"/>
    <path d="M99.21 30.745h6.449m-6.45 0v26.66m0-26.66 1.72 1.72m4.73-1.72v26.66m0-26.66-1.72 1.72m1.72 24.94h-6.45m6.45 0-1.72-1.72m-4.73 1.72 1.72-1.72m3.01 0v-23.22m0 23.22h-3.01m0 0v-23.22m0 0h3.01" stroke="#50119C" stroke-width=".86" stroke-linejoin="round"/>
  </g>
  <g style="mix-blend-mode:color-burn">
    <mask id="o" maskUnits="userSpaceOnUse" x="48.954" y="13.265" width="23" height="61" fill="#000">
      <path fill="#fff" d="M48.954 13.265h23v61h-23z"/>
      <path d="M66.283 19.338c-.609 1.258-1.689 1.917-2.886 2.396-.137.08-.275.2-.334.32-.451 1.018-.883 2.076-1.315 3.074-.157.38-.275.739-.452 1.198.51-.659.962-1.218 1.414-1.757.824-.978 1.806-1.717 3.121-1.917 1.335-.22 2.67-.1 3.986.24.039.04.059.04.137.08-.334.499-.628 1.018-.942 1.477-.687.899-1.512 1.637-2.611 2.037-1.57.499-3.18.619-4.79.359-.158-.06-.295-.08-.452-.12a46.466 46.466 0 0 0-1.865 7.128c.314-.46.589-.978.864-1.438.687-1.178 1.55-2.116 2.866-2.575a9.093 9.093 0 0 1 3.082-.52c.334 0 .687.04 1.1.04-.197.48-.334.9-.491 1.298-.51 1.098-1.139 2.057-2.16 2.696-1.217.818-2.591 1.218-4.024 1.357-.452.04-.943.08-1.414.12a50.868 50.868 0 0 0-.707 7.367c.079-.08.099-.2.138-.319.157-.46.334-.938.51-1.438.55-1.437 1.473-2.535 2.867-3.194.962-.44 1.982-.699 3.023-.858.177 0 .353-.04.55-.08v.24c-.04.219-.079.498-.138.778-.334 1.437-.883 2.815-2.1 3.753-1.277 1.059-2.769 1.717-4.398 2.077-.157.02-.314.02-.51.06a40.27 40.27 0 0 0 .588 7.527c.177-.819.315-1.597.472-2.376.255-1.098.785-2.077 1.63-2.815 1.06-.899 2.296-1.478 3.592-1.957.137 0 .275-.08.49-.12-.02.719-.039 1.338-.117 1.957-.138 1.138-.452 2.176-1.178 3.035-1.237 1.437-2.729 2.535-4.516 3.154-.059 0-.117.04-.196.08.452 2.316 1.06 4.572 1.885 6.748.04-.399 0-.778.02-1.178.02-1.317.235-2.555 1.04-3.613a8.461 8.461 0 0 1 2.356-2.097c.471-.32.942-.599 1.472-.858.06.22.079.42.118.579.275 1.637.275 3.234-.55 4.712-.687 1.218-1.63 2.236-2.729 3.094-.412.32-.824.58-1.256.859.805 2.096 1.728 4.133 2.827 6.07 0-.12 0-.2-.02-.28-.058-.54-.137-1.138-.196-1.677a5.277 5.277 0 0 1 .589-2.895c.57-1.038 1.335-1.937 2.238-2.716.334-.26.668-.539 1.021-.858.49 1.178.766 2.316.805 3.474 0 .659-.04 1.318-.295 1.956a11.52 11.52 0 0 1-3.101 4.493c-.157.12-.138.2-.06.36a55.346 55.346 0 0 0 3.004 4.471s-.196.4-1.511-.459c-.314-.459-.629-.898-.923-1.397a92.016 92.016 0 0 1-1.787-2.955c-.117-.26-.235-.34-.51-.26-1.728.4-3.475.4-5.183-.08-1.217-.32-2.199-1.098-3.004-2.036-.353-.42-.667-.939-1-1.358-.02-.08-.06-.12-.099-.2l.118-.08c1.374-.459 2.787-.698 4.22-.578 1.434.08 2.592.778 3.613 1.797.236.24.451.459.726.658-.02-.08-.059-.16-.098-.24a53.484 53.484 0 0 1-2.395-5.69c-.059-.199-.137-.239-.334-.239-1.708.12-3.376-.2-4.947-.898-1.217-.54-2.061-1.478-2.71-2.616-.313-.499-.549-1.078-.843-1.697.569 0 1.08-.08 1.59-.08.981-.04 1.963.04 2.925.3 1.315.399 2.238 1.218 3.023 2.296.197.24.354.479.51.718-.49-2.136-.98-4.292-1.472-6.428-.785-.2-1.63-.36-2.414-.62-1.218-.419-2.356-1.018-3.26-1.996-.785-.858-1.59-2.735-1.688-3.893h.04c1.688.02 3.317.34 4.79 1.278.903.539 1.472 1.437 1.943 2.375.118.2.216.4.354.62-.197-2.137-.275-4.253-.118-6.39-1.06-.319-2.022-.738-2.906-1.317-1.295-.859-2.414-1.877-2.886-3.434a9.274 9.274 0 0 1-.431-2.536c-.02-.08 0-.16 0-.36.746.28 1.472.48 2.16.7.941.399 1.805.898 2.532 1.677.628.678.962 1.497 1.236 2.336.118.399.217.798.374 1.177 0-.12.02-.16.02-.279.176-2.056.45-4.093.863-6.11.04-.2.02-.359-.216-.439a9.5 9.5 0 0 1-3.868-3.434c-.687-1.058-.844-2.216-.824-3.474 0-.459.059-.898.118-1.437.589.32 1.158.559 1.649.858 1.1.64 2.061 1.418 2.69 2.536.49.858.608 1.837.687 2.815.039.3.039.619.117.898l.06-.24c.51-2.056 1.118-4.132 1.904-6.128.078-.2.078-.32-.099-.42-1.354-.978-2.375-2.216-3.121-3.753-.589-1.218-.589-2.456-.334-3.714.079-.46.197-.878.314-1.338l.04-.04c.863.54 1.668 1.159 2.355 1.937 1.06 1.138 1.63 2.456 1.512 4.093-.04.579-.098 1.218-.137 1.917.039-.08.059-.12.078-.2.432-.898.864-1.797 1.296-2.715.04-.12.04-.24.04-.36-.04-.818-.02-1.637.196-2.455.157-.62.392-1.258.844-1.717.53-.58 1.158-1.019 1.826-1.398.353-.24.706-.4 1.08-.579.058 0 .097.04.156.04-.02.3-.078.579-.098.878-.04 1.099-.294 2.197-.785 3.155Z"/>
    </mask>
    <path d="M66.283 19.338c-.609 1.258-1.689 1.917-2.886 2.396-.137.08-.275.2-.334.32-.451 1.018-.883 2.076-1.315 3.074-.157.38-.275.739-.452 1.198.51-.659.962-1.218 1.414-1.757.824-.978 1.806-1.717 3.121-1.917 1.335-.22 2.67-.1 3.986.24.039.04.059.04.137.08-.334.499-.628 1.018-.942 1.477-.687.899-1.512 1.637-2.611 2.037-1.57.499-3.18.619-4.79.359-.158-.06-.295-.08-.452-.12a46.466 46.466 0 0 0-1.865 7.128c.314-.46.589-.978.864-1.438.687-1.178 1.55-2.116 2.866-2.575a9.093 9.093 0 0 1 3.082-.52c.334 0 .687.04 1.1.04-.197.48-.334.9-.491 1.298-.51 1.098-1.139 2.057-2.16 2.696-1.217.818-2.591 1.218-4.024 1.357-.452.04-.943.08-1.414.12a50.868 50.868 0 0 0-.707 7.367c.079-.08.099-.2.138-.319.157-.46.334-.938.51-1.438.55-1.437 1.473-2.535 2.867-3.194.962-.44 1.982-.699 3.023-.858.177 0 .353-.04.55-.08v.24c-.04.219-.079.498-.138.778-.334 1.437-.883 2.815-2.1 3.753-1.277 1.059-2.769 1.717-4.398 2.077-.157.02-.314.02-.51.06a40.27 40.27 0 0 0 .588 7.527c.177-.819.315-1.597.472-2.376.255-1.098.785-2.077 1.63-2.815 1.06-.899 2.296-1.478 3.592-1.957.137 0 .275-.08.49-.12-.02.719-.039 1.338-.117 1.957-.138 1.138-.452 2.176-1.178 3.035-1.237 1.437-2.729 2.535-4.516 3.154-.059 0-.117.04-.196.08.452 2.316 1.06 4.572 1.885 6.748.04-.399 0-.778.02-1.178.02-1.317.235-2.555 1.04-3.613a8.461 8.461 0 0 1 2.356-2.097c.471-.32.942-.599 1.472-.858.06.22.079.42.118.579.275 1.637.275 3.234-.55 4.712-.687 1.218-1.63 2.236-2.729 3.094-.412.32-.824.58-1.256.859.805 2.096 1.728 4.133 2.827 6.07 0-.12 0-.2-.02-.28-.058-.54-.137-1.138-.196-1.677a5.277 5.277 0 0 1 .589-2.895c.57-1.038 1.335-1.937 2.238-2.716.334-.26.668-.539 1.021-.858.49 1.178.766 2.316.805 3.474 0 .659-.04 1.318-.295 1.956a11.52 11.52 0 0 1-3.101 4.493c-.157.12-.138.2-.06.36a55.346 55.346 0 0 0 3.004 4.471s-.196.4-1.511-.459c-.314-.459-.629-.898-.923-1.397a92.016 92.016 0 0 1-1.787-2.955c-.117-.26-.235-.34-.51-.26-1.728.4-3.475.4-5.183-.08-1.217-.32-2.199-1.098-3.004-2.036-.353-.42-.667-.939-1-1.358-.02-.08-.06-.12-.099-.2l.118-.08c1.374-.459 2.787-.698 4.22-.578 1.434.08 2.592.778 3.613 1.797.236.24.451.459.726.658-.02-.08-.059-.16-.098-.24a53.484 53.484 0 0 1-2.395-5.69c-.059-.199-.137-.239-.334-.239-1.708.12-3.376-.2-4.947-.898-1.217-.54-2.061-1.478-2.71-2.616-.313-.499-.549-1.078-.843-1.697.569 0 1.08-.08 1.59-.08.981-.04 1.963.04 2.925.3 1.315.399 2.238 1.218 3.023 2.296.197.24.354.479.51.718-.49-2.136-.98-4.292-1.472-6.428-.785-.2-1.63-.36-2.414-.62-1.218-.419-2.356-1.018-3.26-1.996-.785-.858-1.59-2.735-1.688-3.893h.04c1.688.02 3.317.34 4.79 1.278.903.539 1.472 1.437 1.943 2.375.118.2.216.4.354.62-.197-2.137-.275-4.253-.118-6.39-1.06-.319-2.022-.738-2.906-1.317-1.295-.859-2.414-1.877-2.886-3.434a9.274 9.274 0 0 1-.431-2.536c-.02-.08 0-.16 0-.36.746.28 1.472.48 2.16.7.941.399 1.805.898 2.532 1.677.628.678.962 1.497 1.236 2.336.118.399.217.798.374 1.177 0-.12.02-.16.02-.279.176-2.056.45-4.093.863-6.11.04-.2.02-.359-.216-.439a9.5 9.5 0 0 1-3.868-3.434c-.687-1.058-.844-2.216-.824-3.474 0-.459.059-.898.118-1.437.589.32 1.158.559 1.649.858 1.1.64 2.061 1.418 2.69 2.536.49.858.608 1.837.687 2.815.039.3.039.619.117.898l.06-.24c.51-2.056 1.118-4.132 1.904-6.128.078-.2.078-.32-.099-.42-1.354-.978-2.375-2.216-3.121-3.753-.589-1.218-.589-2.456-.334-3.714.079-.46.197-.878.314-1.338l.04-.04c.863.54 1.668 1.159 2.355 1.937 1.06 1.138 1.63 2.456 1.512 4.093-.04.579-.098 1.218-.137 1.917.039-.08.059-.12.078-.2.432-.898.864-1.797 1.296-2.715.04-.12.04-.24.04-.36-.04-.818-.02-1.637.196-2.455.157-.62.392-1.258.844-1.717.53-.58 1.158-1.019 1.826-1.398.353-.24.706-.4 1.08-.579.058 0 .097.04.156.04-.02.3-.078.579-.098.878-.04 1.099-.294 2.197-.785 3.155Z" fill="#000" fill-opacity=".16"/>
    <path d="M66.283 19.338c-.609 1.258-1.689 1.917-2.886 2.396-.137.08-.275.2-.334.32-.451 1.018-.883 2.076-1.315 3.074-.157.38-.275.739-.452 1.198.51-.659.962-1.218 1.414-1.757.824-.978 1.806-1.717 3.121-1.917 1.335-.22 2.67-.1 3.986.24.039.04.059.04.137.08-.334.499-.628 1.018-.942 1.477-.687.899-1.512 1.637-2.611 2.037-1.57.499-3.18.619-4.79.359-.158-.06-.295-.08-.452-.12a46.466 46.466 0 0 0-1.865 7.128c.314-.46.589-.978.864-1.438.687-1.178 1.55-2.116 2.866-2.575a9.093 9.093 0 0 1 3.082-.52c.334 0 .687.04 1.1.04-.197.48-.334.9-.491 1.298-.51 1.098-1.139 2.057-2.16 2.696-1.217.818-2.591 1.218-4.024 1.357-.452.04-.943.08-1.414.12a50.868 50.868 0 0 0-.707 7.367c.079-.08.099-.2.138-.319.157-.46.334-.938.51-1.438.55-1.437 1.473-2.535 2.867-3.194.962-.44 1.982-.699 3.023-.858.177 0 .353-.04.55-.08v.24c-.04.219-.079.498-.138.778-.334 1.437-.883 2.815-2.1 3.753-1.277 1.059-2.769 1.717-4.398 2.077-.157.02-.314.02-.51.06a40.27 40.27 0 0 0 .588 7.527c.177-.819.315-1.597.472-2.376.255-1.098.785-2.077 1.63-2.815 1.06-.899 2.296-1.478 3.592-1.957.137 0 .275-.08.49-.12-.02.719-.039 1.338-.117 1.957-.138 1.138-.452 2.176-1.178 3.035-1.237 1.437-2.729 2.535-4.516 3.154-.059 0-.117.04-.196.08.452 2.316 1.06 4.572 1.885 6.748.04-.399 0-.778.02-1.178.02-1.317.235-2.555 1.04-3.613a8.461 8.461 0 0 1 2.356-2.097c.471-.32.942-.599 1.472-.858.06.22.079.42.118.579.275 1.637.275 3.234-.55 4.712-.687 1.218-1.63 2.236-2.729 3.094-.412.32-.824.58-1.256.859.805 2.096 1.728 4.133 2.827 6.07 0-.12 0-.2-.02-.28-.058-.54-.137-1.138-.196-1.677a5.277 5.277 0 0 1 .589-2.895c.57-1.038 1.335-1.937 2.238-2.716.334-.26.668-.539 1.021-.858.49 1.178.766 2.316.805 3.474 0 .659-.04 1.318-.295 1.956a11.52 11.52 0 0 1-3.101 4.493c-.157.12-.138.2-.06.36a55.346 55.346 0 0 0 3.004 4.471s-.196.4-1.511-.459c-.314-.459-.629-.898-.923-1.397a92.016 92.016 0 0 1-1.787-2.955c-.117-.26-.235-.34-.51-.26-1.728.4-3.475.4-5.183-.08-1.217-.32-2.199-1.098-3.004-2.036-.353-.42-.667-.939-1-1.358-.02-.08-.06-.12-.099-.2l.118-.08c1.374-.459 2.787-.698 4.22-.578 1.434.08 2.592.778 3.613 1.797.236.24.451.459.726.658-.02-.08-.059-.16-.098-.24a53.484 53.484 0 0 1-2.395-5.69c-.059-.199-.137-.239-.334-.239-1.708.12-3.376-.2-4.947-.898-1.217-.54-2.061-1.478-2.71-2.616-.313-.499-.549-1.078-.843-1.697.569 0 1.08-.08 1.59-.08.981-.04 1.963.04 2.925.3 1.315.399 2.238 1.218 3.023 2.296.197.24.354.479.51.718-.49-2.136-.98-4.292-1.472-6.428-.785-.2-1.63-.36-2.414-.62-1.218-.419-2.356-1.018-3.26-1.996-.785-.858-1.59-2.735-1.688-3.893h.04c1.688.02 3.317.34 4.79 1.278.903.539 1.472 1.437 1.943 2.375.118.2.216.4.354.62-.197-2.137-.275-4.253-.118-6.39-1.06-.319-2.022-.738-2.906-1.317-1.295-.859-2.414-1.877-2.886-3.434a9.274 9.274 0 0 1-.431-2.536c-.02-.08 0-.16 0-.36.746.28 1.472.48 2.16.7.941.399 1.805.898 2.532 1.677.628.678.962 1.497 1.236 2.336.118.399.217.798.374 1.177 0-.12.02-.16.02-.279.176-2.056.45-4.093.863-6.11.04-.2.02-.359-.216-.439a9.5 9.5 0 0 1-3.868-3.434c-.687-1.058-.844-2.216-.824-3.474 0-.459.059-.898.118-1.437.589.32 1.158.559 1.649.858 1.1.64 2.061 1.418 2.69 2.536.49.858.608 1.837.687 2.815.039.3.039.619.117.898l.06-.24c.51-2.056 1.118-4.132 1.904-6.128.078-.2.078-.32-.099-.42-1.354-.978-2.375-2.216-3.121-3.753-.589-1.218-.589-2.456-.334-3.714.079-.46.197-.878.314-1.338l.04-.04c.863.54 1.668 1.159 2.355 1.937 1.06 1.138 1.63 2.456 1.512 4.093-.04.579-.098 1.218-.137 1.917.039-.08.059-.12.078-.2.432-.898.864-1.797 1.296-2.715.04-.12.04-.24.04-.36-.04-.818-.02-1.637.196-2.455.157-.62.392-1.258.844-1.717.53-.58 1.158-1.019 1.826-1.398.353-.24.706-.4 1.08-.579.058 0 .097.04.156.04-.02.3-.078.579-.098.878-.04 1.099-.294 2.197-.785 3.155Z" stroke="#000" stroke-opacity=".16" stroke-width="2.15" stroke-linejoin="round" mask="url(#o)"/>
  </g>
  <path d="M64.993 18.478c-.608 1.258-1.688 1.917-2.886 2.396-.137.08-.274.2-.333.32-.452 1.018-.884 2.076-1.316 3.074-.157.38-.275.739-.451 1.198.51-.659.962-1.218 1.413-1.757.825-.978 1.806-1.717 3.122-1.917 1.335-.22 2.67-.1 3.985.24.04.04.059.04.138.08-.334.499-.629 1.018-.943 1.477-.687.899-1.511 1.637-2.61 2.037a10.27 10.27 0 0 1-4.791.359c-.157-.06-.295-.08-.452-.12a46.477 46.477 0 0 0-1.865 7.128c.314-.46.59-.978.864-1.438.687-1.178 1.551-2.116 2.866-2.575a9.092 9.092 0 0 1 3.083-.52c.333 0 .687.04 1.099.04-.196.48-.334.9-.49 1.298-.511 1.099-1.14 2.057-2.16 2.696-1.218.818-2.592 1.218-4.025 1.357-.452.04-.942.08-1.413.12a50.868 50.868 0 0 0-.707 7.368c.078-.08.098-.2.137-.32.157-.46.334-.938.51-1.438.55-1.437 1.473-2.535 2.867-3.194.962-.44 1.983-.699 3.023-.858.177 0 .354-.04.55-.08v.24c-.04.219-.079.498-.137.778-.334 1.437-.884 2.815-2.101 3.753-1.276 1.059-2.768 1.718-4.398 2.077-.157.02-.314.02-.51.06a40.27 40.27 0 0 0 .589 7.527c.177-.819.314-1.598.471-2.376.255-1.098.785-2.077 1.63-2.815 1.06-.899 2.296-1.478 3.592-1.957.138 0 .275-.08.491-.12-.02.719-.04 1.338-.118 1.957-.137 1.138-.451 2.176-1.178 3.035-1.236 1.437-2.729 2.535-4.515 3.154-.059 0-.118.04-.196.08.451 2.316 1.06 4.572 1.884 6.748.04-.399 0-.778.02-1.178.02-1.317.236-2.555 1.04-3.613a8.461 8.461 0 0 1 2.356-2.097 11.9 11.9 0 0 1 1.473-.858c.059.22.078.42.118.579.274 1.637.274 3.234-.55 4.712-.687 1.218-1.63 2.236-2.73 3.094-.411.32-.824.58-1.256.859.805 2.096 1.728 4.133 2.828 6.07 0-.12 0-.2-.02-.28-.06-.54-.138-1.138-.197-1.677a5.277 5.277 0 0 1 .59-2.895c.569-1.038 1.335-1.937 2.238-2.716.333-.26.667-.539 1.02-.858.491 1.178.766 2.316.805 3.474 0 .659-.039 1.318-.294 1.956a11.52 11.52 0 0 1-3.102 4.493c-.157.12-.137.2-.059.36a55.327 55.327 0 0 0 3.004 4.471s-.197.4-1.512-.459c-.314-.459-.628-.898-.923-1.397a90.378 90.378 0 0 1-1.786-2.955c-.118-.26-.236-.34-.51-.26-1.728.4-3.476.4-5.184-.08-1.217-.32-2.198-1.098-3.003-2.036-.354-.42-.668-.939-1.001-1.358-.02-.08-.06-.12-.099-.2l.118-.08c1.375-.459 2.788-.698 4.221-.578 1.433.08 2.592.778 3.612 1.797.236.24.452.459.727.658-.02-.08-.059-.16-.098-.24a53.463 53.463 0 0 1-2.395-5.69c-.06-.199-.138-.239-.334-.239-1.708.12-3.377-.2-4.947-.898-1.218-.54-2.062-1.478-2.71-2.616-.314-.499-.55-1.078-.844-1.697.57 0 1.08-.08 1.59-.08.982-.04 1.964.04 2.925.3 1.316.399 2.238 1.218 3.024 2.296.196.24.353.479.51.718-.49-2.136-.981-4.292-1.472-6.428-.785-.2-1.63-.36-2.415-.62-1.217-.419-2.356-1.018-3.259-1.996-.785-.858-1.59-2.735-1.688-3.893h.039c1.688.02 3.318.34 4.79 1.278.903.539 1.473 1.437 1.944 2.376.118.2.216.399.353.618-.196-2.136-.275-4.252-.117-6.388-1.06-.32-2.023-.74-2.906-1.318-1.296-.859-2.415-1.877-2.886-3.434a9.27 9.27 0 0 1-.432-2.536c-.02-.08 0-.16 0-.36.746.28 1.472.48 2.16.7.942.399 1.806.898 2.532 1.677.628.678.962 1.497 1.237 2.336.118.399.216.798.373 1.177 0-.12.02-.16.02-.279a53.12 53.12 0 0 1 .863-6.11c.04-.2.02-.359-.215-.439a9.502 9.502 0 0 1-3.868-3.434c-.687-1.058-.844-2.216-.825-3.474 0-.459.06-.898.118-1.437.59.32 1.159.559 1.65.858 1.099.64 2.06 1.418 2.689 2.536.49.858.608 1.837.687 2.815.04.3.04.619.118.898l.059-.24c.51-2.056 1.119-4.132 1.904-6.128.079-.2.079-.32-.098-.42-1.355-.978-2.376-2.216-3.122-3.753-.589-1.218-.589-2.456-.333-3.714.078-.46.196-.878.314-1.338l.039-.04c.864.54 1.669 1.159 2.356 1.937 1.06 1.138 1.63 2.456 1.512 4.093-.04.58-.099 1.218-.138 1.917.04-.08.059-.12.079-.2.432-.898.864-1.797 1.295-2.715.04-.12.04-.24.04-.36-.04-.818-.02-1.637.196-2.455.157-.62.393-1.258.844-1.717.53-.58 1.158-1.019 1.826-1.398.353-.24.707-.4 1.08-.579.059 0 .098.04.157.04-.02.3-.079.579-.098.878-.04 1.099-.295 2.197-.786 3.155Z" fill="#FFD57C"/>
  <path fill-rule="evenodd" clip-rule="evenodd" d="M64.647 50.047c-1.26 3.726-2.24 5.921-4.306 8.904l-.622-1.43a2.854 2.854 0 0 1-.007.07c-.07-.187-.139-.373-.206-.56l-.071-.164-.045-.164a41.59 41.59 0 0 1-1.431-5.213l-.03-.105-.015-.112a29.85 29.85 0 0 1-.086-.431l.022-.012-.16-1.127-.039.18a40.27 40.27 0 0 1-.589-7.526c.046-.01.09-.017.132-.023l.063-1.312-.022.075a.551.551 0 0 1-.114.241c.059-2.495.294-4.951.707-7.367l.045-.004.277-1.196a8.15 8.15 0 0 1-.146.222 46.474 46.474 0 0 1 1.866-7.128l.139.033c.103.023.203.045.312.087 1.61.26 3.22.14 4.79-.36 1.1-.399 1.924-1.137 2.611-2.036.165-.24.324-.497.486-.759l.046-.074c-2.923 1.732-5.053 2.57-8.135 3.108l.42-1.075c-.172.215-.348.44-.532.677.073-.19.136-.362.196-.527.085-.233.163-.448.255-.671.177-.409.354-.827.532-1.25a113.8 113.8 0 0 1 .784-1.825.726.726 0 0 1 .203-.23h-.265a257.17 257.17 0 0 1-.802 1.685 63.337 63.337 0 0 0-1.866 4.691 56.278 56.278 0 0 0-1.118 3.937l-.059.24-.005-.019c-.785 3.807-1.117 7.949-1.337 10.7l-.044.557c-.046 1.659.036 3.31.188 4.973l-.09-.149c.089.786.204 1.612.341 2.453l.721 3.147.736 3.214a70.416 70.416 0 0 0-.073-.11c.216.752.44 1.46.671 2.1.095.025.146.086.188.227.344.968.717 1.932 1.117 2.883.45 1.022.864 1.935 1.253 2.756l.025.05.058.125c.365.765.71 1.447 1.044 2.06.042.047.078.11.115.192.245.429.497.855.753 1.278.324.501.64 1.022.933 1.515l.1.161c.24.408.494.775.75 1.146l.173.252c1.316.859 1.512.46 1.512.46a55.325 55.325 0 0 1-3.004-4.473c-.07-.143-.093-.222.015-.323l-1.016-1.815v.002c.02.08.02.16.02.28-1.1-1.937-2.023-3.974-2.827-6.07l.14-.09c.381-.247.749-.484 1.116-.769 1.1-.858 2.042-1.877 2.729-3.094.825-1.478.825-3.075.55-4.712a3.384 3.384 0 0 1-.044-.225 8.635 8.635 0 0 0-.028-.151Zm2.019 6.741c-.755 4.362-1.306 6.716-2.54 9.8a11.522 11.522 0 0 0 3.027-4.426c.255-.638.294-1.297.294-1.956-.038-1.14-.305-2.26-.781-3.418Zm-4.635 9.679c-3.288-.513-5.542-1.555-8.849-3.39.114.152.226.312.34.473.18.258.362.518.556.749.805.938 1.786 1.717 3.004 2.036 1.63.458 3.297.478 4.949.132Zm-3.407-8.086c-2.815-1.035-4.77-2.366-8.195-5.008l.12.26c.202.44.391.853.623 1.222.648 1.138 1.492 2.077 2.71 2.616 1.507.67 3.105.992 4.742.91Zm-2.106-8.512c-2.84-1.502-4.332-3.052-6.77-6.411a13.11 13.11 0 0 0-.166-.003h-.039c.098 1.158.903 3.035 1.688 3.893.903.978 2.042 1.577 3.26 1.997.533.176 1.093.306 1.644.434l.383.09Zm-.312-8.64c-2.329-1.938-3.622-3.769-5.678-7.464a16.117 16.117 0 0 1-.189-.07l-.01.027-.006.158c-.004.075-.007.123.005.171.02.858.177 1.717.432 2.536.471 1.557 1.59 2.575 2.886 3.434.787.515 1.635.904 2.56 1.209Zm1.045-8.499c-1.973-2.34-3.042-4.092-4.542-8.194l-.013.116c-.048.432-.09.805-.09 1.193-.02 1.258.137 2.416.824 3.474a9.499 9.499 0 0 0 3.821 3.411Zm2.6-7.899.012.001c-1.854-3.366-2.53-5.368-3.279-8.884l-.054.21c-.096.37-.188.722-.253 1.102-.255 1.258-.255 2.496.334 3.714.746 1.537 1.767 2.775 3.121 3.753a.318.318 0 0 1 .119.104ZM65.839 14.8c-.983 2.306-1.84 3.829-3.644 6.038 1.163-.476 2.205-1.133 2.798-2.36.491-.958.747-2.056.786-3.155.01-.15.03-.294.049-.439l.011-.084Zm-.102 14.161c-2.762 2.514-4.66 3.892-7.419 4.969.314-.026.627-.052.923-.079 1.433-.14 2.808-.539 4.025-1.357 1.02-.64 1.649-1.598 2.16-2.696.066-.168.128-.34.193-.517l.118-.32Zm-1.53 6.738c-2.631 3.117-4.301 4.833-6.995 6.633.067-.009.131-.014.193-.019l.167-.016c1.63-.36 3.122-1.018 4.398-2.077 1.217-.938 1.767-2.316 2.1-3.753.04-.186.07-.373.098-.541l.038-.227Zm-.38 7.236c-2.143 3.5-3.571 5.613-5.66 7.776 1.724-.627 3.169-1.705 4.372-3.103.727-.859 1.041-1.897 1.178-3.035.067-.526.091-1.051.11-1.638Z" fill="#E1910E"/>
  <mask id="p" maskUnits="userSpaceOnUse" x="47.665" y="12.405" width="23" height="61" fill="#000">
    <path fill="#fff" d="M47.665 12.405h23v61h-23z"/>
    <path d="M64.994 18.478c-.609 1.258-1.689 1.917-2.886 2.396-.137.08-.275.2-.334.32-.451 1.018-.883 2.076-1.315 3.074-.157.38-.275.739-.452 1.198.51-.659.962-1.218 1.414-1.757.824-.978 1.806-1.717 3.121-1.917 1.335-.22 2.67-.1 3.986.24.039.04.058.04.137.08-.334.499-.628 1.018-.942 1.477-.687.899-1.512 1.637-2.611 2.037-1.571.499-3.18.619-4.79.359-.158-.06-.295-.08-.452-.12a46.489 46.489 0 0 0-1.865 7.128c.314-.46.589-.978.864-1.438.687-1.178 1.55-2.116 2.866-2.575a9.092 9.092 0 0 1 3.082-.52c.334 0 .687.04 1.1.04-.197.48-.334.9-.491 1.298-.51 1.099-1.139 2.057-2.16 2.696-1.217.818-2.591 1.218-4.024 1.357-.452.04-.943.08-1.414.12a50.868 50.868 0 0 0-.707 7.368c.079-.08.098-.2.138-.32.157-.46.334-.938.51-1.438.55-1.437 1.473-2.535 2.867-3.194.961-.44 1.982-.699 3.023-.858.177 0 .353-.04.55-.08v.24c-.04.219-.079.498-.138.778-.334 1.437-.883 2.815-2.1 3.753-1.277 1.059-2.769 1.718-4.398 2.077-.157.02-.314.02-.51.06a40.27 40.27 0 0 0 .588 7.527c.177-.819.314-1.598.471-2.376.256-1.098.786-2.077 1.63-2.815 1.06-.899 2.297-1.478 3.593-1.957.137 0 .275-.08.49-.12-.02.719-.039 1.338-.117 1.957-.138 1.138-.452 2.176-1.178 3.035-1.237 1.437-2.73 2.535-4.516 3.154-.059 0-.117.04-.196.08.452 2.316 1.06 4.572 1.885 6.748.039-.399 0-.778.02-1.178.019-1.317.235-2.555 1.04-3.613a8.461 8.461 0 0 1 2.356-2.097 11.9 11.9 0 0 1 1.472-.858c.06.22.079.42.118.579.275 1.637.275 3.234-.55 4.712-.687 1.218-1.63 2.236-2.729 3.094-.412.32-.824.58-1.256.859.805 2.096 1.728 4.133 2.827 6.07 0-.12 0-.2-.02-.28-.059-.54-.137-1.138-.196-1.677a5.277 5.277 0 0 1 .589-2.895c.57-1.038 1.335-1.937 2.238-2.716.334-.26.668-.539 1.02-.858.492 1.178.767 2.316.806 3.474 0 .659-.04 1.318-.295 1.956a11.52 11.52 0 0 1-3.102 4.493c-.157.12-.137.2-.058.36a55.327 55.327 0 0 0 3.003 4.471s-.196.4-1.511-.459c-.314-.459-.629-.898-.923-1.397a90.378 90.378 0 0 1-1.787-2.955c-.117-.26-.235-.34-.51-.26-1.728.4-3.475.4-5.183-.08-1.217-.32-2.199-1.098-3.004-2.036-.353-.42-.667-.939-1-1.358-.02-.08-.06-.12-.1-.2l.119-.08c1.374-.459 2.788-.698 4.22-.578 1.434.08 2.592.778 3.613 1.797.236.24.452.459.726.658-.02-.08-.059-.16-.098-.24a53.484 53.484 0 0 1-2.395-5.69c-.059-.199-.137-.239-.334-.239-1.708.12-3.376-.2-4.947-.898-1.217-.54-2.061-1.478-2.71-2.616-.313-.499-.549-1.078-.843-1.697.569 0 1.08-.08 1.59-.08.981-.04 1.963.04 2.925.3 1.315.399 2.238 1.218 3.023 2.296.197.24.354.479.51.718-.49-2.136-.98-4.292-1.472-6.428-.785-.2-1.63-.36-2.414-.62-1.218-.419-2.356-1.018-3.26-1.996-.785-.858-1.59-2.735-1.688-3.893h.04c1.688.02 3.317.34 4.79 1.278.903.539 1.472 1.437 1.943 2.376.118.2.216.399.354.618-.197-2.136-.275-4.252-.118-6.388-1.06-.32-2.022-.74-2.906-1.318-1.295-.859-2.414-1.877-2.886-3.434a9.27 9.27 0 0 1-.431-2.536c-.02-.08 0-.16 0-.36.746.28 1.472.48 2.16.7.941.399 1.805.898 2.532 1.677.628.678.962 1.497 1.236 2.336.118.399.216.798.373 1.177 0-.12.02-.16.02-.279.177-2.056.452-4.093.864-6.11.04-.2.02-.359-.216-.439a9.503 9.503 0 0 1-3.868-3.434c-.687-1.058-.844-2.216-.824-3.474 0-.459.059-.898.118-1.437.589.32 1.158.559 1.649.858 1.1.64 2.061 1.418 2.69 2.536.49.858.608 1.837.686 2.815.04.3.04.619.118.898l.06-.24c.51-2.056 1.118-4.132 1.904-6.128.078-.2.078-.32-.099-.42-1.354-.978-2.375-2.216-3.121-3.753-.59-1.218-.59-2.456-.334-3.714.079-.46.196-.878.314-1.338l.04-.04c.863.54 1.668 1.159 2.355 1.937 1.06 1.138 1.63 2.456 1.512 4.093-.04.58-.098 1.218-.137 1.917.039-.08.059-.12.078-.2.432-.898.864-1.797 1.296-2.715.04-.12.04-.24.04-.36-.04-.818-.02-1.637.196-2.455.157-.62.392-1.258.844-1.717.53-.58 1.158-1.019 1.825-1.398.354-.24.707-.4 1.08-.579.06 0 .098.04.157.04-.02.3-.078.579-.098.878-.04 1.099-.294 2.197-.785 3.155Z"/>
  </mask>
  <path d="M64.994 18.478c-.609 1.258-1.689 1.917-2.886 2.396-.137.08-.275.2-.334.32-.451 1.018-.883 2.076-1.315 3.074-.157.38-.275.739-.452 1.198.51-.659.962-1.218 1.414-1.757.824-.978 1.806-1.717 3.121-1.917 1.335-.22 2.67-.1 3.986.24.039.04.058.04.137.08-.334.499-.628 1.018-.942 1.477-.687.899-1.512 1.637-2.611 2.037-1.571.499-3.18.619-4.79.359-.158-.06-.295-.08-.452-.12a46.489 46.489 0 0 0-1.865 7.128c.314-.46.589-.978.864-1.438.687-1.178 1.55-2.116 2.866-2.575a9.092 9.092 0 0 1 3.082-.52c.334 0 .687.04 1.1.04-.197.48-.334.9-.491 1.298-.51 1.099-1.139 2.057-2.16 2.696-1.217.818-2.591 1.218-4.024 1.357-.452.04-.943.08-1.414.12a50.868 50.868 0 0 0-.707 7.368c.079-.08.098-.2.138-.32.157-.46.334-.938.51-1.438.55-1.437 1.473-2.535 2.867-3.194.961-.44 1.982-.699 3.023-.858.177 0 .353-.04.55-.08v.24c-.04.219-.079.498-.138.778-.334 1.437-.883 2.815-2.1 3.753-1.277 1.059-2.769 1.718-4.398 2.077-.157.02-.314.02-.51.06a40.27 40.27 0 0 0 .588 7.527c.177-.819.314-1.598.471-2.376.256-1.098.786-2.077 1.63-2.815 1.06-.899 2.297-1.478 3.593-1.957.137 0 .275-.08.49-.12-.02.719-.039 1.338-.117 1.957-.138 1.138-.452 2.176-1.178 3.035-1.237 1.437-2.73 2.535-4.516 3.154-.059 0-.117.04-.196.08.452 2.316 1.06 4.572 1.885 6.748.039-.399 0-.778.02-1.178.019-1.317.235-2.555 1.04-3.613a8.461 8.461 0 0 1 2.356-2.097 11.9 11.9 0 0 1 1.472-.858c.06.22.079.42.118.579.275 1.637.275 3.234-.55 4.712-.687 1.218-1.63 2.236-2.729 3.094-.412.32-.824.58-1.256.859.805 2.096 1.728 4.133 2.827 6.07 0-.12 0-.2-.02-.28-.059-.54-.137-1.138-.196-1.677a5.277 5.277 0 0 1 .589-2.895c.57-1.038 1.335-1.937 2.238-2.716.334-.26.668-.539 1.02-.858.492 1.178.767 2.316.806 3.474 0 .659-.04 1.318-.295 1.956a11.52 11.52 0 0 1-3.102 4.493c-.157.12-.137.2-.058.36a55.327 55.327 0 0 0 3.003 4.471s-.196.4-1.511-.459c-.314-.459-.629-.898-.923-1.397a90.378 90.378 0 0 1-1.787-2.955c-.117-.26-.235-.34-.51-.26-1.728.4-3.475.4-5.183-.08-1.217-.32-2.199-1.098-3.004-2.036-.353-.42-.667-.939-1-1.358-.02-.08-.06-.12-.1-.2l.119-.08c1.374-.459 2.788-.698 4.22-.578 1.434.08 2.592.778 3.613 1.797.236.24.452.459.726.658-.02-.08-.059-.16-.098-.24a53.484 53.484 0 0 1-2.395-5.69c-.059-.199-.137-.239-.334-.239-1.708.12-3.376-.2-4.947-.898-1.217-.54-2.061-1.478-2.71-2.616-.313-.499-.549-1.078-.843-1.697.569 0 1.08-.08 1.59-.08.981-.04 1.963.04 2.925.3 1.315.399 2.238 1.218 3.023 2.296.197.24.354.479.51.718-.49-2.136-.98-4.292-1.472-6.428-.785-.2-1.63-.36-2.414-.62-1.218-.419-2.356-1.018-3.26-1.996-.785-.858-1.59-2.735-1.688-3.893h.04c1.688.02 3.317.34 4.79 1.278.903.539 1.472 1.437 1.943 2.376.118.2.216.399.354.618-.197-2.136-.275-4.252-.118-6.388-1.06-.32-2.022-.74-2.906-1.318-1.295-.859-2.414-1.877-2.886-3.434a9.27 9.27 0 0 1-.431-2.536c-.02-.08 0-.16 0-.36.746.28 1.472.48 2.16.7.941.399 1.805.898 2.532 1.677.628.678.962 1.497 1.236 2.336.118.399.216.798.373 1.177 0-.12.02-.16.02-.279.177-2.056.452-4.093.864-6.11.04-.2.02-.359-.216-.439a9.503 9.503 0 0 1-3.868-3.434c-.687-1.058-.844-2.216-.824-3.474 0-.459.059-.898.118-1.437.589.32 1.158.559 1.649.858 1.1.64 2.061 1.418 2.69 2.536.49.858.608 1.837.686 2.815.04.3.04.619.118.898l.06-.24c.51-2.056 1.118-4.132 1.904-6.128.078-.2.078-.32-.099-.42-1.354-.978-2.375-2.216-3.121-3.753-.59-1.218-.59-2.456-.334-3.714.079-.46.196-.878.314-1.338l.04-.04c.863.54 1.668 1.159 2.355 1.937 1.06 1.138 1.63 2.456 1.512 4.093-.04.58-.098 1.218-.137 1.917.039-.08.059-.12.078-.2.432-.898.864-1.797 1.296-2.715.04-.12.04-.24.04-.36-.04-.818-.02-1.637.196-2.455.157-.62.392-1.258.844-1.717.53-.58 1.158-1.019 1.825-1.398.354-.24.707-.4 1.08-.579.06 0 .098.04.157.04-.02.3-.078.579-.098.878-.04 1.099-.294 2.197-.785 3.155Z" stroke="#A05500" stroke-width="2.15" stroke-linejoin="round" mask="url(#p)"/>
  <g style="mix-blend-mode:color-burn">
    <mask id="q" maskUnits="userSpaceOnUse" x="105.809" y="13.265" width="23" height="61" fill="#000">
      <path fill="#fff" d="M105.809 13.265h23v61h-23z"/>
      <path d="M111.48 19.338c.609 1.258 1.689 1.917 2.886 2.396.138.08.275.2.334.32.452 1.018.883 2.076 1.315 3.074.157.38.275.739.452 1.198a58.068 58.068 0 0 0-1.414-1.757c-.824-.978-1.806-1.717-3.121-1.917-1.335-.22-2.67-.1-3.985.24-.04.04-.059.04-.138.08.334.499.628 1.018.942 1.477.688.899 1.512 1.637 2.612 2.037 1.57.499 3.18.619 4.79.359.157-.06.294-.08.451-.12a46.43 46.43 0 0 1 1.865 7.128c-.314-.46-.589-.978-.863-1.438-.688-1.178-1.551-2.116-2.867-2.575a9.088 9.088 0 0 0-3.082-.52c-.334 0-.687.04-1.099.04.196.48.333.9.49 1.298.511 1.098 1.139 2.057 2.16 2.696 1.217.818 2.591 1.218 4.025 1.357.451.04.942.08 1.413.12.412 2.416.648 4.872.707 7.367-.079-.08-.098-.2-.138-.319-.157-.46-.333-.938-.51-1.438-.55-1.437-1.472-2.535-2.866-3.194-.962-.44-1.983-.699-3.024-.858-.176 0-.353-.04-.549-.08v.24c.039.219.078.498.137.778.334 1.437.883 2.815 2.101 3.753 1.276 1.059 2.768 1.717 4.397 2.077.157.02.314.02.511.06a40.287 40.287 0 0 1-.589 7.527c-.177-.819-.314-1.597-.471-2.376-.256-1.098-.786-2.077-1.63-2.815-1.06-.899-2.297-1.478-3.593-1.957-.137 0-.274-.08-.49-.12.019.719.039 1.338.117 1.957.138 1.138.452 2.176 1.178 3.035 1.237 1.437 2.729 2.535 4.516 3.154.059 0 .118.04.196.08-.451 2.316-1.06 4.572-1.885 6.748-.039-.399 0-.778-.019-1.178-.02-1.317-.236-2.555-1.041-3.613a8.456 8.456 0 0 0-2.356-2.097c-.471-.32-.942-.599-1.472-.858-.059.22-.079.42-.118.579-.275 1.637-.275 3.234.55 4.712.687 1.218 1.629 2.236 2.729 3.094.412.32.824.58 1.256.859-.805 2.096-1.727 4.133-2.827 6.07 0-.12 0-.2.02-.28.059-.54.137-1.138.196-1.677a5.274 5.274 0 0 0-.589-2.895c-.569-1.038-1.335-1.937-2.238-2.716a18.02 18.02 0 0 1-1.021-.858c-.491 1.178-.765 2.316-.805 3.474 0 .659.04 1.318.295 1.956a11.509 11.509 0 0 0 3.102 4.493c.157.12.137.2.059.36a55.375 55.375 0 0 1-3.004 4.471s.196.4 1.512-.459c.314-.459.628-.898.922-1.397a90.923 90.923 0 0 0 1.787-2.955c.118-.26.235-.34.51-.26 1.728.4 3.475.4 5.183-.08 1.217-.32 2.199-1.098 3.004-2.036.353-.42.667-.939 1.001-1.358.02-.08.059-.12.098-.2l-.118-.08c-1.374-.459-2.787-.698-4.22-.578-1.434.08-2.592.778-3.613 1.797-.235.24-.451.459-.726.658.019-.08.059-.16.098-.24a53.462 53.462 0 0 0 2.395-5.69c.059-.199.137-.239.334-.239 1.708.12 3.377-.2 4.947-.898 1.217-.54 2.062-1.478 2.709-2.616.315-.499.55-1.078.845-1.697-.57 0-1.08-.08-1.591-.08-.981-.04-1.963.04-2.925.3-1.315.399-2.238 1.218-3.023 2.296-.197.24-.354.479-.511.718.491-2.136.982-4.292 1.473-6.428.785-.2 1.629-.36 2.415-.62 1.217-.419 2.355-1.018 3.258-1.996.786-.858 1.591-2.735 1.689-3.893h-.039c-1.689.02-3.318.34-4.791 1.278-.903.539-1.472 1.437-1.943 2.375-.118.2-.216.4-.354.62.197-2.137.275-4.253.118-6.39 1.06-.319 2.022-.738 2.906-1.317 1.295-.859 2.414-1.877 2.886-3.434a9.297 9.297 0 0 0 .432-2.536c.019-.08 0-.16 0-.36-.746.28-1.473.48-2.16.7-.942.399-1.806.898-2.533 1.677-.628.678-.962 1.497-1.236 2.336-.118.399-.216.798-.373 1.177 0-.12-.02-.16-.02-.279a53.307 53.307 0 0 0-.864-6.11c-.039-.2-.019-.359.216-.439a9.506 9.506 0 0 0 3.868-3.434c.687-1.058.844-2.216.824-3.474 0-.459-.059-.898-.118-1.437-.589.32-1.158.559-1.649.858-1.099.64-2.061 1.418-2.689 2.536-.491.858-.609 1.837-.687 2.815-.04.3-.04.619-.118.898l-.059-.24c-.511-2.056-1.119-4.132-1.904-6.128-.079-.2-.079-.32.098-.42 1.354-.978 2.375-2.216 3.121-3.753.589-1.218.589-2.456.334-3.714-.079-.46-.196-.878-.314-1.338l-.039-.04c-.864.54-1.669 1.159-2.356 1.937-1.06 1.138-1.63 2.456-1.512 4.093.039.579.098 1.218.138 1.917a.829.829 0 0 1-.079-.2c-.432-.898-.864-1.797-1.296-2.715-.039-.12-.039-.24-.039-.36.039-.818.02-1.637-.196-2.455-.157-.62-.393-1.258-.845-1.717-.53-.58-1.158-1.019-1.825-1.398-.354-.24-.707-.4-1.08-.579-.059 0-.098.04-.157.04.019.3.078.579.098.878.039 1.099.295 2.197.785 3.155Z"/>
    </mask>
    <path d="M111.48 19.338c.609 1.258 1.689 1.917 2.886 2.396.138.08.275.2.334.32.452 1.018.883 2.076 1.315 3.074.157.38.275.739.452 1.198a58.068 58.068 0 0 0-1.414-1.757c-.824-.978-1.806-1.717-3.121-1.917-1.335-.22-2.67-.1-3.985.24-.04.04-.059.04-.138.08.334.499.628 1.018.942 1.477.688.899 1.512 1.637 2.612 2.037 1.57.499 3.18.619 4.79.359.157-.06.294-.08.451-.12a46.43 46.43 0 0 1 1.865 7.128c-.314-.46-.589-.978-.863-1.438-.688-1.178-1.551-2.116-2.867-2.575a9.088 9.088 0 0 0-3.082-.52c-.334 0-.687.04-1.099.04.196.48.333.9.49 1.298.511 1.098 1.139 2.057 2.16 2.696 1.217.818 2.591 1.218 4.025 1.357.451.04.942.08 1.413.12.412 2.416.648 4.872.707 7.367-.079-.08-.098-.2-.138-.319-.157-.46-.333-.938-.51-1.438-.55-1.437-1.472-2.535-2.866-3.194-.962-.44-1.983-.699-3.024-.858-.176 0-.353-.04-.549-.08v.24c.039.219.078.498.137.778.334 1.437.883 2.815 2.101 3.753 1.276 1.059 2.768 1.717 4.397 2.077.157.02.314.02.511.06a40.287 40.287 0 0 1-.589 7.527c-.177-.819-.314-1.597-.471-2.376-.256-1.098-.786-2.077-1.63-2.815-1.06-.899-2.297-1.478-3.593-1.957-.137 0-.274-.08-.49-.12.019.719.039 1.338.117 1.957.138 1.138.452 2.176 1.178 3.035 1.237 1.437 2.729 2.535 4.516 3.154.059 0 .118.04.196.08-.451 2.316-1.06 4.572-1.885 6.748-.039-.399 0-.778-.019-1.178-.02-1.317-.236-2.555-1.041-3.613a8.456 8.456 0 0 0-2.356-2.097c-.471-.32-.942-.599-1.472-.858-.059.22-.079.42-.118.579-.275 1.637-.275 3.234.55 4.712.687 1.218 1.629 2.236 2.729 3.094.412.32.824.58 1.256.859-.805 2.096-1.727 4.133-2.827 6.07 0-.12 0-.2.02-.28.059-.54.137-1.138.196-1.677a5.274 5.274 0 0 0-.589-2.895c-.569-1.038-1.335-1.937-2.238-2.716a18.02 18.02 0 0 1-1.021-.858c-.491 1.178-.765 2.316-.805 3.474 0 .659.04 1.318.295 1.956a11.509 11.509 0 0 0 3.102 4.493c.157.12.137.2.059.36a55.375 55.375 0 0 1-3.004 4.471s.196.4 1.512-.459c.314-.459.628-.898.922-1.397a90.923 90.923 0 0 0 1.787-2.955c.118-.26.235-.34.51-.26 1.728.4 3.475.4 5.183-.08 1.217-.32 2.199-1.098 3.004-2.036.353-.42.667-.939 1.001-1.358.02-.08.059-.12.098-.2l-.118-.08c-1.374-.459-2.787-.698-4.22-.578-1.434.08-2.592.778-3.613 1.797-.235.24-.451.459-.726.658.019-.08.059-.16.098-.24a53.462 53.462 0 0 0 2.395-5.69c.059-.199.137-.239.334-.239 1.708.12 3.377-.2 4.947-.898 1.217-.54 2.062-1.478 2.709-2.616.315-.499.55-1.078.845-1.697-.57 0-1.08-.08-1.591-.08-.981-.04-1.963.04-2.925.3-1.315.399-2.238 1.218-3.023 2.296-.197.24-.354.479-.511.718.491-2.136.982-4.292 1.473-6.428.785-.2 1.629-.36 2.415-.62 1.217-.419 2.355-1.018 3.258-1.996.786-.858 1.591-2.735 1.689-3.893h-.039c-1.689.02-3.318.34-4.791 1.278-.903.539-1.472 1.437-1.943 2.375-.118.2-.216.4-.354.62.197-2.137.275-4.253.118-6.39 1.06-.319 2.022-.738 2.906-1.317 1.295-.859 2.414-1.877 2.886-3.434a9.297 9.297 0 0 0 .432-2.536c.019-.08 0-.16 0-.36-.746.28-1.473.48-2.16.7-.942.399-1.806.898-2.533 1.677-.628.678-.962 1.497-1.236 2.336-.118.399-.216.798-.373 1.177 0-.12-.02-.16-.02-.279a53.307 53.307 0 0 0-.864-6.11c-.039-.2-.019-.359.216-.439a9.506 9.506 0 0 0 3.868-3.434c.687-1.058.844-2.216.824-3.474 0-.459-.059-.898-.118-1.437-.589.32-1.158.559-1.649.858-1.099.64-2.061 1.418-2.689 2.536-.491.858-.609 1.837-.687 2.815-.04.3-.04.619-.118.898l-.059-.24c-.511-2.056-1.119-4.132-1.904-6.128-.079-.2-.079-.32.098-.42 1.354-.978 2.375-2.216 3.121-3.753.589-1.218.589-2.456.334-3.714-.079-.46-.196-.878-.314-1.338l-.039-.04c-.864.54-1.669 1.159-2.356 1.937-1.06 1.138-1.63 2.456-1.512 4.093.039.579.098 1.218.138 1.917a.829.829 0 0 1-.079-.2c-.432-.898-.864-1.797-1.296-2.715-.039-.12-.039-.24-.039-.36.039-.818.02-1.637-.196-2.455-.157-.62-.393-1.258-.845-1.717-.53-.58-1.158-1.019-1.825-1.398-.354-.24-.707-.4-1.08-.579-.059 0-.098.04-.157.04.019.3.078.579.098.878.039 1.099.295 2.197.785 3.155Z" fill="#000" fill-opacity=".16"/>
    <path d="M111.48 19.338c.609 1.258 1.689 1.917 2.886 2.396.138.08.275.2.334.32.452 1.018.883 2.076 1.315 3.074.157.38.275.739.452 1.198a58.068 58.068 0 0 0-1.414-1.757c-.824-.978-1.806-1.717-3.121-1.917-1.335-.22-2.67-.1-3.985.24-.04.04-.059.04-.138.08.334.499.628 1.018.942 1.477.688.899 1.512 1.637 2.612 2.037 1.57.499 3.18.619 4.79.359.157-.06.294-.08.451-.12a46.43 46.43 0 0 1 1.865 7.128c-.314-.46-.589-.978-.863-1.438-.688-1.178-1.551-2.116-2.867-2.575a9.088 9.088 0 0 0-3.082-.52c-.334 0-.687.04-1.099.04.196.48.333.9.49 1.298.511 1.098 1.139 2.057 2.16 2.696 1.217.818 2.591 1.218 4.025 1.357.451.04.942.08 1.413.12.412 2.416.648 4.872.707 7.367-.079-.08-.098-.2-.138-.319-.157-.46-.333-.938-.51-1.438-.55-1.437-1.472-2.535-2.866-3.194-.962-.44-1.983-.699-3.024-.858-.176 0-.353-.04-.549-.08v.24c.039.219.078.498.137.778.334 1.437.883 2.815 2.101 3.753 1.276 1.059 2.768 1.717 4.397 2.077.157.02.314.02.511.06a40.287 40.287 0 0 1-.589 7.527c-.177-.819-.314-1.597-.471-2.376-.256-1.098-.786-2.077-1.63-2.815-1.06-.899-2.297-1.478-3.593-1.957-.137 0-.274-.08-.49-.12.019.719.039 1.338.117 1.957.138 1.138.452 2.176 1.178 3.035 1.237 1.437 2.729 2.535 4.516 3.154.059 0 .118.04.196.08-.451 2.316-1.06 4.572-1.885 6.748-.039-.399 0-.778-.019-1.178-.02-1.317-.236-2.555-1.041-3.613a8.456 8.456 0 0 0-2.356-2.097c-.471-.32-.942-.599-1.472-.858-.059.22-.079.42-.118.579-.275 1.637-.275 3.234.55 4.712.687 1.218 1.629 2.236 2.729 3.094.412.32.824.58 1.256.859-.805 2.096-1.727 4.133-2.827 6.07 0-.12 0-.2.02-.28.059-.54.137-1.138.196-1.677a5.274 5.274 0 0 0-.589-2.895c-.569-1.038-1.335-1.937-2.238-2.716a18.02 18.02 0 0 1-1.021-.858c-.491 1.178-.765 2.316-.805 3.474 0 .659.04 1.318.295 1.956a11.509 11.509 0 0 0 3.102 4.493c.157.12.137.2.059.36a55.375 55.375 0 0 1-3.004 4.471s.196.4 1.512-.459c.314-.459.628-.898.922-1.397a90.923 90.923 0 0 0 1.787-2.955c.118-.26.235-.34.51-.26 1.728.4 3.475.4 5.183-.08 1.217-.32 2.199-1.098 3.004-2.036.353-.42.667-.939 1.001-1.358.02-.08.059-.12.098-.2l-.118-.08c-1.374-.459-2.787-.698-4.22-.578-1.434.08-2.592.778-3.613 1.797-.235.24-.451.459-.726.658.019-.08.059-.16.098-.24a53.462 53.462 0 0 0 2.395-5.69c.059-.199.137-.239.334-.239 1.708.12 3.377-.2 4.947-.898 1.217-.54 2.062-1.478 2.709-2.616.315-.499.55-1.078.845-1.697-.57 0-1.08-.08-1.591-.08-.981-.04-1.963.04-2.925.3-1.315.399-2.238 1.218-3.023 2.296-.197.24-.354.479-.511.718.491-2.136.982-4.292 1.473-6.428.785-.2 1.629-.36 2.415-.62 1.217-.419 2.355-1.018 3.258-1.996.786-.858 1.591-2.735 1.689-3.893h-.039c-1.689.02-3.318.34-4.791 1.278-.903.539-1.472 1.437-1.943 2.375-.118.2-.216.4-.354.62.197-2.137.275-4.253.118-6.39 1.06-.319 2.022-.738 2.906-1.317 1.295-.859 2.414-1.877 2.886-3.434a9.297 9.297 0 0 0 .432-2.536c.019-.08 0-.16 0-.36-.746.28-1.473.48-2.16.7-.942.399-1.806.898-2.533 1.677-.628.678-.962 1.497-1.236 2.336-.118.399-.216.798-.373 1.177 0-.12-.02-.16-.02-.279a53.307 53.307 0 0 0-.864-6.11c-.039-.2-.019-.359.216-.439a9.506 9.506 0 0 0 3.868-3.434c.687-1.058.844-2.216.824-3.474 0-.459-.059-.898-.118-1.437-.589.32-1.158.559-1.649.858-1.099.64-2.061 1.418-2.689 2.536-.491.858-.609 1.837-.687 2.815-.04.3-.04.619-.118.898l-.059-.24c-.511-2.056-1.119-4.132-1.904-6.128-.079-.2-.079-.32.098-.42 1.354-.978 2.375-2.216 3.121-3.753.589-1.218.589-2.456.334-3.714-.079-.46-.196-.878-.314-1.338l-.039-.04c-.864.54-1.669 1.159-2.356 1.937-1.06 1.138-1.63 2.456-1.512 4.093.039.579.098 1.218.138 1.917a.829.829 0 0 1-.079-.2c-.432-.898-.864-1.797-1.296-2.715-.039-.12-.039-.24-.039-.36.039-.818.02-1.637-.196-2.455-.157-.62-.393-1.258-.845-1.717-.53-.58-1.158-1.019-1.825-1.398-.354-.24-.707-.4-1.08-.579-.059 0-.098.04-.157.04.019.3.078.579.098.878.039 1.099.295 2.197.785 3.155Z" stroke="#000" stroke-opacity=".16" stroke-width="2.15" stroke-linejoin="round" mask="url(#q)"/>
  </g>
  <path d="M112.771 18.478c.608 1.258 1.688 1.917 2.886 2.396.137.08.275.2.334.32.451 1.018.883 2.076 1.315 3.074.157.38.275.739.451 1.198a58.114 58.114 0 0 0-1.413-1.757c-.825-.978-1.806-1.717-3.122-1.917-1.335-.22-2.67-.1-3.985.24-.039.04-.059.04-.137.08.333.499.628 1.018.942 1.477.687.899 1.512 1.637 2.611 2.037 1.571.499 3.18.619 4.79.359.157-.06.295-.08.452-.12a46.546 46.546 0 0 1 1.865 7.128c-.314-.46-.589-.978-.864-1.438-.687-1.178-1.551-2.116-2.866-2.575a9.092 9.092 0 0 0-3.082-.52c-.334 0-.688.04-1.1.04.196.48.334.9.491 1.298.51 1.099 1.139 2.057 2.159 2.696 1.218.818 2.592 1.218 4.025 1.357.452.04.942.08 1.414.12.412 2.416.647 4.872.706 7.368-.078-.08-.098-.2-.137-.32-.157-.46-.334-.938-.511-1.438-.549-1.437-1.472-2.535-2.866-3.194-.962-.44-1.983-.699-3.023-.858-.177 0-.354-.04-.55-.08v.24c.039.219.079.498.138.778.333 1.437.883 2.815 2.1 3.753 1.276 1.059 2.768 1.718 4.398 2.077.157.02.314.02.51.06a40.203 40.203 0 0 1-.589 7.527c-.176-.819-.314-1.598-.471-2.376-.255-1.098-.785-2.077-1.629-2.815-1.061-.899-2.297-1.478-3.593-1.957-.137 0-.275-.08-.491-.12.02.719.039 1.338.118 1.957.137 1.138.451 2.176 1.178 3.035 1.237 1.437 2.729 2.535 4.515 3.154.059 0 .118.04.197.08-.452 2.316-1.061 4.572-1.885 6.748-.039-.399 0-.778-.02-1.178-.019-1.317-.235-2.555-1.04-3.613a8.47 8.47 0 0 0-2.356-2.097c-.471-.32-.942-.599-1.473-.858-.058.22-.078.42-.117.579-.275 1.637-.275 3.234.549 4.712.688 1.218 1.63 2.236 2.729 3.094.413.32.825.58 1.257.859-.805 2.096-1.728 4.133-2.827 6.07 0-.12 0-.2.019-.28.059-.54.138-1.138.197-1.677a5.283 5.283 0 0 0-.589-2.895c-.57-1.038-1.335-1.937-2.238-2.716-.334-.26-.668-.539-1.021-.858-.491 1.178-.766 2.316-.805 3.474 0 .659.039 1.318.294 1.956a11.53 11.53 0 0 0 3.102 4.493c.157.12.138.2.059.36a55.357 55.357 0 0 1-3.004 4.471s.197.4 1.512-.459c.314-.459.628-.898.923-1.397.608-.979 1.217-1.957 1.786-2.955.118-.26.236-.34.511-.26 1.727.4 3.475.4 5.183-.08 1.217-.32 2.198-1.098 3.003-2.036.354-.42.668-.939 1.002-1.358.019-.08.058-.12.098-.2l-.118-.08c-1.374-.459-2.788-.698-4.221-.578-1.433.08-2.591.778-3.612 1.797-.236.24-.452.459-.727.658.02-.08.059-.16.098-.24a53.469 53.469 0 0 0 2.396-5.69c.059-.199.137-.239.333-.239 1.708.12 3.377-.2 4.948-.898 1.217-.54 2.061-1.478 2.709-2.616.314-.499.55-1.078.844-1.697-.569 0-1.08-.08-1.59-.08-.982-.04-1.963.04-2.925.3-1.316.399-2.238 1.218-3.024 2.296-.196.24-.353.479-.51.718.491-2.136.981-4.292 1.472-6.428.786-.2 1.63-.36 2.415-.62 1.217-.419 2.356-1.018 3.259-1.996.785-.858 1.59-2.735 1.688-3.893h-.039c-1.688.02-3.318.34-4.79 1.278-.903.539-1.473 1.437-1.944 2.376-.118.2-.216.399-.353.618.196-2.136.275-4.252.118-6.388 1.06-.32 2.022-.74 2.905-1.318 1.296-.859 2.415-1.877 2.886-3.434a9.297 9.297 0 0 0 .432-2.536c.02-.08 0-.16 0-.36-.746.28-1.472.48-2.159.7-.943.399-1.807.898-2.533 1.677-.628.678-.962 1.497-1.237 2.336-.118.399-.216.798-.373 1.177 0-.12-.019-.16-.019-.279a53.305 53.305 0 0 0-.864-6.11c-.04-.2-.02-.359.216-.439a9.498 9.498 0 0 0 3.867-3.434c.687-1.058.844-2.216.825-3.474 0-.459-.059-.898-.118-1.437-.589.32-1.158.559-1.649.858-1.1.64-2.062 1.418-2.69 2.536-.491.858-.608 1.837-.687 2.815-.039.3-.039.619-.118.898a20.4 20.4 0 0 0-.059-.24c-.51-2.056-1.119-4.132-1.904-6.128-.078-.2-.078-.32.098-.42 1.355-.978 2.376-2.216 3.122-3.753.589-1.218.589-2.456.334-3.714-.079-.46-.197-.878-.315-1.338l-.039-.04c-.864.54-1.669 1.159-2.356 1.937-1.06 1.138-1.629 2.456-1.511 4.093.039.58.098 1.218.137 1.917-.039-.08-.059-.12-.078-.2-.432-.898-.864-1.797-1.296-2.715-.039-.12-.039-.24-.039-.36.039-.818.019-1.637-.197-2.455-.157-.62-.392-1.258-.844-1.717-.53-.58-1.158-1.019-1.826-1.398-.353-.24-.707-.4-1.08-.579-.058 0-.098.04-.157.04.02.3.079.579.099.878.039 1.099.294 2.197.785 3.155Z" fill="#FFD57C"/>
  <path fill-rule="evenodd" clip-rule="evenodd" d="M113.118 50.048c1.261 3.725 2.24 5.92 4.306 8.903l.623-1.432a.86.86 0 0 0 .006.071c.071-.188.141-.376.209-.566l.068-.157.043-.157a41.54 41.54 0 0 0 1.435-5.228l.027-.097.015-.104c.03-.146.059-.292.087-.44a.407.407 0 0 0-.023-.011l.161-1.128.039.182c.432-2.496.628-4.992.589-7.527a2.003 2.003 0 0 0-.132-.023l-.064-1.314c.009.026.016.051.023.077a.551.551 0 0 0 .114.241 50.783 50.783 0 0 0-.707-7.367l-.045-.004-.278-1.197c.048.075.097.15.147.223a46.543 46.543 0 0 0-1.865-7.128l-.139.033c-.104.023-.204.045-.313.087-1.61.26-3.22.14-4.79-.36-1.1-.399-1.924-1.137-2.611-2.036a19.248 19.248 0 0 1-.532-.833c2.923 1.732 5.053 2.57 8.135 3.108l-.42-1.077c.171.216.348.44.532.679-.073-.19-.136-.363-.195-.527a16.808 16.808 0 0 0-.256-.671 147.49 147.49 0 0 1-.532-1.25 113.8 113.8 0 0 0-.784-1.825.707.707 0 0 0-.203-.23h.266c.264.562.529 1.118.794 1.67a63.425 63.425 0 0 1 1.881 4.729 56.425 56.425 0 0 1 1.11 3.914l.059.24.005-.018c.785 3.807 1.116 7.948 1.336 10.698l.046.568c.045 1.655-.037 3.303-.189 4.963l.089-.148a48.93 48.93 0 0 1-.342 2.46c-.24 1.043-.479 2.09-.719 3.139l-.736 3.214.072-.11c-.215.752-.44 1.46-.67 2.1-.095.025-.146.086-.188.227-.34.96-.71 1.916-1.107 2.86a111.02 111.02 0 0 1-1.277 2.809l-.011.02-.054.114c-.367.77-.713 1.456-1.049 2.073a.752.752 0 0 0-.114.19c-.242.425-.492.847-.746 1.266-.33.51-.653 1.042-.951 1.544l-.089.144a19.06 19.06 0 0 1-.75 1.146l-.173.252c-1.315.859-1.512.46-1.512.46a55.355 55.355 0 0 0 3.004-4.473c.07-.143.093-.222-.015-.323l1.016-1.816v.003c-.019.08-.019.16-.019.28 1.099-1.938 2.022-3.974 2.827-6.07l-.14-.09a15.39 15.39 0 0 1-1.117-.769c-1.099-.858-2.042-1.877-2.729-3.094-.824-1.478-.824-3.075-.549-4.712.016-.069.029-.144.044-.225l.027-.15Zm-2.019 6.74c.755 4.362 1.306 6.716 2.54 9.8a11.523 11.523 0 0 1-3.027-4.426c-.255-.639-.294-1.297-.294-1.956.038-1.14.305-2.26.781-3.417Zm4.635 9.679c3.288-.513 5.542-1.555 8.849-3.39-.114.151-.226.312-.339.473-.18.258-.363.518-.557.749-.805.938-1.786 1.717-3.004 2.036-1.631.458-3.297.478-4.949.132Zm3.407-8.086c2.815-1.036 4.77-2.366 8.195-5.008l-.12.26c-.202.44-.391.853-.623 1.222-.648 1.138-1.492 2.076-2.709 2.616-1.508.67-3.107.992-4.743.91Zm2.105-8.512c2.841-1.502 4.333-3.052 6.77-6.411a4.65 4.65 0 0 1 .167-.003h.039c-.098 1.158-.903 3.035-1.688 3.893-.903.978-2.042 1.577-3.259 1.996-.533.177-1.094.307-1.645.435l-.384.09Zm.312-8.64c2.329-1.938 3.623-3.769 5.679-7.464l.189-.07.011.028c.001.064.003.115.006.157.003.075.006.123-.006.17a9.296 9.296 0 0 1-.432 2.537c-.471 1.557-1.59 2.575-2.886 3.434a10.79 10.79 0 0 1-2.561 1.209Zm-1.045-8.498c1.973-2.34 3.043-4.093 4.543-8.196l.013.117c.049.431.091.805.091 1.193.019 1.258-.138 2.416-.825 3.474a9.494 9.494 0 0 1-3.822 3.412Zm-2.598-7.9-.013.001c1.854-3.366 2.529-5.368 3.279-8.885l.054.21c.097.37.188.723.253 1.103.256 1.258.256 2.496-.333 3.713-.746 1.538-1.767 2.776-3.122 3.754a.315.315 0 0 0-.118.104Zm-5.989-10.03c.983 2.305 1.839 3.828 3.643 6.037-1.162-.476-2.204-1.133-2.797-2.36-.491-.959-.746-2.057-.786-3.155-.009-.15-.029-.294-.049-.439l-.011-.083Zm.103 14.16c2.761 2.514 4.659 3.892 7.418 4.969l-.923-.079c-1.433-.14-2.807-.539-4.025-1.357-1.021-.64-1.649-1.598-2.159-2.696-.066-.168-.129-.34-.194-.517l-.117-.32Zm1.53 6.739c2.63 3.116 4.3 4.831 6.994 6.632a4.18 4.18 0 0 0-.193-.019 3.78 3.78 0 0 1-.167-.016c-1.63-.36-3.122-1.019-4.398-2.077-1.217-.938-1.767-2.316-2.101-3.753-.039-.187-.069-.373-.097-.541l-.038-.226Zm.38 7.236c2.142 3.5 3.57 5.612 5.658 7.775-1.723-.628-3.168-1.705-4.371-3.103-.727-.859-1.041-1.897-1.178-3.035a16.932 16.932 0 0 1-.109-1.637Z" fill="#E1910E"/>
  <mask id="r" maskUnits="userSpaceOnUse" x="107.1" y="12.405" width="23" height="61" fill="#000">
    <path fill="#fff" d="M107.1 12.405h23v61h-23z"/>
    <path d="M112.771 18.478c.608 1.258 1.688 1.917 2.886 2.396.137.08.275.2.334.32.451 1.018.883 2.076 1.315 3.074.157.38.275.739.451 1.198a58.114 58.114 0 0 0-1.413-1.757c-.825-.978-1.806-1.717-3.122-1.917-1.335-.22-2.67-.1-3.985.24-.039.04-.059.04-.137.08.333.499.628 1.018.942 1.477.687.899 1.512 1.637 2.611 2.037 1.571.499 3.18.619 4.79.359.157-.06.295-.08.452-.12a46.546 46.546 0 0 1 1.865 7.128c-.314-.46-.589-.978-.864-1.438-.687-1.178-1.551-2.116-2.866-2.575a9.092 9.092 0 0 0-3.082-.52c-.334 0-.688.04-1.1.04.196.48.334.9.491 1.298.51 1.099 1.139 2.057 2.159 2.696 1.218.818 2.592 1.218 4.025 1.357.452.04.942.08 1.414.12.412 2.416.647 4.872.706 7.368-.078-.08-.098-.2-.137-.32-.157-.46-.334-.938-.511-1.438-.549-1.437-1.472-2.535-2.866-3.194-.962-.44-1.983-.699-3.023-.858-.177 0-.354-.04-.55-.08v.24c.039.219.079.498.138.778.333 1.437.883 2.815 2.1 3.753 1.276 1.059 2.768 1.718 4.398 2.077.157.02.314.02.51.06a40.203 40.203 0 0 1-.589 7.527c-.176-.819-.314-1.598-.471-2.376-.255-1.098-.785-2.077-1.629-2.815-1.061-.899-2.297-1.478-3.593-1.957-.137 0-.275-.08-.491-.12.02.719.039 1.338.118 1.957.137 1.138.451 2.176 1.178 3.035 1.237 1.437 2.729 2.535 4.515 3.154.059 0 .118.04.197.08-.452 2.316-1.061 4.572-1.885 6.748-.039-.399 0-.778-.02-1.178-.019-1.317-.235-2.555-1.04-3.613a8.47 8.47 0 0 0-2.356-2.097c-.471-.32-.942-.599-1.473-.858-.058.22-.078.42-.117.579-.275 1.637-.275 3.234.549 4.712.688 1.218 1.63 2.236 2.729 3.094.413.32.825.58 1.257.859-.805 2.096-1.728 4.133-2.827 6.07 0-.12 0-.2.019-.28.059-.54.138-1.138.197-1.677a5.283 5.283 0 0 0-.589-2.895c-.57-1.038-1.335-1.937-2.238-2.716-.334-.26-.668-.539-1.021-.858-.491 1.178-.766 2.316-.805 3.474 0 .659.039 1.318.294 1.956a11.53 11.53 0 0 0 3.102 4.493c.157.12.138.2.059.36a55.357 55.357 0 0 1-3.004 4.471s.197.4 1.512-.459c.314-.459.628-.898.923-1.397.608-.979 1.217-1.957 1.786-2.955.118-.26.236-.34.511-.26 1.727.4 3.475.4 5.183-.08 1.217-.32 2.198-1.098 3.003-2.036.354-.42.668-.939 1.002-1.358.019-.08.058-.12.098-.2l-.118-.08c-1.374-.459-2.788-.698-4.221-.578-1.433.08-2.591.778-3.612 1.797-.236.24-.452.459-.727.658.02-.08.059-.16.098-.24a53.469 53.469 0 0 0 2.396-5.69c.059-.199.137-.239.333-.239 1.708.12 3.377-.2 4.948-.898 1.217-.54 2.061-1.478 2.709-2.616.314-.499.55-1.078.844-1.697-.569 0-1.08-.08-1.59-.08-.982-.04-1.963.04-2.925.3-1.316.399-2.238 1.218-3.024 2.296-.196.24-.353.479-.51.718.491-2.136.981-4.292 1.472-6.428.786-.2 1.63-.36 2.415-.62 1.217-.419 2.356-1.018 3.259-1.996.785-.858 1.59-2.735 1.688-3.893h-.039c-1.688.02-3.318.34-4.79 1.278-.903.539-1.473 1.437-1.944 2.376-.118.2-.216.399-.353.618.196-2.136.275-4.252.118-6.388 1.06-.32 2.022-.74 2.905-1.318 1.296-.859 2.415-1.877 2.886-3.434a9.297 9.297 0 0 0 .432-2.536c.02-.08 0-.16 0-.36-.746.28-1.472.48-2.159.7-.943.399-1.807.898-2.533 1.677-.628.678-.962 1.497-1.237 2.336-.118.399-.216.798-.373 1.177 0-.12-.019-.16-.019-.279a53.305 53.305 0 0 0-.864-6.11c-.04-.2-.02-.359.216-.439a9.498 9.498 0 0 0 3.867-3.434c.687-1.058.844-2.216.825-3.474 0-.459-.059-.898-.118-1.437-.589.32-1.158.559-1.649.858-1.1.64-2.062 1.418-2.69 2.536-.491.858-.608 1.837-.687 2.815-.039.3-.039.619-.118.898a20.4 20.4 0 0 0-.059-.24c-.51-2.056-1.119-4.132-1.904-6.128-.078-.2-.078-.32.098-.42 1.355-.978 2.376-2.216 3.122-3.753.589-1.218.589-2.456.334-3.714-.079-.46-.197-.878-.315-1.338l-.039-.04c-.864.54-1.669 1.159-2.356 1.937-1.06 1.138-1.629 2.456-1.511 4.093.039.58.098 1.218.137 1.917-.039-.08-.059-.12-.078-.2-.432-.898-.864-1.797-1.296-2.715-.039-.12-.039-.24-.039-.36.039-.818.019-1.637-.197-2.455-.157-.62-.392-1.258-.844-1.717-.53-.58-1.158-1.019-1.826-1.398-.353-.24-.707-.4-1.08-.579-.058 0-.098.04-.157.04.02.3.079.579.099.878.039 1.099.294 2.197.785 3.155Z"/>
  </mask>
  <path d="M112.771 18.478c.608 1.258 1.688 1.917 2.886 2.396.137.08.275.2.334.32.451 1.018.883 2.076 1.315 3.074.157.38.275.739.451 1.198a58.114 58.114 0 0 0-1.413-1.757c-.825-.978-1.806-1.717-3.122-1.917-1.335-.22-2.67-.1-3.985.24-.039.04-.059.04-.137.08.333.499.628 1.018.942 1.477.687.899 1.512 1.637 2.611 2.037 1.571.499 3.18.619 4.79.359.157-.06.295-.08.452-.12a46.546 46.546 0 0 1 1.865 7.128c-.314-.46-.589-.978-.864-1.438-.687-1.178-1.551-2.116-2.866-2.575a9.092 9.092 0 0 0-3.082-.52c-.334 0-.688.04-1.1.04.196.48.334.9.491 1.298.51 1.099 1.139 2.057 2.159 2.696 1.218.818 2.592 1.218 4.025 1.357.452.04.942.08 1.414.12.412 2.416.647 4.872.706 7.368-.078-.08-.098-.2-.137-.32-.157-.46-.334-.938-.511-1.438-.549-1.437-1.472-2.535-2.866-3.194-.962-.44-1.983-.699-3.023-.858-.177 0-.354-.04-.55-.08v.24c.039.219.079.498.138.778.333 1.437.883 2.815 2.1 3.753 1.276 1.059 2.768 1.718 4.398 2.077.157.02.314.02.51.06a40.203 40.203 0 0 1-.589 7.527c-.176-.819-.314-1.598-.471-2.376-.255-1.098-.785-2.077-1.629-2.815-1.061-.899-2.297-1.478-3.593-1.957-.137 0-.275-.08-.491-.12.02.719.039 1.338.118 1.957.137 1.138.451 2.176 1.178 3.035 1.237 1.437 2.729 2.535 4.515 3.154.059 0 .118.04.197.08-.452 2.316-1.061 4.572-1.885 6.748-.039-.399 0-.778-.02-1.178-.019-1.317-.235-2.555-1.04-3.613a8.47 8.47 0 0 0-2.356-2.097c-.471-.32-.942-.599-1.473-.858-.058.22-.078.42-.117.579-.275 1.637-.275 3.234.549 4.712.688 1.218 1.63 2.236 2.729 3.094.413.32.825.58 1.257.859-.805 2.096-1.728 4.133-2.827 6.07 0-.12 0-.2.019-.28.059-.54.138-1.138.197-1.677a5.283 5.283 0 0 0-.589-2.895c-.57-1.038-1.335-1.937-2.238-2.716-.334-.26-.668-.539-1.021-.858-.491 1.178-.766 2.316-.805 3.474 0 .659.039 1.318.294 1.956a11.53 11.53 0 0 0 3.102 4.493c.157.12.138.2.059.36a55.357 55.357 0 0 1-3.004 4.471s.197.4 1.512-.459c.314-.459.628-.898.923-1.397.608-.979 1.217-1.957 1.786-2.955.118-.26.236-.34.511-.26 1.727.4 3.475.4 5.183-.08 1.217-.32 2.198-1.098 3.003-2.036.354-.42.668-.939 1.002-1.358.019-.08.058-.12.098-.2l-.118-.08c-1.374-.459-2.788-.698-4.221-.578-1.433.08-2.591.778-3.612 1.797-.236.24-.452.459-.727.658.02-.08.059-.16.098-.24a53.469 53.469 0 0 0 2.396-5.69c.059-.199.137-.239.333-.239 1.708.12 3.377-.2 4.948-.898 1.217-.54 2.061-1.478 2.709-2.616.314-.499.55-1.078.844-1.697-.569 0-1.08-.08-1.59-.08-.982-.04-1.963.04-2.925.3-1.316.399-2.238 1.218-3.024 2.296-.196.24-.353.479-.51.718.491-2.136.981-4.292 1.472-6.428.786-.2 1.63-.36 2.415-.62 1.217-.419 2.356-1.018 3.259-1.996.785-.858 1.59-2.735 1.688-3.893h-.039c-1.688.02-3.318.34-4.79 1.278-.903.539-1.473 1.437-1.944 2.376-.118.2-.216.399-.353.618.196-2.136.275-4.252.118-6.388 1.06-.32 2.022-.74 2.905-1.318 1.296-.859 2.415-1.877 2.886-3.434a9.297 9.297 0 0 0 .432-2.536c.02-.08 0-.16 0-.36-.746.28-1.472.48-2.159.7-.943.399-1.807.898-2.533 1.677-.628.678-.962 1.497-1.237 2.336-.118.399-.216.798-.373 1.177 0-.12-.019-.16-.019-.279a53.305 53.305 0 0 0-.864-6.11c-.04-.2-.02-.359.216-.439a9.498 9.498 0 0 0 3.867-3.434c.687-1.058.844-2.216.825-3.474 0-.459-.059-.898-.118-1.437-.589.32-1.158.559-1.649.858-1.1.64-2.062 1.418-2.69 2.536-.491.858-.608 1.837-.687 2.815-.039.3-.039.619-.118.898a20.4 20.4 0 0 0-.059-.24c-.51-2.056-1.119-4.132-1.904-6.128-.078-.2-.078-.32.098-.42 1.355-.978 2.376-2.216 3.122-3.753.589-1.218.589-2.456.334-3.714-.079-.46-.197-.878-.315-1.338l-.039-.04c-.864.54-1.669 1.159-2.356 1.937-1.06 1.138-1.629 2.456-1.511 4.093.039.58.098 1.218.137 1.917-.039-.08-.059-.12-.078-.2-.432-.898-.864-1.797-1.296-2.715-.039-.12-.039-.24-.039-.36.039-.818.019-1.637-.197-2.455-.157-.62-.392-1.258-.844-1.717-.53-.58-1.158-1.019-1.826-1.398-.353-.24-.707-.4-1.08-.579-.058 0-.098.04-.157.04.02.3.079.579.099.878.039 1.099.294 2.197.785 3.155Z" stroke="#A05500" stroke-width="2.15" stroke-linejoin="round" mask="url(#r)"/>
  <defs>
    <linearGradient id="a" x1="109.566" y1="40.326" x2="174.913" y2="40.326" gradientUnits="userSpaceOnUse">
      <stop stop-color="#D5E8FF"/>
      <stop offset="1" stop-color="#89BEFF"/>
    </linearGradient>
    <linearGradient id="b" x1="110" y1="5" x2="190.936" y2="56.174" gradientUnits="userSpaceOnUse">
      <stop offset=".1" stop-color="#ACEEBD"/>
      <stop offset=".9" stop-color="#E3F0B6"/>
    </linearGradient>
    <linearGradient id="c" x1="39.066" y1="-.409" x2="39.066" y2="85.575" gradientUnits="userSpaceOnUse">
      <stop stop-color="#ECF5FF"/>
      <stop offset="1" stop-color="#D1E5FE"/>
    </linearGradient>
    <linearGradient id="d" x1="6" y1="5" x2="86.936" y2="56.174" gradientUnits="userSpaceOnUse">
      <stop offset=".1" stop-color="#FCC0FF"/>
      <stop offset=".9" stop-color="#FFD5B3"/>
    </linearGradient>
    <linearGradient id="e" x1="142.188" y1="-.409" x2="142.188" y2="85.575" gradientUnits="userSpaceOnUse">
      <stop stop-color="#ECF5FF"/>
      <stop offset="1" stop-color="#D1E5FE"/>
    </linearGradient>
    <linearGradient id="f" x1="109.122" y1="10" x2="183.13" y2="63.92" gradientUnits="userSpaceOnUse">
      <stop offset=".1" stop-color="#ACEEBD"/>
      <stop offset=".9" stop-color="#E3F0B6"/>
    </linearGradient>
    <linearGradient id="g" x1="70.292" y1="22.564" x2="70.292" y2="63.436" gradientUnits="userSpaceOnUse">
      <stop stop-color="#E0EEFF"/>
      <stop offset="1" stop-color="#F8FBFF"/>
    </linearGradient>
    <linearGradient id="h" x1="88.889" y1="4.193" x2="124.149" y2="4.193" gradientUnits="userSpaceOnUse">
      <stop stop-color="#E0EEFF"/>
      <stop offset="1" stop-color="#F8FBFF"/>
    </linearGradient>
    <linearGradient id="i" x1="54.382" y1="63.425" x2="88.889" y2="63.425" gradientUnits="userSpaceOnUse">
      <stop stop-color="#D1E5FE"/>
      <stop offset="1" stop-color="#F8FBFF"/>
    </linearGradient>
    <filter id="j" x="85.234" y="37.41" width="7.31" height="15.48" filterUnits="userSpaceOnUse" color-interpolation-filters="sRGB">
      <feFlood flood-opacity="0" result="BackgroundImageFix"/>
      <feColorMatrix in="SourceAlpha" values="0 0 0 0 0 0 0 0 0 0 0 0 0 0 0 0 0 0 127 0" result="hardAlpha"/>
      <feOffset dy="1.72"/>
      <feComposite in2="hardAlpha" operator="out"/>
      <feColorMatrix values="0 0 0 0 0.882353 0 0 0 0 0.568627 0 0 0 0 0.054902 0 0 0 1 0"/>
      <feBlend in2="BackgroundImageFix" result="effect1_dropShadow_2138_22191"/>
      <feBlend in="SourceGraphic" in2="effect1_dropShadow_2138_22191" result="shape"/>
    </filter>
    <filter id="k" x="78.355" y="23.865" width="7.31" height="9.03" filterUnits="userSpaceOnUse" color-interpolation-filters="sRGB">
      <feFlood flood-opacity="0" result="BackgroundImageFix"/>
      <feColorMatrix in="SourceAlpha" values="0 0 0 0 0 0 0 0 0 0 0 0 0 0 0 0 0 0 127 0" result="hardAlpha"/>
      <feOffset dy="1.72"/>
      <feComposite in2="hardAlpha" operator="out"/>
      <feColorMatrix values="0 0 0 0 0.882353 0 0 0 0 0.568627 0 0 0 0 0.054902 0 0 0 1 0"/>
      <feBlend in2="BackgroundImageFix" result="effect1_dropShadow_2138_22191"/>
      <feBlend in="SourceGraphic" in2="effect1_dropShadow_2138_22191" result="shape"/>
    </filter>
    <filter id="l" x="92.329" y="23.865" width="7.31" height="9.03" filterUnits="userSpaceOnUse" color-interpolation-filters="sRGB">
      <feFlood flood-opacity="0" result="BackgroundImageFix"/>
      <feColorMatrix in="SourceAlpha" values="0 0 0 0 0 0 0 0 0 0 0 0 0 0 0 0 0 0 127 0" result="hardAlpha"/>
      <feOffset dy="1.72"/>
      <feComposite in2="hardAlpha" operator="out"/>
      <feColorMatrix values="0 0 0 0 0.882353 0 0 0 0 0.568627 0 0 0 0 0.054902 0 0 0 1 0"/>
      <feBlend in2="BackgroundImageFix" result="effect1_dropShadow_2138_22191"/>
      <feBlend in="SourceGraphic" in2="effect1_dropShadow_2138_22191" result="shape"/>
    </filter>
    <filter id="m" x="71.904" y="30.315" width="7.31" height="29.24" filterUnits="userSpaceOnUse" color-interpolation-filters="sRGB">
      <feFlood flood-opacity="0" result="BackgroundImageFix"/>
      <feColorMatrix in="SourceAlpha" values="0 0 0 0 0 0 0 0 0 0 0 0 0 0 0 0 0 0 127 0" result="hardAlpha"/>
      <feOffset dy="1.72"/>
      <feComposite in2="hardAlpha" operator="out"/>
      <feColorMatrix values="0 0 0 0 0.882353 0 0 0 0 0.568627 0 0 0 0 0.054902 0 0 0 1 0"/>
      <feBlend in2="BackgroundImageFix" result="effect1_dropShadow_2138_22191"/>
      <feBlend in="SourceGraphic" in2="effect1_dropShadow_2138_22191" result="shape"/>
    </filter>
    <filter id="n" x="98.779" y="30.315" width="7.31" height="29.24" filterUnits="userSpaceOnUse" color-interpolation-filters="sRGB">
      <feFlood flood-opacity="0" result="BackgroundImageFix"/>
      <feColorMatrix in="SourceAlpha" values="0 0 0 0 0 0 0 0 0 0 0 0 0 0 0 0 0 0 127 0" result="hardAlpha"/>
      <feOffset dy="1.72"/>
      <feComposite in2="hardAlpha" operator="out"/>
      <feColorMatrix values="0 0 0 0 0.882353 0 0 0 0 0.568627 0 0 0 0 0.054902 0 0 0 1 0"/>
      <feBlend in2="BackgroundImageFix" result="effect1_dropShadow_2138_22191"/>
      <feBlend in="SourceGraphic" in2="effect1_dropShadow_2138_22191" result="shape"/>
    </filter>
  </defs>
</svg>
