<svg viewBox="0 0 12 12" fill="none" xmlns="http://www.w3.org/2000/svg">
  <rect width="12" height="12" rx="2" ry="2" fill="#9AED2C"/>
  <path d="M4.642 7.187c.089 0 .16.072.161.16V9.43a.162.162 0 0 1-.16.16H2.56a.162.162 0 0 1-.161-.16V7.348c0-.089.073-.161.161-.161h2.081Zm4.797 0c.088 0 .161.072.161.16V9.43a.162.162 0 0 1-.16.16H7.357a.162.162 0 0 1-.161-.16V7.348c0-.089.073-.161.161-.161h2.081ZM7.045 4.792c.088 0 .16.073.16.161v2.081a.162.162 0 0 1-.16.161H4.963a.162.162 0 0 1-.16-.16V4.952c0-.088.072-.161.16-.161h2.082ZM4.642 2.397c.089 0 .16.073.161.162v2.08a.162.162 0 0 1-.16.162H2.56a.162.162 0 0 1-.16-.161V2.559c0-.089.073-.162.161-.162h2.081Zm4.797 0c.088 0 .161.073.161.162v2.08a.162.162 0 0 1-.16.162H7.357a.162.162 0 0 1-.161-.161V2.559c0-.089.073-.162.161-.162h2.081Z" fill="#000"/>
</svg>
