<svg viewBox="0 0 20 20" fill="none" xmlns="http://www.w3.org/2000/svg">
  <path fill-rule="evenodd" clip-rule="evenodd" d="M3.392.45C3.644.163 3.984 0 4.34 0h8.038a.63.63 0 0 1 .474.225L17.54 5.61a.83.83 0 0 1 .196.544v12.308c0 .408-.141.799-.393 1.087-.25.289-.592.451-.947.451H4.34c-.356 0-.696-.162-.948-.45A1.661 1.661 0 0 1 3 18.461V1.538c0-.408.141-.799.392-1.087Zm.948 1.088h6.87v4.497c0 .388.315.702.702.702h4.485v11.725H4.34V1.538Zm8.274.59 2.791 3.205h-2.791V2.128Z" fill="currentColor"/>
  <path fill-rule="evenodd" clip-rule="evenodd" d="M12.233 8.8a2.293 2.293 0 0 0-1.613.644l-.006.006-.595.591a.564.564 0 1 0 .795.8l.592-.589a1.166 1.166 0 0 1 1.649 1.648l-1.034 1.034a1.168 1.168 0 0 1-1.758-.126.564.564 0 1 0-.903.676 2.293 2.293 0 0 0 3.458.247l1.038-1.037.007-.007a2.294 2.294 0 0 0-1.63-3.887Zm-2.259 2.403a2.294 2.294 0 0 0-1.786.666l-1.037 1.037-.007.008a2.293 2.293 0 0 0 3.243 3.242l.006-.007.592-.591a.564.564 0 0 0-.797-.797l-.588.587A1.166 1.166 0 0 1 7.952 13.7l1.034-1.034a1.167 1.167 0 0 1 1.758.126.564.564 0 0 0 .903-.675 2.293 2.293 0 0 0-1.673-.914Z" fill="currentColor"/>
</svg>
