<svg xmlns="http://www.w3.org/2000/svg" viewBox="0 0 20 20" fill="none">
  <path d="M11.667 1.89v3.443c0 .466 0 .7.09.878.08.157.208.284.365.364.178.091.411.091.878.091h3.442m.225 1.657v6.01c0 1.4 0 2.1-.273 2.635a2.5 2.5 0 0 1-1.092 1.092c-.535.273-1.235.273-2.635.273H7.333c-1.4 0-2.1 0-2.635-.273a2.5 2.5 0 0 1-1.092-1.092c-.273-.535-.273-1.235-.273-2.635V5.666c0-1.4 0-2.1.273-2.635a2.5 2.5 0 0 1 1.092-1.093c.535-.272 1.235-.272 2.635-.272h2.677c.611 0 .917 0 1.205.07a2.5 2.5 0 0 1 .722.298c.253.155.469.371.901.804l2.657 2.656c.433.433.649.649.803.901.137.224.238.468.3.723.069.288.069.593.069 1.205Z" stroke="currentColor" stroke-width="1.5" stroke-linecap="round" stroke-linejoin="round"/>
  <path d="m9.705 14.311.59.59a2.083 2.083 0 1 0 2.946-2.947l-.59-.589m-5.303.59-.59-.59A2.083 2.083 0 0 1 9.706 8.42l.59.589m1.163 4.11-2.917-2.917" stroke="currentColor" stroke-width="1.5" stroke-linecap="round" stroke-linejoin="round"/>
</svg>
