<svg viewBox="0 0 20 20" fill="none" xmlns="http://www.w3.org/2000/svg">
  <path fill-rule="evenodd" clip-rule="evenodd" d="M3.392.45C3.644.163 3.984 0 4.34 0h8.038a.63.63 0 0 1 .474.225L17.54 5.61a.83.83 0 0 1 .196.544v12.308c0 .408-.141.799-.393 1.087-.25.289-.592.451-.947.451H4.34c-.356 0-.696-.162-.948-.45A1.661 1.661 0 0 1 3 18.461V1.538c0-.408.141-.799.392-1.087Zm.948 1.088h6.87v4.497c0 .388.315.702.702.702h4.485v11.725H4.34V1.538Zm8.274.59 2.791 3.205h-2.791V2.128ZM6.5 10a.5.5 0 0 0 0 1h7.2a.5.5 0 0 0 0-1H6.5ZM6 12.9a.5.5 0 0 1 .5-.5h7.2a.5.5 0 1 1 0 1H6.5a.5.5 0 0 1-.5-.5Zm4.5 2.1a.5.5 0 0 0 0 1h3.2a.5.5 0 0 0 0-1h-3.2Z" fill="currentColor"/>
</svg>
