<svg viewBox="0 0 20 20" fill="none" xmlns="http://www.w3.org/2000/svg">
  <path fill-rule="evenodd" clip-rule="evenodd" d="M3.4 2a1.8 1.8 0 0 0-1.8 1.8v14.8A1.4 1.4 0 0 0 3 20h1.6v-1.326H3V3.516h1.6V2H3.4Z" fill="currentColor"/>
  <path fill-rule="evenodd" clip-rule="evenodd" d="M3.992.45C4.244.163 4.585 0 4.94 0h8.038a.63.63 0 0 1 .474.225L18.14 5.61a.83.83 0 0 1 .196.544v12.308c0 .408-.141.799-.392 1.087a1.26 1.26 0 0 1-.948.451H4.94c-.356 0-.696-.162-.948-.45a1.661 1.661 0 0 1-.392-1.088V1.538c0-.408.141-.799.392-1.087Zm8.709 1.088H4.94v16.924h12.057V6.472l-4.296-4.934Z" fill="currentColor"/>
  <path d="m7.9 13.357 2.2 2.357L14.5 11" stroke="currentColor" stroke-width="1.5" stroke-linecap="round" stroke-linejoin="round"/>
  <path fill-rule="evenodd" clip-rule="evenodd" d="M12.512.42c.388 0 .702.315.702.703v4.21h4.21a.702.702 0 1 1 0 1.404h-4.912a.702.702 0 0 1-.702-.702V1.123c0-.388.315-.702.702-.702Z" fill="currentColor"/>
</svg>
