<svg xmlns="http://www.w3.org/2000/svg" viewBox="0 0 20 20" fill="none">
  <path d="M8.67 18.333c-1.4 0-2.1 0-2.635-.272a2.5 2.5 0 0 1-1.092-1.093c-.273-.534-.273-1.235-.273-2.635V5.667c0-.375 0-.7.005-.985M8.67 18.333H6c-1.4 0-2.1 0-2.635-.272a2.5 2.5 0 0 1-1.093-1.093C2 16.434 2 15.733 2 14.333V8.667c0-1.4 0-2.1.272-2.635a2.5 2.5 0 0 1 1.093-1.093c.331-.168.726-.233 1.31-.257M8.67 18.333h5.333c1.4 0 2.1 0 2.635-.272a2.5 2.5 0 0 0 1.093-1.093c.272-.534.272-1.235.272-2.635v-6.01c0-.61 0-.917-.069-1.204a2.5 2.5 0 0 0-.299-.723c-.155-.252-.37-.468-.803-.9l-2.657-2.658c-.432-.432-.649-.648-.9-.803a2.501 2.501 0 0 0-.723-.3c-.288-.068-.594-.068-1.205-.068H8.67c-1.4 0-2.1 0-2.635.272a2.5 2.5 0 0 0-1.092 1.093c-.2.391-.253.871-.268 1.65m8.328-2.79v3.441c0 .467 0 .7.091.879.08.157.208.284.364.364.179.09.412.09.879.09h3.442" stroke="currentColor" stroke-width="2" stroke-linecap="round" stroke-linejoin="round"/>
</svg>
