<svg xmlns="http://www.w3.org/2000/svg" xml:space="preserve" viewBox="0 0 209.322 209.322">
  <path d="M105.572 101.811c9.889-6.368 27.417-16.464 28.106-42.166.536-20.278-9.971-49.506-49.155-50.878C53.041 7.659 39.9 28.251 36.071 46.739l-.928-.126c-1.932 0-3.438 1.28-5.34 2.889-2.084 1.784-4.683 3.979-7.792 4.308-3.573.361-8.111-1.206-11.698-2.449-4.193-1.431-6.624-2.047-8.265-.759C.545 51.765-.13 53.864.02 56.828c.331 6.326 4.971 18.917 16.016 25.778 7.67 4.765 16.248 5.482 20.681 5.482h.006c2.37 0 4.945-.239 7.388-.726 2.741 4.218 5.228 7.476 6.037 9.752 2.054 5.851-27.848 25.087-27.848 55.01 0 29.916 22.013 48.475 56.727 48.475h55.004c30.593 0 70.814-29.908 75.291-92.48-28.541 24.072-42.294-9.969-103.75-6.308zM18.941 77.945C8.775 71.617 4.992 58.922 5.294 55.525c.897.24 2.194.689 3.228 1.042 4.105 1.415 9.416 3.228 14.068 2.707 4.799-.499 8.253-3.437 10.778-5.574.607-.509 1.393-1.176 1.872-1.491.87.315.962.693 1.176 3.14.196 2.26.473 5.37 2.362 9.006 1.437 2.761 3.581 5.705 5.646 8.542 1.701 2.336 4.278 5.871 4.535 6.404-.445 1.184-4.907 3.282-12.229 3.282-6.553.008-13.04-1.679-17.789-4.638zM56.86 49.368c0-4.938 4.001-8.943 8.931-8.943a8.942 8.942 0 0 1 8.942 8.943c0 4.931-4.001 8.942-8.942 8.942-4.937.001-8.931-4.011-8.931-8.942zm92.299 106.03-20.63 11.169 13.408 9.293s-49.854 15.813-72.198-6.885c-11.006-11.16-13.06-28.533 4.124-38.84 17.184-10.312 84.609 3.943 84.609 3.943L134.295 147.8l14.864 7.598z" fill="#ffef07"/>
</svg>
