<svg viewBox="0 0 20 20" fill="none" xmlns="http://www.w3.org/2000/svg">
  <path d="M2.774 13.088a.936.936 0 0 0 0 1.325l2.814 2.812a.935.935 0 0 0 1.324 0l2.813-2.812A.935.935 0 1 0 8.4 13.088l-1.213 1.21v-9.95a.954.954 0 0 0-.938-.937.954.954 0 0 0-.937.938v9.95L4.1 13.088a.937.937 0 0 0-1.327 0Zm10.039 2.538a.937.937 0 1 0 1.875 0V5.702l1.213 1.21a.935.935 0 1 0 1.324-1.324l-2.812-2.813a.936.936 0 0 0-1.325 0l-2.812 2.813A.935.935 0 1 0 11.6 6.912l1.213-1.21v9.924Z" fill="currentColor"/>
</svg>
