<svg version="1.0" xmlns="http://www.w3.org/2000/svg" viewBox="0 0 123 123">
  <path d="M49.6 12.5C24.5 18.9 8 43.5 11.8 68.9c2.9 18.7 15.8 34 34.1 40.3 8.9 3.1 22.9 3 31.5-.1 27.7-10 41.7-41 30.4-67.2-2.1-5.1-2.5-5.4-4.6-4.1-1 .7-.9 1.4.2 3.8.8 1.6 2.2 5.6 3 8.9 6.8 26-11.1 52.5-38.3 56.8C40.9 111.5 15 89.2 15 61.6c0-12.7 4.5-23.2 13.9-32.7C40.4 17.5 54.3 13 70.4 15.7c3 .5 4 1.2 4.8 3.5 1.7 4.8 7.1 6.4 10.1 3 2.1-2.3 2.2-5.2.3-7.8-1.1-1.5-2.8-1.9-7.3-2-3.2-.1-9.6-.4-14.3-.8-6-.4-10.2-.1-14.4.9z"/>
  <path d="M52.1 38.1c-1.8.4-4.8 2.1-6.5 3.8-2.9 3-3.1 3.6-3.1 10.7 0 7.4.1 7.6 3.7 11L50 67h10.4c11.2 0 13.1.8 12.4 5.2-.3 2.2-.6 2.3-14.3 2.8l-14 .5-.3 5.2-.3 5.3h15.8c13.8 0 16.2-.3 18.9-1.9 6.5-3.9 8.2-16.3 3.2-22.7-3.3-4.1-7.6-5.4-18.2-5.4-7.6 0-9.5-.3-10-1.6-.9-2.4-.8-3.1 1-4.8 1.2-1.3 4.1-1.6 15-1.6h13.5l-.3-5.3-.3-5.2-13.5-.1c-7.4 0-15 .3-16.9.7z"/>
</svg>
