<svg version="1.0" xmlns="http://www.w3.org/2000/svg" viewBox="0 0 604 604">
  <path d="M294.7.6c-.1.1-2.8.5-5.9.8C275.2 3 257.9 9.5 245 18c-.8.6-2.2 1.3-3 1.7-.8.4-3.2 1.7-5.3 3.1-2.2 1.3-6 3.5-8.5 4.9-2.6 1.5-6 3.5-7.7 4.5-1.6 1-3.7 2.1-4.5 2.5-.7.4-4.2 2.4-7.7 4.5-3.4 2.1-6.5 3.8-6.7 3.8-.3 0-4.6 2.5-9.6 5.5s-9.2 5.5-9.4 5.5c-.2 0-3.3 1.7-6.7 3.8-3.5 2.2-8.4 5-10.9 6.4-2.5 1.4-6.1 3.5-8 4.6-1.9 1.1-5.1 2.9-7 4-1.9 1.1-10.6 6.1-19.3 11.1-8.6 5-16.1 9.1-16.6 9.1s-1.1.4-1.3.8c-.1.5-1.5 1.5-3 2.3-7.2 3.6-33 18.8-38.6 22.7-5.5 3.7-10.2 7.5-14.6 11.8-.7.6-2.8 3.1-4.7 5.4-1.8 2.3-3.9 4.7-4.4 5.4-1.1 1.1-4.1 5.7-6.2 9.1-2.7 4.5-8 16.3-8.8 19.5-.2.8-1.1 3.9-1.9 6.9-.8 3-1.8 8-2.2 11-1 7.4-.9 221 0 228.1.4 3 1.4 8 2.2 11 .8 3 1.7 6.3 1.9 7.2.8 3.7 8.5 18.9 12.5 24.9 8.1 12.1 24.7 26.6 38 33.4 1.9 1 6.8 3.7 10.7 6.1 4 2.4 7.7 4.4 8.3 4.4.5 0 1 .4 1 .8 0 .5 1.6 1.6 3.6 2.5 3.4 1.7 31.3 17.7 34.4 19.8.8.5 2.7 1.5 4.3 2.2 1.5.6 2.7 1.5 2.7 1.9 0 .4.4.8 1 .8.5 0 5.5 2.7 11.1 6 5.5 3.3 10.2 6 10.4 6 .2 0 6.1 3.4 13.1 7.6 7.1 4.2 13.8 8 14.9 8.6 2.7 1.2 6 3.1 7.6 4.4.8.6 3.9 2.5 6.9 4.1 6.2 3.4 7.4 4.1 25 14.3 21.1 12.4 34.4 18.2 44 19.4 1.9.3 3.5.5 3.5.6 0 .5 9.9 1.3 15.5 1.4 10.2 0 18.3-1 29-3.9 3.5-.9 9.9-3.4 15.5-6.2 4.6-2.2 36-20.1 46.5-26.4 9.6-5.7 43.5-24.9 44.1-24.9.5 0 .9-.3.9-.8 0-.4 1.5-1.3 3.3-2.1 1.7-.8 3.4-1.7 3.7-2.1.3-.4 4.1-2.6 8.5-5s8.7-4.9 9.5-5.6c.8-.7 2.2-1.4 3-1.6.8-.2 1.7-.5 2-.9.7-.7 10.9-6.9 11.5-6.9.4 0 11.9-6.7 15.5-9 .8-.6 2.2-1.3 3-1.7.8-.4 5.9-3.3 11.3-6.5 5.3-3.2 9.9-5.8 10.2-5.8.7 0 13.9-8.3 18-11.4 6.4-4.7 17.7-16.6 22.2-23.1 3.4-5.1 8.4-13.8 8.8-15.5.1-.3.6-1.6 1.2-3s1.8-4.2 2.6-6.3c.9-2 1.4-3.7 1.2-3.7-.2 0 .2-2.1 1-4.7.8-2.7 1.7-7.3 2.1-10.3.9-6.8.9-220.6.1-227.5-1.2-9-3.7-18.6-6.8-25.2-1-2.4-1.9-4.7-1.9-5.2s-.3-1.1-.7-1.3c-.5-.2-2.1-2.9-3.7-6.1-1.6-3.1-3.2-5.7-3.7-5.7s-.9-.7-.9-1.6c0-.8-4.8-6.3-10.7-12.2-10.5-10.4-19.3-16.5-40.3-27.8-1.9-1-4.2-2.4-5-3-.8-.6-4-2.5-7-4.1-6.7-3.6-7-3.8-34.5-19.8-12.1-7.1-24.5-14.2-27.5-15.8-3-1.6-6.2-3.6-7.1-4.3-.8-.8-1.8-1.4-2.1-1.4-.3 0-6.1-3.2-12.9-7.1-25.5-14.7-58.6-33.7-63-36.2-5-2.7-17.9-7.6-21.9-8.3-1.4-.2-3.6-.7-5-1-1.4-.3-3.8-.8-5.5-1.1-3.1-.5-20.4-1.1-20.8-.7z"/>
</svg>
