<svg version="1.0" xmlns="http://www.w3.org/2000/svg" viewBox="0 0 180 180">
  <path d="M34.9 2.9c-2.9 2.9-2.9 3-2.9 15 0 6.8-.5 13.1-1.1 14.5-1.9 4-6.6 5.6-16.6 5.6C4.7 38 1.7 39.4.5 44.3.2 45.5.1 75.4.2 110.7l.3 64.2 2.3 2.3c2.1 2.1 3.3 2.3 14.6 2.6 14.8.4 17.9-.6 19.5-6.6.7-2.4 1.1-26.2 1.1-66.9V43.1l2.4-2.8c2.3-2.7 2.9-2.8 13.6-3.3 15-.7 15-.6 15-18.2v-13l-2.9-2.9C63.2 0 63.2 0 50.5 0S37.8 0 34.9 2.9zM111.8 1.5c-3.9 2.2-5.1 7.8-4.6 20.4.5 9.8.6 10.6 3.2 12.8 2.3 2 3.8 2.3 10.5 2.3 4.3 0 9.2.5 11 1.1 6.3 2.2 6.1.3 6.1 71.4v64.7l2.9 2.9c2.9 2.9 3 2.9 15.4 2.9 12 0 12.7-.1 15.6-2.6l3.1-2.6V42.9l-2.5-2.4c-2.2-2.2-3.2-2.5-10.5-2.5-8.1 0-14-1.6-15.6-4.1-.5-.8-1.1-7.6-1.4-15.1C144.3.3 144.6.6 127.2.2c-9.8-.1-13.3.1-15.4 1.3zM72.3 74.4l-2.8 2.4-.3 30.6-.3 30.5 3 3.3 2.9 3.3h13.1c12.9 0 13.1 0 15.8-2.8l2.8-2.7V76.8l-2.8-2.4C101 72.1 100.2 72 88 72s-13 .1-15.7 2.4z"/>
</svg>
