<svg width="139" height="137" viewBox="0 0 139 137" fill="none" xmlns="http://www.w3.org/2000/svg">
<g clip-path="url(#clip0_69_13)">
<path d="M87.0098 0L136.38 86.39C138.09 80.35 139 73.97 139 67.38C139 34.99 116.92 7.77 87.0098 0Z" fill="#5672B7"/>
<path d="M87.0098 0L136.38 86.39C138.09 80.35 139 73.97 139 67.38C139 34.99 116.92 7.77 87.0098 0Z" fill="#576EB2"/>
<path d="M69.4996 137C89.0796 137 106.76 128.88 119.4 115.84H19.5996C32.2296 128.89 49.9196 137 69.4996 137Z" fill="#5672B7"/>
<path d="M69.4996 137C89.0796 137 106.76 128.88 119.4 115.84H19.5996C32.2296 128.89 49.9196 137 69.4996 137Z" fill="#576EB2"/>
<path d="M0 67.39C0 73.98 0.92 80.36 2.62 86.4L51.99 0C22.09 7.78 0 35 0 67.39Z" fill="#5672B7"/>
<path d="M0 67.39C0 73.98 0.92 80.36 2.62 86.4L51.99 0C22.09 7.78 0 35 0 67.39Z" fill="#576EB2"/>
<path d="M102.53 86.28L69.5005 28.48L36.4805 86.28H102.53Z" fill="#5672B7"/>
<path d="M102.53 86.28L69.5005 28.48L36.4805 86.28H102.53Z" fill="#576EB2"/>
</g>
<defs>
<clipPath id="clip0_69_13">
<rect width="139" height="137" fill="white"/>
</clipPath>
</defs>
</svg>
