<svg xmlns="http://www.w3.org/2000/svg" data-name="Transparent Logo" viewBox="0 0 2048 1773.62">
  <path d="m1024 886.81-256 443.41 256 443.4 256-443.4-256-443.41z" style="opacity:.8"/>
  <path d="m1280 443.41-256 443.4 256 443.41 256-443.41-256-443.4zm-512 0-256 443.4 256 443.41 256-443.41-256-443.4z" style="opacity:.6"/>
  <path d="m1536 0-256 443.41 256 443.4 256-443.4L1536 0zm-384 221.7H896L768 443.41l256 443.4 256-443.4-128-221.71zM512 0 256 443.41l256 443.4 256-443.4L512 0z" style="opacity:.45"/>
  <path d="M1792 443.4 2048 0h-512l256 443.4zm-1536 0L512 0H0l256 443.4z" style="opacity:.3"/>
</svg>
