<svg viewBox="0 0 87 20" fill="none" xmlns="http://www.w3.org/2000/svg">
  <path fill-rule="evenodd" clip-rule="evenodd" d="M22.017 8.474a.652.652 0 0 1 .103.292.517.517 0 0 1-.052.263L17.75 18.6v.046a.573.573 0 0 1-.13.137.856.856 0 0 1-.166.074h-.085l-10.445 1h-.057a.568.568 0 0 1-.24-.057.57.57 0 0 1-.164-.148l-6.4-8.263v-.069A.538.538 0 0 1 0 11.114h.051a.573.573 0 0 1 0-.194.08.08 0 0 0 0-.034.046.046 0 0 0 0-.029l4.24-9.525a.571.571 0 0 1 .142-.189l.086-.034a.603.603 0 0 1 .222-.075L15.174 0h.08a.46.46 0 0 1 .273.08.514.514 0 0 1 .171.12c.002.01.002.02 0 .029l6.32 8.245Zm-5.55-5.36 1.294 5.11h2.632l-3.926-5.11ZM9.214 15.326l7.532 2.189V8.863l-1.874-7.429-7.641 4.28L1.533 11l7.68 4.326ZM7.123 4.474l5.458-3.068-6.843.68 1.385 2.388Zm-.93.67L4.867 2.856l-2.65 5.96 3.932-3.64.046-.034Zm-3.447 7.85 4.092 5.292 1.361-2.223-5.453-3.068Zm11.556 4.995-5.066-1.474-1.259 2.108 6.325-.634Zm3.584-8.623V15.6l2.786-6.234h-2.786ZM13.322 6a.57.57 0 0 1 0 1.143h-3.34l2.07 2.492a.573.573 0 0 1 0 .731l-2.07 2.492h3.34a.57.57 0 0 1 0 1.142H8.764a.573.573 0 0 1-.439-.937L10.872 10 8.325 6.938A.573.573 0 0 1 8.764 6h4.558Zm49.305-2.009-2.389-1.058v9.095h2.389V3.99Zm-30.26-1.235L29.87 3.835l-2.092 8.193h2.424l.557-2.265.436-2.016 1.171-4.991Zm3.976 9.272h2.625L34.241 0l-1.954 1.145 4.056 10.883Zm20.322-9.539h9.519V.42h-9.52v2.07Zm13.964 9.539h2.391V.42h-2.39v11.607Zm9.676-8.688c-.227-.514-.942-1.717-1.273-2.07-.506.282-1.184 1.15-1.184 2.636 0 1.893.68 2.583 2.563 3.061l2.18.566c1.603.425 1.69.672 1.69 1.132a2.136 2.136 0 0 1-.056.4c-.068.25-.273.671-1.081.939a6.102 6.102 0 0 1-1.635.236c-1.08 0-2.79-.194-3.487-.354v1.93c.628.229 2.18.406 3.295.406.333 0 .75-.015 1.153-.05.24-.008 1.812-.089 2.926-.89l.024-.018c.028-.02.057-.042.082-.065a2.64 2.64 0 0 0 .74-.887l.015-.034.008-.018c.234-.451.402-1.052.402-1.861 0-1.823-.715-2.496-3.19-3.15l-1.884-.477c-1.259-.337-1.36-.55-1.36-1.062.006-.127.03-.252.07-.371l.002.001Zm2.822-1.134v.001c-1.255 0-2.197.16-2.824.425.104-.567.54-1.822.854-2.212.65-.125 1.309-.19 1.97-.195 1.046 0 2.32.142 2.93.283v1.946a23.339 23.339 0 0 0-2.93-.248ZM50.113 12.06l-1.349-3.716c-.406.027-.82.026-1.225.025h-2.166v3.687H42.98V2.909l2.393.976v2.5h1.817c.873 0 1.939-.125 2.288-.337.401-.249.646-.905.646-1.614 0-1.276-.611-1.931-2.603-1.931H44.36l-1.991-.284V.429h5.365c3.878 0 4.804 1.523 4.804 4.077 0 .887-.323 2.475-1.482 3.28l1.828 4.271-2.77.004Zm-19.321 4.85c-.298-.533-.784-.8-1.459-.8-.282 0-.53.05-.743.152a1.18 1.18 0 0 0-.492.409.99.99 0 0 0-.171.56c0 .294.104.522.314.686.21.164.566.29 1.07.378.388.068.659.152.812.251.152.1.228.233.228.4a.513.513 0 0 1-.263.461c-.175.109-.412.163-.709.163-.301 0-.552-.062-.752-.186a1.173 1.173 0 0 1-.455-.523l-.394.32c.14.248.346.446.615.595.268.149.593.223.975.223.29 0 .545-.045.766-.134a1.16 1.16 0 0 0 .512-.378c.12-.162.18-.35.18-.563 0-.298-.104-.53-.312-.698-.207-.168-.561-.293-1.06-.377a3.323 3.323 0 0 1-.627-.158.77.77 0 0 1-.323-.208.466.466 0 0 1-.097-.303c0-.187.083-.34.249-.46.166-.12.393-.181.683-.181.275 0 .49.053.65.157.157.105.294.283.408.535l.395-.32Zm1.505 3.032h.458v-3.775h-.458v3.775Zm5.275 0v-1.905h-1.619v.43h1.201v.13c0 .314-.104.554-.311.721-.208.168-.476.252-.804.252-.415 0-.734-.132-.955-.397-.221-.265-.332-.638-.332-1.118 0-.313.054-.583.16-.81.107-.226.257-.401.45-.523.192-.122.416-.183.671-.183.267 0 .495.057.684.172a.974.974 0 0 1 .409.491l.417-.228a1.524 1.524 0 0 0-.586-.652c-.242-.141-.55-.212-.924-.212-.35 0-.658.08-.923.237-.265.159-.471.385-.618.678-.146.294-.22.637-.22 1.03 0 .396.072.74.215 1.032.142.291.346.516.609.675.263.158.572.237.926.237.282 0 .523-.049.724-.146.2-.097.355-.237.466-.42l.017.509h.343Zm4.794 0h.435v-3.775h-.704l-.823 2.3-.292.937h-.011l-.286-.943-.83-2.294h-.703v3.775h.435v-2.374l-.052-.995h.006l1.24 3.369h.39l1.24-3.369h.006l-.051.995v2.374Zm2.592-1.047h1.71l.4 1.047h.487l-1.464-3.775h-.544l-1.47 3.775h.481l.4-1.047Zm1.035-1.767.51 1.338h-1.379l.515-1.355.166-.51h.011l.177.527Zm8.285 2.814h.434v-3.775h-.703l-.824 2.3-.291.937h-.012l-.286-.943-.829-2.294h-.703v3.775h.434v-2.374l-.051-.995h.006l1.24 3.369h.39l1.24-3.369h.006l-.051.995v2.374Zm2.592-1.047h1.71l.4 1.047h.487l-1.465-3.775h-.543l-1.47 3.775h.48l.401-1.047Zm1.035-1.767.51 1.338h-1.38l.516-1.355.166-.51h.01l.178.527Zm2.838 2.814h.458v-3.775h-.458v3.775Zm4.6 0h.566v-3.775h-.434v2.665l.023.607h-.006l-.406-.755-1.573-2.517h-.566v3.775h.434v-2.665l-.022-.606h.005l.4.743 1.58 2.528Zm4.709 0h.566v-3.775h-.435v2.665l.023.607H70.2l-.406-.755-1.573-2.517h-.566v3.775h.435v-2.665l-.023-.606h.006l.4.743 1.579 2.528Zm5.045 0v-.43h-2.276v-1.269h1.704v-.429h-1.704v-1.218h2.19v-.429h-2.647v3.775h2.733Zm2.764-3.346h1.316v-.429h-3.089v.43h1.316v3.345h.457v-3.346Z" fill="#129C6B"/>
</svg>
