<svg viewBox="0 0 75 24" fill="none" xmlns="http://www.w3.org/2000/svg">
  <g clip-path="url(#astar-dark_svg__a)">
    <g clip-path="url(#astar-dark_svg__b)">
      <path d="M23.97 11.186C23.52 4.573 17.795-.421 11.184.028a11.969 11.969 0 0 0-8.204 4.056l-.006-.004-.039.055a11.968 11.968 0 0 0-2.805 9.607c0 .015.004.027.006.041a11.791 11.791 0 0 0 .228 1.144c1.386 5.527 6.563 9.44 12.449 9.04 6.61-.45 11.607-6.173 11.157-12.785l-.002.004Zm-2.613.178c.056.814.004 1.61-.142 2.379 0-.004-.003-.008-.003-.013-.872-2.125-2.593-3.661-4.104-4.51.306-3.602-.916-5.121-2.3-5.368a2.002 2.002 0 0 0-2.302 2.496 2.002 2.002 0 0 0 1.963 1.476c.007.128.01.257.01.386a10.747 10.747 0 0 0-3.565-.281c-.41.027-.818.078-1.222.154.136-1.216.594-2.584 1.48-3.582a4.108 4.108 0 0 1 3.517-1.378 3.802 3.802 0 0 1 .832.187c3.216 1.31 5.584 4.364 5.834 8.054h.002Zm-8.364 1.832-.002.004a8.46 8.46 0 0 1-1.027 1.214 8.925 8.925 0 0 1-1.446-2.035c-.019-.04-.039-.074-.058-.113v-.004a8.606 8.606 0 0 1-.538-1.497 8.918 8.918 0 0 1 2.487-.236l.128.006h.004a8.57 8.57 0 0 1 1.563.281 8.944 8.944 0 0 1-1.11 2.378l-.001.002Zm-4.1-10.048-.006.008C7.481 4.97 7.012 7.228 7.033 8.96c-3.274 1.537-3.976 3.354-3.5 4.676.012.038.027.072.042.108a2.005 2.005 0 0 0 3.698-1.547 2.085 2.085 0 0 0-.13-.253c.104-.068.214-.135.334-.205a10.747 10.747 0 0 0 1.536 3.233c.228.338.474.665.743.98-1.121.49-2.534.778-3.843.51a4.113 4.113 0 0 1-2.952-2.357c-.11-.25-.193-.51-.247-.778-.034-.23-.059-.46-.076-.692-.292-4.299 2.374-8.125 6.255-9.488Zm3.742 18.21a9.341 9.341 0 0 1-6.742-2.245c2.276.31 4.465-.413 5.956-1.298 2.967 2.068 4.894 1.768 5.801.694a2.004 2.004 0 0 0-1.791-3.292 2.004 2.004 0 0 0-1.326.772 2.039 2.039 0 0 0-.154.24 7.435 7.435 0 0 1-.341-.184 10.722 10.722 0 0 0 2.027-2.95c.18-.368.34-.748.476-1.135.986.727 1.943 1.805 2.366 3.072a4.11 4.11 0 0 1-.565 3.736 3.82 3.82 0 0 1-.55.601l-.008.009a9.322 9.322 0 0 1-5.146 1.977l-.003.003Z" fill="url(#astar-dark_svg__c)"/>
      <path style="mix-blend-mode:overlay" opacity=".9" d="M14.808 3.85a1.949 1.949 0 0 0-.682-.008c1.148.624 1.984 2.364 1.545 5.798a10.268 10.268 0 0 1-.971 3.212 10.695 10.695 0 0 1-1.658 2.542c.318.239.65.457.996.655a10.721 10.721 0 0 0 2.027-2.949c.499-1.01.827-2.095.971-3.212.524-4.087-.761-5.775-2.228-6.036V3.85Z" fill="url(#astar-dark_svg__d)"/>
      <path d="M15.67 9.638c.44-3.432-.396-5.174-1.544-5.798-.045.006-.088.016-.133.027 1.123.647 1.932 2.384 1.499 5.77a10.272 10.272 0 0 1-.972 3.213c-.413.889-.947 1.717-1.587 2.46l.109.082c.67-.765 1.228-1.621 1.657-2.543a10.2 10.2 0 0 0 .972-3.211Z" fill="#fff" style="mix-blend-mode:overlay" opacity=".8"/>
      <path style="mix-blend-mode:overlay" opacity=".5" d="M11.306 17.423c-.108-.082-.211-.169-.316-.255-1.694.707-4.042 1.15-6.375.608.38.487.808.934 1.276 1.337 2.275.31 4.464-.413 5.956-1.298-.184-.128-.364-.26-.543-.394l.002.002Z" fill="url(#astar-dark_svg__e)"/>
      <path style="mix-blend-mode:overlay" opacity=".6" d="M10.992 17.168c-.051-.043-.104-.086-.154-.13-1.706.682-4.066 1.091-6.393.51l.173.228c2.33.542 4.68.099 6.374-.608Z" fill="url(#astar-dark_svg__f)"/>
      <path style="mix-blend-mode:overlay" opacity=".9" d="M3.536 13.64c.012.037.027.072.04.107.077.18.175.343.295.489-.033-1.306 1.055-2.902 4.246-4.237 1.04-.433 2.144-.69 3.267-.764a10.642 10.642 0 0 1 3.032.164c.051-.431.072-.833.068-1.189a10.703 10.703 0 0 0-3.568-.281 10.26 10.26 0 0 0-3.267.764c-3.8 1.59-4.62 3.547-4.113 4.949v-.002Z" fill="url(#astar-dark_svg__g)"/>
      <path d="M8.117 10c-3.191 1.336-4.28 2.932-4.247 4.238l.09.1c-.002-1.296 1.1-2.864 4.248-4.183 1.04-.433 2.143-.69 3.267-.764.977-.087 1.96-.038 2.924.144.007-.045.012-.09.017-.136a10.717 10.717 0 0 0-3.032-.164A10.26 10.26 0 0 0 8.117 10v.002Z" fill="#fff" style="mix-blend-mode:overlay" opacity=".8"/>
      <path style="mix-blend-mode:overlay" opacity=".4" d="M17.04 9.886c-.016.136-.038.267-.061.4 1.458 1.114 3.017 2.927 3.715 5.216.23-.572.405-1.167.52-1.774-.87-2.125-2.59-3.66-4.102-4.508-.018.216-.04.436-.07.666h-.002Z" fill="url(#astar-dark_svg__h)"/>
      <path style="mix-blend-mode:overlay" opacity=".5" d="M16.979 10.286c-.013.066-.023.134-.035.2 1.444 1.137 2.978 2.976 3.637 5.282.039-.088.076-.177.11-.265-.697-2.29-2.254-4.101-3.715-5.217h.003Z" fill="url(#astar-dark_svg__i)"/>
      <path style="mix-blend-mode:overlay" opacity=".9" d="M17.65 18.507c.149-.175.267-.373.35-.587-1.116.682-3.04.536-5.794-1.561A10.207 10.207 0 0 1 9.91 13.91a10.653 10.653 0 0 1-1.374-2.707 9.49 9.49 0 0 0-1.066.536c.33 1.156.85 2.248 1.54 3.23a10.24 10.24 0 0 0 2.296 2.449c3.278 2.497 5.383 2.228 6.342 1.088h.003Z" fill="url(#astar-dark_svg__j)"/>
      <path d="M12.208 16.36c2.752 2.096 4.678 2.242 5.793 1.56.016-.043.03-.086.043-.128-1.121.652-3.031.48-5.746-1.587a10.211 10.211 0 0 1-2.296-2.448 10.661 10.661 0 0 1-1.337-2.604l-.125.053c.326.964.789 1.875 1.374 2.707a10.24 10.24 0 0 0 2.296 2.448l-.002-.002Z" fill="#fff" style="mix-blend-mode:overlay" opacity=".8"/>
      <path style="mix-blend-mode:overlay" opacity=".3" d="M7.647 8.689c.125-.052.25-.099.377-.146.235-1.82 1.025-4.077 2.66-5.824a9.621 9.621 0 0 0-1.797.435C7.48 4.97 7.012 7.226 7.033 8.96c.195-.092.398-.183.612-.27l.002-.001Z" fill="url(#astar-dark_svg__k)"/>
      <path style="mix-blend-mode:overlay" opacity=".4" d="m8.024 8.543.19-.07c.262-1.82 1.088-4.066 2.753-5.791-.094.01-.19.022-.284.035C9.05 4.467 8.259 6.72 8.024 8.54v.002Z" fill="url(#astar-dark_svg__l)"/>
      <path style="mix-blend-mode:multiply" opacity=".4" d="M11.185.028a11.967 11.967 0 0 0-8.204 4.056l-.045.052c.392.39 1.678 1.158 2.197 1.478a9.372 9.372 0 0 1 3.763-2.466c.1-.132.207-.26.318-.386C10.57 1.232 12.42.425 14.568.425c.238 0 .725.039.735.039a11.917 11.917 0 0 0-4.117-.436Z" fill="url(#astar-dark_svg__m)"/>
      <path style="mix-blend-mode:multiply" opacity=".4" d="M12.635 21.36a9.343 9.343 0 0 1-6.742-2.245 7.248 7.248 0 0 1-.505-.084c-2.002-.409-3.629-1.608-4.7-3.467a7.049 7.049 0 0 1-.323-.632c1.386 5.526 6.563 9.44 12.447 9.04.027-.606-.152-2.012-.179-2.612h.002Z" fill="url(#astar-dark_svg__n)"/>
      <path style="mix-blend-mode:multiply" opacity=".4" d="M23.97 11.186c-.37-.037-2.17.105-2.612.178.055.814.004 1.61-.142 2.379.061.152.12.308.174.466.647 1.939.421 3.945-.65 5.805a7.133 7.133 0 0 1-.387.596s.006-.004.008-.008a11.967 11.967 0 0 0 3.609-9.414v-.002Z" fill="url(#astar-dark_svg__o)"/>
      <path style="mix-blend-mode:multiply" opacity=".5" d="M14.691 3.121a3.813 3.813 0 0 1 .832.187 9.435 9.435 0 0 1 2.805 1.774c.394-.45 1.152-.944 1.152-.944s-1.16-1.187-2.936-1.557c-1.243-.259-4.046-.507-5.815 2.501l.017-.016c.131-.197.27-.39.427-.567a4.108 4.108 0 0 1 3.518-1.378Z" fill="url(#astar-dark_svg__p)"/>
      <path style="mix-blend-mode:multiply" opacity=".5" d="M18.342 18.77c-.161.22-.346.421-.55.602l-.027.024a9.441 9.441 0 0 1-2.932 1.538c-.002 0-.004 0-.007.002.194.567.243 1.47.243 1.47s1.608-.41 2.816-1.763c.844-.947 2.462-3.251.74-6.286l.007.022c.107.212.203.43.277.653a4.11 4.11 0 0 1-.565 3.736l-.002.002Z" fill="url(#astar-dark_svg__q)"/>
      <path style="mix-blend-mode:multiply" opacity=".5" d="M2.965 14.11c-.11-.25-.193-.51-.247-.778l-.008-.037a9.461 9.461 0 0 1 .134-3.308V9.98c-.588-.115-1.394-.525-1.394-.525s-.448 1.6.12 3.32c.4 1.206 1.584 3.759 5.073 3.785l-.023-.006a5.08 5.08 0 0 1-.704-.086 4.116 4.116 0 0 1-2.953-2.358h.002Z" fill="url(#astar-dark_svg__r)"/>
      <path style="mix-blend-mode:multiply" opacity=".6" d="M14.186 7.808c.096.012.19.016.283.014 0 0-.063-1.246-.215-1.887-.154-.639-.38-1.064-.627-1.304-.178-.173-.739-.387-1.174.932a2 2 0 0 0 1.733 2.243v.002Z" fill="url(#astar-dark_svg__s)"/>
      <path style="mix-blend-mode:multiply" opacity=".5" d="M7.276 12.202a2.087 2.087 0 0 0-.13-.252s-1.05.678-1.526 1.13c-.476.451-.73.86-.815 1.194-.06.24.035.832 1.395.55a2.005 2.005 0 0 0 1.076-2.622Z" fill="url(#astar-dark_svg__t)"/>
      <path style="mix-blend-mode:multiply" opacity=".6" d="M14.535 15.987a2.016 2.016 0 0 0-.154.24s1.111.57 1.742.756c.63.187 1.11.204 1.441.109.239-.068.703-.448-.22-1.482a2.005 2.005 0 0 0-2.809.38v-.003Z" fill="url(#astar-dark_svg__u)"/>
      <path style="mix-blend-mode:multiply" opacity=".3" d="M14.104 10.818a8.918 8.918 0 0 1-1.039 2.272c-.023.034-.045.07-.07.106l-.002.004a8.46 8.46 0 0 1-1.027 1.214c.276.292.571.575.898.844a9.4 9.4 0 0 0 1.174.789 10.718 10.718 0 0 0 2.027-2.949c.181-.369.34-.748.476-1.136a6.427 6.427 0 0 0-1.244-.727 9.135 9.135 0 0 0-1.195-.417h.002Z" fill="url(#astar-dark_svg__v)"/>
      <path style="mix-blend-mode:multiply" opacity=".3" d="M5.894 19.115c2.275.31 4.464-.413 5.955-1.298-.183-.128-.364-.26-.542-.394a10.23 10.23 0 0 1-1.552-1.468c-1.122.49-2.535.778-3.843.51a4.115 4.115 0 0 1-2.953-2.357c-.11-.25-.193-.51-.247-.778a9.349 9.349 0 0 0 3.18 5.785h.002Z" fill="url(#astar-dark_svg__w)"/>
      <path style="mix-blend-mode:multiply" opacity=".3" d="M11.966 14.414a8.929 8.929 0 0 1-1.446-2.035c-.018-.039-.039-.074-.057-.113v-.004a8.607 8.607 0 0 1-.538-1.497c-.39.092-.783.207-1.177.355a9.515 9.515 0 0 0-1.27.62 10.756 10.756 0 0 0 1.537 3.233c.228.339.475.665.744.98.48-.21.91-.459 1.252-.715.337-.254.657-.53.957-.826l-.002.002Z" fill="url(#astar-dark_svg__x)"/>
      <path style="mix-blend-mode:multiply" opacity=".3" d="M8.888 3.156C7.481 4.972 7.013 7.228 7.034 8.962c.202-.096.407-.187.614-.273.658-.275 1.343-.48 2.045-.61.136-1.216.593-2.584 1.479-3.582A4.107 4.107 0 0 1 14.69 3.12a3.813 3.813 0 0 1 .831.187 9.34 9.34 0 0 0-6.63-.158l-.005.008h.002Z" fill="url(#astar-dark_svg__y)"/>
      <path style="mix-blend-mode:multiply" opacity=".3" d="M21.214 13.726c-.87-2.125-2.592-3.662-4.104-4.51-.018.216-.04.438-.072.67a10.163 10.163 0 0 1-.494 2.076c.986.727 1.942 1.805 2.366 3.072a4.11 4.11 0 0 1-.565 3.736 3.81 3.81 0 0 1-.55.602l-.009.008a9.412 9.412 0 0 0 3.436-5.64c0-.003-.004-.008-.004-.012l-.004-.002Z" fill="url(#astar-dark_svg__z)"/>
      <path style="mix-blend-mode:multiply" opacity=".3" d="M9.686 9.524c.05.419.13.833.236 1.24a8.92 8.92 0 0 1 2.488-.235l.127.006h.004a8.58 8.58 0 0 1 1.563.281c.115-.384.212-.782.281-1.197a9.4 9.4 0 0 0 .097-1.413 10.743 10.743 0 0 0-3.565-.281c-.41.027-.818.078-1.222.154a6.28 6.28 0 0 0-.007 1.444l-.002.001Z" fill="url(#astar-dark_svg__A)"/>
      <path d="m60.17 8.912-1.544 4.299h.013l1.54-4.274-.008-.025Zm-27.413 0-1.544 4.299h.006l1.544-4.284-.006-.015Zm.386 1.074 1.158 3.225h-2.323l-.585 1.626h3.5l.992 2.758h2.22L34.059 7.446l-.916 2.54Z" fill="#fff"/>
      <path d="m31.212 13.21 1.545-4.298.006.015.651-1.807H31.71l-4.163 10.476h2.09l1.582-4.385h-.007Zm13.619-1.012c-.505-.298-1.177-.577-2.013-.834a8.908 8.908 0 0 1-1.123-.433c-.271-.133-.46-.285-.565-.453a1.123 1.123 0 0 1-.158-.6c0-.405.156-.717.468-.936.313-.22.75-.331 1.31-.331.46 0 .939.07 1.44.207.5.138.945.326 1.33.565l.29-1.695c-.394-.238-.875-.429-1.44-.572a6.917 6.917 0 0 0-1.688-.214c-.761 0-1.425.123-1.983.372-.56.248-.994.602-1.302 1.062-.308.46-.462 1.002-.462 1.626 0 .534.102.994.31 1.384.207.39.544.73 1.012 1.012.468.286 1.085.543 1.846.772.55.167.978.323 1.282.469.304.146.516.31.635.489.118.178.178.392.178.64 0 .432-.176.77-.53 1.013-.353.242-.843.365-1.468.365-.542 0-1.11-.084-1.702-.254a6.4 6.4 0 0 1-1.551-.655l-.193 1.75c.257.174.58.326.965.453.386.13.801.23 1.247.304.445.074.889.111 1.33.111 1.24 0 2.215-.283 2.923-.848.706-.565 1.062-1.347 1.062-2.35 0-.531-.115-.993-.345-1.383-.23-.39-.598-.736-1.103-1.034l-.002-.002ZM55.828 7.12h-8.861v1.708h8.861V7.12Zm-3.377 2.423h-2.109v8.05h2.11v-8.05Zm6.176 3.668 1.544-4.299.008.025.655-1.817h-1.712L54.96 17.596h2.095l.992-2.759h.004l.587-1.626h-.012Zm1.932-3.216 1.154 3.216h-2.315l-.585 1.626h3.493l.992 2.758h2.22l-4.043-10.14-.916 2.54Zm11.78 3.355c.498-.279.924-.673 1.24-1.15.322-.482.483-1.045.483-1.688 0-.698-.156-1.3-.469-1.805-.312-.505-.757-.895-1.337-1.17-.579-.276-1.267-.413-2.067-.413h-.734v1.585h.456c1.397 0 2.095.598 2.095 1.791s-.721 1.79-2.165 1.79h-.388v1.586h1.076l2.206 3.721h2.358l-2.757-4.245.002-.002Zm-3.596-6.23h-1.998v10.473h1.998V7.12Z" fill="#fff"/>
    </g>
  </g>
  <defs>
    <linearGradient id="astar-dark_svg__c" x1="3.811" y1="20.189" x2="19.11" y2="4.887" gradientUnits="userSpaceOnUse">
      <stop stop-color="#E6007A"/>
      <stop offset=".21" stop-color="#703AC2"/>
      <stop offset=".46" stop-color="#0070EB"/>
      <stop offset=".77" stop-color="#0297FB"/>
      <stop offset="1" stop-color="#0AE2FF"/>
    </linearGradient>
    <linearGradient id="astar-dark_svg__f" x1="4.692" y1="17.585" x2="7.251" y2="17.55" gradientUnits="userSpaceOnUse">
      <stop stop-color="#fff" stop-opacity="0"/>
      <stop offset="1" stop-color="#fff"/>
    </linearGradient>
    <linearGradient id="astar-dark_svg__i" x1="20.491" y1="15.533" x2="19.181" y2="13.334" gradientUnits="userSpaceOnUse">
      <stop stop-color="#fff" stop-opacity="0"/>
      <stop offset="1" stop-color="#fff"/>
    </linearGradient>
    <linearGradient id="astar-dark_svg__l" x1="10.813" y1="2.877" x2="9.565" y2="5.112" gradientUnits="userSpaceOnUse">
      <stop stop-color="#fff" stop-opacity="0"/>
      <stop offset="1" stop-color="#fff"/>
    </linearGradient>
    <linearGradient id="astar-dark_svg__m" x1="11.37" y1="1.741" x2="7.46" y2="2.879" gradientUnits="userSpaceOnUse">
      <stop stop-color="#231F20"/>
      <stop offset="1" stop-color="#fff"/>
    </linearGradient>
    <linearGradient id="astar-dark_svg__n" x1="3.983" y1="16.651" x2="7.253" y2="20.064" gradientUnits="userSpaceOnUse">
      <stop stop-color="#231F20"/>
      <stop offset="1" stop-color="#fff"/>
    </linearGradient>
    <linearGradient id="astar-dark_svg__o" x1="21.53" y1="16.137" x2="22.668" y2="12.679" gradientUnits="userSpaceOnUse">
      <stop stop-color="#231F20"/>
      <stop offset="1" stop-color="#fff"/>
    </linearGradient>
    <linearGradient id="astar-dark_svg__p" x1="13.151" y1="3.721" x2="18.392" y2="4.92" gradientUnits="userSpaceOnUse">
      <stop stop-color="#231F20"/>
      <stop offset="1" stop-color="#fff"/>
    </linearGradient>
    <linearGradient id="astar-dark_svg__q" x1="18.594" y1="17.136" x2="14.932" y2="21.076" gradientUnits="userSpaceOnUse">
      <stop stop-color="#231F20"/>
      <stop offset="1" stop-color="#fff"/>
    </linearGradient>
    <linearGradient id="astar-dark_svg__r" x1="4.253" y1="15.144" x2="2.673" y2="10.005" gradientUnits="userSpaceOnUse">
      <stop stop-color="#231F20"/>
      <stop offset="1" stop-color="#fff"/>
    </linearGradient>
    <linearGradient id="astar-dark_svg__s" x1="14.297" y1="5.653" x2="12.64" y2="7.313" gradientUnits="userSpaceOnUse">
      <stop stop-color="#231F20"/>
      <stop offset="1" stop-color="#fff"/>
    </linearGradient>
    <linearGradient id="astar-dark_svg__t" x1="5.356" y1="13.18" x2="7.62" y2="13.789" gradientUnits="userSpaceOnUse">
      <stop stop-color="#231F20"/>
      <stop offset="1" stop-color="#fff"/>
    </linearGradient>
    <linearGradient id="astar-dark_svg__u" x1="16.344" y1="17.161" x2="15.738" y2="14.897" gradientUnits="userSpaceOnUse">
      <stop stop-color="#231F20"/>
      <stop offset="1" stop-color="#fff"/>
    </linearGradient>
    <linearGradient id="astar-dark_svg__v" x1="12.897" y1="15.147" x2="13.893" y2="13.774" gradientUnits="userSpaceOnUse">
      <stop stop-color="#231F20"/>
      <stop offset="1" stop-color="#fff"/>
    </linearGradient>
    <linearGradient id="astar-dark_svg__w" x1="9.471" y1="14.552" x2="7.481" y2="15.501" gradientUnits="userSpaceOnUse">
      <stop stop-color="#231F20"/>
      <stop offset="1" stop-color="#fff"/>
    </linearGradient>
    <linearGradient id="astar-dark_svg__x" x1="8.748" y1="11.239" x2="9.364" y2="12.519" gradientUnits="userSpaceOnUse">
      <stop stop-color="#231F20"/>
      <stop offset="1" stop-color="#fff"/>
    </linearGradient>
    <linearGradient id="astar-dark_svg__y" x1="11.613" y1="7.288" x2="11.188" y2="5.82" gradientUnits="userSpaceOnUse">
      <stop stop-color="#231F20"/>
      <stop offset="1" stop-color="#fff"/>
    </linearGradient>
    <linearGradient id="astar-dark_svg__z" x1="16.209" y1="14.014" x2="17.441" y2="14.297" gradientUnits="userSpaceOnUse">
      <stop stop-color="#231F20"/>
      <stop offset="1" stop-color="#fff"/>
    </linearGradient>
    <linearGradient id="astar-dark_svg__A" x1="14.277" y1="9.851" x2="12.714" y2="9.568" gradientUnits="userSpaceOnUse">
      <stop stop-color="#231F20"/>
      <stop offset="1" stop-color="#fff"/>
    </linearGradient>
    <radialGradient id="astar-dark_svg__d" cx="0" cy="0" r="1" gradientUnits="userSpaceOnUse" gradientTransform="translate(15.42 9.57) scale(4.5632)">
      <stop stop-color="#fff"/>
      <stop offset="1" stop-color="#fff" stop-opacity="0"/>
    </radialGradient>
    <radialGradient id="astar-dark_svg__e" cx="0" cy="0" r="1" gradientUnits="userSpaceOnUse" gradientTransform="matrix(2.65535 0 0 2.65536 8.676 18.035)">
      <stop stop-color="#fff"/>
      <stop offset="1" stop-color="#fff" stop-opacity="0"/>
    </radialGradient>
    <radialGradient id="astar-dark_svg__g" cx="0" cy="0" r="1" gradientUnits="userSpaceOnUse" gradientTransform="rotate(-120 7.052 2.762) scale(4.5632)">
      <stop stop-color="#fff"/>
      <stop offset="1" stop-color="#fff" stop-opacity="0"/>
    </radialGradient>
    <radialGradient id="astar-dark_svg__h" cx="0" cy="0" r="1" gradientUnits="userSpaceOnUse" gradientTransform="rotate(-120 12.868 .477) scale(2.65535)">
      <stop stop-color="#fff"/>
      <stop offset="1" stop-color="#fff" stop-opacity="0"/>
    </radialGradient>
    <radialGradient id="astar-dark_svg__j" cx="0" cy="0" r="1" gradientUnits="userSpaceOnUse" gradientTransform="rotate(120 1.48 11.497) scale(4.5632)">
      <stop stop-color="#fff"/>
      <stop offset="1" stop-color="#fff" stop-opacity="0"/>
    </radialGradient>
    <radialGradient id="astar-dark_svg__k" cx="0" cy="0" r="1" gradientUnits="userSpaceOnUse" gradientTransform="rotate(120 2.454 5.486) scale(2.65535)">
      <stop stop-color="#fff"/>
      <stop offset="1" stop-color="#fff" stop-opacity="0"/>
    </radialGradient>
    <clipPath id="astar-dark_svg__a">
      <path fill="#fff" d="M0 0h75v24H0z"/>
    </clipPath>
    <clipPath id="astar-dark_svg__b">
      <path fill="#fff" d="M0 0h75.2v24H0z"/>
    </clipPath>
  </defs>
</svg>
