<svg viewBox="0 0 404 112" fill="none" xmlns="http://www.w3.org/2000/svg">
  <path fill-rule="evenodd" clip-rule="evenodd" d="M112 56c0 30.928-25.121 56-56.11 56C26.59 112 2.534 89.586 0 61h73.925V50H.098c3-28.107 26.834-50 55.792-50C86.879 0 112 25.072 112 56Zm212.983-22.244c-.492-4.27-2.487-7.586-5.985-9.945-3.498-2.36-7.788-3.54-12.87-3.54-3.717 0-6.969.618-9.756 1.854-2.76 1.236-4.918 2.936-6.476 5.099-1.53 2.163-2.295 4.621-2.295 7.374 0 2.304.532 4.285 1.598 5.942a14.364 14.364 0 0 0 4.181 4.088 29.617 29.617 0 0 0 5.328 2.655 64.816 64.816 0 0 0 5.124 1.643l8.526 2.36c2.186.59 4.618 1.405 7.296 2.444 2.705 1.04 5.288 2.458 7.747 4.256 2.487 1.77 4.536 4.046 6.149 6.827 1.612 2.781 2.418 6.195 2.418 10.24 0 4.664-1.189 8.878-3.566 12.642-2.35 3.765-5.793 6.757-10.329 8.976-4.509 2.22-9.988 3.329-16.437 3.329-6.012 0-11.218-.997-15.617-2.992-4.372-1.995-7.815-4.776-10.33-8.344-2.486-3.568-3.893-7.711-4.221-12.431h10.493c.273 3.259 1.339 5.956 3.197 8.091 1.886 2.107 4.263 3.68 7.132 4.72 2.897 1.01 6.012 1.517 9.346 1.517 3.88 0 7.364-.646 10.452-1.939 3.088-1.32 5.534-3.146 7.337-5.478 1.804-2.36 2.705-5.113 2.705-8.26 0-2.865-.778-5.197-2.336-6.995-1.557-1.798-3.607-3.259-6.148-4.382-2.542-1.124-5.288-2.107-8.239-2.95l-10.329-3.034c-6.559-1.939-11.751-4.706-15.577-8.302-3.825-3.596-5.738-8.302-5.738-14.117 0-4.832 1.271-9.046 3.812-12.642 2.569-3.624 6.012-6.433 10.329-8.428C296.249 12.011 301.1 11 306.456 11c5.41 0 10.22.997 14.428 2.992 4.208 1.966 7.542 4.663 10.001 8.09 2.487 3.428 3.799 7.32 3.935 11.674h-9.837ZM126 12.18v86.303h30.332c6.613 0 11.983-1.011 16.109-3.034 4.126-2.023 7.146-4.762 9.059-8.218 1.912-3.455 2.869-7.346 2.869-11.672 0-4.551-.875-8.4-2.623-11.547-1.749-3.146-3.922-5.562-6.518-7.248-2.596-1.685-5.178-2.612-7.747-2.781v-.843a22.47 22.47 0 0 0 6.682-3.118c2.076-1.405 3.743-3.315 5-5.731 1.285-2.416 1.927-5.478 1.927-9.187 0-4.214-.929-8.049-2.788-11.504-1.858-3.484-4.686-6.25-8.484-8.302-3.799-2.079-8.622-3.118-14.47-3.118H126Zm30.332 77.032h-20.167V59.208h20.659c3.662 0 6.832.759 9.509 2.276 2.678 1.489 4.742 3.483 6.19 5.984 1.448 2.472 2.172 5.169 2.172 8.09 0 3.793-1.407 7.024-4.222 9.693-2.787 2.64-7.501 3.961-14.141 3.961Zm-1.311-39.106h-18.856V21.451h19.183c5.575 0 9.647 1.334 12.215 4.003 2.569 2.641 3.853 5.857 3.853 9.65 0 3.034-.738 5.675-2.213 7.923-1.449 2.247-3.416 3.989-5.903 5.225-2.459 1.236-5.219 1.854-8.279 1.854Zm38.837 48.377h10.657l8.44-24.441h33.947l8.44 24.44h10.657L235.175 12.18h-10.493l-30.824 86.303Zm49.843-33.712-13.445-38.938h-.655l-13.445 38.938h27.545Zm108.98-52.591v86.303H404v-9.27h-41.153v-29.33h37.874v-9.271h-37.874V21.45h40.497v-9.27h-50.663Z" fill="#2151F5"/>
</svg>
