<svg viewBox="0 0 57 20" fill="none" xmlns="http://www.w3.org/2000/svg">
  <path fill-rule="evenodd" clip-rule="evenodd" d="M12.018 9.929a.73.73 0 0 1 0 .142c-.002.02-.006.04-.009.059a.1.1 0 0 0-.002.01v.008l-.005.016a.66.66 0 0 1-.08.234c-.009.016-.022.029-.032.044l-5.194 9.076a.705.705 0 0 1-.312.39.689.689 0 0 1-.329.091c-.015.002-.03 0-.045 0s-.03.002-.045 0a.687.687 0 0 1-.64-.481L.13 10.442c-.01-.015-.024-.028-.033-.044a.643.643 0 0 1-.08-.235l-.004-.016-.001-.006c0-.004 0-.008-.002-.011l-.008-.059a.717.717 0 0 1 0-.142l.008-.059.002-.01.001-.007.004-.015a.652.652 0 0 1 .08-.236c.01-.016.022-.029.033-.044L5.325.482c.054-.16.158-.3.312-.39A.687.687 0 0 1 5.965 0c.015-.002.03 0 .045 0s.03-.002.046 0c.112.003.224.03.328.09.154.09.258.231.312.391l5.194 9.076c.01.015.023.028.033.044a.637.637 0 0 1 .08.235l.004.016v.006l.002.011c.003.02.007.04.008.059ZM6.01 17.795l3.412-5.962-3.031 1.726c-.016.01-.033.015-.05.023a.77.77 0 0 1-.58.042.698.698 0 0 1-.212-.11L2.6 11.832l3.411 5.962Zm0-15.59L2.598 8.167 5.63 6.441c.016-.01.033-.015.049-.022.028-.014.052-.034.082-.043l.008-.003c.02-.006.042-.006.063-.01a.813.813 0 0 1 .137-.023h.02a.73.73 0 0 1 .483.147l.444.253 2.506 1.427L6.01 2.205Zm0 5.632L4.152 8.895 2.212 10l3.798 2.163.756-.43L9.808 10 6.01 7.837Z" fill="#4AD7A7"/>
  <path fill-rule="evenodd" clip-rule="evenodd" d="M56.45 13.897a.373.373 0 0 1-.169-.042 2.405 2.405 0 0 1-.215-.127 2.587 2.587 0 0 0-.434-.228 1.307 1.307 0 0 0-.481-.08c-.424 0-.752.143-.986.43-.233.287-.35.685-.35 1.196 0 .511.115.905.346 1.182.23.278.557.416.98.416.187 0 .352-.028.496-.084.153-.061.3-.136.439-.224.068-.044.136-.081.205-.112a.452.452 0 0 1 .187-.047.26.26 0 0 1 .215.107c.056.072.084.16.084.267a.426.426 0 0 1-.07.238.832.832 0 0 1-.238.22c-.202.13-.422.228-.654.29-.247.067-.501.102-.757.102-.442 0-.83-.096-1.163-.29a1.977 1.977 0 0 1-.775-.822c-.184-.355-.276-.766-.276-1.234 0-.473.095-.89.285-1.252a2.06 2.06 0 0 1 .799-.84c.342-.2.734-.3 1.177-.3.236 0 .474.035.714.103.226.063.441.157.64.28.2.137.3.296.3.477a.42.42 0 0 1-.085.266.261.261 0 0 1-.215.108Zm-.337-5.856a.486.486 0 0 1-.336-.117.421.421 0 0 1-.131-.332v-2.42c0-.38-.069-.656-.206-.827-.136-.171-.351-.257-.644-.257-.342 0-.613.117-.813.35-.199.234-.298.553-.298.958v2.196a.422.422 0 0 1-.131.332.5.5 0 0 1-.346.117.487.487 0 0 1-.337-.117.422.422 0 0 1-.13-.332v-2.42c0-.38-.069-.656-.206-.827-.137-.171-.351-.257-.644-.257-.343 0-.615.117-.818.35-.202.234-.303.553-.303.958v2.196a.422.422 0 0 1-.13.332.487.487 0 0 1-.337.117.503.503 0 0 1-.341-.117.414.414 0 0 1-.136-.332V3.79a.41.41 0 0 1 .14-.327.496.496 0 0 1 .337-.122c.13 0 .238.04.322.117a.417.417 0 0 1 .126.322v.346c.137-.261.327-.46.57-.598.243-.137.523-.205.84-.205.35 0 .637.071.865.215.227.143.397.364.51.663.136-.267.346-.49.606-.64a1.76 1.76 0 0 1 .916-.238c1.021 0 1.532.613 1.532 1.84v2.43a.422.422 0 0 1-.131.332.5.5 0 0 1-.346.117Zm-6.427 3.576a.6.6 0 0 1-.43.15.602.602 0 0 1-.43-.15.515.515 0 0 1-.158-.393.5.5 0 0 1 .159-.388.613.613 0 0 1 .43-.145c.174 0 .316.049.424.145.11.097.164.226.164.388a.515.515 0 0 1-.159.393ZM48.033 8.04a.439.439 0 0 1-.318-.117.415.415 0 0 1-.121-.313v-.355a1.466 1.466 0 0 1-.593.598 1.74 1.74 0 0 1-.846.206c-1.108 0-1.663-.611-1.663-1.832v-2.43c0-.143.043-.255.127-.336a.483.483 0 0 1 .35-.122.47.47 0 0 1 .34.122.445.445 0 0 1 .127.336v2.42c0 .368.075.64.224.814.15.174.38.261.692.261.367 0 .661-.118.882-.355.221-.237.332-.551.332-.944V3.798a.44.44 0 0 1 .13-.331.476.476 0 0 1 .346-.127.47.47 0 0 1 .341.122.446.446 0 0 1 .126.336v3.803a.414.414 0 0 1-.13.318.49.49 0 0 1-.346.122Zm-2.775 5.005c.206.137.309.296.309.477 0 .1-.03.184-.09.252a.268.268 0 0 1-.21.103.41.41 0 0 1-.167-.037 2.193 2.193 0 0 1-.224-.122 3.13 3.13 0 0 0-.472-.233 1.531 1.531 0 0 0-.547-.085c-.262 0-.472.057-.63.169a.531.531 0 0 0-.239.457c0 .175.074.31.22.407.146.097.422.189.827.276.417.087.744.186.98.299.237.112.407.25.51.416.102.165.154.375.154.63 0 .405-.17.73-.51.977-.339.246-.792.369-1.358.369-.636 0-1.156-.13-1.56-.392a.71.71 0 0 1-.239-.215.463.463 0 0 1-.07-.253c0-.1.028-.183.084-.252a.264.264 0 0 1 .215-.103c.081 0 .209.05.383.15.187.1.369.18.547.243.177.062.4.093.667.093.3 0 .533-.053.701-.159a.502.502 0 0 0 .252-.449.436.436 0 0 0-.098-.298c-.065-.075-.179-.142-.34-.201a5.827 5.827 0 0 0-.72-.192c-.548-.118-.942-.279-1.182-.481-.24-.202-.36-.478-.36-.827 0-.268.078-.51.234-.724.156-.215.37-.382.644-.5.275-.119.586-.178.935-.178.246 0 .491.033.729.098.223.06.434.156.625.285Zm-2.12-7.173h-2.886c.062.965.526 1.448 1.391 1.448.23 0 .43-.03.598-.093.183-.07.36-.15.533-.243.05-.03.101-.056.154-.08a.507.507 0 0 1 .21-.06c.087 0 .159.034.215.103a.4.4 0 0 1 .084.261c0 .181-.112.333-.336.458a2.947 2.947 0 0 1-.715.29c-.242.066-.492.1-.743.103-.722 0-1.292-.21-1.71-.631-.416-.42-.625-.996-.625-1.724 0-.468.092-.882.276-1.243.183-.362.442-.642.775-.841a2.17 2.17 0 0 1 1.135-.3c.61 0 1.093.197 1.448.59.355.392.532.921.532 1.588 0 .25-.112.374-.336.374Zm-.799-1.519c-.196-.227-.471-.34-.826-.34-.362 0-.651.114-.87.345-.217.23-.348.554-.392.972h2.41c-.018-.424-.126-.75-.322-.977Zm-5.086 13.047c-.635 0-1.156-.13-1.56-.392a.713.713 0 0 1-.238-.215.466.466 0 0 1-.07-.253c0-.1.028-.183.084-.252a.264.264 0 0 1 .215-.103c.08 0 .208.05.383.15.186.1.368.18.546.243.178.062.4.093.668.093.299 0 .532-.053.7-.159a.502.502 0 0 0 .253-.449.438.438 0 0 0-.098-.298c-.066-.075-.18-.142-.341-.201a5.82 5.82 0 0 0-.72-.192c-.548-.118-.942-.279-1.181-.481-.24-.202-.36-.478-.36-.827 0-.268.078-.51.234-.724.155-.215.37-.382.644-.5.274-.119.585-.178.934-.178.247 0 .492.033.729.098.223.06.435.156.626.285.205.137.308.296.308.477 0 .1-.03.184-.089.252a.27.27 0 0 1-.21.103.41.41 0 0 1-.168-.037 2.193 2.193 0 0 1-.224-.122 3.13 3.13 0 0 0-.472-.233 1.531 1.531 0 0 0-.546-.085c-.262 0-.472.057-.63.169a.531.531 0 0 0-.24.457c0 .175.074.31.22.407.147.097.422.189.827.276.417.087.744.186.98.299.237.112.407.25.51.416.103.165.154.375.154.63 0 .405-.17.73-.509.977-.34.246-.793.369-1.36.369Zm1.373-13.248-.28.029c-.392.037-.684.174-.874.41a1.33 1.33 0 0 0-.285.86v2.14c0 .15-.043.262-.13.337a.5.5 0 0 1-.337.112.516.516 0 0 1-.34-.112c-.09-.075-.136-.187-.136-.337V3.79c0-.143.045-.254.136-.332a.503.503 0 0 1 .34-.117c.125 0 .23.04.313.117a.418.418 0 0 1 .127.322v.45a1.37 1.37 0 0 1 .541-.627c.237-.143.505-.227.804-.252l.13-.01c.3-.018.449.11.449.383 0 .138-.035.24-.103.309-.069.068-.187.109-.355.121Zm-3.755 1.72h-2.887c.063.965.527 1.448 1.392 1.448.23 0 .43-.03.598-.093.183-.07.36-.15.533-.243.05-.03.1-.056.154-.08a.507.507 0 0 1 .21-.06c.087 0 .159.034.215.103a.4.4 0 0 1 .084.261c0 .181-.112.333-.337.458a2.945 2.945 0 0 1-.714.29c-.242.066-.492.1-.743.103-.722 0-1.292-.21-1.71-.631-.416-.42-.625-.996-.625-1.724 0-.468.092-.882.275-1.243.184-.362.442-.642.776-.841a2.17 2.17 0 0 1 1.135-.3c.61 0 1.093.197 1.448.59.355.392.532.921.532 1.588 0 .25-.112.374-.336.374Zm-.799-1.519c-.196-.227-.472-.34-.827-.34-.36 0-.65.114-.868.345-.218.23-.349.554-.393.972h2.41c-.018-.424-.126-.75-.322-.977Zm-2.195 8.767c.296.305.444.77.444 1.393v2.42a.44.44 0 0 1-.122.332.466.466 0 0 1-.336.116.442.442 0 0 1-.327-.121.442.442 0 0 1-.122-.327v-.346a1.318 1.318 0 0 1-.527.603c-.234.14-.506.21-.818.21a1.85 1.85 0 0 1-.822-.182 1.41 1.41 0 0 1-.584-.51 1.32 1.32 0 0 1-.21-.729c0-.33.086-.59.257-.78.171-.19.454-.325.85-.406.396-.081.939-.122 1.63-.122h.215v-.27c0-.35-.072-.602-.215-.758-.143-.155-.373-.233-.691-.233-.218 0-.424.028-.616.084a4.633 4.633 0 0 0-.636.243c-.168.093-.286.14-.355.14a.289.289 0 0 1-.229-.103.385.385 0 0 1-.088-.261c0-.094.026-.176.08-.248a.838.838 0 0 1 .256-.21c.218-.118.473-.214.766-.285.278-.07.563-.106.85-.108.604 0 1.054.153 1.35.458Zm-.64 2.084c-.486 0-.86.022-1.121.066-.262.043-.448.116-.56.219-.113.103-.169.25-.169.444 0 .224.081.408.243.551a.882.882 0 0 0 .607.215 1.1 1.1 0 0 0 .841-.35c.218-.234.327-.534.327-.902v-.243h-.168Zm-1.7-7.164a.472.472 0 0 1-.34-.122.433.433 0 0 1-.127-.327v-2.42c0-.374-.076-.648-.229-.822-.153-.175-.39-.262-.714-.262-.38 0-.686.118-.916.355-.23.237-.345.555-.345.953v2.196a.433.433 0 0 1-.127.327.472.472 0 0 1-.34.122.488.488 0 0 1-.346-.122.425.425 0 0 1-.131-.327V1.808c0-.137.045-.246.136-.327a.503.503 0 0 1 .35-.122.47.47 0 0 1 .331.117.406.406 0 0 1 .127.313v2.336c.147-.254.364-.461.625-.598.262-.137.56-.205.897-.205 1.084 0 1.626.613 1.626 1.84v2.43a.426.426 0 0 1-.131.327.49.49 0 0 1-.346.122Zm-5.497-.972c.121.137.306.215.556.234l.261.018c.137.013.235.049.294.108.06.06.09.141.09.247 0 .125-.05.22-.146.285-.096.066-.238.092-.425.08l-.252-.019c-.504-.037-.881-.191-1.13-.463-.25-.27-.374-.67-.374-1.2V4.163h-.56c-.275 0-.412-.122-.412-.365 0-.112.036-.2.108-.266a.434.434 0 0 1 .304-.098h.56V2.47c0-.143.042-.255.126-.336a.471.471 0 0 1 .341-.122.49.49 0 0 1 .346.122c.087.08.13.193.13.336v.963h.925c.131 0 .232.033.304.098a.343.343 0 0 1 .107.266c0 .119-.036.209-.107.271a.45.45 0 0 1-.304.094h-.924v2.261c0 .293.06.508.182.645Zm-2.742-1.196h-2.887c.063.965.527 1.448 1.392 1.448.23 0 .43-.03.598-.093.183-.07.36-.15.533-.243.05-.03.101-.056.154-.08a.507.507 0 0 1 .21-.06c.087 0 .159.034.215.103a.4.4 0 0 1 .084.261c0 .181-.112.333-.336.458a2.958 2.958 0 0 1-.715.29c-.242.066-.492.1-.743.103-.722 0-1.292-.21-1.71-.631-.416-.42-.625-.996-.625-1.724 0-.468.092-.882.276-1.243.183-.362.442-.642.775-.841.333-.2.711-.3 1.135-.3.61 0 1.093.197 1.448.59.355.392.532.921.532 1.588 0 .25-.112.374-.336.374Zm-.799-1.519c-.196-.227-.471-.34-.826-.34-.362 0-.651.114-.87.345-.217.23-.348.554-.392.972h2.41c-.018-.424-.126-.75-.322-.977Zm-1.947 8.608c.342-.199.734-.299 1.177-.299.236 0 .474.035.714.103.226.063.441.157.64.28.2.137.299.296.299.477a.42.42 0 0 1-.084.266.261.261 0 0 1-.215.108.373.373 0 0 1-.168-.042 2.405 2.405 0 0 1-.215-.127 2.587 2.587 0 0 0-.434-.228 1.307 1.307 0 0 0-.481-.08c-.424 0-.752.143-.986.43-.233.287-.35.685-.35 1.196 0 .511.115.905.345 1.182.23.278.558.416.981.416.187 0 .352-.028.495-.084.153-.061.3-.136.44-.224.068-.044.136-.081.205-.112a.452.452 0 0 1 .187-.047.26.26 0 0 1 .215.107c.056.072.084.16.084.267a.426.426 0 0 1-.07.238.832.832 0 0 1-.238.22c-.202.13-.422.228-.654.29a2.846 2.846 0 0 1-.757.102c-.442 0-.83-.096-1.163-.29a1.977 1.977 0 0 1-.775-.822c-.184-.355-.276-.766-.276-1.234 0-.473.095-.89.285-1.252a2.06 2.06 0 0 1 .799-.84Zm6.22-2.261c.138 0 .25.039.337.117.087.077.13.191.13.34v5.776c0 .15-.043.261-.13.336a.498.498 0 0 1-.336.112.518.518 0 0 1-.341-.112c-.09-.075-.136-.187-.136-.336v-5.775c0-.15.045-.264.136-.341a.503.503 0 0 1 .34-.117Zm24.484 1.98c.138 0 .25.04.337.118.087.078.13.191.13.34v3.795c0 .15-.043.261-.13.336a.498.498 0 0 1-.337.112.518.518 0 0 1-.34-.112c-.09-.075-.136-.187-.136-.336V13.14c0-.15.045-.263.135-.341a.505.505 0 0 1 .341-.117Z" fill="#333"/>
</svg>
