<svg viewBox="0 0 71 20" fill="none" xmlns="http://www.w3.org/2000/svg">
  <path fill-rule="evenodd" clip-rule="evenodd" d="M6 7.467 0 10.4 6 0v7.467Z" fill="#828083"/>
  <path fill-rule="evenodd" clip-rule="evenodd" d="m6 7.188-6 2.945 6 3.477V7.188Z" fill="#353336"/>
  <path fill-rule="evenodd" clip-rule="evenodd" d="m6 15.046-6-3.854L6 20v-4.954Z" fill="#848285"/>
  <path fill-rule="evenodd" clip-rule="evenodd" d="m6 7.467 6 2.933L6 0v7.467Z" fill="#2F2D30"/>
  <path fill-rule="evenodd" clip-rule="evenodd" d="m6 7.188 6 2.942-6 3.476V7.189Z" fill="#121212"/>
  <path fill-rule="evenodd" clip-rule="evenodd" d="m6 15.046 6-3.854L6 20v-4.954Z" fill="#302E31"/>
  <path fill-rule="evenodd" clip-rule="evenodd" d="M19.783 8.886a2.945 2.945 0 0 0 .008 3.904 2.578 2.578 0 0 0 4.056-.333.222.222 0 0 0-.192-.334.233.233 0 0 0-.193.11 2.16 2.16 0 0 1-1.847.93 1.933 1.933 0 0 1-1.445-.614 2.37 2.37 0 0 1-.675-1.467h4.48a.206.206 0 0 0 .24-.225 2.858 2.858 0 0 0-.744-1.962 2.455 2.455 0 0 0-3.688-.009Zm.387.251a1.995 1.995 0 0 1 2.89 0 2.4 2.4 0 0 1 .675 1.477h-4.24a2.4 2.4 0 0 1 .675-1.477Zm7.467-2.697a.224.224 0 1 0-.448 0v1.742h-1.152a.233.233 0 1 0 0 .467h1.152v4.673a.224.224 0 1 0 .448 0V8.65h1.2a.233.233 0 0 0 0-.467h-1.2V6.44Zm3.776 2.782V3.926a.224.224 0 1 0-.448 0v9.36a.224.224 0 1 0 .448 0v-2.328a2.613 2.613 0 0 1 .4-1.675 1.68 1.68 0 0 1 1.481-.749 1.409 1.409 0 0 1 1.195.606c.284.376.43.838.414 1.308v2.839a.224.224 0 0 0 .448 0v-2.849a2.511 2.511 0 0 0-.544-1.632 1.837 1.837 0 0 0-1.52-.733 2.031 2.031 0 0 0-1.872 1.152l-.002-.003Zm6.72-.333a2.944 2.944 0 0 0 .008 3.904 2.578 2.578 0 0 0 4.056-.333.221.221 0 0 0-.303-.303.234.234 0 0 0-.083.08 2.16 2.16 0 0 1-1.847.93 1.934 1.934 0 0 1-1.445-.615 2.365 2.365 0 0 1-.674-1.467h4.479a.204.204 0 0 0 .177-.053.206.206 0 0 0 .064-.172 2.858 2.858 0 0 0-.744-1.963 2.456 2.456 0 0 0-3.688-.01v.002Zm.386.251a1.996 1.996 0 0 1 2.891 0 2.4 2.4 0 0 1 .675 1.477h-4.24c.046-.557.285-1.08.677-1.48l-.003.003Zm7.406-.592a2.69 2.69 0 0 0-.784.837V8.4a.224.224 0 1 0-.448 0v4.867a.224.224 0 0 0 .448 0v-2.133a2.765 2.765 0 0 1 .466-1.643 1.967 1.967 0 0 1 1.44-.862.22.22 0 0 0 .208-.239.199.199 0 0 0-.149-.205.2.2 0 0 0-.09-.002c-.392.009-.77.135-1.089.363l-.002.002Zm3.44.34a2.944 2.944 0 0 0 .008 3.905 2.578 2.578 0 0 0 4.056-.333.221.221 0 0 0-.303-.303.235.235 0 0 0-.083.08 2.159 2.159 0 0 1-1.847.93 1.934 1.934 0 0 1-1.445-.615 2.365 2.365 0 0 1-.674-1.467h4.479a.204.204 0 0 0 .177-.053.206.206 0 0 0 .064-.172 2.858 2.858 0 0 0-.744-1.963 2.456 2.456 0 0 0-3.686-.01l-.002.002Zm.386.252a1.996 1.996 0 0 1 2.891 0 2.4 2.4 0 0 1 .675 1.477h-4.24c.046-.557.285-1.08.677-1.48l-.003.003Zm10.03-.733v1.824c0 1.973-.62 2.96-1.857 2.96a1.43 1.43 0 0 1-1.215-.608 2.105 2.105 0 0 1-.4-1.312V8.404a.223.223 0 0 0-.31-.207.225.225 0 0 0-.138.207v2.872a2.52 2.52 0 0 0 .544 1.637 1.83 1.83 0 0 0 1.52.738 1.988 1.988 0 0 0 1.856-1.267v.928a.224.224 0 1 0 .448 0V8.407a.224.224 0 0 0-.448 0Zm6.863 1.088A1.867 1.867 0 0 0 64.74 8.07a2.035 2.035 0 0 0-1.872 1.133V8.4a.224.224 0 1 0-.448 0v4.887a.224.224 0 0 0 .448 0V11.02a3.047 3.047 0 0 1 .4-1.786 1.685 1.685 0 0 1 1.472-.702 1.431 1.431 0 0 1 1.2.59c.285.375.432.837.416 1.308v2.857a.224.224 0 0 0 .448 0v-2.2a3.346 3.346 0 0 1 .416-1.707 1.6 1.6 0 0 1 1.44-.845 1.404 1.404 0 0 1 1.2.59c.285.375.432.837.416 1.308v2.854a.224.224 0 0 0 .448 0V10.42a2.56 2.56 0 0 0-.56-1.656 1.83 1.83 0 0 0-1.504-.696 2.095 2.095 0 0 0-2.016 1.424v.003Z" fill="#1B1635"/>
</svg>
