<svg viewBox="0 0 85 20" fill="none" xmlns="http://www.w3.org/2000/svg">
  <g clip-path="url(#gnosis_svg__a)">
    <path d="M2.634 9.03c0-.485.159-.925.434-1.274l2.916 2.915a2.067 2.067 0 0 1-1.274.434A2.07 2.07 0 0 1 2.634 9.03Zm8.673 2.069a2.07 2.07 0 0 0 2.077-2.076c0-.478-.16-.918-.435-1.274l-2.916 2.915c.35.275.79.435 1.274.435Zm2.254-3.95a2.94 2.94 0 0 1-4.14 4.139l-1.415 1.414-1.415-1.414a2.94 2.94 0 0 1-4.14-4.139l-.663-.66-.63-.631A7.997 7.997 0 0 0 8 18c4.416 0 8-3.582 8-7.997a7.805 7.805 0 0 0-1.146-4.145L13.56 7.149ZM8 11.48 1.653 5.134a9.34 9.34 0 0 1 .564-.655A7.986 7.986 0 0 1 8.006 2c2.278 0 4.336.955 5.788 2.48.202.202.393.428.552.649L8 11.479Zm-4.913-6.4 4.918 4.917 4.918-4.917a6.856 6.856 0 0 0-4.918-2.039A6.868 6.868 0 0 0 3.087 5.08Zm14.685 4.926v.018c0 4.405 3.574 7.975 7.982 7.975h3.373V15.93h-3.32a5.917 5.917 0 0 1-5.917-6.044c.069-3.233 2.79-5.784 6.026-5.784h3.21V2.053h-3.395c-4.395 0-7.959 3.561-7.959 7.953ZM60.19 2.053h8.57V18h-8.57V2.053Zm1.517 4.804a2.769 2.769 0 1 0 5.537 0 2.769 2.769 0 0 0-5.537 0Zm-20.953.542a1.5 1.5 0 0 1-.467 1.116 1.53 1.53 0 0 1-1.106.456h-4.742c-.441 0-.814-.151-1.117-.456a1.515 1.515 0 0 1-.456-1.116V2.053h-2.052V18h2.052v-5.451c0-.44.152-.813.456-1.116a1.52 1.52 0 0 1 1.117-.456h4.742c.425 0 .794.152 1.106.456a1.5 1.5 0 0 1 .467 1.116V18h2.03V2.053h-2.03V7.4Zm37.132-5.346h-7.44V18h2.052V9.475a5.375 5.375 0 0 1 5.377-5.373 5.375 5.375 0 0 1 5.377 5.373v8.524h2.034V9.45a7.397 7.397 0 0 0-7.4-7.396Zm-25.207.848L59.444 18h-15.9l6.834-15.098c.27-.6.654-.901 1.15-.901.496 0 .88.3 1.15.901Zm-1.15 6.942a2.769 2.769 0 1 0 0 5.537 2.769 2.769 0 0 0 0-5.537Z" fill="#133629"/>
  </g>
  <defs>
    <clipPath id="gnosis_svg__a">
      <path fill="#fff" d="M0 0h85v20H0z"/>
    </clipPath>
  </defs>
</svg>
