<svg viewBox="0 0 61 24" fill="none" xmlns="http://www.w3.org/2000/svg">
  <g clip-path="url(#li-fi_svg__a)" fill="#000">
    <path d="M7.587 16.27.475 17.918a.624.624 0 0 0-.454.585v4.896c0 .412.325.672.735.585l9.923-2.296c.41-.087.583-.477.41-.845l-1.794-3.704c-.28-.585 0-1.192.627-1.322l6.485-1.56c.454-.108.843-.585.843-1.061V8.667c0-.412-.324-.693-.735-.585l-9.36 2.231c-.584.13-.843.694-.584 1.235l1.643 3.402c.281.584 0 1.17-.627 1.32Z"/>
    <path d="m2.897 4.031 1.859 3.813c.238.498 0 1.018-.54 1.126l-3.438.802c-.432.108-.778.541-.778.975v4.094c0 .694.562 1.127 1.232.975l3.2-.737c.432-.086.778-.541.778-.974l.022-4.203c0-.585.475-1.17 1.037-1.3L16.753 6.09a.624.624 0 0 0 .454-.585V.608c0-.411-.324-.693-.735-.585L3.308 3.186c-.411.087-.584.477-.411.845Zm32.105 11.398h-5.988V6H26.25v12h8.752v-2.571ZM36.804 18h2.764V6h-2.764v12Zm4.828 0h2.627v-2.64h-2.627V18Zm7.448-4.68h5.783v-2.366H49.08v-2.52h6.278V6h-9.042v12h2.764v-4.68ZM57.237 18H60V6h-2.764v12Z"/>
  </g>
  <defs>
    <clipPath id="li-fi_svg__a">
      <path fill="#fff" d="M0 0h60.188v24H0z"/>
    </clipPath>
  </defs>
</svg>
