<svg viewBox="0 0 86 24" fill="none" xmlns="http://www.w3.org/2000/svg">
  <g clip-path="url(#lukso_svg__a)">
    <path d="m35.707 13.839 5.802 7.731h4.412l-7.026-9.207c-.382-.51-.545-.887-.545-1.262 0-.376.245-.725.707-1.235l6.728-7.49h-4.44l-5.719 6.39c-.871.992-1.28 1.69-1.28 2.362 0 .859.49 1.556 1.361 2.71Zm30.642-1.826C66.349 6.43 70.299 2 76.18 2c5.883 0 9.97 4.188 9.97 10.013s-4.195 9.933-9.942 9.933c-6.155 0-9.86-4.24-9.86-9.933Zm15.987-.026c0-3.92-2.423-6.82-6.128-6.82-3.704 0-6.047 2.847-6.047 6.82 0 3.973 2.506 6.845 6.047 6.845 3.732 0 6.129-2.953 6.129-6.845ZM55.645 21.57h-6.89v-3.167h7.571c2.179 0 3.296-.564 3.296-2.067 0-1.343-.872-1.772-3.241-2.417l-2.26-.617c-4.222-1.155-5.639-2.497-5.639-5.665s1.907-5.261 6.51-5.261h6.89v3.221h-6.945c-1.933 0-2.887.43-2.887 1.799 0 1.288.871 1.905 3.105 2.469l2.342.59c3.922.994 5.774 2.39 5.774 5.504 0 3.597-2.015 5.61-7.626 5.61v.002ZM21.68 22c-4.984 0-7.98-2.63-7.98-7.785V2.403h3.649v11.596c0 2.792.9 4.832 4.33 4.832 3.432 0 4.332-1.905 4.332-4.859V2.376h3.65v11.812c0 5.101-2.996 7.812-7.981 7.812ZM3.677 2.403H0v15.516c0 2.577 1.09 3.651 3.296 3.651h7.109v-3.14H5.066c-1.062 0-1.388-.322-1.388-1.342V2.403h-.001Z" fill="#383838"/>
  </g>
  <defs>
    <clipPath id="lukso_svg__a">
      <path fill="#fff" d="M0 0h86v24H0z"/>
    </clipPath>
  </defs>
</svg>
