<svg viewBox="0 0 120 24" fill="none" xmlns="http://www.w3.org/2000/svg">
  <g clip-path="url(#optimism_svg__a)" fill="#FF0420">
    <path d="M6.06 20c-1.781 0-3.24-.415-4.377-1.244C.561 17.91 0 16.71 0 15.156c0-.326.037-.726.112-1.2.195-1.067.471-2.349.83-3.845C1.96 6.037 4.587 4 8.82 4c1.152 0 2.184.193 3.097.578.912.37 1.63.933 2.154 1.689.524.74.785 1.63.785 2.666a7.8 7.8 0 0 1-.112 1.178 49.898 49.898 0 0 1-.808 3.845c-.523 2.03-1.428 3.548-2.715 4.555C9.934 19.504 8.214 20 6.059 20Zm.313-3.2c.838 0 1.549-.245 2.132-.733.599-.49 1.025-1.237 1.28-2.245a53.62 53.62 0 0 0 .785-3.644c.06-.311.09-.63.09-.956 0-1.348-.71-2.022-2.132-2.022-.838 0-1.556.244-2.155.733-.583.49-1.002 1.237-1.256 2.245-.27.992-.539 2.207-.808 3.644-.06.296-.09.608-.09.934 0 1.363.718 2.044 2.154 2.044Zm10.761 2.978a.477.477 0 0 1-.382-.156.527.527 0 0 1-.067-.4l3.097-14.444a.635.635 0 0 1 .247-.4.688.688 0 0 1 .426-.156h5.97c1.66 0 2.992.341 3.994 1.022 1.017.682 1.526 1.667 1.526 2.956 0 .37-.045.756-.135 1.156-.374 1.703-1.13 2.963-2.266 3.777-1.122.815-2.663 1.223-4.623 1.223h-3.03l-1.032 4.866a.635.635 0 0 1-.247.4.688.688 0 0 1-.426.156h-3.052Zm7.944-8.49c.628 0 1.174-.17 1.638-.51.479-.341.793-.83.943-1.467.045-.252.067-.474.067-.667 0-.43-.127-.755-.381-.977-.255-.237-.689-.356-1.302-.356H23.35l-.853 3.978h2.58Zm11.924 8.49a.478.478 0 0 1-.382-.156.478.478 0 0 1-.09-.4l2.491-11.51h-3.994a.477.477 0 0 1-.382-.156.527.527 0 0 1-.067-.4l.516-2.378a.635.635 0 0 1 .247-.4.688.688 0 0 1 .426-.156h12.074c.164 0 .291.052.381.156.06.089.09.178.09.266a.415.415 0 0 1-.022.134l-.517 2.378a.635.635 0 0 1-.246.4.63.63 0 0 1-.427.155h-3.972l-2.491 11.511a.635.635 0 0 1-.247.4.688.688 0 0 1-.426.156h-2.962Zm11.883 0a.477.477 0 0 1-.382-.156.476.476 0 0 1-.09-.4l3.12-14.444a.635.635 0 0 1 .247-.4.688.688 0 0 1 .426-.156h3.03c.164 0 .291.052.381.156.06.089.09.178.09.266a.415.415 0 0 1-.023.134l-3.096 14.444a.635.635 0 0 1-.247.4.688.688 0 0 1-.427.156h-3.03Zm8.545 0a.478.478 0 0 1-.382-.156c-.09-.104-.12-.237-.09-.4l3.097-14.444a.635.635 0 0 1 .247-.4.719.719 0 0 1 .45-.156h2.423c.359 0 .59.163.696.49l2.446 7 5.453-7c.075-.12.18-.23.314-.334a.922.922 0 0 1 .539-.156h2.446c.165 0 .292.052.381.156.06.089.09.178.09.266a.417.417 0 0 1-.022.134L72.42 19.222a.635.635 0 0 1-.247.4.688.688 0 0 1-.427.156h-2.715a.477.477 0 0 1-.381-.156.527.527 0 0 1-.068-.4l1.75-8.2-3.433 4.511a2.37 2.37 0 0 1-.426.378.836.836 0 0 1-.472.133h-1.166c-.315 0-.532-.17-.651-.51l-1.594-4.712-1.795 8.4a.635.635 0 0 1-.247.4.688.688 0 0 1-.426.156H57.43Zm19.809 0a.477.477 0 0 1-.382-.156.476.476 0 0 1-.09-.4l3.12-14.444a.635.635 0 0 1 .246-.4.688.688 0 0 1 .427-.156h3.03c.164 0 .291.052.381.156.06.089.09.178.09.266a.41.41 0 0 1-.023.134l-3.096 14.444a.632.632 0 0 1-.248.4.688.688 0 0 1-.426.156h-3.03ZM91.327 20c-1.317 0-2.446-.178-3.389-.533-.928-.356-1.63-.83-2.11-1.422a3.13 3.13 0 0 1-.695-1.978c0-.119.015-.297.045-.534a.667.667 0 0 1 .18-.333.539.539 0 0 1 .359-.133h2.872c.18 0 .314.03.404.088.105.06.21.164.314.312.105.385.344.703.719.955.388.252.92.378 1.592.378.853 0 1.542-.133 2.065-.4.524-.267.839-.63.943-1.089a1.16 1.16 0 0 0 .022-.267c0-.37-.231-.659-.695-.866-.464-.223-1.317-.482-2.559-.778-1.45-.311-2.55-.778-3.299-1.4-.748-.637-1.121-1.467-1.121-2.489 0-.355.044-.718.134-1.089.3-1.378 1.04-2.459 2.222-3.244C90.526 4.393 92.067 4 93.953 4c1.137 0 2.147.2 3.03.6.882.4 1.563.911 2.042 1.533.493.608.74 1.215.74 1.823 0 .177-.007.303-.023.377a.595.595 0 0 1-.201.334.46.46 0 0 1-.337.133h-3.007c-.329 0-.554-.126-.673-.378-.015-.34-.195-.63-.54-.866-.343-.237-.792-.356-1.346-.356-.658 0-1.204.119-1.638.356a1.55 1.55 0 0 0-.785 1.044c-.015.074-.023.17-.023.289 0 .355.21.652.629.889.433.222 1.19.452 2.266.689 1.676.326 2.895.792 3.659 1.4.777.607 1.166 1.414 1.166 2.422 0 .34-.045.711-.134 1.111-.33 1.511-1.13 2.66-2.402 3.444-1.256.77-2.94 1.156-5.049 1.156Zm10.563-.222a.478.478 0 0 1-.382-.156c-.09-.104-.12-.237-.09-.4l3.097-14.444a.634.634 0 0 1 .247-.4.718.718 0 0 1 .449-.156h2.423c.36 0 .592.163.696.49l2.447 7 5.453-7c.075-.12.18-.23.314-.334a.922.922 0 0 1 .538-.156h2.447c.165 0 .292.052.381.156.06.089.09.178.09.266a.414.414 0 0 1-.022.134l-3.097 14.444a.642.642 0 0 1-.247.4.69.69 0 0 1-.427.156h-2.715a.478.478 0 0 1-.382-.156.526.526 0 0 1-.067-.4l1.751-8.2-3.434 4.511a2.37 2.37 0 0 1-.426.378.838.838 0 0 1-.472.133h-1.167c-.314 0-.531-.17-.65-.51l-1.594-4.712-1.795 8.4a.638.638 0 0 1-.247.4.69.69 0 0 1-.427.156h-2.692Z"/>
  </g>
  <defs>
    <clipPath id="optimism_svg__a">
      <path fill="#fff" transform="translate(0 4)" d="M0 0h120v16H0z"/>
    </clipPath>
  </defs>
</svg>
