<svg viewBox="0 0 67 20" fill="none" xmlns="http://www.w3.org/2000/svg">
  <g clip-path="url(#poa_svg__a)">
    <path opacity=".8" fill-rule="evenodd" clip-rule="evenodd" d="M10.316 15.436h-.938v2.658h-.003l.003.015c0 .492-.42.89-.939.89H.937C.42 19 0 18.602 0 18.11l.003-.015H0V1.932h.003L0 1.917c0-.492.42-.891.937-.891h9.379c4.143 0 7.5 3.226 7.5 7.205 0 3.98-3.357 7.205-7.5 7.205ZM29.07 1.026c5.18 0 9.377 4.024 9.377 8.988 0 4.963-4.198 8.986-9.377 8.986-5.178 0-9.377-4.023-9.377-8.986 0-4.964 4.198-8.988 9.377-8.988ZM60.016 18.43c0 .307-.26.556-.58.556H38.161c-.025.003-.047.014-.073.014a.569.569 0 0 1-.578-.562c0-.123.048-.23.116-.322l-.009-.018L48.178 1.444h.023A.566.566 0 0 1 48.758 1c.28 0 .502.192.557.444h.024L60.016 18.21l-.037.048a.51.51 0 0 1 .037.173Z" fill="#5C34A2"/>
  </g>
  <defs>
    <clipPath id="poa_svg__a">
      <path fill="#fff" d="M0 0h66.667v20H0z"/>
    </clipPath>
  </defs>
</svg>
