<svg viewBox="0 0 43 20" fill="none" xmlns="http://www.w3.org/2000/svg">
  <path fill-rule="evenodd" clip-rule="evenodd" d="M42.493 14.318h-2.018l-2.002-3.523-1.066.117v3.406h-1.788V2.498h1.788v6.828l1.018-.1L40.36 5.97h2.002l-2.363 3.907 2.494 4.441ZM31.378 9.351c.913.161 1.562.415 1.944.76.383.345.575.957.575 1.836 0 .88-.277 1.525-.829 1.937-.552.412-1.359.617-2.42.617-.667 0-1.509-.094-2.526-.284l-.509-.083.066-1.519c1.313.178 2.258.267 2.838.267.58 0 .992-.072 1.239-.217.245-.144.368-.384.368-.718 0-.333-.117-.564-.352-.692-.235-.129-.798-.268-1.69-.418-.892-.15-1.544-.386-1.96-.71-.416-.322-.623-.912-.623-1.77 0-.856.287-1.496.86-1.92.575-.423 1.31-.634 2.207-.634.7 0 1.558.09 2.576.268l.508.1-.032 1.519c-1.291-.178-2.226-.268-2.806-.268-.58 0-.982.07-1.206.21-.224.139-.336.359-.336.659 0 .3.123.512.37.634.245.123.825.264 1.738.426Zm-7.587-.86v5.827h-1.788V5.97h1.771v1.002c.93-.612 1.86-1.008 2.79-1.186v1.82c-.942.19-1.745.434-2.412.735l-.361.15ZM18 13.959c0 1.111-.885 2.013-1.977 2.013a1.95 1.95 0 0 1-1.374-.569l-3.716 2.179c.026.131.044.265.044.404C10.977 19.099 10.092 20 9 20s-1.977-.901-1.977-2.014c0-.142.019-.277.046-.41l-3.717-2.174a1.95 1.95 0 0 1-1.374.57C.885 15.972 0 15.07 0 13.959a2.002 2.002 0 0 1 1.438-1.929V7.97A2.002 2.002 0 0 1 0 6.042C0 4.93.885 4.027 1.978 4.027a1.95 1.95 0 0 1 1.471.68L7.11 2.55a2.05 2.05 0 0 1-.079-.534C7.031.901 7.913 0 9 0c1.088 0 1.969.902 1.969 2.015 0 .158-.022.31-.055.456l3.69 2.171a1.953 1.953 0 0 1 1.419-.614c1.092 0 1.977.902 1.977 2.014a2.002 2.002 0 0 1-1.438 1.928v4.06A2.002 2.002 0 0 1 18 13.959Zm-3.89.483a2.028 2.028 0 0 1-.064-.483c0-.138.014-.272.039-.402l-3.372-1.972c-.342.605-.806 1.141-1.166 1.51v2.965c.339.1.638.292.876.544l3.687-2.162ZM9 9.937c.302 0 .547.245.547.548v1.261c.38-.432.816-1.063.816-1.677C10.364 8.986 9 7.848 9 7.848s-1.363 1.14-1.363 2.222c0 .614.437 1.245.816 1.677v-1.261c0-.303.245-.547.547-.547Zm0 8.952c.49 0 .887-.404.887-.903A.895.895 0 0 0 9 17.084a.895.895 0 0 0-.886.902c0 .498.397.903.886.903Zm-1.421-2.288c.239-.254.54-.44.874-.541v-2.965c-.348-.357-.795-.87-1.135-1.451l-3.395 1.991c.017.106.032.213.032.324 0 .168-.026.329-.065.485L7.579 16.6Zm-6.488-2.642c0 .498.397.902.887.902a.894.894 0 0 0 .886-.902.894.894 0 0 0-.886-.903.894.894 0 0 0-.887.903Zm.887-8.82a.894.894 0 0 0-.887.902c0 .5.397.903.887.903a.894.894 0 0 0 .886-.902.894.894 0 0 0-.886-.903Zm1.374 2.346a1.96 1.96 0 0 1-.82.48v4.072c.36.11.68.314.923.595l3.436-2.014a2.37 2.37 0 0 1-.073-.549 2.3 2.3 0 0 1 .067-.518L3.352 7.485ZM7.68 3.502 3.923 5.718c.017.106.032.214.032.325 0 .168-.026.329-.065.485l3.413 1.996c.342-.593.796-1.114 1.15-1.478V3.942a1.976 1.976 0 0 1-.773-.44ZM9 .973a.895.895 0 0 0-.886.903c0 .498.397.903.886.903.49 0 .887-.405.887-.903A.895.895 0 0 0 9 .972Zm5.09 4.65-3.703-2.177c-.23.235-.52.402-.84.498v3.102c.355.364.81.886 1.151 1.48l3.412-2a2.032 2.032 0 0 1-.064-.484c0-.144.016-.283.043-.419Zm.559 1.864-3.532 2.071c.038.17.065.342.065.512 0 .161-.024.322-.059.483l3.466 2.027c.24-.256.543-.443.88-.543V7.965a1.972 1.972 0 0 1-.82-.479Zm2.26-1.444a.894.894 0 0 0-.886-.903.875.875 0 0 0-.682.332l-.147.26a.894.894 0 0 0 .829 1.213c.49 0 .886-.404.886-.903Zm-.886 7.014a.894.894 0 0 0-.886.903c0 .498.396.902.886.902s.886-.404.886-.902a.894.894 0 0 0-.886-.903Z" fill="#27AA8B"/>
</svg>
