<svg viewBox="0 0 80 24" fill="none" xmlns="http://www.w3.org/2000/svg">
  <path d="M6.023 18.135c-.608 0-1.23-.051-1.867-.152a12.049 12.049 0 0 1-1.803-.391 7.28 7.28 0 0 1-1.52-.652c-.318-.173-.543-.398-.673-.673a1.68 1.68 0 0 1-.152-.868c.043-.29.152-.543.326-.76.188-.232.42-.377.695-.435.29-.072.608-.022.955.152.594.333 1.238.58 1.933.739.71.159 1.411.238 2.106.238 1.057 0 1.81-.159 2.259-.477.448-.333.673-.746.673-1.238 0-.42-.16-.753-.478-1-.319-.245-.876-.455-1.672-.629l-2.454-.521c-1.39-.29-2.425-.782-3.105-1.477-.666-.71-1-1.636-1-2.78 0-.723.153-1.382.457-1.975a4.656 4.656 0 0 1 1.281-1.542 5.934 5.934 0 0 1 1.954-1 8.685 8.685 0 0 1 2.52-.347c.81 0 1.606.102 2.388.304.782.189 1.47.471 2.063.847.29.174.485.398.586.674.116.26.152.528.109.803-.029.26-.137.492-.326.695a1.18 1.18 0 0 1-.673.39c-.275.059-.608-.006-.999-.195a6.135 6.135 0 0 0-1.52-.543 7.788 7.788 0 0 0-1.65-.173c-.608 0-1.13.08-1.564.239-.42.159-.745.383-.977.673a1.62 1.62 0 0 0-.326.999c0 .42.152.76.456 1.02.304.26.833.47 1.585.63l2.454.521c1.42.304 2.476.796 3.17 1.477.696.666 1.043 1.549 1.043 2.65 0 .723-.145 1.382-.434 1.975-.29.58-.71 1.079-1.26 1.499-.55.42-1.208.745-1.976.977-.767.217-1.628.326-2.584.326ZM15.83 18.091c-.535 0-.948-.145-1.237-.434-.275-.29-.413-.702-.413-1.238V4.063c0-.55.138-.963.413-1.238.29-.29.702-.434 1.237-.434.522 0 .92.145 1.195.434.29.275.434.688.434 1.238v5.168h-.304a3.591 3.591 0 0 1 1.477-1.628c.666-.391 1.418-.587 2.258-.587.854 0 1.556.167 2.107.5.55.318.962.81 1.237 1.476.275.652.413 1.484.413 2.498v4.93c0 .535-.145.947-.434 1.237-.276.29-.68.434-1.216.434-.522 0-.927-.145-1.217-.434-.275-.29-.412-.702-.412-1.238v-4.777c0-.739-.138-1.267-.413-1.585-.26-.334-.666-.5-1.216-.5-.695 0-1.252.217-1.672.652-.405.434-.608 1.013-.608 1.737v4.473c0 1.115-.543 1.672-1.629 1.672ZM28.745 18.07c-.536 0-.948-.152-1.238-.457-.275-.318-.412-.76-.412-1.324V8.862c0-.579.137-1.02.412-1.325.29-.318.702-.477 1.238-.477.521 0 .92.159 1.194.477.29.304.435.746.435 1.325v7.427c0 .564-.138 1.006-.413 1.324-.275.305-.68.457-1.216.457Zm0-12.791c-.608 0-1.078-.137-1.411-.413-.319-.29-.478-.694-.478-1.216 0-.535.16-.94.478-1.216.333-.29.803-.434 1.411-.434s1.072.145 1.39.434c.318.275.478.68.478 1.216 0 .522-.16.927-.478 1.216-.319.276-.782.413-1.39.413ZM39.485 18.135c-.854 0-1.614-.21-2.28-.63-.651-.434-1.086-1.006-1.303-1.716l.239-.716v1.346c0 .536-.137.948-.413 1.238-.275.29-.673.434-1.194.434-.521 0-.926-.145-1.216-.434-.275-.29-.413-.702-.413-1.238V4.063c0-.55.138-.963.413-1.238.29-.29.702-.434 1.238-.434.52 0 .92.145 1.194.434.29.275.434.688.434 1.238V9.21h-.26c.232-.652.673-1.18 1.325-1.586.651-.405 1.396-.608 2.236-.608.941 0 1.76.225 2.454.673.695.45 1.238 1.086 1.629 1.911.39.826.586 1.81.586 2.954 0 1.143-.195 2.135-.586 2.975-.391.84-.941 1.484-1.65 1.933-.696.448-1.506.673-2.433.673Zm-.977-2.454a2.14 2.14 0 0 0 1.216-.348c.362-.231.637-.572.825-1.02.203-.464.304-1.05.304-1.76 0-1.056-.217-1.83-.651-2.323-.434-.507-1-.76-1.694-.76-.463 0-.876.109-1.238.326-.347.217-.622.557-.825 1.02-.203.45-.304 1.028-.304 1.738 0 1.057.217 1.846.651 2.367.435.506 1.007.76 1.716.76ZM50.09 18.135c-.898 0-1.643-.167-2.237-.5-.593-.333-1.035-.832-1.324-1.498-.275-.68-.413-1.52-.413-2.52V8.71c0-.55.138-.963.413-1.238.29-.275.695-.412 1.216-.412.52 0 .926.137 1.216.412.29.275.434.688.434 1.238v4.995c0 .637.13 1.114.391 1.433.26.304.673.456 1.238.456.622 0 1.129-.217 1.52-.651.405-.45.608-1.036.608-1.76V8.71c0-.55.137-.963.413-1.238.289-.275.694-.412 1.216-.412.535 0 .94.137 1.216.412.29.275.434.688.434 1.238v7.71c0 1.114-.528 1.671-1.585 1.671-.521 0-.92-.145-1.195-.434-.275-.29-.412-.702-.412-1.238v-1.455l.326.847c-.319.738-.775 1.31-1.369 1.716-.593.405-1.295.608-2.106.608ZM61.878 22c-.376 0-.688-.101-.934-.304a1.202 1.202 0 0 1-.434-.804c-.043-.318.015-.658.174-1.02l1.455-3.214v1.346l-3.844-8.816c-.145-.377-.195-.724-.152-1.043.058-.332.217-.593.478-.781.275-.203.651-.304 1.129-.304.39 0 .702.094.934.282.246.174.47.514.673 1.02l2.562 6.515h-.694l2.649-6.536c.203-.492.427-.825.673-.999.26-.188.608-.282 1.042-.282.377 0 .674.101.89.304.232.188.37.441.413.76.058.318 0 .666-.173 1.042l-5.104 11.575c-.217.492-.463.825-.738.998-.26.174-.594.261-.999.261ZM73.94 18.135c-.782 0-1.484-.152-2.107-.456-.622-.304-1.107-.717-1.455-1.238a3.1 3.1 0 0 1-.52-1.76c0-.78.202-1.396.607-1.845.406-.463 1.064-.789 1.976-.977.912-.203 2.121-.304 3.627-.304h1.15v1.694H76.09c-.739 0-1.34.043-1.803.13-.449.072-.774.203-.977.39-.188.189-.282.45-.282.783 0 .405.137.738.412.998.29.261.702.391 1.238.391.42 0 .79-.094 1.108-.282.333-.203.593-.47.781-.803.189-.348.283-.739.283-1.173v-2.497c0-.637-.145-1.086-.435-1.347-.29-.275-.781-.412-1.476-.412-.391 0-.818.05-1.281.152a8.579 8.579 0 0 0-1.499.456c-.318.145-.6.18-.847.108a1.071 1.071 0 0 1-.564-.434 1.328 1.328 0 0 1-.196-.695c0-.26.072-.507.217-.738.145-.246.384-.427.717-.543a9.323 9.323 0 0 1 1.91-.565 10.234 10.234 0 0 1 1.673-.152c1.115 0 2.027.167 2.736.5a3.288 3.288 0 0 1 1.629 1.498c.362.666.543 1.527.543 2.584v4.821c0 .536-.13.948-.391 1.238-.26.29-.637.434-1.13.434-.492 0-.875-.145-1.15-.434-.26-.29-.391-.702-.391-1.238v-.803l.152.13a2.79 2.79 0 0 1-1.629 2.106c-.434.189-.934.283-1.498.283Z" fill="#222239"/>
</svg>
