<svg viewBox="0 0 53 19" fill="none" xmlns="http://www.w3.org/2000/svg">
  <path d="M4.522 14.154c-.392 0-.793-.033-1.204-.098a7.78 7.78 0 0 1-1.162-.252 4.695 4.695 0 0 1-.98-.42.974.974 0 0 1-.434-.434 1.084 1.084 0 0 1-.098-.56c.028-.187.098-.35.21-.49a.77.77 0 0 1 .448-.28c.187-.047.392-.014.616.098.383.215.798.373 1.246.476.457.103.91.154 1.358.154.681 0 1.167-.103 1.456-.308.29-.215.434-.48.434-.798a.771.771 0 0 0-.308-.644c-.205-.159-.565-.294-1.078-.406l-1.582-.336c-.896-.187-1.563-.504-2.002-.952-.43-.457-.644-1.055-.644-1.792 0-.467.098-.891.294-1.274.196-.383.471-.714.826-.994s.775-.495 1.26-.644a5.6 5.6 0 0 1 1.624-.224c.523 0 1.036.065 1.54.196.504.121.947.303 1.33.546a.845.845 0 0 1 .378.434.9.9 0 0 1 .07.518.77.77 0 0 1-.21.448.76.76 0 0 1-.434.252c-.177.037-.392-.005-.644-.126a3.955 3.955 0 0 0-.98-.35 5.02 5.02 0 0 0-1.064-.112c-.392 0-.728.051-1.008.154-.27.103-.48.247-.63.434-.14.187-.21.401-.21.644 0 .27.098.49.294.658.196.168.537.303 1.022.406l1.582.336c.915.196 1.596.513 2.044.952.448.43.672.999.672 1.708 0 .467-.093.891-.28 1.274a2.763 2.763 0 0 1-.812.966c-.355.27-.78.48-1.274.63-.495.14-1.05.21-1.666.21Zm6.323-.028c-.346 0-.612-.093-.798-.28-.178-.187-.266-.453-.266-.798V5.082c0-.355.088-.62.266-.798.186-.187.452-.28.798-.28.336 0 .592.093.77.28.186.177.28.443.28.798v3.332h-.196c.214-.457.532-.807.952-1.05.43-.252.914-.378 1.456-.378.55 0 1.003.107 1.358.322.354.205.62.523.798.952.177.42.266.957.266 1.61v3.178c0 .345-.094.611-.28.798-.178.187-.439.28-.784.28-.336 0-.598-.093-.784-.28-.178-.187-.266-.453-.266-.798v-3.08c0-.476-.089-.817-.266-1.022-.168-.215-.43-.322-.784-.322-.448 0-.808.14-1.078.42-.262.28-.392.653-.392 1.12v2.884c0 .719-.35 1.078-1.05 1.078Zm8.326-.014c-.345 0-.611-.098-.798-.294-.177-.205-.266-.49-.266-.854V8.176c0-.373.089-.658.266-.854.187-.205.453-.308.798-.308.336 0 .593.103.77.308.187.196.28.48.28.854v4.788c0 .364-.089.649-.266.854-.177.196-.439.294-.784.294Zm0-8.246c-.392 0-.695-.089-.91-.266-.205-.187-.308-.448-.308-.784 0-.345.103-.607.308-.784.215-.187.518-.28.91-.28s.69.093.896.28c.205.177.308.439.308.784 0 .336-.103.597-.308.784-.205.177-.504.266-.896.266Zm6.924 8.288c-.55 0-1.04-.135-1.47-.406a2.01 2.01 0 0 1-.84-1.106l.154-.462v.868c0 .345-.089.611-.266.798-.177.187-.434.28-.77.28s-.597-.093-.784-.28c-.177-.187-.266-.453-.266-.798V5.082c0-.355.089-.62.266-.798.187-.187.453-.28.798-.28.336 0 .593.093.77.28.187.177.28.443.28.798V8.4h-.168c.15-.42.434-.76.854-1.022.42-.261.9-.392 1.442-.392.607 0 1.134.145 1.582.434.448.29.798.7 1.05 1.232s.378 1.167.378 1.904c0 .737-.126 1.377-.378 1.918-.252.541-.607.957-1.064 1.246-.448.29-.97.434-1.568.434Zm-.63-1.582c.299 0 .56-.075.784-.224.233-.15.41-.369.532-.658.13-.299.196-.677.196-1.134 0-.681-.14-1.18-.42-1.498-.28-.327-.644-.49-1.092-.49-.299 0-.565.07-.798.21-.224.14-.401.36-.532.658-.13.29-.196.663-.196 1.12 0 .681.14 1.19.42 1.526.28.327.649.49 1.106.49Zm7.467 1.582c-.579 0-1.06-.107-1.442-.322a1.972 1.972 0 0 1-.854-.966c-.177-.439-.266-.98-.266-1.624V8.078c0-.355.089-.62.266-.798.187-.177.448-.266.784-.266s.597.089.784.266c.187.177.28.443.28.798v3.22c0 .41.084.719.252.924.168.196.434.294.798.294.401 0 .728-.14.98-.42.261-.29.392-.667.392-1.134V8.078c0-.355.089-.62.266-.798.187-.177.448-.266.784-.266.345 0 .607.089.784.266.187.177.28.443.28.798v4.97c0 .719-.34 1.078-1.022 1.078-.336 0-.593-.093-.77-.28-.177-.187-.266-.453-.266-.798v-.938l.21.546c-.205.476-.5.845-.882 1.106-.383.261-.835.392-1.358.392Zm7.6 2.492a.915.915 0 0 1-.602-.196.775.775 0 0 1-.28-.518c-.028-.205.01-.425.112-.658l.938-2.072v.868l-2.478-5.684a1.357 1.357 0 0 1-.098-.672.756.756 0 0 1 .308-.504c.177-.13.42-.196.728-.196.252 0 .452.06.602.182.158.112.303.331.434.658l1.652 4.2H41.4l1.708-4.214c.13-.317.275-.532.434-.644.168-.121.392-.182.672-.182.242 0 .434.065.574.196a.73.73 0 0 1 .266.49c.037.205 0 .43-.112.672l-3.29 7.462c-.14.317-.299.532-.476.644-.168.112-.383.168-.644.168Zm7.776-2.492c-.504 0-.957-.098-1.358-.294a2.321 2.321 0 0 1-.938-.798 1.998 1.998 0 0 1-.336-1.134c0-.504.13-.9.392-1.19.261-.299.686-.509 1.274-.63.588-.13 1.367-.196 2.338-.196h.742v1.092h-.728c-.476 0-.864.028-1.162.084-.29.047-.5.13-.63.252-.121.121-.182.29-.182.504a.85.85 0 0 0 .266.644c.187.168.453.252.798.252.27 0 .508-.06.714-.182.215-.13.383-.303.504-.518.121-.224.182-.476.182-.756v-1.61c0-.41-.093-.7-.28-.868-.187-.177-.504-.266-.952-.266a3.91 3.91 0 0 0-.826.098 5.52 5.52 0 0 0-.966.294c-.205.093-.387.117-.546.07a.69.69 0 0 1-.364-.28.856.856 0 0 1-.126-.448c0-.168.046-.327.14-.476.093-.159.247-.275.462-.35a6.01 6.01 0 0 1 2.31-.462c.718 0 1.306.107 1.764.322a2.12 2.12 0 0 1 1.05.966c.233.43.35.985.35 1.666v3.108c0 .345-.084.611-.252.798-.168.187-.41.28-.728.28-.317 0-.565-.093-.742-.28-.168-.187-.252-.453-.252-.798v-.518l.098.084a1.799 1.799 0 0 1-1.05 1.358 2.41 2.41 0 0 1-.966.182Z" fill="#000"/>
</svg>
