<svg viewBox="0 0 88 24" fill="none" xmlns="http://www.w3.org/2000/svg">
  <g clip-path="url(#shiden-dark_svg__a)">
    <path d="M14.928 5.198C12.938 5.765 10 6.95 7.312 9.38c-2.704 2.544-.868 4.813-.85 4.835 0 0-.99-1.826 1.406-4.078.03-.026 3.089-2.668 7.537-3.935.567-.161 1.14-.296 1.704-.4l.04-.007.715-1.16-.175.012c-.012.001-1.13.085-2.761.55Z" fill="#5928B1"/>
    <path d="M17.99 1.945c-.459-.386-.917-.691-.921-.694l-.028-.018-.032.004c-.013.001-1.247.153-2.948.638-3.043.866-7.135 2.644-9.35 6.187-1.053 1.61-.206 3.536-.206 3.536l-.025-.49c-.003-.052-.149-5.245 10.495-8.277.932-.266 1.933-.51 2.975-.728l.183-.038-.144-.12Z" fill="#764BC4"/>
    <path d="M18.633 2.623c-.014.001-1.414.15-3.365.706-2.065.588-5.07 1.729-7.667 3.821-1.53 1.19-2.5 2.624-2.658 3.937-.078.64.673 2 .673 2l-.158-.483c-.007-.022-.678-2.222 2.721-4.774 1.905-1.43 3.89-2.41 6.247-3.08 1.215-.347 2.379-.574 3.665-.815l.046-.008.02-.042c.097-.208.56-1.121.565-1.13l.075-.149-.164.017Z" fill="#764BC4"/>
    <path d="M3.756 9.301c.128-2.06 1.689-3.965 4.643-5.662a20.201 20.201 0 0 1 5.17-2.269c1.59-.453 2.935-.588 2.935-.588L15.424 0c-.01.001-1.007.124-2.43.53-9.13 2.6-10.261 7.08-10.16 8.882.177 3.14 3.875 5.374 3.875 5.374S3.565 12.372 3.756 9.3Z" fill="#BBA5E1"/>
    <path d="M3.87 18.802c1.99-.567 4.926-1.752 7.615-4.183 2.704-2.544.869-4.813.85-4.835 0 0 .99 1.827-1.406 4.078-.03.026-3.089 2.668-7.537 3.935-.567.161-1.14.296-1.704.4l-.04.007-.715 1.16.175-.012c.012-.001 1.13-.085 2.761-.55Z" fill="#5928B1"/>
    <path d="M.808 22.055c.458.386.916.69.92.694l.028.018.032-.004c.013-.002 1.247-.154 2.948-.638 3.043-.867 7.135-2.644 9.35-6.188 1.053-1.61.206-3.535.206-3.535l.025.49c.003.052.149 5.245-10.495 8.277-.932.265-1.933.51-2.975.728l-.182.038.143.12Z" fill="#764BC4"/>
    <path d="M.164 21.377c.014-.002 1.414-.15 3.365-.706 2.065-.588 5.071-1.73 7.667-3.822 1.53-1.189 2.5-2.623 2.658-3.936.078-.64-.673-2-.673-2l.158.483c.007.022.678 2.222-2.721 4.774-1.905 1.43-3.89 2.41-6.246 3.08-1.215.346-2.38.574-3.666.814l-.046.009-.02.042c-.096.208-.56 1.121-.565 1.13L0 21.394l.164-.017Z" fill="#764BC4"/>
    <path d="M15.041 14.699c-.128 2.06-1.689 3.965-4.643 5.661a20.204 20.204 0 0 1-5.17 2.27c-1.59.453-2.935.588-2.935.588L3.374 24c.01-.001 1.006-.124 2.43-.53 9.13-2.6 10.26-7.08 10.16-8.882-.177-3.14-3.875-5.374-3.875-5.374s3.143 2.414 2.952 5.485Z" fill="#BBA5E1"/>
    <path d="M34.505 14.401c0 .38-.049.724-.147 1.03a3.074 3.074 0 0 1-.385.805c-.159.232-.346.43-.56.593a3.284 3.284 0 0 1-.662.402 3.347 3.347 0 0 1-1.366.304h-7.486v-1.93h7.485c.374 0 .664-.11.87-.329.206-.218.309-.51.309-.875 0-.177-.028-.34-.083-.49a1.114 1.114 0 0 0-.233-.387 1.037 1.037 0 0 0-.375-.25 1.291 1.291 0 0 0-.488-.09H26.92a3.45 3.45 0 0 1-1.012-.167 3.087 3.087 0 0 1-1.013-.539 2.968 2.968 0 0 1-.777-.973c-.205-.401-.308-.891-.308-1.47s.103-1.068.308-1.467c.208-.4.467-.723.777-.973.312-.249.65-.43 1.013-.541a3.45 3.45 0 0 1 1.012-.168h6.607v1.93H26.92c-.367 0-.653.111-.86.335-.207.222-.311.517-.311.884 0 .372.104.665.312.881.206.213.492.32.86.32H31.4a3.342 3.342 0 0 1 1.36.33c.231.107.452.245.662.412.208.164.393.363.554.595.164.235.292.502.386.802.095.302.143.644.143 1.026Zm3.566-7.515v4.35h6.814v-4.35h1.94v10.65h-1.94v-4.351h-6.814v4.35h-1.939V6.885h1.94Zm12.978 0v10.65h-1.942V6.885h1.942Zm12.947 4.455v1.74c0 .648-.114 1.244-.34 1.79a4.241 4.241 0 0 1-.937 1.406c-.397.393-.87.701-1.417.925a4.707 4.707 0 0 1-1.783.333H54.28a.968.968 0 0 1-.7-.279.929.929 0 0 1-.204-.307 1.003 1.003 0 0 1-.073-.387V7.858a.979.979 0 0 1 .277-.69.943.943 0 0 1 .312-.21c.119-.048.248-.072.388-.072h5.238c.641 0 1.236.112 1.783.335.548.222 1.02.53 1.417.923.4.395.711.866.936 1.413.227.547.34 1.141.34 1.784Zm-1.94 1.74v-1.74c0-.376-.06-.72-.184-1.03a2.222 2.222 0 0 0-.519-.799A2.293 2.293 0 0 0 60.551 9a2.785 2.785 0 0 0-1.032-.184h-4.276v6.79h4.276c.378 0 .722-.06 1.032-.183.312-.12.58-.292.802-.514.225-.22.398-.483.52-.792.122-.31.184-.656.184-1.036Zm12.642-1.845v1.949h-6.126v-1.949h6.126Zm.872 4.37v1.93h-6.998c-.27 0-.564-.048-.883-.143a2.543 2.543 0 0 1-.881-.463 2.614 2.614 0 0 1-.682-.84c-.18-.344-.27-.765-.27-1.264V7.858a.977.977 0 0 1 .589-.9c.118-.048.248-.072.388-.072h8.737v1.93h-7.776v6.01c0 .251.067.444.201.577.136.135.334.202.592.202h6.983Zm12.568-8.72v9.825a.982.982 0 0 1-.077.387c-.053.118-.123.22-.21.307a.978.978 0 0 1-.69.279c-.12 0-.24-.022-.364-.067a.855.855 0 0 1-.325-.215l-7.087-7.367v7.5h-1.94V7.71c0-.198.056-.378.166-.538.113-.16.256-.28.43-.358a.967.967 0 0 1 1.066.215l7.092 7.358v-7.5h1.939Z" fill="#fff"/>
  </g>
  <defs>
    <clipPath id="shiden-dark_svg__a">
      <path fill="#fff" d="M0 0h88v24H0z"/>
    </clipPath>
  </defs>
</svg>
