<svg viewBox="0 0 74 20" fill="none" xmlns="http://www.w3.org/2000/svg">
  <path d="M12.44 4.331c-1.658.473-4.105 1.461-6.347 3.487-2.253 2.12-.723 4.01-.708 4.03 0 0-.825-1.523 1.172-3.4.025-.021 2.574-2.223 6.28-3.278.473-.135.95-.247 1.42-.334l.033-.006.597-.967-.146.01c-.01.001-.941.071-2.301.458Z" fill="#5928B1"/>
  <path d="M14.991 1.62c-.382-.32-.763-.575-.767-.578l-.023-.015-.027.004c-.01 0-1.04.127-2.457.531-2.535.722-5.945 2.204-7.792 5.157-.877 1.34-.17 2.946-.17 2.946l-.022-.409c-.002-.043-.123-4.37 8.746-6.897.777-.221 1.61-.425 2.48-.607l.151-.031-.119-.1Z" fill="#764BC4"/>
  <path d="M15.527 2.186c-.011.001-1.178.125-2.804.588-1.72.49-4.225 1.441-6.389 3.185-1.275.99-2.083 2.186-2.215 3.28-.065.534.561 1.667.561 1.667l-.132-.403c-.006-.018-.565-1.851 2.268-3.978 1.587-1.192 3.241-2.008 5.205-2.567 1.013-.288 1.983-.478 3.055-.678l.038-.007.016-.035c.081-.174.468-.935.472-.942l.062-.124-.137.014Z" fill="#764BC4"/>
  <path d="M3.13 7.751c.107-1.717 1.407-3.304 3.869-4.718a16.835 16.835 0 0 1 4.31-1.891 15.596 15.596 0 0 1 2.444-.49l-.9-.652c-.009.001-.839.103-2.025.441C3.22 2.608 2.278 6.342 2.36 7.843c.148 2.617 3.23 4.479 3.23 4.479s-2.62-2.012-2.46-4.57Z" fill="#BBA5E1"/>
  <path d="M3.224 15.67c1.659-.473 4.106-1.462 6.347-3.487 2.253-2.12.724-4.01.708-4.03 0 0 .825 1.523-1.171 3.399-.026.022-2.574 2.223-6.281 3.279-.473.135-.95.247-1.42.333l-.033.006-.597.967.147-.01c.009 0 .94-.07 2.3-.458Z" fill="#5928B1"/>
  <path d="M.673 18.38c.382.32.763.575.767.578l.023.015.027-.004c.01 0 1.04-.128 2.457-.531 2.535-.723 5.945-2.204 7.792-5.157.877-1.341.171-2.946.171-2.946l.021.408c.003.044.124 4.371-8.746 6.898-.777.221-1.61.425-2.48.606l-.151.032.12.1Z" fill="#764BC4"/>
  <path d="M.137 17.814c.011-.002 1.178-.126 2.804-.589 1.72-.49 4.226-1.44 6.389-3.184 1.276-.991 2.083-2.187 2.215-3.28.065-.534-.56-1.667-.56-1.667l.13.402c.007.019.566 1.852-2.267 3.979-1.587 1.191-3.241 2.007-5.205 2.567-1.012.288-1.983.477-3.055.678l-.038.007-.016.035c-.081.174-.467.934-.471.942L0 17.828l.137-.014Z" fill="#764BC4"/>
  <path d="M12.534 12.25c-.107 1.717-1.407 3.304-3.869 4.717a16.84 16.84 0 0 1-4.309 1.892 15.76 15.76 0 0 1-2.445.49l.9.651a14.67 14.67 0 0 0 2.026-.44c7.607-2.168 8.55-5.902 8.466-7.403-.147-2.617-3.23-4.478-3.23-4.478s2.62 2.011 2.461 4.57Z" fill="#BBA5E1"/>
  <path d="M28.754 12.002c0 .316-.04.602-.122.858a2.562 2.562 0 0 1-.32.67 2.11 2.11 0 0 1-.468.494 2.74 2.74 0 0 1-.552.336 2.79 2.79 0 0 1-1.138.253h-6.238v-1.608h6.238c.311 0 .553-.092.724-.275.172-.181.258-.424.258-.729 0-.147-.023-.284-.07-.409a.864.864 0 0 0-.507-.53 1.074 1.074 0 0 0-.405-.074h-3.72c-.26 0-.542-.047-.844-.14a2.574 2.574 0 0 1-.844-.45 2.475 2.475 0 0 1-.647-.81c-.172-.334-.258-.743-.258-1.225 0-.482.086-.89.258-1.223.173-.332.389-.602.647-.81.26-.208.542-.358.844-.452.302-.093.584-.14.844-.14h5.506v1.608h-5.506c-.306 0-.545.094-.717.28-.173.185-.26.43-.26.737 0 .31.087.554.26.734.172.178.41.267.717.267h3.733a2.786 2.786 0 0 1 1.133.275c.193.09.377.204.552.343.173.137.327.302.462.496.136.195.243.418.32.668.08.252.12.537.12.855Zm2.972-6.264v3.626h5.678V5.738h1.616v8.875h-1.616v-3.625h-5.678v3.625H30.11V5.738h1.616Zm10.815 0v8.875h-1.618V5.738h1.618ZM53.33 9.451v1.45a3.84 3.84 0 0 1-.284 1.491 3.536 3.536 0 0 1-.78 1.173 3.591 3.591 0 0 1-1.18.77 3.923 3.923 0 0 1-1.487.278h-4.365a.805.805 0 0 1-.584-.232.776.776 0 0 1-.17-.257.838.838 0 0 1-.06-.322V6.55a.817.817 0 0 1 .23-.576.786.786 0 0 1 .584-.235H49.6c.535 0 1.03.094 1.486.28.457.185.85.441 1.181.769a3.5 3.5 0 0 1 .78 1.177c.19.456.284.952.284 1.487Zm-1.616 1.45V9.45c0-.313-.051-.6-.154-.858a1.85 1.85 0 0 0-.432-.666 1.91 1.91 0 0 0-.669-.427 2.32 2.32 0 0 0-.86-.154h-3.563v5.659h3.563c.315 0 .602-.051.86-.153.26-.1.483-.243.669-.428.187-.183.332-.403.432-.66a2.32 2.32 0 0 0 .154-.864Zm10.534-1.537v1.624h-5.105V9.364h5.105Zm.727 3.64v1.609h-5.832c-.225 0-.47-.04-.735-.119a2.119 2.119 0 0 1-.735-.385 2.178 2.178 0 0 1-.568-.7c-.15-.287-.225-.638-.225-1.054V6.55a.815.815 0 0 1 .233-.576.792.792 0 0 1 .581-.235h7.281v1.608h-6.48v5.01c0 .209.056.369.168.48.113.113.278.169.493.169h5.82Zm10.473-7.266v8.188a.82.82 0 0 1-.064.323.842.842 0 0 1-.175.256.816.816 0 0 1-.575.232.89.89 0 0 1-.303-.055.711.711 0 0 1-.27-.18l-5.907-6.139v6.25h-1.616V6.425c0-.166.046-.315.138-.449a.862.862 0 0 1 .358-.298.805.805 0 0 1 .889.18l5.91 6.13v-6.25h1.615Z" fill="#5928B1"/>
</svg>
