<svg viewBox="0 0 101 20" fill="none" xmlns="http://www.w3.org/2000/svg">
  <path fill-rule="evenodd" clip-rule="evenodd" d="M90.748 14.993a.697.697 0 0 1-.488.18.718.718 0 0 1-.505-.18c-.132-.12-.197-.29-.197-.507v-10.9c0-.218.065-.387.197-.507.13-.12.3-.18.505-.18.193 0 .356.06.487.18s.197.29.197.506v10.901c0 .218-.066.386-.197.507Zm-5.142-.318c-.605.355-1.3.532-2.088.532-.787 0-1.48-.177-2.079-.532a3.54 3.54 0 0 1-1.386-1.52c-.325-.657-.487-1.421-.487-2.291 0-.87.162-1.633.487-2.292a3.545 3.545 0 0 1 1.386-1.519c.6-.355 1.292-.532 2.08-.532.786 0 1.482.177 2.087.532A3.52 3.52 0 0 1 87 8.573c.326.658.488 1.421.488 2.291 0 .87-.162 1.634-.488 2.292a3.521 3.521 0 0 1-1.394 1.519ZM85.4 8.504c-.444-.555-1.072-.833-1.882-.833-.81 0-1.437.278-1.882.833-.445.555-.667 1.342-.667 2.36 0 1.03.219 1.82.659 2.369.438.55 1.07.824 1.89.824.822 0 1.452-.272 1.891-.816.44-.543.659-1.335.659-2.377 0-1.018-.223-1.805-.668-2.36Zm-8.137 6.669c-.145 0-.296-.07-.453-.206l-4.385-3.863v3.382c0 .218-.064.386-.193.507a.676.676 0 0 1-.479.18.699.699 0 0 1-.495-.18c-.13-.12-.194-.29-.194-.507v-10.9c0-.218.065-.387.194-.507a.7.7 0 0 1 .495-.18c.19 0 .35.06.48.18.128.12.192.29.192.506v6.97l4.015-3.76a.62.62 0 0 1 .454-.206.59.59 0 0 1 .436.19.617.617 0 0 1 .185.446.69.69 0 0 1-.235.515l-3.309 3.021 3.628 3.227c.18.172.269.355.269.55 0 .171-.059.32-.176.446a.566.566 0 0 1-.429.189Zm-11.525-.498c-.607.355-1.305.532-2.094.532-.79 0-1.485-.177-2.086-.532a3.543 3.543 0 0 1-1.39-1.52c-.327-.657-.49-1.421-.49-2.291 0-.87.163-1.633.49-2.292a3.548 3.548 0 0 1 1.39-1.519c.6-.355 1.296-.532 2.086-.532.79 0 1.487.177 2.094.532a3.53 3.53 0 0 1 1.399 1.52c.326.658.489 1.421.489 2.291 0 .87-.163 1.634-.49 2.292a3.525 3.525 0 0 1-1.398 1.519Zm-.206-6.171c-.446-.555-1.076-.833-1.888-.833-.813 0-1.443.278-1.889.833-.446.555-.67 1.342-.67 2.36 0 1.03.221 1.82.662 2.369.44.55 1.072.824 1.897.824.824 0 1.456-.272 1.896-.816.44-.543.661-1.335.661-2.377 0-1.018-.223-1.805-.67-2.36ZM52.654 9.997c.283.12.689.238 1.22.352.783.172 1.39.36 1.823.567.432.206.74.457.925.755.184.298.276.675.276 1.133 0 .72-.305 1.302-.916 1.742-.61.44-1.417.661-2.42.661a5.917 5.917 0 0 1-1.513-.189 4.627 4.627 0 0 1-1.27-.532 1.695 1.695 0 0 1-.441-.386.73.73 0 0 1-.13-.438c0-.149.044-.271.13-.369a.43.43 0 0 1 .337-.146c.139 0 .34.086.605.257.346.206.689.37 1.029.49.34.12.763.18 1.27.18.623 0 1.107-.108 1.453-.326a1.05 1.05 0 0 0 .518-.944c0-.252-.063-.455-.19-.61-.127-.154-.346-.291-.657-.412-.311-.12-.767-.242-1.366-.368-1.014-.218-1.74-.51-2.178-.876-.438-.366-.657-.864-.657-1.493 0-.493.139-.927.415-1.305.277-.378.66-.675 1.15-.893.49-.217 1.046-.326 1.668-.326.45 0 .884.06 1.305.18.396.11.773.28 1.115.507.392.274.588.56.588.858a.547.547 0 0 1-.285.491.426.426 0 0 1-.182.04c-.138 0-.346-.096-.622-.29a5.527 5.527 0 0 0-.917-.481c-.288-.115-.645-.172-1.07-.172-.543 0-.978.12-1.306.36-.329.24-.493.561-.493.962 0 .252.06.455.181.609.122.154.323.292.605.412ZM40.737 19H20.842l-1.895-6.632h-18c-.93 0-.947-.947-.947-.947V2.895C0 1.083 1.895 1 1.895 1h35.052c1.109 0 1.895 2.842 1.895 2.842l3.79 13.263S42.654 19 40.737 19ZM9.015 3.838h-5.23l1.401 5.696h5.23l-1.4-5.696Zm8.53 0h-5.23l1.402 5.696h5.23l-1.402-5.696ZM29.97 16.153h2.238l-.601-1.884h-2.238l.601 1.884ZM36.23 3.84h-9.701l2.605 9.475h9.701L36.229 3.84Zm2.962 10.43h-2.237l.6 1.884h2.238l-.6-1.884ZM18.474 19H1.894C.056 19 0 17.105 0 17.105v-2.842h17.053L18.473 19Z" fill="#40BFB2"/>
</svg>
