<svg viewBox="0 0 120 20" fill="none" xmlns="http://www.w3.org/2000/svg">
  <path d="M25.189 5.684V3.636h9.649v2.048H31.24v9.7h-2.455v-9.7h-3.597ZM46.686 9.51c0 1.282-.242 2.372-.728 3.27-.482.899-1.14 1.586-1.974 2.06-.83.47-1.763.705-2.799.705-1.044 0-1.98-.237-2.81-.711-.83-.474-1.486-1.16-1.968-2.06-.482-.898-.723-1.986-.723-3.264 0-1.28.24-2.37.723-3.27.482-.898 1.137-1.583 1.967-2.053.83-.474 1.767-.711 2.811-.711 1.036 0 1.97.237 2.8.711.833.47 1.491 1.155 1.973 2.054.486.898.728 1.988.728 3.27Zm-2.518 0c0-.83-.124-1.53-.373-2.099-.245-.57-.59-1.002-1.038-1.296-.448-.295-.971-.442-1.572-.442-.6 0-1.124.147-1.572.442-.447.294-.795.726-1.044 1.296-.245.57-.367 1.27-.367 2.1 0 .83.123 1.53.367 2.099.249.57.597 1.002 1.044 1.296.448.295.972.442 1.572.442.6 0 1.124-.147 1.572-.442.447-.294.793-.726 1.038-1.296.249-.57.373-1.27.373-2.1Zm4.358-5.874h3.064l3.235 7.894h.138l3.235-7.894h3.063v11.749h-2.41V7.738h-.097l-3.04 7.59h-1.64l-3.04-7.619h-.098v7.676h-2.41V3.636Zm14.782 11.749V3.636h4.704c.864 0 1.585.128 2.162.385.578.256 1.012.612 1.302 1.067.291.451.436.971.436 1.56 0 .459-.091.862-.275 1.21a2.376 2.376 0 0 1-.757.85c-.318.217-.68.372-1.09.464v.115a2.681 2.681 0 0 1 2.214 1.36c.245.416.367.913.367 1.49 0 .624-.155 1.18-.464 1.67-.306.486-.76.87-1.36 1.153-.6.283-1.34.425-2.22.425h-5.02Zm2.484-2.031h2.025c.692 0 1.197-.132 1.514-.396.317-.268.476-.623.476-1.067 0-.325-.078-.612-.235-.86a1.597 1.597 0 0 0-.671-.585c-.287-.142-.63-.213-1.027-.213h-2.082v3.12Zm0-4.801h1.841c.34 0 .642-.06.906-.178.268-.123.478-.295.631-.517.157-.221.236-.487.236-.797 0-.424-.152-.767-.454-1.027-.298-.26-.722-.39-1.273-.39h-1.887v2.909ZM80.36 7.015c-.046-.463-.243-.822-.591-1.078-.349-.257-.82-.385-1.417-.385-.405 0-.748.058-1.027.172-.28.111-.493.266-.642.465a1.118 1.118 0 0 0-.218.677.966.966 0 0 0 .132.55c.099.158.235.293.407.408.172.11.371.208.597.293.225.08.466.149.723.206l1.055.252c.512.115.983.268 1.41.46.43.19.8.426 1.114.705.314.28.556.608.728.987.176.378.266.812.27 1.302-.004.719-.187 1.342-.55 1.87-.36.524-.88.931-1.561 1.222-.677.287-1.493.43-2.45.43-.948 0-1.774-.145-2.478-.436-.7-.29-1.246-.72-1.64-1.29-.39-.574-.595-1.284-.614-2.129h2.404c.026.394.14.723.338.987.203.26.472.457.809.59.34.13.725.196 1.153.196.42 0 .785-.061 1.095-.184.314-.122.557-.292.729-.51a1.18 1.18 0 0 0 .258-.752.976.976 0 0 0-.235-.665c-.153-.18-.379-.333-.677-.46a6.909 6.909 0 0 0-1.084-.343l-1.279-.322c-.99-.24-1.773-.617-2.347-1.13-.573-.512-.858-1.203-.854-2.07-.004-.712.185-1.333.568-1.865.386-.532.916-.946 1.589-1.245.673-.298 1.438-.447 2.294-.447.872 0 1.633.149 2.283.447.654.299 1.163.713 1.526 1.245.363.532.551 1.147.563 1.847H80.36Zm8.147 8.542c-.903 0-1.679-.191-2.329-.574a3.871 3.871 0 0 1-1.491-1.606c-.345-.685-.517-1.472-.517-2.364 0-.902.174-1.694.522-2.374a3.878 3.878 0 0 1 1.498-1.6c.646-.387 1.414-.58 2.305-.58.77 0 1.442.14 2.02.418.577.28 1.034.672 1.37 1.176.337.505.522 1.098.557 1.779h-2.306c-.065-.44-.237-.794-.516-1.062-.276-.271-.637-.407-1.084-.407-.38 0-.71.103-.992.31-.28.203-.498.5-.655.89-.156.39-.235.861-.235 1.416 0 .562.076 1.04.23 1.434.156.394.376.694.66.9.282.207.613.31.992.31.28 0 .53-.057.751-.171a1.46 1.46 0 0 0 .557-.5c.149-.221.246-.487.292-.797h2.306c-.038.673-.221 1.266-.55 1.778a3.328 3.328 0 0 1-1.348 1.194c-.574.286-1.253.43-2.037.43Zm9.481 0c-.891 0-1.662-.19-2.312-.568a3.884 3.884 0 0 1-1.497-1.595c-.352-.684-.528-1.478-.528-2.38 0-.91.176-1.706.528-2.387a3.838 3.838 0 0 1 1.497-1.595c.65-.382 1.42-.573 2.312-.573.891 0 1.66.19 2.306.573.65.379 1.151.91 1.503 1.595.352.68.527 1.476.527 2.386 0 .903-.175 1.697-.527 2.381a3.877 3.877 0 0 1-1.503 1.595c-.647.378-1.415.568-2.306.568ZM98 13.664c.405 0 .744-.115 1.015-.345.272-.233.477-.55.614-.952.142-.401.212-.858.212-1.37 0-.513-.07-.97-.212-1.372-.138-.401-.342-.719-.614-.952-.271-.233-.61-.35-1.015-.35-.409 0-.753.117-1.032.35-.276.233-.484.55-.626.952a4.216 4.216 0 0 0-.206 1.371c0 .513.069.97.206 1.371.142.402.35.72.626.952.279.23.623.345 1.032.345Zm11.565-2.031v-5.06h2.443v8.812h-2.346v-1.6h-.091c-.199.515-.53.93-.993 1.244-.459.314-1.019.47-1.68.47-.59 0-1.107-.133-1.555-.401a2.755 2.755 0 0 1-1.05-1.142c-.248-.493-.375-1.084-.378-1.772v-5.61h2.443v5.174c.004.52.143.93.419 1.233.275.302.645.453 1.108.453.293 0 .569-.067.825-.2a1.57 1.57 0 0 0 .62-.609c.161-.267.239-.598.235-.992Zm9.085-5.06V8.41h-5.306V6.573h5.306Zm-4.102-2.11h2.444v8.214c0 .226.035.402.103.528.07.122.165.208.287.258.126.05.272.075.436.075.115 0 .23-.01.344-.03.115-.022.203-.04.264-.05l.385 1.818a7.007 7.007 0 0 1-.516.132 4.164 4.164 0 0 1-.81.097c-.588.023-1.104-.055-1.548-.235a2.162 2.162 0 0 1-1.027-.838c-.245-.378-.365-.856-.362-1.434V4.462ZM17.692 0H2.308A2.308 2.308 0 0 0 0 2.308v15.384A2.308 2.308 0 0 0 2.308 20h15.384A2.308 2.308 0 0 0 20 17.692V2.308A2.308 2.308 0 0 0 17.692 0Z" fill="#361563"/>
  <path d="M10.831 8.02c-.738-.613-1.573-.713-2.436-.311-1.384.646-1.755 2.557-.924 3.51.117.133.206.288.327.423a.536.536 0 0 1 .137.415c-.012.226-.032.457 0 .704l.71.034.012-.525.274.009v.486c0 .013-.004.025-.004.042h.069c.048 0 .093.004.141.004.056.004.117.004.177.009.053.004.11.004.162.008.032 0 .064.004.1.004h.013c.008 0 .012 0 .02-.004 0-.013.004-.03.004-.042v-.004c0-.004 0-.013.004-.017 0-.013.004-.025.004-.034v-.406l.274.008-.012.52c.045 0 .746.034.746.034v-.671c0-.021 0-.042-.004-.059 0-.05 0-.1.008-.146a.328.328 0 0 1 .057-.147l.024-.03a10.4 10.4 0 0 1 .032-.033l.06-.067c.041-.046.082-.088.122-.134l.117-.134c.04-.047.076-.089.113-.135.036-.046.076-.088.113-.134.036-.046.072-.088.109-.134.02-.021.036-.046.056-.067.137-.176.234-.373.266-.6.145-.968-.141-1.773-.871-2.377Zm-2.287 4.112h-.04v.063c0 .042-.004.088-.004.13-.004.088-.008.18-.008.268l-.36-.017c0-.037.005-.075.005-.113.004-.084.008-.167.008-.255a5.89 5.89 0 0 0 .008-.269c0-.033.004-.067.004-.1 0-.017-.004-.034-.004-.046 0-.017-.004-.034-.004-.05 0-.01-.004-.014-.004-.022-.004-.004-.004-.012-.008-.017a37.086 37.086 0 0 1-.052-.113c-.013-.025-.029-.046-.045-.071a.295.295 0 0 0-.032-.042c-.17-.214-.331-.436-.492-.658-.23-.327-.27-.709-.226-1.094.1-.868.536-1.497 1.315-1.82.77-.319 1.5-.184 2.113.39.625.583.855 1.325.653 2.193-.048.222-.185.381-.322.54-.17.197-.343.39-.516.583-.008.008-.017.013-.02.021 0 .004 0 .004-.005.009-.004.004-.004.008-.008.012l-.016.025c-.004.005-.004.009-.008.013s-.004.004-.004.008a7.782 7.782 0 0 1-.024.05c-.016.038-.024.08-.032.122-.005.021-.005.042-.005.063v.738c-.003.004-.008 0-.008 0h-.016c-.02 0-.044 0-.064-.004l-.266-.013c.004-.08.004-.16.008-.235 0-.025.004-.054.004-.08v-.129l-.053-.009c-.02-.004-.04-.008-.06-.008l-.13-.013c-.044-.004-.088-.004-.132-.004h-.246l-.017.482-.359-.017.017-.473-.065-.013a1.356 1.356 0 0 0-.129-.017c-.044-.004-.089-.004-.133-.008-.045 0-.089 0-.133-.004h-.065" fill="#FFF2D1"/>
  <path d="M9.44 10.732c-.005-.005-.005-.013-.009-.017-.008-.013-.012-.03-.02-.042l-.012-.025-.012-.021c-.016-.025-.028-.055-.044-.08-.008-.012-.012-.025-.02-.042 0-.004-.005-.008-.005-.008 0-.004-.004-.008-.004-.008-.004 0-.004 0-.004.004s-.004.004-.004.008-.004.008-.004.013a.769.769 0 0 0-.1.18c-.02.033-.037.067-.057.105-.008.012-.012.025-.02.033a.17.17 0 0 0-.02.038c-.008.013-.016.025-.024.042-.009.013-.017.03-.025.042L9.032 11l-.024.046c-.008.017-.016.034-.024.046-.008.017-.016.034-.024.046l-.025.046-.024.047-.024.046-.024.042a.168.168 0 0 0-.02.037c-.008.013-.013.026-.02.038-.005.013-.013.021-.017.034-.004.008-.012.016-.016.029l-.012.025a.032.032 0 0 0-.008.017c-.004.004-.004.008-.008.012l-.004.005h.004c.024 0 .044 0 .068.004h.82l.145.004h.004c-.008-.025-.02-.046-.028-.071a79.162 79.162 0 0 0-.33-.721c0 .004 0 .004 0 0Zm-.416.633c.097-.172.186-.327.286-.508.069.193.125.344.194.529-.165-.009-.303-.017-.48-.021ZM6.737 8.132c0 .021.004.038.004.055l-.004-.055Zm0 0c0 .021.004.038.004.055l-.004-.055Z" fill="#FFF2D1"/>
  <path d="M6.737 8.132c0 .021.004.038.004.055Zm0 0c0 .021.004.038.004.055l-.004-.055Z" stroke="#FFF2D1" stroke-width="2" stroke-miterlimit="10"/>
  <path d="M15.276 16.14c-.206-.172-.36-.394-.553-.587.012-.214.037-.407.037-.6-.005-.528.028-1.056-.013-1.584-.024-.323.06-.633.146-.944.165-.59.072-1.199-.012-1.781a5.692 5.692 0 0 1-.04-1.229c.027-.36.032-.72.06-1.081.036-.512.08-1.015-.045-1.53-.109-.437-.133-.894-.302-1.313-.133-.327-.133-.327-.545-.893-.367-.402-.423-.406-.738-.603-.242-.151-.48-.294-.774-.323-.375-.038-.722-.21-1.093-.273-.646-.109-1.283-.05-1.92.05-.855.139-1.698.31-2.356.99-.31.323-.629.629-.762 1.077-.036.126-.117.235-.177.348-.279.49-.214.713-.255 1.35.025.046-.056.323-.084.399-.037.427-.04.155-.037.34.013.557.017 1.114.02 1.668.005.503.025 1.006-.064 1.5-.097.525-.089 1.053-.093 1.581 0 .118.004.24-.024.352-.085.394-.064.788-.044 1.183.028.536.004 1.069.064 1.618-.298.243-.593.486-.891.721-.105.08-.166.168-.166.31.009.591.009 1.183.013 1.774 0 .159.072.247.23.26.73.046 1.456.092 2.182.142.943.063 1.883.122 2.827.185 1.069.07 2.138.146 3.207.218a.658.658 0 0 0 .403-.105c.56-.352 1.125-.704 1.69-1.048.137-.084.19-.193.19-.357.004-.515.016-1.031.028-1.542 0-.105-.02-.202-.11-.273Zm-9.281-2.65c.048-.352.093-.7.085-1.056-.012-.461.04-.914.104-1.367.09-.629.057-1.262.045-1.895-.004-.23-.008-.461-.004-.687 0-.06.004-.118.008-.176a.847.847 0 0 0 .008-.105c0-.017.012-.03.024-.042.016-.021.036-.042.053-.063a.056.056 0 0 1 .016-.013c.004 0 .012 0 .016.005a.917.917 0 0 1 .202.163c0 .004.145.117.145.122.004.004-.089.213-.089.222.173 0 .13-.059.27-.323.008-.017-.14-.122-.14-.143-.025-.025-.033-.058-.045-.088a.392.392 0 0 0-.053-.1c-.012-.017-.024-.03-.036-.046l-.036-.038a.039.039 0 0 1-.012-.03c-.004-.016-.013-.029-.017-.046a4.385 4.385 0 0 1-.121-.369c-.024-.083-.048-.167-.076-.251l-.049-.134c.029-.394.101-.772.351-1.09a.892.892 0 0 0 .121-.26c.113-.386.363-.663.65-.91.177-.155.338-.34.544-.444.004-.004.02.008.024.008l.025.013a.117.117 0 0 1 .036.042c.016.02.02.05.032.07l.024.068c.016.046.033.088.045.134.004.009.004.013.008.017 0 .004.004.008.004.008s.008.004.012.004c.016.005.032.013.048.017.004 0-.016.113-.016.122v.02c0 .018-.004.039-.004.055-.004.038-.004.076-.008.113 0 .013-.004.03 0 .042l.012.034c.032.067.049.319.049.319s.052-.143.048-.151l-.008-.034-.012-.067-.012-.092c0-.013-.004-.021-.004-.034 0-.008-.004-.012 0-.02a.086.086 0 0 1 .016-.034c.004-.013.012-.025.016-.038a.1.1 0 0 0 .028.008.048.048 0 0 0 .024.009.174.174 0 0 1 .065.025.071.071 0 0 1 .024.017l.012.025c.02.054.04.113.065.168.004.008.008.02.016.029a.089.089 0 0 0 .024.017l.161.1c-.024-.042-.06-.075-.092-.117a.476.476 0 0 1-.093-.218c-.004-.017-.004-.034-.004-.05-.04-.03-.08-.055-.121-.084-.016-.013-.036-.021-.049-.034a.032.032 0 0 1-.008-.02l-.012-.034c-.016-.046-.028-.093-.044-.134-.004-.013-.008-.03-.02-.034-.004-.004-.012-.004-.02-.008-.013-.009-.017-.026-.02-.038l-.013-.055a.157.157 0 0 1-.008-.046v-.016c-.004-.03-.012-.06-.012-.089a.38.38 0 0 1 .053-.218c1.23-.188 2.472-.343 3.553.642v.587c0 .017 0 .038-.008.054-.004.005-.004.009-.008.017a.09.09 0 0 1-.016.034l-.04.067a.296.296 0 0 0-.04.08c.003-.005.007-.005.011-.009l.012-.013a.123.123 0 0 1 .029-.02.278.278 0 0 0 .052-.047c.008-.008.012-.016.02-.029.008-.013.016-.034.024-.046a.112.112 0 0 0 .025-.055c.004-.008.008-.012.008-.02.004-.009.004-.017.008-.03l.012-.059c.016-.083.02-.167.032-.251.004-.034.012-.063.02-.097.335.273.682.512.73.99.04.402.11.796.218 1.186.032.113.06.23.06.348 0 .784.037 1.564-.084 2.344-.065.415-.06.847-.065 1.27 0 .453-.024.906-.064 1.354-.04.44-.04.877.064 1.304.057.226.02.453-.004.684-.048.448-.068.9-.096 1.354-.009.109-.005.222-.049.34-2.194-.126-4.384-.252-6.586-.382l-.009-.076-.012-.088a2.477 2.477 0 0 1-.016-.172 1.15 1.15 0 0 1 .004-.167v-.021a.3.3 0 0 1 .008-.063l.012-.067c.013-.05.025-.1.045-.151l.008-.021a.086.086 0 0 1 .02-.013l.31-.126c.013-.004.017-.02.025-.033a.229.229 0 0 1 .028-.038l.028-.025a1.149 1.149 0 0 0 .077-.163.41.41 0 0 0 .024-.06c.012-.02.04-.037.057-.05a.43.43 0 0 0 .092-.1c-.032.017-.056.038-.088.059a.144.144 0 0 1-.045.02c-.004 0-.008 0-.016.005-.004 0-.004.004-.004.004a.232.232 0 0 0-.024.034l-.049.075c-.02.03-.04.059-.06.092-.02.034-.032.067-.065.084l-.032.013-.306.104c-.02.009-.04.013-.06.03v-.042c.003-.021 0-.042.003-.059v-.084c0-.058-.004-.113-.004-.172-.004-.113-.012-.226-.016-.335a2.304 2.304 0 0 1-.008-.646Zm-.089 2.721c.057-.046.13-.033.194-.03 1.295.076 2.59.148 3.884.223.847.05 1.694.1 2.545.147.04.004.08.013.125.017.08.167.145.34.194.549-2.473-.168-4.925-.331-7.422-.5.17-.175.33-.284.48-.406Zm7.07 2.805c-.18.03-.358.004-.524-.017-.008 0-.016-.008-.02-.012-.008-.004-.012-.009-.02-.017a.225.225 0 0 1-.036-.034c-.024-.025-.04-.058-.065-.084-.008-.008-.02-.016-.024-.025a.239.239 0 0 1-.016-.05c0-.004 0-.008-.004-.017-.004-.004-.008-.008-.008-.017a.321.321 0 0 1-.049-.08c-.004-.008-.004-.02-.004-.029.004-.025-.008-.05-.016-.07l-.012-.06a.032.032 0 0 0-.008-.016.11.11 0 0 0-.032-.03c-.028-.033-.057-.063-.085-.092a.217.217 0 0 0-.036-.03c.008.005.012.018.02.026a.11.11 0 0 0 .02.025c.012.017.024.034.032.059 0 .008.008.02.012.03a.426.426 0 0 1 .036.172c.005.028.005.062.009.091 0 0 .02.009.024.009.004.004.004.012.004.02.008.022.02.043.032.063l.013.026v.07c0 .01 0 .022-.005.03-.008.013-.024.021-.02.038-.016 0-.04.004-.056 0-.004 0-.008 0-.012-.004-.028-.004-.053-.004-.081-.004-.052-.004-.105-.009-.157-.009-.456-.03-.912-.063-1.368-.092-.455-.03-.911-.063-1.367-.092-.456-.03-.911-.063-1.367-.093-.456-.029-.912-.062-1.368-.092-.23-.017-.455-.029-.685-.046a9.85 9.85 0 0 0-.343-.02c-.057-.005-.113-.01-.17-.013-.012 0-.165-.009-.165-.013v-.402l.004-.005.008-.008.012-.02.033-.047c.012-.017.028-.034.04-.05l.012-.021a.12.12 0 0 1 .028-.021c.012-.009.024-.013.037-.021a.428.428 0 0 1 .076-.034.103.103 0 0 1 .06-.008.096.096 0 0 1 .045.025.416.416 0 0 0 .145.08c.012.004.016-.009.024-.013a.341.341 0 0 1 .081-.059c.012-.008.024-.012.036-.02a.473.473 0 0 1 .154-.03.522.522 0 0 0-.121-.025c-.024 0-.049 0-.069.012l-.008.009-.016.012-.036.026c-.004 0-.004.004-.008.004-.008.004-.017.008-.02.017-.005.004-.017.012-.025.012a.068.068 0 0 1-.02-.008c-.004-.004-.012-.004-.016-.009l-.032-.02c-.033-.026-.065-.06-.097-.089-.004-.004-.008-.004-.012-.008h-.016c-.013.004-.025.004-.037.008-.008 0-.012.005-.02.005h-.012c-.012 0-.024.004-.036.004l-.053.012c-.052.013-.1.026-.153.042v-.842c2.646.176 5.284.356 7.934.532v1.459Zm-.754-14.359-.116-.172h-.053c-.008 0-.012-.008-.02-.008l-.121-.101a3.595 3.595 0 0 0-.25-.189 3.707 3.707 0 0 0-.537-.327c-.084-.008-.153-.05-.25-.113l.25.042c.25-.004.484.08.722.155.186.059.372.122.565.139.295.02.524.184.754.348.182.13.242.343.299.545.04.155-.101.222-.19.31v.017c0 .008.004.016.004.025.004.017.012.03.016.046.017.033.033.063.045.096.008.017.012.034.016.05a.129.129 0 0 1 .004.055c0 .008-.012.017-.016.021-.024.034-.053.067-.077.096l.17-.058c.012-.013.02-.025.032-.034.012-.008.024-.02.036-.03-.012-.007-.012-.012-.012-.024l-.012-.055-.012-.05c0-.008-.004-.017-.004-.025 0-.004-.008-.021-.004-.025.044-.093.14-.11.19-.168.298.02.463.184.548.465.109.357.137.734.238 1.09.173.638.064 1.266.02 1.9-.024.364.012.737-.056 1.098-.029.138-.061.268-.166.348-.036.155-.004.297-.012.44a.302.302 0 0 1-.085.105.852.852 0 0 1-.092.08l-.004.004a.611.611 0 0 0-.085.067l-.036.037c-.012.013-.029.022-.045.034-.028.017-.056.038-.085.059-.008.008-.02.012-.024.025l-.016.017a2.522 2.522 0 0 1-.016.016c-.004.005-.008.009-.008.013s.004.004.004.008c.02.026.028.063.044.093.004.008.012.017.016.029.005.004.005.008.005.017a.116.116 0 0 1 .012.05v.025c-.004.017.004.034-.008.046l-.053.05a.105.105 0 0 1-.024.022c-.016.016-.036.029-.053.046-.004.004-.008.004-.008.008-.004.004-.004.013 0 .021l.037.281c0 .012.004.03.004.046-.004.013-.004.025-.004.042a.93.93 0 0 0 .008.109l.076-.39c.057-.109.198-.13.234-.239 0-.096-.084-.121-.112-.205l.471-.36c.004-.085.013-.185.017-.29.056.013.064.059.068.096.028.566.161 1.132.044 1.703-.04.205-.108.402-.133.607-.064.579.02 1.153.008 1.728-.008.289.029.582-.064.884-.404.218-.81.415-1.25.633.02-.255.028-.482.052-.708.036-.365.02-.738.097-1.099a1.13 1.13 0 0 0-.016-.477c-.125-.504-.121-1.007-.06-1.514.064-.553.048-1.111.056-1.669.008-.557.088-1.106.117-1.664.028-.583.076-1.17-.02-1.744-.077-.457-.202-.906-.255-1.371a1.302 1.302 0 0 0-.464-.851c-.096-.084-.185-.172-.282-.26a1.024 1.024 0 0 1-.069-.067c-.003-.004-.008-.004-.008-.008-.008-.009-.008-.017-.012-.03l.02.038Zm2.122 11.458s.004.004.008.004.004 0 .008.004c.008 0 .012.004.016.009a.087.087 0 0 1 .017.025c0 .012.004.025.004.042 0 .029.004.063 0 .092 0 .017 0 .03-.005.046v.017c0 .008.009.008.017.012a.05.05 0 0 1 .024.026c.004.008.008.016.004.025a.033.033 0 0 1-.008.02.072.072 0 0 1-.037.034.858.858 0 0 0-.104.059c-.323.176-.646.356-.985.54a3.165 3.165 0 0 1-.21-.54c.448-.218.892-.436 1.34-.658.15.096.242.243.35.369-.06.07-.136.092-.213.13l-.024-.013-.028-.017c-.009-.004-.017-.012-.029-.012a.103.103 0 0 1-.036-.021c-.004-.005-.004-.009-.004-.017-.004-.017-.008-.03-.008-.046a.323.323 0 0 0-.016-.059l-.016-.054-.065-.017Zm.274 1.136v-.063c0-.012 0-.03.008-.042.005-.008.005-.012.008-.017 0-.004.005-.004.005-.008a.525.525 0 0 1 .04-.063.41.41 0 0 0 .1-.297c.045-.034.09-.072.166-.068.028.411.008.839-.004 1.275-.508.314-1.016.629-1.545.951V17.5c.412-.227.819-.45 1.23-.671.013.016.02.037.025.058.004.013 0 .03 0 .042 0 .008-.004.013-.008.021 0 .004-.004.008-.009.017a2.522 2.522 0 0 1-.016.017c-.008.004-.012.012-.02.02a.129.129 0 0 0-.02.03c-.004.004-.008.008-.008.017a.032.032 0 0 0-.008.02c-.012.022-.024.047-.04.068-.008.008-.017.02-.017.033 0 .005 0 .009.004.013v.163c0 .03.005.055.005.084 0 .021-.005.05-.017.067l-.012.013s-.004.004-.004.008c0 .005-.004.005-.008.009a.498.498 0 0 1-.1.084c.024-.005.048-.009.068-.021.016-.009.032-.021.052-.03.004 0 .008-.008.016-.008h.005c.008-.013.012-.025.02-.042.004-.004.004-.013.008-.021l.008-.021c0-.004.004-.008.004-.013.004-.016.008-.033.016-.05.004-.008.004-.017.008-.025 0-.004.004-.009.004-.017 0-.008 0-.017.004-.02 0-.01.004-.018.012-.022h.008l.012-.071Z" fill="#FFF2D1"/>
  <path d="M8.435 10.656a.569.569 0 0 1-.557-.578.57.57 0 0 1 .557-.579.57.57 0 0 1 .557.579c0 .318-.25.578-.557.578Zm0-.99a.404.404 0 0 0-.395.412c0 .226.177.41.395.41a.404.404 0 0 0 .395-.41.404.404 0 0 0-.395-.411Zm1.791 1.032a.569.569 0 0 1-.557-.578.57.57 0 0 1 .557-.579c.306 0 .556.26.556.579 0 .318-.25.578-.556.578Zm0-.99a.404.404 0 0 0-.395.412c0 .226.177.41.395.41a.404.404 0 0 0 .395-.41.404.404 0 0 0-.395-.411Z" fill="#FFF2D1"/>
  <path d="M8.177 10.45c-.057-.087-.194-.188-.194-.288 0-.298.137-.537.424-.537h.218c.032.033.064.063.088.096a.448.448 0 0 0-.105-.012.445.445 0 0 0-.435.453c0 .121.044.23.12.314l-.116-.025Zm1.92.076c-.04-.004-.258-.092-.299-.1-.056-.088 0-.415 0-.524 0-.285.331-.256.601-.273l.081.126a.485.485 0 0 0-.08-.008.445.445 0 0 0-.436.452c.004.13.052.244.133.327Z" fill="#FFF2D1"/>
</svg>
