<svg viewBox="0 0 78 20" fill="none" xmlns="http://www.w3.org/2000/svg">
  <path fill-rule="evenodd" clip-rule="evenodd" d="M9.346 5.51 6.368.355A.234.234 0 0 1 6.572 0H9.21a.219.219 0 0 1 .204.12l1.658 2.896a.219.219 0 0 1 0 .233l-1.32 2.262a.234.234 0 0 1-.406 0ZM14.35.355l1.304 2.284a.22.22 0 0 0 .204.098h2.623a.234.234 0 0 0 .204-.354L17.366.121A.24.24 0 0 0 17.178 0H14.54a.234.234 0 0 0-.189.354Zm-3.015 8.602-1.32-2.262a.234.234 0 0 1 0-.241l3.31-5.752a.234.234 0 0 1 .407 0l1.32 2.262a.219.219 0 0 1 0 .233l-3.31 5.737a.233.233 0 0 1-.407.023Zm3.852.701h-2.639a.234.234 0 0 1-.21-.354l3.316-5.737a.219.219 0 0 1 .204-.12h2.638a.241.241 0 0 1 .204.361l-3.31 5.73a.24.24 0 0 1-.203.12Zm1.342 0h5.948a.234.234 0 0 0 .203-.354l-1.32-2.262a.226.226 0 0 0-.225-.143h-3.287a.226.226 0 0 0-.204.12L16.326 9.28a.234.234 0 0 0 .204.377Zm-.79 6.896a.226.226 0 0 0 .119.032h2.638a.233.233 0 0 0 .204-.355l-3.31-5.736a.24.24 0 0 0-.203-.121h-2.639a.234.234 0 0 0-.21.354l3.316 5.737c.02.037.05.068.085.089Zm-5.723-2.984 3.309 5.73a.234.234 0 0 0 .407 0l1.32-2.262a.219.219 0 0 0 0-.234l-3.31-5.737a.234.234 0 0 0-.407 0l-1.32 2.262a.234.234 0 0 0 0 .241Zm7.279 6.397a.242.242 0 0 1-.118.034H14.54a.234.234 0 0 1-.211-.355l1.319-2.261a.24.24 0 0 1 .21-.12h2.64a.233.233 0 0 1 .203.354l-1.32 2.261a.241.241 0 0 1-.085.087ZM9.21 20H6.572a.234.234 0 0 1-.204-.355l2.978-5.126a.234.234 0 0 1 .407 0l1.319 2.262a.219.219 0 0 1 0 .233L9.414 19.88a.219.219 0 0 1-.204.12Zm-3.438-.702 2.97-5.148a.234.234 0 0 0-.203-.355H5.901a.249.249 0 0 0-.204.113L4.04 16.78a.256.256 0 0 0 0 .234l1.319 2.262a.241.241 0 0 0 .414.022Zm15.364-6.196h-3.287a.241.241 0 0 1-.204-.114l-1.319-2.261a.233.233 0 0 1 .204-.354h5.925a.234.234 0 0 1 .204.354l-1.32 2.261a.242.242 0 0 1-.203.114Zm-11.926 0H2.591a.233.233 0 0 1-.203-.347l1.319-2.261a.226.226 0 0 1 .203-.121h6.62a.234.234 0 0 1 .21.354L9.414 12.99a.226.226 0 0 1-.204.113ZM3.707 9.536l-1.32-2.262a.234.234 0 0 1 .204-.354H9.21a.241.241 0 0 1 .211.12l1.32 2.262a.233.233 0 0 1-.212.354H3.91a.226.226 0 0 1-.203-.12Zm-3.679.58 1.35 2.285a.241.241 0 0 0 .384-.023l1.32-2.261a.256.256 0 0 0 0-.234l-1.32-2.261a.241.241 0 0 0-.415 0L.028 9.883a.256.256 0 0 0 0 .234Zm5.67-4.025L4.037 3.22a.256.256 0 0 1 0-.234L5.359.724a.241.241 0 0 1 .414 0l2.97 5.148a.234.234 0 0 1-.203.355H5.901a.249.249 0 0 1-.204-.136Zm28.253 7.915h-1.168a1.46 1.46 0 0 1-1.086-.407 1.448 1.448 0 0 1-.377-1.07V8.835h2.593v-2.05h-2.608v-2.48h-.49l-3.77 3.987v.573h1.72v4.018a3.354 3.354 0 0 0 .904 2.48 3.311 3.311 0 0 0 2.458.905h1.824v-2.262Zm12.74-7.221h2.54l-3.105 9.506h-2.058l-2.149-4.908-2.095 4.908h-2.066l-3.136-9.506h2.6l1.87 5.646 2.465-5.579h.754l2.54 5.594 1.84-5.661Zm13.373 0H58.15l-.294.92a4.523 4.523 0 0 0-3.105-1.161 5.08 5.08 0 0 0-2.548.648 4.62 4.62 0 0 0-1.78 1.794 5.097 5.097 0 0 0-.64 2.548 5.157 5.157 0 0 0 .656 2.593 4.59 4.59 0 0 0 1.779 1.802 5.013 5.013 0 0 0 2.548.656 4.523 4.523 0 0 0 3.083-1.16l.226.843h1.99V6.785Zm-5.612 7.324a2.579 2.579 0 0 1-1.33-.728v.008a2.533 2.533 0 0 1-.755-1.847 2.511 2.511 0 0 1 .754-1.855 2.48 2.48 0 0 1 1.847-.754 2.51 2.51 0 0 1 2.578 2.601 2.578 2.578 0 0 1-3.094 2.575Zm8.07 2.182V3.392h2.563v12.899h-2.563Zm14.662-9.507h-1.922l-.272.95a4.523 4.523 0 0 0-3.113-1.16 5.051 5.051 0 0 0-2.54.648 4.644 4.644 0 0 0-1.787 1.794 5.096 5.096 0 0 0-.641 2.548 5.157 5.157 0 0 0 .64 2.563 4.615 4.615 0 0 0 1.787 1.802c.773.441 1.65.668 2.54.655a4.523 4.523 0 0 0 3.069-1.16l.226.844h2.013V6.784Zm-5.1 7.335a2.668 2.668 0 0 1-1.843-.738v.007a2.54 2.54 0 0 1-.754-1.87 2.52 2.52 0 0 1 .754-1.854 2.457 2.457 0 0 1 1.84-.754 2.488 2.488 0 0 1 1.846.754 2.525 2.525 0 0 1 .754 1.862 2.51 2.51 0 0 1-.754 1.855 2.668 2.668 0 0 1-1.843.738Z" fill="#7A13CE"/>
</svg>
