<svg xmlns="http://www.w3.org/2000/svg" fill="none" viewBox="0 0 30 30">
  <path fill="currentColor" fill-rule="evenodd" d="M14.688 4.75c-5.482 0-9.938 4.456-9.938 9.938 0 5.481 4.456 9.937 9.938 9.937 5.481 0 9.937-4.456 9.937-9.938 0-5.481-4.456-9.937-9.938-9.937Zm3.499 5.781a14.655 14.655 0 0 0-1.813-3.855 8.151 8.151 0 0 1 5.359 3.855h-3.546Zm-7.219 0H7.644a8.16 8.16 0 0 1 5.094-3.787 14.079 14.079 0 0 0-1.77 3.787Zm5.39 0h-3.56a12.705 12.705 0 0 1 1.78-3.382 12.64 12.64 0 0 1 1.78 3.382ZM6.5 14.687c0-.831.131-1.65.369-2.406h3.692a14.62 14.62 0 0 0-.013 4.737l-3.695.027a7.864 7.864 0 0 1-.353-2.358Zm5.83 2.327c-.3-1.57-.3-3.176 0-4.733h4.496c.3 1.555.3 3.147.028 4.705l-4.524.028Zm6.295-.047a14.364 14.364 0 0 0-.029-4.686h3.91c.238.756.369 1.575.369 2.406 0 .783-.116 1.542-.313 2.252l-3.937.028Zm-2.246 5.73a14.004 14.004 0 0 0 1.843-3.98l3.596-.026a8.21 8.21 0 0 1-5.439 4.005Zm-1.802-.472a12.283 12.283 0 0 1-1.8-3.462l3.613-.026a12.946 12.946 0 0 1-1.813 3.488Zm-1.84.406a8.208 8.208 0 0 1-5.128-3.837l3.328-.027c.394 1.347 1 2.657 1.8 3.864Z" clip-rule="evenodd"/>
</svg>
