<svg fill="currentColor" xmlns="http://www.w3.org/2000/svg" viewBox="0 0 30 30">
  <path d="M14.925 3 5 8.653v11.541l7.671 4.47-.037-1.878-6.094-3.568v-8.574l7.596 4.291V25.03l.801.451.827-.45V14.935l7.584-4.292v8.574L17.29 22.71v1.878L25 20.279V8.653L14.925 3Zm0 10.583L7.516 9.217l7.409-4.358 7.587 4.358-7.587 4.366Zm-5.712 4.235 1.484-.845-.126-.221-1.483.845.125.22Zm2.598-1.487 1.484-.845-.126-.22-1.484.845.126.22Zm3.224-3.964v-1.7h-.254v1.7h.254Zm0-2.963v-1.71h-.254v1.71h.254Zm0-2.848V4.847h-.254v1.709h.254Zm3.21 9.564-1.475-.854-.127.22 1.474.854.127-.22Zm2.57 1.487-1.485-.855-.126.22 1.483.855.127-.22ZM6.59 19.317l1.474-.846-.127-.22-1.473.845.126.22Zm16.836-.224-1.473-.855-.128.22 1.474.855.127-.22Z"/>
</svg>
