<svg viewBox="0 0 30 30" fill="none" xmlns="http://www.w3.org/2000/svg">
  <path d="M15.002 2.85c5.526 0 10.002 4.547 10.002 10.15 0 2.245-.72 4.319-1.936 6h-2.482a8.29 8.29 0 0 0 2.549-6c0-4.562-3.644-8.257-8.133-8.257-4.49 0-8.132 3.695-8.132 8.257a8.29 8.29 0 0 0 2.549 6H6.936A10.204 10.204 0 0 1 5 13C5 7.397 9.476 2.85 15.002 2.85Zm2.335 4.779a2.044 2.044 0 0 1 0 4.086h-.12v4.44a2.215 2.215 0 0 1-4.429 0v-4.44h-.121a2.043 2.043 0 0 1-2.032-1.834l-.011-.21.01-.208a2.044 2.044 0 0 1 2.033-1.834h4.67Zm-4.67 1.4a.643.643 0 0 0 0 1.286h1.52v5.84a.815.815 0 0 0 1.626.084l.003-.084v-5.84h1.52a.643.643 0 0 0 0-1.286h-4.669Z" fill="currentColor"/>
  <rect x="21.8" y="21.8" width="2.4" height="2.4" rx="1.2" stroke="currentColor" stroke-width="1.6"/>
  <path d="M11 23h8" stroke="currentColor" stroke-width="2" stroke-linecap="round"/>
  <rect x="5.8" y="21.8" width="2.4" height="2.4" rx="1.2" stroke="currentColor" stroke-width="1.6"/>
</svg>
