<svg viewBox="0 0 30 30" fill="none" xmlns="http://www.w3.org/2000/svg">
  <path d="M4.816 4.847a.884.884 0 0 1 .793.879v18.213h19.453c.472 0 .854.384.855.855l-.005.088a.856.856 0 0 1-.85.767H4.814l-.09.01a.885.885 0 0 1-.883-.885V5.726c0-.488.396-.884.884-.884l.09.005Zm19.217 1.101A2.191 2.191 0 0 1 26 8.127l-.01.224a2.193 2.193 0 0 1-1.957 1.956l-.223.01a1.43 1.43 0 0 1-.114-.004l-2.764 5.58c.286.369.46.83.46 1.335l-.01.224a2.193 2.193 0 0 1-1.956 1.955l-.224.012a2.191 2.191 0 0 1-2.19-2.19l.007-.164c.016-.216.063-.425.137-.62l-2.074-1.54c-.3.218-.658.363-1.047.405l-.237.013c-.239 0-.469-.04-.684-.11l-2.353 2.94c.14.288.221.61.221.953l-.01.223a2.193 2.193 0 0 1-1.956 1.956l-.224.01a2.192 2.192 0 0 1-2.179-1.966l-.01-.224a2.19 2.19 0 0 1 2.189-2.189l.154.006c.206.014.403.058.588.125l2.323-2.903a2.176 2.176 0 0 1-.24-.824l-.009-.187c0-1.21.98-2.19 2.19-2.19l.223.011a2.191 2.191 0 0 1 1.967 2.179l-.008.19a2.567 2.567 0 0 1-.024.176l2.338 1.736a2.19 2.19 0 0 1 .908-.196l.19.008c.037.003.073.01.11.014l2.702-5.452a2.178 2.178 0 0 1-.58-1.347l-.004-.135c0-1.21.98-2.19 2.19-2.19l.223.011ZM8.792 18.565a.54.54 0 1 0 .002 1.082.54.54 0 0 0-.002-1.082ZM19.094 16.7a.542.542 0 0 0-.432.53l.01.109c.052.246.27.431.531.431l.108-.01a.542.542 0 0 0 .432-.53l-.014-.124a.538.538 0 0 0-.159-.265l-.023-.01a.832.832 0 0 1-.16-.104.527.527 0 0 0-.184-.037l-.11.01Zm-5.296-4.106a.54.54 0 1 0 0 1.08.54.54 0 0 0 0-1.08ZM23.81 7.587a.54.54 0 1 0 0 1.081.54.54 0 0 0 0-1.081Z" fill="currentColor"/>
</svg>
