<svg xmlns="http://www.w3.org/2000/svg" fill="none" viewBox="0 0 30 30">
  <path fill="currentColor" fill-rule="evenodd" d="M8.455 6c.602 0 1.09.488 1.09 1.09v.864a6 6 0 0 0 10.91 0v-.863a1.091 1.091 0 0 1 2.181 0v.65a7.1 7.1 0 0 0 2.551 1.596 1.09 1.09 0 0 1-.738 2.053 9.3 9.3 0 0 1-1.813-.885v6.404h3.273a1.09 1.09 0 1 1 0 2.182h-3.273v3.273a1.09 1.09 0 0 1-2.181 0V19.09H9.545v3.273a1.09 1.09 0 1 1-2.181 0V19.09H4.09a1.09 1.09 0 1 1 0-2.182h3.273v-6.404a9.3 9.3 0 0 1-1.813.885 1.09 1.09 0 0 1-.738-2.053 7.1 7.1 0 0 0 2.55-1.596v-.65A1.094 1.094 0 0 1 8.456 6m7.636 10.91h4.363v-5.357a8.17 8.17 0 0 1-4.363 2.01zm-2.182-3.347v3.346H9.545v-5.356a8.18 8.18 0 0 0 4.364 2.01" clip-rule="evenodd"/>
</svg>
