<svg viewBox="0 0 30 30" fill="none" xmlns="http://www.w3.org/2000/svg">
  <path d="M7.727 5A2.742 2.742 0 0 0 5 7.727V25h12.727v-6.364h1.819v3.637A2.742 2.742 0 0 0 22.273 25 2.742 2.742 0 0 0 25 22.273V13.01c0-.724-.284-1.392-.796-1.903l-4.29-4.29-1.278 1.279 2.586 2.585c-.977.415-1.677 1.378-1.677 2.5a2.742 2.742 0 0 0 2.728 2.727c.32 0 .621-.067.909-.17v6.534a.893.893 0 0 1-.91.909.893.893 0 0 1-.908-.91v-3.636a1.83 1.83 0 0 0-1.819-1.818h-1.818v-9.09A2.742 2.742 0 0 0 15 5H7.727Zm0 1.818H15c.515 0 .91.394.91.91v3.636H6.817V7.727c0-.515.394-.909.91-.909Zm14.546 5.455c.511 0 .909.398.909.909s-.398.909-.91.909a.897.897 0 0 1-.908-.91c0-.51.397-.908.909-.908Zm-15.455.909h9.091v10H6.82v-10Z" fill="currentColor"/>
</svg>
