<svg viewBox="0 0 30 30" fill="none" xmlns="http://www.w3.org/2000/svg">
  <path d="m22.733 2.91.08.004a.818.818 0 0 1 .735.812v8.584h-1.63V4.542H5.931v18.447h6.577v1.631H5.115a.816.816 0 0 1-.815-.815V3.725a.815.815 0 0 1 .815-.815h17.618Z" fill="currentColor"/>
  <path d="M13.955 13.19a6.26 6.26 0 0 1 3.199.881 6.82 6.82 0 0 0-1.931 1.327 4.224 4.224 0 0 0-1.268-.195c-1.48 0-2.78.725-3.588 1.879a.418.418 0 0 1-.341.178H8.643a.417.417 0 0 1-.368-.609c1.088-2.07 3.208-3.461 5.68-3.461Zm-.033-6.986a3.185 3.185 0 1 1 .002 6.365 3.185 3.185 0 0 1-.002-6.365Zm0 2.014a1.17 1.17 0 0 0-1.17 1.17l.006.119a1.17 1.17 0 0 0 2.336-.12l-.007-.118a1.171 1.171 0 0 0-1.165-1.051ZM21.32 14.809a6.201 6.201 0 0 1 0 12.384l-.32.008a6.201 6.201 0 0 1 0-12.4l.32.008ZM21 16.516A4.486 4.486 0 0 0 16.515 21l.006.23A4.486 4.486 0 0 0 21 25.485l.23-.005A4.485 4.485 0 0 0 25.484 21l-.005-.23a4.485 4.485 0 0 0-4.248-4.25l-.23-.005Zm.173 1.426 2.705 4.685.174.3h-6.104l.174-.3 2.705-4.685.173-.3.173.3Zm-.68 3.516h1.016l-.509-.88-.508.88Z" fill="currentColor"/>
</svg>
