<svg xmlns="http://www.w3.org/2000/svg" fill="none" viewBox="0 0 30 30">
  <path fill="currentColor" fill-rule="evenodd" d="M14.917 3.667c0-.92.746-1.667 1.666-1.667h5c.92 0 1.667.746 1.667 1.667v5c0 .92-.746 1.666-1.667 1.666h-5c-.92 0-1.666-.746-1.666-1.666V7h-.837a1.656 1.656 0 0 0-1.663 1.663v6.674A1.654 1.654 0 0 0 14.08 17h.837v-1.667c0-.92.746-1.666 1.666-1.666h5c.92 0 1.667.746 1.667 1.666v5c0 .92-.746 1.667-1.667 1.667h-5c-.92 0-1.666-.746-1.666-1.667v-1.666h-.832a3.323 3.323 0 0 1-3.335-3.335v-2.499h-2.5v1.25c0 .92-.746 1.667-1.667 1.667H2.417c-.92 0-1.667-.746-1.667-1.667V9.917c0-.92.746-1.667 1.667-1.667h4.166c.92 0 1.667.746 1.667 1.667v1.25h2.5V8.668a3.323 3.323 0 0 1 3.335-3.335h.832V3.667Zm1.666 2.498v2.502h5v-5h-5v2.498Zm0 11.67v2.498h5v-5h-5v2.502Zm-10-7.918v4.166H2.417V9.917h4.166Z" clip-rule="evenodd"/>
  <path fill="currentColor" d="M14.917 7h.1a.1.1 0 0 0-.1-.1V7Zm-.834 0v.1V7Zm-.003 0v.1V7Zm-.638.125.038.092-.038-.092Zm-.54.36.07.07-.07-.07Zm-.36.54-.093-.037.092.038Zm-.125.638h.1-.1Zm0 .004h.1-.1Zm0 6.666h.1-.1Zm0 .004h.1-.1Zm.124.637-.092.038.092-.038Zm.36.54.072-.07-.071.07Zm.541.361-.038.093.038-.093Zm.638.125v-.1.1Zm.003 0v-.1.1Zm.834 0v.1a.1.1 0 0 0 .1-.1h-.1Zm0 1.667h.1a.1.1 0 0 0-.1-.1v.1Zm-.832 0v-.1.1Zm-1.277-.25.038-.093-.038.092Zm-1.085-.724.071-.07-.07.07ZM11 16.61l-.092.038.092-.038Zm-.25-1.277h.1-.1Zm0-2.499h.1a.1.1 0 0 0-.1-.1v.1Zm-2.5 0v-.1a.1.1 0 0 0-.1.1h.1Zm0-1.666h-.1a.1.1 0 0 0 .1.1v-.1Zm2.5 0v.1a.1.1 0 0 0 .1-.1h-.1Zm0-2.499h.1-.1ZM11 7.391l-.092-.038.092.038Zm.723-1.084.071.07-.07-.07Zm1.085-.723.038.092-.038-.092Zm1.277-.25v.1-.1Zm.832 0v.1a.1.1 0 0 0 .1-.1h-.1Zm1.666 3.333h-.1a.1.1 0 0 0 .1.1v-.1Zm5 0v.1a.1.1 0 0 0 .1-.1h-.1Zm0-5h.1a.1.1 0 0 0-.1-.1v.1Zm-5 0v-.1a.1.1 0 0 0-.1.1h.1Zm0 16.666h-.1a.1.1 0 0 0 .1.1v-.1Zm5 0v.1a.1.1 0 0 0 .1-.1h-.1Zm0-5h.1a.1.1 0 0 0-.1-.1v.1Zm-5 0v-.1a.1.1 0 0 0-.1.1h.1ZM6.583 12h.1-.1Zm0-2.083h.1a.1.1 0 0 0-.1-.1v.1Zm0 4.166v.1a.1.1 0 0 0 .1-.1h-.1Zm-4.166 0h-.1a.1.1 0 0 0 .1.1v-.1Zm0-4.166v-.1a.1.1 0 0 0-.1.1h.1ZM16.583 1.9c-.975 0-1.766.791-1.766 1.767h.2c0-.866.701-1.567 1.566-1.567v-.2Zm5 0h-5v.2h5v-.2Zm1.767 1.767c0-.976-.791-1.767-1.767-1.767v.2c.866 0 1.567.701 1.567 1.567h.2Zm0 5v-5h-.2v5h.2Zm-1.767 1.766c.976 0 1.767-.79 1.767-1.766h-.2c0 .865-.701 1.566-1.567 1.566v.2Zm-5 0h5v-.2h-5v.2Zm-1.766-1.766c0 .975.79 1.766 1.766 1.766v-.2a1.567 1.567 0 0 1-1.566-1.566h-.2Zm0-1.667v1.667h.2V7h-.2Zm.1-.1h-.834v.2h.834v-.2Zm-.833 0h-.004v.2h.003v-.2Zm-.004 0a1.756 1.756 0 0 0-.676.132l.076.185a1.56 1.56 0 0 1 .6-.117v-.2Zm-.676.132a1.77 1.77 0 0 0-.573.382l.142.142c.145-.145.317-.26.507-.339l-.076-.185Zm-.573.382a1.757 1.757 0 0 0-.382.574l.185.076c.078-.19.193-.363.338-.508l-.141-.142Zm-.382.574a1.755 1.755 0 0 0-.132.676l.2-.001a1.56 1.56 0 0 1 .117-.6l-.185-.075Zm-.132.675v.004h.2v-.004h-.2Zm0 .004v6.666h.2V8.667h-.2Zm0 6.666v.004h.2v-.003h-.2Zm0 .003c-.001.232.044.462.132.676l.185-.076a1.554 1.554 0 0 1-.117-.599h-.2Zm.132.676c.088.215.218.41.382.574l.142-.142a1.556 1.556 0 0 1-.34-.508l-.184.076Zm.382.574c.164.164.359.294.573.382l.076-.185a1.555 1.555 0 0 1-.508-.339l-.141.142Zm.573.382c.215.088.444.133.676.132v-.2a1.58 1.58 0 0 1-.6-.117l-.076.185Zm.676.132h.004v-.2h-.004v.2Zm.003 0h.834v-.2h-.834v.2Zm.934-.1v-1.667h-.2V17h.2Zm0-1.667c0-.865.701-1.566 1.566-1.566v-.2c-.975 0-1.766.79-1.766 1.766h.2Zm1.566-1.566h5v-.2h-5v.2Zm5 0c.866 0 1.567.701 1.567 1.566h.2c0-.975-.791-1.766-1.767-1.766v.2Zm1.567 1.566v5h.2v-5h-.2Zm0 5c0 .866-.701 1.567-1.567 1.567v.2c.976 0 1.767-.791 1.767-1.767h-.2ZM21.583 21.9h-5v.2h5v-.2Zm-5 0a1.567 1.567 0 0 1-1.566-1.567h-.2c0 .976.79 1.767 1.766 1.767v-.2Zm-1.566-1.567v-1.666h-.2v1.666h.2Zm-.1-1.766h-.832v.2h.832v-.2Zm-.832 0a3.223 3.223 0 0 1-1.24-.243l-.075.185c.417.172.864.26 1.315.258v-.2Zm-1.24-.243a3.221 3.221 0 0 1-1.051-.701l-.142.141c.32.32.7.573 1.118.745l.076-.185Zm-1.051-.701c-.3-.301-.54-.659-.701-1.052l-.185.076c.172.418.425.798.745 1.117l.141-.141Zm-.701-1.052a3.223 3.223 0 0 1-.243-1.239h-.2c-.002.45.086.898.258 1.315l.185-.076Zm-.243-1.24v-2.498h-.2v2.499h.2Zm-2.6-2.398h2.5v-.2h-2.5v.2Zm.1 1.15v-1.25h-.2v1.25h.2ZM6.583 15.85c.976 0 1.767-.791 1.767-1.767h-.2c0 .866-.701 1.567-1.567 1.567v.2Zm-4.166 0h4.166v-.2H2.417v.2ZM.65 14.083c0 .976.791 1.767 1.767 1.767v-.2A1.567 1.567 0 0 1 .85 14.083h-.2Zm0-4.166v4.166h.2V9.917h-.2ZM2.417 8.15C1.44 8.15.65 8.941.65 9.917h.2c0-.866.701-1.567 1.567-1.567v-.2Zm4.166 0H2.417v.2h4.166v-.2ZM8.35 9.917c0-.976-.791-1.767-1.767-1.767v.2c.866 0 1.567.701 1.567 1.567h.2Zm0 1.25v-1.25h-.2v1.25h.2Zm2.4-.1h-2.5v.2h2.5v-.2Zm.1.1V8.668h-.2v2.499h.2Zm0-2.5c-.002-.424.08-.845.243-1.238l-.185-.076a3.41 3.41 0 0 0-.258 1.316l.2-.001Zm.243-1.238c.162-.393.4-.75.701-1.052l-.142-.141c-.319.32-.572.7-.744 1.117l.185.076Zm.701-1.052c.3-.3.658-.539 1.052-.7l-.076-.186a3.424 3.424 0 0 0-1.117.745l.141.141Zm1.052-.7a3.223 3.223 0 0 1 1.239-.244v-.2a3.423 3.423 0 0 0-1.315.258l.076.185Zm1.239-.244h.832v-.2h-.832v.2Zm.732-1.766v1.666h.2V3.667h-.2Zm1.666 2.498v.001h.2-.2Zm0 .002h.2-.2Zm.2 2.5v-2.5h-.2v2.5h.2Zm4.9-.1h-5v.2h5v-.2Zm-.1-4.9v5h.2v-5h-.2Zm-4.9.1h5v-.2h-5v.2Zm.1 2.398V3.667h-.2v2.498h.2Zm-.2 11.67v2.498h.2v-2.498h-.2Zm.1 2.598h5v-.2h-5v.2Zm5.1-.1v-5h-.2v5h.2Zm-.1-5.1h-5v.2h5v-.2Zm-5.1.1v2.5h.2v-2.5h-.2Zm0 2.5h.2-.2Zm0 0v.002h.2v-.002h-.2ZM6.683 12V9.917h-.2V12h.2Zm0 2.083V12h-.2v2.083h.2Zm-4.266.1h4.166v-.2H2.417v.2Zm-.1-4.266v4.166h.2V9.917h-.2Zm4.266-.1H2.417v.2h4.166v-.2Z"/>
</svg>
