<svg fill="none" xmlns="http://www.w3.org/2000/svg" viewBox="0 0 30 30">
  <path fill-rule="evenodd" clip-rule="evenodd" d="M13.61 25a2.262 2.262 0 0 1-1.615-.665l-6.318-6.318a2.265 2.265 0 0 1 0-3.23l8.456-8.457c.76-.76 2.138-1.33 3.183-1.33h5.416c1.235 0 2.28 1.045 2.28 2.28v5.416c0 .403-.085.856-.233 1.304h-1.588c.208-.443.348-.944.348-1.351V7.232a.852.852 0 0 0-.855-.855h-5.368v.047c-.665 0-1.71.428-2.185.903l-8.456 8.456a.832.832 0 0 0 0 1.187l6.318 6.319c.332.332.902.332 1.188 0L16 21.47v2.09l-.774.775A2.262 2.262 0 0 1 13.61 25Z" fill="currentColor"/>
  <path d="m11.995 24.335-.176.177.176-.177Zm-6.318-6.318.177-.177-.177.177Zm0-3.23.177.176-.177-.177Zm8.456-8.457-.177-.177.177.177ZM24.779 14v.25h.18l.057-.172L24.78 14Zm-1.588 0-.227-.107-.167.357h.394V14Zm-5.875-7.622v-.25h-.25v.25h.25Zm0 .047v.25h.25v-.25h-.25Zm-2.185.903-.177-.177.177.177Zm-8.456 8.456.176.177-.176-.177Zm0 1.187-.177.177.177-.177Zm6.318 6.319-.177.177.177-.177Zm1.188 0-.177-.177-.007.007-.006.007.19.163ZM16 21.47h.25v-.603l-.427.427.177.176Zm0 2.09.177.177.073-.073v-.103H16Zm-.774.775.176.177-.176-.177Zm-3.408.177a2.512 2.512 0 0 0 1.792.738v-.5a2.012 2.012 0 0 1-1.438-.592l-.354.354ZM5.5 18.193l6.319 6.319.353-.354-6.318-6.318-.354.353Zm0-3.584c-1 1-1 2.584 0 3.584l.354-.353a2.015 2.015 0 0 1 0-2.877l-.354-.354Zm8.456-8.456L5.5 14.61l.354.354 8.456-8.456-.354-.354Zm3.36-1.403c-.564 0-1.203.153-1.795.4-.592.246-1.156.595-1.565 1.003l.354.354c.351-.352.856-.668 1.404-.896.548-.229 1.12-.361 1.602-.361v-.5Zm5.416 0h-5.416v.5h5.416v-.5Zm2.53 2.53c0-1.373-1.157-2.53-2.53-2.53v.5c1.097 0 2.03.933 2.03 2.03h.5Zm0 5.416V7.28h-.5v5.416h.5Zm-.246 1.382c.155-.466.246-.946.246-1.382h-.5c0 .37-.079.796-.22 1.226l.474.156Zm-1.825.172h1.588v-.5h-1.588v.5Zm.098-1.601c0 .359-.126.822-.325 1.245l.453.213c.218-.464.372-1.002.372-1.458h-.5Zm0-5.416v5.416h.5V7.232h-.5Zm-.605-.605c.337 0 .605.268.605.605h.5c0-.613-.492-1.105-1.105-1.105v.5Zm-5.368 0h5.368v-.5h-5.368v.5Zm.25-.203v-.047h-.5v.047h.5Zm-2.259 1.08c.206-.206.553-.416.94-.575.387-.16.781-.255 1.069-.255v-.5c-.377 0-.839.119-1.26.292-.42.173-.833.414-1.102.684l.353.354ZM6.851 15.96l8.456-8.456-.353-.354-8.456 8.456.353.354Zm0 .834a.582.582 0 0 1 0-.834l-.353-.354c-.43.43-.43 1.111 0 1.541l.353-.353Zm6.319 6.318-6.32-6.317-.353.353 6.318 6.319.354-.354Zm.82.014c-.178.208-.577.23-.82-.014l-.354.354c.422.422 1.162.443 1.554-.014l-.38-.326Zm1.833-1.833-1.82 1.819.354.354 1.82-1.82-.354-.353Zm.427 2.267v-2.09h-.5v2.09h.5Zm-.848.95.775-.774-.354-.353-.774.774.353.354Zm-1.792.739c.684 0 1.318-.264 1.792-.738l-.353-.354c-.38.38-.887.592-1.439.592v.5ZM25 24v-5c0-.55-.45-1-1-1h-6c-.55 0-1 .45-1 1v5c0 .55.45 1 1 1h6c.55 0 1-.45 1-1Zm-3-2.5c0 .55-.45 1-1 1s-1-.45-1-1 .45-1 1-1 1 .45 1 1Z" fill="currentColor"/>
  <path d="M23.5 20v-2.5c0-1.4-1.1-2.5-2.5-2.5s-2.5 1.1-2.5 2.5V20" stroke="currentColor" stroke-miterlimit="10"/>
</svg>
