<svg viewBox="0 0 30 30" fill="none" xmlns="http://www.w3.org/2000/svg">
  <path fill-rule="evenodd" clip-rule="evenodd" d="M11.615 5.192c0-.934.758-1.692 1.693-1.692h2.538c.935 0 1.692.758 1.692 1.692v18.616c0 .934-.757 1.692-1.692 1.692h-2.538a1.692 1.692 0 0 1-1.693-1.692V5.192Zm4.231.339a.339.339 0 0 0-.338-.339h-1.862a.339.339 0 0 0-.338.339v17.938c0 .187.151.339.338.339h1.862a.339.339 0 0 0 .338-.339V5.531ZM4 19.577c0-.935.758-1.692 1.692-1.692h2.539c.934 0 1.692.757 1.692 1.692v4.23c0 .935-.758 1.693-1.692 1.693H5.692A1.692 1.692 0 0 1 4 23.808v-4.231Zm4.23.338a.339.339 0 0 0-.338-.338H6.031a.339.339 0 0 0-.339.338v3.554a.34.34 0 0 0 .339.339h1.861a.338.338 0 0 0 .339-.339v-3.554Zm12.693-9.646c-.934 0-1.692.758-1.692 1.693v11.846c0 .934.757 1.692 1.692 1.692h2.539c.934 0 1.692-.758 1.692-1.692V11.962c0-.935-.758-1.693-1.692-1.693h-2.539Zm2.2 1.693c.187 0 .339.151.339.338v11.17a.338.338 0 0 1-.339.338h-1.861a.338.338 0 0 1-.339-.339V12.3c0-.187.152-.338.339-.338h1.861Z" fill="currentColor"/>
</svg>
