<svg xmlns="http://www.w3.org/2000/svg" fill="none" viewBox="0 0 30 30">
  <path fill="currentColor" d="M22.576 11.994a1.212 1.212 0 0 0 0-2.424H9.14L10.703 8a1.212 1.212 0 0 0-1.709-1.709L5.358 9.928a1.212 1.212 0 0 0-.267 1.32 1.212 1.212 0 0 0 1.121.746h16.364Z"/>
  <path fill="currentColor" fill-rule="evenodd" d="M15.859 18.661c.091-.363.14-.754.14-1.161 0-.445-.059-.871-.167-1.263h7.955a1.213 1.213 0 0 1 1.121.745 1.212 1.212 0 0 1-.267 1.321l-3.636 3.637a1.214 1.214 0 0 1-2.049-.347 1.212 1.212 0 0 1 .34-1.362l1.564-1.57h-5.001Zm-3.633 1.862a3.636 3.636 0 0 0 1.275-1.83 3.615 3.615 0 0 0-.035-2.225 3.638 3.638 0 0 0-1.334-1.787 3.675 3.675 0 0 0-4.264 0 3.638 3.638 0 0 0-1.333 1.787 3.615 3.615 0 0 0-.036 2.226 3.636 3.636 0 0 0 1.275 1.829 5.482 5.482 0 0 0-2.714 2.606.588.588 0 0 0 .038.583.593.593 0 0 0 .51.288h1.413C7.2 22.76 8.465 21.8 10 21.8c1.535 0 2.8.96 2.979 2.2h1.412a.599.599 0 0 0 .511-.288.588.588 0 0 0 .038-.583 5.482 5.482 0 0 0-2.714-2.606ZM11.7 17.5a1.7 1.7 0 1 1-3.4 0 1.7 1.7 0 0 1 3.4 0Z" clip-rule="evenodd"/>
</svg>
