<svg viewBox="0 0 30 30" fill="none" xmlns="http://www.w3.org/2000/svg">
  <path fill-rule="evenodd" clip-rule="evenodd" d="M17.671 22.827a4.363 4.363 0 0 0 1.53-2.195 4.338 4.338 0 0 0-.042-2.67 4.366 4.366 0 0 0-1.6-2.145 4.41 4.41 0 0 0-5.117 0 4.366 4.366 0 0 0-1.6 2.145 4.338 4.338 0 0 0-.044 2.67c.267.873.802 1.64 1.53 2.195a6.578 6.578 0 0 0-3.256 3.127.705.705 0 0 0 .046.7.712.712 0 0 0 .613.346h1.246c.461-1.593 2.088-2.77 4.023-2.77 1.936 0 3.562 1.177 4.023 2.77h1.247a.716.716 0 0 0 .612-.346.705.705 0 0 0 .046-.7 6.578 6.578 0 0 0-3.257-3.127Zm-.179-3.489a2.492 2.492 0 1 1-4.984 0 2.492 2.492 0 0 1 4.984 0ZM15.002 3a1 1 0 0 1 .832.445l2.063 3.094 2.482-1.986a1 1 0 0 1 1.605.977l-1.333 6.669a1 1 0 0 1-.98.804h-9.337a1 1 0 0 1-.98-.804l-1.335-6.67a1 1 0 0 1 1.606-.976l2.482 1.986 2.063-3.094A1 1 0 0 1 15.002 3Zm0 2.803-1.836 2.753a1 1 0 0 1-1.456.226l-1.191-.952.635 3.173h7.696l.635-3.173-1.19.952a1 1 0 0 1-1.458-.226l-1.835-2.753Z" fill="currentColor"/>
</svg>
