<svg version="1.0" xmlns="http://www.w3.org/2000/svg" viewBox="0 0 191 191">
  <path d="m85.7 27.7-8.4 14.8 17 .3c9.3.1 17.2.1 17.4-.2.2-.2-.7-2.3-2.1-4.7-1.4-2.4-5.2-9-8.3-14.6-3.2-5.7-6.1-10.3-6.5-10.3-.3 0-4.4 6.6-9.1 14.7zM61 70.7c-7.4 12.9-16.1 28-19.4 33.6-3.2 5.6-6.8 11.8-7.8 13.7-1.1 1.9-9 15.6-17.5 30.3C7.8 163.1.6 175.8.3 176.6c-.4 1.2 12.8 1.4 94.6 1.4l95.1-.1-1.6-3.2c-.9-1.8-6-10.6-11.2-19.7-9.6-16.7-12.3-21.4-26.7-46.8-4.4-7.8-8.2-14.2-8.5-14.2-.3 0-4.8 7.4-10 16.5s-9.9 16.4-10.3 16.2c-.5-.1-2.1-2.3-3.4-4.7-1.4-2.5-4-7-5.8-10-1.8-3-4.4-7.5-5.7-10-4.6-8.3-31-53.5-31.6-54.2-.4-.3-6.8 9.9-14.2 22.9zm48 37.7c0 .8-16.4 29.9-24.5 43.4l-3.2 5.2-14.1-24.4C59.4 119.1 53 108 53 107.8c0-.2 12.6-.3 28-.3 16.3 0 28 .4 28 .9zm56 27.3c0 .5-1.6 3.4-3.4 6.5-3.4 5.6-5 8.4-11.6 20.3-1.9 3.3-3.5 6.2-3.7 6.4-.4.5-2.7-2.5-4.5-5.9-.7-1.4-3.1-5.7-5.4-9.5-2.2-3.9-5.5-9.6-7.3-12.8l-3.2-5.7h19.5c10.8 0 19.6.3 19.6.7z"/>
  <path d="M108.1 70c-5 8.8-9.1 16.3-9.1 16.7 0 .5 8.7.8 19.4.8h19.5l-2.8-5C126.8 67.5 118.7 54 118 54c-.4 0-4.9 7.2-9.9 16z"/>
</svg>
