<svg data-style="kdacolor" viewBox="0 0 225 64" xmlns="http://www.w3.org/2000/svg">
  <path d="M66.345 46.283v-28.57h4.372v11.874h.675A3004.61 3004.61 0 0 0 82.01 17.714h5.725a6431.239 6431.239 0 0 1-12.84 14.065c2.224 2.416 6.666 7.25 13.318 14.504H82.29c-1.802-2.02-5.433-6.056-10.894-12.115h-.675v12.115h-4.375Zm23.056 0c1.351-4.755 4.056-14.28 8.11-28.572h7.752a61093.8 61093.8 0 0 1 8.109 28.572h-4.534c-.319-1.115-.941-3.36-1.867-6.734H95.799c-.292 1.115-.914 3.36-1.867 6.734h-4.53Zm7.514-10.8h8.943c-.69-2.521-2.067-7.53-4.132-15.023h-.676c-.69 2.499-2.068 7.505-4.133 15.024h-.002Zm19.244 10.8v-28.57h11.41c3.791 0 6.691.971 8.705 2.91 2.039 1.94 3.062 4.849 3.062 8.725v5.34c0 3.905-1.02 6.813-3.062 8.725-2.014 1.912-4.917 2.867-8.705 2.867h-11.41v.003Zm4.455-3.985h6.997c2.463 0 4.292-.623 5.486-1.87 1.192-1.275 1.788-3.148 1.788-5.62v-5.62c0-2.498-.596-4.356-1.788-5.58-1.191-1.222-3.02-1.832-5.486-1.832h-6.997v20.522Zm23.69 3.985v-28.57h17.929v4.027h-13.557v8.169h12.445v4.026h-12.445v8.369h13.758v3.985h-18.13v-.006Zm22.746 0v-28.57h8.469a7664.45 7664.45 0 0 0 7.714 25.623h.676V17.714h4.333v28.572h-8.469a7900.584 7900.584 0 0 0-7.714-25.664h-.676v25.664h-4.333v-.003Zm25.041 0c1.351-4.755 4.056-14.28 8.11-28.572h7.752a61093.8 61093.8 0 0 1 8.109 28.572h-4.531c-.319-1.115-.941-3.36-1.867-6.734h-11.168c-.292 1.115-.915 3.36-1.868 6.734h-4.537Zm7.514-10.8h8.944c-.691-2.521-2.068-7.53-4.133-15.023h-.676c-.69 2.499-2.067 7.505-4.132 15.024h-.003Z" fill="#0F0F0F"/>
  <path d="m57.87 56-17.392-.009-21.679-16.92L27.616 32 57.87 56Zm0-48H40.487L18.799 24.93 27.616 32 57.87 8ZM18.794 55.991 8 47.463V16.537l10.794-8.528v47.982Z" fill="#4A9079"/>
</svg>
