<svg viewBox="0 0 33 32" fill="none" xmlns="http://www.w3.org/2000/svg">
  <path d="M16.376 30.655c8.099 0 14.664-6.565 14.664-14.663 0-8.099-6.565-14.664-14.664-14.664-8.098 0-14.664 6.565-14.664 14.664 0 8.098 6.566 14.663 14.664 14.663Z" stroke="#f5f6f6" stroke-width="2.5"/>
  <path d="M18.498 21.77a2.623 2.623 0 0 1-.181-.49 6.511 6.511 0 0 1-.128-.588 3.897 3.897 0 0 1-.567.502 4.097 4.097 0 0 1-.715.417 4.141 4.141 0 0 1-.855.267 4.574 4.574 0 0 1-1.014.107 5.01 5.01 0 0 1-1.635-.257 3.88 3.88 0 0 1-1.27-.716 3.274 3.274 0 0 1-.834-1.089c-.2-.427-.299-.89-.299-1.389 0-1.217.452-2.157 1.357-2.82.911-.669 2.268-1.004 4.07-1.004h1.655v-.683c0-.556-.182-.993-.545-1.314-.363-.327-.887-.491-1.57-.491-.606 0-1.047.132-1.325.395-.277.256-.416.602-.416 1.036h-2.97c0-.491.107-.958.32-1.4a3.54 3.54 0 0 1 .951-1.164c.42-.334.93-.598 1.528-.79.605-.2 1.296-.299 2.072-.299.698 0 1.346.085 1.944.256a4.664 4.664 0 0 1 1.57.759c.442.334.787.758 1.036 1.27.25.506.374 1.094.374 1.763v4.956c0 .62.04 1.133.118 1.538.078.406.192.755.341 1.047v.182h-3.012Zm-2.83-2.082a3.114 3.114 0 0 0 1.527-.385c.207-.114.385-.242.534-.384.15-.15.267-.3.353-.449v-1.986h-1.517c-.463 0-.858.046-1.186.138-.327.086-.594.21-.8.374a1.44 1.44 0 0 0-.46.577c-.1.22-.15.463-.15.726 0 .4.14.73.417.994.285.263.712.395 1.282.395Z" fill="#f5f6f6"/>
</svg>
