<svg fill="none" xmlns="http://www.w3.org/2000/svg" viewBox="0 0 30 30">
  <rect x="4" y="4" width="22" height="22" rx="11" fill="#328332"/>
  <path opacity=".6" d="M10.325 15.703c1.714.91 3.503 1.862 4.884 2.6l4.843-2.6a2325.737 2325.737 0 0 1-4.843 7.175c-1.632-2.396-3.433-5.039-4.884-7.175Zm.187-.72 4.702-2.508 4.641 2.49-4.638 2.513-4.706-2.494Zm4.697-3.313-4.884 2.571 4.863-7.119 4.864 7.135-4.843-2.586Z" fill="#fff"/>
  <path opacity=".7" d="m15.209 18.303 4.843-2.6c-1.753 2.605-4.843 7.175-4.843 7.175v-4.575Zm.005-5.829 4.641 2.492-4.638 2.512-.003-5.004Zm-.005-.803-.021-4.549 4.864 7.135-4.843-2.586Z" fill="#fff"/>
  <path opacity=".7" d="m10.512 14.984 4.703.386 4.64-.402-4.638 2.512-4.705-2.496Z" fill="#fff"/>
  <path d="m15.214 15.37 4.642-.402-4.639 2.512-.003-2.11Z" fill="#fff"/>
</svg>
