<svg width="30" height="30" fill="none" xmlns="http://www.w3.org/2000/svg">
  <rect width="30" height="30" rx="15" fill="#627EEA"/>
  <path d="M15.305 12.153V4.088c-.013 0-.02.006-.03.012-.013.01-.028.022-.066.022-.254.497-.524.975-.799 1.462-.108.192-.218.385-.327.582-.515.9-1.03 1.834-1.544 2.768a141.5 141.5 0 0 1-.844 1.52c-.28.497-.558.994-.83 1.491-.257.468-.522.935-.787 1.402-.266.468-.531.935-.788 1.403-.048.085-.096.161-.143.238a5.99 5.99 0 0 0-.147.246h.032c.02.021.028.016.038.01.007-.005.014-.01.027-.01.112-.052.233-.112.353-.173.121-.06.242-.121.354-.173.307-.165.584-.298.86-.43l.041-.02 1.062-.52.868-.415 1.062-.519c.225-.135.47-.249.704-.358.067-.03.133-.061.197-.092.116-.053.223-.107.331-.16.101-.05.203-.101.312-.152.032 0 .064-.034.064-.069ZM15.277 25.997a.08.08 0 0 0 .029.003v-5.435c0-.035 0-.07-.033-.07a7.196 7.196 0 0 0-.257-.155c-.088-.052-.177-.104-.257-.156a93.415 93.415 0 0 0-1.499-.96 91.637 91.637 0 0 1-1.525-.979 187.64 187.64 0 0 0-1.32-.83c-.442-.277-.884-.554-1.318-.83-.017 0-.025-.01-.033-.018-.008-.009-.016-.017-.032-.017 0 .017.008.026.016.034.008.009.016.017.016.034l.483.727c.389.618.79 1.22 1.19 1.818.227.342.454.681.676 1.021l1.93 2.908c.311.469.615.93.918 1.39.324.492.648.983.98 1.483.019.02.027.029.036.032Z" fill="#fff"/>
  <path d="M15.3 4v11.307h6.3L15.3 4ZM9 15.175l6.3-3.024v7.1L9 15.175ZM15.3 20.566v5.39l6.177-9.203-6.177 3.813Z" fill="#C0CBF6"/>
  <path d="M15.3 19.251v-7.1l6.3 3.156-6.3 3.944Z" fill="#8197EE"/>
</svg>