<svg width="30" height="30" fill="none" xmlns="http://www.w3.org/2000/svg">
  <rect width="30" height="30" rx="15" fill="#328332"/>
  <path opacity=".6" d="M8.625 15.958c2.337 1.241 4.776 2.54 6.66 3.546l6.604-3.546c-2.391 3.553-4.384 6.51-6.605 9.784-2.224-3.266-4.681-6.87-6.659-9.784Zm.254-.98 6.413-3.422 6.329 3.397-6.326 3.426-6.416-3.401Zm6.405-4.518-6.659 3.506 6.63-9.708 6.634 9.73-6.605-3.528Z" fill="#fff"/>
  <path opacity=".7" d="m15.284 19.504 6.605-3.546a7441.882 7441.882 0 0 1-6.605 9.784v-6.238Zm.008-7.948 6.329 3.397-6.326 3.426-.003-6.823Zm-.008-1.096-.029-6.202 6.634 9.73-6.605-3.528Z" fill="#fff"/>
  <path opacity=".7" d="m8.88 14.978 6.412.526 6.33-.548-6.326 3.426-6.417-3.404Z" fill="#fff"/>
  <path d="m15.292 15.504 6.33-.548-6.326 3.426-.004-2.878Z" fill="#fff"/>
</svg>