<svg width="40" height="40" fill="none" xmlns="http://www.w3.org/2000/svg">
  <path d="M11 21.338c3.264 1.733 6.669 3.547 9.299 4.95l9.223-4.95c-3.34 4.96-6.122 9.091-9.223 13.662-3.107-4.56-6.537-9.593-9.299-13.662Zm.355-1.369 8.954-4.778 8.838 4.743-8.833 4.784-8.96-4.749Zm8.944-6.309L11 18.556 20.258 5l9.264 13.586-9.223-4.926Z" fill="currentColor" fill-opacity=".48"/>
  <path d="m20.299 26.289 9.223-4.951C26.182 26.298 20.299 35 20.299 35v-8.711Zm.01-11.098 8.838 4.743-8.833 4.784-.005-9.527Zm-.01-1.53L20.259 5l9.263 13.586-9.223-4.925Z" fill="currentColor" fill-opacity=".48"/>
  <path d="m11.355 19.97 8.955.734 8.838-.765-8.834 4.784-8.959-4.754Z" fill="currentColor" fill-opacity=".48"/>
  <path d="m20.31 20.704 8.838-.765-8.833 4.784-.005-4.019Z" fill="currentColor" fill-opacity=".48"/>
</svg>