<svg width="30" height="30" viewBox="0 0 30 30" fill="none" xmlns="http://www.w3.org/2000/svg">
<path fill-rule="evenodd" clip-rule="evenodd" d="M12.4207 29.7765C13.2725 29.9252 14.1354 30 15 30C18.4886 30 21.868 28.7841 24.5568 26.5615C25.4074 25.8582 26.1779 25.0633 26.8544 24.191C26.1893 23.2984 23.8568 24.4711 22.8926 24.9559C22.8505 24.9771 22.811 24.9969 22.7744 25.0152C21.8598 25.4725 18.6128 27.3933 15.5488 28.4909C13.6841 29.1588 11.7814 29.3568 9.8405 29.0847C10.6782 29.3916 11.5418 29.6231 12.4207 29.7765ZM27.8726 22.7004C27.1505 22.0079 25.3444 22.4136 22.4543 23.9177C21.5107 24.4087 20.6036 24.9484 19.7043 25.4834C16.3443 27.4826 13.0944 29.4163 8.46267 28.5005C7.85808 28.2077 7.27928 27.8776 6.72845 27.5137C10.8311 28.2433 13.4303 26.5007 18.3384 22.1799C23.689 17.4695 25.3354 16.875 27.622 16.6463C28.1212 16.5964 28.5191 16.6822 28.8155 16.9037C29.2862 17.2552 29.5014 17.9487 29.4613 18.984C29.1035 20.2829 28.5706 21.5336 27.8726 22.7004ZM4.53379 25.7457C4.86803 26.0714 5.21834 26.3822 5.5839 26.677C7.05164 27.1817 8.31534 27.2528 9.375 26.8903C11.1128 26.2957 12.5305 25.3811 14.2226 23.9634C15.9146 22.5457 19.8018 18.8872 20.3963 18.4756C20.4602 18.4314 20.5635 18.3529 20.7015 18.2483C21.8464 17.3793 25.3639 14.7093 28.2622 14.9543C28.9385 15.0114 29.5018 15.4272 29.9519 16.2015C29.9839 15.8027 30 15.4019 30 15C30 14.421 29.9673 13.8498 29.9034 13.2879C29.0146 9.38524 26.9684 9.43976 24.6951 9.78658C21.997 10.1982 18.7957 13.0792 14.7256 17.8353C10.6555 22.5914 9.42073 23.8719 7.6372 25.0609C6.65476 25.7159 5.62029 25.9442 4.53379 25.7457ZM29.078 9.81037C28.83 9.13774 28.5351 8.48781 28.1973 7.86439C27.8938 7.46927 27.5649 7.05817 27.2104 6.6311C25.1982 4.20732 22.9116 3.88719 19.9848 4.6189C17.0579 5.35061 14.7713 8.14024 13.7652 9.2378C11.8445 11.1128 9.375 15.5945 8.68902 16.6463C8.00305 17.6982 7.47889 18.8309 5.57927 21.5396C4.62688 22.8976 3.70964 23.6395 2.82754 23.7654C3.16266 24.2309 3.52469 24.6775 3.91211 25.1028C6.29051 25.6109 8.50227 22.9834 9.53369 21.7581C9.6698 21.5964 9.78538 21.4591 9.87805 21.3567C10.747 20.3963 16.0518 13.7195 17.3323 12.5762C17.3526 12.5581 17.3737 12.5393 17.3955 12.5198C18.7531 11.3067 23.1031 7.41933 26.4787 8.09451C27.5383 8.30646 28.4048 8.87842 29.078 9.81037ZM1.32203 21.1578C1.81581 20.9836 2.35074 20.12 2.92683 18.5671C3.97866 15.7317 5.16768 12.8049 5.48781 12.0732C5.80793 11.3415 6.76829 8.3689 9.23781 5.57927C11.7073 2.78963 14.3598 0.594511 19.436 1.14329C20.9339 1.30524 22.7155 2.13311 24.7807 3.62689C25.2929 4.06774 25.7749 4.54262 26.2233 5.04805C25.394 4.24537 24.5493 3.67549 23.689 3.33841C22.5457 2.8811 19.8933 2.7439 17.2866 4.20732C14.6799 5.67073 11.5244 9.00915 8.68902 14.0396C7.95732 15.0914 5.53354 19.6189 4.84756 20.3963C4.68573 20.5797 4.52643 20.8319 4.35408 21.1047C3.8636 21.8811 3.26729 22.8249 2.20538 22.8292C1.87646 22.2918 1.58134 21.7335 1.32203 21.1578ZM0.897954 20.1131C0.634759 19.3876 0.426618 18.639 0.277271 17.8733C0.277326 17.8728 0.277381 17.8722 0.277435 17.8716C0.0929099 16.9255 0 15.9639 0 15C0 6.71579 6.71572 -7.15256e-07 15 -7.15256e-07C15.2506 -7.15256e-07 15.5013 0.00621822 15.7516 0.0188402C15.7522 0.0187182 15.7529 0.0186559 15.7535 0.0186559C16.3463 0.0479242 16.93 0.111582 17.5027 0.207802C16.7707 0.179143 16.2261 0.186097 15.8689 0.228658C13.9482 0.457316 10.5183 1.18902 6.72256 6.76829C5.25915 8.55183 3.84146 13.0793 3.52134 13.811C3.20122 14.5427 2.42378 16.9207 2.24085 17.378C2.20981 17.4556 2.16426 17.5912 2.1069 17.762C1.8555 18.5105 1.37716 19.9347 0.897954 20.1131Z" fill="url(#paint0_linear_3509_30)"/>
<defs>
<linearGradient id="paint0_linear_3509_30" x1="5.91666" y1="27.1409" x2="24.7568" y2="3.61877" gradientUnits="userSpaceOnUse">
<stop stop-color="#604AD0"/>
<stop offset="1" stop-color="#3BB5FF"/>
</linearGradient>
</defs>
</svg>
