<svg version="1.0" xmlns="http://www.w3.org/2000/svg" viewBox="0 -50 243 243">
  <path d="M106.573 35.282A43195.432 43195.432 0 0 1 25.018 176.5C5.467 210.222 2 216.39 2 217.45c0 .303 8.681.55 19.291.55h19.292l6.249-11.25A2856.28 2856.28 0 0 1 55.637 191c1.405-2.475 7.648-13.5 13.873-24.5s19.616-34.625 29.759-52.5c10.142-17.875 19.219-34.014 20.171-35.865 1.921-3.737 2.251-3.573 5.779 2.865 1.356 2.475 11.144 19.8 21.75 38.5 29.491 51.995 44.21 78.044 50.136 88.729l5.395 9.729 19.605-.229 19.606-.229-15.009-26c-27.435-47.524-36.225-62.732-55.199-95.5-10.35-17.875-19.985-34.556-21.411-37.07-15.908-28.041-27.777-47.924-28.592-47.898-.55.018-7.267 10.93-14.927 24.25" fill="#0082FFFF" stroke="#000000FF"/>
  <path d="M113.256 147.699C92.01 184.161 73 217.146 73 217.551c0 .247 21.825.449 48.5.449s48.5-.229 48.5-.509c0-.279-2.542-4.892-5.648-10.25a58509.859 58509.859 0 0 1-34.569-59.741c-3.812-6.6-7.281-12.36-7.708-12.801-.427-.44-4.396 5.41-8.819 13" fill="#0082FFFF" stroke="#000000FF"/>
</svg>
