<svg viewBox="0 0 34 34" fill="none" xmlns="http://www.w3.org/2000/svg">
  <path fill-rule="evenodd" clip-rule="evenodd" d="m13.117 21.965 1.423-1.107c4.648-3.62 11.346-2.782 14.972 1.862l1.11 1.421-2.842 2.22-1.11-1.422c-2.405-3.079-6.84-3.63-9.915-1.236l-1.422 1.108-2.216-2.846Z" fill="#D8CAFF" stroke="#8752F3" stroke-width=".6" stroke-miterlimit="10" stroke-linecap="square"/>
  <path d="M24.116 28.842a2.56 2.56 0 1 0-5.112-.313 2.56 2.56 0 0 0 5.112.313Z" fill="#D8CAFF" stroke="#8752F3" stroke-width=".6" stroke-miterlimit="10" stroke-linecap="square"/>
  <path fill-rule="evenodd" clip-rule="evenodd" d="m10.39 14.722 1.493 1.01c4.877 3.301 6.152 9.934 2.854 14.817l-1.01 1.494-2.988-2.019 1.01-1.494c2.186-3.237 1.337-7.628-1.887-9.811l-1.494-1.01 2.022-2.987Z" fill="#D8CAFF" stroke="#8752F3" stroke-width=".6" stroke-miterlimit="10" stroke-linecap="square"/>
  <path d="M9.16 24.98a2.56 2.56 0 1 0-5.112-.313 2.56 2.56 0 0 0 5.112.313Z" fill="#D8CAFF" stroke="#8752F3" stroke-width=".6" stroke-miterlimit="10" stroke-linecap="square"/>
  <path fill-rule="evenodd" clip-rule="evenodd" d="m1.994 14.938 1.732.502a7.055 7.055 0 0 0 8.742-4.824l.5-1.733 3.465.998-.499 1.733c-1.63 5.662-7.55 8.93-13.212 7.29L.99 18.402l1.004-3.464Z" fill="#D8CAFF" stroke="#8752F3" stroke-width=".6" stroke-miterlimit="10" stroke-linecap="square"/>
  <path d="M8.208 9.565a2.56 2.56 0 1 0-5.111-.313 2.56 2.56 0 0 0 5.111.313Z" fill="#D8CAFF" stroke="#8752F3" stroke-width=".6" stroke-miterlimit="10" stroke-linecap="square"/>
  <path fill-rule="evenodd" clip-rule="evenodd" d="m13.635 1.966.06 1.803a7.058 7.058 0 0 0 7.288 6.821l1.802-.059.118 3.605-1.802.059c-5.893.193-10.817-4.425-11.011-10.308l-.06-1.802 3.605-.119Z" fill="#D8CAFF" stroke="#8752F3" stroke-width=".6" stroke-miterlimit="10" stroke-linecap="square"/>
  <path d="M22.576 3.897a2.56 2.56 0 1 0-5.112-.314 2.56 2.56 0 0 0 5.112.314Zm9.837 11.913a2.56 2.56 0 1 0-5.112-.314 2.56 2.56 0 0 0 5.112.313Z" fill="#D8CAFF" stroke="#8752F3" stroke-width=".6" stroke-miterlimit="10" stroke-linecap="square"/>
  <path fill-rule="evenodd" clip-rule="evenodd" d="m28.341 5.633 1.229 3.39-1.7.61a7.056 7.056 0 0 0-4.24 9.044l.092.259a10.629 10.629 0 0 0-3.84-.263c-1.219-5.178 1.623-10.569 6.76-12.43l1.7-.61Z" fill="#D8CAFF" stroke="#8752F3" stroke-width=".6" stroke-miterlimit="10" stroke-linecap="square"/>
</svg>
