<svg viewBox="0 0 894 894" fill="none" xmlns="http://www.w3.org/2000/svg">
  <g clip-path="url(#a)">
    <path d="M447 894.14c246.949 0 447.14-200.191 447.14-447.14C894.14 200.052 693.949-.14 447-.14 200.052-.14-.14 200.052-.14 447c0 246.949 200.192 447.14 447.14 447.14Z" fill="#C15E97"/>
    <path d="M450.386 329.873 512.68 226.11c12.1-10.06 28.33-10.15 40.31.05 42.751 67.491 82.506 137.285 122.266 207.085 26.226 46.041 52.454 92.086 79.544 137.475 22.87 34.15-17.54 69.78-47.64 40.95L533.99 312.08 362.11 608.52c-21.28 29.06-64.6 7.96-55.65-26.68l107.84-188.9c.69-4.58-12.375-26.689-18.855-37.655a505.04 505.04 0 0 1-3.018-5.155c-3.32-5.783-22.677-39.499-24.557-38.06L197.15 610.8c-26.92 27.28-66.37 1.94-52.09-34.25l204.87-350.43c13.05-10.89 30.8-10.07 42.54 2.22l57.916 101.533ZM523.34 439.72c62.96-11.66 64.42 77.06 10.64 77.06-46.91 0-51.9-69.42-10.64-77.06Z" fill="#fff"/>
  </g>
  <defs>
    <clipPath id="a">
      <path fill="#fff" d="M0 0h894v894H0z"/>
    </clipPath>
  </defs>
</svg>
