<svg viewBox="0 0 142 32" fill="none" xmlns="http://www.w3.org/2000/svg">
  <rect width="32" height="32" rx="8" fill="#F04438"/>
  <path d="m6 9 .005.008L6 9l4.052 6.19h5.25l-.012-.017.011.017-1.192-1.822h3.784l-4.517 6.901L16 24.277 26 9H6ZM50.281 19.646h3.708c-.42.422-.952.747-1.599.975-.72.255-1.547.382-2.481.382-.934 0-1.794-.162-2.502-.488a3.535 3.535 0 0 1-1.626-1.464c-.378-.65-.567-1.455-.567-2.417 0-.962.172-1.752.515-2.374a3.285 3.285 0 0 1 1.472-1.4c.638-.31 1.397-.465 2.276-.465.713 0 1.359.088 1.935.265.577.178 1.061.431 1.452.764.392.333.648.731.772 1.197h4.817a7.079 7.079 0 0 0-1.482-3.265c-.768-.946-1.78-1.689-3.036-2.225-1.256-.538-2.756-.806-4.499-.806-1.263 0-2.44.18-3.531.541a8.607 8.607 0 0 0-2.883 1.59 7.147 7.147 0 0 0-1.935 2.597c-.46 1.032-.69 2.226-.69 3.582 0 1.357.23 2.552.69 3.583a7.31 7.31 0 0 0 1.904 2.597c.81.7 1.743 1.23 2.8 1.59 1.056.361 2.189.542 3.397.542 1.29 0 2.415-.194 3.377-.583.961-.389 1.757-.925 2.388-1.612.025-.026.048-.053.072-.08v2.274h3.572V16.21H50.28v3.435h.001ZM67.141 8.685l-7.053 16.26h5.115l1.316-3.222h7.59l1.31 3.223h5.138L73.482 8.685h-6.34Zm.989 9.095 2.19-5.364 2.184 5.364H68.13ZM93.644 19.682 89.438 8.685h-7.391v16.26h4.55V13.013l4.653 11.934h4.776l4.632-11.96v11.96h4.57V8.685h-7.411l-4.173 10.997ZM107.314 8.685v16.26h14.638v-3.943h-9.544v-2.448h8.824v-3.477h-8.824v-2.448h9.544V8.685h-14.638ZM124.038 8.685v3.859h9.705l-7.833 12.402h5.545l7.551-12.34 2.4-3.921h-17.368Z" fill="#fff"/>
</svg>
