<svg viewBox="0 0 135 32" fill="none" xmlns="http://www.w3.org/2000/svg">
  <path d="M131.146 13.29c1.024 0 1.841.336 2.45 1.006.61.67.914 1.64.914 2.907V23h-1.883v-5.23c0-.877-.165-1.554-.494-2.03-.329-.475-.829-.713-1.499-.713-.683 0-1.268.244-1.756.732-.475.475-.713 1.158-.713 2.048V23h-1.883v-9.49h1.664c.024.597.061 1.115.109 1.554.317-.585.738-1.024 1.262-1.317.537-.304 1.146-.457 1.829-.457ZM122.643 11.973c-.317 0-.591-.121-.823-.365a1.205 1.205 0 0 1-.347-.86c0-.329.115-.61.347-.84.232-.245.506-.367.823-.367.341 0 .628.122.859.366.232.232.348.512.348.841 0 .33-.122.616-.366.86a1.118 1.118 0 0 1-.841.365ZM123.594 23h-1.884v-9.49h1.884V23ZM115.388 13.29c1.134 0 2.048.336 2.743 1.006.707.67 1.06 1.634 1.06 2.89V23h-1.627a12.068 12.068 0 0 0-.091-1.17c-.586.914-1.524 1.371-2.816 1.371a4.386 4.386 0 0 1-1.756-.347 3.036 3.036 0 0 1-1.262-1.006c-.316-.439-.475-.97-.475-1.59 0-.94.384-1.683 1.152-2.232.768-.548 1.749-.823 2.944-.823.671 0 1.359.092 2.066.275v-.037c0-.865-.17-1.5-.512-1.902-.341-.414-.853-.621-1.536-.621-.548 0-1.011.122-1.389.365-.366.232-.677.573-.933 1.024l-1.39-.804c.305-.67.799-1.207 1.481-1.61.683-.402 1.463-.603 2.341-.603Zm1.938 5.614c-.731-.183-1.371-.274-1.92-.274-.731 0-1.298.14-1.7.42-.403.28-.604.67-.604 1.17 0 .452.165.811.494 1.08.329.255.762.383 1.298.383.671 0 1.244-.189 1.719-.566.476-.39.713-.927.713-1.61v-.603ZM105.735 13.29c1.012 0 1.823.342 2.432 1.024.622.67.933 1.634.933 2.89V23h-1.884v-5.23c0-.878-.164-1.554-.493-2.03-.33-.475-.829-.713-1.5-.713-.683 0-1.268.244-1.755.732-.476.475-.713 1.158-.713 2.048V23h-1.884V9.084h1.884v5.797c.316-.524.731-.92 1.243-1.188a3.756 3.756 0 0 1 1.737-.403ZM94.468 21.409c.72 0 1.335-.177 1.847-.53.512-.354.92-.848 1.225-1.482l1.61.951c-.354.866-.945 1.56-1.774 2.085-.83.512-1.786.768-2.871.768a5.979 5.979 0 0 1-3.145-.86c-.939-.585-1.682-1.401-2.231-2.45-.549-1.048-.823-2.249-.823-3.602 0-1.353.274-2.554.823-3.602.549-1.049 1.292-1.86 2.23-2.432.952-.573 2-.86 3.146-.86 1.085 0 2.042.262 2.87.787.83.511 1.421 1.2 1.775 2.066l-1.61.95c-.304-.633-.713-1.127-1.225-1.48-.512-.354-1.127-.53-1.847-.53-.792 0-1.499.213-2.12.64-.622.414-1.104 1.011-1.445 1.791-.342.768-.512 1.658-.512 2.67s.17 1.908.512 2.688c.341.768.823 1.365 1.444 1.792a3.66 3.66 0 0 0 2.121.64ZM77.53 13.29c1.134 0 2.049.336 2.743 1.006.708.67 1.061 1.634 1.061 2.89V23h-1.627a11.936 11.936 0 0 0-.092-1.17c-.585.914-1.524 1.371-2.816 1.371a4.381 4.381 0 0 1-1.755-.347 3.033 3.033 0 0 1-1.262-1.006c-.317-.439-.475-.97-.475-1.59 0-.94.384-1.683 1.152-2.232.768-.548 1.749-.823 2.944-.823.67 0 1.359.092 2.066.275v-.037c0-.865-.17-1.5-.512-1.902-.341-.414-.853-.621-1.536-.621-.549 0-1.012.122-1.39.365-.366.232-.676.573-.932 1.024l-1.39-.804c.305-.67.798-1.207 1.481-1.61.683-.402 1.463-.603 2.34-.603Zm1.939 5.614c-.731-.183-1.371-.274-1.92-.274-.732 0-1.298.14-1.7.42-.403.28-.604.67-.604 1.17 0 .452.164.811.494 1.08.329.255.761.383 1.298.383.67 0 1.243-.189 1.719-.566.475-.39.713-.927.713-1.61v-.603ZM68.735 21.5c.853 0 1.536-.396 2.048-1.188l1.444.841c-.329.683-.798 1.195-1.408 1.536-.597.341-1.286.512-2.066.512a4.65 4.65 0 0 1-2.34-.603 4.39 4.39 0 0 1-1.683-1.72c-.414-.755-.622-1.633-.622-2.632 0-1 .208-1.871.622-2.615.415-.756.975-1.335 1.682-1.737a4.65 4.65 0 0 1 2.341-.604c.78 0 1.469.17 2.066.512.61.342 1.08.854 1.408 1.536l-1.444.841c-.512-.78-1.195-1.17-2.048-1.17-.793 0-1.433.293-1.92.878-.488.573-.732 1.36-.732 2.359 0 1.012.244 1.81.732 2.395.487.573 1.127.86 1.92.86ZM53.251 18.246c0-.963.213-1.823.64-2.579a4.618 4.618 0 0 1 1.7-1.755 4.574 4.574 0 0 1 2.323-.622c.817 0 1.578.208 2.285.622.708.414 1.275 1 1.701 1.755.427.756.64 1.616.64 2.579 0 .963-.213 1.822-.64 2.578a4.618 4.618 0 0 1-1.7 1.755 4.442 4.442 0 0 1-2.286.622 4.574 4.574 0 0 1-2.322-.622 4.618 4.618 0 0 1-1.701-1.755c-.427-.756-.64-1.615-.64-2.578Zm1.975 0c0 1 .25 1.792.75 2.377.511.585 1.151.878 1.92.878.78 0 1.42-.293 1.92-.878s.75-1.378.75-2.377c0-1-.257-1.792-.769-2.377a2.392 2.392 0 0 0-1.901-.878c-.769 0-1.409.292-1.92.878-.5.585-.75 1.377-.75 2.377ZM49.372 9.615h1.554V23h-1.901v-9.691l-3.95 6.198h-1.116l-3.986-6.235V23h-1.865V9.615h1.646l4.809 7.625 4.809-7.625Z" fill="#000"/>
  <g clip-path="url(#a)">
    <path d="M16 32.005c8.84 0 16.005-7.166 16.005-16.005C32.005 7.16 24.84-.005 16-.005 7.16-.005-.005 7.161-.005 16c0 8.84 7.166 16.005 16.005 16.005Z" fill="#000"/>
    <path d="m16.121 11.808 2.23-3.715a1.093 1.093 0 0 1 1.443.002c1.53 2.416 2.953 4.914 4.376 7.413a279.833 279.833 0 0 0 2.847 4.92c.819 1.223-.627 2.498-1.705 1.466l-6.198-10.723-6.153 10.61c-.761 1.04-2.312.285-1.992-.954l3.86-6.762c.025-.164-.443-.955-.674-1.348l-.096-.164-.012-.02c-.12-.207-.812-1.414-.88-1.363l-6.11 10.693c-.964.977-2.376.07-1.865-1.226l7.333-12.543c.467-.39 1.103-.36 1.523.08l2.073 3.634Zm2.612 3.931c2.253-.417 2.305 2.759.38 2.759-1.679 0-1.857-2.485-.38-2.759Z" fill="#fff"/>
  </g>
  <defs>
    <clipPath id="a">
      <path fill="#fff" d="M0 0h32v32H0z"/>
    </clipPath>
  </defs>
</svg>
