<svg viewBox="0 0 1201 263" fill="none" xmlns="http://www.w3.org/2000/svg">
  <g clip-path="url(#logo-placeholder_svg__a)" fill="#0000C9">
    <path d="M142.395 4.944 1.953 248.168C-1.861 254.768 2.9 263 10.5 263h32.192l99.65-176.552c3.787-6.706 13.44-6.706 17.2 0L259.193 263h32.165c7.601 0 12.361-8.232 8.548-14.833L159.49 4.945c-3.814-6.602-13.308-6.602-17.121 0h.026Z"/>
    <path d="M141.685 165.033 85.113 263h131.605l-56.571-97.967c-4.103-7.128-14.386-7.128-18.489 0h.027ZM484.687 182.101h-87.711l-20.645 54.467h-35.61l82.608-210.137h35.321l82.608 210.137h-35.61l-20.961-54.467Zm-76.638-29.035h65.566l-30.824-80.82c-.894-2.104-1.499-4.497-1.788-7.18-.29 2.683-.895 5.076-1.789 7.18l-31.139 80.82h-.026ZM646.457 114.984c-1.499-.29-2.893-.605-5.575-.605-29.641 0-47.288 20.409-47.288 60.542v61.674h-32.323V89.841h32.323v27.247c6.575-19.462 22.46-30.824 45.499-30.824 3.288 0 5.287.29 7.391.605v28.141l-.027-.026ZM761.547 115.01h-37.714v67.38c0 18.858 7.18 26.037 26.037 26.037 3.892 0 7.495 0 11.677-.289v27.826c-4.497.289-12.282.604-17.963.604-39.213 0-52.074-20.356-52.074-54.782v-66.802h-25.143V86.843h25.143V45.999h32.323v40.844h37.714V115.01ZM813.488 169.714c2.393 24.853 21.54 40.712 45.21 40.712 19.146 0 34.426-8.389 41.001-22.144h33.533c-8.969 30.245-38.609 49.68-74.245 49.68-46.998 0-78.137-35.321-78.137-77.532 0-42.212 32.638-77.532 77.216-77.532 44.579 0 77.217 35.031 77.217 77.532 0 3.287 0 6.891-.289 9.284H813.462h.026Zm88.315-22.46c-2.998-21.54-21.25-36.82-43.71-36.82-22.461 0-40.397 14.675-43.711 36.82H901.803ZM955.246 26.3h32.323v157.59c0 17.068 8.389 25.142 22.461 25.142 2.68 0 8.05 0 11.04-.289v27.536c-4.18.289-12.22.605-17.62.605-32.029 0-48.178-17.358-48.178-52.074V26.3h-.026ZM1168.65 236.568v-22.854c-9.58 14.675-29.64 24.248-51.79 24.248-40.71 0-76.64-29.929-76.64-77.532 0-47.603 35.93-77.532 76.64-77.532 22.15 0 42.21 9.573 51.79 24.248V85.449h32.32v151.093h-32.32v.026Zm-47.9-27.036c25.75 0 47.9-19.462 47.9-49.102 0-29.64-22.15-49.102-47.9-49.102-25.74 0-47.89 19.462-47.89 49.102 0 29.64 22.15 49.102 47.89 49.102Z"/>
  </g>
  <defs>
    <clipPath id="logo-placeholder_svg__a">
      <path fill="#fff" transform="translate(.61)" d="M0 0h1200.36v263H0z"/>
    </clipPath>
  </defs>
</svg>
