<svg xmlns="http://www.w3.org/2000/svg" xmlns:xlink="http://www.w3.org/1999/xlink" viewBox="0 0 300 53">
  <defs>
    <clipPath id="logo-placeholder_svg__b">
      <path d="M0 0h300v53H0z"/>
    </clipPath>
    <clipPath id="logo-placeholder_svg__c">
      <path d="M0 0h300v53H0z"/>
    </clipPath>
    <clipPath id="logo-placeholder_svg__d">
      <path d="M0 0h300v53H0z"/>
    </clipPath>
    <clipPath id="logo-placeholder_svg__e">
      <path d="M0 0h300v53H0z"/>
    </clipPath>
    <clipPath id="logo-placeholder_svg__f">
      <path d="M0 0h300v53H0z"/>
    </clipPath>
    <clipPath id="logo-placeholder_svg__g">
      <path d="M0 0h300v53H0z"/>
    </clipPath>
    <clipPath id="logo-placeholder_svg__h">
      <path d="M0 0h300v53H0z"/>
    </clipPath>
    <clipPath id="logo-placeholder_svg__i">
      <path d="M0 0h300v53H0z"/>
    </clipPath>
    <mask id="logo-placeholder_svg__k">
      <g filter="url(#logo-placeholder_svg__a)">
        <path style="fill:currentColor;fill-opacity:.976471;stroke:none" d="M0 0h300v53H0z"/>
      </g>
    </mask>
    <mask id="logo-placeholder_svg__m">
      <g filter="url(#logo-placeholder_svg__a)">
        <path style="fill:currentColor;fill-opacity:.976471;stroke:none" d="M0 0h300v53H0z"/>
      </g>
    </mask>
    <mask id="logo-placeholder_svg__o">
      <g filter="url(#logo-placeholder_svg__a)">
        <path style="fill:currentColor;fill-opacity:.964706;stroke:none" d="M0 0h300v53H0z"/>
      </g>
    </mask>
    <mask id="logo-placeholder_svg__q">
      <g filter="url(#logo-placeholder_svg__a)">
        <path style="fill:currentColor;fill-opacity:.988235;stroke:none" d="M0 0h300v53H0z"/>
      </g>
    </mask>
    <mask id="logo-placeholder_svg__s">
      <g filter="url(#logo-placeholder_svg__a)">
        <path style="fill:currentColor;fill-opacity:.968627;stroke:none" d="M0 0h300v53H0z"/>
      </g>
    </mask>
    <mask id="logo-placeholder_svg__u">
      <g filter="url(#logo-placeholder_svg__a)">
        <path style="fill:currentColor;fill-opacity:.976471;stroke:none" d="M0 0h300v53H0z"/>
      </g>
    </mask>
    <mask id="logo-placeholder_svg__w">
      <g filter="url(#logo-placeholder_svg__a)">
        <path style="fill:currentColor;fill-opacity:.964706;stroke:none" d="M0 0h300v53H0z"/>
      </g>
    </mask>
    <mask id="logo-placeholder_svg__y">
      <g filter="url(#logo-placeholder_svg__a)">
        <path style="fill:currentColor;fill-opacity:.976471;stroke:none" d="M0 0h300v53H0z"/>
      </g>
    </mask>
    <g id="logo-placeholder_svg__j" clip-path="url(#logo-placeholder_svg__b)">
      <path style="stroke:none;fill-rule:evenodd;fill:#0081ff;fill-opacity:1" d="M29.918-.086h.332c10 17.668 20 35.336 30 53H50.7c-6.9-12.281-13.798-24.57-20.7-36.86-6.844 12.29-13.688 24.579-20.531 36.86H-.082v-.34l30-52.66Zm0 0"/>
    </g>
    <g id="logo-placeholder_svg__l" clip-path="url(#logo-placeholder_svg__c)">
      <path style="stroke:none;fill-rule:evenodd;fill:currentColor;fill-opacity:1" d="M147.738 52.914h-6.035a1373.064 1373.064 0 0 0-8.715-18.516c-3.183-.168-6.367-.226-9.55-.168v18.684h-5.032V10.277c6.375.047 12.746.188 19.11.426 5.629 1.942 8.53 5.934 8.714 11.977-.039 4.304-1.824 7.617-5.363 9.937-.855.43-1.691.856-2.515 1.274 3.132 6.343 6.257 12.687 9.386 19.023Zm-24.3-37.71c4.246-.028 8.492 0 12.734.085 3.422.922 5.152 3.184 5.195 6.793-.199 3.941-2.21 6.32-6.031 7.137-3.965.086-7.934.113-11.899.086V15.203Zm0 0"/>
    </g>
    <g id="logo-placeholder_svg__n" clip-path="url(#logo-placeholder_svg__d)">
      <path style="stroke:none;fill-rule:evenodd;fill:currentColor;fill-opacity:1" d="M113.883 52.914h-5.867A4914.39 4914.39 0 0 1 93.437 17.07c-.511-.11-.874.063-1.09.512-2.679 6.613-5.386 13.211-8.128 19.79 4.414.026 8.828.112 13.238.253a61.318 61.318 0 0 1 1.844 4.758c-5.7-.028-11.395 0-17.094.086a1097.63 1097.63 0 0 0-4.191 10.105c.242.117.468.23.671.34h-6.535A6911.719 6911.719 0 0 1 90.25 10.617c1.902-.226 3.8-.226 5.7 0a6890.305 6890.305 0 0 1 17.933 42.297Zm0 0"/>
    </g>
    <g id="logo-placeholder_svg__p" clip-path="url(#logo-placeholder_svg__e)">
      <path style="stroke:none;fill-rule:evenodd;fill:currentColor;fill-opacity:1" d="M172.207 52.914h-5.027v-37.71h-14.246v-4.759h33.52v4.758h-14.247v37.711Zm0 0"/>
    </g>
    <g id="logo-placeholder_svg__r" clip-path="url(#logo-placeholder_svg__f)">
      <path style="stroke:none;fill-rule:evenodd;fill:currentColor;fill-opacity:1" d="M221.313 52.914h-27.989V10.445h27.317v4.758H198.52v14.102h19.44v4.754h-19.44v13.93h22.792v4.925Zm0 0"/>
    </g>
    <g id="logo-placeholder_svg__t" clip-path="url(#logo-placeholder_svg__g)">
      <path style="stroke:none;fill-rule:evenodd;fill:currentColor;fill-opacity:1" d="M253.996 52.914h-24.973V10.445h5.028v37.543h21.789a44.172 44.172 0 0 1-1.844 4.926Zm0 0"/>
    </g>
    <g id="logo-placeholder_svg__v" clip-path="url(#logo-placeholder_svg__h)">
      <path style="stroke:none;fill-rule:evenodd;fill:currentColor;fill-opacity:1" d="M299.918 52.746v.168h-6.035A4793.414 4793.414 0 0 0 279.3 17.156c-.559-.164-.918.035-1.09.594-2.652 6.512-5.305 13.023-7.961 19.535 4.355.145 8.715.227 13.074.258l2.012 4.754c-5.754.086-11.508.113-17.262.086a272.218 272.218 0 0 1-4.191 10.277c.316.035.594.117.836.254h-6.703a3560.604 3560.604 0 0 0 18.101-42.469h5.867a3236.876 3236.876 0 0 0 17.934 42.301Zm0 0"/>
    </g>
    <g id="logo-placeholder_svg__x" clip-path="url(#logo-placeholder_svg__i)">
      <path style="stroke:none;fill-rule:evenodd;fill:#0081ff;fill-opacity:1" d="M42.152 52.914H18.016a.85.85 0 0 1 .086-.508A1959.614 1959.614 0 0 0 30 31.512a678.787 678.787 0 0 1 12.152 21.402Zm0 0"/>
    </g>
    <filter id="logo-placeholder_svg__a" filterUnits="objectBoundingBox" x="0%" y="0%" width="100%" height="100%">
      <feColorMatrix in="SourceGraphic" values="0 0 0 0 1 0 0 0 0 1 0 0 0 0 1 0 0 0 1 0"/>
    </filter>
  </defs>
  <use xlink:href="#logo-placeholder_svg__j" mask="url(#logo-placeholder_svg__k)"/>
  <use xlink:href="#logo-placeholder_svg__l" mask="url(#logo-placeholder_svg__m)"/>
  <use xlink:href="#logo-placeholder_svg__n" mask="url(#logo-placeholder_svg__o)"/>
  <use xlink:href="#logo-placeholder_svg__p" mask="url(#logo-placeholder_svg__q)"/>
  <use xlink:href="#logo-placeholder_svg__r" mask="url(#logo-placeholder_svg__s)"/>
  <use xlink:href="#logo-placeholder_svg__t" mask="url(#logo-placeholder_svg__u)"/>
  <use xlink:href="#logo-placeholder_svg__v" mask="url(#logo-placeholder_svg__w)"/>
  <use xlink:href="#logo-placeholder_svg__x" mask="url(#logo-placeholder_svg__y)"/>
</svg>
