<svg width="820" height="164" viewBox="0 0 820 164" fill="none" xmlns="http://www.w3.org/2000/svg">
<path fill-rule="evenodd" clip-rule="evenodd" d="M67.8999 162.778C72.5561 163.591 77.2734 164 82 164C101.071 164 119.545 157.353 134.244 145.203C138.894 141.358 143.106 137.013 146.804 132.244C143.168 127.364 130.417 133.775 125.146 136.426C124.916 136.541 124.7 136.65 124.5 136.75C119.5 139.25 101.75 149.75 85 155.75C74.8065 159.402 64.4048 160.484 53.7947 158.996C58.3744 160.674 63.0952 161.94 67.8999 162.778ZM152.37 124.095C148.423 120.31 138.549 122.528 122.75 130.75C117.592 133.434 112.633 136.385 107.717 139.309C89.3488 150.238 71.5827 160.809 46.2626 155.803C42.9575 154.202 39.7934 152.397 36.7822 150.408C59.2098 154.397 73.4192 144.87 100.25 121.25C129.5 95.4998 138.5 92.2499 151 90.9999C153.729 90.727 155.904 91.196 157.525 92.4067C160.098 94.3285 161.274 98.1194 161.055 103.779C159.099 110.88 156.186 117.717 152.37 124.095ZM24.7847 140.743C26.6119 142.524 28.5269 144.223 30.5253 145.834C38.549 148.593 45.4572 148.982 51.25 147C60.75 143.75 68.5 138.75 77.75 131C87 123.25 108.25 103.25 111.5 101C111.849 100.758 112.414 100.329 113.168 99.7575C119.427 95.0066 138.656 80.411 154.5 81.7499C158.197 82.0624 161.276 84.3351 163.737 88.5682C163.912 86.3882 164 84.1971 164 81.9999C164 78.835 163.821 75.712 163.472 72.6405C158.613 51.306 147.427 51.604 135 53.5C120.25 55.75 102.75 71.4999 80.5 97.4998C58.25 123.5 51.5 130.5 41.75 137C36.3793 140.58 30.7242 141.828 24.7847 140.743ZM158.96 53.63C157.604 49.953 155.992 46.4 154.145 42.992C152.486 40.832 150.688 38.5847 148.75 36.25C137.75 23 125.25 21.25 109.25 25.25C93.25 29.25 80.75 44.5 75.25 50.5C64.75 60.75 51.25 85.2499 47.5 90.9999C43.75 96.7499 40.8846 102.942 30.5 117.75C25.2936 125.173 20.2793 129.229 15.4572 129.918C17.2892 132.462 19.2683 134.904 21.3862 137.229C34.3881 140.006 46.4791 125.643 52.1175 118.944C52.8616 118.06 53.4934 117.31 54 116.75C58.75 111.5 87.75 74.9999 94.75 68.7499C94.8608 68.6509 94.976 68.548 95.0953 68.4414C102.517 61.81 126.297 40.559 144.75 44.25C150.543 45.4087 155.279 48.5353 158.96 53.63ZM7.22711 115.663C9.92645 114.71 12.8507 109.989 16 101.5C21.75 85.9999 28.25 69.9999 30 65.9999C31.75 62 37 45.75 50.5 30.5C64 15.25 78.5 3.25 106.25 6.25C114.439 7.13533 124.178 11.661 135.468 19.827C138.268 22.237 140.903 24.833 143.354 27.596C138.821 23.208 134.203 20.0927 129.5 18.25C123.25 15.75 108.75 15 94.5 23C80.25 31 63 49.25 47.5 76.7499C43.5 82.4999 30.25 107.25 26.5 111.5C25.6153 112.503 24.7445 113.881 23.8023 115.372C21.121 119.617 17.8612 124.776 12.0561 124.8C10.258 121.862 8.64463 118.81 7.22711 115.663ZM4.90881 109.952C3.47001 105.985 2.33218 101.893 1.51575 97.7076C1.51605 97.7045 1.51635 97.7013 1.51665 97.6981C0.507907 92.5263 0 87.2693 0 82C0 36.713 36.7126 0 82 0C83.3702 0 84.7402 0.0339966 86.1087 0.102997C86.1122 0.102325 86.1157 0.10199 86.1192 0.10199C89.3596 0.261993 92.5505 0.609985 95.6812 1.13599C91.6796 0.979324 88.7025 1.01733 86.75 1.25C76.25 2.5 57.5 6.5 36.75 37C28.75 46.75 21 71.4999 19.25 75.4999C17.5 79.4999 13.25 92.4999 12.25 94.9999C12.0803 95.4242 11.8313 96.1655 11.5177 97.099C10.1434 101.191 7.52848 108.976 4.90881 109.952Z" fill="url(#paint0_linear_3509_17)"/>
<path fill-rule="evenodd" clip-rule="evenodd" d="M269.025 52.8167C273.385 49.0389 279.831 47.15 288.362 47.15C297.273 47.15 304.667 49.1806 310.544 53.2417L316.373 38.225C312.676 35.8639 308.363 34.0695 303.434 32.8417C298.505 31.6139 293.197 31 287.509 31C273.954 31 263.314 34.4236 255.588 41.2708C247.863 48.1181 244 57.5389 244 69.5333V131.583H262.484V93.6167H305.851V78.0333H262.484V69.5333C262.484 62.1666 264.665 56.5944 269.025 52.8167ZM631.887 126.413C640.039 130.804 649.186 133 659.329 133C669.472 133 678.619 130.804 686.771 126.413C694.923 122.021 701.321 115.953 705.966 108.208C710.611 100.464 712.933 91.7278 712.933 82C712.933 72.2722 710.611 63.5361 705.966 55.7917C701.321 48.0472 694.923 41.9792 686.771 37.5875C678.619 33.1958 669.472 31 659.329 31C649.186 31 640.039 33.1958 631.887 37.5875C623.734 41.9792 617.336 48.0708 612.691 55.8625C608.046 63.6542 605.724 72.3667 605.724 82C605.724 91.6333 608.046 100.346 612.691 108.137C617.336 115.929 623.734 122.021 631.887 126.413ZM417.61 32.2206V90.7286C417.61 104.14 414.245 114.505 407.515 121.824C400.785 129.144 391.543 132.804 379.789 132.804H368.556C356.802 132.804 347.56 129.144 340.83 121.824C334.099 114.505 330.734 104.14 330.734 90.7286V32.2201H349.219V88.2951C349.238 97.6813 351.608 104.749 356.328 109.499C360.825 114.025 366.773 116.404 374.172 116.635C381.571 116.403 387.52 114.025 392.017 109.499C396.737 104.749 399.107 97.6815 399.126 88.2951V32.2201L417.61 32.2206ZM732.555 132.803H751.039V76.7631C751.053 67.3595 753.447 60.2799 758.22 55.5243C762.739 51.0214 768.759 48.6441 776.278 48.3925C783.797 48.6441 789.816 51.0214 794.335 55.5243C799.108 60.2799 801.502 67.3595 801.516 76.7631V132.803H820V74.2951C820 60.7896 816.659 50.4007 809.976 43.1285C803.293 35.8563 793.98 32.2201 782.036 32.2201C780.017 32.2201 778.097 32.2203 776.278 32.2205C774.766 32.2208 774.078 32.2206 773.258 32.2204C772.598 32.2203 771.851 32.2201 770.519 32.2201C758.575 32.2201 749.262 35.8563 742.579 43.1285C735.896 50.4007 732.555 60.7896 732.555 74.2951V132.803ZM462.826 32.4167H444.342V131.583H514.866V116H462.826V32.4167ZM547.996 32.4167H529.512V131.583H600.037V116H547.996V32.4167ZM677.244 112.387C671.936 115.362 665.964 116.85 659.329 116.85C652.694 116.85 646.722 115.362 641.413 112.387C636.105 109.412 631.934 105.257 628.901 99.9208C625.868 94.5847 624.351 88.6111 624.351 82C624.351 75.3889 625.868 69.4153 628.901 64.0792C631.934 58.7431 636.105 54.5875 641.413 51.6125C646.722 48.6375 652.694 47.15 659.329 47.15C665.964 47.15 671.936 48.6375 677.244 51.6125C682.553 54.5875 686.724 58.7431 689.757 64.0792C692.79 69.4153 694.307 75.3889 694.307 82C694.307 88.6111 692.79 94.5847 689.757 99.9208C686.724 105.257 682.553 109.412 677.244 112.387Z" fill="black"/>
<defs>
<linearGradient id="paint0_linear_3509_17" x1="32.3444" y1="148.371" x2="135.337" y2="19.7826" gradientUnits="userSpaceOnUse">
<stop stop-color="#604AD0"/>
<stop offset="1" stop-color="#3BB5FF"/>
</linearGradient>
</defs>
</svg>
