<svg viewBox="0 0 203 38" fill="none" xmlns="http://www.w3.org/2000/svg">
  <path fill-rule="evenodd" clip-rule="evenodd" d="m14.117 24.965 1.423-1.107c4.648-3.62 11.346-2.782 14.972 1.862l1.11 1.421-2.842 2.22-1.11-1.422c-2.405-3.079-6.84-3.63-9.915-1.236l-1.422 1.108-2.216-2.846Z" fill="#D8CAFF" stroke="#8752F3" stroke-width=".6" stroke-miterlimit="10" stroke-linecap="square"/>
  <path d="M25.116 31.842a2.56 2.56 0 1 0-5.112-.313 2.56 2.56 0 0 0 5.112.313Z" fill="#D8CAFF" stroke="#8752F3" stroke-width=".6" stroke-miterlimit="10" stroke-linecap="square"/>
  <path fill-rule="evenodd" clip-rule="evenodd" d="m11.39 17.721 1.493 1.011c4.877 3.301 6.152 9.934 2.854 14.816l-1.01 1.495-2.988-2.019 1.01-1.494c2.186-3.237 1.337-7.628-1.887-9.811l-1.494-1.01 2.022-2.988Z" fill="#D8CAFF" stroke="#8752F3" stroke-width=".6" stroke-miterlimit="10" stroke-linecap="square"/>
  <path d="M10.16 27.98a2.56 2.56 0 1 0-5.112-.313 2.56 2.56 0 0 0 5.112.313Z" fill="#D8CAFF" stroke="#8752F3" stroke-width=".6" stroke-miterlimit="10" stroke-linecap="square"/>
  <path fill-rule="evenodd" clip-rule="evenodd" d="m2.994 17.938 1.732.502a7.055 7.055 0 0 0 8.742-4.824l.5-1.733 3.465.998-.499 1.733c-1.63 5.662-7.55 8.93-13.212 7.29l-1.732-.502 1.004-3.464Z" fill="#D8CAFF" stroke="#8752F3" stroke-width=".6" stroke-miterlimit="10" stroke-linecap="square"/>
  <path d="M9.208 12.565a2.56 2.56 0 1 0-5.111-.313 2.56 2.56 0 0 0 5.111.313Z" fill="#D8CAFF" stroke="#8752F3" stroke-width=".6" stroke-miterlimit="10" stroke-linecap="square"/>
  <path fill-rule="evenodd" clip-rule="evenodd" d="m14.635 4.966.06 1.803a7.058 7.058 0 0 0 7.288 6.821l1.802-.059.118 3.605-1.802.059c-5.893.193-10.817-4.425-11.011-10.308l-.06-1.802 3.605-.119Z" fill="#D8CAFF" stroke="#8752F3" stroke-width=".6" stroke-miterlimit="10" stroke-linecap="square"/>
  <path d="M23.576 6.897a2.56 2.56 0 1 0-5.112-.314 2.56 2.56 0 0 0 5.112.314Zm9.837 11.913a2.56 2.56 0 1 0-5.112-.314 2.56 2.56 0 0 0 5.112.313Z" fill="#D8CAFF" stroke="#8752F3" stroke-width=".6" stroke-miterlimit="10" stroke-linecap="square"/>
  <path fill-rule="evenodd" clip-rule="evenodd" d="m29.341 8.633 1.229 3.39-1.7.61a7.056 7.056 0 0 0-4.24 9.044l.092.259a10.629 10.629 0 0 0-3.84-.263c-1.219-5.178 1.623-10.569 6.76-12.43l1.7-.61Z" fill="#D8CAFF" stroke="#8752F3" stroke-width=".6" stroke-miterlimit="10" stroke-linecap="square"/>
  <path d="M56.647 11.631h2.441v16.214h-3.064v-10.46l-4.133 6.137h-1.69l-4.153-6.177v10.5h-3.045V11.63h2.551l5.546 8.4 5.527-8.398h.02Zm10.697 4.45c1.018 0 1.927.228 2.708.692a4.446 4.446 0 0 1 1.84 1.904c.444.81.662 1.747.662 2.813 0 .473-.04.957-.129 1.44h-7.632c.128.859.445 1.51.93 1.954.484.425 1.097.642 1.818.642.514 0 .979-.109 1.374-.336.416-.237.732-.582.96-1.046l2.263 1.332c-.306.84-.91 1.49-1.799 1.954-.87.454-1.849.691-2.926.691-1.078 0-1.997-.227-2.887-.69-.89-.455-1.602-1.145-2.155-2.063-.534-.918-.801-2.013-.801-3.296s.267-2.359.8-3.257c.544-.898 1.256-1.579 2.136-2.042a6.062 6.062 0 0 1 2.838-.691Zm-.09 2.507c-.603 0-1.127.188-1.552.573-.425.385-.721.927-.87 1.618H69.4c-.06-.71-.287-1.243-.692-1.618-.386-.385-.87-.573-1.463-.573h.01Zm14.553 6.582c.781 0 1.453-.207 2.017-.621.573-.415 1.038-.987 1.374-1.727l2.69 1.55c-.396 1.095-1.138 1.993-2.196 2.703-1.067.69-2.333 1.046-3.816 1.046-1.483 0-2.748-.345-3.925-1.046-1.186-.69-2.125-1.677-2.817-2.95-.692-1.283-1.048-2.754-1.048-4.412s.336-3.118 1.018-4.381c.692-1.273 1.632-2.25 2.818-2.95a7.766 7.766 0 0 1 3.954-1.047c1.444 0 2.749.355 3.816 1.066 1.068.69 1.8 1.589 2.195 2.684l-2.689 1.55c-.336-.74-.8-1.313-1.374-1.728-.564-.414-1.236-.621-2.017-.621-.83 0-1.572.217-2.214.66-.653.445-1.167 1.077-1.553 1.906-.365.809-.553 1.766-.553 2.861 0 1.096.188 2.053.553 2.882.386.829.9 1.46 1.553 1.904.652.445 1.394.662 2.214.662v.01Zm14.484-9.088c1.255 0 2.254.424 2.995 1.263.752.829 1.137 2.043 1.137 3.632v6.868h-3.085v-5.872c0-2.102-.691-3.148-2.085-3.148-.742 0-1.335.286-1.8.869-.445.562-.662 1.361-.662 2.388v5.763h-3.085V10.99h3.085v6.908c.741-1.214 1.908-1.816 3.51-1.816h-.01Zm11.656 0c1.552 0 2.768.444 3.638 1.332.87.868 1.305 2.122 1.305 3.74v6.69h-2.6c-.01-.118-.04-.305-.07-.572a3.67 3.67 0 0 0-.089-.73 3.177 3.177 0 0 1-1.334 1.194c-.534.247-1.187.375-1.958.375-.771 0-1.532-.138-2.194-.424a3.675 3.675 0 0 1-1.553-1.214c-.385-.543-.573-1.184-.573-1.924s.217-1.431.643-1.994c.444-.572 1.038-1.016 1.779-1.332a6.333 6.333 0 0 1 2.442-.464 8.13 8.13 0 0 1 2.462.395c-.05-1.697-.771-2.546-2.175-2.546-1.127 0-1.948.503-2.462 1.51l-2.195-1.263a4.528 4.528 0 0 1 1.908-2.013c.86-.504 1.869-.75 3.016-.75l.01-.01Zm1.917 7.115c-.741-.178-1.384-.267-1.927-.267-.722 0-1.286.129-1.691.395a1.214 1.214 0 0 0-.603 1.086c0 .424.158.76.465.996.326.237.741.356 1.245.356a2.91 2.91 0 0 0 1.75-.553c.504-.385.752-.908.752-1.57v-.443h.009Zm7.267-8.29c-.485 0-.919-.187-1.285-.552a1.903 1.903 0 0 1-.534-1.332c0-.504.178-.958.534-1.333a1.73 1.73 0 0 1 1.285-.552c.504 0 .939.187 1.305.572a1.8 1.8 0 0 1 .554 1.303c0 .493-.188.947-.554 1.332a1.806 1.806 0 0 1-1.305.553v.01Zm1.572 12.938h-3.085V16.368h3.085v11.477Zm9.441-11.763c1.276 0 2.274.424 3.016 1.263.741.829 1.107 2.043 1.107 3.632v6.868h-3.085v-5.872c0-2.102-.692-3.148-2.086-3.148-.741 0-1.334.286-1.799.869-.445.562-.662 1.361-.662 2.388v5.763h-3.085V16.368h2.709c.069.898.138 1.51.198 1.835.741-1.42 1.967-2.131 3.687-2.131v.01Z" fill="#000"/>
  <rect x="140" y="11" width="55" height="18" rx="4" fill="#8A55FD"/>
  <rect x="140.25" y="11.25" width="54.5" height="17.5" rx="3.75" stroke="#000" stroke-opacity=".06" stroke-width=".5"/>
  <path d="M150.06 20.052h-3.768v2.808h4.344V24h-5.628v-8.796h5.496v1.14h-4.212v2.58h3.768v1.128Zm4.15-.12 1.536-2.16h1.38l-2.268 3.096L157.126 24h-1.464l-1.512-2.16-1.536 2.16h-1.404l2.28-3.084-2.28-3.144h1.488l1.512 2.16Zm7.124-2.304c.48 0 .928.132 1.344.396.424.256.764.632 1.02 1.128.256.488.384 1.064.384 1.728 0 .672-.128 1.256-.384 1.752-.256.488-.596.86-1.02 1.116a2.519 2.519 0 0 1-1.344.384c-.4 0-.776-.088-1.128-.264a2.158 2.158 0 0 1-.864-.792v3.708h-1.236v-9.012h1.092c.016.4.04.74.072 1.02.224-.384.516-.672.876-.864.368-.2.764-.3 1.188-.3Zm-.216 5.376c.512 0 .92-.184 1.224-.552.304-.376.456-.9.456-1.572 0-.664-.156-1.184-.468-1.56-.304-.384-.708-.576-1.212-.576a1.72 1.72 0 0 0-1.26.528c-.344.352-.516.888-.516 1.608 0 .728.172 1.264.516 1.608a1.74 1.74 0 0 0 1.26.516Zm5.596.996h-1.236v-9.132h1.236V24Zm1.392-3.12c0-.632.14-1.196.42-1.692a3.03 3.03 0 0 1 1.116-1.152c.472-.272.98-.408 1.524-.408.536 0 1.036.136 1.5.408a3.03 3.03 0 0 1 1.116 1.152c.28.496.42 1.06.42 1.692 0 .632-.14 1.196-.42 1.692a3.03 3.03 0 0 1-1.116 1.152 2.916 2.916 0 0 1-1.5.408 3.002 3.002 0 0 1-1.524-.408 3.03 3.03 0 0 1-1.116-1.152c-.28-.496-.42-1.06-.42-1.692Zm1.296 0c0 .656.164 1.176.492 1.56.336.384.756.576 1.26.576.512 0 .932-.192 1.26-.576.328-.384.492-.904.492-1.56s-.168-1.176-.504-1.56a1.57 1.57 0 0 0-1.248-.576c-.504 0-.924.192-1.26.576-.328.384-.492.904-.492 1.56Zm9.033-3.252c.208 0 .4.028.576.084a1.1 1.1 0 0 1 .432.228l-.468.972a1.154 1.154 0 0 0-.612-.168c-.456 0-.828.188-1.116.564-.28.376-.42.912-.42 1.608V24h-1.236v-6.228h1.092c.016.384.04.72.072 1.008.184-.384.416-.672.696-.864.288-.192.616-.288.984-.288Zm4.109 0c.544 0 1.02.128 1.428.384.408.248.724.592.948 1.032.224.432.336.92.336 1.464 0 .184-.02.404-.06.66h-4.368c.048.624.24 1.096.576 1.416.336.312.756.468 1.26.468.656 0 1.132-.272 1.428-.816l.924.54c-.16.432-.464.768-.912 1.008a3.213 3.213 0 0 1-1.5.348 3.232 3.232 0 0 1-1.548-.372 2.857 2.857 0 0 1-1.116-1.128c-.272-.496-.408-1.088-.408-1.776 0-.672.136-1.252.408-1.74.28-.488.648-.856 1.104-1.104a3.056 3.056 0 0 1 1.5-.384Zm-.048 1.08c-.408 0-.764.132-1.068.396-.296.256-.484.632-.564 1.128h3.096c-.032-.48-.18-.852-.444-1.116-.264-.272-.604-.408-1.02-.408Zm6.837-1.08c.208 0 .4.028.576.084a1.1 1.1 0 0 1 .432.228l-.468.972a1.154 1.154 0 0 0-.612-.168c-.456 0-.828.188-1.116.564-.28.376-.42.912-.42 1.608V24h-1.236v-6.228h1.092c.016.384.04.72.072 1.008.184-.384.416-.672.696-.864.288-.192.616-.288.984-.288Z" fill="#fff"/>
</svg>
