<svg width="300" height="60" viewBox="0 0 300 60" fill="none" xmlns="http://www.w3.org/2000/svg">
<path fill-rule="evenodd" clip-rule="evenodd" d="M24.8414 59.5531C26.5449 59.8504 28.2708 60 30 60C36.9772 60 43.736 57.5682 49.1137 53.1229C50.8149 51.7165 52.3558 50.1266 53.7088 48.3821C52.3785 46.5968 47.7135 48.9423 45.7851 49.9118C45.701 49.9541 45.622 49.9938 45.5488 50.0305C43.7195 50.9451 37.2256 54.7865 31.0976 56.9817C27.3682 58.3177 23.5627 58.7135 19.681 58.1694C21.3565 58.7832 23.0836 59.2462 24.8414 59.5531ZM55.7451 45.4008C54.301 44.0157 50.6888 44.8272 44.9085 47.8353C43.0215 48.8174 41.2072 49.8968 39.4087 50.9668C32.6886 54.9653 26.1888 58.8325 16.9253 57.0009C15.7162 56.4154 14.5586 55.7552 13.4569 55.0273C21.6621 56.4866 26.8607 53.0013 36.6768 44.3597C47.378 34.939 50.6707 33.75 55.2439 33.2926C56.2424 33.1928 57.0382 33.3644 57.6311 33.8073C58.5723 34.5104 59.0028 35.8973 58.9226 37.968C58.2069 40.5659 57.1412 43.0673 55.7451 45.4008ZM9.06757 51.4915C9.73606 52.1428 10.4367 52.7645 11.1678 53.354C14.1033 54.3634 16.6307 54.5056 18.75 53.7805C22.2256 52.5914 25.061 50.7622 28.4451 47.9268C31.8293 45.0914 39.6037 37.7744 40.7927 36.9512C40.9204 36.8628 41.1271 36.7058 41.4029 36.4966C43.6928 34.7585 50.7278 29.4187 56.5244 29.9085C57.8771 30.0228 59.0035 30.8543 59.9038 32.403C59.9678 31.6054 60 30.8038 60 30C60 28.8421 59.9345 27.6995 59.8068 26.5758C58.0291 18.7705 53.9367 18.8795 49.3902 19.5732C43.9939 20.3963 37.5915 26.1585 29.4512 35.6707C21.311 45.1829 18.8415 47.7439 15.2744 50.1219C13.3095 51.4318 11.2406 51.8883 9.06757 51.4915ZM58.1561 19.6207C57.66 18.2755 57.0702 16.9756 56.3945 15.7288C55.7877 14.9385 55.1298 14.1163 54.4207 13.2622C50.3963 8.41463 45.8232 7.77439 39.9695 9.2378C34.1159 10.7012 29.5427 16.2805 27.5305 18.4756C23.689 22.2256 18.75 31.189 17.378 33.2926C16.0061 35.3963 14.9578 37.6618 11.1585 43.0792C9.25376 45.7952 7.41927 47.2791 5.65508 47.5308C6.32532 48.4617 7.04938 49.355 7.82422 50.2057C12.581 51.2217 17.0045 45.9668 19.0674 43.5162C19.3396 43.1928 19.5708 42.9182 19.7561 42.7134C21.4939 40.7926 32.1037 27.439 34.6646 25.1524C34.7052 25.1162 34.7473 25.0785 34.791 25.0395C37.5062 22.6134 46.2062 14.8387 52.9573 16.189C55.0766 16.6129 56.8095 17.7568 58.1561 19.6207ZM2.64407 42.3156C3.63163 41.9672 4.70149 40.24 5.85366 37.1341C7.95732 31.4634 10.3354 25.6097 10.9756 24.1463C11.6159 22.6829 13.5366 16.7378 18.4756 11.1585C23.4146 5.57927 28.7195 1.18902 38.872 2.28658C41.8678 2.61049 45.431 4.26622 49.5615 7.25378C50.5859 8.13549 51.5499 9.08525 52.4466 10.0961C50.7881 8.49073 49.0985 7.35097 47.378 6.67683C45.0915 5.76219 39.7866 5.4878 34.5732 8.41463C29.3598 11.3415 23.0488 18.0183 17.378 28.0792C15.9146 30.1829 11.0671 39.2378 9.69512 40.7926C9.37145 41.1595 9.05287 41.6637 8.70816 42.2094C7.7272 43.7621 6.53458 45.6499 4.41077 45.6585C3.75292 44.5836 3.16267 43.4671 2.64407 42.3156ZM1.79591 40.2262C1.26952 38.7751 0.853236 37.278 0.554542 35.7467C0.554651 35.7455 0.554761 35.7444 0.554871 35.7432C0.18582 33.8511 0 31.9278 0 30C0 13.4316 13.4314 -1.43051e-06 30 -1.43051e-06C30.5013 -1.43051e-06 31.0025 0.0124364 31.5032 0.0376803C31.5045 0.0374364 31.5057 0.0373119 31.507 0.0373119C32.6925 0.0958485 33.8599 0.223164 35.0053 0.415603C33.5413 0.358286 32.4521 0.372194 31.7378 0.457316C27.8963 0.914633 21.0366 2.37805 13.4451 13.5366C10.5183 17.1037 7.68293 26.1585 7.04268 27.6219C6.40244 29.0853 4.84756 33.8414 4.48171 34.7561C4.41962 34.9113 4.32852 35.1825 4.21379 35.524C3.711 37.0211 2.75432 39.8695 1.79591 40.2262Z" fill="url(#paint0_linear_4334_27)"/>
<path fill-rule="evenodd" clip-rule="evenodd" d="M98.425 19.3235C100.02 17.9414 102.378 17.2503 105.5 17.2503C108.76 17.2503 111.465 17.9932 113.615 19.479L115.748 13.9851C114.395 13.1213 112.817 12.4648 111.014 12.0156C109.21 11.5664 107.268 11.3418 105.188 11.3418C100.228 11.3418 96.3355 12.5943 93.5091 15.0994C90.6827 17.6045 89.2695 21.0511 89.2695 25.4393V48.1405H96.0321V34.2503H111.898V28.5491H96.0321V25.4393C96.0321 22.7442 96.8297 20.7056 98.425 19.3235ZM231.179 46.2488C234.162 47.8555 237.508 48.6589 241.219 48.6589C244.93 48.6589 248.276 47.8555 251.259 46.2488C254.241 44.6421 256.582 42.4221 258.281 39.5887C259.981 36.7554 260.83 33.5593 260.83 30.0003C260.83 26.4414 259.981 23.2452 258.281 20.4119C256.582 17.5786 254.241 15.3586 251.259 13.7519C248.276 12.1451 244.93 11.3418 241.219 11.3418C237.508 11.3418 234.162 12.1451 231.179 13.7519C228.197 15.3586 225.856 17.5872 224.156 20.4378C222.457 23.2884 221.608 26.4759 221.608 30.0003C221.608 33.5247 222.457 36.7122 224.156 39.5628C225.856 42.4134 228.197 44.6421 231.179 46.2488ZM152.785 11.7884V33.1937C152.785 38.1002 151.554 41.8924 149.092 44.5702C146.63 47.2482 143.249 48.5872 138.948 48.5872H134.839C130.539 48.5872 127.157 47.2482 124.695 44.5702C122.233 41.8924 121.002 38.1002 121.002 33.1937V11.7882H127.764V32.3034C127.771 35.7374 128.638 38.3232 130.365 40.061C132.011 41.7168 134.187 42.587 136.893 42.6716C139.601 42.5869 141.777 41.7167 143.422 40.061C145.149 38.3233 146.016 35.7375 146.023 32.3034V11.7882L152.785 11.7884ZM268.009 48.5868H274.772V28.0844C274.777 24.6441 275.652 22.054 277.399 20.3141C279.052 18.6667 281.254 17.797 284.005 17.7049C286.756 17.797 288.958 18.6667 290.612 20.3141C292.358 22.054 293.234 24.6441 293.239 28.0844V48.5868H300.001V27.1815C300.001 22.2404 298.779 18.4396 296.334 15.7791C293.889 13.1185 290.482 11.7882 286.112 11.7882C285.373 11.7882 284.671 11.7882 284.005 11.7883C283.452 11.7884 283.201 11.7884 282.901 11.7883C282.659 11.7882 282.386 11.7882 281.898 11.7882C277.529 11.7882 274.121 13.1185 271.676 15.7791C269.232 18.4396 268.009 22.2404 268.009 27.1815V48.5868ZM169.328 11.8601H162.565V48.1405H188.367V42.4394H169.328V11.8601ZM200.488 11.8601H193.725V48.1405H219.527V42.4394H200.488V11.8601ZM247.773 41.1177C245.831 42.2061 243.647 42.7503 241.219 42.7503C238.792 42.7503 236.607 42.2061 234.665 41.1177C232.723 40.0293 231.197 38.509 230.087 36.5567C228.977 34.6045 228.422 32.419 228.422 30.0003C228.422 27.5816 228.977 25.3962 230.087 23.4439C231.197 21.4917 232.723 19.9714 234.665 18.883C236.607 17.7945 238.792 17.2503 241.219 17.2503C243.647 17.2503 245.831 17.7945 247.773 18.883C249.716 19.9714 251.242 21.4917 252.351 23.4439C253.461 25.3962 254.016 27.5816 254.016 30.0003C254.016 32.419 253.461 34.6045 252.351 36.5567C251.242 38.509 249.716 40.0293 247.773 41.1177Z" fill="black"/>
<defs>
<linearGradient id="paint0_linear_4334_27" x1="11.8333" y1="54.2819" x2="49.5136" y2="7.23754" gradientUnits="userSpaceOnUse">
<stop stop-color="#604AD0"/>
<stop offset="1" stop-color="#3BB5FF"/>
</linearGradient>
</defs>
</svg>
