<svg viewBox="0 0 203 38" fill="none" xmlns="http://www.w3.org/2000/svg">
  <rect x="140" y="11" width="55" height="18" rx="4" fill="#C15E97"/>
  <rect x="140.25" y="11.25" width="54.5" height="17.5" rx="3.75" stroke="#000" stroke-opacity=".06" stroke-width=".5"/>
  <path d="M150.06 20.052h-3.768v2.808h4.344V24h-5.628v-8.796h5.496v1.14h-4.212v2.58h3.768v1.128Zm4.15-.12 1.536-2.16h1.38l-2.268 3.096L157.126 24h-1.464l-1.512-2.16-1.536 2.16h-1.404l2.28-3.084-2.28-3.144h1.488l1.512 2.16Zm7.124-2.304c.48 0 .928.132 1.344.396.424.256.764.632 1.02 1.128.256.488.384 1.064.384 1.728 0 .672-.128 1.256-.384 1.752-.256.488-.596.86-1.02 1.116a2.519 2.519 0 0 1-1.344.384c-.4 0-.776-.088-1.128-.264a2.158 2.158 0 0 1-.864-.792v3.708h-1.236v-9.012h1.092c.016.4.04.74.072 1.02.224-.384.516-.672.876-.864.368-.2.764-.3 1.188-.3Zm-.216 5.376c.512 0 .92-.184 1.224-.552.304-.376.456-.9.456-1.572 0-.664-.156-1.184-.468-1.56-.304-.384-.708-.576-1.212-.576a1.72 1.72 0 0 0-1.26.528c-.344.352-.516.888-.516 1.608 0 .728.172 1.264.516 1.608a1.74 1.74 0 0 0 1.26.516Zm5.596.996h-1.236v-9.132h1.236V24Zm1.392-3.12c0-.632.14-1.196.42-1.692a3.03 3.03 0 0 1 1.116-1.152c.472-.272.98-.408 1.524-.408.536 0 1.036.136 1.5.408a3.03 3.03 0 0 1 1.116 1.152c.28.496.42 1.06.42 1.692 0 .632-.14 1.196-.42 1.692a3.03 3.03 0 0 1-1.116 1.152 2.916 2.916 0 0 1-1.5.408 3.002 3.002 0 0 1-1.524-.408 3.03 3.03 0 0 1-1.116-1.152c-.28-.496-.42-1.06-.42-1.692Zm1.296 0c0 .656.164 1.176.492 1.56.336.384.756.576 1.26.576.512 0 .932-.192 1.26-.576.328-.384.492-.904.492-1.56s-.168-1.176-.504-1.56a1.57 1.57 0 0 0-1.248-.576c-.504 0-.924.192-1.26.576-.328.384-.492.904-.492 1.56Zm9.033-3.252c.208 0 .4.028.576.084a1.1 1.1 0 0 1 .432.228l-.468.972a1.154 1.154 0 0 0-.612-.168c-.456 0-.828.188-1.116.564-.28.376-.42.912-.42 1.608V24h-1.236v-6.228h1.092c.016.384.04.72.072 1.008.184-.384.416-.672.696-.864.288-.192.616-.288.984-.288Zm4.109 0c.544 0 1.02.128 1.428.384.408.248.724.592.948 1.032.224.432.336.92.336 1.464 0 .184-.02.404-.06.66h-4.368c.048.624.24 1.096.576 1.416.336.312.756.468 1.26.468.656 0 1.132-.272 1.428-.816l.924.54c-.16.432-.464.768-.912 1.008a3.213 3.213 0 0 1-1.5.348 3.232 3.232 0 0 1-1.548-.372 2.857 2.857 0 0 1-1.116-1.128c-.272-.496-.408-1.088-.408-1.776 0-.672.136-1.252.408-1.74.28-.488.648-.856 1.104-1.104a3.056 3.056 0 0 1 1.5-.384Zm-.048 1.08c-.408 0-.764.132-1.068.396-.296.256-.484.632-.564 1.128h3.096c-.032-.48-.18-.852-.444-1.116-.264-.272-.604-.408-1.02-.408Zm6.837-1.08c.208 0 .4.028.576.084a1.1 1.1 0 0 1 .432.228l-.468.972a1.154 1.154 0 0 0-.612-.168c-.456 0-.828.188-1.116.564-.28.376-.42.912-.42 1.608V24h-1.236v-6.228h1.092c.016.384.04.72.072 1.008.184-.384.416-.672.696-.864.288-.192.616-.288.984-.288Z" fill="#fff"/>
  <path d="M126.217 16.29c1.024 0 1.841.335 2.45 1.006.61.67.915 1.64.915 2.907V26h-1.884v-5.23c0-.877-.164-1.554-.494-2.03-.329-.475-.828-.713-1.499-.713a2.39 2.39 0 0 0-1.755.732c-.476.475-.714 1.158-.714 2.048V26h-1.883v-9.49h1.664c.024.597.061 1.115.11 1.554.317-.585.737-1.024 1.261-1.317.537-.304 1.146-.457 1.829-.457Zm-8.503-1.317c-.317 0-.591-.121-.823-.365a1.21 1.21 0 0 1-.347-.86c0-.329.116-.61.347-.84.232-.245.506-.367.823-.367.342 0 .628.122.86.366.231.232.347.512.347.841 0 .33-.122.616-.366.86a1.117 1.117 0 0 1-.841.365ZM118.665 26h-1.883v-9.49h1.883V26Zm-8.206-9.71c1.134 0 2.048.335 2.743 1.006.707.67 1.061 1.634 1.061 2.89V26h-1.628a12.068 12.068 0 0 0-.091-1.17c-.585.914-1.524 1.371-2.816 1.371a4.386 4.386 0 0 1-1.756-.347 3.033 3.033 0 0 1-1.261-1.006c-.317-.439-.476-.97-.476-1.59 0-.94.384-1.683 1.152-2.232.768-.548 1.75-.823 2.944-.823.671 0 1.36.092 2.067.275v-.037c0-.865-.171-1.5-.512-1.902-.342-.414-.854-.621-1.536-.621-.549 0-1.012.122-1.39.365-.366.232-.677.573-.933 1.024l-1.389-.804c.304-.67.798-1.207 1.481-1.61.682-.402 1.463-.603 2.34-.603Zm1.939 5.614c-.732-.183-1.372-.274-1.92-.274-.732 0-1.299.14-1.701.42-.402.28-.603.67-.603 1.17 0 .452.164.811.493 1.08.329.255.762.383 1.299.383.67 0 1.243-.189 1.718-.566.476-.39.714-.927.714-1.61v-.603Zm-11.592-5.614c1.012 0 1.823.341 2.432 1.024.622.67.933 1.634.933 2.89V26h-1.883v-5.23c0-.878-.165-1.554-.494-2.03-.329-.475-.829-.713-1.5-.713-.682 0-1.267.244-1.755.732-.475.475-.713 1.158-.713 2.048V26h-1.884V12.085h1.884v5.796a3.15 3.15 0 0 1 1.243-1.189 3.756 3.756 0 0 1 1.737-.402ZM89.54 24.409c.72 0 1.335-.177 1.847-.53.512-.354.92-.848 1.225-1.482l1.61.951c-.354.866-.945 1.56-1.774 2.085-.83.512-1.786.768-2.871.768a5.98 5.98 0 0 1-3.145-.86c-.939-.585-1.683-1.401-2.231-2.45-.549-1.048-.823-2.249-.823-3.602 0-1.353.274-2.554.823-3.602.548-1.049 1.292-1.86 2.23-2.432.951-.573 2-.86 3.146-.86 1.085 0 2.042.262 2.87.787.83.511 1.42 1.2 1.774 2.066l-1.609.95c-.304-.633-.713-1.127-1.225-1.48-.512-.354-1.127-.53-1.847-.53-.792 0-1.5.213-2.12.64-.623.414-1.104 1.011-1.445 1.791-.342.768-.512 1.658-.512 2.67s.17 1.908.512 2.688c.34.768.822 1.365 1.444 1.792a3.66 3.66 0 0 0 2.121.64ZM77.53 16.29c1.134 0 2.049.335 2.743 1.006.708.67 1.061 1.634 1.061 2.89V26h-1.627a11.936 11.936 0 0 0-.092-1.17c-.585.914-1.524 1.371-2.816 1.371a4.381 4.381 0 0 1-1.755-.347 3.033 3.033 0 0 1-1.262-1.006c-.317-.439-.475-.97-.475-1.59 0-.94.384-1.683 1.152-2.232.768-.548 1.749-.823 2.944-.823.67 0 1.359.092 2.066.275v-.037c0-.865-.17-1.5-.512-1.902-.341-.414-.853-.621-1.536-.621-.549 0-1.012.122-1.39.365-.366.232-.676.573-.932 1.024l-1.39-.804c.305-.67.798-1.207 1.481-1.61.683-.402 1.463-.603 2.34-.603Zm1.939 5.614c-.731-.183-1.371-.274-1.92-.274-.732 0-1.298.14-1.7.42-.403.28-.604.67-.604 1.17 0 .452.164.811.494 1.08.329.255.761.383 1.298.383.67 0 1.243-.189 1.719-.566.475-.39.713-.927.713-1.61v-.603ZM68.735 24.5c.853 0 1.536-.396 2.048-1.188l1.444.841c-.329.683-.798 1.195-1.408 1.536-.597.341-1.286.512-2.066.512a4.65 4.65 0 0 1-2.34-.603 4.39 4.39 0 0 1-1.683-1.72c-.414-.755-.622-1.633-.622-2.632 0-1 .208-1.871.622-2.615.415-.756.975-1.335 1.682-1.737a4.65 4.65 0 0 1 2.341-.604c.78 0 1.469.17 2.066.512.61.342 1.08.854 1.408 1.536l-1.444.841c-.512-.78-1.195-1.17-2.048-1.17-.793 0-1.433.293-1.92.878-.488.573-.732 1.36-.732 2.359 0 1.012.244 1.81.732 2.395.487.573 1.127.86 1.92.86Zm-15.484-3.254c0-.963.213-1.823.64-2.579a4.618 4.618 0 0 1 1.7-1.755 4.574 4.574 0 0 1 2.323-.622c.817 0 1.578.207 2.285.622.708.415 1.275 1 1.701 1.755.427.756.64 1.616.64 2.579 0 .963-.213 1.822-.64 2.578a4.618 4.618 0 0 1-1.7 1.755 4.442 4.442 0 0 1-2.286.622 4.574 4.574 0 0 1-2.322-.622 4.618 4.618 0 0 1-1.701-1.755c-.427-.756-.64-1.615-.64-2.578Zm1.975 0c0 1 .25 1.792.75 2.377.511.585 1.151.878 1.92.878.78 0 1.42-.293 1.92-.878s.75-1.378.75-2.377c0-1-.257-1.792-.769-2.377a2.392 2.392 0 0 0-1.901-.878c-.769 0-1.409.292-1.92.878-.5.585-.75 1.377-.75 2.377Zm-5.854-8.631h1.554V26h-1.901v-9.692l-3.95 6.2h-1.116l-3.986-6.236V26h-1.865V12.615h1.646l4.809 7.625 4.809-7.625Z" fill="#560127"/>
  <g clip-path="url(#a)">
    <path d="M16 35.005c8.84 0 16.005-7.166 16.005-16.005 0-8.84-7.166-16.005-16.005-16.005C7.16 2.995-.005 10.161-.005 19c0 8.84 7.166 16.005 16.005 16.005Z" fill="#C15E97"/>
    <path d="m16.121 14.808 2.23-3.715a1.093 1.093 0 0 1 1.443.002c1.53 2.416 2.953 4.914 4.376 7.413a279.833 279.833 0 0 0 2.847 4.92c.819 1.223-.627 2.498-1.705 1.466l-6.198-10.723-6.153 10.61c-.761 1.04-2.312.285-1.992-.954l3.86-6.762c.025-.164-.443-.955-.674-1.348l-.096-.164-.012-.02c-.12-.207-.812-1.414-.88-1.363l-6.11 10.693c-.964.977-2.376.07-1.865-1.226l7.333-12.543c.467-.39 1.103-.36 1.523.08l2.073 3.634Zm2.612 3.931c2.253-.417 2.305 2.759.38 2.759-1.679 0-1.857-2.485-.38-2.759Z" fill="#fff"/>
  </g>
  <defs>
    <clipPath id="a">
      <path fill="#fff" transform="translate(0 3)" d="M0 0h32v32H0z"/>
    </clipPath>
  </defs>
</svg>
