<svg width="30" height="30" fill="none" xmlns="http://www.w3.org/2000/svg">
  <path fill-rule="evenodd" clip-rule="evenodd" d="M2.467 7.495c.046.041.084.073.12.107.377.365.75.734 1.133 1.095.085.081.086.137.024.23-.8 1.21-1.09 2.537-.824 3.943.358 1.886 1.456 3.26 3.248 4.089 1.06.489 2.183.614 3.338.443a5.646 5.646 0 0 0 2.166-.788c.11-.068.17-.06.26.028.974.958 1.955 1.91 2.928 2.87.108.105.163.117.28.004 1.112-1.087 2.234-2.166 3.347-3.254.122-.12.199-.14.36-.047.973.568 2.033.795 3.167.744 2.25-.102 4.305-1.625 5.003-3.716.528-1.583.332-3.086-.529-4.515-.056-.093-.06-.15.025-.231.314-.293.619-.594.928-.891.028-.028.06-.052.092-.079 3.297 4.694 3.762 12.244-1.543 17.803-5.495 5.758-14.563 6.206-20.618 1.264-6.149-5.02-6.88-13.26-2.905-19.1Z" fill="#DD6B20"/>
  <path fill-rule="evenodd" clip-rule="evenodd" d="M25.318 5.632C19.417-.21 9.822.285 4.703 5.4c.03.033.059.067.09.098 3.383 3.283 6.766 6.564 10.145 9.848.096.093.15.082.236-.004.437-.429.878-.853 1.319-1.277 2.852-2.745 5.705-5.49 8.559-8.232.076-.073.17-.13.266-.2Zm-10.27 11.786L2.685 5.4c.03-.038.054-.075.083-.107 1.488-1.598 3.215-2.89 5.23-3.81A16.24 16.24 0 0 1 11.432.358a16.717 16.717 0 0 1 4.154-.341c2.04.088 3.992.54 5.858 1.347 2.243.97 4.137 2.386 5.745 4.176.093.103.04.15-.032.219-2 1.925-3.998 3.85-5.996 5.776l-5.982 5.767c-.036.035-.074.068-.13.117ZM9.733 14.608c-.837.742-2.699.914-3.931-.278-1.237-1.197-1.067-2.966-.255-3.886l4.186 4.164ZM20.563 14.32l4.193-4.072c.59.64.863 2.272-.158 3.476-1.136 1.338-3.01 1.33-4.035.596Z" fill="#DD6B20"/>
</svg>