<svg width="40" height="40" fill="none" xmlns="http://www.w3.org/2000/svg">
  <path fill-rule="evenodd" clip-rule="evenodd" d="M17.022 8a1 1 0 0 0-1-1h-3.444a1 1 0 0 0-1 1v3.417a1 1 0 0 1-1 1H8a1 1 0 0 0-1 1V32a1 1 0 0 0 1 1h3.445a1 1 0 0 0 1-1V13.417a1 1 0 0 1 1-1h2.577a1 1 0 0 0 1-1V8Zm10.926 0a1 1 0 0 0-1-1h-3.444a1 1 0 0 0-1 1v3.417a1 1 0 0 0 1 1h2.388a1 1 0 0 1 1 1V32a1 1 0 0 0 1 1h3.445a1 1 0 0 0 1-1V13.417a1 1 0 0 0-1-1h-2.389a1 1 0 0 1-1-1V8Zm-5.52 10.37a1 1 0 0 0-1-1h-3.444a1 1 0 0 0-1 1v8.523a1 1 0 0 0 1 1h3.444a1 1 0 0 0 1-1v-8.524Z" fill="currentColor"/>
</svg>