<svg width="30" height="30" fill="none" xmlns="http://www.w3.org/2000/svg">
  <path fill-rule="evenodd" clip-rule="evenodd" d="M12.285 3.6a1.6 1.6 0 0 0-1.6-1.6H8.298a1.6 1.6 0 0 0-1.6 1.6v2.217a1.6 1.6 0 0 1-1.6 1.6H3.6a1.6 1.6 0 0 0-1.6 1.6V26.4A1.6 1.6 0 0 0 3.6 28h2.387a1.6 1.6 0 0 0 1.6-1.6V9.017a1.6 1.6 0 0 1 1.6-1.6h1.498a1.6 1.6 0 0 0 1.6-1.6V3.6Zm11.212 0a1.6 1.6 0 0 0-1.6-1.6H19.51a1.6 1.6 0 0 0-1.6 1.6v2.217a1.6 1.6 0 0 0 1.6 1.6h1.303a1.6 1.6 0 0 1 1.6 1.6V26.4a1.6 1.6 0 0 0 1.6 1.6H26.4a1.6 1.6 0 0 0 1.6-1.6V9.017a1.6 1.6 0 0 0-1.6-1.6h-1.303a1.6 1.6 0 0 1-1.6-1.6V3.6Zm-5.665 10.37a1.6 1.6 0 0 0-1.6-1.6h-2.387a1.6 1.6 0 0 0-1.6 1.6v7.323a1.6 1.6 0 0 0 1.6 1.6h2.387a1.6 1.6 0 0 0 1.6-1.6v-7.324Z" fill="currentColor"/>
</svg>