<svg fill="none" xmlns="http://www.w3.org/2000/svg" viewBox="0 0 30 30">
  <path fill-rule="evenodd" clip-rule="evenodd" d="M15.502 13.858v1.071a.5.5 0 0 1-.5.5h-3.806a.5.5 0 0 1-.5-.5V6.048c0-.027.021-.048.048-.048h5.634a3.929 3.929 0 1 1 0 7.858h-.876ZM9.07 15.32a.5.5 0 0 1 .848 0l4.994 7.986a.5.5 0 0 1-.424.765H4.501a.5.5 0 0 1-.424-.765L9.07 15.32Zm11.638 9.537c2.875 0 5.206-2.287 5.206-5.107 0-2.821-2.331-5.108-5.206-5.108-2.876 0-5.206 2.287-5.206 5.108 0 2.82 2.33 5.107 5.206 5.107Z" fill="#5B2DA4"/>
</svg>
