<svg width="40" height="40" fill="none" xmlns="http://www.w3.org/2000/svg">
  <path fill-rule="evenodd" clip-rule="evenodd" d="M19.393 10a2 2 0 1 0-1.835-1.202l.073.125-.01.006A2 2 0 0 0 19.393 10Zm-3-1.979V8a3 3 0 1 1 6 0v.006l5.887 3.399.005-.003a3 3 0 1 1 2.308 5.488v6.22a3 3 0 1 1-2.299 5.493l-5.901 3.41a3 3 0 0 1-6-.013v-.005l-5.888-3.4-.005.003a3 3 0 1 1-2.308-5.488v-6.22a3 3 0 1 1 2.308-5.488l.02.012 5.873-3.393Zm-4.835 4.41 5.196-3.002a3.007 3.007 0 0 0 1.839 1.463v5.027c-.78.25-1.446.88-1.875 1.728l-4.84-2.794a3.006 3.006 0 0 0-.32-2.422Zm4.7 6.682-5.153-2.974a3 3 0 0 1-1.513.802v6.118c.596.12 1.153.42 1.585.876l5.132-2.963a5.282 5.282 0 0 1-.051-1.859Zm.59 3.28-4.943 2.854c.208.8.072 1.646-.355 2.335l5.198 3.001a3.007 3.007 0 0 1 1.845-1.475V23.88c-.705-.226-1.316-.761-1.744-1.489Zm3.245 1.5v-.008c.722-.227 1.348-.779 1.78-1.53l5.008 2.892c-.21.805-.07 1.655.362 2.347l-5.198 3.002a3.006 3.006 0 0 0-1.952-1.514v-5.19Zm2.307-2.965 5.208 3.007a2.998 2.998 0 0 1 1.584-.876v-6.118a3 3 0 0 1-1.512-.802l-5.232 3.02a5.334 5.334 0 0 1-.048 1.769Zm-.399-3.242 4.907-2.834a3.006 3.006 0 0 1 .327-2.434l-5.198-3c-.399.743-1.103 1.299-1.944 1.5v4.997c.798.25 1.477.897 1.908 1.77ZM19.393 30a2 2 0 0 0-1.779 1.084l.007.003-.052.09A2 2 0 1 0 19.392 30Zm8.726-2.892-.009-.016A2 2 0 0 1 29.75 24h.073a2 2 0 1 1-1.704 3.108Zm.002-14.178-.019-.011A2 2 0 0 0 29.75 16h.074a2 2 0 1 0-1.596-3.255l-.107.185ZM8.96 16h.075A1.999 1.999 0 0 0 10 12.268 2 2 0 1 0 8.96 16Zm.074 8h-.072a2 2 0 1 0 .072 0Zm11.75-1.81c.424-.553.715-1.359.715-2.29s-.291-1.737-.716-2.29c-.424-.552-.94-.81-1.434-.81-.495 0-1.01.258-1.435.81-.424.553-.715 1.359-.715 2.29s.29 1.737.715 2.29c.209.27.439.47.678.604V20h1.5v2.802c.244-.133.48-.336.691-.612Z" fill="currentColor"/>
</svg>