<svg width="30" height="30" fill="none" xmlns="http://www.w3.org/2000/svg">
  <path fill-rule="evenodd" clip-rule="evenodd" d="M14.85 5.28c1.174 0 2.057-.905 2.057-1.94S16.024 1.4 14.85 1.4s-2.058.905-2.058 1.94c0 .247.05.486.143.707l.119.198-.018.01c.341.6 1.01 1.025 1.814 1.025Zm-3.058-1.92v-.02c0-1.624 1.37-2.94 3.058-2.94 1.688 0 3.057 1.316 3.057 2.94v.006l6 3.33.006-.002c1.462-.812 3.332-.33 4.177 1.076.844 1.406.343 3.204-1.12 4.016a3.129 3.129 0 0 1-.705.286v6.096c.241.065.479.16.706.286 1.462.812 1.963 2.61 1.12 4.016-.844 1.403-2.708 1.886-4.169 1.081l-6.015 3.341c-.006 1.618-1.373 2.928-3.057 2.928-1.689 0-3.058-1.316-3.058-2.94v-.005l-6-3.331-.005.002c-1.462.812-3.332.33-4.177-1.076-.844-1.406-.343-3.204 1.12-4.016.227-.126.464-.221.705-.286v-6.096a3.136 3.136 0 0 1-.705-.286C1.267 10.954.766 9.156 1.61 7.75c.845-1.406 2.715-1.888 4.177-1.076l.02.011 5.985-3.324ZM6.865 7.683l5.296-2.941a3.046 3.046 0 0 0 1.874 1.433v4.927c-.795.245-1.473.861-1.911 1.693L7.19 10.055c.25-.807.12-1.672-.326-2.373Zm4.79 6.55-5.251-2.916a3.1 3.1 0 0 1-1.542.786v5.996a3.092 3.092 0 0 1 1.615.858l5.23-2.903a4.98 4.98 0 0 1-.052-1.822Zm.602 3.213-5.038 2.797a2.85 2.85 0 0 1-.363 2.289l5.298 2.94c.39-.7 1.068-1.23 1.881-1.445v-5.123c-.718-.221-1.341-.746-1.778-1.458ZM15.564 24a3.049 3.049 0 0 1 1.989 1.484l5.298-2.943a2.85 2.85 0 0 1-.37-2.3l-5.103-2.834c-.44.736-1.078 1.277-1.814 1.5V24Zm2.351-7.992 5.308 2.947a3.092 3.092 0 0 1 1.615-.858v-5.996a3.1 3.1 0 0 1-1.541-.786l-5.332 2.96a5.037 5.037 0 0 1-.05 1.733Zm-.406-3.177 5-2.777a2.849 2.849 0 0 1 .334-2.385l-5.298-2.941a3.05 3.05 0 0 1-1.981 1.47v4.898c.813.246 1.505.879 1.945 1.735Zm-.832 13.139-.002.001.029.049c.13.257.203.543.203.839 0 1.035-.883 1.94-2.057 1.94s-2.058-.905-2.058-1.94c0-.253.053-.499.15-.725l.102-.17-.014-.007a2.064 2.064 0 0 1 1.82-1.038c.815 0 1.491.437 1.827 1.05Zm7.069-17.8-.015-.008a1.893 1.893 0 0 0-.153 1.873l.197.328c.593.795 1.745 1.064 2.68.545.997-.553 1.31-1.757.76-2.674s-1.791-1.257-2.787-.704a2.04 2.04 0 0 0-.597.498l-.085.142ZM6.12 10.038c.422-.891.088-1.987-.849-2.507-.995-.553-2.237-.212-2.787.704-.55.917-.236 2.121.76 2.674.936.52 2.09.25 2.681-.547l.195-.324ZM23.58 20.16l.194-.323c.591-.797 1.745-1.067 2.682-.547.996.553 1.31 1.757.76 2.674s-1.792 1.257-2.788.704c-.937-.52-1.27-1.616-.848-2.508Zm-20.336-.87c.937-.52 2.09-.25 2.683.547l.194.324c.422.891.088 1.987-.849 2.507-.996.553-2.237.213-2.787-.704-.55-.917-.237-2.121.76-2.674Zm10.791-4.19v2.716c-.768-.404-1.44-1.395-1.44-2.815 0-1.888 1.188-3.018 2.211-3.018s2.21 1.13 2.21 3.018c0 1.428-.678 2.422-1.452 2.822V15.1h-1.529Z" fill="#27AA8B"/>
</svg>