<svg viewBox="0 0 625 137" fill="none" xmlns="http://www.w3.org/2000/svg">
  <path fill-rule="evenodd" clip-rule="evenodd" d="M66.487.388c-2.14.588-63.18 60.23-65.216 63.724-4.139 7.1 2.541 18.157 9.814 16.244 1.321-.347 17.886-15.843 36.813-34.434C80.984 13.42 82.281 12.005 81.588 9.157c-1.526-6.262-8.816-10.495-15.1-8.77ZM17.5 14.863c-6.743 5.303-6.562 13.45.45 20.296l4.006 3.913 2.742-2.44c5.987-5.322 14.288-13.902 14.288-14.767 0-.503-2.015-2.773-4.478-5.043-3.973-3.662-5.028-4.127-9.365-4.127-3.499 0-5.67.616-7.643 2.168Zm61.06 4.255c-3.26 3.375-6.076 6.583-6.258 7.13-.182.546 4.845 6.158 11.172 12.47 6.327 6.312 11.506 11.815 11.508 12.227.011 2.055-3.106.202-8.004-4.76-2.993-3.028-5.772-5.391-6.177-5.25-.404.144-15.594 14.814-33.753 32.6-35.244 34.523-35.94 35.397-33.933 42.664 1.831 6.634 9.26 10.82 15.195 8.563 3.218-1.224 10.676-7.88 10.676-9.528 0-.676-.9-2.044-2-3.039-1.1-.995-2-2.313-2-2.928 0-1.909 15.435-16.572 17.443-16.572 1.045 0 2.743.764 3.775 1.697 1.798 1.628 3.075.502 31.08-27.403 16.06-16.005 30.239-29.407 31.507-29.782 3.826-1.132 8.195-8.131 8.195-13.13 0-3.606-.58-4.896-3.533-7.85-3.119-3.117-4.131-3.532-8.623-3.532-5.02 0-5.201.11-13.461 8.172-4.605 4.495-8.676 7.868-9.048 7.496-.372-.372.35-1.767 1.601-3.1 1.992-2.12 2.107-2.664.921-4.327-1.922-2.695-8.453-8.27-9.489-8.098-.477.079-3.535 2.905-6.795 6.28Zm101.39 12.327c-.02.413 4.785 18.637 10.678 40.5l10.714 39.75h15.317l5.184-23.25c2.851-12.787 5.971-27.525 6.932-32.75l1.748-9.5 1.769 10c.972 5.5 4.001 20 6.731 32.225 2.729 12.224 4.962 22.461 4.962 22.75 0 .289 3.505.525 7.789.525h7.788l10.892-39.25c5.99-21.588 11.083-39.812 11.318-40.5.311-.91-1.224-1.25-5.633-1.25-5.99 0-6.07.038-6.939 3.25-.484 1.787-4.426 17.516-8.761 34.953-4.335 17.436-8.057 31.527-8.271 31.313-.373-.373-14.151-67.225-14.173-68.766-.005-.413-3.385-.75-7.51-.75s-7.505.337-7.51.75c-.023 1.642-13.812 68.406-14.211 68.805-.32.319-11.593-45.703-16.486-67.305-.458-2.021-1.109-2.25-6.401-2.25-3.241 0-5.908.337-5.927.75Zm302.433 1c1.79 5.876 21.973 70.6 23.244 74.54l1.546 4.791 7.539-.291 7.539-.29 12.341-39.5c6.788-21.725 12.353-39.837 12.367-40.25.014-.413-2.788-.75-6.228-.75h-6.253l-8.843 31.25c-4.863 17.188-9.34 33.003-9.948 35.145-1.024 3.61-1.158 3.719-1.826 1.5-.396-1.317-4.87-17.132-9.942-35.145l-9.221-32.75h-6.424c-5.654 0-6.36.21-5.891 1.75Zm66.602 38.712v40.538h12.306l-.563-34.243-.563-34.244 10.4 29.994c14.692 42.367 12.99 38.493 16.907 38.493h3.321l11.346-33.75 11.346-33.75.263 33.75.264 33.75h10.973V30.62l-9.165.287-9.165.288-5.374 16c-2.955 8.8-7.347 22.3-9.759 30-2.412 7.7-4.576 13.325-4.808 12.5-.232-.825-4.669-14.325-9.858-30l-9.437-28.5-9.217-.288-9.217-.287v40.537ZM49.236 47.986c-3.987 3.997-7.25 7.722-7.25 8.279 0 .558 2.012 2.988 4.47 5.4l4.47 4.388 5.28-4.93c2.904-2.71 6.585-6.417 8.18-8.237l2.9-3.31-4.358-4.44c-2.397-2.443-4.827-4.435-5.4-4.428-.573.007-4.305 3.282-8.292 7.278Zm59.971-.014c-3.421 3.452-6.221 6.738-6.221 7.3 0 .565 5.553 6.515 12.339 13.224 13.294 13.143 15.055 14.037 19.992 10.154 2.949-2.32 4.899-8.085 4.024-11.894-.505-2.197-21.824-25.061-23.368-25.061-.299 0-3.344 2.825-6.766 6.277Zm184.952 2.992c-5.142 1.645-12.594 8.958-15.125 14.84-4.664 10.843-3.403 27.503 2.753 36.367 1.518 2.187 4.902 5.3 7.518 6.918 3.915 2.42 6.144 3.021 12.588 3.394 12.363.716 20.486-3.037 24.18-11.172 3.096-6.818 2.733-7.616-3.466-7.616-5.052 0-5.455.185-6.641 3.047-2.476 5.979-13.185 8.313-20.065 4.375-3.586-2.053-7.25-8.32-8.289-14.172l-.576-3.25h20.908c20.386 0 20.924-.053 21.576-2.108 1-3.15-.438-12.785-2.668-17.88-2.623-5.993-5.373-8.81-11.366-11.635-5.493-2.59-15.131-3.091-21.327-1.108Zm50.357.325c-7.699 2.819-12.53 9.517-12.53 17.374v4.032h11V69.25c0-2.18.868-4.454 2.365-6.194 2.038-2.37 3.278-2.808 8.963-3.17 6.268-.4 6.749-.27 9.635 2.617 1.937 1.937 3.042 4.06 3.051 5.864.007 1.555.268 3.774.578 4.932.529 1.969.059 2.15-7.263 2.814-20.34 1.843-27.857 6.045-29.826 16.672-1.456 7.857 3.974 16.752 11.555 18.926 8.445 2.422 18.424 0 22.771-5.526l2.171-2.761v8.27h11l-.022-23.75c-.019-20.997-.238-24.225-1.883-27.85-3.207-7.06-10.089-10.446-20.994-10.33-3.631.039-8.388.725-10.571 1.524Zm103.47.487c-12.196 5.52-18.333 19.449-15.957 36.214 2.267 16 11.928 24.714 27.385 24.699 8.093-.007 12.898-1.463 17.15-5.197 4.111-3.609 6.422-7.657 6.422-11.247 0-2.424-.271-2.55-5.5-2.55-4.128 0-5.5.36-5.5 1.444 0 2.685-4.457 6.651-8.495 7.558-10.542 2.369-20.505-5.827-20.505-16.868 0-2.111.227-2.134 21-2.134h21v-5.818c0-9.205-2.486-15.946-7.861-21.32-2.868-2.866-6.166-5.06-8.639-5.744-6.377-1.765-15.411-1.341-20.5.963Zm-69.558.669c.317.963 5.221 14.575 10.896 30.25l10.32 28.5h12.614l10.863-30c5.974-16.5 10.863-30.112 10.863-30.25.001-.138-2.841-.25-6.315-.25h-6.317l-7.387 24c-4.062 13.2-7.635 24-7.938 24-.303 0-3.884-10.8-7.958-24l-7.406-24h-6.406c-5.654 0-6.338.205-5.829 1.75Zm-82.186 8.895c-3.63 1.789-6.934 6.494-7.879 11.22l-.627 3.135h30.25v-2.532c0-4.297-2.722-9.328-6.19-11.442-4.027-2.455-11-2.626-15.554-.381Zm156.244-.745c-3.912 1.724-9.5 9.998-9.5 14.068 0 .665 5.537 1.032 15.579 1.032h15.58l-.707-3.25c-1.937-8.905-5.234-12.006-13.216-12.428-3.155-.167-6.636.093-7.736.578ZM19.516 76.797c-4.142 3.934-7.53 7.465-7.53 7.846 0 .985 8.802 10.052 9.758 10.052.436 0 4.061-3.291 8.057-7.314 4.735-4.767 7.064-7.838 6.687-8.82-.318-.828-2.572-3.173-5.01-5.211l-4.433-3.705-7.53 7.152ZM79.48 78.7l-7.958 8.005 4.66 4.66 4.661 4.662 6.821-6.054c11.782-10.455 11.414-9.59 6.293-14.806-2.413-2.46-4.868-4.472-5.454-4.472-.586 0-4.646 3.602-9.023 8.005Zm10.622 12.245c-11.319 11.137-23.176 22.766-26.349 25.84-5.106 4.948-5.765 6.039-5.746 9.5.037 6.536 4.544 10.41 12.11 10.41 4.211 0 4.511-.248 25.345-21 11.595-11.55 21.538-21 22.095-21 1.293 0 9.428-8.252 9.428-9.565 0-1.513-13.362-14.435-14.926-14.435-.757 0-10.637 9.112-21.957 20.25Zm267.225-6.771c-12.337 2.239-16.904 6.846-13.904 14.026 2.4 5.745 8.455 7.107 16.062 3.614 6.257-2.873 7.853-5.304 8.323-12.676.472-7.41 1.171-7.078-10.481-4.964ZM44.745 102.522l-7.005 6.826 7.075 7.174c3.891 3.945 7.446 7.173 7.9 7.173 1.318 0 14.546-13.7 14.14-14.645-.584-1.355-13.453-13.355-14.322-13.355-.43 0-3.936 3.072-7.788 6.827Zm63.968 3.945c-4.25 4.275-7.727 8.231-7.727 8.792 0 .561 2.018 3 4.484 5.42 4.086 4.01 4.925 4.401 9.459 4.401 5.392 0 8.13-1.691 10.659-6.583 2.74-5.298 1.842-9.413-3.239-14.845-2.55-2.726-4.923-4.957-5.273-4.957-.35 0-4.114 3.497-8.363 7.772Z" fill="#000"/>
</svg>
