<svg version="1.0" xmlns="http://www.w3.org/2000/svg" viewBox="0 0 500 500">
  <path d="M275.2 124c-6.2 6.3-11.7 12.2-12.3 13-.5.8-.9 1.2-.9.8 0-.4-1.2.4-2.7 1.9-1.6 1.4-2.7 3.2-2.5 4 .2 1-.1 1.2-1 .7-.7-.4-.5.2.6 1.4 2 2.3 4.5 2 2.5-.4-.7-.8-.7-1.4-.1-1.4.5 0 1.5.7 2.2 1.5 1.3 1.6 3.5 1 2.4-.6-.3-.5-1-.7-1.5-.4-.5.4-.9.2-.9-.3 0-1.4 2.6-3.3 4.1-3 .8.2 1.3-.3 1.1-1.1-.1-.7.3-1.9.9-2.7 1.1-1.3.6-1.8-1.4-1.5-.5.1-.6-.3-.2-.8.3-.6 1.2-.8 2-.4.8.3 1.6 0 1.6-.6.3-2.6.4-3 1.1-3.7.4-.3.5.4.3 1.7l-.5 2.3 2.1-2c1.1-1.1 2.1-3 2.2-4.1 0-1.3.7-2 1.7-1.8 1.9.3 4.2-1.4 3.4-2.6-.3-.5 0-.9.6-.9s.8-.5.4-1.3c-.5-.8-.3-.8.9.2.9.7 1.4 1.8 1 2.5-.4.6.1.5 1-.2 1.3-1.1 1.4-1.7.5-3.2-.7-1-1.6-1.6-2.2-1.3-.5.3-.6.1-.2-.6.6-.9 1.1-.9 2.1-.1.9.8 1.5.8 2 0 .3-.5.3-1-.1-1s.3-1.2 1.7-2.7c1.3-1.4 1.9-2.3 1.2-2-.6.4-1.3.4-1.5 0-.1-.5-5.4 4.4-11.6 10.7zm2.6.6c-.1.5-.9.9-1.6 1-1 .2-1.1-.1-.1-1.2 1.2-1.4 2.4-1.3 1.7.2zm-10.8 12c0 .8-1.9 1.3-2.4.6-.3-.5.1-.9.9-.9s1.5.2 1.5.3zm-2 2.9c1.1 1.3 1 1.4-.3 1-.8-.4-1.8-.1-2.2.4-.3.6-1.1.9-1.6.5-.5-.3-.7-1-.3-1.5.3-.5 1-.7 1.5-.4.5.4.9.1.9-.4 0-1.5.5-1.4 2 .4zm-5.6 2.3c.3.5-.1.9-.9.9s-1.2-.4-.9-.9c.3-.4.7-.8.9-.8.2 0 .6.4.9.8zm-55.7 52.3c-6.1 6.2-11.1 11.6-10.9 12.1.1.5-.2.7-.6.4-1.2-.7-12.5 11.1-11.8 12.3.9 1.3 3.4.8 5.7-1.3 1.6-1.3 1.8-2 .9-3.1-.9-1-.8-1.3.4-1.1.9.1 1.9.6 2.3 1.1.4.4.2.5-.6 0-1-.6-1.2-.4-.7.4 1 1.5 1.9.7 2.3-1.9.2-1.4-.2-1.8-1.9-1.5-1.1.3-1.7.1-1.4-.3.4-.4 1.1-.7 1.6-.7 1.8 0 7-4.7 6.4-5.7-.5-.7-.2-.8.5-.3.9.5.6 1.5-1.3 3.4s-2.2 2.8-1.2 2.8c.8 0 1.3-.4 1-.8-.2-.4.3-1.2 1.1-1.7.9-.5 1.7-1.5 1.8-2.3.4-2.4 1.8-4 2.9-3.3.7.5.8.2.4-.5-.6-.8-.2-1.1 1-.9 1 .2 1.9-.2 1.9-.9 0-.6.3-1.5.7-1.9.4-.4.3-1.2-.2-1.9-.7-.8-.5-1.2.5-1.2.8 0 1.2.5.8 1-1.4 2.2 3.6-1.5 5.2-3.9.9-1.4 1.1-2.3.4-1.9-.8.5-1 .4-.5-.4.4-.6 1.5-1 2.4-.9 1.2.2 1.6-.3 1.4-1.5-.2-1 .2-2.5.9-3.3.6-.8.9-1.4.5-1.4-.3 0-5.7 5-11.9 11.1zm5.3-1.1c-.6 1.1-1.6 1.7-2.2 1.4-.7-.5-.5-1.2.7-2.1 2.5-1.8 2.8-1.7 1.5.7zm-23.7 23.4c.8-.5.8-.2 0 .6-.7.8-1.9 1.5-2.7 1.6-1.2.2-1.3-.1-.3-1.7.7-1.1 1.3-1.5 1.5-.9.2.6.9.7 1.5.4zm90.5-31.8c-.4.3-.3 1.4.2 2.4s.6 2 .2 2.4c-.3.4.1.4 1 .1.9-.4 1.9-.1 2.4.6.5.8.3 1-.7.4-.8-.5-.3.4 1 1.8 1.3 1.5 2.8 2.4 3.2 2.1.4-.2 1.3.5 1.9 1.6.6 1.1 1.5 1.8 1.9 1.5 1-.5 2.6 2.4 2.2 4-.2.5.1.7.5.3.4-.4 1.3-.3 2.1.3.7.6 1.3.8 1.3.4s.8-.1 1.8.6c.9.7.6.1-.7-1.3-1.3-1.5-2.9-2.5-3.4-2.1-.7.4-.8-.1-.3-1.3.4-1 .4-1.6.1-1.3-.3.4-3.6-2.5-7.3-6.3-3.7-3.8-7.1-6.6-7.4-6.2zm11.2 11.7c0 .5-.9-.1-2-1.4-1-1.3-1.9-2-2-1.5 0 .5-.7.3-1.5-.4s-1.2-1.7-.9-2.2c.7-1 6.4 3.9 6.4 5.5zm69.5-5.1c-2.5 2.8-4.5 5.4-4.5 6 0 .5-.4.6-1 .3-.5-.3-1-.3-1 .2 0 .4-1.5 2.4-3.3 4.4-1.7 2-4 4.6-5 5.8-1 1.2-2.2 1.9-2.8 1.6-.5-.4-.9-.3-.8.2.3 2-.2 3.4-1.1 2.8-.5-.3-1-.1-1 .4 0 .6-.6 1-1.2.8-.7-.1-1.3.5-1.3 1.3s-.4 1.8-1 2.2c-.9.7.8 1.2 2.9.9.5-.1.6.5.2 1.4-.3.9-.2 1.3.4 1 .5-.3.8-1.9.6-3.6-.3-2.2 0-2.9 1-2.5.7.3 1.8-.3 2.6-1.2 1.1-1.3 1.1-1.4-.1-.8-.9.6-1.2.4-.9-.5.7-2.2 3.3-1.7 3.1.6-.1 2-.1 2 1.3.1.9-1.3 1.1-2.3.4-3-1.4-1.4-1.3-2.7.3-2.4.6.2 1.1-.2 1-.8-.1-.7.5-1.1 1.5-1 1.1.1 1.6-.6 1.6-1.7-.2-1.5.1-1.6 1.4-.5 1.4 1.2 1.4 1 .3-1.1-1.1-1.9-1.1-2.2.1-1.5 1.7 1.1 5.9 1.3 5.2.3-.2-.4-1.3-.6-2.4-.4-1.3.2-1.7-.1-1.4-1 .3-.7 1.4-1.2 2.4-1 1.2.2 2.5-.6 3.6-2.3 1.3-2 1.4-2.4.2-1.5-1.5 1.3-2.8.8-2.8-1 0-.6.3-.7.7-.4.3.4 1.3.2 2-.5 1-.8 1.7-.9 2.1-.1.4.7 1.4.1 2.6-1.5 1.1-1.4 1.4-2.2.6-1.7-.8.5-1.1.3-.8-.6.3-.8 1.2-1.3 1.9-1.1.8.2 1 0 .6-.4-1.8-1.9-4-.9-8.2 3.8zm5.5-.8c0 .3-.4.8-1 1.1-.5.3-1 .1-1-.4 0-.6.5-1.1 1-1.1.6 0 1 .2 1 .4zm-6 6.9c0 .7-.4.6-1-.3-.8-1.2-1-1.2-1-.1 0 .8-.3 1.2-.6.8-.9-.9.6-2.8 1.7-2.2.5.4.9 1.2.9 1.8zm-20.7 18.2c.4.8.3 1.6-.1 1.9-.4.3-.9-.4-.9-1.5-.2-2.3.3-2.5 1-.4z"/>
  <path d="M359.1 196.4c-.8 1-.9 1.6-.1 2.1.5.3 1 .5 1.1.3.4-1.8.7-3.8.4-3.8-.1 0-.8.6-1.4 1.4zm-7.2 61.2c-.7.8-.8 1.4-.3 1.3 2.2-.4 3.5.2 2.8 1.3-.4.7-.3.8.4.4 1.1-.7 1.7.6 1.3 2.8-.1.5.5.6 1.3.3.9-.4 1.8-.1 2.2.5.4.6.3.8-.4.4-.6-.3-1.4-.1-1.8.5-.4.7-.3.9.4.5.6-.3 1.3-.2 1.7.4.3.5 1.6 1 2.7 1h2.1l-2.1-1.9c-1.2-1-2.2-2.3-2.2-2.8 0-.6-1.5-2.2-3.4-3.7-3-2.2-3.5-2.4-4.7-1zM135 261c-2.5 2.3-4.4 4.5-4.2 5.1.1.6-.2.8-.7.4-.6-.3-1.5.5-2.2 1.7-.7 1.3-1.9 2.8-2.6 3.3-1.1.9-.9 1.5 1.4 3.5 1.5 1.4 2.2 1.8 1.6 1-1.8-2-1.6-2.9.6-2.5 1.5.3 1.8-.1 1.4-1.2-.5-1.2-.3-1.4.8-.8 1.2.8 1.2.6 0-.8-.7-.9-1.8-1.4-2.4-1-.6.3-.7.1-.3-.6.6-.9 1.3-.8 3.1.3 1.5 1 2.6 1.2 3 .6.4-.6.1-.9-.6-.8-.6.2-1.2-.9-1.3-2.4-.1-2.2.1-2.5 1.3-1.5 1.2.9 1.3.9.7-.1-.4-.6-.3-1.2.1-1.2.5 0 1.5.6 2.2 1.2.8.8 1.1.8.8.2-.6-1 2.1-4.3 3-3.7 1.2.9 1.3 0 .2-1.4-1.2-1.5-1.2-1.6.5-1 1.6.6 1.7.5.6-.8-1.7-2.1-1.9-2-7 2.5zm2.2.9c.8-1.1.9-1.1.6-.1-.4 1.6-2.2 1.8-2.4.2-.2-.7-.1-.6.3.1.4.8.8.7 1.5-.2zm-7.8 9.6c-.4.8-1.1 1.2-1.6.9-.6-.4-.5-1 .3-1.5 1.9-1.2 1.9-1.1 1.3.6zM291 258.1c0 .6.7.8 1.6.5.9-.3 1.2-.2.9.5-.4.5-1.5.7-2.5.4-1.9-.6-6.4 4-5.4 5.6.3.5-.1.7-.8.4-.7-.3-3.1 1.3-5.2 3.5-3.7 3.7-3.9 4.2-2.3 5.5.9.9 1.5 1.3 1.3.9-.3-.3.4-1.4 1.5-2.5s1.7-2.4 1.4-2.8c-.5-1 1.9-2.3 4.8-2.6.9-.2 1.9-.3 2.2-.4.3 0 .1-.9-.4-1.9-.8-1.5-.5-1.8 1.5-2 1.8-.1 2.3.2 1.8 1.1-.6.8-.3.8.8-.1.9-.8 1.5-1.9 1.2-2.7-.3-.7 0-1.6.5-2 .6-.3.9-1.1.6-1.6-.8-1.3-3.5-1.1-3.5.2z"/>
  <path d="M283.5 269c-.3.5-.1 1 .5 1s.8.5.4 1.2-.3.8.4.4c.6-.4.9-1.3.5-2.1-.6-1.8-1-1.9-1.8-.5zm79 0c-.7 1.1.6 1.8 2.6 1.5.9-.2 1.6.3 1.6 1.1 0 1-.4 1.1-1.3.3-.8-.7-1.4-.6-2 .2-.4.7-.3.9.4.5.6-.3 1.3-.2 1.7.4.3.5 1.5 1 2.7 1 1.6 0 1.8.3.9 1.3-.8 1-.7 1.4.4 1.5.8.1 2.2.3 3 .4 1 .1 1.4.7 1 1.7-.3.8-.3 1.2.1.8.4-.4 1.6 0 2.6 1 1 .9 2.1 1.3 2.4 1 .8-.8-1.6-3.8-2.5-3.2-.4.2-1.5-.9-2.5-2.6-.9-1.6-2.2-2.9-2.7-2.9-.6 0-1.9-1-2.8-2.2-1.9-2.3-4.7-3.2-5.6-1.8zm-243.4 7.5c-1.7 2-3.1 4-3.1 4.6 0 .6-.3.8-.8.5-.4-.2-2.7 1.6-5.2 4-2.4 2.4-3.9 4.4-3.2 4.4.6 0 .9.6.6 1.3-.3.8.3 2 1.3 2.7 1.5 1.2 1.6 1.2.6 0-.7-.8-1.3-1.8-1.3-2.3 0-.6.5-.6 1.3-.1 2.1 1.5 5 1 5.3-.9.1-1.1 0-1.6-.3-1.3-.4.3-1.2.1-1.9-.5-1.5-1.2-.7-4.2.9-3.2.6.4.7.1.2-.7-.6-1-.4-1.2.8-.7 1.8.7 4.1-1.5 2.9-2.8-.4-.5.5-.2 1.9.7 2.6 1.7 2.7 1.7 1.5-.7-.6-1.3-1.5-2.1-2-1.8-.5.4-.6.1-.2-.5.3-.6 1.5-.9 2.6-.7 1.1.2 2.3-.1 2.6-.7.5-.7.2-.8-.6-.3s-1.1.3-.8-.6c.3-.8 1.1-1.3 1.8-1.1 1.1.3 1.1 0 0-1.2-.7-.9-1.4-1.6-1.5-1.6-.2 0-1.7 1.6-3.4 3.5zm3.9-2.1c0 .2-.8 1-1.7 1.7-1.6 1.3-1.7 1.2-.4-.4 1.3-1.6 2.1-2.1 2.1-1.3zm-6 8.2c0 .8-1.9 1.3-2.4.6-.3-.5.1-.9.9-.9s1.5.2 1.5.3zm-3.4 8.7c.5.9.4.9-.7-.1-.7-.6-1.7-1.2-2.2-1.2-.4 0-.5.6-.1 1.2.5.9.3.9-.9-.1-.9-.7-1.4-1.7-1.1-2.2.6-1.1 4 .5 5 2.4zm159.6-15.7c-1.2.8-2.2 2.2-2.2 3 0 .8-.4 1.3-1 1.1-.5-.1-4 3-7.7 6.9l-6.8 7.1 3.7-.1c3.2 0 3.4-.2 2-1.4-1.6-1.3-1.6-1.3 0-.8 1.2.3 1.5.1 1.1-1-.3-.9 0-1.4.8-1.2.7.2 1.4-.3 1.5-1 .1-.6.2-1.7.3-2.2 0-.6 1.2-.8 2.6-.6 1.4.3 2.3.2 2.1-.2-.6-.9 4.9-8.3 5.6-7.6.3.3.8-.2 1.1-1 .9-2.3-.7-2.7-3.1-1zm106.9 9.1c.7 1.2 1.5 2 1.8 1.7.3-.2-.3-1.2-1.3-2.2-1.7-1.6-1.8-1.6-.5.5zm3.9 3.2c.5 1.1 1.5 2.3 2.1 2.7.6.3.3-.5-.6-2-2-3-3-3.5-1.5-.7zm-180.1 32.8c-.1.4-.1 1.2 0 1.7s-.5.4-1.3-.3c-1.2-1-2.5-.2-7.5 5-6 6.1-7.3 7.8-4.8 6.2.6-.4 1.9-.8 2.7-.8.8 0 1.4-.8 1.4-1.8-.2-1.4.1-1.5 1.2-.6 1.1.9 1.4.9 1.4 0 0-.7.4-1 .9-.6 1.1.6 3.7-3.4 3.3-4.9-.2-.5.5-.3 1.4.5 1 .8 1.5.9 1.1.3-.6-1.1 1.9-2.9 3.6-2.6 1.4.4.7-.7-1.3-1.8-1.1-.6-2.1-.7-2.1-.3z"/>
  <path d="M201.6 327.8c-.3.5.1.9.9.9s1.2-.4.9-.9c-.3-.4-.7-.8-.9-.8-.2 0-.6.4-.9.8zm159.5 2.5c-.6.8-.7 1.8-.3 2.2.4.5.2.5-.4.2-1.4-.8-11.6 10.1-10.8 11.5.3.5 1.2.4 2.2-.4 1-.8 1.3-.9.9-.1-.4.6-.2 1.5.4 1.9.7.4.9.3.6-.3-.4-.6.2-2.2 1.3-3.5 1.1-1.4 1.6-2.9 1.2-3.4-.4-.5 0-.4.8.2 2.4 1.6 4.3 1.1 4.5-1.3.1-1.6-.3-2-1.7-1.8-1 .2-1.6 0-1.3-.5.6-.9 2.4-.8 4.2.3 1.4.9 2.5-.7 2.9-4 .3-2.6-2.6-3.3-4.5-1zm-.7 7.5c.3.5-.1.9-.9.9s-1.2-.4-.9-.9c.3-.4.7-.8.9-.8.2 0 .6.4.9.8zm-165.9-4.7c-.4.6-1.3.8-2.1.5-.7-.3-1.6-.1-1.9.4-.3.5-1.1.7-1.9.4-.7-.3-2.9 1.6-4.9 4.2-2 2.6-3.7 4.4-3.7 4 0-.4-1.8 1.2-4 3.5s-4 4.8-4 5.5c0 1.7 1.7 2.7 2.5 1.4.4-.6 1.1-.7 1.7-.4.7.4.8.2.4-.5-.4-.6-.2-1.8.4-2.6.6-.8.9-1.9.5-2.5-.4-.6-.1-.9.7-.8.7.2 1.2-.5 1.1-1.6-.1-1.2.2-1.5.9-.8s.4 2-1.1 4c-1.9 2.7-1.9 3-.4 2.7 1-.1 1.7-.9 1.5-1.8-.2-1.2.3-1.5 1.9-1.2 1.7.4 2 .2 1.1-.7-1.6-1.6-1.5-3.1.1-2.2 1 .6 1 .4 0-.7-1.8-1.9-1.6-2.8.6-2.4 1.1.2 3.8-1.4 6.8-4 2.8-2.5 5.4-4.1 5.8-3.7.5.4.5.1.1-.6-.9-1.5-1.3-1.5-2.1-.1zm-3.5 3.5c0 .8-1.9 1.3-2.4.6-.3-.5.1-.9.9-.9s1.5.2 1.5.3zm-3.6 1.3c.3.5-.1 1.4-.8 2-1.2 1-1.4.9-1.1-.6.2-1 .4-1.9.4-2.1.2-.5 1-.2 1.5.7zm158 9.3c-1.7 1.8-4.1 4.1-5.5 5-2.2 1.6-2.3 1.8-.7 3.1 1 .8 1.5 1.7 1.2 2-.3.3.1.4 1 .3.8-.1 1.9-.6 2.3-1.1.4-.4.2-.5-.4-.1-.7.4-1.3.2-1.3-.4 0-.6 1-1.5 2.3-2.1l2.2-1-2.2.5c-1.9.3-2.1.1-1.3-1.4.6-1.2 1.9-1.7 4-1.5 1.6.1 2.7-.1 2.4-.6-.3-.5-1-.7-1.5-.4-.5.3-.6-.1-.3-.9.3-.9 1-1.4 1.4-1.1.9.5.7-2.1-.1-3-.3-.3-1.9 1-3.5 2.7zm-165.5 7.5c-1.3 1.6-1.2 1.7.4.4 1.6-1.3 2.1-2.1 1.3-2.1-.2 0-1 .8-1.7 1.7zm155 2.6c-1.3 1.2-3.7 3.7-5.4 5.5l-3 3.3 2.7-.5c2.7-.5 5.4 1.4 4 2.9-.4.5-.2.5.5.2 1.5-.9.9-4.3-.7-3.9-1.3.3 2.6-5.7 4.9-7.4.9-.7 1-1.3.4-1.7-.6-.4-2.1.3-3.4 1.6z"/>
  <path d="M336.2 360.3c-2 2.6-2.1 3.5-.7 4 1 .4 1.2.1.8-1-.4-1.1-.2-1.4.5-.9.8.5 1 .2.6-.8-.4-1.1 0-1.4 1.6-1.1 1.3.2 2 .1 1.6-.2-1.2-1.2-3.5-1.2-4.4 0z"/>
</svg>
