<svg version="1.0" xmlns="http://www.w3.org/2000/svg" viewBox="0 0 500 500">
  <path d="M225 1.1C110.5 13.5 19.7 100.4 2.5 214c-2.2 14.8-3 42.9-1.6 58 5.6 59.3 30.7 112.7 72.5 154.6 38.7 38.6 86.4 62.7 140.6 70.9 14.8 2.2 42.9 3 58 1.6 59.3-5.6 112.7-30.7 154.6-72.5 38.6-38.7 62.7-86.4 70.9-140.6 2.2-14.8 3-42.9 1.6-58-4.7-48.9-23.5-96-53.8-134-8.9-11.3-27.5-29.8-39.3-39.2-34.3-27.4-76-45.5-120-52.3-12.5-1.9-48.7-2.8-61-1.4zm31.6 80.4c10.2 3 17.4 12.3 17.4 22.5v5.4L254.3 129C160 222.2 105 275.5 101.5 276.9c-8.3 3.3-18.7-2-23.9-12.3-2.5-4.8-3-6.9-3-12.6.1-10.7 1.8-13 25.1-36 11.4-11.3 46.2-45.8 77.4-76.8 31.1-30.9 56.7-56.2 57-56.2.2 0 2.2-.7 4.4-1.5 5.2-1.8 11.9-1.9 18.1 0zm-110.1 32.1c2.2 1 8 5.7 12.9 10.5l8.9 8.7-2 2.4c-1 1.2-10.1 10.4-20.1 20.3L128 173.4l-8.6-8.4c-10.3-10.2-13.4-15.8-13.4-24.5 0-3.3.5-7.7 1-9.7 2.1-7.6 11.1-16.4 19-18.7 5.1-1.5 15.9-.7 20.5 1.5zm222.8-1c6.1 2.1 12.9 8.2 16.1 14.6 2.1 4.1 2.6 6.7 2.6 12.2 0 9.6-2.7 15.1-11.9 24.3-6.3 6.4-7.6 7.3-10.9 7.3-3.5 0-6.4 2.7-75.4 71.7-39.4 39.5-72.3 71.9-73.1 72.1-.8.2-2.1-.8-3-2.1-.8-1.3-3.2-3.2-5.1-4.1-7-3.3-9.6-1.6-30.3 18.7-10.2 10-19.2 19.7-19.9 21.5-1.3 2.9-1.3 3.7.2 6.8.9 1.9 3.5 5 5.7 6.9l3.9 3.4-3 3.8c-5.4 6.9-15.1 15.3-19.9 17.6-5.6 2.5-14.7 2.8-20.7.8-4.9-1.7-11.9-8.1-15.3-13.9-2.1-3.5-2.7-6.2-3.1-12.2-.8-13.9-3.9-10.2 68.4-81.5 82.2-81.1 98.1-96.5 99.8-96.5.7 0 2 .8 2.7 1.7 1.3 1.7 1.3 1.7-.5.3s-1.9-1.4-.8.6c.6 1.2.8 2.5.4 2.9-.4.5-.1.5.6.1s1.9-.2 2.7.4c.8.7 1.5.9 1.5.4 0-1.3 5.1 3.9 6.6 6.8.8 1.6 1.8 2.7 2.2 2.6 1.2-.4 11.2 7.9 10.4 8.7-.4.4-.2.5.3.4.6-.2 2.1.3 3.4 1 2 1.1 2.7 1 5-.7 1.4-1 2.6-2.9 2.6-4 0-1.5-9.1-11.3-28.4-30.7-15.6-15.7-28.1-28.8-27.7-29.2 1.3-1.4 4.1-1.2 5.8.4 1 .9 1.8 1.3 1.8 1 0-1.7-.3-2.2-1.1-2-.5.2-.9-.1-.9-.6 0-1.3 2.6-3.2 4.1-2.9.8.2 1.3-.3 1.1-1.1-.1-.7.2-1.9.8-2.6.8-1 .8-1.5-.1-2.1-.8-.5-.9-.3-.4.6.6.9.4 1.1-.5.5-.9-.6-1.1-.4-.5.5.5.9.4 1.1-.4.6-1.7-1.1.6-3.7 2.5-2.9.8.3 1.5 0 1.5-.6.3-2.6.4-3 1.1-3.7.4-.3.5.4.3 1.7l-.5 2.3 2.1-2c1.1-1.1 2.1-3 2.2-4.3.2-2.9 3.2-5.7 4.3-4 .5.8.3 1-.6.4-.9-.6-1.1-.4-.5.5.6.9.4 1.1-.5.5-.9-.5-1.1-.4-.6.4.6.9 1.1.9 2.2 0 .7-.6 1.1-1.5.8-2-.3-.5 0-.9.6-.9s.8-.5.4-1.3c-.5-.8-.3-.8.9.2.9.7 1.4 1.8 1 2.5-.4.6.1.5 1-.2 1.3-1.1 1.4-1.7.5-3.2-.7-1-1.7-1.6-2.3-1.3-.5.4-.6.2-.2-.2 1.1-1.3 3.8-1.5 3.1-.3-.4.6-.2.8.4.5.5-.4.9-1.5.7-2.5-.4-2.4 1.2-4.1 3.4-3.5 1 .2 6.2 4.9 11.7 10.4l9.8 9.9-5.2 5.3c-3 3-5.2 6.2-5.2 7.4 0 2.5 2.5 5.3 4.8 5.3.8 0 9.5-7.8 19.1-17.3 9.7-9.6 19-18.3 20.6-19.5 6.3-4.2 16.7-5.4 24.8-2.6zM265 139.5c1.1 1.3 1 1.4-.3 1-.8-.4-1.8-.1-2.2.4-.3.6-1.1.9-1.6.5-.5-.3-.7-1-.3-1.5.3-.5 1-.7 1.5-.4.5.4.9.1.9-.4 0-1.5.5-1.4 2 .4zm-5.6 2.3c.3.5-.1.9-.9.9s-1.2-.4-.9-.9c.3-.4.7-.8.9-.8.2 0 .6.4.9.8zm-31.6 50.6c9.4 9.2 9.6 9.5 8.3 12-.8 1.4-9.2 10.3-18.8 19.7l-17.4 17.2-5.1-4.9c-2.7-2.7-7.2-7.5-10-10.6l-5-5.8 2.1-2.6c1.2-1.5 2.1-2.1 2.1-1.5 0 .7.5.9 1.2.5s.8-.3.4.5c-.4.6-1.2.8-1.8.5-.7-.5-.8-.2-.3.6s.4 1.1-.3.6c-.6-.3-1.3-.2-1.6.3-1 1.5 2.3.6 4.5-1.3 1.6-1.3 1.8-2 .9-3.1-.9-1-.8-1.3.4-1.1.9.1 1.9.6 2.3 1.1.5.4.1.5-.7 0-.8-.5-1.2-.5-.8-.1 1 1.1 2.2.3 2.5-1.6.2-1.2-.3-1.6-1.9-1.3-1.1.3-1.7.1-1.4-.3.4-.4 1.1-.7 1.6-.7 1.8 0 7-4.7 6.4-5.7-.5-.7-.2-.8.5-.3.9.5.6 1.5-1.3 3.4s-2.2 2.8-1.2 2.8c.8 0 1.3-.4 1-.8-.2-.4.3-1.2 1.1-1.7.9-.5 1.7-1.6 1.9-2.4.3-2.5 2.7-4.9 4.5-4.6.8.2 1.6-.2 1.6-.9 0-.6.3-1.5.7-1.9.4-.4.3-1.3-.3-2-.8-1-.5-1.2 1.5-.8 1.3.2 2.8 0 3.1-.6.4-.6 1-.8 1.4-.6.4.3.8-.5.8-1.7.2-2.2.2-2.2-1.6.2-1.1 1.4-2.1 1.9-2.4 1.3-.8-1.1 4-4.7 6.3-4.7.9 0 1.4-.8 1.2-1.8-.3-2 1.4-4.7 3-4.7.5 0 5.3 4.2 10.6 9.4zm162.1 18.5c28.6 27.7 29.6 29.1 29.5 41.1-.1 12.2-5.4 20.9-15.1 24.6-5.3 2.1-10.3 1.4-15.2-2-5.7-4-55.2-54-55.5-56.2-.6-3.3 1.2-5.6 3.3-4.4 1.4.7 2.2.5 3.2-.7.8-.9.9-1.4.3-1-1.2.7-2.7-1.7-1.7-2.7 1.1-1.1 4.5 1.5 3.9 3-.3.9-.1 1.2.4.9.9-.6.9-2.1-.2-6.5-.2-1 .6-1.4 2.7-1.5 2.3 0 3-.4 2.9-1.8-.2-1.5.1-1.6 1.4-.5 1.3 1.2 1.4 1 .3-1-.9-1.8-.9-2.2.1-2 .7.2 1.2-.5 1.2-1.5-.1-1 .1-1.6.4-1.3.3.4 1.3-.5 2.2-2 1-1.4 2.1-2.5 2.6-2.5.5.1.9-.3.9-.8s.4-1.3.9-1.8c.5-.4.7-.4.4.2-.3.5-.1 1.5.6 2.1.9.8 1.7.4 3.1-1.4 1-1.4 1.3-2.2.7-1.8-.7.4-1.2.2-1.2-.4 0-.6-.5-.8-1.2-.4-1 .6-1 .4 0-.8.7-.9 1.9-1.5 2.7-1.4.7.1 12.6 11.1 26.4 24.5zM362 190.4c0 .3-.4.8-1 1.1-.5.3-1 .1-1-.4 0-.6.5-1.1 1-1.1.6 0 1 .2 1 .4zm-219.8 69.1c-.3.5.1.5.9-.2 1.3-1 2.9.2 10 7.2 4.6 4.6 8.4 9.1 8.4 9.9 0 .8-7.8 9.4-17.4 19.1l-17.4 17.7-9.8-9.8c-6.5-6.5-9.5-10.2-9.1-11.2.3-1 .1-1.3-.6-.8-.7.4-1.2.3-1.2-.1 0-1.4 3.6-3.1 4.9-2.3 1 .5.9.9-.4 1.4-2.2.8-1.1 2.3 1.6 2.1 1.2-.1 2.3-.9 2.5-1.8.1-1-.1-1.5-.6-1.2-.4.2-1.6-.5-2.6-1.7-1.1-1.2-1.4-1.8-.8-1.5.7.4 1.5 0 1.8-.9.3-.9 1.3-1.4 2-1.1.8.3 1.9 0 2.5-.7.8-.9.7-1.3-.4-1.3-.8 0-1.1.5-.8 1 .3.6.1.7-.6.3-.6-.4-.9-1.1-.6-1.6.7-1.1 4.2-.5 6 1 1.1 1 1.2.7.2-1.3-.6-1.4-1.6-2.3-2.1-2-.5.4-.6.1-.2-.5.3-.6 1.5-.9 2.6-.7 1.1.2 2.3-.1 2.6-.7.4-.7.2-.8-.4-.4-.7.4-1.2.2-1.2-.4 0-.6-.5-.8-1.2-.4-.9.5-.8.2.1-.9 1.1-1.3 1.7-1.5 2.8-.6 1.1.9 1.2.9.8-.4-.4-.8-.1-1.8.6-2.3.7-.4 1-.3.6.3s.3 1.9 1.6 2.9c1.2 1 1.6 1.2 1 .4-1.8-2-1.6-2.9.6-2.5 1.5.3 1.8-.1 1.4-1.2-.5-1.2-.3-1.4.7-.8.9.6 1.1.4.5-.5-.6-1-1.1-1-2 .4-1.1 1.4-1.4 1.5-2.5.1-1.1-1.3-1-1.4.4-.9.9.4 1.6.3 1.5-.2-.4-2.2.3-2.5 2.5-1 1.6 1 2.7 1.2 3.1.6.4-.6.1-.9-.6-.8-.6.2-1.2-.8-1.3-2.3-.2-2.8 1.8-3.5 4.3-1.5 1.1.8 1.3.8.8 0-.4-.7 0-1.7.8-2.4s1.5-.9 1.5-.6c0 .4.5.4 1 .1.8-.5.7-1.1-.1-2.1-.8-1-.8-1.4-.1-1.4.6 0 .9-.8.6-1.8-.5-1.4-.4-1.4.4-.2.6.8.8 1.9.4 2.5zm210.9-2.1c-.1.3.8 1.5 1.9 2.6 1.2 1.2 1.8 2.5 1.5 3.1-.4.6.3.8 1.8.5 1.6-.3 2.4.1 2.4 1 0 1-.4 1.1-1.3.3-.8-.7-1.4-.6-2 .2-.4.7-.3.9.4.5.6-.3 1.3-.2 1.7.4.3.5 1.5 1 2.5 1s2.2.5 2.5 1c.4.6.3.9-.2.8-.4-.2-.9.1-1 .7-.1.5.6 1 1.6.9 1-.1 1.8.5 1.8 1.2 0 1-.4 1.1-1.4.3-.7-.6-1.3-.9-1.3-.5v1.3c0 .8.5 1 4.1 1.2 1.7.1 1.9.4 1 1.5-.9 1.1-.6 1.3 1.6 1.2 2-.1 2.8.4 2.7 1.6-.1 1.1.5 1.5 1.7 1.3 1-.2 2.2.1 2.5.7.5.7.2.8-.7.3-.8-.5-.2.4 1.4 2 1.5 1.5 2.7 3.2 2.7 3.8 0 .6.3.7.6.4.4-.4.3-1.2-.2-2-.5-.7-.2-.5.6.5 3.2 4 4.5 5.3 3.5 3.8-.9-1.3-.8-1.3.8-.1.9.7 1.7 1.9 1.7 2.5 0 2-20.5 21.6-22.6 21.6-1.2 0-21.2 19.3-52.4 50.5-45 45-51 50.7-56.3 53.1-5.2 2.3-7 2.6-12.8 2.2-10.4-.8-19.5-7.2-23.4-16.5-1.9-4.5-1.9-12.6-.1-16.2.8-1.5 25.2-26.1 54.3-54.7 75.9-74.6 78.9-77.4 78.4-74zm-46.4 10.2 8.7 8.5-19.4 19.4c-10.7 10.7-19.9 19.5-20.5 19.5-2.1 0-18.7-17.8-19-20.2-.2-1.5.2-2.5 1.1-2.5.7 0 1.1.3 1 .6-.2.3.7.7 2 .7 2.4.2 2.4.1.7-1.3-1.4-1.2-1.5-1.4-.2-1 1.2.4 1.5-.1 1.3-1.9-.1-1.3.2-2.2.7-1.8.5.3.6 1.1.3 1.7-.4.7-.3.8.2.4.5-.5 1-1.3 1-1.8.1-.5.2-1.3.3-1.8 0-.5.8-1.2 1.7-1.5.8-.3 1.3-.2 1 .2-.3.5.1.9.9.9s1.3-.3 1-.5c-.3-.3.7-2 2.1-3.9 1.4-1.9 2.2-3.8 1.8-4.6-.5-.8-.2-.7.9.2 1.4 1.1 1.7 1.1 1.8 0 .1-.8.1-1.8 0-2.3-.1-.5.6-.3 1.5.5 1.2.9 1.5.9 1 .1-.4-.6-.3-1.2.3-1.2s1.5-1 2.2-2.1c.9-1.7.8-2-.3-1.4-.7.4-.2-.2 1.1-1.3 1.4-1.1 3.2-1.9 4-1.7 2.4.4 3.2-.4 2.2-2.3-.8-1.5-.5-1.8 1.5-2 1.8-.1 2.3.2 1.8 1.1-.6.8-.3.8.8-.1 1.8-1.4 1.4-4.2-.5-4.2-.6 0-.2-.6.8-1.4 2.6-1.9 3.8-1.2 14.2 9zm-169.5-5.7c.8-1.1.9-1.1.6-.1-.4 1.6-2.2 1.8-2.4.2-.2-.7-.1-.6.3.1.4.8.8.7 1.5-.2zm86.8 75.6 14.5 14.5-16.5 16.5c-9.1 9.1-17.2 16.5-18 16.5-.9 0-7.9-6.4-15.6-14.3-13.6-13.8-18.1-18.8-15.7-17.4.6.4 1.4.3 1.8-.3.4-.6 1.1-.7 1.7-.4.7.4.8.2.4-.5-.4-.6-.2-1.8.4-2.6.6-.8.9-1.9.5-2.5-.4-.6-.1-.9.7-.8.7.2 1.3-.6 1.3-1.7s.4-1.8.9-1.7c.5.2 1.3-.4 1.8-1.3.7-1.1 1.3-1.3 2.2-.6.9.7 2.6-.2 6.3-3.4 2.8-2.4 5.4-4.1 5.8-3.7.5.4.5.1.1-.6-.6-.9-1.1-1-2.1-.2-1.8 1.5-5.3 2.1-6.1.9-.3-.5-.2-.9.3-.8.4.1 1.3 0 1.8-.1.6-.1 1.7-.3 2.5-.4.8 0 1.4-.9 1.4-1.9-.2-1.4.1-1.5 1.2-.6 1.1.9 1.4.9 1.4 0 0-.7.4-1 .9-.6 1.1.6 3.7-3.4 3.3-4.9-.2-.5.5-.3 1.5.4 1 .8 1.5 1 1.1.6-1-1.2 2.2-3.4 4.1-2.9.9.2 8.1 6.9 16.1 14.8zm148.8-2.6c11.3 9.4 15.1 15.9 15.2 25.6 0 6.8-3.2 15-7.8 19.9-9 9.5-24.3 12-34.6 5.6-3.6-2.2-14.5-13.3-16.9-17.2-1.5-2.4-1.5-2.7.1-3.4.9-.4 2-.7 2.4-.6.4.1 1.7-1.3 2.9-3.1 1.3-1.7 2.9-3.6 3.6-4 .7-.5 1.1-1.2.8-1.8-.3-.5.1-.6.9-.3.9.3 1.4 1 1.1 1.4-.7 1.1 2.2.6 3.2-.5.4-.4.2-.5-.4-.1-.7.4-1.3.2-1.3-.4 0-.6 1-1.5 2.3-2.1l2.2-1-2.2.5c-1.9.3-2.1.1-1.3-1.4.6-1.2 1.9-1.7 4-1.5 1.6.1 2.7-.1 2.4-.6-.3-.5-1-.6-1.6-.3-.5.4-.4-.4.3-1.7.7-1.3 1.2-2.9 1-3.4-.1-.5.1-.7.5-.3.4.4 1.4.2 2.2-.5 1.1-.8 1.4-.8.9 0-.4.6-.2 1.5.4 1.9.7.4.9.3.6-.3-.4-.6.2-2.2 1.3-3.5 1.1-1.4 1.6-2.9 1.2-3.4-.4-.5 0-.4.8.2 2.4 1.6 4.3 1.1 4.5-1.3.1-1.6-.3-2-1.7-1.8-1 .2-1.6 0-1.3-.5.6-.9 2.4-.8 4.2.3 1.4.9 3.7-2.8 2.8-4.3-1.5-2.4 1.9-.6 7.3 3.9zM191 336.6c0 .8-1.9 1.3-2.4.6-.3-.5.1-.9.9-.9s1.5.2 1.5.3zm-3.6 1.3c.3.5-.1 1.4-.8 2-1.2 1-1.4.9-1.1-.6.2-1 .4-1.9.4-2.1.2-.5 1-.2 1.5.7zm173-.1c.3.5-.1.9-.9.9s-1.2-.4-.9-.9c.3-.4.7-.8.9-.8.2 0 .6.4.9.8z"/>
  <path d="M257.1 146.6c.6.7 1.6 1.1 2.1.8 1.1-.7.3-1.7-1.8-2-1.2-.2-1.3.1-.3 1.2zm22.8 45.6c1.3 1.5 2.7 2.6 3.2 2.5.4-.1 1.5.7 2.4 1.8 1.6 2 1.6 2 .6 0-1-2.3-5.1-6.2-5.1-5 0 .4-.8.1-1.7-.6-1-.7-.7-.1.6 1.3zm9.5 9c-.4.7-.4 1 .1.6.4-.4 1.5-.2 2.4.5 1.4 1.1 1.4 1 .2-.6-1.6-2-1.8-2.1-2.7-.5zm64.7-4.3c-.9 1.6-.8 1.9.6 1.7 2-.3 2.8-2.1 1.4-3-.5-.4-1.5.2-2 1.3zm5-.5c-.8 1-.9 1.6-.1 2.1.5.3 1 .5 1.1.3.4-1.8.7-3.8.4-3.8-.1 0-.8.6-1.4 1.4zm-7.5 4.5c-.3.4.6.7 1.9.7 1.4 0 2.2-.2 1.9-.5-.8-.8-3.4-1-3.8-.2zm-8 6.3c.3.5 1 .6 1.5.3 1.3-.9 1.1-1.2-.6-1.2-.8 0-1.2.4-.9.9zm-8.7 7.5c0 .4-.2 1.6-.4 2.6s.1 1.4.8 1c.7-.4.8 0 .4 1.1-.4.9-.3 1.5.2 1.2 1.1-.7 1.1-5.5 0-6.2-.5-.3-.9-.2-1 .3zM283.5 269c-.3.5-.1 1 .5 1s.8.5.4 1.2-.3.8.4.4c.6-.4.9-1.3.5-2.1-.6-1.8-1-1.9-1.8-.5zm-81.9 58.8c-.3.5.1.9.9.9s1.2-.4.9-.9c-.3-.4-.7-.8-.9-.8-.2 0-.6.4-.9.8zm-21 16.3c.3.6.1 1.6-.5 2.2-.8 1-.4 1.3 1.4 1.3 1.7 0 2.2-.3 1.5-1-1.4-1.4-1.2-2.9.3-2 .6.4.8.3.4-.1-1.1-1.2-3.8-1.5-3.1-.4zm-3.1 6c-.3.4.2.6 1 .5 2.1-.3 2.8-1.3 1-1.3-.9 0-1.8.4-2 .8zm2.4 4.6c-1.3 1.6-1.2 1.7.4.4 1.6-1.3 2.1-2.1 1.3-2.1-.2 0-1 .8-1.7 1.7zm154.6 7.8c-1.5 2-2.1 3.6-1.5 4 .6.4.7 1.1.4 1.7-.4.6-.2.8.4.4.6-.3.9-1.6.7-2.7-.3-1.5 0-1.9 1-1.5 1 .3 1.2 0 .8-1.1-.4-1.1-.2-1.4.5-.9.8.5 1 .2.6-.8-.4-1.1 0-1.4 1.6-1.1 1.3.2 2 .1 1.6-.2-1.6-1.6-3.7-.9-6.1 2.2z"/>
</svg>
