<svg version="1.0" xmlns="http://www.w3.org/2000/svg" viewBox="0 0 663 200">
  <path d="M108.1 51.5c-3.5 3.6-6 6.5-5.5 6.5 1 0 10.5-9.5 11.8-11.8 1.4-2.3 0-1.2-6.3 5.3zM79 80.5c-3.5 3.6-6.1 6.5-5.8 6.5.7 0 5.2-4.4 10.7-10.4 4.8-5.1 1.4-2.5-4.9 3.9zm33-4c1.3 1.4 2.6 2.5 2.8 2.5.3 0-.5-1.1-1.8-2.5s-2.6-2.5-2.8-2.5c-.3 0 .5 1.1 1.8 2.5zm28.5 2.5c-2.1 2.2-3.7 4-3.4 4 .7 0 3.8-2.8 6.3-5.8 3.1-3.6 1.3-2.5-2.9 1.8zm-7 7c-.3.5-.1 1 .4 1 .6 0 1.1-.5 1.1-1 0-.6-.2-1-.4-1-.3 0-.8.4-1.1 1zM49 109.7c-6.9 7.1-5 6 3.4-2 2.7-2.6 4.5-4.7 4-4.7s-3.9 3-7.4 6.7zm63.5-2.7c-2.2 2.2-3.5 4-2.9 4 1.3 0 7.9-6.8 7.3-7.5-.3-.2-2.3 1.3-4.4 3.5zm33.5 1.5c1.3 1.4 2.6 2.5 2.8 2.5.3 0-.5-1.1-1.8-2.5s-2.6-2.5-2.8-2.5c-.3 0 .5 1.1 1.8 2.5zm-40.1 5.2c-1.3 1.5-1.2 1.5.9.4 2.3-1.2 2.8-2.1 1.3-2.1-.5 0-1.5.7-2.2 1.7zm-30.8 20.4c-3.4 3.4-6 6.3-5.8 6.5.2.2 3.1-2.4 6.6-5.7 3.5-3.3 6.1-6.2 5.9-6.5-.3-.2-3.3 2.3-6.7 5.7zm63.6 4.3c-7.4 8.2-7.8 8.6-4.3 5.6 3.8-3.3 11.6-11.2 11.6-11.6 0-1.4-2.3.5-7.3 6z"/>
</svg>
