<svg version="1.0" xmlns="http://www.w3.org/2000/svg" viewBox="0 0 639 160">
  <path d="M69.5 14.9c-1.6 1-16.6 15.6-33.2 32.3C6 77.6 6 77.6 6 81.9c0 3.4.6 4.9 2.9 7.2 5.5 5.5 6.4 5 28-16.4 10.8-10.6 26.3-25.9 34.5-33.9C85.2 25.2 86.2 24 85.6 21.4c-.4-1.6-2-4.1-3.7-5.7-3.5-3.2-8-3.6-12.4-.8zM25 26.7c-2.1 1.1-4.2 3.3-5.4 5.6-2.4 5-1.1 9.8 3.9 14.7l3.5 3.4 8-7.9c8.7-8.7 8.8-9.2 2.7-14-4.6-3.4-8.4-4-12.7-1.8zm91-.6c-1.4.6-5.9 4.4-10.1 8.6-7.1 6.9-9.9 8.3-9.9 4.9 0-.7.9-2.1 2-3.1 2.1-1.9 2-1.9-2.1-6.1l-4.2-4.3-2.9 3.2c-1.7 1.8-4.6 4.9-6.6 7L78.6 40 90 51.5c8.4 8.4 11.1 11.8 10.3 12.6-1.6 1.6-4.4.4-9.9-4.5-2.7-2.4-5.4-4.1-6-3.8-.7.4-15.4 14.6-32.7 31.5C18 120.2 16.8 121.8 19 128.4c2.4 7.5 10.1 10.6 16.4 6.7 2-1.3 4.5-3.5 5.6-5 1.9-2.8 1.9-2.8 0-4.6-1.1-1-2-2.5-2-3.4 0-2.3 16.1-18.1 18.4-18.1 1.1 0 2.8.7 3.8 1.7 1.7 1.5 3.2.2 30.7-27.1 15.8-15.9 30.1-29.4 31.7-30.2 7.1-3.5 9.7-13.6 4.9-18.8-2.4-2.6-6.4-4.7-8.8-4.5-.7 0-2.3.5-3.7 1zm69 17.1c0 .2 4.9 18.3 10.9 40.3l10.8 40h14.6l4.3-19c2.4-10.5 5.6-25.2 7-32.8 1.5-7.6 2.8-13.7 2.9-13.5.2.2 1.9 8.4 3.9 18.3s5.1 24.5 7 32.5l3.3 14.5 7 .3 7.1.3 1.1-3.3c2.2-7 21.1-75.4 21.1-76.6 0-.8-1.7-1.2-5.3-1.2h-5.3l-8.9 36c-4.9 19.8-9.2 35.4-9.6 34.7-.3-.6-1.2-4.1-1.8-7.7-1.9-9.7-12.1-59.2-12.7-61.3-.5-1.5-1.5-1.7-7.2-1.5l-6.6.3-7.2 35.3c-4 19.4-7.4 35.5-7.6 35.7-.4.4-6.5-24.3-14.6-59l-2.8-12-5.7-.3c-3.1-.2-5.7-.2-5.7 0zm303 .5c-.1.4 5.4 18.7 12.2 40.5l12.3 39.8h14.1l12.6-40.3 12.5-40.2-5.5-.3c-3-.2-5.7-.1-6 .2-.3.3-4.9 16.2-10.4 35.3-5.4 19-10 34.8-10.2 35-.1.2-4.8-15.5-10.3-34.9l-10-35.3-5.6-.3c-3.1-.2-5.7.1-5.7.5zm67 39.8V124h10l.2-34.4.3-34.4 12 34.4 12 34.5 2.9-.3c2.8-.3 3-.6 14.5-34.6l11.6-34.4.3 34.6.2 34.6h10V43h-16.6l-10 30.4c-5.4 16.8-10.2 30.1-10.5 29.8-.4-.4-1.6-4.1-2.8-8.2-1.2-4.1-5.6-17.5-9.8-29.8L571.7 43H555v40.5z"/>
  <path d="M56.3 61.4c-3.3 3.5-6.6 6.5-7.4 6.8-.9.3 0 1.9 2.9 4.9l4.1 4.4 7.8-7.7 7.7-7.8-3.4-3.5c-1.9-1.9-3.9-3.5-4.5-3.5-.6 0-3.8 2.9-7.2 6.4zm61.6-1.5c-2 2.1-4.3 4.2-5.1 4.7-.9.5-1.8 1.8-2.2 3-.5 1.6 1.6 4.2 10.7 13.2 11.5 11.3 13.5 12.5 17.8 10.2 2.6-1.4 4.9-6.2 4.9-10.1 0-2.7-1.6-4.8-10.7-14-5.9-6-11-10.9-11.3-10.9-.3 0-2.2 1.7-4.1 3.9zm184.4 3c-8.8 2.3-17 10.4-19.4 19.4-1.5 5.7-1.2 18.4.6 24.5 2.3 7.5 9.1 14.5 16.4 16.6 14.9 4.4 28.6-1.3 32.1-13.3l.9-3.1h-5.5c-3.8 0-5.4.4-5.4 1.3 0 .7-1.3 2.6-3 4.2-6.4 6.1-19.8 3.7-23.9-4.3-1.1-2.2-2.3-5.9-2.7-8.1l-.7-4.1h42.6l-.5-8.3c-.6-11.6-4.6-18.5-13.2-22.9-4.4-2.2-13.3-3.2-18.3-1.9zm14.8 10.6c3.2 1.7 5.4 5.3 6.4 10.8l.7 3.7h-14.9c-10.3 0-15.3.4-16.1 1.2-.9.9-1.2.9-1.2-.3 0-6.5 5.8-15.2 11.4-16.9 3.8-1.1 9.8-.5 13.7 1.5zm36.4-10.6c-9.8 2.4-15.6 8.6-15.8 16.9l-.2 4.7 4.6.3 4.6.3.7-4.1c.9-5.4 4.1-8.5 9.7-9.4 9.6-1.4 15.9 3.5 15.9 12.6 0 4.2 1.5 3.6-15 5.7-14.9 1.9-22 7.5-22 17.3 0 9.5 4.6 15 14.2 17 8.8 1.8 16.5-1.4 20.9-8.6l1.9-3.1V124h10v-22.3c0-13.1-.5-23.8-1.1-26.2-2.8-9.9-15.7-15.7-28.4-12.6zm19.5 38.4c0 7.3-1.4 9.8-7 12.7-3.8 1.9-11.2 2.6-14.5 1.4-2-.8-4.5-5.6-4.5-8.7 0-6.3 9.2-11.1 22.3-11.6l3.7-.1v6.3zm82.2-37.4c-10.9 3.8-17.2 13.2-18 27.1-.8 15 4.2 25.8 14.1 30.8 12.8 6.3 30 2.3 34.8-8.1 2.8-6.2 2.6-6.7-3.1-6.7-4.4 0-5.1.3-6.4 2.9-2.7 5.1-11.5 7.6-18.3 5-5.9-2.2-9-6.7-10.8-15.7l-.7-3.2h42l.7-2.9c.7-3.5-1.1-14.4-3.1-18.3-2.5-4.8-8.5-9.7-13.7-11.3-6.6-2-11-1.8-17.5.4zm17.5 9.7c3.3 2.1 5.4 5.8 6 10.4l.6 4h-14.2c-7.8 0-15 .4-16 1-1.6.8-1.8.6-1.1-2.8 1.9-10.4 8.5-15.7 18-14.6 2.5.3 5.5 1.2 6.7 2zM384 63.7c0 .4 4.8 14.2 10.6 30.5l10.7 29.8h11.4l10.6-29.8c5.9-16.3 10.7-30.1 10.7-30.5 0-.4-2.5-.7-5.7-.5l-5.6.3-7.6 24.7c-4.2 13.6-7.9 24.4-8.3 24-.3-.4-4-11.5-8.1-24.7l-7.4-24-5.7-.3c-3.1-.2-5.6.1-5.6.5zM26 91l-7.4 7 4.1 4.2c2.3 2.3 4.4 4 4.5 3.7.2-.2 3.3-3.6 7.1-7.5l6.7-7-3.8-3.7-3.9-3.8L26 91zm60.2.6c-7.9 8.1-8 8.5-2.8 13.3l2.7 2.5 7.9-7.9 8-7.9-3.7-3.8c-2-2.1-4-3.8-4.3-3.7-.3 0-3.8 3.4-7.8 7.5zm26.3-4c-10.1 9-48.5 48-48.6 49.4-.3 3.6.4 5.7 2.8 8.2 3.3 3.5 7.2 4.3 11.4 2.5 1.9-.8 12.4-10.5 23.4-21.6 11-11.1 20.5-20.1 21.1-20.1.7 0 2.9-1.9 4.9-4.1l3.8-4.2-7.3-6.8c-4-3.8-7.3-6.9-7.4-6.9 0 0-1.9 1.6-4.1 3.6zM56 112.1c-4.1 3.4-7.4 6.5-9.1 8.6-1.6 2-1.4 2.3 4.6 8.3l6.2 6.2 6.8-6.7 6.8-6.6-5.9-6c-3.2-3.2-6.1-5.9-6.4-5.9-.3.1-1.6 1-3 2.1zm61 6.6c-3 3.1-6.6 6.4-7.9 7.4l-2.4 1.9 2.9 3.1c5.5 5.8 10.1 7.1 15.4 4.4 6.2-3.2 7.9-12.1 3.4-17.4-4.6-5.5-5.3-5.4-11.4.6z"/>
</svg>
