<svg viewBox="0 0 625 137" fill="none" xmlns="http://www.w3.org/2000/svg">
  <path fill-rule="evenodd" clip-rule="evenodd" d="M66.501.693c-2.14.588-63.18 60.231-65.216 63.724-4.139 7.1 2.541 18.157 9.814 16.244 1.321-.347 17.886-15.843 36.813-34.434C80.998 13.725 82.295 12.31 81.601 9.462 80.076 3.2 72.786-1.033 66.501.693ZM17.514 15.168c-6.743 5.303-6.562 13.45.449 20.296l4.007 3.913 2.742-2.439C30.699 31.615 39 23.035 39 22.17c0-.503-2.015-2.773-4.478-5.043C30.549 13.465 29.494 13 25.157 13c-3.499 0-5.67.616-7.643 2.168Zm61.059 4.255c-3.259 3.375-6.075 6.583-6.257 7.13-.182.546 4.845 6.158 11.172 12.47 6.327 6.312 11.506 11.815 11.508 12.227.011 2.055-3.106.202-8.004-4.759-2.993-3.029-5.772-5.392-6.177-5.25-.404.143-15.594 14.813-33.753 32.6-35.244 34.522-35.94 35.396-33.933 42.663 1.831 6.634 9.26 10.82 15.195 8.563 3.218-1.224 10.676-7.88 10.676-9.528 0-.676-.9-2.044-2-3.039-1.1-.995-2-2.313-2-2.928C35 107.663 50.435 93 52.443 93c1.045 0 2.743.764 3.775 1.697 1.798 1.628 3.075.502 31.079-27.403 16.061-16.005 30.24-29.407 31.508-29.782C122.631 36.38 127 29.381 127 24.383c0-3.607-.58-4.897-3.533-7.85-3.119-3.118-4.131-3.533-8.623-3.533-5.02 0-5.201.11-13.461 8.172-4.605 4.495-8.676 7.868-9.048 7.496-.372-.372.349-1.767 1.601-3.1 1.992-2.12 2.107-2.664.921-4.327-1.922-2.695-8.453-8.269-9.489-8.098-.477.079-3.535 2.905-6.795 6.28ZM179.965 31.75c-.02.413 4.785 18.637 10.678 40.5L201.357 112h15.317l5.184-23.25c2.851-12.787 5.971-27.525 6.932-32.75l1.748-9.5 1.769 10c.972 5.5 4.001 20.001 6.731 32.225 2.729 12.224 4.962 22.461 4.962 22.75 0 .289 3.505.525 7.789.525h7.788l10.892-39.25c5.99-21.588 11.083-39.812 11.318-40.5.311-.909-1.224-1.25-5.633-1.25-5.99 0-6.07.038-6.939 3.25-.484 1.787-4.426 17.516-8.761 34.953-4.335 17.436-8.057 31.527-8.271 31.313-.373-.373-14.151-67.225-14.173-68.766-.005-.413-3.385-.75-7.51-.75s-7.505.337-7.51.75c-.023 1.642-13.812 68.406-14.211 68.805-.32.319-11.593-45.703-16.486-67.305-.458-2.021-1.109-2.25-6.401-2.25-3.241 0-5.908.337-5.927.75Zm302.433 1c1.79 5.876 21.973 70.6 23.244 74.54l1.546 4.791 7.539-.291 7.539-.29L534.607 72c6.788-21.725 12.353-39.837 12.367-40.25.014-.413-2.788-.75-6.228-.75h-6.253l-8.843 31.25c-4.863 17.188-9.34 33.003-9.948 35.145-1.024 3.61-1.158 3.719-1.826 1.5-.396-1.317-4.87-17.132-9.942-35.145L494.713 31h-6.424c-5.654 0-6.36.21-5.891 1.75ZM549 71.462V112h12.306l-.563-34.243-.563-34.244 10.4 29.994C585.272 115.874 583.57 112 587.487 112h3.321l11.346-33.75L613.5 44.5l.263 33.75.264 33.75H625V30.925l-9.165.287-9.165.288-5.374 16c-2.955 8.8-7.347 22.3-9.759 30-2.412 7.7-4.576 13.325-4.808 12.5-.232-.825-4.669-14.325-9.858-30l-9.437-28.5-9.217-.288-9.217-.287v40.537ZM49.25 48.291C45.263 52.288 42 56.013 42 56.57c0 .558 2.012 2.988 4.47 5.401l4.47 4.387 5.28-4.929c2.904-2.711 6.585-6.418 8.18-8.238l2.9-3.309-4.358-4.441c-2.397-2.443-4.827-4.435-5.4-4.428-.573.007-4.305 3.282-8.292 7.278Zm59.971-.014C105.8 51.729 103 55.015 103 55.578c0 .564 5.553 6.514 12.339 13.223 13.294 13.143 15.055 14.037 19.992 10.154 2.949-2.32 4.899-8.085 4.024-11.894C138.85 64.864 117.531 42 115.987 42c-.299 0-3.344 2.825-6.766 6.277Zm184.952 2.992c-5.142 1.645-12.594 8.958-15.125 14.841-4.664 10.842-3.403 27.502 2.753 36.366 1.518 2.187 4.902 5.3 7.518 6.918 3.915 2.42 6.144 3.021 12.588 3.394 12.363.716 20.486-3.037 24.18-11.172 3.096-6.818 2.733-7.616-3.466-7.616-5.052 0-5.455.185-6.641 3.047-2.476 5.979-13.185 8.313-20.065 4.375-3.586-2.053-7.25-8.319-8.289-14.172L287.05 84h20.908c20.386 0 20.924-.053 21.576-2.108 1-3.149-.438-12.785-2.668-17.88-2.623-5.993-5.373-8.809-11.366-11.635-5.493-2.59-15.131-3.091-21.327-1.108Zm50.357.325C336.831 54.413 332 61.111 332 68.968V73h11v-3.444c0-2.18.868-4.454 2.365-6.194 2.038-2.37 3.278-2.808 8.963-3.17 6.268-.399 6.749-.269 9.635 2.617 1.937 1.937 3.042 4.061 3.051 5.864.007 1.555.268 3.774.578 4.932.529 1.969.059 2.151-7.263 2.814-20.34 1.843-27.857 6.045-29.826 16.672-1.456 7.857 3.974 16.752 11.555 18.926 8.445 2.422 18.424 0 22.771-5.526L367 103.73V112h11l-.022-23.75c-.019-20.997-.238-24.225-1.883-27.849-3.207-7.06-10.089-10.447-20.994-10.331-3.631.039-8.388.725-10.571 1.524Zm103.47.487c-12.196 5.52-18.333 19.449-15.957 36.214 2.267 16 11.928 24.714 27.385 24.699 8.093-.007 12.898-1.463 17.15-5.197 4.111-3.609 6.422-7.657 6.422-11.247 0-2.424-.271-2.55-5.5-2.55-4.128 0-5.5.36-5.5 1.444 0 2.685-4.457 6.651-8.495 7.558C452.963 105.371 443 97.175 443 86.134c0-2.111.227-2.134 21-2.134h21v-5.818c0-9.205-2.486-15.946-7.861-21.319-2.868-2.867-6.166-5.06-8.639-5.745-6.377-1.765-15.411-1.341-20.5.963Zm-69.558.669c.317.963 5.221 14.575 10.896 30.25l10.32 28.5h12.614l10.863-30c5.974-16.5 10.863-30.112 10.863-30.25.001-.138-2.841-.25-6.315-.25h-6.317l-7.387 24c-4.062 13.2-7.635 24-7.938 24-.303 0-3.884-10.8-7.958-24l-7.406-24h-6.406c-5.654 0-6.338.205-5.829 1.75Zm-82.186 8.895c-3.63 1.789-6.934 6.494-7.879 11.22L287.75 76H318v-2.532c0-4.297-2.722-9.328-6.19-11.442-4.027-2.455-11-2.626-15.554-.381ZM452.5 60.9c-3.912 1.724-9.5 9.998-9.5 14.068 0 .665 5.537 1.032 15.579 1.032h15.58l-.707-3.25c-1.937-8.905-5.234-12.006-13.216-12.428-3.155-.167-6.636.093-7.736.578ZM19.529 77.102C15.388 81.036 12 84.567 12 84.948 12 85.933 20.802 95 21.758 95c.436 0 4.061-3.291 8.057-7.314 4.735-4.767 7.064-7.838 6.687-8.82-.318-.828-2.572-3.173-5.01-5.211l-4.433-3.705-7.53 7.152Zm59.966 1.903-7.958 8.005 4.66 4.661 4.661 4.661 6.821-6.054c11.782-10.455 11.414-9.589 6.293-14.806C91.559 73.012 89.104 71 88.518 71c-.586 0-4.646 3.602-9.023 8.005ZM90.117 91.25c-11.319 11.137-23.176 22.766-26.349 25.84-5.106 4.948-5.765 6.039-5.746 9.5.037 6.536 4.544 10.41 12.109 10.41 4.212 0 4.512-.248 25.346-21 11.595-11.55 21.538-21 22.095-21 1.293 0 9.428-8.252 9.428-9.565C127 83.922 113.638 71 112.074 71c-.757 0-10.637 9.112-21.957 20.25Zm267.225-6.771c-12.337 2.239-16.904 6.846-13.904 14.026 2.4 5.745 8.455 7.107 16.062 3.614 6.257-2.873 7.853-5.304 8.323-12.676.472-7.409 1.171-7.078-10.481-4.964ZM44.759 102.827l-7.005 6.826 7.075 7.174c3.891 3.945 7.446 7.173 7.9 7.173 1.318 0 14.546-13.7 14.139-14.645C66.285 108 53.416 96 52.547 96c-.431 0-3.936 3.072-7.788 6.827Zm63.968 3.945c-4.25 4.275-7.727 8.231-7.727 8.792 0 .561 2.018 3 4.484 5.42 4.086 4.01 4.925 4.401 9.459 4.401 5.392 0 8.13-1.691 10.659-6.583 2.74-5.298 1.842-9.413-3.239-14.845-2.55-2.726-4.923-4.957-5.273-4.957-.35 0-4.114 3.497-8.363 7.772Z" fill="#FCFFFF"/>
</svg>
