<svg viewBox="0 0 500 500" fill="none" xmlns="http://www.w3.org/2000/svg">
  <g clip-path="url(#a)" fill-rule="evenodd" clip-rule="evenodd">
    <path d="M240.994 80.872c-6.546 2.153-11.934 7.003-50.357 45.331-22.625 22.57-56.592 56.169-75.482 74.666s-35.458 35.522-36.818 37.834c-2.763 4.697-3.955 12.693-2.92 19.591 1.323 8.827 9.453 17.336 18.33 19.187 6.99 1.457 9.238-.254 39.253-29.881 15.675-15.473 47.4-46.543 70.5-69.046 73.509-71.609 69.638-67.596 70.224-72.794 1.439-12.767-9.43-24.25-23.919-25.27-3.468-.243-7.433-.071-8.811.382Zm-114.202 31.471c-12.189 3.434-20.769 14.672-20.786 27.225-.011 8.005 2.56 13.72 9.588 21.31 8.284 8.948 12.282 11.94 13.443 10.061.457-.739.641-1.652.408-2.028-.233-.377.359-.623 1.316-.548.962.076 1.616-.455 1.464-1.187-.151-.729.189-1.038.755-.688 1.09.673 34.02-31.455 34.02-33.191 0-1.647-15.14-16.236-19.585-18.871-5.092-3.02-14.077-3.927-20.623-2.083Zm227.708-.72c-7.589 1.925-9.614 3.462-28.328 21.492-19.362 18.654-22.079 20.578-24.972 17.685-2.526-2.526-1.337-6.739 3.3-11.697 2.475-2.646 4.5-5.243 4.5-5.772 0-1.215-14.737-15.402-17.752-17.089-2.4-1.344-2.303-1.485-2.623 3.839-.175 2.916-3.52 5.251-5.349 3.733-.764-.634-1.291-.739-1.171-.233.281 1.183-1.872 6.419-2.639 6.419-.321 0-.246-.562.167-1.25.528-.88.259-.851-.909.096-.913.74-1.562 1.865-1.442 2.5.12.635-.546 1.027-1.48.872-.934-.155-2.184.628-2.78 1.74-.595 1.112-1.571 1.914-2.169 1.782-.598-.132-1.23.615-1.404 1.66-.338 2.034-2.384 3.758-3.582 3.018-.401-.248-1.054.076-1.452.72-.452.731-.291.903.43.457.635-.392 1.155-.21 1.155.405 0 .628.548.789 1.25.367.837-.503.793-.188-.133.954-.761.938-2.101 1.587-2.978 1.442-.877-.145-1.604.262-1.617.904-.04 2.111-1.444 2.641-3.248 1.226-1.575-1.237-1.635-1.214-.533.199.683.876.946 1.888.584 2.25-.362.362-.07.658.648.658.719 0 1.85-.743 2.514-1.651.957-1.31 1.375-1.381 2.015-.346.57.923.419 1.066-.517.487-.97-.599-1.149-.358-.666.898.364.949.247 1.462-.261 1.148-.506-.313-1.222-.08-1.591.518-.382.618 10.352 11.99 24.931 26.413C300.479 191.396 312 203.544 312 204.462c0 2.561-1.647 5.077-4.583 7-1.729 1.133-2.377 1.271-1.848.392.644-1.071.513-1.11-.627-.189-.793.641-1.779 1.203-2.192 1.25-.413.047-.863.119-1 .162-1.699.519-3.803.643-3.357.197.317-.317-.205-1.217-1.159-1.999-1.072-.88-1.162-1.143-.234-.689.882.432 1.157.359.667-.176-.459-.5-1.809-.91-3-.91-1.192 0-2.179-.45-2.193-1-.014-.55-.611-1.9-1.326-3l-1.299-2 .637 2c.595 1.865.499 1.851-1.424-.208-1.134-1.215-2.062-2.677-2.062-3.25s-.439-.929-.976-.792c-.537.138-2.145-1.1-3.572-2.75-1.428-1.65-2.267-2.325-1.863-1.5.403.825-.5.375-2.008-1s-2.968-2.35-3.245-2.167c-.276.184-.803-.001-1.169-.41-.367-.409-.152-.449.478-.089s1.401-.013 1.714-.828c.313-.815.239-1.375-.164-1.244-.404.131-1.85-.841-3.214-2.159-1.365-1.318-1.849-2.036-1.076-1.596.968.553 1.171.425.653-.413-.515-.834-2.681.596-6.904 4.557-10.602 9.945-98.833 96.478-128.29 125.822-25.967 25.866-28.27 28.442-29.876 33.414-3.451 10.686-.05 23.9 7.961 30.934 6.525 5.729 9.224 6.671 19.124 6.675 8.131.004 9.481-.268 13-2.62 4.813-3.216 15.504-13.425 17.807-17.005 1.532-2.38 1.541-2.687.104-3.239-.873-.335-1.337-.204-1.031.292.802 1.298-1.973.719-3.793-.791-.847-.704-1.266-1.995-.931-2.87.438-1.141.236-1.359-.714-.773-.936.579-1.087.436-.517-.487.64-1.035 1.058-.964 2.015.346.664.908 1.565 1.651 2.002 1.651.437 0-.034-.916-1.047-2.035-1.013-1.12-2.32-1.852-2.905-1.629-.677.259-1.063-1.741-1.063-5.504v-5.912l20.004-19.868c16.672-16.56 20.613-19.983 23.663-20.555 4.802-.901 7.23-.037 12.002 4.274l3.947 3.567 72.215-72.169C358.116 174.428 361.716 171 365.135 171c3.191 0 4.475-.922 11.569-8.312 8.811-9.178 11.3-14.274 11.29-23.116-.007-7.167-1.419-11.342-5.736-16.973-4.96-6.469-12.129-10.459-19.832-11.038-3.259-.245-6.826-.217-7.926.062Zm-71.947 15.292a1.117 1.117 0 0 0 .362 1.532c.521.322 1.21.159 1.532-.362a1.117 1.117 0 0 0-.362-1.532 1.117 1.117 0 0 0-1.532.362Zm-9.213 8.642c-.329.857-1.14 1.35-1.802 1.096-.663-.254-1.205.073-1.205.728s.792 1.19 1.76 1.19 1.564-.317 1.324-.705c-.239-.387.276-1.416 1.145-2.285.87-.87 1.085-1.581.478-1.581s-1.372.701-1.7 1.557Zm-56.395 49.608c-1.118.792-.993.875.553.365 1.714-.564 1.625-.257-.625 2.156-1.443 1.548-2.396 3.439-2.119 4.203.293.805.061 1.115-.552.736-.582-.36-1.356.285-1.721 1.434-.608 1.916-.805 1.958-2.405.51-1.474-1.335-1.743-1.353-1.743-.117 0 .803.328 1.257.729 1.01.401-.248.995.245 1.322 1.096.387 1.009.191 1.297-.565.83-.781-.483-.944-.157-.5 1 .464 1.21.293 1.488-.58.942-2.246-1.403-3.329-1.121-3.482.907-.146 1.94-.106 1.944 1.351.131 1.401-1.742 1.426-1.711.368.465-1.108 2.278-1.185 2.29-3.227.5-1.151-1.008-1.783-1.302-1.405-.652.379.649.224 1.468-.344 1.819s-.793 1.026-.5 1.5c.293.474.075 1.144-.484 1.49-.559.345-1.016 1.078-1.016 1.628 0 .55.539.667 1.197.26.658-.406.177.692-1.068 2.441-1.246 1.75-2.55 3.181-2.897 3.181-.348 0-.092-.54.568-1.2 1.599-1.599 1.557-3.328-.05-2.051-.687.547-2.04.866-3.005.71-.965-.156-1.496.134-1.181.645.316.511 1.051.634 1.635.273.611-.378.86-.067.588.734-.271.795-1.454 1.245-2.77 1.052-1.687-.247-2.147.055-1.733 1.136.311.809-.101 2.423-.916 3.586-.815 1.163-1.176 2.115-.802 2.115.373 0 .123.67-.557 1.489-1.299 1.565-3.465 1.058-2.456-.574a1.122 1.122 0 0 1 1.541-.357c.525.325.849.22.718-.234-.13-.453.31-1.809.978-3.013.669-1.204.839-2.422.379-2.706-.459-.285-.836.089-.836.83 0 1.54-4.422 7.426-5.642 7.51-.445.03-.488-.465-.096-1.1.472-.763.271-.88-.592-.347-1.035.64-.964 1.058.346 2.015.908.664 1.651 1.474 1.651 1.8 0 1.004 9.333 10.788 12.318 12.913l2.818 2.007 14.497-14.366c20.111-19.931 22.344-22.249 22.356-23.211.014-1.107-10.494-12.063-15.044-15.685-2.653-2.112-3.922-2.57-5-1.806Zm-1.505 4.933c-.866 1.4 1.316 1.901 2.431.558.828-.999.723-1.323-.431-1.323-.84 0-1.741.344-2 .765Zm150.131-.212c-.337.545-1.429.834-2.425.642-1.051-.202-1.813.237-1.813 1.046 0 1.121.294 1.152 1.497.16 1.3-1.071 1.342-.942.32.975-.647 1.216-1.118 2.566-1.045 3 .509 3.053-.985 3.746-4.01 1.858-.912-.569-1.177-.508-.755.174.57.922-1.451 2.426-3.59 2.673a.866.866 0 0 0-.75.836v1.973c0 .672.673.261 1.495-.913.823-1.174 2.16-2.037 2.971-1.918 2.195.322 2.898 1.374.824 1.231-2.095-.144-6.432 3.839-5.457 5.011.367.44-.233.155-1.333-.634-1.1-.789-1.684-1.058-1.298-.598.387.46.023 1.516-.807 2.346-.831.83-1.29 2.082-1.022 2.782.299.78-.162 1.147-1.192.948-.925-.179-2.045-.359-2.49-.401-.445-.043-.577-.452-.294-.91.283-.459-.133-.834-.925-.834-.889 0-1.116.415-.592 1.084.466.595.834 1.863.817 2.817-.023 1.331-.34 1.477-1.364.628-1.001-.832-1.333-.763-1.333.276 0 .76-1.106 2.575-2.457 4.032-2.025 2.184-2.189 2.752-.936 3.233.836.32 1.219 1.07.851 1.664-.379.613 10.747 12.303 25.687 26.99 28.991 28.5 30.079 29.26 38.48 26.908 10.053-2.815 16.682-12.898 16.607-25.26-.07-11.499-1.878-14.033-28.328-39.705-12.75-12.375-23.528-22.636-23.951-22.803-.423-.166-1.045.144-1.382.689Zm-150.081 4.13c-.346.559-1.117.715-1.714.346-.663-.41-.796-.203-.341.532.521.845 1.116.893 1.996.163.689-.572 1.621-.706 2.071-.298.45.407.495.179.099-.509-.872-1.516-1.29-1.562-2.111-.234ZM202.5 203c-.34.55-.141 1 .441 1s1.059-.45 1.059-1-.198-1-.441-1-.719.45-1.059 1Zm143.959 6.067c-.363.586-.445 1.281-.183 1.543s.743-.218 1.069-1.067c.676-1.762.1-2.072-.886-.476Zm-46.834.731c-.271.439-.093 1.445.397 2.237.671 1.086.848.889.721-.798-.183-2.427-.364-2.66-1.118-1.439Zm45.988 4.385c.289.467.944.591 1.456.274 1.308-.808 1.161-1.124-.525-1.124-.801 0-1.22.383-.931.85Zm-4.374 2.541c-.694.248-1.772 1.424-2.396 2.613l-1.134 2.163 2.25-2c1.238-1.1 2.429-1.887 2.646-1.75.483.306.695-.805.228-1.196-.183-.154-.901-.078-1.594.17Zm-46.503 41.874c-.982.982.386 3.444 1.523 2.742.618-.382.753-.168.326.522-.398.644-1.142.912-1.654.595-1.365-.843-1.135.928.319 2.461 1.034 1.09.872 1.09-.935-.001-1.202-.724-1.92-1.747-1.596-2.272.33-.533.06-.626-.613-.21-.927.573-.905 1.109.095 2.341 1.109 1.365 1.048 1.504-.419.955-.945-.354-1.988-.206-2.319.329-.331.535-1.09.671-1.687.302-.64-.396-.798-.207-.384.463.385.623.268 1.942-.261 2.93-.627 1.173-.6 2.443.08 3.658.729 1.302.724 1.665-.015 1.208-.582-.36-1.359-.166-1.728.431-.369.596-1.267.855-1.996.576-.729-.28-1.921.226-2.649 1.123-.96 1.185-.98 1.427-.073.882 1.715-1.03 1.583.845-.161 2.293-1.08.897-1.585.89-2.153-.029-.533-.864-1.131-.667-2.132.702-.764 1.045-1.74 1.901-2.168 1.901-.429 0-1.57.792-2.538 1.759-.968.968-2.218 1.476-2.778 1.13-.627-.388-.595.162.083 1.43.781 1.458.79 2.253.032 2.721-.589.364-.842 1.259-.563 1.988.28.729-.138 1.863-.929 2.519-.844.701-1.248 2.246-.977 3.737.35 1.933.182 2.264-.703 1.379-1.549-1.549-3.067-1.488-2.167.087.392.688-.812-.1-2.676-1.75s-2.607-2.063-1.652-.919c.955 1.145 1.475 2.343 1.154 2.663-.32.32 2.637 3.97 6.57 8.11 4.822 5.077 7.652 7.336 8.69 6.938 2.088-.801 38.318-36.66 38.318-37.925 0-.963-17.251-18.367-18.205-18.367-.254 0-.731.269-1.059.598Zm54.764.515c-5.858 5.201-41.09 39.252-64.997 62.818a45075.046 45075.046 0 0 1-46.223 45.503c-8.925 8.764-16.969 17.499-17.877 19.411-5.028 10.596 3.956 26.784 17.029 30.684 6.749 2.013 11.488 1.847 18.125-.636 5.206-1.948 9.503-5.96 56.728-52.963 35.073-34.907 51.954-51.043 53.834-51.456 3.409-.749 18.269-16.019 17.511-17.995-.363-.946-.02-1.182 1.095-.754 1.002.384.696-.304-.801-1.801-1.333-1.333-2.874-2.444-3.424-2.469-.55-.025-.876-.621-.725-1.325.151-.703-.194-.989-.767-.635-.572.354-.806 1.023-.52 1.486.669 1.083-2.178.687-3.209-.446-.428-.47-.244-.549.41-.174.763.437 1.137-.026 1.042-1.288-.121-1.603-.42-1.747-1.604-.772-1.249 1.03-1.285.881-.256-1.051.66-1.238 1.071-2.284.914-2.327-1.993-.534-4.535-1.062-5.535-1.148-.687-.06-1.052-.307-.809-.549.242-.243-.658-1.625-2-3.073-1.343-1.448-2.441-3.027-2.441-3.509 0-.483-.864-.651-1.921-.375-1.473.385-1.834.057-1.552-1.41.203-1.052.054-1.733-.329-1.514-.384.22-1.598-.512-2.698-1.627-1.139-1.153-1.354-1.706-.5-1.285.825.407.475-.097-.777-1.121s-3.277-3.487-4.5-5.474c-1.386-2.253-2.599-3.279-3.223-2.725Zm-206.104 2.68c.092 2.408-.247 2.701-3.083 2.655-1.752-.029-2.951.329-2.664.794.288.465-.078 1.585-.813 2.489-1.155 1.42-1.103 1.556.382 1 .945-.354 2.027-.144 2.404.467.401.648.234.831-.398.44-.597-.369-1.369-.212-1.716.348-.427.692-1.246.69-2.546-.006-1.522-.815-1.803-.728-1.362.42.305.795 1.223 1.702 2.041 2.016.817.313 1.201 1.03.853 1.593-.348.563-1.128.717-1.733.343-.695-.429-.879-.102-.5.885.843 2.198-1.863 1.636-3.835-.796-.866-1.067-1.277-1.359-.914-.647.363.712-.021 2.334-.854 3.605-.832 1.271-1.388 3.459-1.234 4.863.241 2.189-.054 2.491-2.072 2.125-2.126-.385-2.831.408-2.491 2.802.087.612-.668.575-4.361-.213-2.167-.462-2.521.117-1.39 2.274l1.181 2.25-2.395-1.989c-1.318-1.094-2.062-1.586-1.655-1.092.408.493.183 1.613-.5 2.489-1.098 1.409-1.039 1.434.509.22 1.483-1.164 1.773-1.164 1.902 0 .084.754.208 1.822.277 2.372.068.55.536 1.675 1.039 2.5.783 1.282.677 1.306-.732.164-.907-.735-2.146-1.028-2.755-.652s-1.998-.122-3.087-1.108c-1.912-1.73-1.955-1.725-1.26.152.824 2.223 12.995 15.151 15.582 16.55 1.403.759 4.919-2.256 19.25-16.502 9.644-9.587 17.534-17.862 17.534-18.39 0-1.158-14.046-14.633-16.777-16.094-1.696-.908-1.919-.704-1.827 1.673Zm-3.793 4.04c-.283.459.12.834.897.834s1.18-.375.897-.834c-.283-.458-.687-.833-.897-.833-.21 0-.614.375-.897.833Zm148.926 3.11c-.837 1.619-1.136 3.182-.665 3.473 1.296.801 2.075-.413 1.397-2.178-.334-.872-.177-1.304.355-.975.525.324.955-.277.955-1.336 0-2.572-.251-2.446-2.042 1.016Zm-156.279 4.664c0 1.667.282 2.15.782 1.34.431-.696.551-1.869.268-2.606-.763-1.99-1.05-1.644-1.05 1.266Zm-5.292 3.471c-.716 1.338-1.687 1.856-2.729 1.457-1.28-.492-1.212-.166.327 1.567 1.943 2.188 1.943 2.188-.283 1.02-1.932-1.013-2.142-.944-1.581.519.485 1.262.29 1.479-.772.863-.781-.454-1.098-.468-.705-.033.393.436.25 1.745-.317 2.91-.877 1.801-.743 1.76.898-.275 1.072-1.33 2.435-2.081 3.067-1.691.625.387 1.189.114 1.252-.606.242-2.748.431-3.373 1.675-5.559.704-1.238 1.055-2.25.78-2.25-.275 0-1 .935-1.612 2.078Zm235.637.076c.333.539.856.728 1.163.421.307-.307 1.274-.021 2.15.635 1.329.996 1.387.963.352-.198-1.422-1.596-4.577-2.335-3.665-.858Zm-87.105 5.862c-.346.559-1.042.761-1.548.448-.508-.314-.625.199-.261 1.148.384.999.255 1.466-.309 1.118-.532-.329-1.621-.185-2.42.321-1.151.728-1.171.922-.095.934.78.008 1.117.639.794 1.483-.31.807-.064 1.777.547 2.154.611.378.846.259.522-.265-.783-1.268.877-3.851 2.494-3.879.707-.013 1.143-.845.969-1.851-.213-1.228.084-1.58.905-1.073.78.483.964.338.507-.399-.877-1.42-1.296-1.447-2.105-.139Zm97.123 1.167c.289.467.944.591 1.456.274 1.308-.808 1.161-1.124-.525-1.124-.801 0-1.22.383-.931.85Zm-106.06 4.903c.256.414-.246 1.464-1.115 2.333-1.009 1.009-1.149 1.581-.387 1.581.888 0 .866.395-.086 1.542-1.006 1.212-1.019 1.802-.063 2.75.952.946 1.085.863.612-.382-.333-.874.086-2.163.929-2.863.844-.701 1.276-1.692.96-2.204-.316-.512-.094-1.511.495-2.22.789-.951.692-1.29-.37-1.29-.792 0-1.231.339-.975.753Zm-152.681 4.664c-1.243 1.586-1.208 1.621.378.378 1.666-1.307 2.195-2.128 1.372-2.128-.207 0-.995.788-1.75 1.75Zm4.741.433c.289.467.944.591 1.456.274 1.308-.808 1.161-1.124-.525-1.124-.801 0-1.22.383-.931.85Zm88.609 31.399c-.11 1.33.245 2.418.789 2.418s.989.52.989 1.155c0 .69-.736.489-1.831-.502-1.007-.912-2.101-1.387-2.431-1.057-.867.866.315 3.489 1.298 2.882a.97.97 0 0 1 1.33.306c.278.449-.591.816-1.931.816-2.272 0-2.922-.786-2.497-3.019.096-.506-.526-.338-1.382.372-.856.711-1.549 1.799-1.541 2.419.009.621.493.453 1.076-.372.943-1.333 1.015-1.333.641 0-.247.885-1.496 1.457-3.045 1.394-1.445-.058-2.394.271-2.11.73.283.459.003 1.792-.623 2.963-.869 1.623-.845 2.399.101 3.27.96.886 1.096.737.604-.659-.378-1.071-.235-1.554.352-1.191 1.245.769 1.301 3.493.072 3.493-.504 0-1.876-1.238-3.048-2.75l-2.132-2.75 1.676 3.5c.921 1.925 1.317 3.162.879 2.748-.437-.414-1.575-.047-2.528.815-1.316 1.191-1.912 1.274-2.485.348-.513-.831-.336-.962.555-.411.921.569 1.069.421.5-.5-.517-.836-.417-1.067.276-.638.597.369 1.349.244 1.671-.277.322-.521.19-1.191-.293-1.49-.484-.299-2.305 1.023-4.048 2.938-2.679 2.945-2.998 3.801-2.061 5.55 1.014 1.897.932 1.975-.997.943-1.157-.62-1.864-1.514-1.571-1.988.677-1.096-2.156-.718-3.198.427-.428.47-.239.546.421.167.689-.395 1.665.182 2.293 1.354.844 1.578.799 1.982-.2 1.778-.8-.163-1.293.753-1.293 2.402 0 3.523-.9 4.271-2.607 2.166-.769-.947-.864-1.399-.212-1.008.649.39 1.439.291 1.755-.22.315-.511-.216-.803-1.181-.649-1.035.165-1.683 1.053-1.579 2.162.169 1.81.121 1.807-1.25-.058-.826-1.124-1.426-1.399-1.426-.653 0 2.05 27.012 29.594 29.022 29.594.863 0 27.318-25.641 30.728-29.783 1.238-1.503 2.25-3.092 2.25-3.533 0-1.032-22.639-23.079-26.581-25.885l-2.996-2.134-.201 2.417Zm159.992 6.561c.436 1.306-4.01 5.572-5.353 5.137-.373-.12-.557.889-.408 2.243.314 2.863-1.843 5.272-3.018 3.371-.503-.813-.32-.941.565-.394.873.539 1.068.419.585-.362-.938-1.519-2.829-.373-1.949 1.181.367.65 1.384 2.081 2.259 3.181 1.056 1.328.623 1.16-1.288-.5-2.625-2.28-2.781-2.312-1.769-.364 1.037 1.994.886 2.121-2.271 1.91-2.572-.173-3.251.114-2.835 1.197.451 1.175.71 1.191 1.483.091.752-1.071.859-1.045.539.131-.218.806-1.565 1.481-2.993 1.5-1.427.019-2.918.358-3.313.754-.395.395.233.535 1.396.311 1.163-.224 2.418.085 2.789.686.436.705.206.803-.648.274-.933-.576-1.155-.375-.75.679.337.878.011 1.498-.786 1.498-.749 0-1.129-.375-.846-.834 1.33-2.152-.58-.518-2.092 1.79-1.121 1.712-1.248 2.33-.365 1.778 1.936-1.208 3.966-1.391 3.29-.297-.316.511-.886.736-1.266.501-.804-.497-3.682 1.441-4.269 2.873-.221.538-.966 1.061-1.656 1.162-.69.102-.996-.233-.681-.744.316-.511 1.063-.627 1.66-.258.663.41.796.203.341-.532-.521-.845-1.116-.893-1.996-.163-.689.572-1.621.706-2.071.298-.45-.407-.503-.192-.117.48.768 1.337-2.167 7.826-3.113 6.881-.321-.322-1.3-.026-2.176.657-1.39 1.083-1.427 1.03-.293-.42 1.001-1.281 1.023-1.831.095-2.404-.716-.443-.942-.322-.56.297.899 1.454-1.966 3.609-3.54 2.662-.917-.551-.883-.271.118.961 1.11 1.368 1.587 1.463 2.234.442.453-.713.83-.824.839-.247.008.578-.445 1.51-1.006 2.071-1.482 1.482 10.801 12.952 16.632 15.531 6.735 2.979 18.239 2.298 24.65-1.459 8.388-4.916 13.534-13.346 14.474-23.71.707-7.795-2.436-14.432-10.796-22.797-6.647-6.652-10.532-9.465-9.725-7.043Zm-168.513 2.521c.476 1.24.277 1.454-.781.84-.783-.455-1.07-.44-.641.031.428.471 1.435.953 2.237 1.07 1.136.167 1.232-.207.436-1.695-1.258-2.35-2.123-2.52-1.251-.246Zm2.902-.831c-.283.459.12.834.897.834s1.18-.375.897-.834c-.283-.458-.687-.833-.897-.833-.21 0-.614.375-.897.833Zm-13.649 9.667c-.059.55-.261 1.813-.45 2.806-.292 1.537-.11 1.611 1.23.5.865-.718 1.767-1.156 2.003-.973.236.184.73-.001 1.096-.41.367-.409.132-.437-.522-.062-.653.374-1.652-.116-2.219-1.09-.567-.974-1.079-1.321-1.138-.771Zm165.046.878c0 .207.788.995 1.75 1.75 1.586 1.243 1.621 1.208.378-.378-1.307-1.666-2.128-2.195-2.128-1.372Zm-173.667 6.273c0 .984.337 1.038 1.334.211.733-.609 1.333-1.202 1.333-1.318 0-.116-.6-.211-1.333-.211a1.331 1.331 0 0 0-1.334 1.318Zm157.019 14.081c-.165 2.67-.082 2.652 1.459-.315.805-1.553.776-2.084-.115-2.084-.658 0-1.263 1.08-1.344 2.399ZM160 363.409c0 .19.675.906 1.5 1.591.865.718 1.5.815 1.5.229 0-.558-.675-1.274-1.5-1.591-.825-.316-1.5-.419-1.5-.229Z" fill="#000"/>
    <path d="M224.5.646c-10.448 1.09-29.869 4.823-41.104 7.902C114.641 27.391 56.9 75.278 25.494 139.5c-8.915 18.232-13.536 30.537-17.984 47.892C1.543 210.673.497 220.202.527 251c.024 24.195.303 29.043 2.32 40.333C17.331 372.414 67.071 439.087 139.5 474.506c18.232 8.915 30.537 13.536 47.892 17.984 23.281 5.967 32.81 7.013 63.608 6.983 24.195-.024 29.043-.303 40.333-2.32 70.516-12.596 130.054-51.662 168.642-110.653 8.223-12.57 20.162-36.379 25.502-50.857C491.925 318.162 499 286.53 499 275.181c0-1.685.45-3.341 1-3.681.618-.382 1-9.03 1-22.618 0-14.412-.345-21.787-1-21.382-.602.372-1-.948-1-3.316 0-2.163-.936-9.444-2.08-16.18-13.464-79.273-64.251-147.218-136.42-182.51C336.28 13.65 314.139 6.518 289 2.46 278.875.826 234.694-.416 224.5.646ZM242 80.39c-2.475.673-5.686 1.873-7.135 2.667-1.449.794-31.149 29.628-66 64.076-34.851 34.448-69.15 68.198-76.22 75-15.962 15.355-18.136 19.008-18.08 30.367.047 9.44 2.011 14.077 8.415 19.863 5.056 4.568 7.727 5.637 14.082 5.637 4.277 0 5.498-.498 9.185-3.75 5.147-4.538.324.134 32.774-31.75a50874.528 50874.528 0 0 1 53.48-52.455 19342.258 19342.258 0 0 0 53.642-52.776c30.683-30.324 30.305-29.777 27.436-39.645C270.053 85.496 254.477 76.995 242 80.39Zm-117.302 32.054c-17.51 6.246-24.806 27.482-14.69 42.755 1.598 2.412 6.326 7.459 10.505 11.215l7.6 6.828 2.694-2.336C137.487 165.11 168 134.414 168 133.49c0-2.112-17.584-18.434-22-20.421-5.32-2.394-15.505-2.693-21.302-.625Zm145.962 15.563-16.841 16.726 6.341 6.817c3.487 3.749 16.352 16.726 28.59 28.838 17.957 17.773 22.25 22.537 22.25 24.694 0 3.352-2.274 5.317-5.279 4.563-1.268-.318-8.495-6.503-16.059-13.744-11.365-10.878-14.078-13.012-15.619-12.283-2.138 1.011-14.639 12.916-48.057 45.767a479831.492 479831.492 0 0 1-68.301 67.115c-24.633 24.2-46.091 45.955-47.685 48.344-13.064 19.585 3.345 47.258 26.6 44.858 8.489-.876 13.141-3.645 23.114-13.755l9.215-9.341-5.465-5.729c-8.771-9.195-8.972-8.724 13.286-31.144 10.313-10.388 19.965-19.527 21.45-20.31 4.777-2.517 9.353-1.822 13.668 2.077 2.131 1.925 4.463 3.5 5.183 3.5.72 0 33.577-32.22 73.014-71.6 67.902-67.803 71.893-71.6 75.244-71.6 3.1 0 4.479-.966 11.125-7.795 9.391-9.65 11.889-14.816 11.895-24.595.005-8.458-2.605-14.74-8.504-20.464-5.506-5.343-10.203-7.3-18.636-7.767-12.163-.672-13.92.396-35.321 21.472-19.476 19.179-22.344 21.066-24.863 16.358-1.357-2.534.445-6.183 5.41-10.955 1.972-1.896 3.585-3.977 3.585-4.627 0-.649-5.062-5.897-11.25-11.663l-11.25-10.483-16.84 16.726Zm-67.341 66.301c-6.878 6.878-12.704 12.532-12.948 12.563-1.17.152-3.192 2.975-2.573 3.593.386.387.214.553-.381.369-1.392-.428-8.424 6.537-8.397 8.317.027 1.734 19.773 22.087 21.021 21.667 1.792-.604 37.959-37.246 37.959-38.458 0-1.2-17.579-17.984-20.615-19.684-1.202-.672-4.434 2.002-14.066 11.633Zm143.266 6.851-15.916 15.997 28.916 28.988c15.903 15.943 30.13 29.633 31.615 30.422 1.486.789 4.636 1.424 7 1.412 17.219-.088 27.772-23.289 18.145-39.89-2.639-4.551-51.425-53.207-53.147-53.007-.384.045-7.86 7.28-16.613 16.078ZM.428 250c0 12.375.143 17.438.319 11.25.175-6.187.175-16.312 0-22.5-.176-6.187-.319-1.125-.319 11.25Zm130.604 14.653c-5.521 5.416-13.894 13.5-18.606 17.964l-8.568 8.117 10.692 11.133C120.431 307.99 125.755 313 126.382 313c.626 0 9.218-8.089 19.093-17.975l17.953-17.974-2.002-2.682c-1.101-1.474-6.131-6.479-11.179-11.122l-9.177-8.44-10.038 9.846Zm219.901-7.745c-.862.876-4.237 4.022-7.5 6.992-3.263 2.97-25.958 25.017-50.433 48.993a97824.6 97824.6 0 0 1-58.227 57.007c-15.146 14.799-17.575 18.682-16.377 26.177.884 5.527 3.856 11.108 8.26 15.512 5.312 5.312 10.554 7.365 18.844 7.379 12.461.022 11.332.945 67.699-55.341C352.107 324.775 364.46 313 366.312 313c1.784 0 5.058-2.843 12.551-10.901 5.575-5.996 10.137-11.117 10.137-11.381 0-.264-3.891-4.246-8.646-8.849-4.755-4.603-12.293-12.107-16.75-16.675-9.519-9.756-10.557-10.434-12.671-8.286Zm-61.824 2.732c-2.23 2.001-3.808 4.038-3.507 4.524.3.487.087.762-.474.611-.561-.151-7.788 6.432-16.059 14.63l-15.039 14.904 9.354 10.096c5.144 5.552 10.259 10.232 11.366 10.399 1.462.221 7.242-4.804 21.131-18.37C306.397 286.163 315 277.207 315 276.531c0-1.427-19.414-20.531-20.864-20.531-.535 0-2.797 1.638-5.027 3.64Zm-87.979 61.841c-1.304.728-7.415 6.457-13.579 12.731-6.165 6.275-12.636 12.425-14.38 13.666-1.744 1.242-3.171 2.795-3.171 3.451 0 .656 7.635 8.818 16.967 18.138l16.967 16.945 8.255-7.956C226.214 364.939 238 352.61 238 351.453c0-1.602-30.985-30.921-32.892-31.124-.885-.095-2.675.424-3.978 1.152Zm143.785 25.396C334.512 357.26 326 366.219 326 366.786c0 1.928 17.479 18.79 21.5 20.741 5.684 2.758 17.381 2.673 23.589-.17 5.994-2.745 11.557-8.4 14.516-14.755 3.131-6.725 3.307-17.087.392-23.108C383.909 345.181 367.16 328 365.044 328c-.668 0-9.726 8.495-20.129 18.877Z" fill="#fff"/>
    <path d="M229.872 86.75c-1.243 1.586-1.208 1.621.378.378.963-.755 1.75-1.543 1.75-1.75 0-.823-.821-.294-2.128 1.372Zm-13.467 13.5-1.905 2.25 2.25-1.905c2.114-1.79 2.705-2.595 1.905-2.595-.19 0-1.202 1.013-2.25 2.25Zm69.718 13.925c-1.043 1.67-1.034 1.895.053 1.258.728-.427.536.125-.428 1.226-.964 1.102-1.414 2.402-1 2.889.414.487.077.4-.748-.194-1.19-.856-2.431-.135-6 3.489-2.475 2.513-3.563 3.801-2.419 2.861 1.145-.94 2.454-1.37 2.91-.956.457.414.463.12.015-.653-.565-.973-.441-1.173.406-.649 1.16.717.68 2.046-.745 2.061-.367.004-1.728.756-3.025 1.67-1.543 1.088-2.082 2.123-1.558 2.993.649 1.079.509 1.094-.74.084-1.267-1.026-1.878-.874-3.442.855-1.046 1.155-1.789 2.391-1.652 2.746s-.087.661-.5.68c-2.335.111-5.117 2.648-4.543 4.144.406 1.058.238 1.405-.468.969-.605-.374-1.426-.154-1.824.49-.436.705-.292.904.361.5.597-.369 1.375-.202 1.729.37.354.573.273.977-.181.898-2.13-.37-3.376.2-2.729 1.249.446.721.274.882-.457.43-.644-.398-.904-1.255-.578-1.904.326-.65-.341-.12-1.482 1.177l-2.074 2.359 3.071 3.878c1.689 2.132 3.601 4.195 4.248 4.583.663.397.577-.033-.195-.986-1.242-1.531-.892-2.117 1.086-1.822.393.058.429-.637.08-1.546-.463-1.206-.251-1.452.786-.912.781.407.398-.161-.851-1.264-2.282-2.013-1.649-3.63 1.021-2.606.786.302 2.028-.172 2.759-1.053.731-.881.916-1.523.41-1.427-2.106.401-3.495-.131-2.892-1.106.355-.574.101-1.699-.563-2.5-.665-.801-.773-1.456-.239-1.456.533 0 1.397.959 1.92 2.131.834 1.869 1.13 1.951 2.414.668.804-.805 2.449-1.39 3.655-1.302 1.206.089 1.985-.175 1.73-.587-.254-.412.329-1.547 1.297-2.523 1.679-1.694 1.676-1.744-.075-1.08-1.241.47-1.698.291-1.413-.556.23-.688 1.28-1.252 2.333-1.252 1.053-.001 1.914-.541 1.914-1.2 0-.66.629-1.784 1.397-2.499 1.029-.958 1.211-.971.691-.05-.388.688-.443 1.25-.122 1.25.695 0 2.927-5.174 2.695-6.25-.088-.412.289-.75.839-.75s1 .505 1 1.122c0 2.089 4.496-1.793 4.625-3.994.327-5.571.328-5.575 1.575-4.328 1.765 1.765 3.263 1.463 1.755-.355-2.5-3.012-4.476-3.442-5.832-1.27ZM152 117.313c0 .172 1.463 1.635 3.25 3.25l3.25 2.937-2.937-3.25c-2.738-3.029-3.563-3.71-3.563-2.937Zm176.985 12.437L316.5 142.5l12.75-12.485C341.093 118.418 342.453 117 341.735 117c-.146 0-5.883 5.737-12.75 12.75Zm-47.905-8.5c-1.237 1.986-1.225 2.104.101 1.009.827-.683 1.823-.922 2.214-.531s.414-.063.051-1.008c-.819-2.134-.689-2.163-2.366.53ZM160.5 126c.995 1.1 2.035 2 2.31 2 .275 0-.315-.9-1.31-2-.995-1.1-2.035-2-2.31-2-.275 0 .315.9 1.31 2Zm122.053.915a1.117 1.117 0 0 0 .362 1.532c.521.322 1.21.159 1.532-.362a1.117 1.117 0 0 0-.362-1.532 1.117 1.117 0 0 0-1.532.362ZM164 129.378c0 .207.787.995 1.75 1.75 1.586 1.243 1.621 1.208.378-.378-1.307-1.666-2.128-2.195-2.128-1.372Zm106.074 2.033c-.801.965-.839 1.616-.123 2.059.577.356 1.083.509 1.126.339.448-1.813.688-3.809.457-3.809-.159 0-.816.635-1.46 1.411Zm34.976 7.036-4.45 5.053 4.902-4.715c2.696-2.593 4.698-4.867 4.45-5.053-.249-.185-2.455 1.936-4.902 4.715Zm-39.497-2.532a1.117 1.117 0 0 0 .362 1.532c.521.322 1.21.159 1.532-.362a1.117 1.117 0 0 0-.362-1.532 1.117 1.117 0 0 0-1.532.362Zm3.974-.109c-.26.26-.245.841.032 1.29.575.931 3.441.068 3.441-1.036 0-.803-2.724-1.002-3.473-.254Zm-106.122 2.444-1.905 2.25 2.25-1.905c1.238-1.048 2.25-2.06 2.25-2.25 0-.8-.805-.209-2.595 1.905Zm75.057 6-4.962 5.25 5.25-4.962c4.878-4.612 5.709-5.538 4.962-5.538-.158 0-2.52 2.363-5.25 5.25Zm19.135 1.594c-.346.56-.142 1.319.453 1.687 1.538.95 2.53-.351 1.246-1.635-.718-.718-1.277-.735-1.699-.052Zm2.844 2.624c-1.647 1.246-1.693 1.473-.298 1.5.904.018 1.902-.643 2.219-1.468.715-1.863.505-1.867-1.921-.032Zm-112.569 4.282c-1.243 1.586-1.208 1.621.378.378 1.666-1.307 2.195-2.128 1.372-2.128-.207 0-.995.787-1.75 1.75ZM375 164.5c-2.429 2.475-4.191 4.5-3.916 4.5.275 0 2.487-2.025 4.916-4.5 2.429-2.475 4.191-4.5 3.916-4.5-.275 0-2.487 2.025-4.916 4.5Zm-242.775 2.676c.152.732-.502 1.263-1.464 1.187-.957-.075-1.549.171-1.316.548.233.376.037 1.309-.435 2.072-.73 1.182-1.13 1.183-2.684.007-1.749-1.322-1.752-1.3-.068.537 1.723 1.88 1.821 1.856 4.856-1.18 2.031-2.03 2.709-3.339 1.967-3.797-.652-.403-1.014-.138-.856.626Zm82.582 17.69c-.719 1.026-1.757 1.926-2.307 2-.55.074-1 .997-1 2.051 0 1.054-.41 2.291-.91 2.75-.536.49-.588.276-.127-.521.524-.905-.083-.786-1.831.36-1.438.942-2.367 2.114-2.064 2.603.509.825-.951 1.322-2.892.985-.454-.079-.575.261-.269.755.6.972-4.35 6.787-5.482 6.441-.378-.116-1.528.749-2.556 1.922-1.028 1.172-1.237 1.76-.464 1.305.977-.575 1.174-.454.648.397-.415.672-1.37.986-2.122.698-.752-.289-1.676-.025-2.053.586-.416.673-.232.83.467.397.635-.392 1.155-.21 1.155.405s.445.843.989.507c.555-.343.74.035.422.864-.592 1.543 1.099 1.691 3.339.292 1.595-.996 1.631.556.05 2.137-.66.66-.916 1.2-.568 1.2.347 0 1.651-1.431 2.897-3.181 1.245-1.749 1.726-2.847 1.068-2.441-.658.407-1.197.29-1.197-.26s.41-1.253.911-1.563c.502-.31.789-1.687.638-3.059-.267-2.432.445-3.169 1.776-1.838.362.362.156 1.262-.456 2-.819.987-.817 1.342.009 1.342.617 0 1.122-.477 1.122-1.059s.427-.795.95-.472c.522.323 1.445-.338 2.05-1.469.605-1.131 1.523-1.795 2.039-1.476.53.328.652-.167.28-1.136-.444-1.157-.281-1.483.5-1 .756.467.952.179.565-.83-.327-.851-.949-1.327-1.384-1.058-.435.269-1.048-.184-1.364-1.006-.742-1.934.256-1.902 2.445.079 1.594 1.443 1.793 1.4 2.4-.514.365-1.149 1.096-1.82 1.625-1.493.566.349.76-.518.472-2.109-.27-1.486-.209-2.421.135-2.078 1.029 1.03 4.196-2.453 3.613-3.973-.738-1.923-1.962-1.763-3.519.46Zm-25.829 7.884-8.478 8.75 8.75-8.478c8.127-7.874 9.206-9.022 8.478-9.022-.15 0-4.087 3.938-8.75 8.75Zm83.115-6.923c-.755 1.409-.477 2.262 1.214 3.732 1.206 1.048 2.514 1.806 2.907 1.685.393-.121.458.447.145 1.262-.313.815-1.084 1.188-1.714.828-.63-.36-.92-.395-.645-.078.275.318.801.502 1.169.411.369-.092 1.904.958 3.412 2.333 1.508 1.375 2.411 1.825 2.008 1-.404-.825.435-.15 1.863 1.5 1.427 1.65 3.035 2.888 3.572 2.75.537-.137.976.219.976.792 0 .573.928 2.035 2.062 3.25 1.923 2.059 2.019 2.073 1.424.208l-.637-2 1.299 2c.715 1.1 1.312 2.45 1.326 3 .014.55.476 1.003 1.026 1.007 1.538.012 5.563 3.097 4.902 3.758-.724.724 1.73.397 3.098-.414.55-.325 1.728-.474 2.619-.329.89.144 2.915-.848 4.5-2.206 1.958-1.677 2.123-1.987.516-.968-2.874 1.824-4.251 1.359-10.477-3.541-2.664-2.096-5.191-3.596-5.617-3.333-.425.264-1.621-.488-2.657-1.669-1.036-1.182-1.321-1.82-.634-1.418 1.865 1.091 1.51-.931-.442-2.515-1.457-1.182-1.568-1.166-.795.114.493.817-2.175-1.771-5.929-5.75-7.126-7.554-8.864-8.45-10.491-5.409Zm2.907-.449c0 .207.788.995 1.75 1.75 1.586 1.243 1.621 1.208.378-.378-1.307-1.666-2.128-2.195-2.128-1.372Zm87.264 2.762c-.078 1.047.28 1.642.797 1.323.516-.32.939-.131.939.419s-.562 1.361-1.25 1.802c-1.694 1.088-5.748 1.122-5.081.043.293-.475 1.163-.622 1.932-.327.945.363 1.386-.182 1.358-1.681-.036-1.942-.535-1.672-4 2.16-2.177 2.408-3.923 4.883-3.88 5.5.048.688.275.636.585-.135.279-.691.988-.959 1.576-.596.694.429.772.169.223-.743-.714-1.185-.589-1.196.801-.069.907.735 2.188 1.003 2.847.596.715-.443.937-.318.549.309-.357.577.024 1.307.846 1.623.822.315 1.532.25 1.577-.145.046-.396.196-1.735.334-2.977.137-1.242 1.259-3.332 2.492-4.645 1.758-1.872 1.956-2.564.916-3.213-2.307-1.441-3.413-1.206-3.561.756ZM265 191.5c-2.429 2.475-4.191 4.5-3.916 4.5.275 0 2.487-2.025 4.916-4.5 2.429-2.475 4.191-4.5 3.916-4.5-.275 0-2.487 2.025-4.916 4.5Zm38.5 3.5c3.82 3.85 7.171 7 7.446 7 .275 0-2.626-3.15-6.446-7s-7.171-7-7.446-7c-.275 0 2.626 3.15 6.446 7Zm-88.06-4.902c-.866 1.4 1.316 1.901 2.431.558.828-.999.723-1.323-.431-1.323-.84 0-1.741.344-2 .765Zm64.429.244c.612.738.78 1.676.372 2.083-.407.408-.066.592.759.408.909-.202 1.369.258 1.167 1.167-.184.825 0 1.166.408.759.407-.408 1.457-.203 2.333.456.876.659.041-.47-1.854-2.509-3.279-3.525-5.546-5.209-3.185-2.364Zm-155.997 1.408c-1.243 1.586-1.208 1.621.378.378.963-.755 1.75-1.543 1.75-1.75 0-.823-.821-.294-2.128 1.372Zm91.618 2.266c-.346.559-1.117.715-1.714.346-.663-.41-.796-.203-.341.532.521.845 1.116.893 1.996.163.689-.572 1.621-.706 2.071-.298.45.407.495.179.099-.509-.872-1.516-1.29-1.562-2.111-.234Zm-100.524 6.734-5.466 5.75 5.75-5.466c3.162-3.006 5.75-5.594 5.75-5.75 0-.742-.956.124-6.034 5.466Zm89.751-4c-.221.412-.135 1.772.191 3.022.585 2.245.607 2.248 1.85.25 1.061-1.705 1.013-2.022-.309-2.022-.862 0-1.289-.45-.949-1 .34-.55.393-1 .118-1s-.681.338-.901.75Zm145.246 2.551c-.801 1.209-1.458 2.874-1.46 3.699a1.51 1.51 0 0 1-1.504 1.5c-.825 0-1.499.563-1.499 1.25 0 1.594-1.09 2.016-2.167.84-.493-.539-.26-.578.572-.096.966.561 1.172.44.66-.388-.569-.921-1.074-.929-2.154-.032-1.5 1.245-1.914 3.005-.661 2.808 1.906-.301 3.511.191 2.834.868-1.01 1.01-5.58 1.052-4.958.046 1.179-1.908-.585-.493-4.036 3.236-3.456 3.736-3.553 4-1.327 3.597 1.54-.279 2.404.036 2.404.878 0 .736-.807 1.159-1.834.961-1.008-.194-1.833.02-1.833.476 0 1.46 5.974 1.792 7.132.397.602-.726 1.463-1.092 1.912-.814.45.278 1.081.079 1.403-.442 1.22-1.973-1.463-2.069-3.411-.121-1.432 1.432-2.036 1.623-2.036.643 0-.766.675-1.652 1.5-1.969.825-.316 1.464-1.377 1.421-2.357-.046-1.047-.287-1.266-.583-.531-.686 1.7-2.338 1.585-2.338-.163 0-1.008.859-1.277 3-.94 1.773.28 3 .031 3-.607 0-.598 1.087-.882 2.439-.637 1.705.309 2.289.053 1.942-.851-.273-.712.183-1.974 1.014-2.804.83-.83 1.194-1.886.807-2.346-.386-.46.172-.176 1.24.631 1.214.917 1.661.999 1.191.217-.443-.738-.214-1.291.558-1.35.72-.055.184-.46-1.191-.9-1.826-.585-2.028-.861-.75-1.025 2.754-.354 3.186-.467 4.25-1.111.55-.333 1.829-.472 2.842-.31 1.013.163 1.538-.008 1.166-.379-.371-.371-1.087-.731-1.591-.8-2.23-.304-2.333-.461-.917-1.393 1.154-.76.923-.901-1-.611-1.375.208-2.969.007-3.541-.446-.618-.488-1.633.071-2.496 1.376Zm-.207 1.589c-1.115 1.429-1.059 1.456.494.238.987-.774 1.75-.922 1.75-.339 0 .569.662.937 1.471.818 2.632-.386 2.672-1.346.077-1.842-1.609-.308-2.994.103-3.792 1.125Zm-172.351 3.36-1.905 2.25 2.25-1.905c2.114-1.79 2.705-2.595 1.905-2.595-.19 0-1.202 1.012-2.25 2.25Zm19.138-.319c-.317.512-.111 1.218.457 1.569.568.351.731 1.127.362 1.724-.41.663-.203.796.532.341.845-.521.893-1.116.163-1.996-.572-.689-.744-1.549-.382-1.911.362-.362.385-.658.051-.658-.335 0-.867.419-1.183.931Zm36.381 3.819-2.424 2.75 2.75-2.424c2.57-2.266 3.209-3.076 2.424-3.076-.179 0-1.416 1.238-2.75 2.75ZM385 206.378c0 .207.788.995 1.75 1.75 1.586 1.243 1.621 1.208.378-.378-1.307-1.666-2.128-2.195-2.128-1.372Zm-38.541 2.689c-.363.586-.445 1.281-.183 1.543s.743-.218 1.069-1.067c.676-1.762.1-2.072-.886-.476Zm-155.577.683c-.066.412-.04 1.164.056 1.669.096.506-.454.397-1.224-.241-1.707-1.417-2.793-.547-1.975 1.584.398 1.038.204 1.321-.576.839-1.183-.732-2.087.678-2.577 4.017-.144.975-.784 1.948-1.423 2.161-1.42.473-1.555-1.418-.163-2.279.55-.34.986-1.154.968-1.809-.017-.655-.692-.317-1.5.75-.807 1.068-1.475 1.518-1.483 1-.009-.517-.433-.281-.943.525-1.16 1.835.706 4.345 2.67 3.591.766-.294 1.117-.089.781.454-.336.544-.312.989.054.989 1.059 0 4.939-5.317 5.097-6.984.079-.834.198-1.966.265-2.516s.533-.349 1.037.446c.576.911.491 2.207-.228 3.5-.629 1.13-1.036 2.425-.906 2.878.131.454-.193.559-.718.234a1.121 1.121 0 0 0-1.541.357c-1.009 1.632 1.157 2.139 2.456.574.68-.819.93-1.489.557-1.489-.374 0-.013-.952.802-2.115.815-1.163 1.227-2.777.916-3.586-.414-1.081.046-1.383 1.733-1.136 1.263.186 2.494-.24 2.734-.944.24-.705.057-1.214-.407-1.132-2.034.361-3.413-.166-2.844-1.087.34-.55.141-1-.441-1s-1.112.338-1.177.75Zm108.743.048c-.271.439-.093 1.445.397 2.237.671 1.086.848.889.721-.798-.183-2.427-.364-2.66-1.118-1.439Zm89.375.515c0 .172 1.462 1.635 3.25 3.25l3.25 2.937-2.937-3.25c-2.738-3.029-3.563-3.71-3.563-2.937ZM216.378 224c-7.175 7.15-12.777 13-12.448 13 .33 0 6.436-5.85 13.57-13s12.736-13 12.448-13c-.288 0-6.395 5.85-13.57 13Zm129.235-9.817c.289.467.944.591 1.456.274 1.308-.808 1.161-1.124-.525-1.124-.801 0-1.22.383-.931.85ZM228.982 226.75 218.5 237.5l10.75-10.482c9.985-9.736 11.204-11.018 10.482-11.018-.147 0-4.985 4.838-10.75 10.75Zm-78.501 3.5L140.5 240.5l10.25-9.981c9.52-9.271 10.705-10.519 9.981-10.519-.148 0-4.76 4.613-10.25 10.25Zm185.924-7.366c2.31 2.566 2.488 2.596 2.162.366-.141-.963-1.113-1.915-2.161-2.116-1.874-.36-1.874-.331-.001 1.75ZM198.25 239.519c1.722 1.879 1.778 1.879 3.5 0 1.667-1.819 1.667-1.847 0-.592-1.448 1.09-2.052 1.09-3.5 0-1.667-1.255-1.667-1.227 0 .592Zm17.155.731-1.905 2.25 2.25-1.905c2.114-1.79 2.705-2.595 1.905-2.595-.19 0-1.202 1.012-2.25 2.25ZM372.5 259c7.685 7.7 14.198 14 14.473 14 .275 0-5.788-6.3-13.473-14-7.685-7.7-14.198-14-14.473-14-.275 0 5.788 6.3 13.473 14Zm46.579-9.417c.048 1.165.285 1.402.604.605.289-.722.253-1.585-.079-1.917-.332-.332-.568.258-.525 1.312ZM74.232 252c0 1.925.206 2.713.457 1.75.252-.963.252-2.537 0-3.5-.251-.963-.457-.175-.457 1.75Zm65.318 6.232c-.874 1.247-2.142 2.279-2.819 2.292-.677.013-1.167.809-1.089 1.769.089 1.094-.462 1.645-1.477 1.476-.891-.148-1.686.294-1.768.981-.081.688-.203 1.59-.272 2.006-.069.416-1.492 1.361-3.164 2.101-2.604 1.153-2.854 1.572-1.75 2.931 1.098 1.352 1.032 1.49-.448.936-1.108-.415-2.737.23-4.5 1.781-2.385 2.099-2.281 2.765.375 2.41.351-.047 1.007.511 1.459 1.241.661 1.071 1.064 1.083 2.086.061 1.015-1.015 1.018-1.665.019-3.265-1.145-1.834-1.087-1.897.713-.773 1.843 1.151 1.864 1.387.357 3.937-1.418 2.4-1.843 2.57-3.687 1.466-2.31-1.383-3.475-1.439-5.335-.258-.687.437-1.25.482-1.25.1 0-.381-.929.488-2.065 1.931-1.195 1.52-1.746 3.156-1.308 3.885.525.874.239.84-.935-.112-1.771-1.437-2.219-.737-1.744 2.722.102.743-.187 1.12-.642.839-.455-.281-1.673.107-2.707.862-1.771 1.296-1.784 1.518-.216 3.911.915 1.396 1.933 2.538 2.262 2.538.33 0 .04-.675-.645-1.5-.993-1.197-.993-1.5 0-1.5.928 0 .961-.342.131-1.342-1.505-1.813-.296-2.817 1.947-1.616 1.355.725 2.047.557 2.73-.664.579-1.033 1.156-1.245 1.57-.576.36.583.197 1.342-.362 1.688-.559.345-1.016 1.078-1.016 1.628 0 .55.563.662 1.25.249.849-.51.81-.209-.122.941-.755.931-1.618 1.692-1.917 1.692-.299 0-.248-.296.114-.658.729-.729-1.115-3.342-2.359-3.342-.434 0-.704.563-.599 1.25.367 2.421 1.852 3.88 3.361 3.301.839-.322 2.23-.015 3.091.682 1.303 1.055 1.418 1.023.686-.191-1.309-2.169-1.559-6.194-.339-5.439.634.392.595-.181-.101-1.482-1.091-2.037-.712-2.602 1.435-2.145 3.693.788 4.448.825 4.361.213-.34-2.394.365-3.187 2.491-2.802 2.018.366 2.313.064 2.072-2.125-.154-1.404.466-3.69 1.377-5.081 1.219-1.86 1.334-2.636.436-2.935-.85-.284-.93-.951-.264-2.195.526-.984.635-2.131.242-2.551-.393-.419.289-.151 1.516.597 2.744 1.673 3.376 3.151 2.135 4.994-.744 1.105-.886.999-.658-.487.161-1.043-.27-2.093-.956-2.333-.906-.317-1.02.181-.417 1.813.458 1.238 1.551 2.355 2.43 2.484 1.026.151 1.399-.281 1.043-1.208-.304-.793-.161-1.37.319-1.282 2.579.47 2.569-.342-.033-2.579-3.012-2.591-2.835-3.234.411-1.496 1.259.674 2.08.668 2.503-.017.347-.56 1.119-.717 1.716-.348.632.391.799.208.398-.44-.377-.611-1.459-.821-2.404-.467-1.467.549-1.528.41-.419-.955.862-1.061.95-1.813.261-2.239-.675-.417-.477-1.497.566-3.089 1.804-2.753 3.041-3.161 3.041-1.004 0 .795-.432 1.357-.959 1.25-.527-.107-1.156.344-1.398 1.001-.286.777.546 1.118 2.375.976 1.859-.144 2.819-.781 2.828-1.874.021-2.778 1.362-3.214 3.714-1.208 1.932 1.649 2.048 1.665.845.114-.767-.988-2.64-2.684-4.164-3.768l-2.769-1.972-1.589 2.269Zm211.801-.466c-.302 1.153-1.083 1.89-1.738 1.639-.654-.251-2.522 1.018-4.151 2.819L342.5 265.5l3.214-2.902c2.836-2.561 3.417-2.738 4.942-1.5 1.499 1.216 1.631 1.203.999-.098-.401-.825-.15-.614.558.47.708 1.083 2.637 3.301 4.287 4.93 1.65 1.628 2.368 2.585 1.595 2.126-.979-.582-1.175-.465-.648.388.415.672 1.362.99 2.103.705.834-.32 1.151-.003.831.831-.285.741-.029 1.649.567 2.018.597.369.852 1.047.567 1.508-.285.461.443.586 1.618.279 1.549-.405 1.995-.174 1.626.843-.28.771-1.049 1.278-1.708 1.127-.66-.151-.896.217-.525.817s.925.84 1.232.533c.307-.307 1.274.001 2.15.684 1.43 1.114 1.446 1.037.159-.759-.896-1.25-.475-1.063 1.121.5 1.405 1.375 2.354 2.849 2.109 3.275-.245.426-.075.71.379.631 1.973-.342 3.397.167 2.867 1.025a1.106 1.106 0 0 0 .372 1.516c.521.322 1.272.059 1.67-.585.483-.781.288-.901-.585-.362s-1.068.419-.585-.362c1.319-2.134 2.643-.115 1.424 2.173-.999 1.874-.957 2.017.288.99 1.184-.975 1.483-.831 1.604.772.095 1.262-.279 1.725-1.042 1.288-.654-.375-.838-.296-.41.174 1.031 1.133 3.878 1.529 3.209.446-.286-.463-.052-1.132.52-1.486.573-.354.918-.068.767.635-.151.704.175 1.3.725 1.325.55.025 2.091 1.136 3.424 2.469 1.689 1.689 1.901 2.223.698 1.761-1.067-.409-1.482-.268-1.088.37.351.568.057 1.8-.654 2.739-.711.938.401.131 2.472-1.794l3.765-3.5-3.074-2.75c-1.691-1.512-2.827-2.75-2.525-2.75.302 0-1.829-2.085-4.735-4.633-2.905-2.548-6.223-5.773-7.371-7.166-1.42-1.722-2.319-2.16-2.809-1.367-1.177 1.903-2.351 1.331-2.223-1.084.074-1.381-.391-2.144-1.204-1.975-.729.151-1.038-.19-.687-.758 1.013-1.639-1.731-3.648-4.752-3.479-2.448.137-2.999-.843-.654-1.163a45.783 45.783 0 0 0 1.606-.25c.378-.069-.32-1.064-1.552-2.212-1.232-1.148-2.869-1.846-3.638-1.551-.859.33-1.207.04-.903-.753.272-.709-.223-1.885-1.101-2.613-1.366-1.134-1.675-1.023-2.144.77Zm-58.746.404c.472.764.197.968-.794.588-1.136-.436-1.45.03-1.249 1.854.162 1.48-.202 2.329-.927 2.162-1.166-.268-1.635.334-1.635 2.101 0 .481 1.133.875 2.519.875 2.013 0 2.291-.274 1.387-1.363-.866-1.043-.764-1.504.433-1.964.861-.33 2.006-.328 2.544.005.538.332 1.304.078 1.702-.566.427-.69.292-.904-.326-.522-1.188.734-2.564-2.037-1.703-3.43.309-.501-.166-.91-1.056-.91-.981 0-1.333.461-.895 1.17ZM352 258c0 .55.477 1 1.059 1s.781-.45.441-1-.816-1-1.059-1-.441.45-.441 1Zm-81.128 3.75c-1.243 1.586-1.208 1.621.378.378.962-.755 1.75-1.543 1.75-1.75 0-.823-.821-.294-2.128 1.372ZM293 263.378c0 .207.788.995 1.75 1.75 1.586 1.243 1.621 1.208.378-.378-1.307-1.666-2.128-2.195-2.128-1.372ZM307.5 269c3.266 3.3 6.162 6 6.437 6 .275 0-2.171-2.7-5.437-6-3.266-3.3-6.162-6-6.437-6-.275 0 2.171 2.7 5.437 6Zm-41.095-2.75-1.905 2.25 2.25-1.905c2.114-1.79 2.705-2.595 1.905-2.595-.19 0-1.202 1.012-2.25 2.25Zm-126.802-.417c-.283.459.12.834.897.834s1.18-.375.897-.834c-.283-.458-.687-.833-.897-.833-.21 0-.614.375-.897.833Zm144.641-.169c-.691.279-1.014.899-.718 1.379.297.479-.84 1.585-2.526 2.457-1.686.872-2.799 2.016-2.474 2.543.326.526.817.957 1.092.957.275 0 .179-.52-.213-1.155-.446-.721-.274-.882.457-.43 1.555.961.453 2.643-1.293 1.973-.752-.288-1.707.026-2.122.698-.514.832-.307.99.648.494.773-.4.624-.088-.329.695-.954.782-1.404 1.813-1 2.291.403.477-.166.223-1.266-.566-1.1-.789-1.648-1.022-1.219-.519.43.503-.245 1.485-1.5 2.182-1.254.696-1.692 1.282-.972 1.302.72.019 1.026.492.681 1.051-.346.559-1.042.761-1.548.448-.505-.312-.658.113-.339.944.435 1.134.023 1.405-1.647 1.084-1.224-.236-1.903-.106-1.508.289.734.734 1.235.863 4.302 1.109 1.501.121 1.537.278.25 1.11-1.157.748-1.19.973-.143.985.78.008 1.117.639.794 1.483-.31.807-.064 1.777.547 2.154.611.378.846.259.522-.265-.783-1.268.877-3.851 2.494-3.879.707-.013 1.143-.845.969-1.851-.213-1.228.084-1.58.905-1.073.834.516.963.338.407-.562-.629-1.018-1.215-.822-2.582.867-1.039 1.284-2.029 1.763-2.4 1.162-.807-1.306.345-3.227 1.506-2.509.484.299 1.395-.417 2.023-1.591.821-1.534 1.449-1.83 2.227-1.052.778.778 1.457.774 2.407-.015 1.681-1.395 1.741-3.223.074-2.221-.907.545-.887.303.073-.882.728-.897 1.92-1.403 2.649-1.123.729.279 1.627.02 1.996-.576.369-.597 1.134-.798 1.701-.448.707.438.708.034.001-1.287-.567-1.059-.667-2.513-.223-3.232.859-1.39.25-5.139-.814-5.006-.348.043-1.198.307-1.889.585Zm4.335 3.086c-.762 2.403-.713 3.295.164 3 .409-.137.604-.858.433-1.6-.17-.743.165-1.057.746-.698.641.396.822.043.46-.9-.766-1.994-1.119-1.955-1.803.198Zm-113.096 10.5L164.5 290.5l11.25-10.983C186.199 269.316 187.454 268 186.733 268c-.147 0-5.209 5.063-11.25 11.25ZM156 269.378c0 .207.787.995 1.75 1.75 1.586 1.243 1.621 1.208.378-.378-1.307-1.666-2.128-2.195-2.128-1.372Zm104.872 2.372c-1.243 1.586-1.208 1.621.378.378.962-.755 1.75-1.543 1.75-1.75 0-.823-.821-.294-2.128 1.372Zm-138.269 3.083c-.283.459.12.834.897.834s1.18-.375.897-.834c-.283-.458-.687-.833-.897-.833-.21 0-.614.375-.897.833Zm200.363 8.917-5.466 5.75 5.75-5.466c5.342-5.078 6.208-6.034 5.466-6.034-.156 0-2.744 2.587-5.75 5.75Zm-204.547-3.399c-.346.901-.98 1.42-1.41 1.154-.431-.266-1.276.112-1.88.839-.826.995-.731 1.323.383 1.323 1.776 0 5.075-3.413 4.172-4.316-.35-.351-.92.1-1.265 1ZM375 279.378c0 .207.788.995 1.75 1.75 1.586 1.243 1.621 1.208.378-.378-1.307-1.666-2.128-2.195-2.128-1.372Zm-252.75 1.369c1.27.71.828 2.22-.5 1.711-.795-.306-1.25.432-1.25 2.025v2.506l1.613-2.139c.887-1.175 2.077-1.851 2.645-1.5.568.351 1.262.041 1.542-.689s-.01-1.349-.645-1.375c-.635-.026-1.83-.253-2.655-.503-.825-.25-1.162-.266-.75-.036Zm142.395 4.771c.385 1.004.109 1.46-.772 1.273-.755-.16-1.26.272-1.123.959.137.688-.29 1.25-.95 1.25-.933 0-.933.267 0 1.2.66.66 1.193 1.673 1.185 2.25-.01.639-.304.596-.753-.109-.415-.652-1.933-.93-3.473-.635-1.505.287-2.489.921-2.188 1.408.301.487.07.886-.512.886-.582 0-1.059.48-1.059 1.067s.824.806 1.832.486c2.311-.733 5.955 2.842 4.079 4.002-.759.469-.962.337-.538-.35.376-.608-.23-1.593-1.345-2.19-2.834-1.517-2.529.166.554 3.061 1.662 1.56 2.464 1.889 2.25.924-.184-.83.259-1.377.992-1.225.729.151 1.04-.187.691-.75-.866-1.401.812-1.298 2.248.138.885.885 1.053.554.703-1.379-.276-1.519.137-3.04 1.025-3.777.818-.678 1.228-1.652.912-2.164-.316-.512-.112-1.488.454-2.17 1.242-1.497.403-2.973-2.584-4.546-1.892-.996-2.138-.938-1.628.391Zm1.355 4.565c0 .963-.562 1.977-1.25 2.255-.923.372-.891.525.122.583 1.123.065 1.14.359.093 1.621-1.006 1.212-1.019 1.802-.063 2.75.952.946 1.085.863.612-.382-.333-.874.086-2.163.929-2.863.844-.701 1.276-1.692.96-2.204-.316-.512-.094-1.511.495-2.22.792-.954.684-1.29-.414-1.29-.816 0-1.484.788-1.484 1.75Zm-120.563 3.167-2.937 3.25 3.25-2.937c1.787-1.615 3.25-3.078 3.25-3.25 0-.773-.825-.092-3.563 2.937ZM297.5 293c-.34.55-.141 1 .441 1s1.059-.45 1.059-1-.198-1-.441-1-.719.45-1.059 1Zm-178.887 1.183c.289.467.944.591 1.456.274 1.308-.808 1.161-1.124-.525-1.124-.801 0-1.22.383-.931.85Zm38.259 3.567c-1.243 1.586-1.208 1.621.378.378 1.666-1.307 2.195-2.128 1.372-2.128-.207 0-.995.788-1.75 1.75Zm-17 1c-1.243 1.586-1.208 1.621.378.378.963-.755 1.75-1.543 1.75-1.75 0-.823-.821-.294-2.128 1.372Zm168 0c-1.243 1.586-1.208 1.621.378.378 1.666-1.307 2.195-2.128 1.372-2.128-.207 0-.995.788-1.75 1.75Zm-5 5c-1.243 1.586-1.208 1.621.378.378 1.666-1.307 2.195-2.128 1.372-2.128-.207 0-.995.788-1.75 1.75Zm-171.806 4.318c-2.279 2.835-3.769 3.878-4.918 3.441-1.304-.497-1.392-.37-.422.608 1.385 1.395 3.945-.45 7.45-5.367 2.955-4.146 1.601-3.3-2.11 1.318Zm70.684-.406c.688.278 1.813.278 2.5 0 .688-.277.125-.504-1.25-.504s-1.937.227-1.25.504Zm79.655 1.588-1.905 2.25 2.25-1.905c2.114-1.79 2.705-2.595 1.905-2.595-.19 0-1.202 1.012-2.25 2.25Zm-88 3-1.905 2.25 2.25-1.905c1.238-1.048 2.25-2.06 2.25-2.25 0-.8-.805-.209-2.595 1.905Zm164.032 6-2.937 3.25 3.25-2.937c1.788-1.615 3.25-3.078 3.25-3.25 0-.773-.825-.092-3.563 2.937Zm-170.032 0-1.905 2.25 2.25-1.905c1.238-1.048 2.25-2.06 2.25-2.25 0-.8-.805-.209-2.595 1.905Zm-5.481 5.5-2.424 2.75 2.75-2.424c2.57-2.266 3.209-3.076 2.424-3.076-.179 0-1.416 1.238-2.75 2.75Zm21.738-1.956c-.222.388-.267 1.552-.102 2.587.222 1.385.007 1.586-.816.763-.822-.822-1.595-.684-2.93.525-.998.902-1.814 2.071-1.814 2.597 0 .525.927-.107 2.059-1.405l2.06-2.361-1.583 2.61c-1.113 1.835-2.297 2.531-3.991 2.345-1.72-.188-2.255.138-1.87 1.141.296.772.041 1.46-.568 1.529-1.147.13-2.562.448-3.857.868-.412.134-1.121.179-1.574.101-.454-.079-.535.325-.181.898.354.572 1.035.799 1.514.503.478-.296.803.356.72 1.448-.142 1.892-.246 1.905-2.172.272-1.927-1.634-1.957-1.63-.626.085 1.202 1.549 1.188 2.01-.1 3.298-1.33 1.33-1.498 1.329-1.498-.006 0-.827.445-1.229.988-.894.558.345.673.101.264-.56-.884-1.431-2.585-.535-2.585 1.362 0 .76-.52 1.703-1.155 2.095-.773.479-.89.251-.353-.69.636-1.115.532-1.156-.503-.197-1.027.951-1.047 1.518-.091 2.669.978 1.178.917 1.419-.313 1.238-.84-.123-1.878-.609-2.306-1.08-.429-.471-.147-.489.626-.041.952.553 1.171.438.68-.356-1.06-1.715-2.603-.367-1.882 1.644.339.945.248 1.384-.202.977-1.269-1.152-3.455 1.197-2.772 2.978.402 1.048.215 1.347-.548.875-.768-.475-.948-.168-.534.911.453 1.18.135 1.538-1.157 1.302-.981-.179-2 .3-2.266 1.064-.295.847-.042 1.117.646.691.683-.422 1.13.028 1.13 1.138 0 1.01 3.262 4.974 7.25 8.809l7.25 6.973-6.25-6.527c-5.548-5.794-7.911-9.118-5.363-7.543.488.302.825-.234.75-1.191-.093-1.177.547-1.704 1.978-1.63 1.365.07 2.075-.463 2-1.5-.063-.885.431-1.502 1.099-1.371.736.144.972-.394.598-1.366-.528-1.377-.299-1.436 1.612-.413 2.074 1.11 2.15 1.048 1.106-.902-.96-1.795-.633-2.611 2.286-5.705 2.494-2.644 3.619-3.267 4.2-2.327.553.896.397 1.039-.516.475-.921-.569-1.069-.421-.5.5s.421 1.069-.5.5-1.069-.421-.5.5.421 1.069-.5.5c-.891-.551-1.068-.42-.555.411.573.926 1.169.843 2.485-.348.953-.862 2.076-1.229 2.497-.815.42.414-.055-.973-1.057-3.082-1.782-3.754-1.779-3.859.155-5 1.086-.641 3.286-1.166 4.888-1.166 1.739 0 3.08-.604 3.326-1.5.367-1.333.295-1.333-.648 0-.583.825-1.067.993-1.076.372-.008-.62.685-1.708 1.541-2.419.856-.71 1.478-.878 1.382-.372-.425 2.233.225 3.019 2.497 3.019 1.34 0 2.209-.367 1.931-.816a.97.97 0 0 0-1.33-.306c-.983.607-2.165-2.016-1.298-2.882.33-.33 1.424.145 2.431 1.057 1.095.991 1.831 1.192 1.831.502 0-.635-.478-1.155-1.063-1.155-.584 0-.983-.788-.885-1.75.098-.962.126-2.264.063-2.893-.136-1.348-2.871-2.586-3.453-1.563Zm4.588 2.727c0 1.843.262 2.268.831 1.347.639-1.033 1.654-.548 4.375 2.09 1.949 1.889 3.544 3.215 3.544 2.946 0-.268-1.969-2.42-4.375-4.781-4.353-4.273-4.375-4.281-4.375-1.602Zm-31.845 4.729-1.905 2.25 2.25-1.905c1.238-1.048 2.25-2.06 2.25-2.25 0-.8-.805-.209-2.595 1.905Zm88.579 11.5L253.5 352.5l11.75-11.484C276.164 330.35 277.454 329 276.734 329c-.147 0-5.434 5.288-11.75 11.75Zm100.147-9.506c.962 1.799.846 1.983-.953 1.513-1.262-.33-2.263.022-2.606.917-.307.799-.961 1.204-1.454.899-.492-.304-2.1 1.026-3.572 2.955-1.472 1.93-3.004 3.307-3.404 3.06-.4-.247-.793.429-.874 1.503-.081 1.074.186 1.747.592 1.495.407-.251 1.321.474 2.032 1.612 1.273 2.038 1.247 2.037-1.73-.083-3.115-2.218-4.111-1.905-3.62 1.14.155.965-.128 1.501-.63 1.191-.502-.31-.912-.073-.912.527s1.012 1.475 2.25 1.943c1.684.637 2.705.372 4.06-1.054.995-1.049 2.277-1.617 2.849-1.263.589.364.505-.386-.195-1.728l-1.235-2.371 2.794 2.5 2.794 2.5-2.338-3.238c-1.285-1.78-2.061-3.513-1.724-3.85 1.022-1.022 2.828.642 2.069 1.907-.484.807-.217.783.844-.075.989-.801 1.369-2.216 1.047-3.899-.319-1.668-.125-2.407.527-2.005 1.263.781 3.534-1.731 2.499-2.765-.407-.408-.291-.651.259-.54 2.398.484 3.402-.126 2.799-1.699-.464-1.208-.276-1.44.686-.846.826.511 1.084.43.685-.215-.351-.568-1.538-1.269-2.637-1.556-1.746-.457-1.86-.264-.902 1.525Zm-171.106 3.226c-1.027 1.237-.956 1.986.38 4.025.903 1.378 2.081 2.505 2.618 2.505 1.275 0 1.266-2.703-.012-3.493-.587-.363-.73.12-.352 1.191.475 1.347.337 1.529-.545.719-1.464-1.344-.343-4.68 1.241-3.689 2.464 1.54 3.658 1.164 2.597-.818-1.281-2.393-2.103-2.498-1.251-.16.602 1.65.522 1.649-1.388-.025-1.802-1.579-2.166-1.607-3.288-.255Zm7.578-.637c-.283.459.12.834.897.834s1.18-.375.897-.834c-.283-.458-.687-.833-.897-.833-.21 0-.614.375-.897.833ZM372.5 335c.995 1.1 2.035 2 2.31 2 .275 0-.315-.9-1.31-2-.995-1.1-2.035-2-2.31-2-.275 0 .315.9 1.31 2Zm-11.01.016c-.346.559-.998.788-1.45.509-.452-.279-1.496.521-2.32 1.779-1.384 2.113-1.347 2.298.477 2.436 1.31.099 1.794-.32 1.44-1.245-.312-.812.277-1.65 1.414-2.011 1.072-.34 1.949-1.038 1.949-1.551 0-1.227-.725-1.187-1.51.083Zm15.51 4.297c0 .172 1.462 1.635 3.25 3.25l3.25 2.937-2.937-3.25c-2.738-3.029-3.563-3.71-3.563-2.937ZM187.954 343.5c-.059.55-.261 1.813-.45 2.806-.292 1.537-.11 1.611 1.23.5.865-.718 1.767-1.156 2.003-.973.236.184.73-.001 1.096-.41.367-.409.132-.437-.522-.062-.653.374-1.652-.116-2.219-1.09-.567-.974-1.079-1.321-1.138-.771Zm-10.589 3.719c-.266.429.867.781 2.517.781s3.284-.46 3.631-1.021c.389-.629-.578-.93-2.517-.782-1.731.132-3.365.592-3.631 1.022Zm168.371.379c-.329.329-.32 1.341.02 2.25.526 1.406.38 1.458-.987.348-1.395-1.134-1.571-.997-1.346 1.049.187 1.706-.271 2.393-1.662 2.498-2.654.2-4.291 1.744-6.651 6.27-1.961 3.763-1.967 3.942-.194 6.131l1.826 2.256 1.622-3.137c.892-1.725 1.38-3.766 1.085-4.536-.591-1.54 2.922-1.748 4.281-.254.423.466.239.543-.411.171-.649-.372-1.439-.259-1.755.252-.315.511.116.827.959.704.842-.124 1.587-.647 1.655-1.163.167-1.265 3.128-3.366 3.992-2.832.38.235.95.01 1.266-.501.676-1.094-1.354-.911-3.29.297-.883.552-.756-.066.365-1.778 1.512-2.308 3.422-3.942 2.092-1.79-.283.459.097.834.846.834.797 0 1.123-.62.786-1.498-.405-1.054-.183-1.255.75-.679.854.529 1.084.431.648-.274-.371-.601-1.54-.927-2.596-.723-1.338.258-1.755-.065-1.372-1.062.302-.787.024-1.431-.617-1.431s-.888-.45-.548-1c.677-1.095.187-1.353-.764-.402Zm5.902.902c.317.825.705 1.5.862 1.5.157 0 .545-.675.862-1.5.347-.905.005-1.5-.862-1.5s-1.209.595-.862 1.5Zm-194.443 3c.02 1.65.244 2.204.498 1.231.254-.973.237-2.323-.037-3-.274-.677-.481.119-.461 1.769Zm21.443-1c.317.825.698 1.5.847 1.5.148 0 .83-.675 1.515-1.5 1.039-1.252.899-1.5-.846-1.5-1.448 0-1.914.461-1.516 1.5Zm57.862 1.892c-4.069 4.841-4.548 5.759-1.51 2.89 1.874-1.77 3.206-3.412 2.959-3.649-.247-.237-.899.104-1.449.759Zm-58.5 1.863c0 .275.635 1.027 1.411 1.671 1.087.902 1.583.873 2.16-.127.412-.715.381-.965-.069-.558-.45.408-1.422.24-2.16-.372-.738-.613-1.342-.889-1.342-.614Zm160.507 1.734c-.35.566.051.734.941.393 1.732-.665 2.049-1.382.611-1.382-.518 0-1.216.445-1.552.989ZM157.75 357.85c-.356 1.359-.111 1.842.762 1.507.707-.271 1.626.057 2.041.729.466.754.34.966-.329.552-.597-.369-1.411-.144-1.809.5-.485.785-.287.901.6.352.95-.586 1.152-.368.714.773-.335.875.084 2.166.931 2.87 1.82 1.51 4.595 2.089 3.793.791-.306-.496.139-.634.989-.308.851.327 1.258 1.109.906 1.739-.479.856-.33.858.591.009.958-.882.127-2.297-3.716-6.326-4.335-4.544-5.015-4.941-5.473-3.188Zm178.324 2.561c-.834 1.005-.858 1.605-.082 2.084.599.37.827 1.648.507 2.839-.502 1.868-.38 1.822.89-.334 1.298-2.204 1.296-2.539-.012-2.834-1.161-.261-1.228-.64-.308-1.75.647-.779.951-1.416.676-1.416-.275 0-1.027.635-1.671 1.411Zm-175.41 2.022c-.3.781.103 1.959.895 2.616 1.022.848 1.441.87 1.441.073 0-.617-.562-1.129-1.25-1.137-.92-.012-.892-.243.107-.875.834-.529.971-1.098.355-1.479-.552-.341-1.248.02-1.548.802Zm167.312 2.612c-.791 1.478-.574 2.1 1.032 2.959 1.118.599 2.469.819 3.001.49.547-.338.705.088.363.98-.473 1.232-.913 1.322-2.012.41-1.122-.931-1.285-.851-.806.397.745 1.939 3.082 2.943 3.199 1.374.048-.635.322-2.167.609-3.405.288-1.238.099-2.25-.419-2.25-.519 0-.83-.503-.693-1.117.433-1.936-3.225-1.798-4.274.162Zm1.637.138c.289.467.944.591 1.456.274 1.308-.808 1.161-1.124-.525-1.124-.801 0-1.22.383-.931.85ZM213.479 376.25l-8.979 9.25 9.25-8.979c5.088-4.939 9.25-9.101 9.25-9.25 0-.726-1.181.388-9.521 8.979ZM197 379.5c2.987 3.025 5.657 5.5 5.932 5.5.275 0-1.945-2.475-4.932-5.5s-5.657-5.5-5.932-5.5c-.275 0 1.945 2.475 4.932 5.5Zm-44.076 2.25-2.424 2.75 2.75-2.424c2.57-2.266 3.209-3.076 2.424-3.076-.179 0-1.416 1.238-2.75 2.75Zm141.481-.5-1.905 2.25 2.25-1.905c1.238-1.048 2.25-2.06 2.25-2.25 0-.8-.805-.209-2.595 1.905Zm-4.533 4.5c-1.243 1.586-1.208 1.621.378.378 1.666-1.307 2.195-2.128 1.372-2.128-.207 0-.995.788-1.75 1.75Zm-157.11 3.957c1.244.239 3.044.23 4-.02s-.062-.446-2.262-.435c-2.2.011-2.982.216-1.738.455Zm225 0c1.244.239 3.044.23 4-.02s-.062-.446-2.262-.435c-2.2.011-2.982.216-1.738.455Zm-80.3 8.543-4.962 5.25 5.25-4.962c2.887-2.73 5.25-5.092 5.25-5.25 0-.747-.926.084-5.538 4.962Z" fill="#000"/>
    <path d="M246.813 79.683c.721.29 1.584.253 1.916-.08.332-.331-.258-.567-1.312-.524-1.165.048-1.402.285-.604.604Zm27.382 23.817c.02 1.65.244 2.204.498 1.231.254-.973.237-2.323-.037-3-.274-.677-.481.119-.461 1.769Zm6.467 14.486c-4.265 4.316-6.559 7.372-6.096 8.121.478.773.32.94-.442.47-1.253-.775-20.533 17.348-19.526 18.354.304.304 1.005-.256 1.558-1.245.845-1.511 1.262-1.589 2.617-.491 1.196.969 1.418.983.86.055-.679-1.131.434-1.713 2.617-1.368.412.065.697-.22.632-.632-.423-2.676.156-3.463 1.641-2.231 1.287 1.068 1.416.985.83-.542-.457-1.19-.318-1.573.408-1.125.605.374 1.364.254 1.686-.267.322-.521.059-1.272-.585-1.67-.794-.491-.909-.272-.356.68.448.773.458 1.083.023.69-.436-.393-1.745-.25-2.91.317-1.708.832-1.638.645.357-.96 1.362-1.095 2.916-1.913 3.454-1.817.539.096 1-.35 1.025-.992.025-.641.455-1.541.955-2 .524-.479.623-.331.234.348-.805 1.406.955 2.777 1.803 1.404.322-.521.121-1.234-.447-1.585-.568-.351-.76-1.079-.427-1.618.374-.605 1.217-.483 2.208.319 1.321 1.071 1.462 1.066.803-.031-.724-1.202 2.378-4.384 4.666-4.788.413-.072 1.03-.188 1.372-.257.343-.069.005-.884-.75-1.812-1.199-1.475-1.155-1.606.346-1.044.945.354 1.988.206 2.319-.329.331-.535 1.015-.717 1.521-.404.505.312.646-.144.312-1.013-.538-1.404-.768-1.382-2.043.198-1.303 1.613-1.333 1.563-.312-.536.959-1.975 1.371-2.126 2.805-1.033.924.705 1.342.883.928.396-.414-.487.036-1.757 1-2.822.964-1.065 1.639-2.114 1.502-2.331-.728-1.151-.092-2.416.905-1.8.715.443.883.275.44-.44-.392-.635-.799-1.14-.904-1.122-.105.018-3.268 3.147-7.029 6.953Zm-13.79-1.236c-1.243 1.586-1.208 1.621.378.378 1.666-1.307 2.195-2.128 1.372-2.128-.207 0-.995.787-1.75 1.75Zm-154 3c-1.243 1.586-1.208 1.621.378.378 1.666-1.307 2.195-2.128 1.372-2.128-.207 0-.995.787-1.75 1.75ZM379 118.378c0 .207.788.995 1.75 1.75 1.586 1.243 1.621 1.208.378-.378-1.307-1.666-2.128-2.195-2.128-1.372Zm-75 9.122c2.987 3.025 5.657 5.5 5.932 5.5.275 0-1.945-2.475-4.932-5.5s-5.657-5.5-5.932-5.5c-.275 0 1.945 2.475 4.932 5.5Zm-28.128-2.75c-1.214 1.548-1.189 1.607.22.509.876-.683 1.96-.908 2.41-.5.45.407.495.179.099-.509-.929-1.616-1.093-1.586-2.729.5ZM105.232 140c0 1.925.206 2.713.457 1.75.252-.963.252-2.537 0-3.5-.251-.963-.457-.175-.457 1.75Zm282.963-.5c.02 1.65.244 2.204.498 1.231.254-.973.237-2.323-.037-3-.274-.677-.481.119-.461 1.769Zm-243.21 17.25L132.5 169.5l12.75-12.485C157.093 145.418 158.453 144 157.735 144c-.146 0-5.883 5.738-12.75 12.75Zm116.618-11.917c-.283.459.12.834.897.834s1.18-.375.897-.834c-.283-.458-.687-.833-.897-.833-.21 0-.614.375-.897.833Zm-4.538 1.589c-.687.828-.78 1.636-.227 1.978.515.318 1.458-.052 2.097-.822.687-.828.78-1.636.227-1.978-.515-.318-1.458.052-2.097.822Zm46.748 5.261c.721.289 1.584.253 1.916-.079.332-.332-.258-.568-1.312-.525-1.165.048-1.402.285-.604.604Zm-75.941 3.067c-1.243 1.586-1.208 1.621.378.378 1.666-1.307 2.195-2.128 1.372-2.128-.207 0-.995.787-1.75 1.75Zm153 4c-1.243 1.586-1.208 1.621.378.378.962-.755 1.75-1.543 1.75-1.75 0-.823-.821-.294-2.128 1.372ZM115 161.5c1.866 1.925 3.617 3.5 3.892 3.5.275 0-1.026-1.575-2.892-3.5-1.866-1.925-3.617-3.5-3.892-3.5-.275 0 1.026 1.575 2.892 3.5Zm105.453.75-3.953 4.25 4.25-3.953c2.338-2.174 4.25-4.087 4.25-4.25 0-.757-.871.001-4.547 3.953Zm-71.581 4.5c-1.243 1.586-1.208 1.621.378.378 1.666-1.307 2.195-2.128 1.372-2.128-.207 0-.995.787-1.75 1.75Zm-12.89 13L125.5 190.5l10.75-10.482c9.985-9.736 11.204-11.018 10.482-11.018-.147 0-4.985 4.838-10.75 10.75ZM368 170.583c-1.681.933-1.967 1.392-.872 1.402.895.008 2.187-.66 2.872-1.485 1.46-1.76 1.31-1.753-2 .083Zm-5.187 1.1c.721.289 1.584.253 1.916-.079.332-.332-.258-.568-1.312-.525-1.165.048-1.402.285-.604.604ZM332 200.5c-15.668 15.675-28.262 28.5-27.987 28.5.275 0 13.319-12.825 28.987-28.5 15.668-15.675 28.262-28.5 27.987-28.5-.275 0-13.319 12.825-28.987 28.5Zm-122.136-12.789c-4.208 4.014-5.844 6.259-5.504 7.557.36 1.378.169 1.586-.754.82-.905-.751-2.615.371-6.39 4.193-2.835 2.871-5.13 5.594-5.102 6.052.029.459-.21 1.096-.531 1.417-.32.321-.583.006-.583-.699 0-.706-2.347 1.04-5.216 3.879-4.304 4.259-5.028 5.459-4.141 6.866 1.511 2.396 2.594 2.12 3.036-.775.208-1.363.842-2.938 1.409-3.5.704-.697.905-.546.635.479-.217.825-.2 1.144.038.708.238-.435.99-.33 1.67.234.884.734 1.236.616 1.236-.414 0-.792-.434-1.172-.963-.845-.53.328-.736-.03-.459-.794.278-.764 1.011-1.277 1.63-1.139.619.137 1.012-.256.875-.875-.138-.619.375-1.352 1.139-1.63.966-.351 1.136-.084.558.875-.705 1.171-.575 1.172.861.008 1.832-1.486 2.32-2.634.692-1.628-.55.34-1 .19-1-.334 0-1.023 2.968-2.602 4.324-2.3.454.101.592-.193.308-.653-.531-.859 5.94-8.713 7.179-8.713.379 0 .576-.338.439-.75-.239-.717 1.327-1.147 3.074-.844.454.079.535-.325.181-.898-.354-.572-1.175-.742-1.824-.378-.877.493-.893.351-.062-.553.616-.668 1.866-1.325 2.778-1.459.912-.134 1.697-.665 1.744-1.181.048-.515 1.423-2.624 3.057-4.687 4.271-5.392 2.567-4.622-4.334 1.961ZM275 184c.825.533 1.107.976.628.985-.48.008-.325.676.345 1.483.671.807 1.718 1.37 2.327 1.25.61-.12 1.186.345 1.28 1.032.093.688.28 1.588.413 2 .134.412.191 1.088.125 1.5-.065.412.445.637 1.132.5.688-.137 1.1.425.917 1.25-.184.825 0 1.166.408.759.407-.408 1.345-.24 2.083.372.738.613 1.349.721 1.357.241.009-.479.442-.197.964.628.521.825 1.489 1.5 2.151 1.5.662 0 1.412.625 1.666 1.389.318.954.031 1.135-.916.578-.759-.446-.532.156.504 1.338 1.036 1.181 2.232 1.933 2.657 1.669.426-.263 3.053 1.323 5.837 3.524 7.958 6.291 6.889 4.71-2.637-3.896-4.807-4.344-11.201-10.419-14.207-13.5-3.006-3.081-6.156-5.595-7-5.587-1.355.014-1.359.129-.034.985Zm-4.128 1.75c-1.243 1.586-1.208 1.621.378.378.962-.755 1.75-1.543 1.75-1.75 0-.823-.821-.294-2.128 1.372Zm91.453-.092c.362.362.196 1.215-.369 1.895-.564.68-.898 1.832-.741 2.56.186.863-.682 1.295-2.496 1.241-3.088-.092-2.826.936.298 1.166 1.087.08 2.765-.757 3.729-1.859.975-1.114 1.141-1.644.374-1.194-.953.56-1.223.382-.875-.578.278-.764.995-1.282 1.594-1.151.599.131.832-.432.518-1.25-.314-.818-1.048-1.488-1.631-1.488-.582 0-.763.296-.401.658ZM280 189.313c0 .172 1.462 1.635 3.25 3.25l3.25 2.937-2.937-3.25c-2.738-3.029-3.563-3.71-3.563-2.937Zm-48.612 6.356c4.048 4.24 5.693 6.679 5.262 7.802-.366.954-.216 1.379.361 1.022 1.993-1.232.855-3.184-5.261-9.024l-6.25-5.969 5.888 6.169ZM376.5 198c4.374 4.4 8.178 8 8.453 8 .275 0-3.079-3.6-7.453-8-4.374-4.4-8.178-8-8.453-8-.275 0 3.079 3.6 7.453 8Zm-24.426-2.589c-.902 1.087-.873 1.597.127 2.222 3.275 2.044 5.971.484 3.763-2.177-1.514-1.824-2.405-1.835-3.89-.045Zm1.005 1.256c.053 1.233.256 1.387.621.47.458-1.151.691-1.151 1.497 0 .79 1.127.888 1.114.567-.074-.587-2.171-2.775-2.494-2.685-.396Zm5.464.264c-.317.512-.193 1.167.274 1.456.467.289.85-.13.85-.931 0-1.686-.316-1.833-1.124-.525Zm-10.89 2.9c-.912 1.007-1.356 2.132-.989 2.5.368.368-.081.669-.997.669-.917 0-1.667.675-1.667 1.5v2c0 .275.337.5.75.5s.75-.562.75-1.25c0-.687.675-1.26 1.5-1.272.897-.014 1.373-.758 1.183-1.851-.177-1.021.124-1.556.681-1.211.549.339 1.285.152 1.636-.416s1.17-.714 1.819-.324c.673.403.59-.02-.191-.984-1.741-2.146-2.427-2.124-4.475.139Zm-94.781 2.919c-1.243 1.586-1.208 1.621.378.378.963-.755 1.75-1.543 1.75-1.75 0-.823-.821-.294-2.128 1.372Zm-57.467 1.5-1.905 2.25 2.25-1.905c2.114-1.79 2.705-2.595 1.905-2.595-.19 0-1.202 1.012-2.25 2.25Zm49.561 6.5-5.466 5.75 5.75-5.466c3.162-3.006 5.75-5.594 5.75-5.75 0-.742-.956.124-6.034 5.466Zm94.813-2.012c-.345 1.319-.002 1.871 1.111 1.789.886-.066 1.723-.436 1.86-.823.137-.387-.037-.666-.388-.619-.351.047-.964-.441-1.361-1.084-.483-.781-.889-.537-1.222.737Zm-170.833 4.012-3.446 3.75 3.75-3.446c3.49-3.208 4.21-4.054 3.446-4.054-.167 0-1.854 1.688-3.75 3.75ZM187 211.059c0 .582.45.781 1 .441s1-.816 1-1.059-.45-.441-1-.441-1 .477-1 1.059Zm149.337.191c-1.178 1.886-1.291 3.84-.183 3.155.539-.333.728-.856.421-1.163-.307-.307-.056-1.162.556-1.9.613-.738.86-1.342.55-1.342-.309 0-.914.563-1.344 1.25Zm1.996 2.401c0 .984.337 1.038 1.334.211.733-.609 1.333-1.202 1.333-1.318 0-.116-.6-.211-1.333-.211a1.331 1.331 0 0 0-1.334 1.318Zm-6.301 1.81c-.724.873-1.006 1.898-.627 2.278 1.242 1.242 5.262.968 5.262-.358 0-.711-.348-1.078-.772-.816-.425.262-1.171-.236-1.659-1.107-.808-1.445-1.002-1.445-2.204.003Zm-149.586.626c-.369.598-.266 1.493.229 1.988.535.535.962.093 1.051-1.087.167-2.22-.273-2.53-1.28-.901Zm-85.574 1.663c-1.243 1.586-1.208 1.621.378.378 1.666-1.307 2.195-2.128 1.372-2.128-.207 0-.995.787-1.75 1.75ZM332 216.393c0 .216.698.661 1.552.989.89.341 1.291.173.941-.393-.587-.951-2.493-1.406-2.493-.596ZM88.469 226.25 82.5 232.5l6.25-5.969c3.438-3.282 6.25-6.095 6.25-6.25 0-.739-.987.163-6.531 5.969ZM181 222.5c1.292 1.375 2.574 2.5 2.849 2.5.275 0-.557-1.125-1.849-2.5-1.292-1.375-2.574-2.5-2.849-2.5-.275 0 .557 1.125 1.849 2.5Zm228.5 7.5c2.148 2.2 4.131 4 4.406 4 .275 0-1.258-1.8-3.406-4s-4.131-4-4.406-4c-.275 0 1.258 1.8 3.406 4Zm-119.515 12.75L277.5 255.5l12.75-12.485C302.093 231.418 303.453 230 302.735 230c-.146 0-5.883 5.738-12.75 12.75ZM194 236.378c0 .207.787.995 1.75 1.75 1.586 1.243 1.621 1.208.378-.378-1.307-1.666-2.128-2.195-2.128-1.372ZM134 246.5c-2.429 2.475-4.191 4.5-3.916 4.5.275 0 2.487-2.025 4.916-4.5 2.429-2.475 4.191-4.5 3.916-4.5-.275 0-2.487 2.025-4.916 4.5Zm63.469 10.75-5.969 6.25 6.25-5.969c3.438-3.282 6.25-6.095 6.25-6.25 0-.739-.987.163-6.531 5.969Zm-76.992 3-7.977 8.25 8.25-7.977c7.662-7.408 8.706-8.523 7.977-8.523-.151 0-3.863 3.713-8.25 8.25Zm18.148-3.17c-1.454 1.144-2.444 2.403-2.201 2.798.244.395.031 1.371-.475 2.17-.767 1.213-.921 1.22-.934.047-.011-1.074-.486-.979-2.015.405-1.1.995-2 2.415-2 3.155 0 .74-.409 1.232-.908 1.095-.5-.137-3.661 2.398-7.025 5.635-4.898 4.712-5.983 6.304-5.447 7.992.566 1.783.439 1.917-.824.869-2.089-1.734-5.834 2.121-3.913 4.028.978.97 1.103.877.599-.447-.469-1.232-.156-1.594 1.191-1.375 1.005.164 2.614-.39 3.577-1.232 1.945-1.7 2.408-3.745.595-2.625-.692.428-.883.276-.478-.379.371-.601 1.556-.923 2.633-.716 1.077.207 2.226-.056 2.553-.586.328-.53.225-.899-.229-.82-1.979.343-3.396-.168-2.862-1.033.319-.516 1.511-.759 2.648-.54 1.636.315 1.835.118.953-.944-.844-1.018-.732-1.49.463-1.949.868-.333 1.334-.211 1.037.27-.298.482.242 1.489 1.198 2.239 1.584 1.242 1.613 1.203.326-.436-1.294-1.647-1.194-1.759 1.189-1.327 2.066.374 2.476.144 1.993-1.115-.45-1.174-.239-1.364.811-.731 1.209.729 1.218.606.057-.825-.75-.925-1.832-1.391-2.405-1.037-.604.373-.742.159-.327-.511.392-.635 1.313-1.155 2.047-1.155.734 0 1.604-.704 1.934-1.563.336-.875 1.111-1.248 1.761-.846.723.446.892.281.448-.436-.952-1.541.66-1.476 2.352.095.79.734 1.084.78.711.113-.65-1.162 1.627-3.744 2.517-2.854.271.27.492-.184.492-1.009 0-2.025-1.337-1.896-2.587.25-.561.962-1.019 1.3-1.018.75.003-1.661 2.583-4.521 3.37-3.734.404.403.644.284.533-.266-.45-2.231.125-2.674 1.785-1.372 1.586 1.243 1.621 1.208.378-.378-1.681-2.143-1.325-2.169-4.503.33Zm213.846-.33c.162.962.853 1.619 1.535 1.459.735-.172 1.007.316.668 1.199-.381.991-.104 1.311.825.954.769-.295 2.406.403 3.638 1.551 1.232 1.148 1.93 2.143 1.552 2.212-.379.069-1.102.181-1.606.25-2.15.293-1.808 1.225.45 1.225 3.604 0 3.04-1.817-2.011-6.473-5.037-4.643-5.466-4.845-5.051-2.377Zm-78.066 1.5-1.905 2.25 2.25-1.905c2.114-1.79 2.705-2.595 1.905-2.595-.19 0-1.202 1.012-2.25 2.25Zm19.351-1.586c.691.279.959.988.596 1.576-.394.637-.188.777.51.345 1.377-.85.55-2.62-1.171-2.506-.852.056-.834.223.065.585Zm-11.545 9.693c-5.109 5.029-9.834 9.658-10.5 10.287-.666.629-4.278 4.326-8.026 8.215-6.607 6.854-6.724 7.064-3.838 6.856 2.256-.163 2.727-.518 1.943-1.465-.976-1.179.049-1.749 2.46-1.368.412.065.697-.219.632-.632-.387-2.446.325-3.252 2.521-2.853 2.038.369 2.363.073 2.14-1.953-.144-1.314.094-2.168.528-1.9.435.269 1.073.031 1.419-.528.345-.559.039-1.032-.681-1.051-.72-.02-.19-.655 1.178-1.413 1.369-.757 2.944-1.119 3.5-.804.557.315.682.207.279-.239-.404-.446.046-1.452 1-2.234.953-.783 1.102-1.095.329-.695-.955.496-1.162.338-.648-.494.415-.672 1.341-.998 2.056-.723 1.955.75 2.643-.477 1.238-2.208-1.044-1.287-.955-1.422.561-.854.991.372 1.556.278 1.256-.208-.301-.486.154-1.152 1.011-1.481.884-.339 1.243-1.107.83-1.775-.486-.787-.193-.972.886-.558 1.208.464 1.453.193.977-1.08-.554-1.479-.419-1.522 1.04-.336.922.75 1.386 1.832 1.032 2.405-.374.605-.159.742.514.326.791-.489.851-1.287.19-2.523-1.159-2.166-.426-3.157 1.724-2.332.98.376 1.314.193.893-.488-.37-.6.009-1.772.843-2.607.835-.834 1.176-1.722.76-1.973-.417-.252-4.938 3.657-10.047 8.686ZM299 260.5c1.292 1.375 2.574 2.5 2.849 2.5.275 0-.557-1.125-1.849-2.5-1.292-1.375-2.574-2.5-2.849-2.5-.275 0 .557 1.125 1.849 2.5Zm-149 2.813c0 .172 1.463 1.635 3.25 3.25l3.25 2.937-2.937-3.25c-2.738-3.029-3.563-3.71-3.563-2.937Zm37.872 3.437c-1.243 1.586-1.208 1.621.378.378 1.666-1.307 2.195-2.128 1.372-2.128-.207 0-.995.788-1.75 1.75Zm145.59 6.5-4.962 5.25 5.25-4.962c2.887-2.73 5.25-5.092 5.25-5.25 0-.747-.926.084-5.538 4.962Zm31.023-4.225c-.349.563-.038.901.691.75.821-.171 1.277.602 1.199 2.034-.079 1.472.33 2.134 1.129 1.828.689-.264 1.757.024 2.374.641.617.617 1.122.823 1.122.458 0-.366 1.042.332 2.315 1.55 1.272 1.218 2.177 2.501 2.011 2.851-.167.35.366 1.192 1.185 1.872.819.68 1.489.877 1.489.439s1.238.284 2.75 1.605.088-.376-3.164-3.771c-3.253-3.395-6.246-6.085-6.65-5.977-.405.107-.813-.255-.907-.805-.228-1.331-3.133-4.5-4.125-4.5-.432 0-1.071.461-1.419 1.025ZM126 270.44c0 .173.622.832 1.383 1.463 1.055.875 1.504.834 1.89-.173.302-.785-.259-1.379-1.383-1.463-1.039-.079-1.89-.001-1.89.173Zm33 1.938c0 .207.787.995 1.75 1.75 1.586 1.243 1.621 1.208.378-.378-1.307-1.666-2.128-2.195-2.128-1.372Zm81.99 19.372L222.5 310.5l18.75-18.49c17.421-17.179 19.202-19.01 18.49-19.01-.143 0-8.581 8.438-18.75 18.75ZM387 273.378c0 .207.788.995 1.75 1.75 1.586 1.243 1.621 1.208.378-.378-1.307-1.666-2.128-2.195-2.128-1.372ZM149.518 290l-12.981 13.5 13.437-13.211c7.391-7.266 13.233-13.341 12.982-13.5-.251-.159-6.298 5.786-13.438 13.211Zm156.959-4.75-7.977 8.25 8.25-7.977c4.538-4.387 8.25-8.099 8.25-8.25 0-.729-1.115.315-8.523 7.977Zm-191.874-3.417c-.283.459.12.834.897.834s1.18-.375.897-.834c-.283-.458-.687-.833-.897-.833-.21 0-.614.375-.897.833Zm152.01 2.35c.289.467.944.591 1.456.274 1.308-.808 1.161-1.124-.525-1.124-.801 0-1.22.383-.931.85Zm-159.858 3.567c-2.415 2.536-2.499 2.906-1.083 4.75 1.519 1.98 1.528 1.978.902-.132-.587-1.975 1.454-3.98 3.612-3.548.378.076.619-.753.537-1.841-.197-2.628-.852-2.501-3.968.771Zm278.939.665c1.543 1.328 2.982 2.239 3.198 2.025.485-.483-4.089-4.361-5.198-4.407-.443-.018.457 1.054 2 2.382Zm-277.122 1.469c-.303.489.206 1.503 1.131 2.253 1.156.937 1.446.973.93.113-.828-1.378.419-1.692 1.917-.483.523.421.841.575.709.342-.133-.234.295-1.141.951-2.017.984-1.313.956-1.381-.161-.389-.918.815-1.931.895-3.142.247-1.028-.55-2.019-.578-2.335-.066Zm146.086 3.565c-.371.967-.076 1.265.887.895.794-.304 1.195-.956.89-1.449-.766-1.24-1.132-1.126-1.777.554Zm40.747 2.801-1.905 2.25 2.25-1.905c2.114-1.79 2.705-2.595 1.905-2.595-.19 0-1.202 1.012-2.25 2.25Zm-38.802-.417c-.283.459.12.834.897.834s1.18-.375.897-.834c-.283-.458-.687-.833-.897-.833-.21 0-.614.375-.897.833ZM117 304.5c4.651 4.675 8.681 8.5 8.956 8.5.275 0-3.305-3.825-7.956-8.5s-8.681-8.5-8.956-8.5c-.275 0 3.305 3.825 7.956 8.5Zm171.946-1.75-3.446 3.75 3.75-3.446c2.063-1.896 3.75-3.583 3.75-3.75 0-.764-.846-.044-4.054 3.446Zm85.491 3.5-2.937 3.25 3.25-2.937c3.029-2.738 3.71-3.563 2.937-3.563-.172 0-1.635 1.462-3.25 3.25Zm-240.565-.5c-1.243 1.586-1.208 1.621.378.378.963-.755 1.75-1.543 1.75-1.75 0-.823-.821-.294-2.128 1.372ZM268 309.5c2.987 3.025 5.657 5.5 5.932 5.5.275 0-1.945-2.475-4.932-5.5s-5.657-5.5-5.932-5.5c-.275 0 1.945 2.475 4.932 5.5Zm-57 .878c0 .207.787.995 1.75 1.75 1.586 1.243 1.621 1.208.378-.378-1.307-1.666-2.128-2.195-2.128-1.372Zm76.477 7.872-7.977 8.25 8.25-7.977c4.538-4.387 8.25-8.099 8.25-8.25 0-.729-1.115.315-8.523 7.977Zm81.395-6.5c-1.243 1.586-1.208 1.621.378.378.962-.755 1.75-1.543 1.75-1.75 0-.823-.821-.294-2.128 1.372Zm-243.886 17L111.5 342.5l13.75-13.486C138.023 316.486 139.453 315 138.736 315c-.145 0-6.333 6.188-13.75 13.75Zm77.427-7.383c-.318.829-1.121 1.299-1.784 1.044-1.445-.554-7.285 5.266-6.286 6.266 1.638 1.637 4.735.842 6.211-1.595l1.565-2.582-2.06 2.361c-1.132 1.298-2.059 1.93-2.059 1.405 0-.526.816-1.695 1.814-2.597 1.456-1.318 2.093-1.398 3.233-.405.781.68 1.094.827.695.328-.399-.499-.166-1.598.517-2.442 1.017-1.257.987-1.381-.164-.687-.954.575-1.175.475-.689-.311.528-.854 1.254-.869 2.77-.058 1.624.869 1.962.817 1.611-.247-.636-1.931-4.679-2.292-5.374-.48Zm159.793 8.201c-1.232.863-1.98 1.988-1.664 2.5.317.513-.013.935-.733.94-1.877.01-10.126 8.67-9.391 9.859.338.547.088 1.32-.556 1.718-.731.452-.903.291-.457-.43.964-1.56-.906-1.477-2.146.095-1.575 1.996-1.094 4.376 1.158 5.731 1.72 1.035 1.865 1.024.833-.063-1.571-1.656-1.637-3.275-.095-2.323.689.426.884.276.483-.371-.616-.997.948-2.672 2.529-2.709.366-.008 1.041-.425 1.5-.925.484-.529.309-.609-.417-.191-.687.395-1.25.298-1.25-.218 0-1.46 3.109-3.681 5.154-3.681 1.015 0 1.733-.329 1.596-.731-.137-.402.744-1.426 1.958-2.277 1.215-.851 1.967-2.177 1.671-2.946-.394-1.028.046-1.248 1.655-.827 1.973.516 2.079.36 1.056-1.55-.986-1.843-.902-2.041.637-1.494.975.346 2.47 1.123 3.322 1.727.852.604.489.086-.806-1.152-2.799-2.675-3.137-2.713-6.037-.682Zm-171.456 1.325c-2.022 2.05-2.337 3.591-.5 2.445 2.036-1.271 4.943-1.459 4.21-.273-.364.589-1.269.839-2.01.554-.88-.338-1.149.001-.776.975.505 1.314.778 1.307 2.281-.053.939-.85 2.073-1.207 2.52-.793.447.414.021-.486-.946-1.998-2.036-3.183-2.417-3.251-4.779-.857Zm-24.273 8.357-7.977 8.25 8.25-7.977c7.662-7.408 8.706-8.523 7.977-8.523-.151 0-3.863 3.712-8.25 8.25Zm22.072-3.196c2.131 2.355 1.995 2.345 2.16.153.086-1.136-.608-1.849-1.893-1.946-1.946-.147-1.957-.075-.267 1.793Zm169.591-.637c-1.792 2.342-1.997 3.25-.735 3.25.725 0 1.267-.702 1.206-1.56-.061-.857.414-1.57 1.056-1.583 1.767-.036 2.559-1.191.817-1.191-.834 0-1.889.488-2.344 1.084Zm-175.467 3.402c-1.486 1.551-2.405 3.115-2.044 3.477.362.361-.195.972-1.236 1.358-1.041.385-2.118.98-2.393 1.321-.275.342-1.963 1.643-3.75 2.891-3.702 2.586-4.036 4.113-1.417 6.483 1.517 1.373 1.834 1.407 1.834.199 0-.803-.434-1.192-.963-.865-.53.328-.746-.03-.48-.794s1.285-1.243 2.266-1.064c1.292.236 1.61-.122 1.157-1.302-.414-1.079-.234-1.386.534-.911.755.466.953.18.57-.819-.458-1.193.063-1.479 2.346-1.285 1.614.138 3.186-.157 3.493-.654.307-.497.019-.78-.641-.629-.659.151-1.399-.268-1.643-.931-.285-.775.328-1.057 1.714-.79 1.822.351 1.964.182.911-1.087-.998-1.203-.986-1.742.058-2.709 1.023-.947 1.152-.938.599.042-.388.688-.443 1.25-.122 1.25s1.022-1.152 1.557-2.56c.535-1.408 1.446-2.268 2.024-1.911.713.441.651 1.182-.194 2.31-1.157 1.546-1.118 1.546.57.007 1.867-1.703 1.424-3.846-.795-3.846-.69 0-2.469 1.269-3.955 2.819ZM224 337.378c0 .207.787.995 1.75 1.75 1.586 1.243 1.621 1.208.378-.378-1.307-1.666-2.128-2.195-2.128-1.372Zm8.5 8.622c2.709 2.75 5.15 5 5.425 5 .275 0-1.716-2.25-4.425-5-2.709-2.75-5.15-5-5.425-5-.275 0 1.716 2.25 4.425 5Zm91.977 6.25-7.977 8.25 8.25-7.977c7.662-7.408 8.706-8.523 7.977-8.523-.151 0-3.863 3.712-8.25 8.25Zm-146.874-6.417c-.283.459.12.834.897.834s1.18-.375.897-.834c-.283-.458-.687-.833-.897-.833-.21 0-.614.375-.897.833ZM344 348.5c0 .825-.413 1.5-.918 1.5-1.512 0-9.082 7.222-9.082 8.664 0 .735-.591 1.336-1.313 1.336-1.392 0-6.687 5.065-6.687 6.397 0 .433.9 1.932 2 3.33 2.237 2.844 2.785 1.729.611-1.244-1.581-2.162-1.002-4.995.756-3.697 1.653 1.221 4.113.911 4.258-.536.078-.77.161-1.54.25-2.309.069-.582.524-.812 1.012-.511.487.301 1.5-.208 2.25-1.133 1.121-1.382 1.124-1.537.017-.871-.959.578-1.247.3-1-.963.19-.976 1.175-1.895 2.188-2.043 1.013-.149 2.138-.6 2.5-1.004.362-.404-.242-.411-1.342-.016-1.463.525-1.704.42-.899-.392.605-.61 2.003-1.178 3.105-1.261 1.131-.085 1.959-.825 1.899-1.699-.058-.851.429-1.445 1.081-1.319.653.126 1.119-.662 1.037-1.75-.172-2.29-1.723-2.721-1.723-.479Zm-165.387 1.683c.289.467.944.591 1.456.274 1.308-.808 1.161-1.124-.525-1.124-.801 0-1.22.383-.931.85ZM105.232 360c0 1.925.206 2.712.457 1.75.252-.962.252-2.538 0-3.5-.251-.962-.457-.175-.457 1.75Zm130.748 8.75-9.48 9.75 9.75-9.48c9.056-8.805 10.205-10.02 9.48-10.02-.148 0-4.536 4.387-9.75 9.75ZM163 361.378c0 .207.787.995 1.75 1.75 1.586 1.243 1.621 1.208.378-.378-1.307-1.666-2.128-2.195-2.128-1.372Zm166.437 2.393c.342.341 1.324.723 2.184.85.859.126 1.283-.05.942-.392-.342-.341-1.324-.723-2.184-.85-.859-.126-1.283.05-.942.392Zm-104.565 1.979c-1.243 1.586-1.208 1.621.378.378 1.666-1.307 2.195-2.128 1.372-2.128-.207 0-.995.788-1.75 1.75Zm85 1c-1.243 1.586-1.208 1.621.378.378.962-.755 1.75-1.543 1.75-1.75 0-.823-.821-.294-2.128 1.372Zm-143 1c-1.243 1.586-1.208 1.621.378.378 1.666-1.307 2.195-2.128 1.372-2.128-.207 0-.995.788-1.75 1.75ZM336.5 379c2.148 2.2 4.131 4 4.406 4 .275 0-1.258-1.8-3.406-4s-4.131-4-4.406-4c-.275 0 1.258 1.8 3.406 4ZM114 381.5c1.866 1.925 3.617 3.5 3.892 3.5.275 0-1.026-1.575-2.892-3.5-1.866-1.925-3.617-3.5-3.892-3.5-.275 0 1.026 1.575 2.892 3.5Zm108.924.25-2.424 2.75 2.75-2.424c2.57-2.266 3.209-3.076 2.424-3.076-.179 0-1.416 1.238-2.75 2.75Zm155.948 0c-1.243 1.586-1.208 1.621.378.378.962-.755 1.75-1.543 1.75-1.75 0-.823-.821-.294-2.128 1.372Zm-160.62 11.75c.011 2.2.216 2.982.455 1.738.239-1.244.23-3.044-.02-4s-.446.062-.435 2.262Zm48.62 16.25c-1.243 1.586-1.208 1.621.378.378 1.666-1.307 2.195-2.128 1.372-2.128-.207 0-.995.788-1.75 1.75Zm-41.872.628c0 .207.787.995 1.75 1.75 1.586 1.243 1.621 1.208.378-.378-1.307-1.666-2.128-2.195-2.128-1.372Z" fill="#000"/>
  </g>
  <defs>
    <clipPath id="a">
      <path fill="#fff" d="M0 0h500v500H0z"/>
    </clipPath>
  </defs>
</svg>
