<svg viewBox="0 0 24 24" fill="none" xmlns="http://www.w3.org/2000/svg">
  <path fill-rule="evenodd" clip-rule="evenodd" d="M12.2 2a9.996 9.996 0 0 1 10.014 10.026c0 5.483-4.523 10-10.092 9.974-5.385-.052-9.908-4.49-9.908-10 0-5.535 4.444-10.026 9.987-10ZM4.594 17.222c0 .104.052.156.105.235.392.548.836 1.07 1.359 1.514.235.21.47.418.732.6.732.47 1.49.914 2.327 1.202.68.235 1.385.418 2.091.496.55.052 1.124.078 1.673 0 .314-.052.654-.052.968-.183.052.026-.026-.958 0-.958.653-.105.392-.896 1.02-1.157 2.039-.887 2.797-1.828 3.79-3.812.89-1.75 1.726-2.767 1.438-4.7-.261-1.853-1.882-2.428-3.137-3.785-1.673-1.906-1.908-2.455-4.444-2.611-1.125-.079-1.15.81-2.223 1.175-1.751.574-3.059.391-4.235 1.827C4.724 8.71 4.776 9.911 4.697 12c-.026.522-.182 1.332-.104 1.854.157 1.175-1.02 1.801-.418 2.82.157.156.261.365.418.548Z" fill="currentColor"/>
  <path fill-rule="evenodd" clip-rule="evenodd" d="M12.253 7.04c-.575-.105-1.15-.21-1.752-.183-.653.026-1.228.235-1.83.47-.705.26-1.359.626-1.882 1.174-.575.601-.889 1.332-1.02 2.168-.104.704-.13 1.41-.209 2.114-.13 1.515-.366 3.03-.993 4.413-.183-.157-.288-.392-.392-.575a8.801 8.801 0 0 1-1.15-3.315c-.079-.523-.131-1.019-.105-1.54.078-2.09.732-3.97 2.065-5.614C6.135 4.716 7.6 3.723 9.351 3.149a9.54 9.54 0 0 1 3.32-.444c2.51.157 4.654 1.175 6.353 3.029a9.16 9.16 0 0 1 2.301 4.83c.288 1.932 0 3.786-.889 5.535-.993 1.985-2.536 3.42-4.575 4.308a7.7 7.7 0 0 1-1.909.575c-.052 0-.078.078-.104.026-.157-.992.078-1.932.47-2.846.497-1.097 1.203-2.037 1.987-2.95.654-.758 1.412-1.463 2.144-2.168.418-.417.785-.835.994-1.383.366-.888.157-1.62-.628-2.194-.601-.443-1.307-.678-2.013-.887a26.36 26.36 0 0 1-2.013-.731c-.13-.444-.444-.731-.863-.888-.549-.13-1.098-.078-1.673.078Zm8.55 5.56h.052c.104-.365.104-.757.104-1.148 0-.444-.052-.888-.13-1.332a7.48 7.48 0 0 0-1.962-3.76c-.627-.652-1.333-1.2-2.039-1.775-.627-.522-1.307-.914-2.091-1.123-.758-.182-1.49-.287-2.275-.156-.052 0-.104 0-.104.052s.052.052.104.052c1.15.209 2.249.575 3.32.992 1.046.418 1.935 1.019 2.589 1.958.444.653.863 1.332 1.202 2.063.445.992.785 2.01.994 3.055.105.418.183.757.235 1.123Z" fill="currentColor"/>
  <path fill-rule="evenodd" clip-rule="evenodd" d="M10.894 7.927c.993 0 1.778.81 1.778 1.775 0 .992-.81 1.776-1.804 1.802-.994 0-1.778-.81-1.778-1.802s.81-1.775 1.804-1.775Zm1.255 1.801c0-.705-.55-1.253-1.255-1.253-.706 0-1.255.548-1.255 1.253 0 .68.55 1.254 1.229 1.254h.026c.68 0 1.229-.549 1.255-1.254Z" fill="currentColor"/>
  <path fill-rule="evenodd" clip-rule="evenodd" d="M12.358 13.41c.68.418 1.438.47 2.196.444a8.302 8.302 0 0 0 2.98-.705c.367-.157.733-.314 1.072-.522.027-.027.053-.053.105-.027-.026.079-.105.105-.183.157-1.02.679-2.144 1.097-3.346 1.332-.68.13-1.386.13-2.04-.105-.34-.13-.653-.34-.784-.574Zm-.104-6.37c.549-.158 1.124-.21 1.673 0 .418.156.732.443.862.887-.784-.418-1.647-.679-2.535-.888Z" fill="transparent"/>
  <path fill-rule="evenodd" clip-rule="evenodd" d="M12.358 13.41c.68.417 1.438.469 2.196.443a8.304 8.304 0 0 0 2.98-.705c.367-.157.733-.313 1.073-.522.026-.026.052-.052.104-.026-.026.078-.104.104-.183.156-1.02.68-2.144 1.097-3.346 1.332-.68.13-1.386.13-2.04-.104-.34-.131-.653-.34-.784-.575Zm4.942-1.54a.402.402 0 0 1-.393-.392c0-.21.157-.392.366-.392.21 0 .392.157.418.365-.026.236-.183.418-.392.418Z" fill="currentColor"/>
  <path fill-rule="evenodd" clip-rule="evenodd" d="M18.815 12.523a.056.056 0 0 1-.052.052c0-.052.026-.078.052-.052Zm.078-.052-.078.052-.026-.026c.052-.026.078-.026.104-.026Z" fill="transparent"/>
</svg>
