<svg viewBox="0 0 24 24" fill="none" xmlns="http://www.w3.org/2000/svg">
  <path fill-rule="evenodd" clip-rule="evenodd" d="M22 12c0 5.523-4.477 10-10 10S2 17.523 2 12 6.477 2 12 2s10 4.477 10 10Zm-8.293-4.547c1.539.117 2.84 1.137 2.84 1.137s1.453 2.11 1.71 6.25c-1.464 1.691-3.69 1.703-3.69 1.703l-.466-.621a5.672 5.672 0 0 0 2.454-1.652c-.922.699-2.309 1.422-4.547 1.422-2.239 0-3.63-.727-4.547-1.422a5.672 5.672 0 0 0 2.453 1.652l-.465.621s-2.226-.012-3.691-1.703c.25-4.14 1.703-6.25 1.703-6.25s1.226-.984 2.84-1.137l.136.278c-1.27.285-2.027.828-2.695 1.425 1.149-.586 2.285-1.136 4.262-1.136 1.976 0 3.113.55 4.262 1.136-.668-.597-1.305-1.086-2.696-1.425l.137-.278Zm-4.55 5.114c0 .628.444 1.136.995 1.136.551 0 .996-.508.996-1.136 0-.63-.445-1.137-.996-1.137-.55 0-.996.508-.996 1.137Zm3.694 0c0 .628.446 1.136.997 1.136.546 0 .996-.508.996-1.136 0-.63-.446-1.137-.996-1.137-.551 0-.997.508-.997 1.137Z" fill="currentColor"/>
</svg>
