<svg viewBox="0 0 24 24" fill="none" xmlns="http://www.w3.org/2000/svg">
  <path fill-rule="evenodd" clip-rule="evenodd" d="M12 2c5.52 0 10 4.48 10 10s-4.48 10-10 10S2 17.52 2 12 6.48 2 12 2ZM8.874 17.62V9.81H6.277v7.81h2.597Zm9.36 0v-4.478c0-2.4-1.281-3.515-2.989-3.515-1.377 0-1.994.757-2.34 1.29V9.81H10.31c.034.732 0 7.809 0 7.809h2.596v-4.361c0-.234.016-.467.085-.634.188-.466.615-.95 1.332-.95.939 0 1.315.717 1.315 1.767v4.178h2.596ZM7.593 6.045c-.888 0-1.469.584-1.469 1.35 0 .749.563 1.349 1.435 1.349h.016c.906 0 1.47-.6 1.47-1.35-.018-.765-.564-1.35-1.452-1.35Z" fill="currentColor"/>
</svg>
