<svg viewBox="0 0 24 24" fill="none" xmlns="http://www.w3.org/2000/svg">
  <path fill-rule="evenodd" clip-rule="evenodd" d="M22.01 12c0 5.523-4.477 10-10 10s-10-4.477-10-10 4.477-10 10-10 10 4.477 10 10Zm-9.73-3.495a525.959 525.959 0 0 0-6.445 2.776c-.523.208-.797.412-.822.61-.042.337.38.47.953.65l.241.076c.564.184 1.323.398 1.718.407.358.008.757-.14 1.198-.443 3.01-2.031 4.564-3.058 4.661-3.08.069-.016.164-.036.229.022.064.057.058.166.051.195-.041.178-1.694 1.715-2.55 2.51-.267.248-.456.424-.494.464-.087.09-.175.175-.26.257-.524.505-.917.884.021 1.503.452.297.813.543 1.173.789.393.267.786.535 1.293.867.13.085.253.173.374.259.457.326.869.62 1.377.573.295-.027.6-.305.755-1.133.366-1.957 1.086-6.197 1.252-7.944a1.942 1.942 0 0 0-.019-.435.465.465 0 0 0-.157-.3c-.132-.107-.337-.13-.428-.128-.416.007-1.053.23-4.122 1.505Z" fill="currentColor"/>
</svg>
