<svg xmlns="http://www.w3.org/2000/svg" fill="none" viewBox="0 0 260 200">
  <g clip-path="url(#empty_state_coming_soon_svg__a)">
    <path fill="url(#empty_state_coming_soon_svg__b)" d="M130 163.385c11.598 0 21 9.402 21 21s-9.402 21-21 21-21-9.402-21-21 9.402-21 21-21Zm0 3c-9.941 0-18 8.059-18 18s8.059 18 18 18 18-8.059 18-18-8.059-18-18-18Zm-56-31c11.598 0 21 9.402 21 21s-9.402 21-21 21-21-9.402-21-21 9.402-21 21-21Zm112 0c11.598 0 21 9.402 21 21s-9.402 21-21 21-21-9.402-21-21 9.402-21 21-21Zm-112 3c-9.941 0-18 8.059-18 18s8.059 18 18 18 18-8.059 18-18-8.059-18-18-18Zm112 0c-9.941 0-18 8.059-18 18s8.059 18 18 18 18-8.059 18-18-8.059-18-18-18Zm-167-31c11.598 0 21 9.402 21 21s-9.402 21-21 21-21-9.402-21-21 9.402-21 21-21Zm128.234 33c-3.795 5.44-10.098 9-17.234 9-7.136 0-13.439-3.56-17.234-9h3.819c3.296 3.682 8.084 6 13.415 6a17.953 17.953 0 0 0 13.415-6h3.819Zm94.766-33c11.598 0 21 9.402 21 21s-9.402 21-21 21-21-9.402-21-21 9.402-21 21-21Zm-223 3c-9.941 0-18 8.059-18 18s8.059 18 18 18 18-8.059 18-18-8.059-18-18-18Zm223 0c-9.941 0-18 8.059-18 18s8.059 18 18 18 18-8.059 18-18-8.059-18-18-18Zm-168-31c.338 0 .674.008 1.008.024L74 80.385v2c-9.941 0-18 8.059-18 18s8.059 18 18 18v2l1.11.97c-.368.02-.738.03-1.11.03-11.598 0-21-9.402-21-21s9.402-21 21-21Zm113.876.084c10.719.949 19.124 9.95 19.124 20.916 0 11.171-8.723 20.303-19.729 20.96l1.729-.96v-2.251c8.513-1.429 15-8.83 15-17.749 0-8.92-6.487-16.322-15-17.75v-2.25l-1.124-.916ZM19 50.385c11.598 0 21 9.402 21 21s-9.402 21-21 21-21-9.402-21-21 9.402-21 21-21Zm223 0c11.598 0 21 9.402 21 21s-9.402 21-21 21-21-9.402-21-21 9.402-21 21-21Zm-223 3c-9.941 0-18 8.059-18 18 0 9.94 8.059 18 18 18s18-8.06 18-18c0-9.941-8.059-18-18-18Zm223 0c-9.941 0-18 8.059-18 18 0 9.94 8.059 18 18 18s18-8.06 18-18c0-9.941-8.059-18-18-18Zm-168-31c11.598 0 21 9.402 21 21s-9.402 21-21 21-21-9.402-21-21 9.402-21 21-21Zm112 0c11.598 0 21 9.402 21 21s-9.402 21-21 21-21-9.402-21-21 9.402-21 21-21Zm-112 3c-9.941 0-18 8.059-18 18 0 9.94 8.059 18 18 18s18-8.06 18-18c0-9.941-8.059-18-18-18Zm112 0c-9.941 0-18 8.059-18 18 0 9.94 8.059 18 18 18s18-8.06 18-18c0-9.941-8.059-18-18-18Zm-56 25c7.564 0 14.194 4 17.891 10h-3.643c-3.292-4.258-8.45-7-14.248-7s-10.956 2.742-14.248 7h-3.643c3.697-6 10.327-10 17.891-10Zm0-55c11.598 0 21 9.402 21 21s-9.402 21-21 21-21-9.402-21-21 9.402-21 21-21Zm0 3c-9.941 0-18 8.059-18 18 0 9.94 8.059 18 18 18s18-8.06 18-18c0-9.941-8.059-18-18-18Z"/>
    <path fill="currentColor" d="M103.588 76.385a24.004 24.004 0 0 1 19.661 10.238l16.056 22.936v.001a16.006 16.006 0 0 0 13.107 6.825h3.932l-5.172-5.172a4 4 0 1 1 5.656-5.656l11.98 11.979c.145.144.28.298.403.463.025.033.048.068.071.102.014.02.029.039.042.059l.065.1.042.068.042.072.062.112c.01.017.017.036.027.053.019.038.038.075.056.114l.034.076a1.71 1.71 0 0 1 .078.188l.039.102.014.043c.037.108.07.217.098.329l.014.06a4 4 0 0 1 .002 1.803c-.005.023-.009.047-.015.07a3.964 3.964 0 0 1-.095.322l-.018.051-.039.101c-.011.03-.022.061-.035.091l-.034.08a2.688 2.688 0 0 1-.099.207l-.028.055-.053.095a3.97 3.97 0 0 1-.157.255c-.013.021-.028.04-.042.06-.023.034-.046.068-.071.102a4.053 4.053 0 0 1-.383.444l-12 12a4 4 0 1 1-5.656-5.656l5.172-5.172h-3.932a24.016 24.016 0 0 1-11.084-2.713 24.01 24.01 0 0 1-8.154-6.94l-.423-.586-16.056-22.935v-.001a16.003 16.003 0 0 0-12.626-6.818l-.481-.007H94a4 4 0 0 1 0-8h9.588Zm13.814 32.163a4.001 4.001 0 0 1 6.556 4.586l-.708 1.012h-.001a24 24 0 0 1-19.661 10.239H94a4 4 0 0 1 0-8h9.588l.481-.007a16.003 16.003 0 0 0 12.625-6.818l.708-1.012Zm33.77-42.991a3.999 3.999 0 0 1 5.656 0l11.98 11.98c.145.143.28.297.403.462.025.033.048.068.071.102.014.02.029.039.042.06a3.959 3.959 0 0 1 .21.35l.028.054.056.114.034.076c.015.032.03.065.043.098a27.47 27.47 0 0 1 .074.192l.014.043c.037.108.07.217.098.329l.014.06a4.004 4.004 0 0 1-.111 2.201l-.015.045-.039.101c-.011.03-.022.061-.035.091-.013.033-.028.065-.043.098l-.034.076-.056.113-.028.055a3.77 3.77 0 0 1-.21.35l-.042.06c-.023.034-.046.068-.071.102a4.066 4.066 0 0 1-.383.444l-12 12a4 4 0 0 1-5.656-5.656l5.172-5.172h-3.932a16.003 16.003 0 0 0-13.103 6.818l.001.001-.708 1.016a4.001 4.001 0 0 1-6.564-4.575l.708-1.015.005-.007a24.004 24.004 0 0 1 19.661-10.238h3.932l-5.172-5.172a4 4 0 0 1 0-5.656Z"/>
  </g>
  <defs>
    <radialGradient id="empty_state_coming_soon_svg__b" cx="0" cy="0" r="1" gradientTransform="scale(132.5 105) rotate(90 .014 .97)" gradientUnits="userSpaceOnUse">
      <stop stop-color="currentColor" stop-opacity=".8"/>
      <stop offset="1" stop-color="currentColor" stop-opacity="0"/>
    </radialGradient>
    <clipPath id="empty_state_coming_soon_svg__a">
      <path fill="currentColor" d="M0 0h260v200H0z"/>
    </clipPath>
  </defs>
</svg>
