<svg viewBox="0 0 20 20" fill="none" xmlns="http://www.w3.org/2000/svg">
  <g clip-path="url(#autoscout_svg__a)">
    <path d="M15.4 1.72h.7-.7Zm0 1.963h-.7v.013l.7-.013Zm.936.917v.7-.7ZM19 5.32h.7v-.001H19Zm0 12.96h.7-.7Zm-2.88.72-.002.7h.001V19Zm-.72-.72h-.7.7Zm0-12.744h.7-.7Zm-.936-.936v-.7.7Zm-8.928 0v-.7.7Zm-.936.935h-.7.7Zm0 3.53h-.7.7Zm.936.935v.7-.7Zm5.544 0v-.7.7Zm.72.72h.7-.7Zm0 2.16h.7-.7Zm-.72.72v.7-.7Zm-5.544 0v-.7.7Zm-.936.936h-.7.7ZM1.72 19v.7-.7ZM1 5.32l-.7-.001H1Zm.72-.72v-.7.7Zm1.944 0v.7-.7Zm.936-.936h.7-.7Zm0-1.944h-.7.7ZM14.68 1v.7l.008.001.006.005a.023.023 0 0 1 .005.007l.001.007h1.4A1.42 1.42 0 0 0 14.68.3V1Zm.72.72h-.7v1.963h1.4V1.72h-.7Zm0 1.963-.7.013A1.636 1.636 0 0 0 16.337 5.3V3.9a.236.236 0 0 1-.236-.231l-.7.014Zm.936.917v.7h1.943V3.9h-1.943v.7Zm1.943 0v.7h.008l.007.006a.021.021 0 0 1 .005.007l.001.007h.7l.7-.001a1.42 1.42 0 0 0-1.42-1.42v.7Zm.721.72h-.7v12.96h1.4V5.32H19Zm0 12.96h-.7a.017.017 0 0 1-.006.014.023.023 0 0 1-.007.005.02.02 0 0 1-.008.001v1.4a1.42 1.42 0 0 0 1.421-1.42H19Zm-.72.72v-.7h-2.16v1.4h2.16V19Zm-2.16 0v-.7a.02.02 0 0 1-.008-.001.023.023 0 0 1-.011-.012.017.017 0 0 1-.002-.007h-1.4a1.42 1.42 0 0 0 1.42 1.42V19Zm-.72-.72h.7V5.536h-1.4V18.28h.7Zm0-12.744h.7c0-.902-.732-1.636-1.636-1.636v1.4c.13 0 .235.105.235.236h.7Zm-.936-.936v-.7H5.536v1.4h8.928v-.7Zm-8.928 0v-.7c-.903 0-1.635.732-1.636 1.634l.7.001.7.001c0-.13.106-.236.236-.236v-.7Zm-.936.935h-.7v3.53h1.4v-3.53h-.7Zm0 3.53h-.7c0 .904.734 1.635 1.636 1.635V9.3a.237.237 0 0 1-.236-.236h-.7Zm.936.935v.7h5.544V9.3H5.536v.7Zm5.544 0v.7l.007.001.007.005a.018.018 0 0 1 .006.014h1.4a1.42 1.42 0 0 0-1.42-1.42v.7Zm.72.72h-.7v2.16h1.4v-2.16h-.7Zm0 2.16h-.7a.018.018 0 0 1-.006.014.021.021 0 0 1-.007.004.019.019 0 0 1-.007.002v1.4a1.42 1.42 0 0 0 1.42-1.42h-.7Zm-.72.72v-.7H5.536v1.4h5.544v-.7Zm-5.544 0v-.7c-.903 0-1.636.733-1.636 1.636h1.4c0-.13.106-.236.236-.236v-.7Zm-.936.936h-.7v3.743h1.4v-3.743h-.7Zm0 3.743h-.7a.02.02 0 0 1-.007.015.021.021 0 0 1-.006.005.016.016 0 0 1-.007.001v1.4a1.42 1.42 0 0 0 1.42-1.42h-.7ZM3.88 19v-.7H1.72v1.4h2.16V19Zm-2.16 0v-.7l-.007-.001a.022.022 0 0 1-.007-.005.023.023 0 0 1-.005-.007.019.019 0 0 1-.001-.008H.3c0 .784.635 1.42 1.42 1.421V19ZM1 18.28h.7V5.32H.3v12.96H1ZM1 5.32h.7a.018.018 0 0 1 .006-.015.017.017 0 0 1 .014-.006V3.9A1.42 1.42 0 0 0 .3 5.32H1Zm.72-.72v.7h1.944V3.9H1.72v.7Zm1.944 0v.7c.903 0 1.635-.733 1.636-1.636H3.9c0 .13-.106.236-.236.236v.7Zm.936-.936h.7V1.72H3.9v1.944h.7Zm0-1.944h.7v-.007l.005-.007A.019.019 0 0 1 5.32 1.7V.3A1.42 1.42 0 0 0 3.9 1.72h.7ZM5.32 1v.7h9.36V.3H5.32V1Z" fill="currentColor"/>
  </g>
  <defs>
    <clipPath id="autoscout_svg__a">
      <path fill="#fff" d="M0 0h20v20H0z"/>
    </clipPath>
  </defs>
</svg>
