<svg viewBox="0 0 20 20" fill="none" xmlns="http://www.w3.org/2000/svg">
  <path clip-rule="evenodd" d="M8.175 2.102a.834.834 0 0 0-.835-.832H5.36a.834.834 0 0 0-.835.832v1.972c0 .46-.374.832-.835.832H1.835A.834.834 0 0 0 1 5.74v12.155c0 .46.374.833.835.833h1.98a.834.834 0 0 0 .835-.832V5.739c0-.46.374-.833.835-.833H7.34a.834.834 0 0 0 .835-.832V2.102Zm7.3 0a.834.834 0 0 0-.835-.832h-1.98a.834.834 0 0 0-.835.832v1.972c0 .46.374.832.835.832h1.855c.461 0 .835.373.835.833v12.155c0 .46.374.833.835.833h1.98a.834.834 0 0 0 .835-.832V5.739a.834.834 0 0 0-.835-.833H16.31a.834.834 0 0 1-.835-.832V2.102Zm-3.65 6.962a.834.834 0 0 0-.835-.832H9.01a.834.834 0 0 0-.835.832v5.401c0 .46.374.833.835.833h1.98a.834.834 0 0 0 .835-.833V9.064Z" stroke="currentColor" stroke-width="1.4"/>
</svg>
