<svg xmlns="http://www.w3.org/2000/svg" fill="none" viewBox="0 0 20 20">
  <path fill="#6747ED" d="M10 20c5.523 0 10-4.477 10-10S15.523 0 10 0 0 4.477 0 10s4.477 10 10 10"/>
  <path fill="#fff" fill-rule="evenodd" d="M9.854 11.292a2.66 2.66 0 0 1-2.666-2.667 2.66 2.66 0 0 1 2.666-2.667 2.66 2.66 0 0 1 2.667 2.667 2.66 2.66 0 0 1-2.667 2.667m0-6.667a4.001 4.001 0 0 1 0 8 4.001 4.001 0 0 1 0-8m3.813 8.208c.27.271.27.688 0 .938L11 16.437c-.27.271-.687.271-.937 0-.271-.27-.271-.687 0-.937l2.666-2.667c.25-.27.688-.27.938 0m1.541-7.541a.66.66 0 0 1-.666.666.66.66 0 0 1-.667-.666c0-.375.292-.667.667-.667.354 0 .666.292.666.667" clip-rule="evenodd"/>
</svg>
