<svg viewBox="0 0 20 20" fill="none" xmlns="http://www.w3.org/2000/svg">
  <path d="M16 1a3 3 0 0 1 3 3v12a3 3 0 0 1-3 3H4a3 3 0 0 1-3-3V4a3 3 0 0 1 3-3h12ZM4 1.975A2.026 2.026 0 0 0 1.975 4v12c0 1.118.907 2.025 2.025 2.025h12A2.026 2.026 0 0 0 18.025 16V4A2.026 2.026 0 0 0 16 1.975H4ZM6.267 7.15a2.267 2.267 0 0 1 2.266 2.267v3.666a.601.601 0 0 1-1.2 0v-1.25a.15.15 0 0 0-.15-.15H5.35a.15.15 0 0 0-.15.15v1.25a.6.6 0 1 1-1.2 0V9.417A2.268 2.268 0 0 1 6.267 7.15Zm5.666 0a1.934 1.934 0 0 1 1.933 1.933v.667a1.934 1.934 0 0 1-1.933 1.934h-1.25a.15.15 0 0 0-.15.149v1.25a.601.601 0 0 1-1.2 0V7.75a.6.6 0 0 1 .6-.6h2Zm3.334 0a.6.6 0 0 1 .6.6v5.333a.6.6 0 1 1-1.201 0V7.75a.6.6 0 0 1 .6-.6Zm-9 1.2a1.069 1.069 0 0 0-1.068 1.067v.916c0 .083.068.15.15.15h1.834a.15.15 0 0 0 .15-.15v-.916A1.068 1.068 0 0 0 6.267 8.35Zm4.416 0a.15.15 0 0 0-.15.15v1.833c0 .083.067.15.15.15h1.25a.735.735 0 0 0 .733-.733v-.667a.734.734 0 0 0-.733-.733h-1.25Z" fill="currentColor"/>
</svg>
