<svg xmlns="http://www.w3.org/2000/svg" xml:space="preserve" viewBox="0 0 661.6 661.5">
  <path fill="currentColor" d="M532 330.7h-49.4c-14.8 0-26.7 12-26.7 26.7v71.7c0 14.8-12 26.7-26.7 26.7H232.5c-14.8 0-26.7 12-26.7 26.7V532c0 14.8 12 26.7 26.7 26.7h208c14.8 0 26.5-12 26.5-26.7v-39.6c0-14.8 12-25.2 26.7-25.2H532c14.8 0 26.7-12 26.7-26.7v-83.3c0-14.9-12-26.5-26.7-26.5zm-326.2-98.2c0-14.8 12-26.7 26.7-26.7H429c14.8 0 26.7-12 26.7-26.7v-49.4c0-14.8-12-26.7-26.7-26.7H221.1c-14.8 0-26.7 12-26.7 26.7v38.1c0 14.8-12 26.7-26.7 26.7h-38c-14.8 0-26.7 12-26.7 26.7v83.4c0 14.8 12 26.1 26.8 26.1h49.4c14.8 0 26.7-12 26.7-26.7l-.1-71.5zm101.7 46.3H355c15.5 0 28 12.6 28 28v47.5c0 15.5-12.6 28-28 28h-47.5c-15.5 0-28-12.6-28-28v-47.5c0-15.5 12.6-28 28-28z"/>
</svg>
