<svg fill="none" xmlns="http://www.w3.org/2000/svg" viewBox="0 0 30 30">
  <path fill-rule="evenodd" clip-rule="evenodd" d="M12.703 5.6a1.6 1.6 0 0 0-1.6-1.6H9.575a1.6 1.6 0 0 0-1.6 1.6v1.383a1.6 1.6 0 0 1-1.6 1.6H5.6a1.6 1.6 0 0 0-1.6 1.6V24.4A1.6 1.6 0 0 0 5.6 26h1.528a1.6 1.6 0 0 0 1.6-1.6V10.183a1.6 1.6 0 0 1 1.6-1.6h.775a1.6 1.6 0 0 0 1.6-1.6V5.6Zm9.487 0a1.6 1.6 0 0 0-1.6-1.6h-1.528a1.6 1.6 0 0 0-1.6 1.6v1.383a1.6 1.6 0 0 0 1.6 1.6h.61a1.6 1.6 0 0 1 1.6 1.6V24.4a1.6 1.6 0 0 0 1.6 1.6H24.4a1.6 1.6 0 0 0 1.6-1.6V10.183a1.6 1.6 0 0 0-1.6-1.6h-.61a1.6 1.6 0 0 1-1.6-1.6V5.6Zm-4.793 8.774a1.6 1.6 0 0 0-1.6-1.6h-1.528a1.6 1.6 0 0 0-1.6 1.6v5.705a1.6 1.6 0 0 0 1.6 1.6h1.528a1.6 1.6 0 0 0 1.6-1.6v-5.705Z" fill="currentColor"/>
</svg>
