<svg xmlns="http://www.w3.org/2000/svg" viewBox="0 0 2322 403">
  <path d="M153.906 32.145 156 34v2l1.766.805C161.684 38.9 164.75 42 168 45l1.945 1.781C178.911 55.348 186.054 65.778 193 76l1.996 2.898c3.832 5.636 7.332 11.32 10.516 17.344 1.538 2.85 3.19 5.61 4.863 8.383 4.032 6.865 7.335 14.021 10.647 21.251.932 2.024 1.877 4.04 2.83 6.054a566.234 566.234 0 0 1 9.62 21.492c1.05 2.46 2.115 4.905 3.212 7.344 3.928 8.764 7.393 17.626 10.64 26.664 1.448 4.001 3.005 7.95 4.598 11.896 1.162 2.882 2.305 5.772 3.445 8.662 4.28 10.812 8.6 21.526 13.633 32.012.96 2.103 1.918 4.208 2.875 6.313 3.536 7.65 7.294 15.18 11.125 22.687l.944 1.867c4.566 8.99 9.694 17.513 15.196 25.964l1.516 2.345 1.37 2.09C303 303 303 303 303 305h2c3 4.385 3 4.385 3 7h2l1.188 2.125c2.06 3.27 4.374 5.179 7.386 7.543L320 323v2l1.707.762c2.627 1.418 4.698 3.128 6.98 5.05 9.948 8.066 22.171 15.094 35.313 14.188 8.361-2.883 13.082-7.241 17-15 6.532-14.681 6.538-31.04.938-46-4.957-11.193-13.161-20.055-22.583-27.668L358 255v-2l-2.113-.762c-4.379-1.878-8.233-4.514-12.242-7.07-9.14-5.588-19.03-9.465-28.987-13.33-9.149-3.689-15.434-7.765-19.658-16.838-2.828-7.946-2.856-16.682.75-24.438 4.46-7.748 11.387-12.188 19.75-14.875 7.529-2.586 14.46-5.967 21.5-9.687l2.938-1.5c18.417-9.627 33.717-23.208 42.062-42.5l.934-2.063c4.744-11.984 4.353-27.308-.606-39.058a298.44 298.44 0 0 0-2.015-4.317l-.953-2.044c-2.477-4.85-5.507-7.98-10.36-10.518-9.342-2.756-18.94-.74-27.355 3.816C324.41 78.223 310.756 92.013 300 109l-2.215 3.309c-5.281 7.909-9.665 16.06-13.788 24.624a737.797 737.797 0 0 1-7.2 14.536 204.486 204.486 0 0 0-3.094 6.312C272.563 160 272.563 160 270 163c-3.11.632-5.878.49-9 0v-2h-2l-1.504-3.629c-3.251-7.806-6.523-15.592-10.121-23.246l-.854-1.833a229.113 229.113 0 0 0-4.29-8.687c-3.67-7.245-6.093-13.468-4.231-21.605 1.917-4.342 4.234-8.255 6.833-12.218a243.406 243.406 0 0 0 3.35-5.29C253.436 76.078 259.15 68.005 265 60l1.664-2.398L268 56h2l.688-1.625C274.192 48.031 279.495 43.561 285 39l1.62-1.354C301.967 24.866 317.878 15.142 337 9l2.977-.98c18.373-5.164 39.374-3.336 56.21 5.543A289.39 289.39 0 0 1 402 17l2.863 1.59L407 20v2l1.688.75C414.894 26.105 419.115 31.2 423 37v2h2c16.667 29.096 22.274 60.6 13.969 93.277-2.75 9.846-7.186 18.727-11.969 27.723a452.042 452.042 0 0 0-2 4h-2l-.77 2.2c-2.155 4.906-5.806 8.721-9.23 12.8l-1.8 2.18c-6.665 7.875-14.471 13.868-22.856 19.804L386 203v3l2.375.938C391 208 391 208 393 209v2l2.188.688c2.702 1.26 4.306 2.562 6.32 4.726a87.477 87.477 0 0 0 3.422 3.422c4.681 4.482 8.871 9.211 12.882 14.289l1.382 1.738C427 245.916 427 245.916 427 250h2c13.312 31.223 19.65 63.084 7 95.938a235.539 235.539 0 0 1-3 7.062l-1.273 2.973A279.867 279.867 0 0 1 429 362h-2l-.438 1.875C426 366 426 366 425 368h-2l-.563 2c-5.354 11.174-17.481 19.83-28.437 25l-2.29 1.082c-21.095 9.174-43.529 7.298-64.71-.457-5.913-2.445-11.471-5.417-17-8.625l-4.188-2.375L303 383v-2l-2.125-.73c-3.351-1.48-5.958-3.369-8.875-5.582-1.01-.76-2.021-1.519-3.063-2.301-2.85-2.316-5.384-4.75-7.937-7.387-.741-.73-1.482-1.46-2.246-2.21-4.483-4.427-8.828-8.858-12.754-13.79v-2h-2c-3-4.385-3-4.385-3-7h-2c-3-4.385-3-4.385-3-7h-2c-1.559-2.176-1.559-2.176-3.438-5.313l-1.042-1.737c-1.183-1.978-2.351-3.964-3.52-5.95l-1.32-2.223C238.32 307.065 232.362 296.245 227 285l-.873-1.824A917.781 917.781 0 0 1 220 270l-1.083-2.361C213.984 256.862 209.307 246.04 205 235a3432.45 3432.45 0 0 0-5.93-14.79c-3.16-7.85-6.281-15.702-9.195-23.648-2.2-5.977-4.72-11.745-7.45-17.5-1.354-2.909-2.592-5.84-3.8-8.812C173.206 157.11 166.85 144.446 160 132l-1.159-2.119c-2.968-5.393-6.073-10.688-9.279-15.944l-1.369-2.275c-4.608-7.563-9.785-14.381-15.775-20.9C131 89 131 89 130 86a88.837 88.837 0 0 0-4-2 101.61 101.61 0 0 1-4.125-3.563C119.14 77.924 119.14 77.924 116 76v-2l-2.207-.816c-2.726-1.155-5.003-2.512-7.48-4.121C98.478 64.316 90.222 61.657 81 63c-5.643 1.75-9.976 4.861-13 10-7.07 14.779-9.901 29.878-5.063 45.813 3.196 8.417 7.917 17.055 14.34 23.457C79 144 79 144 79 146l1.777.785c2.385 1.304 3.872 2.73 5.785 4.653 14.121 12.773 33.214 20.03 50.864 26.519C140 179 140 179 143 181v2l1.75.625c4.048 2.474 5.777 6.192 7.5 10.5 2.08 10.75.88 19.542-5.125 28.75-4.925 4.925-10.368 7.092-16.813 9.25C113.686 238.003 84.403 250.195 76 267h-2l-.938 2.375C72 272 72 272 71 274h-2l-.75 2.375c-1.283 3.72-2.738 7.333-4.25 10.965-4.996 13.289-4.521 27.272.504 40.469 2.4 5.12 5.06 9.43 9.68 12.77L76 342v2c9.699 1.46 16.858.4 26-3 1.998-.672 3.998-1.34 6-2v-2l2.813-1.438c12.286-7.038 22.029-17.378 29.863-28.99 1.062-1.556 2.188-3.069 3.324-4.572h2l.938-2.875C148 296 148 296 149 294h2l.347-1.71c.731-2.565 1.793-4.603 3.094-6.93l1.508-2.723 1.613-2.887c4.117-7.445 8.126-14.912 11.85-22.562A469.115 469.115 0 0 1 172 252l.982-1.955c.918-1.732 1.962-3.395 3.018-5.045 3.37-1.023 5.6-1.386 9.012-.445 3.017 2.193 3.966 5.271 5.3 8.632.608 1.46 1.218 2.918 1.829 4.375l.931 2.247c1.412 3.333 2.944 6.606 4.49 9.878l1.735 3.688.853 1.813c1.887 4.024 3.734 8.066 5.588 12.105.75 1.608 1.538 3.2 2.403 4.75 2.193 4.995 1.639 10.91-.262 15.898A99.577 99.577 0 0 1 204 315h-2l-.625 2.438c-1.517 3.93-3.527 6.993-5.918 10.437-1.576 2.237-1.576 2.237-3.207 5.188L191 335h-2l-.715 2.113c-1.516 3.406-3.555 6.168-5.847 9.075l-1.33 1.703c-4.115 5.216-8.3 10.518-13.108 15.109h-2l-1 3a120.327 120.327 0 0 1-6.375 5.188l-1.924 1.48A1175.397 1175.397 0 0 1 151 377l-2.883 2.219c-21.066 15.847-46.663 25.793-73.365 22.504-21.114-3.205-38.003-13.47-50.69-30.598C22 368 22 368 22 366h-2c-8.241-15.858-15.417-32.858-16-51l-.062-1.912C3.058 281.282 12.626 251.166 34 227a128.63 128.63 0 0 1 6.172-5.457c1.983-1.623 1.983-1.623 4.203-3.98C49.154 212.897 54.444 208.703 60 205c-1.184-3.552-2.296-4.241-5.25-6.438l-2.45-1.851L50 195c-1.703-1.286-3.39-2.598-5-4v-2l-1.688-.688C40.338 186.625 38.28 184.534 36 182v-2l-3-1c-1.605-1.777-1.605-1.777-3.188-3.938l-1.605-2.152C27 171 27 171 27 169h-2c-1.157-1.538-1.157-1.538-2.426-3.7l-1.408-2.396-1.479-2.591-1.505-2.627C14.402 150.966 11.336 144.365 9 137l-.887-2.676c-8.665-28.53-4.863-60.428 8.817-86.558C24.734 33.31 35.52 21.756 50 14l3.438-2c34.175-16.404 72.25-.678 100.468 20.145ZM555.391 60.86l3.317-.018 3.625-.003 3.83-.015c3.468-.013 6.936-.02 10.403-.024 2.173-.003 4.345-.007 6.517-.012 6.814-.013 13.628-.023 20.441-.027a7482.38 7482.38 0 0 0 23.498-.05c6.072-.023 12.145-.033 18.217-.034 3.617-.001 7.234-.007 10.851-.025 29.119-.137 53.58 2.862 76.082 23.368C734 86 734 86 735 89h2c1.998 2.447 3.463 5.248 5 8l1.297 2.277c9.505 18.57 10.258 41.71 4.466 61.486-2.552 7.484-6.386 14.672-10.763 21.237h-2l-.703 1.719c-3.663 6.443-11.018 11.48-17.297 15.281l2.203 1.031C730.273 205.368 740.54 211.028 748 221l1.766 2.234c13.351 17.764 16.615 39.612 13.925 61.253C760.788 302.057 752.487 320.16 738 331l-2.234 1.766c-23.415 17.599-52.702 16.556-80.546 16.503-3.534-.006-7.068 0-10.602.002-5.916.004-11.831 0-17.747-.01-6.816-.011-13.631-.008-20.447.003-5.895.01-11.79.01-17.685.006-3.503-.004-7.006-.004-10.508.003-3.895.006-7.79-.003-11.685-.014l-3.462.012c-9.413-.05-18.816-.637-26.084-7.271-4.668-6.086-8.118-11.528-8.131-19.299l-.012-2.597.003-2.84-.01-3.026c-.008-3.357-.01-6.714-.011-10.071l-.015-7.21c-.013-6.534-.02-13.07-.024-19.605l-.012-12.244c-.012-11.302-.022-22.604-.026-33.906v-4.388a1045658.989 1045658.989 0 0 0-.003-6.614 21624.27 21624.27 0 0 0-.045-35.419c-.023-12.124-.036-24.248-.037-36.372 0-6.806-.007-13.612-.025-20.418-.017-6.401-.018-12.803-.01-19.204.001-2.35-.003-4.7-.013-7.05-.013-3.207-.007-6.414.004-9.621l-.025-2.819C528.67 81.163 531.042 75.562 536 69c6.085-5.461 11.248-8.115 19.391-8.14ZM595 127c-1.576 3.608-1.162 7.73-1.168 11.617l-.01 2.227c-.005 1.551-.007 3.103-.007 4.655-.002 2.36-.02 4.722-.04 7.083-.003 1.512-.005 3.023-.005 4.535l-.022 2.122c.02 4.306.41 7.85 2.252 11.761 3.724 3.642 6.116 4.503 11.284 4.518l3.784.038c1.356-.007 2.712-.016 4.069-.025 1.404.003 2.807.007 4.211.012 2.941.006 5.882-.003 8.824-.022 3.744-.022 7.488-.01 11.232.015 2.9.014 5.801.01 8.702 0 1.38-.003 2.758 0 4.137.01 9.801.051 18.095-.645 25.82-7.109 2.1-2.357 2.1-2.357 2.937-5.437h2c3.367-10.723 4.49-19.416 0-30-3.11-5.321-7.993-8.684-13.807-10.593-2.925-.543-5.743-.567-8.718-.6l-1.958-.025c-2.13-.024-4.259-.041-6.388-.055l-2.21-.017c-3.857-.026-7.714-.046-11.572-.06-3.188-.013-6.376-.041-9.564-.082-3.856-.05-7.712-.074-11.568-.081a374.007 374.007 0 0 1-4.4-.046 323.739 323.739 0 0 0-6.16-.024l-3.537-.025c-4.048.79-5.528 2.48-8.118 5.608Zm0 108c-1.61 4.251-1.179 9.04-1.203 13.555l-.017 2.484c-.01 1.73-.016 3.46-.02 5.189-.01 2.631-.041 5.262-.073 7.893-.006 1.686-.011 3.372-.015 5.059l-.038 2.361c.021 5.216.758 8.895 3.366 13.459 3.941 3.014 6.92 3.378 11.819 3.388l2.017.016c2.193.013 4.385.005 6.578-.006a1685.168 1685.168 0 0 0 14.266-.007c4.099-.017 8.197-.007 12.295.01 3.174.012 6.349.008 9.523 0 1.51-.002 3.019 0 4.528.008 11.316.041 22.232-.228 31.322-7.737 2.65-2.682 4.058-5.238 5.652-8.672l1.25-2.688c2.263-9.995.678-18.376-4.25-27.312-3.095-4.276-6.27-6.738-11-9l-3.167-1.536c-3.788-1.61-7.099-1.856-11.234-1.884l-2.131-.026a650.738 650.738 0 0 0-6.91-.023l-4.836-.023c-3.37-.013-6.74-.015-10.11-.009-4.31.006-8.618-.025-12.928-.065-3.326-.026-6.652-.029-9.978-.025a468.951 468.951 0 0 1-4.766-.03 372.318 372.318 0 0 0-6.669.006l-3.825-.006c-4.564.823-6.194 2.364-9.446 5.621ZM1793 78l2.621 1.848c5.185 3.838 9.387 8.095 13.379 13.152l1.93 2.426c18.894 24.813 24.193 54.003 24.247 84.535l.02 4.744c.02 5.152.031 10.304.041 15.455l.013 5.348c.019 8.37.033 16.74.041 25.11.01 9.632.036 19.264.077 28.897.03 7.47.045 14.939.048 22.408.002 4.452.011 8.903.036 13.354.024 4.186.028 8.37.018 12.556 0 1.53.005 3.059.02 4.588.099 11.72-1.288 21.114-9.565 29.888-8.795 7.724-19.823 7.137-30.926 6.691-7.413-.752-13.866-3.297-18.762-9.082-4.564-6.487-6.482-12.648-6.503-20.626l-.025-3.97c0-1.436.002-2.871.003-4.307l-.02-4.575c-.016-3.276-.024-6.552-.029-9.828a4684.5 4684.5 0 0 0-.052-15.576 20076.16 20076.16 0 0 1-.112-33.099c-.033-11.888-.07-23.777-.124-35.666-.023-5.149-.037-10.297-.044-15.446-.006-3.221-.02-6.443-.036-9.665-.006-1.479-.008-2.958-.007-4.437.01-17.94-1.284-36.618-14.117-50.278C1754 131 1754 131 1754 129l-2.242-.816c-2.645-1.135-4.589-2.407-6.883-4.121-14.517-9.83-34.03-8.673-50.5-5.876-7.768 1.631-14.279 4.636-20.55 9.5C1672 129 1672 129 1670 129l-.824 1.754c-1.17 2.235-2.506 4.146-3.988 6.184-13.275 20.09-10.476 45.836-10.462 68.91.002 4.945-.012 9.89-.03 14.835-.046 14.042-.07 28.084-.077 42.127-.004 7.795-.022 15.59-.055 23.385-.02 4.905-.023 9.81-.012 14.716.003 3.054-.011 6.108-.03 9.162-.005 1.405-.004 2.81.005 4.215.053 9.098-.14 18.746-6.47 25.912-9.08 8.463-18.41 9.067-30.397 8.948-7.786-.315-14.753-1.756-20.66-7.148-5.557-7.245-8.121-12.606-8.134-21.696l-.007-2.036c-.006-2.252-.005-4.503-.004-6.754l-.01-4.845c-.01-4.389-.012-8.778-.012-13.167l-.006-8.238c-.009-9.591-.013-19.183-.012-28.774 0-8.92-.01-17.839-.026-26.758-.013-7.67-.018-15.341-.018-23.012 0-4.575-.002-9.15-.013-13.725-.01-4.312-.01-8.623-.003-12.935.002-1.573 0-3.147-.007-4.72-.033-9.284.532-18.186 2.252-27.34l.484-2.72c1.788-9.951 4.15-19.108 8.516-28.28.774-1.749 1.545-3.498 2.313-5.25.56-1.25 1.122-2.5 1.687-3.75h2l2-6h2l.73-2.188c2.298-5.09 6.469-8.79 10.27-12.812l2.375-2.625c7.42-6.714 15.715-11.89 24.625-16.375l2.879-1.527C1693.307 45.177 1754.65 50.8 1793 78ZM2010 127l4.363.848c28.14 5.66 53.66 21.885 69.819 45.909 2.505 3.968 4.7 8.056 6.818 12.243l1.426 2.813c7.373 16.07 13.048 39.887 9.043 57.527-.719 1.785-.719 1.785-2.469 4.66l-1.563 2.75c-7.105 6.559-17.863 5.684-26.927 5.65-1.435.006-2.87.013-4.305.022-3.07.015-6.14.02-9.21.02-4.853-.003-9.706.017-14.56.04-9.415.04-18.831.059-28.247.076-12.012.022-24.023.055-36.034.107-4.826.02-9.652.03-14.478.03-2.995.003-5.99.014-8.985.027a817.2 817.2 0 0 1-4.171.003 768.64 768.64 0 0 0-5.684.017l-3.215.005c-2.854.067-2.854.067-5.621 2.253.331 10.275 4.98 18.03 12.41 25.047 15.947 12.026 34.626 13.934 53.965 11.265 10.08-2.015 18.18-6.262 26.25-12.542 4.652-3.466 8.217-4.186 14-4.207l2.145-.012c6.276.137 11.003 1.93 16.23 5.449v2l1.75.563c4.058 2.592 5.751 6.941 7.25 11.437.748 9.412 1.18 18.259-5 26-17.782 18.641-46.259 26.5-71.207 27.281-35.249.647-65.474-6.974-91.965-31.273-4.404-4.255-8.59-8.784-11.828-14.008v-2h-2c-8.117-10.611-12.456-24.298-16-37l-.652-2.273c-7.856-29.015-1.911-63.058 12.882-88.872 5.857-9.45 5.857-9.45 8.77-12.855h2l.688-1.625c2.956-5.35 6.626-8.882 11.664-12.2 1.674-1.118 1.674-1.118 2.98-2.558 24.335-23.594 67.903-29.334 99.668-22.617Zm-61.07 64.836A143.12 143.12 0 0 0 1944 197l-1.52 1.43c-1.756 1.863-2.957 3.787-4.23 6.007l-1.36 2.31c-1.022 2.587-.848 3.69.11 6.253h2v2c3.283 1.641 6.924 1.156 10.533 1.161l2.676.015c2.929.015 5.858.022 8.787.027l6.09.017c4.26.01 8.52.017 12.78.02 5.465.006 10.93.03 16.396.058 4.195.019 8.389.024 12.583.026 2.015.003 4.03.01 6.046.024 2.816.017 5.63.015 8.447.008l2.536.028c4.219.103 4.219.103 7.815-1.784 1.563-1.907 2.04-3.154 2.311-5.6-4.611-12.157-14.107-19.857-25.563-25.188-19.486-8.656-45.273-6.373-61.507 8.024ZM1072 135l3.445 1.645c26.781 13.282 45.47 35.843 55.368 63.855 3.613 11.709 5.454 22.783 5.687 35l.093 2.787c.002 6.381-1.34 10.857-5.593 15.713-5.546 4.373-11.255 5.123-18.117 5.131l-3.726.012-4.063-.001-4.298.01c-3.08.008-6.16.013-9.241.017-4.87.006-9.74.022-14.61.041l-5.005.019-2.531.01c-11.335.042-22.67.075-34.004.087-7.651.008-15.302.03-22.953.07-4.048.02-8.095.031-12.143.026-3.805-.004-7.609.01-11.413.037-1.397.007-2.793.007-4.19 0-1.905-.009-3.81.01-5.716.029l-3.232.007c-3.4.623-4.591 1.882-6.758 4.505 4.033 13.03 11.72 22.74 23.598 29.473 14.537 7.174 33.808 7.708 49.402 3.527 5.875-2.054 11.026-4.259 16-8h2l1-3c6.866-5.007 14.806-5.055 23.013-4.318 6.977 1.116 12.604 6.025 16.803 11.486 4.437 6.867 5.019 13.762 4.184 21.832-.721 2.655-1.67 4.537-3 7l-1.297 2.95c-8.25 14.778-32.611 21.664-47.73 26.155-10.769 2.652-21.677 3.256-32.723 3.207l-3.967-.012c-22.472-.261-41.367-6.268-61.283-16.3v-2l-2.219-.828c-7.036-2.965-12.066-7.216-16.781-13.172-1.05-.85-2.113-1.682-3.188-2.5-18.601-15.697-27.456-43.91-29.535-67.355-2.01-27.462 2.85-53.699 17.723-77.145l1.555-2.785L924 170h2l.625-2.063C930.47 159.725 937.979 154.418 945 149l2.371-1.848c12.96-9.594 28.06-15.772 43.692-19.34l2.218-.506c25.115-5.427 55.356-3.561 78.719 7.694Zm-67 46-2.645.629c-5.977 1.607-11.085 4.15-16.355 7.371v2l-1.746.73c-2.687 1.514-4.292 3.262-6.317 5.583l-2.035 2.3c-3.998 4.952-3.998 4.952-4.777 11.075.553 3.576.553 3.576 3.875 5.312 2.908.205 5.721.294 8.63.29l2.672.02c2.919.02 5.838.024 8.757.026l6.079.02c4.25.012 8.499.016 12.748.015 5.449 0 10.897.027 16.346.061 4.186.022 8.371.026 12.557.025 2.009.003 4.018.012 6.027.027 2.808.02 5.616.014 8.424.002l2.52.034c3.623-.04 5.798-.2 8.772-2.355 1.726-2.163 1.726-2.163 1.718-5.29-1.428-6.959-8.167-13.24-13.25-17.875h-2v-2c-16.29-8.649-31.703-12.411-50-8ZM2162.164 53.848c7.764-.308 16.942.47 23.273 5.402 8.922 9.574 11.009 19.28 10.97 32.254.01 1.045.02 2.09.032 3.167.046 4.425.058 8.85.072 13.275.016 3.248.049 6.497.083 9.745l-.01 3.046.031 2.804.006 2.47L2197 128c3.689 2.46 6.475 2.279 10.741 2.255l2.386.011c1.71.007 3.421.01 5.132.008 2.712 0 5.423.012 8.135.03 7.711.046 15.422.07 23.133.077 4.718.005 9.435.03 14.152.065 1.793.01 3.587.012 5.38.007 2.519-.007 5.035.01 7.553.033l2.222-.025c7.623.12 14.008 3.618 19.557 8.734 5.998 6.727 7.377 13.598 7.03 22.465-.924 7.323-4.08 13.23-9.421 18.34-7.002 4.14-12.83 6.144-20.96 6.205l-2.454.03c-2.679.032-5.357.057-8.035.081l-5.57.063c-4.888.056-9.775.105-14.663.153-4.987.05-9.974.106-14.96.161-9.786.108-19.572.21-29.358.307a10356.6 10356.6 0 0 0-.155 33.955c-.016 5.256-.037 10.512-.071 15.768-.033 5.077-.05 10.154-.059 15.231-.005 1.932-.016 3.865-.032 5.797a949.544 949.544 0 0 0-.024 8.15l-.032 2.395c.04 7.443 1.946 14.616 6.373 20.704l3 2v2l2.082.621 2.73.817 2.708.808c1.835.558 3.66 1.147 5.48 1.754 9.36.881 17.673-.448 25.578-5.719 2.85-2.683 4.474-5.597 6.235-9.031 4.636-8.484 9.805-15.367 19.289-18.621 10.597-2.3 19.568-1.06 28.898 4.371v2l1.938.813C2303 272 2303 272 2304 275h2c5.528 12.597 6.657 20.35 1.703 33.305-2.757 6.31-6.495 12.255-10.703 17.695h-2l-.695 1.707c-1.654 2.907-3.694 4.749-6.18 6.98l-2.617 2.387c-2.32 1.782-3.658 2.535-6.508 2.926v2c-17.732 8.03-33.467 12.402-53.188 12.313l-3.835-.013c-24.806-.298-46.719-6.505-65.04-23.988-2.452-2.557-3.988-4.833-4.937-8.312h-2c-9.546-16.43-15.162-32.51-15.14-51.66l-.01-2.53c-.008-2.778-.01-5.556-.011-8.334l-.015-5.999c-.013-5.417-.02-10.834-.024-16.251l-.012-10.158a34410.42 34410.42 0 0 1-.027-31.794c-.004-12.227-.022-24.454-.05-36.68-.023-9.46-.033-18.919-.034-28.378a5689.2 5689.2 0 0 0-.025-16.94c-.016-5.309-.018-10.617-.01-15.925.001-1.946-.003-3.893-.013-5.84-.013-2.66-.007-5.319.004-7.978l-.025-2.327c.076-8.271 3.523-15.362 9.392-21.206 5.795-3.816 11.28-5.668 18.164-6.152ZM1485 127l1.934.358c17.893 3.318 33.764 10.85 46.066 24.642 5.114 7.488 5.145 16.695 3.55 25.473-.55 1.902-.55 1.902-1.55 4.527h-2l-.75 2.375c-1.404 2.948-2.257 3.527-5.25 4.625v2c-1.247.65-2.498 1.296-3.75 1.938l-2.11 1.09c-7.94 3.608-17.29 2.777-25.3-.176C1494 193 1494 193 1491 191v-2l-1.938-.813C1487 187 1487 187 1486 184c-1.8-1.127-1.8-1.127-4-2l-2.2-1.07c-9.52-4.036-20.924-4.665-30.925-1.805-5.17 2.128-9.412 5.457-12.313 10.25-1.024 4.78-1.3 8.879.626 13.438 5.786 6.983 15.44 8.747 23.937 10.187l2.905.514c6.617 1.148 13.251 2.094 19.908 2.986 17.002 2.318 33.714 6.775 48.062 16.5l2.371 1.586c11.156 8.014 16.32 19.409 19.629 32.414 2.479 20.952-.744 40.242-13.758 57.305-14.904 17.711-37.571 27.396-60.346 29.5-30.852 2.076-62.33.026-86.81-20.875-6.495-6.009-10.347-11.415-11.367-20.41-.308-8.276 1.543-14.76 6.718-21.27 5.981-6.254 13.498-9.418 22.126-9.813 10.23.617 16.573 4.137 23.44 11.55 5.518 5.867 12.007 8.693 20.046 9.122 2.422.062 4.84.077 7.264.079l2.474.037c8.374.02 16.1-1.604 23.213-6.225 4.553-4.903 5.283-7.996 5.227-14.516-.288-3.153-1.198-5.065-3.227-7.484l-2-1v-2l-1.723-.367-2.34-.508-2.285-.492a87.14 87.14 0 0 1-5.808-1.621c-4.74-1.248-9.42-1.774-14.282-2.325-12.352-1.51-24.444-3.876-36.562-6.687l-2.2-.503c-13.217-3.106-29.042-9.667-36.8-21.497v-2h-2c-9.7-13.017-11.278-30.05-9.563-45.809 2.092-11.866 5.85-22.147 12.563-32.191l2-3h2l.75-1.758c6.97-12.502 25.327-19.727 38.352-23.472 18.02-4.817 37.609-5.627 55.898-1.77ZM1276 127l2.03.407c8.957 1.808 17.064 3.847 24.97 8.593l3.316 1.922c13.69 8.098 13.69 8.098 15.684 14.078h2c4.306 9.547 5.236 17.61 1.906 27.676-2.98 7.64-8.286 11.885-15.593 15.137-7.47 2.533-15.904 2.043-23.22-.766-4.912-2.457-8.899-5.824-12.718-9.734-7.38-7.186-16.337-6.657-25.922-6.536-5.45.181-11.019.777-15.05 4.828C1232 184 1232 184 1230 184a305.65 305.65 0 0 0-2 5l-1.188 2.875c-1.004 3.865-.863 6.272.188 10.125 6.368 8.833 19.03 10.116 29 12 4.802.733 9.617 1.337 14.438 1.938 18.268 2.412 35.624 6.384 51.562 16.062v2l5 2v2l1.754.734c8 4.509 11.55 13.611 14.336 21.871 4.918 18.342 2.309 37.618-6.09 54.395-10.567 17.028-25.33 27.514-44 34l-2.523.906c-27.514 9.141-63.38 6.688-89.54-5.656-8.148-4.224-15.727-9.458-21.937-16.25l-1.52-1.39c-4.734-5.147-5.013-12.974-4.835-19.61.972-8.21 4.56-15 11.043-20.125 8.075-4.57 15.999-6.416 25.144-4.184 7.522 2.46 12.3 6.139 17.543 11.934 7.447 6.737 16.391 7.555 26 7.563l2.5.037c8.631.02 17.34-1.86 23.938-7.725 4.021-4.596 4.589-7.143 4.425-13.063-.326-3.337-.924-4.978-3.238-7.437-8.507-5.63-18.812-7.338-28.75-8.438-21.274-2.593-41.882-5.92-61.25-15.562v-2l-2.125-.688c-3.616-1.65-5.963-3.603-8.875-6.312v-2l-1.938-.75C1175 237 1175 237 1174.25 234.875L1174 233h-2c-9.49-17.35-9.92-37.663-5.066-56.652 3.61-11.307 10.474-23.041 20.066-30.348h2l1-3c2.063-.688 2.063-.688 4-1v-2c25.662-13.337 53.262-19.121 82-13ZM853.281 42.426c5.429 4.972 9.413 11.3 9.847 18.774l.003 2.44.012 2.827-.003 3.097.01 3.297c.008 3.658.01 7.317.011 10.976l.015 7.854c.014 7.122.02 14.244.024 21.366l.012 13.344c.012 12.317.022 24.634.026 36.95V168.134a1244222.207 1244222.207 0 0 0 .003 7.21c.004 12.865.021 25.731.045 38.597.023 13.213.036 26.425.037 39.637 0 7.417.007 14.834.025 22.251.017 6.977.018 13.953.01 20.93-.001 2.56.003 5.121.013 7.682.013 3.496.007 6.992-.004 10.488l.025 3.069c-.06 8.558-2.038 15.118-7.392 22.002-8.072 7.546-15.44 9.305-26.195 9.145-8.289-.428-13.581-2.611-19.805-8.145l-1.727-1.504C807 338 807 338 807 335h-2c-2.419-5.677-2.28-10.988-2.254-17.045l-.01-3.381c-.007-3.74-.001-7.48.005-11.22-.002-2.681-.006-5.362-.01-8.043a8699 8699 0 0 1-.002-19.579c.005-5.304.006-10.609.003-15.913v-2.289l-.003-4.602c-.005-14.383.001-28.765.012-43.148.009-12.34.007-24.68-.002-37.019a36579.226 36579.226 0 0 1-.007-47.58l.001-2.278c.002-5.298 0-10.596-.006-15.894a7691.3 7691.3 0 0 1 .007-19.37c.005-3.293.006-6.587 0-9.881-.005-3.571.002-7.142.012-10.713l-.013-3.153c.027-5.032.26-9.18 2.267-13.892h2l.266-1.773c1.603-4.86 6.932-8.26 11.297-10.602 11.924-3.058 24.88-3.26 34.718 4.8Z"/>
</svg>
