<svg xmlns="http://www.w3.org/2000/svg" viewBox="0 0 443 403">
  <path d="M153.906 32.145 156 34v2l1.766.805C161.684 38.9 164.75 42 168 45l1.945 1.781C178.911 55.348 186.054 65.778 193 76l1.996 2.898c3.832 5.636 7.332 11.32 10.516 17.344 1.538 2.85 3.19 5.61 4.863 8.383 4.032 6.865 7.335 14.021 10.647 21.251.932 2.024 1.877 4.04 2.83 6.054a566.234 566.234 0 0 1 9.62 21.492c1.05 2.46 2.115 4.905 3.212 7.344 3.928 8.764 7.393 17.626 10.64 26.664 1.448 4.001 3.005 7.95 4.598 11.896 1.162 2.882 2.305 5.772 3.445 8.662 4.28 10.812 8.6 21.526 13.633 32.012.96 2.103 1.918 4.208 2.875 6.313 3.536 7.65 7.294 15.18 11.125 22.687l.944 1.867c4.566 8.99 9.694 17.513 15.196 25.964l1.516 2.345 1.37 2.09C303 303 303 303 303 305h2c3 4.385 3 4.385 3 7h2l1.188 2.125c2.06 3.27 4.374 5.179 7.386 7.543L320 323v2l1.707.762c2.627 1.418 4.698 3.128 6.98 5.05 9.948 8.066 22.171 15.094 35.313 14.188 8.361-2.883 13.082-7.241 17-15 6.532-14.681 6.538-31.04.938-46-4.957-11.193-13.161-20.055-22.583-27.668L358 255v-2l-2.113-.762c-4.379-1.878-8.233-4.514-12.242-7.07-9.14-5.588-19.03-9.465-28.987-13.33-9.149-3.689-15.434-7.765-19.658-16.838-2.828-7.946-2.856-16.682.75-24.438 4.46-7.748 11.387-12.188 19.75-14.875 7.529-2.586 14.46-5.967 21.5-9.687l2.938-1.5c18.417-9.627 33.717-23.208 42.062-42.5l.934-2.063c4.744-11.984 4.353-27.308-.606-39.058a298.44 298.44 0 0 0-2.015-4.317l-.953-2.044c-2.477-4.85-5.507-7.98-10.36-10.518-9.342-2.756-18.94-.74-27.355 3.816C324.41 78.223 310.756 92.013 300 109l-2.215 3.309c-5.281 7.909-9.665 16.06-13.788 24.624a737.797 737.797 0 0 1-7.2 14.536 204.486 204.486 0 0 0-3.094 6.312C272.563 160 272.563 160 270 163c-3.11.632-5.878.49-9 0v-2h-2l-1.504-3.629c-3.251-7.806-6.523-15.592-10.121-23.246l-.854-1.833a229.113 229.113 0 0 0-4.29-8.687c-3.67-7.245-6.093-13.468-4.231-21.605 1.917-4.342 4.234-8.255 6.833-12.218a243.406 243.406 0 0 0 3.35-5.29C253.436 76.078 259.15 68.005 265 60l1.664-2.398L268 56h2l.688-1.625C274.192 48.031 279.495 43.561 285 39l1.62-1.354C301.967 24.866 317.878 15.142 337 9l2.977-.98c18.373-5.164 39.374-3.336 56.21 5.543A289.39 289.39 0 0 1 402 17l2.863 1.59L407 20v2l1.688.75C414.894 26.105 419.115 31.2 423 37v2h2c16.667 29.096 22.274 60.6 13.969 93.277-2.75 9.846-7.186 18.727-11.969 27.723a452.042 452.042 0 0 0-2 4h-2l-.77 2.2c-2.155 4.906-5.806 8.721-9.23 12.8l-1.8 2.18c-6.665 7.875-14.471 13.868-22.856 19.804L386 203v3l2.375.938C391 208 391 208 393 209v2l2.188.688c2.702 1.26 4.306 2.562 6.32 4.726a87.477 87.477 0 0 0 3.422 3.422c4.681 4.482 8.871 9.211 12.882 14.289l1.382 1.738C427 245.916 427 245.916 427 250h2c13.312 31.223 19.65 63.084 7 95.938a235.539 235.539 0 0 1-3 7.062l-1.273 2.973A279.867 279.867 0 0 1 429 362h-2l-.438 1.875C426 366 426 366 425 368h-2l-.563 2c-5.354 11.174-17.481 19.83-28.437 25l-2.29 1.082c-21.095 9.174-43.529 7.298-64.71-.457-5.913-2.445-11.471-5.417-17-8.625l-4.188-2.375L303 383v-2l-2.125-.73c-3.351-1.48-5.958-3.369-8.875-5.582-1.01-.76-2.021-1.519-3.063-2.301-2.85-2.316-5.384-4.75-7.937-7.387-.741-.73-1.482-1.46-2.246-2.21-4.483-4.427-8.828-8.858-12.754-13.79v-2h-2c-3-4.385-3-4.385-3-7h-2c-3-4.385-3-4.385-3-7h-2c-1.559-2.176-1.559-2.176-3.438-5.313l-1.042-1.737c-1.183-1.978-2.351-3.964-3.52-5.95l-1.32-2.223C238.32 307.065 232.362 296.245 227 285l-.873-1.824A917.781 917.781 0 0 1 220 270l-1.083-2.361C213.984 256.862 209.307 246.04 205 235a3432.45 3432.45 0 0 0-5.93-14.79c-3.16-7.85-6.281-15.702-9.195-23.648-2.2-5.977-4.72-11.745-7.45-17.5-1.354-2.909-2.592-5.84-3.8-8.812C173.206 157.11 166.85 144.446 160 132l-1.159-2.119c-2.968-5.393-6.073-10.688-9.279-15.944l-1.369-2.275c-4.608-7.563-9.785-14.381-15.775-20.9C131 89 131 89 130 86a88.837 88.837 0 0 0-4-2 101.61 101.61 0 0 1-4.125-3.563C119.14 77.924 119.14 77.924 116 76v-2l-2.207-.816c-2.726-1.155-5.003-2.512-7.48-4.121C98.478 64.316 90.222 61.657 81 63c-5.643 1.75-9.976 4.861-13 10-7.07 14.779-9.901 29.878-5.063 45.813 3.196 8.417 7.917 17.055 14.34 23.457C79 144 79 144 79 146l1.777.785c2.385 1.304 3.872 2.73 5.785 4.653 14.121 12.773 33.214 20.03 50.864 26.519C140 179 140 179 143 181v2l1.75.625c4.048 2.474 5.777 6.192 7.5 10.5 2.08 10.75.88 19.542-5.125 28.75-4.925 4.925-10.368 7.092-16.813 9.25C113.686 238.003 84.403 250.195 76 267h-2l-.938 2.375C72 272 72 272 71 274h-2l-.75 2.375c-1.283 3.72-2.738 7.333-4.25 10.965-4.996 13.289-4.521 27.272.504 40.469 2.4 5.12 5.06 9.43 9.68 12.77L76 342v2c9.699 1.46 16.858.4 26-3 1.998-.672 3.998-1.34 6-2v-2l2.813-1.438c12.286-7.038 22.029-17.378 29.863-28.99 1.062-1.556 2.188-3.069 3.324-4.572h2l.938-2.875C148 296 148 296 149 294h2l.347-1.71c.731-2.565 1.793-4.603 3.094-6.93l1.508-2.723 1.613-2.887c4.117-7.445 8.126-14.912 11.85-22.562A469.115 469.115 0 0 1 172 252l.982-1.955c.918-1.732 1.962-3.395 3.018-5.045 3.37-1.023 5.6-1.386 9.012-.445 3.017 2.193 3.966 5.271 5.3 8.632.608 1.46 1.218 2.918 1.829 4.375l.931 2.247c1.412 3.333 2.944 6.606 4.49 9.878l1.735 3.688.853 1.813c1.887 4.024 3.734 8.066 5.588 12.105.75 1.608 1.538 3.2 2.403 4.75 2.193 4.995 1.639 10.91-.262 15.898A99.577 99.577 0 0 1 204 315h-2l-.625 2.438c-1.517 3.93-3.527 6.993-5.918 10.437-1.576 2.237-1.576 2.237-3.207 5.188L191 335h-2l-.715 2.113c-1.516 3.406-3.555 6.168-5.847 9.075l-1.33 1.703c-4.115 5.216-8.3 10.518-13.108 15.109h-2l-1 3a120.327 120.327 0 0 1-6.375 5.188l-1.924 1.48A1175.397 1175.397 0 0 1 151 377l-2.883 2.219c-21.066 15.847-46.663 25.793-73.365 22.504-21.114-3.205-38.003-13.47-50.69-30.598C22 368 22 368 22 366h-2c-8.241-15.858-15.417-32.858-16-51l-.062-1.912C3.058 281.282 12.626 251.166 34 227a128.63 128.63 0 0 1 6.172-5.457c1.983-1.623 1.983-1.623 4.203-3.98C49.154 212.897 54.444 208.703 60 205c-1.184-3.552-2.296-4.241-5.25-6.438l-2.45-1.851L50 195c-1.703-1.286-3.39-2.598-5-4v-2l-1.688-.688C40.338 186.625 38.28 184.534 36 182v-2l-3-1c-1.605-1.777-1.605-1.777-3.188-3.938l-1.605-2.152C27 171 27 171 27 169h-2c-1.157-1.538-1.157-1.538-2.426-3.7l-1.408-2.396-1.479-2.591-1.505-2.627C14.402 150.966 11.336 144.365 9 137l-.887-2.676c-8.665-28.53-4.863-60.428 8.817-86.558C24.734 33.31 35.52 21.756 50 14l3.438-2c34.175-16.404 72.25-.678 100.468 20.145Z"/>
</svg>
