<svg viewBox="0 0 20 20" fill="none" xmlns="http://www.w3.org/2000/svg">
  <path d="m17.667 13.75-5.5-9.834c-.417-.833-1.25-1.25-2.167-1.25-.916 0-1.75.417-2.167 1.25l-5.5 9.834a2.656 2.656 0 0 0 0 2.5C2.75 17 3.583 17.5 4.5 17.5h11c.917 0 1.667-.5 2.167-1.25.5-.75.416-1.667 0-2.5Zm-1.417 1.666c-.083.084-.25.417-.75.417h-11c-.417 0-.667-.25-.75-.417-.083-.166-.25-.416 0-.833l5.5-9.916c.25-.417.584-.417.75-.417.167 0 .5 0 .75.417l5.5 9.916c.167.417 0 .75 0 .833Z" fill="currentColor"/>
  <path d="M10 7.5c-.5 0-.833.333-.833.833v2.5c0 .5.333.834.833.834.5 0 .834-.334.834-.834v-2.5c0-.5-.334-.833-.834-.833Zm0 6.667a.833.833 0 1 0 0-1.667.833.833 0 0 0 0 1.667Z" fill="currentColor"/>
</svg>
